<svg width="232" height="32" viewBox="0 0 232 32" fill="none" xmlns="http://www.w3.org/2000/svg">
<path d="M9.37293 31.9998C14.5495 31.9998 18.7459 27.8047 18.7459 22.6298C18.7459 17.4549 14.5495 13.2598 9.37293 13.2598C4.1964 13.2598 0 17.4549 0 22.6298C0 27.8047 4.1964 31.9998 9.37293 31.9998Z" fill="url(#paint0_linear_333_17846)"/>
<path d="M22.6271 18.74C27.8036 18.74 32 14.5449 32 9.37C32 4.19509 27.8036 0 22.6271 0C17.4506 0 13.2542 4.19509 13.2542 9.37C13.2542 14.5449 17.4506 18.74 22.6271 18.74Z" fill="url(#paint1_linear_333_17846)"/>
<path d="M9.37293 18.74C14.5495 18.74 18.7459 14.5449 18.7459 9.37C18.7459 4.19509 14.5495 0 9.37293 0C4.1964 0 0 4.19509 0 9.37C0 14.5449 4.1964 18.74 9.37293 18.74Z" fill="url(#paint2_linear_333_17846)"/>
<path d="M22.6271 31.9998C27.8036 31.9998 32 27.8047 32 22.6298C32 17.4549 27.8036 13.2598 22.6271 13.2598C17.4506 13.2598 13.2542 17.4549 13.2542 22.6298C13.2542 27.8047 17.4506 31.9998 22.6271 31.9998Z" fill="url(#paint3_linear_333_17846)"/>
<path d="M54.7031 13.4922C54.4609 12.6875 54.0273 12.0586 53.4023 11.6055C52.7773 11.1523 52.0078 10.9219 51.0938 10.9141C50.2188 10.9219 49.4492 11.1445 48.7852 11.582C48.1211 12.0195 47.6055 12.6562 47.2383 13.4922C46.8711 14.3281 46.6875 15.3281 46.6875 16.4922C46.6875 17.6719 46.8672 18.6836 47.2266 19.5273C47.5859 20.3711 48.0977 21.0117 48.7617 21.4492C49.4258 21.8867 50.2109 22.1094 51.1172 22.1172C51.9141 22.1172 52.6016 21.9727 53.1797 21.6836C53.7656 21.3945 54.2148 20.9883 54.5273 20.4648C54.8477 19.9336 55.0156 19.3125 55.0312 18.6016H51.3516V15.9531H58.4297V18.0625C58.4297 19.5234 58.1172 20.7969 57.4922 21.8828C56.875 22.9609 56.0078 23.7891 54.8906 24.3672C53.7812 24.9453 52.5156 25.2344 51.0938 25.2344C49.5156 25.2344 48.1211 24.8828 46.9102 24.1797C45.707 23.4688 44.7695 22.4609 44.0977 21.1562C43.4336 19.8438 43.1016 18.3047 43.1016 16.5391C43.1016 14.75 43.4453 13.1953 44.1328 11.875C44.8203 10.5547 45.7656 9.54688 46.9688 8.85156C48.1719 8.14844 49.5234 7.79688 51.0234 7.79688C52.2812 7.79688 53.4336 8.03906 54.4805 8.52344C55.5273 9.00781 56.3789 9.68359 57.0352 10.5508C57.6992 11.4102 58.1094 12.3906 58.2656 13.4922H54.7031ZM66.6562 25.2578C65.3906 25.2578 64.2852 24.9844 63.3398 24.4375C62.4023 23.8828 61.6797 23.1094 61.1719 22.1172C60.6719 21.125 60.4219 19.9766 60.4219 18.6719C60.4219 17.3672 60.6719 16.2227 61.1719 15.2383C61.6797 14.2461 62.4023 13.4766 63.3398 12.9297C64.2852 12.3828 65.3906 12.1094 66.6562 12.1094C67.9219 12.1094 69.0234 12.3828 69.9609 12.9297C70.9062 13.4766 71.6328 14.2461 72.1406 15.2383C72.6562 16.2227 72.9141 17.3672 72.9141 18.6719C72.9141 19.9766 72.6562 21.125 72.1406 22.1172C71.6328 23.1094 70.9062 23.8828 69.9609 24.4375C69.0234 24.9844 67.9219 25.2578 66.6562 25.2578ZM63.9375 18.6719C63.9375 19.4297 64.0391 20.1016 64.2422 20.6875C64.4531 21.2656 64.7656 21.7227 65.1797 22.0586C65.5938 22.3945 66.0938 22.5625 66.6797 22.5625C67.25 22.5625 67.7383 22.3984 68.1445 22.0703C68.5508 21.7344 68.8555 21.2773 69.0586 20.6992C69.2695 20.1211 69.375 19.4609 69.375 18.7188C69.375 17.9531 69.2734 17.2734 69.0703 16.6797C68.8672 16.0781 68.5625 15.6094 68.1562 15.2734C67.75 14.9297 67.2578 14.7578 66.6797 14.7578C66.0938 14.7578 65.5938 14.9258 65.1797 15.2617C64.7656 15.5977 64.4531 16.0625 64.2422 16.6562C64.0391 17.2422 63.9375 17.9141 63.9375 18.6719ZM75.0938 12.2734H78.3984V14.5H78.5391C78.8125 13.75 79.2578 13.1641 79.875 12.7422C80.4922 12.3203 81.2266 12.1094 82.0781 12.1094C82.9453 12.1094 83.6875 12.3242 84.3047 12.7539C84.9219 13.1836 85.3359 13.7656 85.5469 14.5H85.6641C85.9297 13.7734 86.4062 13.1953 87.0938 12.7656C87.7812 12.3281 88.5859 12.1094 89.5078 12.1094C90.2969 12.1094 90.9922 12.2812 91.5938 12.625C92.2031 12.9609 92.6758 13.457 93.0117 14.1133C93.3477 14.7617 93.5156 15.5391 93.5156 16.4453V25H90.0469V17.125C90.0547 16.4219 89.8711 15.8867 89.4961 15.5195C89.1289 15.1523 88.6484 14.9688 88.0547 14.9688C87.4141 14.9688 86.9062 15.1758 86.5312 15.5898C86.1641 15.9961 85.9844 16.5391 85.9922 17.2188V25H82.6172V17.0312C82.625 16.4062 82.4453 15.9062 82.0781 15.5312C81.7188 15.1562 81.2422 14.9688 80.6484 14.9688C80.2578 14.9688 79.9023 15.0703 79.582 15.2734C79.2617 15.4688 79.0117 15.75 78.832 16.1172C78.6523 16.4766 78.5625 16.8906 78.5625 17.3594V25H75.0938V12.2734ZM96.1875 12.2734H99.6562V25H96.1875V12.2734ZM97.9219 10.6094C97.5781 10.6094 97.2617 10.5312 96.9727 10.375C96.6836 10.2109 96.4531 9.99609 96.2812 9.73047C96.1094 9.45703 96.0234 9.16406 96.0234 8.85156C96.0234 8.53125 96.1094 8.23438 96.2812 7.96094C96.4531 7.6875 96.6836 7.47266 96.9727 7.31641C97.2617 7.15234 97.5781 7.07031 97.9219 7.07031C98.2578 7.07031 98.5703 7.15234 98.8594 7.31641C99.1484 7.47266 99.375 7.6875 99.5391 7.96094C99.7109 8.23438 99.7969 8.53125 99.7969 8.85156C99.7969 9.16406 99.7109 9.45703 99.5391 9.73047C99.375 9.99609 99.1484 10.2109 98.8594 10.375C98.5703 10.5312 98.2578 10.6094 97.9219 10.6094ZM117.164 12.8828C117.094 12.2109 116.801 11.6875 116.285 11.3125C115.777 10.9375 115.094 10.75 114.234 10.75C113.648 10.75 113.145 10.8359 112.723 11.0078C112.309 11.1719 111.992 11.4023 111.773 11.6992C111.555 11.9961 111.445 12.332 111.445 12.707C111.445 13.2695 111.688 13.7148 112.172 14.043C112.664 14.3633 113.328 14.6172 114.164 14.8047L115.688 15.1797C117.258 15.5391 118.496 16.125 119.402 16.9375C120.309 17.7422 120.766 18.8125 120.773 20.1484C120.773 21.1797 120.512 22.0781 119.988 22.8438C119.465 23.6094 118.711 24.1992 117.727 24.6133C116.742 25.0273 115.57 25.2344 114.211 25.2344C112.836 25.2422 111.645 25.0352 110.637 24.6133C109.629 24.1914 108.844 23.5664 108.281 22.7383C107.719 21.9102 107.422 20.8984 107.391 19.7031H110.812C110.867 20.5391 111.195 21.1797 111.797 21.625C112.406 22.0625 113.195 22.2812 114.164 22.2812C114.773 22.2812 115.309 22.1914 115.77 22.0117C116.23 21.832 116.586 21.582 116.836 21.2617C117.086 20.9414 117.211 20.5703 117.211 20.1484C117.211 19.6016 116.973 19.168 116.496 18.8477C116.027 18.5195 115.297 18.2344 114.305 17.9922L112.453 17.5469C109.375 16.7891 107.836 15.25 107.836 12.9297C107.836 11.9219 108.109 11.0312 108.656 10.2578C109.211 9.47656 109.973 8.87109 110.941 8.44141C111.918 8.01172 113.023 7.79688 114.258 7.79688C115.492 7.79688 116.582 8.01172 117.527 8.44141C118.473 8.87109 119.207 9.47266 119.73 10.2461C120.254 11.0117 120.523 11.8906 120.539 12.8828H117.164ZM128.766 25.2578C127.477 25.2578 126.359 24.9922 125.414 24.4609C124.469 23.9219 123.742 23.1602 123.234 22.1758C122.734 21.1914 122.484 20.0312 122.484 18.6953C122.484 17.3984 122.734 16.2539 123.234 15.2617C123.742 14.2617 124.461 13.4883 125.391 12.9414C126.32 12.3867 127.398 12.1094 128.625 12.1094C129.766 12.1094 130.785 12.3516 131.684 12.8359C132.59 13.3125 133.301 14.0352 133.816 15.0039C134.34 15.9727 134.602 17.1562 134.602 18.5547V19.5391H125.906C125.906 20.1719 126.023 20.7227 126.258 21.1914C126.5 21.6602 126.84 22.0234 127.277 22.2812C127.723 22.5312 128.242 22.6562 128.836 22.6562C129.414 22.6484 129.91 22.5312 130.324 22.3047C130.738 22.0703 131.031 21.7578 131.203 21.3672H134.508C134.344 22.1562 134.008 22.8438 133.5 23.4297C132.992 24.0078 132.332 24.457 131.52 24.7773C130.715 25.0977 129.797 25.2578 128.766 25.2578ZM131.32 17.3594C131.32 16.8516 131.207 16.3945 130.98 15.9883C130.762 15.582 130.453 15.2695 130.055 15.0508C129.656 14.8242 129.203 14.7109 128.695 14.7109C128.18 14.7109 127.711 14.8281 127.289 15.0625C126.875 15.2969 126.547 15.6172 126.305 16.0234C126.062 16.4297 125.93 16.875 125.906 17.3594H131.32ZM143.484 14.875H141.094V21.0859C141.086 21.5625 141.184 21.8945 141.387 22.082C141.598 22.2617 141.898 22.3594 142.289 22.375C142.648 22.375 143.109 22.3516 143.672 22.3047V25.0469C143.156 25.125 142.527 25.1641 141.785 25.1641C140.488 25.1641 139.469 24.8672 138.727 24.2734C137.984 23.6719 137.617 22.7734 137.625 21.5781V14.875H135.867V12.2734H137.625V9.22656H141.094V12.2734H143.484V14.875ZM152.367 14.875H149.977V21.0859C149.969 21.5625 150.066 21.8945 150.27 22.082C150.48 22.2617 150.781 22.3594 151.172 22.375C151.531 22.375 151.992 22.3516 152.555 22.3047V25.0469C152.039 25.125 151.41 25.1641 150.668 25.1641C149.371 25.1641 148.352 24.8672 147.609 24.2734C146.867 23.6719 146.5 22.7734 146.508 21.5781V14.875H144.75V12.2734H146.508V9.22656H149.977V12.2734H152.367V14.875ZM158.297 25H154.828V8.03125H158.297V25ZM166.758 25.2578C165.469 25.2578 164.352 24.9922 163.406 24.4609C162.461 23.9219 161.734 23.1602 161.227 22.1758C160.727 21.1914 160.477 20.0312 160.477 18.6953C160.477 17.3984 160.727 16.2539 161.227 15.2617C161.734 14.2617 162.453 13.4883 163.383 12.9414C164.312 12.3867 165.391 12.1094 166.617 12.1094C167.758 12.1094 168.777 12.3516 169.676 12.8359C170.582 13.3125 171.293 14.0352 171.809 15.0039C172.332 15.9727 172.594 17.1562 172.594 18.5547V19.5391H163.898C163.898 20.1719 164.016 20.7227 164.25 21.1914C164.492 21.6602 164.832 22.0234 165.27 22.2812C165.715 22.5312 166.234 22.6562 166.828 22.6562C167.406 22.6484 167.902 22.5312 168.316 22.3047C168.73 22.0703 169.023 21.7578 169.195 21.3672H172.5C172.336 22.1562 172 22.8438 171.492 23.4297C170.984 24.0078 170.324 24.457 169.512 24.7773C168.707 25.0977 167.789 25.2578 166.758 25.2578ZM169.312 17.3594C169.312 16.8516 169.199 16.3945 168.973 15.9883C168.754 15.582 168.445 15.2695 168.047 15.0508C167.648 14.8242 167.195 14.7109 166.688 14.7109C166.172 14.7109 165.703 14.8281 165.281 15.0625C164.867 15.2969 164.539 15.6172 164.297 16.0234C164.055 16.4297 163.922 16.875 163.898 17.3594H169.312ZM174.773 12.2734H178.078V14.5H178.219C178.492 13.75 178.938 13.1641 179.555 12.7422C180.172 12.3203 180.906 12.1094 181.758 12.1094C182.625 12.1094 183.367 12.3242 183.984 12.7539C184.602 13.1836 185.016 13.7656 185.227 14.5H185.344C185.609 13.7734 186.086 13.1953 186.773 12.7656C187.461 12.3281 188.266 12.1094 189.188 12.1094C189.977 12.1094 190.672 12.2812 191.273 12.625C191.883 12.9609 192.355 13.457 192.691 14.1133C193.027 14.7617 193.195 15.5391 193.195 16.4453V25H189.727V17.125C189.734 16.4219 189.551 15.8867 189.176 15.5195C188.809 15.1523 188.328 14.9688 187.734 14.9688C187.094 14.9688 186.586 15.1758 186.211 15.5898C185.844 15.9961 185.664 16.5391 185.672 17.2188V25H182.297V17.0312C182.305 16.4062 182.125 15.9062 181.758 15.5312C181.398 15.1562 180.922 14.9688 180.328 14.9688C179.938 14.9688 179.582 15.0703 179.262 15.2734C178.941 15.4688 178.691 15.75 178.512 16.1172C178.332 16.4766 178.242 16.8906 178.242 17.3594V25H174.773V12.2734ZM201.633 25.2578C200.344 25.2578 199.227 24.9922 198.281 24.4609C197.336 23.9219 196.609 23.1602 196.102 22.1758C195.602 21.1914 195.352 20.0312 195.352 18.6953C195.352 17.3984 195.602 16.2539 196.102 15.2617C196.609 14.2617 197.328 13.4883 198.258 12.9414C199.188 12.3867 200.266 12.1094 201.492 12.1094C202.633 12.1094 203.652 12.3516 204.551 12.8359C205.457 13.3125 206.168 14.0352 206.684 15.0039C207.207 15.9727 207.469 17.1562 207.469 18.5547V19.5391H198.773C198.773 20.1719 198.891 20.7227 199.125 21.1914C199.367 21.6602 199.707 22.0234 200.145 22.2812C200.59 22.5312 201.109 22.6562 201.703 22.6562C202.281 22.6484 202.777 22.5312 203.191 22.3047C203.605 22.0703 203.898 21.7578 204.07 21.3672H207.375C207.211 22.1562 206.875 22.8438 206.367 23.4297C205.859 24.0078 205.199 24.457 204.387 24.7773C203.582 25.0977 202.664 25.2578 201.633 25.2578ZM204.188 17.3594C204.188 16.8516 204.074 16.3945 203.848 15.9883C203.629 15.582 203.32 15.2695 202.922 15.0508C202.523 14.8242 202.07 14.7109 201.562 14.7109C201.047 14.7109 200.578 14.8281 200.156 15.0625C199.742 15.2969 199.414 15.6172 199.172 16.0234C198.93 16.4297 198.797 16.875 198.773 17.3594H204.188ZM213.117 25H209.648V12.2734H212.953V14.5H213.094C213.383 13.7578 213.859 13.1758 214.523 12.7539C215.188 12.3242 215.984 12.1094 216.914 12.1094C217.797 12.1094 218.566 12.3047 219.223 12.6953C219.887 13.0781 220.398 13.6289 220.758 14.3477C221.117 15.0664 221.297 15.9141 221.297 16.8906V25H217.852V17.5C217.844 16.7109 217.637 16.0977 217.23 15.6602C216.832 15.2148 216.273 14.9922 215.555 14.9922C214.82 14.9922 214.23 15.2266 213.785 15.6953C213.34 16.1641 213.117 16.8125 213.117 17.6406V25ZM230.695 14.875H228.305V21.0859C228.297 21.5625 228.395 21.8945 228.598 22.082C228.809 22.2617 229.109 22.3594 229.5 22.375C229.859 22.375 230.32 22.3516 230.883 22.3047V25.0469C230.367 25.125 229.738 25.1641 228.996 25.1641C227.699 25.1641 226.68 24.8672 225.938 24.2734C225.195 23.6719 224.828 22.7734 224.836 21.5781V14.875H223.078V12.2734H224.836V9.22656H228.305V12.2734H230.695V14.875Z" fill="#FF5100"/>
<defs>
<linearGradient id="paint0_linear_333_17846" x1="2.74527" y1="29.2554" x2="28.3324" y2="3.66024" gradientUnits="userSpaceOnUse">
<stop stop-color="#FF7500"/>
<stop offset="1" stop-color="#FC5000"/>
</linearGradient>
<linearGradient id="paint1_linear_333_17846" x1="2.74409" y1="29.2468" x2="28.3312" y2="3.65165" gradientUnits="userSpaceOnUse">
<stop stop-color="#FF7500"/>
<stop offset="1" stop-color="#FC5000"/>
</linearGradient>
<linearGradient id="paint2_linear_333_17846" x1="28.998" y1="28.989" x2="4.02702" y2="4.01014" gradientUnits="userSpaceOnUse">
<stop stop-color="#FF7500"/>
<stop offset="1" stop-color="#FC5000"/>
</linearGradient>
<linearGradient id="paint3_linear_333_17846" x1="28.993" y1="28.9937" x2="4.02202" y2="4.01491" gradientUnits="userSpaceOnUse">
<stop stop-color="#FF7500"/>
<stop offset="1" stop-color="#FC5000"/>
</linearGradient>
</defs>
</svg>
