<svg width="166" height="32" viewBox="0 0 166 32" fill="none" xmlns="http://www.w3.org/2000/svg">
<g clip-path="url(#clip0_2450_8460)">
<path d="M9.37293 31.9998C14.5495 31.9998 18.7459 27.8047 18.7459 22.6298C18.7459 17.4549 14.5495 13.2598 9.37293 13.2598C4.1964 13.2598 0 17.4549 0 22.6298C0 27.8047 4.1964 31.9998 9.37293 31.9998Z" fill="url(#paint0_linear_2450_8460)"/>
<path d="M22.6268 18.74C27.8034 18.74 31.9998 14.5449 31.9998 9.37C31.9998 4.19509 27.8034 0 22.6268 0C17.4503 0 13.2539 4.19509 13.2539 9.37C13.2539 14.5449 17.4503 18.74 22.6268 18.74Z" fill="url(#paint1_linear_2450_8460)"/>
<path d="M9.37293 18.74C14.5495 18.74 18.7459 14.5449 18.7459 9.37C18.7459 4.19509 14.5495 0 9.37293 0C4.1964 0 0 4.19509 0 9.37C0 14.5449 4.1964 18.74 9.37293 18.74Z" fill="url(#paint2_linear_2450_8460)"/>
<path d="M22.6268 31.9998C27.8034 31.9998 31.9998 27.8047 31.9998 22.6298C31.9998 17.4549 27.8034 13.2598 22.6268 13.2598C17.4503 13.2598 13.2539 17.4549 13.2539 22.6298C13.2539 27.8047 17.4503 31.9998 22.6268 31.9998Z" fill="url(#paint3_linear_2450_8460)"/>
<path d="M48.7313 11.6372C46.2013 11.6372 44.4813 13.5772 44.4813 17.0172C44.4813 20.4772 46.1412 22.4372 48.7612 22.4372C51.0912 22.4372 52.4912 21.1272 52.5412 19.0572H48.9912V16.4772H55.8313V18.5272C55.8313 22.8272 52.8713 25.4472 48.7513 25.4472C44.1513 25.4472 41.0312 22.2272 41.0312 17.0472C41.0312 11.7372 44.3513 8.61719 48.6813 8.61719C52.3713 8.61719 55.2213 10.8872 55.6813 14.1172H52.2213C51.7613 12.5872 50.5312 11.6372 48.7313 11.6372Z" fill="#FF5100"/>
<path d="M56.7422 19.1371C56.7422 15.3271 59.0622 12.7871 62.7722 12.7871C66.4922 12.7871 68.8022 15.3271 68.8022 19.1371C68.8022 22.9271 66.4922 25.4771 62.7722 25.4771C59.0622 25.4771 56.7422 22.9171 56.7422 19.1371ZM62.8022 22.8771C64.5122 22.8771 65.4122 21.2771 65.4122 19.1171C65.4122 16.9671 64.5122 15.3471 62.8022 15.3471C61.0522 15.3471 60.1422 16.9671 60.1422 19.1171C60.1422 21.2771 61.0522 22.8771 62.8022 22.8771Z" fill="#FF5100"/>
<path d="M69.9219 12.9471H73.1119V15.1071H73.2519C73.7619 13.6671 75.0119 12.7871 76.6719 12.7871C78.3519 12.7871 79.6019 13.6871 80.0019 15.1071H80.1319C80.6419 13.6971 82.0319 12.7871 83.8319 12.7871C86.1219 12.7871 87.7119 14.2971 87.7119 16.9671V25.2371H84.3719V17.6171C84.3719 16.2371 83.5419 15.5571 82.4419 15.5571C81.1819 15.5571 80.4419 16.4271 80.4419 17.7171V25.2371H77.1919V17.5371C77.1919 16.3271 76.4319 15.5471 75.2919 15.5471C74.1419 15.5471 73.2619 16.4571 73.2619 17.8471V25.2371H69.9219V12.9471Z" fill="#FF5100"/>
<path d="M90.9706 7.92676C91.9706 7.92676 92.7906 8.69676 92.7906 9.62676C92.7906 10.5668 91.9706 11.3268 90.9706 11.3268C89.9606 11.3268 89.1406 10.5668 89.1406 9.62676C89.1406 8.69676 89.9706 7.92676 90.9706 7.92676ZM89.2906 12.9468H92.6306V25.2368H89.2906V12.9468Z" fill="#FF5100"/>
<path d="M101.766 8.68898H98.332V25.237H101.766V8.68898Z" fill="#FF5100"/>
<path d="M106.939 18.0538C106.939 16.4216 107.909 15.4763 109.323 15.4763C110.721 15.4763 111.553 16.3974 111.545 17.9245V25.237H114.931V17.3347C114.931 14.4339 113.242 12.6644 110.656 12.6644C108.806 12.6644 107.481 13.5694 106.923 15.0076H106.778V12.826H103.554V25.237H106.939V18.0538Z" fill="#FF5100"/>
<path d="M123.697 16.5186H126.865C126.687 14.1511 124.748 12.6644 121.604 12.6644C118.413 12.6644 116.369 14.1511 116.377 16.5348C116.369 18.3689 117.581 19.589 119.956 20.0577L122.008 20.4617C123.172 20.7041 123.689 21.1 123.697 21.7464C123.689 22.5464 122.873 23.0312 121.645 23.0312C120.392 23.0312 119.609 22.5302 119.439 21.5606H116.045C116.32 23.9846 118.284 25.4794 121.645 25.4794C124.942 25.4794 127.131 23.8473 127.139 21.4071C127.131 19.6133 125.968 18.5386 123.568 18.0457L121.33 17.5933C120.166 17.3428 119.73 16.9065 119.738 16.3408C119.73 15.5975 120.562 15.0803 121.661 15.0803C122.792 15.0803 123.552 15.6379 123.697 16.5186Z" fill="#FF5100"/>
<path d="M128.281 25.237H131.666V12.826H128.281V25.237ZM128.135 9.48083C128.135 10.4343 128.968 11.2019 129.978 11.2019C130.988 11.2019 131.82 10.4343 131.82 9.48083C131.82 8.53546 130.988 7.75977 129.978 7.75977C128.968 7.75977 128.135 8.53546 128.135 9.48083Z" fill="#FF5100"/>
<path d="M138.93 30.1497C142.461 30.1497 144.958 28.5418 144.958 25.3663V12.826H141.613V14.9107H141.475C141.015 13.9087 140.021 12.6644 137.928 12.6644C135.189 12.6644 132.886 14.7571 132.886 18.9588C132.886 23.0877 135.133 25.0593 137.936 25.0593C139.932 25.0593 141.023 24.0493 141.483 23.0312H141.629V25.3178C141.629 27.0389 140.579 27.7015 139.003 27.7015C137.662 27.7015 136.724 27.2571 136.538 26.2551H133.201C133.403 28.6145 135.512 30.1497 138.93 30.1497ZM136.345 18.9911C136.345 16.858 137.258 15.3712 138.995 15.3712C140.684 15.3712 141.637 16.7933 141.637 18.9911C141.637 21.197 140.667 22.514 138.995 22.514C137.274 22.514 136.345 21.1485 136.345 18.9911Z" fill="#FF5100"/>
<path d="M150.041 18.0538C150.041 16.4216 151.043 15.4763 152.465 15.4763C153.879 15.4763 154.711 16.3812 154.703 17.9245V25.237H158.089V17.3347C158.089 14.4178 156.384 12.6644 153.798 12.6644C151.907 12.6644 150.655 13.5532 150.089 15.0076H149.944V8.68898H146.655V25.237H150.041V18.0538Z" fill="#FF5100"/>
<path d="M166.303 12.826H163.96V9.85251H160.574V12.826H158.87V15.3712H160.574V21.8919C160.558 24.3078 162.223 25.4067 164.679 25.4067C165.503 25.4067 166.109 25.3421 166.465 25.2855V22.6191C166.061 22.6433 165.471 22.6837 165.14 22.6756C164.445 22.6514 163.96 22.4171 163.96 21.4313V15.3712H166.303V12.826Z" fill="#FF5100"/>
</g>
<defs>
<linearGradient id="paint0_linear_2450_8460" x1="2.74527" y1="29.2554" x2="28.3324" y2="3.66024" gradientUnits="userSpaceOnUse">
<stop stop-color="#FF7500"/>
<stop offset="1" stop-color="#FC5000"/>
</linearGradient>
<linearGradient id="paint1_linear_2450_8460" x1="2.74384" y1="29.2468" x2="28.331" y2="3.65165" gradientUnits="userSpaceOnUse">
<stop stop-color="#FF7500"/>
<stop offset="1" stop-color="#FC5000"/>
</linearGradient>
<linearGradient id="paint2_linear_2450_8460" x1="28.998" y1="28.989" x2="4.02702" y2="4.01014" gradientUnits="userSpaceOnUse">
<stop stop-color="#FF7500"/>
<stop offset="1" stop-color="#FC5000"/>
</linearGradient>
<linearGradient id="paint3_linear_2450_8460" x1="28.9928" y1="28.9937" x2="4.02178" y2="4.01491" gradientUnits="userSpaceOnUse">
<stop stop-color="#FF7500"/>
<stop offset="1" stop-color="#FC5000"/>
</linearGradient>
<clipPath id="clip0_2450_8460">
<rect width="166" height="32" />
</clipPath>
</defs>
</svg>
