<svg width="16" height="16" viewBox="0 0 16 16" fill="none" xmlns="http://www.w3.org/2000/svg">
<g clip-path="url(#clip0_5367_193117)">
<rect x="1" y="1" width="14" height="14" rx="2" fill="white"/>
<path d="M15 5.66602L1 5.66601L1 1.36779C1 1.16433 1.10809 0.999348 1.24139 0.999348L14.7586 0.999349C14.8919 0.999349 15 1.16433 15 1.36779L15 5.66602Z" fill="#73AF00"/>
<path d="M1 10.334L15 10.334V14.6322C15 14.8357 14.8919 15.0007 14.7586 15.0007L1.24139 15.0007C1.10809 15.0007 1 14.8357 1 14.6322L1 10.334Z" fill="#464655"/>
<path d="M5.6665 1L5.6665 15L1.36828 15C1.16482 15 0.999837 14.8919 0.999837 14.7586L0.999837 1.24139C0.999837 1.10809 1.16482 1 1.36828 1L5.6665 1Z" fill="#FF334B"/>
</g>
<defs>
<clipPath id="clip0_5367_193117">
<rect x="1" y="1" width="14" height="14" rx="2" fill="white"/>
</clipPath>
</defs>
</svg>
