<svg width="16" height="16" viewBox="0 0 16 16" fill="none" xmlns="http://www.w3.org/2000/svg">
<g clip-path="url(#clip0_5367_193082)">
<rect x="1" y="15" width="14" height="14" rx="2" transform="rotate(-90 1 15)" fill="#464655"/>
<path d="M1 14.7586L0.999999 1.24139C0.999999 1.10809 1.16498 1 1.36844 1L5.66667 1L5.66667 15L1.36844 15C1.16498 15 1 14.8919 1 14.7586Z" fill="#464655"/>
<path d="M5.66699 1L5.66699 15L10.3337 15L10.3337 1L5.66699 1Z" fill="#FF334B"/>
<path d="M10.333 15L10.333 1L14.6312 1C14.8347 1 14.9997 1.10809 14.9997 1.24139L14.9997 14.7586C14.9997 14.8919 14.8347 15 14.6312 15L10.333 15Z" fill="#73AF00"/>
<path d="M8.71914 8.38461H7.2793L7.3593 8.22461H8.63914L8.71914 8.38461Z" fill="white"/>
<path d="M8.71914 7.10352H7.2793L7.3593 7.26352H8.63914L8.71914 7.10352Z" fill="white"/>
<path d="M8.39952 7.18341H7.59961L7.75961 7.02344H8.23955L8.39952 7.18341Z" fill="white"/>
<path d="M7.59935 7.98438H7.35938V8.14438H7.59935V7.98438Z" fill="white"/>
<path d="M7.59935 7.74414H7.35938V7.90414H7.59935V7.74414Z" fill="white"/>
<path d="M7.59935 7.34375H7.35938V7.50375H7.59935V7.34375Z" fill="white"/>
<path d="M7.59935 7.58398H7.35938V7.66398H7.59935V7.58398Z" fill="white"/>
<path d="M8.63938 7.98438H8.39941V8.14438H8.63938V7.98438Z" fill="white"/>
<path d="M8.63938 7.74414H8.39941V7.90414H8.63938V7.74414Z" fill="white"/>
<path d="M8.63938 7.34375H8.39941V7.50375H8.63938V7.34375Z" fill="white"/>
<path d="M8.63938 7.58398H8.39941V7.66398H8.63938V7.58398Z" fill="white"/>
<path d="M7.59945 6.70508H7.43945V7.02505H7.59945V6.70508Z" fill="white"/>
<path d="M7.59945 6.62484H7.43945V6.54484C7.43945 6.50066 7.47527 6.46484 7.51945 6.46484C7.56364 6.46484 7.59945 6.50066 7.59945 6.54484V6.62484Z" fill="white"/>
<path d="M8.55942 6.70508H8.39941V7.02505H8.55942V6.70508Z" fill="white"/>
<path d="M8.55941 6.62484H8.39941V6.54484C8.39941 6.50066 8.43523 6.46484 8.47941 6.46484C8.5236 6.46484 8.55941 6.50066 8.55941 6.54484V6.62484Z" fill="white"/>
<path d="M7.99966 7.34375C7.82294 7.34375 7.67969 7.487 7.67969 7.66372V8.14369H8.31963V7.66372C8.31963 7.487 8.17641 7.34375 7.99966 7.34375Z" fill="white"/>
<path d="M7.47012 7.84828L7.03459 7.34019C7.0374 7.33197 7.0398 7.32353 7.0398 7.31437C7.0398 7.27019 7.00399 7.23438 6.95981 7.23438C6.91562 7.23438 6.8798 7.27019 6.8798 7.31437C6.8798 7.35856 6.91562 7.39437 6.95981 7.39437C6.96462 7.39437 6.9688 7.39244 6.97337 7.39166L7.01843 7.44425L6.7998 7.95434L7.03977 8.19431L7.24699 7.71087L7.4094 7.90034L7.47012 7.84828ZM7.08096 8.01537L6.88949 7.82391L6.97587 7.62231L7.16734 7.81378L7.08096 8.01537Z" fill="white"/>
<path d="M8.59197 7.90034L8.75437 7.71087L8.96159 8.19431L9.20156 7.95434L8.98294 7.44425L9.028 7.39166C9.03259 7.39247 9.03675 7.39437 9.04156 7.39437C9.08575 7.39437 9.12156 7.35856 9.12156 7.31437C9.12156 7.27019 9.08575 7.23438 9.04156 7.23438C8.99737 7.23438 8.96156 7.27019 8.96156 7.31437C8.96156 7.32356 8.96394 7.332 8.96678 7.34019L8.53125 7.84828L8.59197 7.90034ZM8.834 7.81384L9.02547 7.62237L9.11184 7.82397L8.92037 8.01544L8.834 7.81384Z" fill="white"/>
<path d="M8.09019 6.55875C8.06506 6.55134 8.04262 6.53762 8.02844 6.51562C8.01897 6.50091 8.00931 6.48419 7.99966 6.46484C7.99 6.48419 7.98034 6.50091 7.97087 6.51562C7.95666 6.53766 7.93425 6.55138 7.90913 6.55875C7.77659 6.59778 7.67969 6.71962 7.67969 6.86478C7.67969 6.89256 7.68434 6.91906 7.691 6.94478H8.30831C8.31497 6.91906 8.31963 6.89256 8.31963 6.86478C8.31959 6.71962 8.22272 6.59778 8.09019 6.55875Z" fill="white"/>
<path d="M6.16669 7.7342C6.16263 7.68448 6.16 7.63439 6.16 7.58361C6.16 7.48086 6.16931 7.3798 6.18581 7.28064C6.20888 7.29661 6.23303 7.31417 6.25812 7.33389C6.24641 7.41592 6.23997 7.49923 6.23997 7.58361C6.23997 7.64273 6.243 7.7012 6.24872 7.75886L6.41781 7.80964C6.40725 7.73558 6.39994 7.66052 6.39994 7.58361C6.39994 7.54536 6.40222 7.50758 6.40525 7.46992C6.49356 7.56786 6.56325 7.68617 6.56325 7.81692C6.56325 7.82027 6.81991 7.43695 6.35328 7.01367L6.34994 7.19364L6.08119 7.19083C6.05697 7.19058 6.03566 7.20777 6.03144 7.23161C6.011 7.34658 6 7.46414 6 7.58361C6 7.61758 6.00091 7.65133 6.00256 7.68489L6.16669 7.7342Z" fill="white"/>
<path d="M6.87642 6.12762C6.91139 6.10065 6.91783 6.05043 6.89083 6.01543C6.86377 5.98043 6.81358 5.97412 6.77861 6.00106C6.41658 6.28065 6.16814 6.66478 6.06055 7.09506L6.22542 7.09718C6.3292 6.71637 6.5537 6.3769 6.87642 6.12762Z" fill="white"/>
<path d="M6.76927 6.32752C6.5953 6.4979 6.46362 6.69843 6.37402 6.91624C6.42349 6.9569 6.46402 6.99796 6.49768 7.03881C6.5783 6.81671 6.70671 6.61281 6.88124 6.4419C6.9128 6.41096 6.91333 6.36034 6.88243 6.32881C6.8514 6.29715 6.80083 6.29659 6.76927 6.32752Z" fill="white"/>
<path d="M6.49114 8.63283C6.37252 8.46261 6.28186 8.27173 6.22558 8.0667L6.31858 8.10089C6.37667 8.28798 6.46483 8.46198 6.5777 8.61702L6.75427 8.5847C6.65458 8.4608 6.57264 8.32208 6.5128 8.17227L6.61717 8.21061C6.67673 8.34139 6.75298 8.46164 6.84389 8.56833L7.02761 8.53467C6.95536 8.46092 6.89217 8.37789 6.83773 8.28833L6.7313 8.07545C6.69842 8.0097 6.63989 7.96045 6.56948 7.93936L6.31767 7.86367L6.25945 7.8462L6.17564 7.82098L6.00892 7.77089L5.91992 7.74414L5.97498 7.90939C5.98708 7.94567 6.01155 7.97595 6.04336 7.99583C6.09427 8.23755 6.18867 8.46339 6.31836 8.66455L6.49114 8.63283Z" fill="white"/>
<path d="M9.64995 7.19364L9.6466 7.01367C9.17998 7.43695 9.43663 7.82027 9.43663 7.81692C9.43663 7.68617 9.50632 7.56786 9.59463 7.46992C9.59767 7.50758 9.59995 7.54539 9.59995 7.58361C9.59995 7.66055 9.59264 7.73561 9.58207 7.80964L9.75117 7.75886C9.75688 7.7012 9.75992 7.64277 9.75992 7.58361C9.75992 7.4992 9.75348 7.41589 9.74173 7.33389C9.76682 7.3142 9.79101 7.29661 9.81404 7.28064C9.83057 7.37977 9.83985 7.48089 9.83985 7.58361C9.83985 7.63436 9.83723 7.68448 9.83317 7.7342L9.99726 7.68489C9.99895 7.65133 9.99982 7.61758 9.99982 7.58361C9.99982 7.46414 9.98879 7.34658 9.96839 7.23161C9.96414 7.20773 9.94282 7.19058 9.91864 7.19083L9.64995 7.19364Z" fill="white"/>
<path d="M9.77389 7.0972L9.93877 7.09507C9.83114 6.66479 9.58274 6.28067 9.22071 6.00107C9.18574 5.9741 9.13558 5.98045 9.10849 6.01545C9.08149 6.05045 9.08792 6.1007 9.12289 6.12763C9.44561 6.37688 9.67011 6.71635 9.77389 7.0972Z" fill="white"/>
<path d="M9.62494 6.91625C9.53532 6.69844 9.40366 6.4979 9.22969 6.32753C9.19813 6.29659 9.14757 6.29715 9.1166 6.32878C9.08566 6.36034 9.08622 6.41097 9.11779 6.44187C9.29232 6.61278 9.42072 6.81665 9.50135 7.03878C9.53494 6.99797 9.57544 6.9569 9.62494 6.91625Z" fill="white"/>
<path d="M9.99037 7.77098L9.82365 7.82108L9.73983 7.8463L9.68162 7.86377L9.4298 7.93945C9.3594 7.96058 9.30084 8.00983 9.26799 8.07555L9.16156 8.28842C9.10715 8.37798 9.04393 8.46101 8.97168 8.53476L9.1554 8.56842C9.2463 8.46173 9.32259 8.34152 9.38212 8.2107L9.48649 8.17236C9.42662 8.32217 9.34468 8.46092 9.24502 8.5848L9.42159 8.61711C9.53452 8.46205 9.62262 8.28808 9.68071 8.10098L9.77371 8.0668C9.71743 8.27183 9.62677 8.46273 9.50815 8.63292L9.68093 8.66455C9.81062 8.46333 9.90499 8.23752 9.95593 7.99583C9.98774 7.97592 10.0122 7.94564 10.0243 7.90939L10.0794 7.74414L9.99037 7.77098Z" fill="white"/>
<path d="M8.83367 8.65502L8.82955 8.65868C8.59683 8.83831 8.3078 8.94374 8.00005 8.94374C7.6923 8.94374 7.40327 8.83831 7.17055 8.65868L7.16642 8.65502C7.1362 8.62181 7.0908 8.60693 7.0468 8.61581L6.24023 8.78377L6.4192 8.94065C6.46708 8.98262 6.52858 9.00218 6.58973 8.99859C6.73377 9.14202 6.89917 9.26393 7.08108 9.35865L7.02867 9.45537C7.31764 9.61249 7.64861 9.70184 8.00005 9.70184C8.35148 9.70184 8.68242 9.61249 8.97142 9.45537L8.91901 9.35865C9.10092 9.26393 9.26633 9.14199 9.41036 8.99859C9.47152 9.00218 9.53305 8.98259 9.58092 8.94065L9.75989 8.78377L8.95333 8.61581C8.9093 8.60693 8.86386 8.62184 8.83367 8.65502ZM7.15752 9.21743C7.01252 9.14199 6.87977 9.04671 6.7603 8.93712L6.83795 8.90009C6.94642 8.99609 7.06573 9.08015 7.19539 9.14743L7.15752 9.21743ZM9.23967 8.93718C9.12023 9.04674 8.98745 9.14199 8.84245 9.21749L8.80455 9.14752C8.9342 9.08024 9.05348 8.99618 9.16198 8.90018L9.23967 8.93718ZM7.99998 9.18371C7.61898 9.18371 7.26989 9.04852 6.99502 8.82518L7.07483 8.78712C7.33436 8.98702 7.65686 9.10371 7.99992 9.10371C8.34298 9.10371 8.66552 8.98702 8.92502 8.78712L9.00483 8.82518C8.73014 9.04859 8.38098 9.18371 7.99998 9.18371Z" fill="white"/>
<path d="M7.12207 8.54266C7.15641 8.57172 7.19204 8.59922 7.22916 8.62478H8.77048C8.8076 8.59919 8.84323 8.57172 8.87757 8.54266L8.79976 8.46484H7.19995L7.12207 8.54266Z" fill="white"/>
</g>
<defs>
<clipPath id="clip0_5367_193082">
<rect x="1" y="15" width="14" height="14" rx="2" transform="rotate(-90 1 15)" fill="white"/>
</clipPath>
</defs>
</svg>
