<svg width="16" height="16" viewBox="0 0 16 16" fill="none" xmlns="http://www.w3.org/2000/svg">
<path d="M14.7586 15H1.24139C1.10809 15 1 14.835 1 14.6316V1.36844C1 1.16498 1.10809 1 1.24139 1H14.7586C14.8919 1 15 1.16498 15 1.36844V14.6316C15 14.8351 14.8919 15 14.7586 15Z" fill="#41479B"/>
<path d="M10.2837 1H9.70779L6.63654 3.0081V1H4.97873V3.0081L1.90748 1H1.33158C1.14847 1 1 1.14817 1 1.3309V1.59336L3.635 3.31622H1V4.97067H3.635L1 6.69356V6.95598C1 7.13871 1.14847 7.28688 1.33158 7.28688H1.90748L4.97873 5.27878V7.28688H6.63654V5.27878L9.70776 7.28688H10.2837C10.4668 7.28688 10.6152 7.13871 10.6152 6.95598V6.69352L7.98027 4.97067H10.6152V3.31622H7.98024L10.6152 1.59336V1.3309C10.6152 1.14817 10.4668 1 10.2837 1Z" fill="white"/>
<path d="M10.6152 3.64712H6.30496V1H5.31027V3.64712H1V4.63976H5.31027V7.28688H6.30496V4.63976H10.6152V3.64712Z" fill="#FF334B"/>
<path d="M4.98131 3.30356L1.17249 1C1.07114 1.05978 1 1.16018 1 1.28024V1.29774L4.31652 3.30356H4.98131Z" fill="#FF334B"/>
<path d="M7.24927 3.30356L10.5826 1.16503C10.5247 1.06815 10.4225 1 10.3003 1H10.2283L6.6377 3.30356H7.24927Z" fill="#FF334B"/>
<path d="M4.37031 4.97656L1.04688 7.1172C1.10418 7.21673 1.20788 7.28683 1.33169 7.28683H1.39442L4.98123 4.97656H4.37031Z" fill="#FF334B"/>
<path d="M10.6152 6.98175L7.52337 4.97656H6.91699L10.4279 7.25361C10.5331 7.20484 10.6052 7.10264 10.6152 6.98175Z" fill="#FF334B"/>
<path d="M9.02424 8.14466C8.97488 8.81069 8.77076 13.0432 11.423 14C14.0763 13.043 13.8713 8.8106 13.8218 8.14466C13.5005 8.27218 12.3372 8.65876 11.423 8C10.5089 8.65868 9.34582 8.27235 9.02424 8.14466Z" fill="white"/>
<path d="M13.0393 8.88348C12.8897 8.77168 12.613 8.97932 12.3028 8.95805C12.0152 8.93831 11.6608 8.65823 11.2001 8.77898C11.0729 8.66627 11.1345 8.4043 11.1345 8.4043C10.8146 8.60312 10.7917 8.87527 10.8118 9.0229C10.5838 9.3127 10.5992 9.75494 10.6417 9.88991C10.697 10.0656 10.8023 10.0869 10.8189 10.2839C10.8355 10.4809 10.913 10.4117 10.913 10.4117C11.0732 10.3254 11.0964 10.1624 11.1638 9.89576C11.424 9.92771 11.594 9.70358 11.594 9.70358C11.4233 9.75507 11.3157 9.66458 11.257 9.5849C11.2662 9.55855 11.2735 9.53427 11.284 9.50657C11.4778 8.99536 12.4051 9.13593 12.491 9.27757C12.6461 9.53316 12.8509 9.629 12.8509 9.629C12.8509 9.36254 12.6461 9.12851 12.6461 9.12851C12.9562 9.07517 13.0393 8.88348 13.0393 8.88348ZM10.8079 9.98035C10.7773 9.98035 10.7525 9.95653 10.7525 9.92713C10.7525 9.89774 10.7773 9.87391 10.8079 9.87391C10.8385 9.87391 10.8633 9.89774 10.8633 9.92713C10.8633 9.95653 10.8385 9.98035 10.8079 9.98035Z" fill="#FFA028"/>
<path d="M11.9544 12.0383C12.1346 11.987 12.1139 11.6724 12.3077 11.4545C12.4875 11.2525 12.9275 11.1388 13.0852 10.7344C13.2536 10.7 13.4426 10.8842 13.4426 10.8842C13.4538 10.5425 13.2342 10.3815 13.0966 10.3182C12.978 9.99615 12.5914 9.77334 12.4519 9.73333C12.2704 9.68119 12.1926 9.74768 12.0148 9.65564C11.837 9.56361 11.8522 9.65757 11.8522 9.65757C11.8354 9.8217 11.9614 9.92516 12.1512 10.1162C11.9766 10.2915 12.0719 10.536 12.0719 10.536C12.1245 10.3825 12.2628 10.3508 12.3642 10.3497C12.3816 10.3704 12.3982 10.3887 12.4159 10.4111C12.7431 10.825 12.0978 11.436 11.928 11.4245C11.6218 11.4037 11.4238 11.5044 11.4238 11.5044C11.6516 11.6455 11.9676 11.6181 11.9676 11.6181C11.8376 11.8754 11.9544 12.0383 11.9544 12.0383ZM12.2805 9.8082C12.2978 9.78561 12.3322 9.77988 12.3573 9.79546C12.3824 9.81104 12.3888 9.84198 12.3715 9.86456C12.3541 9.88715 12.3197 9.89288 12.2946 9.8773C12.2695 9.86172 12.2631 9.83082 12.2805 9.8082Z" fill="#FFA028"/>
<path d="M9.40554 9.82707C9.38193 9.99868 9.70104 10.1162 9.83632 10.3705C9.96179 10.6063 9.89275 11.0204 10.2271 11.3246C10.1917 11.4791 9.93194 11.5572 9.93194 11.5572C10.2646 11.7128 10.514 11.5994 10.6332 11.5123C10.9999 11.5518 11.3791 11.3262 11.476 11.2275C11.6022 11.0991 11.5686 11.006 11.7327 10.8978C11.8967 10.7896 11.7977 10.7621 11.7977 10.7621C11.6427 10.6777 11.4886 10.7381 11.2219 10.8139C11.1207 10.5937 10.8402 10.5682 10.8402 10.5682C10.97 10.6776 10.9443 10.806 10.9037 10.8907C10.8761 10.8962 10.8512 10.9021 10.8218 10.9073C10.2785 11.0016 9.94111 10.2041 10.0224 10.0681C10.169 9.82272 10.1511 9.61523 10.1511 9.61523C9.918 9.74389 9.81496 10.0181 9.81496 10.0181C9.61446 9.79985 9.40554 9.82707 9.40554 9.82707ZM11.4727 11.0531C11.4879 11.0772 11.4793 11.1082 11.4536 11.1224C11.4278 11.1366 11.3947 11.1286 11.3795 11.1045C11.3643 11.0805 11.3729 11.0495 11.3986 11.0353C11.4243 11.021 11.4575 11.029 11.4727 11.0531Z" fill="#FFA028"/>
<path d="M11.4231 14.0576L11.4029 14.0505C8.56695 13.0394 9.02524 8.24619 9.03014 8.19778L9.03901 8.11119L9.11653 8.14718C9.12991 8.15343 10.4456 8.75157 11.3862 8.02824L11.423 8L11.4598 8.02824C12.4018 8.75254 13.7164 8.15331 13.7295 8.14718L13.807 8.11107L13.8159 8.19778C13.8209 8.24619 14.2792 13.0394 11.4431 14.0505L11.4231 14.0576ZM9.14523 8.2955C9.09836 8.93576 8.90453 13.0045 11.4231 13.9243C13.9425 13.0043 13.7479 8.93567 13.7009 8.2955C13.3957 8.41809 12.2912 8.78971 11.4231 8.15643C10.5551 8.78963 9.45059 8.41825 9.14523 8.2955Z" fill="#CDCE0C"/>
<path d="M9.80762 12.4414C10.1594 13.1573 10.6729 13.757 11.4228 14.0568C12.1729 13.7569 12.6866 13.1572 13.0383 12.4414H9.80762Z" fill="#82AFFF"/>
</svg>
