<svg width="16" height="16" viewBox="0 0 16 16" fill="none" xmlns="http://www.w3.org/2000/svg">
<rect x="1" y="0.730469" width="14" height="14" rx="2" fill="#41479B"/>
<path d="M15 12.6958V12.3911L2.55074 7.73032L15 3.06955V2.76483C15 2.66508 14.9512 2.58167 14.8818 2.5332L1 7.73032L14.8818 12.9274C14.9512 12.879 15 12.7956 15 12.6958Z" fill="#FF334B"/>
<path d="M2.55078 7.73109L15 12.3919V3.07031L2.55078 7.73109Z" fill="white"/>
<path d="M13.5261 6.37301C13.5261 6.37301 14.3527 6.41304 14.4297 6.34098C14.5068 6.26895 14.5208 5.78861 14.2476 5.71658C13.9745 5.64454 13.2319 6.10886 13.2319 6.10886L13.5261 6.37301Z" fill="#FFF5DC"/>
<path d="M11.9081 7.11719C11.9081 7.11719 11.8987 7.14388 11.8941 7.26128C11.8894 7.37869 11.9081 7.6829 12.2303 7.81631L12.1556 8.1739L12.4965 8.40872C12.4965 8.40872 12.7487 7.98175 12.7627 7.62416C12.7767 7.26662 11.9081 7.11719 11.9081 7.11719Z" fill="#D27D69"/>
<path d="M10.8855 6.87683L11.0185 6.72474C11.0185 6.72474 10.7461 6.91471 10.6426 6.74343C10.5072 6.5193 10.6893 6.28446 10.8785 6.18036C11.0676 6.0763 11.4458 6.15636 11.4458 6.15636L11.684 6.85283L10.9625 7.37318L10.8855 6.87683Z" fill="#D27D69"/>
<path d="M13.1202 5.549L13.7646 5.46094C13.7646 5.46094 13.5755 5.77316 13.2043 6.00531C13.2043 6.00531 13.5895 6.00531 13.7016 6.15741C13.8137 6.3095 13.5895 6.45362 13.5055 6.50165C13.4214 6.54969 12.6929 7.06203 12.6929 7.06203L12.0415 6.97397L13.1202 5.549Z" fill="#D27D69"/>
<path d="M13.5986 4.98275C13.5986 4.98275 13.7387 4.60916 13.734 4.34766L13.2624 4.72125C13.2624 4.72125 13.3698 4.66256 13.3324 4.44906L11.7914 5.40437L11.4785 6.03947L12.4312 6.37571L13.5986 4.98275Z" fill="#D27D69"/>
<path d="M12.4368 7.89453L12.2757 8.18675C12.2757 8.18675 11.9884 8.11472 11.8904 8.19475C11.7923 8.27481 11.7818 8.57503 11.9534 8.59903C11.9534 8.59903 12.0725 8.68309 12.1425 8.61503C12.1425 8.61503 12.2861 8.67906 12.3106 8.575C12.3352 8.47094 12.3036 8.38287 12.3036 8.38287H12.4052L12.5838 8.01862L12.4368 7.89453Z" fill="#F8CB32"/>
<path d="M10.9975 7.26096C10.9975 7.26096 11.4458 7.00481 11.4458 6.62053C11.4458 6.23625 11.0302 6.2149 10.694 6.343C10.694 6.343 10.4932 6.16156 10.6613 5.98006C10.8918 5.73131 11.8942 5.21156 11.8942 5.21156L11.7821 5.852C11.7821 5.852 12.1814 6.09215 12.3425 5.98009C12.4779 5.8859 13.7995 4.69922 13.7995 4.69922C13.7995 4.69922 13.6874 5.33965 12.9029 5.98009L12.8197 6.45512C12.8015 6.5595 12.7421 6.64837 12.6588 6.69593L12.3425 6.87665C12.3425 6.87665 13.2391 7.00475 13.2391 7.13281C13.2391 7.26087 13.0149 7.90134 12.5666 8.15749L12.3425 7.90134L12.4546 7.51706C12.4546 7.51706 12.1183 7.38896 11.8942 7.26087C11.8942 7.26087 11.5579 7.38896 11.3338 7.38896C11.1097 7.38896 10.9975 7.26096 10.9975 7.26096Z" fill="#B95546"/>
<path d="M10.3252 7.90167V7.63555C10.3252 7.55992 10.3515 7.48736 10.3983 7.43389L10.8856 6.87695L10.9977 7.13311H11.446L11.3339 7.2612V7.3893L10.7735 7.77358L10.3252 7.90167Z" fill="#FFF5DC"/>
<path d="M10.5489 7.77371H10.3247C10.3247 7.77371 10.1006 8.15799 10.3247 8.15799C10.3247 8.15799 10.661 7.90181 10.773 7.77371C10.773 7.77371 10.773 7.64565 10.5489 7.77371Z" fill="#F8CB32"/>
<path d="M13.2828 8.34222H11.7335C11.7207 8.3265 11.7028 8.31634 11.6826 8.31634C11.6826 8.31634 11.4112 8.18778 11.3726 8.18778H11.3408C11.3022 8.18778 11.2709 8.22353 11.2709 8.26766V8.34222H10.9167V8.26766C10.9167 8.22356 10.8855 8.18778 10.8469 8.18778H10.8151C10.7765 8.18778 10.7452 8.22353 10.7452 8.26766V8.269C10.5934 8.26194 10.2688 8.23981 10.1007 8.17578L9.2041 8.43197L10.1007 8.68812C10.2688 8.62409 10.5933 8.60194 10.7452 8.59487V8.59622C10.7452 8.64031 10.7764 8.67609 10.8151 8.67609H10.8469C10.8854 8.67609 10.9167 8.64034 10.9167 8.59622V8.52166H11.2709V8.59622C11.2709 8.64031 11.3022 8.67609 11.3408 8.67609H11.3726C11.4112 8.67609 11.6826 8.54753 11.6826 8.54753C11.7028 8.54753 11.7207 8.53741 11.7335 8.52166H13.2828C13.3262 8.52166 13.3614 8.48144 13.3614 8.43191C13.3614 8.38237 13.3262 8.34222 13.2828 8.34222Z" fill="#F8CB32"/>
<path d="M13.2153 8.6858C13.1219 8.66445 12.0525 8.87792 12.0525 8.87792C12.0525 8.87792 11.9872 8.8032 12.1833 8.59505L12.0899 8.56836C12.0899 8.56836 11.8844 8.7338 11.8003 8.75514C11.728 8.77351 11.5662 8.86339 11.5315 8.98336L10.8804 9.10739L10.8944 9.17142L11.533 9.08586C11.5635 9.19798 11.6639 9.22086 11.7349 9.18742C11.7349 9.18742 11.8283 9.23011 11.9124 9.15539C11.9124 9.15539 12.0805 9.18742 12.0898 9.01129L13.262 8.80848C13.262 8.80858 13.3087 8.70714 13.2153 8.6858Z" fill="#F8CB32"/>
<path d="M12.5522 9.58878C12.5522 9.58878 12.4635 9.72218 12.244 9.60478C12.0246 9.48737 11.7677 9.61546 11.6276 9.57809C11.4875 9.54071 11.2774 9.44468 11.0813 9.53006C10.8851 9.61543 10.7777 9.61012 10.8197 9.50337C10.8618 9.39665 10.8851 9.31659 10.8197 9.27925L10.8944 9.1725L10.8804 9.10847C10.8804 9.10847 10.5068 8.94303 10.2547 9.1725C10.0025 9.40196 10.0773 9.92503 10.4975 9.96237C10.4975 9.96237 10.6283 10.1492 10.9505 10.0958C10.9505 10.0958 11.1607 10.2612 11.5202 10.1865C11.5202 10.1865 11.5342 10.2345 11.7677 10.2132C12.0013 10.1918 12.2627 10.2239 12.216 10.4053C12.216 10.4053 12.3888 10.368 12.2861 10.1865C12.2861 10.1865 12.4916 10.1758 12.6317 10.3146C12.6317 10.3146 12.641 10.1545 12.5056 10.0691C12.5056 10.0691 12.7344 9.97834 12.8605 10.0691C12.8605 10.0691 12.7765 9.86628 12.5523 9.89293C12.5523 9.89293 12.7157 9.7435 12.7905 9.78087C12.7905 9.78087 12.7204 9.68481 12.5149 9.78087C12.5149 9.7809 12.6456 9.69018 12.5522 9.58878Z" fill="#F8CB32"/>
</svg>
