<svg width="16" height="16" viewBox="0 0 16 16" fill="none" xmlns="http://www.w3.org/2000/svg">
<rect x="1" y="1" width="14" height="14" rx="2" fill="#41479B"/>
<path d="M3.63068 10.134L3.83467 10.8239L4.48842 10.5571C4.5442 10.5344 4.5949 10.5995 4.56085 10.6502L4.1615 11.2437L4.77266 11.6009C4.8248 11.6314 4.8067 11.7126 4.74682 11.7169L4.04482 11.7672L4.15323 12.4794C4.16248 12.5402 4.08918 12.5764 4.04859 12.531L3.57257 12.0001L3.09655 12.531C3.05595 12.5763 2.98265 12.5402 2.9919 12.4794L3.10031 11.7672L2.39832 11.7169C2.33843 11.7126 2.32034 11.6314 2.37248 11.6009L2.98363 11.2437L2.58428 10.6502C2.55023 10.5995 2.60093 10.5344 2.65672 10.5571L3.31046 10.8239L3.51446 10.134C3.53194 10.0751 3.61329 10.0751 3.63068 10.134Z" fill="white"/>
<path d="M11.9091 5.18809L12.0111 5.53302L12.338 5.39967C12.3658 5.38831 12.3912 5.42086 12.3742 5.44619L12.1745 5.74297L12.4801 5.92161C12.5062 5.93683 12.4971 5.97747 12.4671 5.97959L12.1162 6.00469L12.1704 6.3608C12.175 6.3912 12.1383 6.40927 12.118 6.38661L11.88 6.12116L11.642 6.38661C11.6217 6.40924 11.5851 6.39116 11.5897 6.3608L11.6439 6.00469L11.2929 5.97959C11.263 5.97747 11.2539 5.93683 11.28 5.92161L11.5855 5.74297L11.3859 5.44619C11.3689 5.42086 11.3942 5.38831 11.4221 5.39967L11.7489 5.53302L11.8509 5.18809C11.8598 5.15866 11.9005 5.15866 11.9091 5.18809Z" fill="white"/>
<path d="M9.44821 7.64903L9.5502 7.99396L9.87704 7.86061C9.90489 7.84925 9.93028 7.8818 9.91323 7.90713L9.71359 8.20391L10.0191 8.38255C10.0452 8.39777 10.0362 8.43841 10.0062 8.44053L9.65524 8.46563L9.70942 8.82173C9.71406 8.85213 9.6774 8.87021 9.65709 8.84754L9.4191 8.5821L9.1811 8.84754C9.1608 8.87017 9.12416 8.8521 9.12877 8.82173L9.18295 8.46563L8.83199 8.44053C8.80203 8.43841 8.79298 8.39777 8.81905 8.38255L9.1246 8.20391L8.92496 7.90713C8.90792 7.8818 8.9333 7.84925 8.96116 7.86061L9.28799 7.99396L9.38998 7.64903C9.39882 7.61959 9.4395 7.61959 9.44821 7.64903Z" fill="white"/>
<path d="M14.0634 6.72716L14.1654 7.07209L14.4923 6.93874C14.5201 6.92737 14.5455 6.95992 14.5285 6.98525L14.3288 7.28203L14.6344 7.46068C14.6604 7.47589 14.6514 7.51653 14.6214 7.51865L14.2705 7.54376L14.3246 7.89986C14.3293 7.93026 14.2926 7.94833 14.2723 7.92567L14.0343 7.66022L13.7963 7.92567C13.776 7.9483 13.7394 7.93023 13.744 7.89986L13.7982 7.54376L13.4472 7.51865C13.4173 7.51653 13.4082 7.47589 13.4343 7.46068L13.7398 7.28203L13.5402 6.98525C13.5232 6.95992 13.5485 6.92737 13.5764 6.93874L13.9032 7.07209L14.0052 6.72716C14.014 6.69772 14.0547 6.69772 14.0634 6.72716Z" fill="white"/>
<path d="M11.9091 11.0338L12.0111 11.3787L12.338 11.2454C12.3658 11.234 12.3912 11.2665 12.3742 11.2919L12.1745 11.5887L12.4801 11.7673C12.5062 11.7825 12.4971 11.8232 12.4671 11.8253L12.1162 11.8504L12.1704 12.2065C12.175 12.2369 12.1383 12.255 12.118 12.2323L11.88 11.9669L11.642 12.2323C11.6217 12.2549 11.5851 12.2369 11.5897 12.2065L11.6439 11.8504L11.2929 11.8253C11.263 11.8232 11.2539 11.7825 11.28 11.7673L11.5855 11.5887L11.3859 11.2919C11.3689 11.2665 11.3942 11.234 11.4221 11.2454L11.7489 11.3787L11.8509 11.0338C11.8598 11.0044 11.9005 11.0044 11.9091 11.0338Z" fill="white"/>
<path d="M12.6116 8.2704L12.5191 8.56084L12.2267 8.56321C12.1888 8.56354 12.1731 8.6141 12.2036 8.63763L12.4388 8.81951L12.3506 9.11139C12.3392 9.1492 12.3803 9.18044 12.4111 9.15739L12.649 8.97937L12.887 9.15739C12.9178 9.18044 12.9589 9.14916 12.9475 9.11139L12.8592 8.81951L13.0945 8.63763C13.125 8.61406 13.1093 8.56354 13.0714 8.56321L12.779 8.56084L12.6864 8.2704C12.6744 8.23278 12.6236 8.23278 12.6116 8.2704Z" fill="white"/>
<path d="M10.2837 1H9.70779L6.63654 3.0081V1H4.97873V3.0081L1.90748 1H1.33158C1.14847 1 1 1.14817 1 1.3309V1.59336L3.635 3.31622H1V4.97067H3.635L1 6.69356V6.95598C1 7.13871 1.14847 7.28688 1.33158 7.28688H1.90748L4.97873 5.27878V7.28688H6.63654V5.27878L9.70776 7.28688H10.2837C10.4668 7.28688 10.6152 7.13871 10.6152 6.95598V6.69352L7.98027 4.97067H10.6152V3.31622H7.98024L10.6152 1.59336V1.3309C10.6152 1.14817 10.4668 1 10.2837 1Z" fill="white"/>
<path d="M10.6152 3.64712H6.30496V1H5.31027V3.64712H1V4.63976H5.31027V7.28688H6.30496V4.63976H10.6152V3.64712Z" fill="#FF334B"/>
<path d="M4.98131 3.30356L1.17249 1C1.07114 1.05978 1 1.16018 1 1.28024V1.29774L4.31652 3.30356H4.98131Z" fill="#FF334B"/>
<path d="M7.24927 3.30356L10.5826 1.16503C10.5247 1.06815 10.4225 1 10.3003 1H10.2283L6.6377 3.30356H7.24927Z" fill="#FF334B"/>
<path d="M4.37031 4.97656L1.04688 7.1172C1.10418 7.21673 1.20788 7.28683 1.33169 7.28683H1.39442L4.98123 4.97656H4.37031Z" fill="#FF334B"/>
<path d="M10.6152 6.98175L7.52337 4.97656H6.91699L10.4279 7.25361C10.5331 7.20484 10.6052 7.10264 10.6152 6.98175Z" fill="#FF334B"/>
</svg>
