<svg width="16" height="16" viewBox="0 0 16 16" fill="none" xmlns="http://www.w3.org/2000/svg">
<g clip-path="url(#clip0_5367_192978)">
<rect x="1" y="1" width="14" height="14" rx="2" fill="#FF334B"/>
<path d="M1.24139 1H14.7586C14.8919 1 15 1.16498 15 1.36844V5.66667H1V1.36844C1 1.16498 1.10809 1 1.24139 1Z" fill="#82AFFF"/>
<path d="M15 5.66602H1V10.3327H15V5.66602Z" fill="#FF334B"/>
<path d="M1 10.334H15V14.6322C15 14.8357 14.8919 15.0007 14.7586 15.0007H1.24139C1.10809 15.0007 1 14.8357 1 14.6322V10.334Z" fill="#73AF00"/>
<path d="M8.07285 9.5478C7.21826 9.5478 6.52496 8.8545 6.52496 7.99917C6.52496 7.14535 7.21826 6.45054 8.07285 6.45054C8.39084 6.45054 8.68406 6.54829 8.9284 6.71382C8.9658 6.73919 9.00851 6.68997 8.97719 6.65739C8.61197 6.27772 8.09507 6.04602 7.522 6.0656C6.53738 6.09921 5.7223 6.88858 5.65936 7.87178C5.58727 8.9979 6.47897 9.93377 7.58922 9.93377C8.13605 9.93377 8.62755 9.70513 8.97857 9.33961C9.00955 9.30734 8.96675 9.25889 8.92974 9.284C8.68514 9.44992 8.3914 9.5478 8.07285 9.5478Z" fill="white"/>
<path d="M9.42769 7.04503L9.5883 7.49657L10.0212 7.29084C10.0538 7.27531 10.0878 7.30934 10.0723 7.34196L9.86655 7.77482L10.3181 7.93543C10.3521 7.94751 10.3521 7.99566 10.3181 8.00774L9.86655 8.16834L10.0723 8.60121C10.0878 8.63382 10.0538 8.66786 10.0212 8.65233L9.5883 8.4466L9.42769 8.89814C9.41561 8.93218 9.36747 8.93218 9.35539 8.89814L9.19478 8.4466L8.76191 8.65233C8.7293 8.66786 8.69526 8.63382 8.71079 8.60121L8.91653 8.16834L8.46498 8.00774C8.43094 7.99566 8.43094 7.94751 8.46498 7.93543L8.91653 7.77482L8.71079 7.34196C8.69526 7.30934 8.7293 7.27531 8.76191 7.29084L9.19478 7.49657L9.35539 7.04503C9.36751 7.01103 9.41561 7.01103 9.42769 7.04503Z" fill="white"/>
</g>
<defs>
<clipPath id="clip0_5367_192978">
<rect x="1" y="1" width="14" height="14" rx="2" fill="white"/>
</clipPath>
</defs>
</svg>
