<svg width="16" height="16" viewBox="0 0 16 16" fill="none" xmlns="http://www.w3.org/2000/svg">
<g clip-path="url(#clip0_5367_192963)">
<rect x="1" y="0.839844" width="14" height="14" rx="2" fill="#41479B"/>
<path d="M13.4827 0.357422V14.8402L-1 0.357422H13.4827Z" fill="#F8CB32"/>
<path d="M6.1693 8.2601L6.3283 8.73679L6.83077 8.74069C6.86971 8.74101 6.88583 8.79066 6.85452 8.81379L6.45027 9.11232L6.60187 9.59141C6.61362 9.62851 6.57133 9.65923 6.53965 9.6366L6.13084 9.34438L5.72202 9.6366C5.69037 9.65923 5.64809 9.62854 5.65981 9.59141L5.8114 9.11232L5.40715 8.81379C5.37584 8.79066 5.39196 8.74101 5.4309 8.74069L5.93337 8.73679L6.09237 8.2601C6.10474 8.2232 6.15696 8.2232 6.1693 8.2601Z" fill="white"/>
<path d="M5.01989 7.11169L5.17889 7.58837L5.68136 7.59228C5.7203 7.59259 5.73642 7.64228 5.70511 7.66537L5.30086 7.9639L5.45245 8.443C5.4642 8.48009 5.42192 8.51081 5.39023 8.48818L4.98142 8.19597L4.57261 8.48818C4.54095 8.51084 4.49867 8.48012 4.51039 8.443L4.66198 7.9639L4.25774 7.66537C4.22642 7.64225 4.24255 7.59259 4.28149 7.59228L4.78395 7.58837L4.94295 7.11169C4.95533 7.07475 5.00758 7.07475 5.01989 7.11169Z" fill="white"/>
<path d="M3.87048 5.9613L4.02948 6.43798L4.53194 6.44189C4.57088 6.4422 4.58701 6.49186 4.55569 6.51498L4.15144 6.81351L4.30304 7.29261C4.31479 7.3297 4.27251 7.36042 4.24082 7.33779L3.83201 7.04558L3.4232 7.33779C3.39154 7.36045 3.34926 7.32973 3.36098 7.29261L3.51257 6.81351L3.10832 6.51498C3.07701 6.49186 3.09313 6.4422 3.13207 6.44189L3.63454 6.43798L3.79354 5.9613C3.80591 5.92436 3.85816 5.92436 3.87048 5.9613Z" fill="white"/>
<path d="M2.72103 4.81286L2.88003 5.28955L3.3825 5.29345C3.42144 5.29376 3.43756 5.34342 3.40625 5.36655L3.00203 5.66505L3.15362 6.14414C3.16537 6.18123 3.12309 6.21195 3.09141 6.18933L2.68259 5.89711L2.27378 6.18933C2.24213 6.21195 2.19984 6.18126 2.21156 6.14414L2.36316 5.66505L1.95891 5.36655C1.9276 5.34342 1.94372 5.29376 1.98266 5.29345L2.48513 5.28955L2.64413 4.81286C2.65647 4.77592 2.70869 4.77592 2.72103 4.81286Z" fill="white"/>
<path d="M1.59505 3.68005L1.75405 4.15673L2.25652 4.16064C2.29546 4.16095 2.31158 4.21061 2.28027 4.23373L1.87605 4.53223L2.02765 5.01133C2.0394 5.04842 1.99712 5.07914 1.96543 5.05651L1.55662 4.7643L1.14781 5.05651C1.11615 5.07914 1.07387 5.04845 1.08559 5.01133L1.23718 4.53223L0.832931 4.23373C0.801619 4.21061 0.817744 4.16095 0.856681 4.16064L1.35915 4.15673L1.51815 3.68005C1.53049 3.64311 1.58271 3.64311 1.59505 3.68005Z" fill="white"/>
<path d="M0.618492 2.57067L0.777492 3.04736L1.27996 3.05126C1.3189 3.05158 1.33502 3.10123 1.30371 3.12436L0.899492 3.42286L1.05109 3.90195C1.06284 3.93904 1.02055 3.96976 0.988867 3.94714L0.580055 3.65492L0.171243 3.94714C0.139587 3.96976 0.0973058 3.93908 0.109025 3.90195L0.260618 3.42286L-0.143631 3.12436C-0.174944 3.10123 -0.158819 3.05158 -0.119881 3.05126L0.382586 3.04736L0.541586 2.57067C0.55393 2.53373 0.606149 2.53373 0.618492 2.57067Z" fill="white"/>
<path d="M10.7669 12.8578L10.9259 13.3345L11.4284 13.3384C11.4673 13.3387 11.4835 13.3883 11.4521 13.4115L11.0479 13.71L11.1995 14.1891C11.2112 14.2262 11.169 14.2569 11.1373 14.2343L10.7285 13.9421L10.3197 14.2343C10.288 14.2569 10.2457 14.2262 10.2575 14.1891L10.4091 13.71L10.0048 13.4115C9.97349 13.3883 9.98962 13.3387 10.0286 13.3384L10.531 13.3345L10.69 12.8578C10.7024 12.8208 10.7546 12.8208 10.7669 12.8578Z" fill="white"/>
<path d="M9.61752 11.7093L9.77652 12.186L10.279 12.1899C10.3179 12.1902 10.334 12.2399 10.3027 12.263L9.89848 12.5616L10.0501 13.0407C10.0618 13.0777 10.0195 13.1085 9.98789 13.0858L9.57908 12.7936L9.17027 13.0858C9.13861 13.1085 9.09633 13.0778 9.10805 13.0407L9.25964 12.5616L8.85539 12.263C8.82408 12.2399 8.8402 12.1902 8.87914 12.1899L9.38161 12.186L9.54061 11.7093C9.55295 11.6724 9.6052 11.6724 9.61752 11.7093Z" fill="white"/>
<path d="M8.46813 10.5589L8.62713 11.0356L9.1296 11.0395C9.16854 11.0398 9.18466 11.0895 9.15335 11.1126L8.7491 11.4111L8.90069 11.8902C8.91244 11.9273 8.87016 11.9581 8.83848 11.9354L8.42966 11.6432L8.02085 11.9354C7.9892 11.958 7.94691 11.9273 7.95863 11.8902L8.11023 11.4111L7.70598 11.1126C7.67467 11.0895 7.69079 11.0398 7.72973 11.0395L8.2322 11.0356L8.3912 10.5589C8.4036 10.522 8.45582 10.522 8.46813 10.5589Z" fill="white"/>
<path d="M7.31872 9.41052L7.47772 9.8872L7.98019 9.89111C8.01912 9.89142 8.03525 9.94108 8.00394 9.9642L7.59969 10.2627L7.75128 10.7418C7.76303 10.7789 7.72075 10.8097 7.68906 10.787L7.28025 10.4948L6.87144 10.787C6.83978 10.8096 6.7975 10.779 6.80922 10.7418L6.96081 10.2627L6.55656 9.9642C6.52525 9.94108 6.54138 9.89142 6.58031 9.89111L7.08278 9.8872L7.24178 9.41052C7.25416 9.37358 7.30641 9.37358 7.31872 9.41052Z" fill="white"/>
<path d="M12.5777 14.4888L12.0753 14.4849L11.9163 14.0082C11.904 13.9712 11.8517 13.9712 11.8394 14.0082L11.6804 14.4849L11.178 14.4888C11.139 14.4891 11.1229 14.5388 11.1542 14.5619L11.5318 14.8406H12.224L12.6016 14.5619C12.6328 14.5387 12.6167 14.489 12.5777 14.4888Z" fill="white"/>
</g>
<defs>
<clipPath id="clip0_5367_192963">
<rect x="1" y="0.839844" width="14" height="14" rx="2" fill="white"/>
</clipPath>
</defs>
</svg>
