<svg width="16" height="16" viewBox="0 0 16 16" fill="none" xmlns="http://www.w3.org/2000/svg">
<rect x="1" y="1" width="14" height="14" rx="2" fill="#73AF00"/>
<path d="M1 1H15V7.44734C15 7.75253 14.8919 8 14.7586 8H1.24139C1.10809 8 1 7.75253 1 7.44734V1Z" fill="#FF334B"/>
<path d="M8.18332 4.7687L8.94082 7.03996L11.335 7.05858C11.5205 7.06001 11.5974 7.29669 11.4482 7.40691L9.52221 8.82921L10.2444 11.112C10.3004 11.2889 10.099 11.4352 9.94815 11.3273L8.00026 9.93497L6.05242 11.3273C5.90155 11.4351 5.70014 11.2888 5.75614 11.112L6.47837 8.82921L4.55237 7.40691C4.40313 7.29676 4.48007 7.06001 4.66559 7.05858L7.05976 7.03996L7.81726 4.7687C7.87571 4.59273 8.12466 4.59273 8.18332 4.7687Z" fill="#F8CB32"/>
</svg>
