<svg width="16" height="16" viewBox="0 0 16 16" fill="none" xmlns="http://www.w3.org/2000/svg">
<g clip-path="url(#clip0_5367_192922)">
<rect x="15" y="1" width="14" height="14" rx="2" transform="rotate(90 15 1)" fill="#F8CB32"/>
<path d="M14.7586 15L1.24139 15C1.10809 15 1 14.7525 1 14.4473L1 8L15 8L15 14.4473C15 14.7525 14.8919 15 14.7586 15Z" fill="#FF334B"/>
<path d="M8 1L8 15L1.55266 15C1.24747 15 0.999999 14.8919 0.999999 14.7586L1 1.24139C1 1.10809 1.24747 1 1.55266 1L8 1Z" fill="#73AF00"/>
</g>
<defs>
<clipPath id="clip0_5367_192922">
<rect x="15" y="1" width="14" height="14" rx="2" transform="rotate(90 15 1)" fill="white"/>
</clipPath>
</defs>
</svg>
