<svg width="16" height="16" viewBox="0 0 16 16" fill="none" xmlns="http://www.w3.org/2000/svg">
<g clip-path="url(#clip0_5367_192786)">
<rect x="1" y="0.839844" width="14" height="14" rx="2" fill="#464655"/>
<path d="M16.7241 0.839844H1.27587C1.12353 0.839844 1 1.00482 1 1.20828V14.4714C1 14.6749 1.12353 14.8398 1.27587 14.8398H16.7241C16.8765 14.8398 17 14.6749 17 14.4714V1.20828C17 1.00482 16.8764 0.839844 16.7241 0.839844Z" fill="#41479B"/>
<path d="M1.10175 14.7508L16.8982 0.928907C16.8504 0.875778 16.7912 0.839844 16.7241 0.839844H1.27587C1.12353 0.839844 1 1.00482 1 1.20828V14.4714C1 14.5853 1.04097 14.6833 1.10175 14.7508Z" fill="white"/>
<path d="M7.44862 6.69893C7.32343 5.86343 6.66459 5.20456 5.82906 5.07937L5.54134 4.50391L5.25362 5.07937C4.41812 5.20456 3.75928 5.86337 3.63406 6.69893L3.05859 6.98665L3.63406 7.27437C3.75925 8.10987 4.41809 8.76874 5.25362 8.89393L5.54134 9.4694L5.82906 8.89393C6.66456 8.76874 7.3234 8.10993 7.44862 7.27437L8.02408 6.98665L7.44862 6.69893ZM5.54134 8.6418C4.62722 8.6418 3.88619 7.90077 3.88619 6.98665C3.88619 6.07253 4.62722 5.3315 5.54134 5.3315C6.45546 5.3315 7.19649 6.07253 7.19649 6.98665C7.19649 7.90077 6.45546 8.6418 5.54134 8.6418Z" fill="#464655"/>
<path d="M5.5417 5.92578L5.83873 6.47209L6.46036 6.45616L6.13573 6.98653L6.46036 7.5169L5.83873 7.50097L5.5417 8.04731L5.2447 7.50097L4.62305 7.5169L4.94767 6.98653L4.62305 6.45616L5.2447 6.47209L5.5417 5.92578Z" fill="#FF334B"/>
<path d="M8.02433 0.839844H1.27587C1.12353 0.839844 1 1.00482 1 1.20828V6.98619L8.02433 0.839844Z" fill="#F8CB32"/>
</g>
<defs>
<clipPath id="clip0_5367_192786">
<rect x="1" y="0.839844" width="14" height="14" rx="2" fill="white"/>
</clipPath>
</defs>
</svg>
