<svg width="16" height="16" viewBox="0 0 16 16" fill="none" xmlns="http://www.w3.org/2000/svg">
<rect x="1" y="1" width="14" height="14" rx="2" fill="#73AF00"/>
<path d="M7.85684 4.22577L2.0426 7.76485C1.86601 7.87232 1.86601 8.12863 2.0426 8.23613L7.85684 11.7753C7.94493 11.8289 8.05559 11.8289 8.14372 11.7753L13.958 8.23616C14.1346 8.1287 14.1346 7.87238 13.958 7.76488L8.14372 4.22577C8.05562 4.17214 7.94493 4.17214 7.85684 4.22577Z" fill="#F8CB32"/>
<path d="M7.99984 10.2067C9.21866 10.2067 10.2067 9.21866 10.2067 7.99984C10.2067 6.78102 9.21866 5.79297 7.99984 5.79297C6.78102 5.79297 5.79297 6.78102 5.79297 7.99984C5.79297 9.21866 6.78102 10.2067 7.99984 10.2067Z" fill="#41479B"/>
<path d="M6.10582 6.87137C6.00169 7.04569 5.92129 7.23512 5.86816 7.43628C7.09157 7.34422 8.90135 7.68647 10.0532 8.80418C10.1284 8.61228 10.178 8.40784 10.1967 8.19412C9.00725 7.19309 7.36291 6.83712 6.10582 6.87137Z" fill="white"/>
<path d="M8.09121 8.75344L8.14996 8.92962L8.33568 8.93106C8.35971 8.93125 8.36968 8.96194 8.35037 8.97622L8.20096 9.08656L8.257 9.26362C8.26425 9.28656 8.23812 9.30553 8.21859 9.29153L8.0675 9.18353L7.9164 9.29153C7.89684 9.30553 7.87075 9.28656 7.878 9.26362L7.93403 9.08656L7.78462 8.97622C7.76528 8.96194 7.77525 8.93125 7.79928 8.93106L7.985 8.92962L8.04375 8.75344C8.05134 8.73063 8.08359 8.73063 8.09121 8.75344Z" fill="white"/>
<path d="M8.81317 9.20855L8.83846 9.28437L8.91839 9.28499C8.92874 9.28505 8.93305 9.29827 8.92471 9.30443L8.86039 9.3519L8.88449 9.42812C8.88761 9.43799 8.87639 9.44615 8.86796 9.44012L8.80293 9.39365L8.73789 9.44012C8.72949 9.44615 8.71824 9.43799 8.72136 9.42812L8.74546 9.3519L8.68114 9.30443C8.67283 9.2983 8.67711 9.28509 8.68746 9.28499L8.76739 9.28437L8.79268 9.20855C8.79599 9.19871 8.80989 9.19871 8.81317 9.20855Z" fill="white"/>
<path d="M7.779 8.41947L7.80428 8.49528L7.88421 8.49591C7.89456 8.49597 7.89887 8.50919 7.89053 8.51534L7.82621 8.56281L7.85031 8.63903C7.85343 8.64891 7.84221 8.65706 7.83378 8.65103L7.76875 8.60456L7.70371 8.65103C7.69531 8.65706 7.68406 8.64891 7.68718 8.63903L7.71128 8.56281L7.64696 8.51534C7.63865 8.50922 7.64293 8.496 7.65328 8.49591L7.73321 8.49528L7.7585 8.41947C7.76181 8.40966 7.77571 8.40966 7.779 8.41947Z" fill="white"/>
<path d="M6.37861 8.32767L6.40389 8.40348L6.48382 8.40411C6.49417 8.40417 6.49848 8.41739 6.49014 8.42355L6.42582 8.47102L6.44992 8.54723C6.45304 8.55711 6.44182 8.56527 6.43339 8.55923L6.36835 8.51277L6.30332 8.55923C6.29492 8.56527 6.28367 8.55711 6.28679 8.54723L6.31089 8.47102L6.24657 8.42355C6.23826 8.41742 6.24254 8.4042 6.25289 8.40411L6.33282 8.40348L6.3581 8.32767C6.36145 8.31786 6.37532 8.31786 6.37861 8.32767Z" fill="white"/>
<path d="M7.5495 9.18312L7.57478 9.25893L7.65472 9.25955C7.66507 9.25962 7.66938 9.27284 7.66103 9.27899L7.59672 9.32646L7.62082 9.40268C7.62394 9.41255 7.61272 9.42071 7.60428 9.41468L7.53925 9.36821L7.47422 9.41468C7.46582 9.42071 7.45457 9.41255 7.45769 9.40268L7.48178 9.32646L7.41747 9.27899C7.40916 9.27287 7.41344 9.25965 7.42378 9.25955L7.50372 9.25893L7.529 9.18312C7.53235 9.17334 7.54625 9.17334 7.5495 9.18312Z" fill="white"/>
<path d="M6.90547 8.2736L6.92615 8.3356L6.99153 8.33613C6.99997 8.3362 7.0035 8.34701 6.99672 8.35204L6.94412 8.39085L6.96384 8.45316C6.9664 8.46123 6.95722 8.46791 6.95031 8.46298L6.89712 8.42498L6.84393 8.46298C6.83703 8.46791 6.82787 8.46123 6.8304 8.45316L6.85012 8.39085L6.79753 8.35204C6.79075 8.34701 6.79422 8.3362 6.80272 8.33613L6.86809 8.3356L6.88878 8.2736C6.89143 8.26557 6.90278 8.26557 6.90547 8.2736Z" fill="white"/>
<path d="M8.86899 6.99387L8.89487 7.07144L8.97662 7.07206C8.98721 7.07212 8.99159 7.08566 8.98305 7.09194L8.9173 7.1405L8.94196 7.21847C8.94518 7.22856 8.93365 7.23691 8.92505 7.23075L8.85852 7.18319L8.79199 7.23075C8.78337 7.23694 8.7719 7.22853 8.77509 7.21847L8.79974 7.1405L8.73399 7.09194C8.72546 7.08566 8.72987 7.07216 8.74043 7.07206L8.82218 7.07144L8.84805 6.99387C8.85143 6.98381 8.86565 6.98381 8.86899 6.99387Z" fill="white"/>
<path d="M6.46894 7.8947L6.48963 7.9567L6.555 7.95723C6.56344 7.95729 6.56697 7.9681 6.56019 7.97313L6.5076 8.01194L6.52732 8.07426C6.52988 8.08232 6.52069 8.08901 6.51379 8.08407L6.4606 8.04607L6.40741 8.08407C6.4005 8.08901 6.39135 8.08232 6.39388 8.07426L6.4136 8.01194L6.361 7.97313C6.35422 7.9681 6.35769 7.95732 6.36619 7.95723L6.43157 7.9567L6.45225 7.8947C6.45491 7.88666 6.46625 7.88666 6.46894 7.8947Z" fill="white"/>
<path d="M6.78418 8.76886L6.81549 8.8628L6.91449 8.86355C6.9273 8.86364 6.93261 8.87998 6.9223 8.88761L6.84264 8.94642L6.87252 9.0408C6.87639 9.05302 6.86249 9.06314 6.85205 9.05567L6.77149 8.99811L6.69093 9.05567C6.68052 9.06311 6.66658 9.05302 6.67046 9.0408L6.70033 8.94642L6.62068 8.88761C6.61036 8.87998 6.61568 8.86364 6.62849 8.86355L6.72749 8.8628L6.7588 8.76886C6.76296 8.75673 6.78014 8.75673 6.78418 8.76886Z" fill="white"/>
<path d="M9.21566 9.2284L9.23535 9.28749L9.29763 9.28796C9.30569 9.28802 9.30903 9.2983 9.30256 9.30309L9.25247 9.34009L9.27125 9.39946C9.27369 9.40715 9.26494 9.41349 9.25835 9.4088L9.20769 9.37259L9.157 9.4088C9.15044 9.41349 9.14169 9.40715 9.1441 9.39946L9.16288 9.34009L9.11278 9.30309C9.10632 9.2983 9.10966 9.28802 9.11772 9.28796L9.18 9.28749L9.19969 9.2284C9.20228 9.22074 9.21313 9.22074 9.21566 9.2284Z" fill="white"/>
<path d="M9.43329 8.77887L9.45857 8.85468L9.53851 8.8553C9.54885 8.85537 9.55317 8.86859 9.54482 8.87474L9.48051 8.92221L9.5046 8.99843C9.50773 9.0083 9.49651 9.01646 9.48807 9.01043L9.42304 8.96396L9.35801 9.01043C9.3496 9.01646 9.33835 9.0083 9.34148 8.99843L9.36557 8.92221L9.30126 8.87474C9.29295 8.86862 9.29723 8.8554 9.30757 8.8553L9.38751 8.85468L9.41279 8.77887C9.4161 8.76902 9.43001 8.76902 9.43329 8.77887Z" fill="white"/>
</svg>
