<svg width="16" height="16" viewBox="0 0 16 16" fill="none" xmlns="http://www.w3.org/2000/svg">
<g clip-path="url(#clip0_5367_192571)">
<rect x="15" y="1" width="14" height="14" rx="2" transform="rotate(90 15 1)" fill="#41479B"/>
<path d="M18.7146 2.64834H-2.71387V1.41211C-2.71387 1.18453 -2.54842 1 -2.34439 1H18.3451C18.5492 1 18.7146 1.18453 18.7146 1.41211L18.7146 2.64834Z" fill="#FF334B"/>
<path d="M-2.71387 13.3633H18.7146V14.5995C18.7146 14.8271 18.5492 15.0116 18.3451 15.0116H-2.34439C-2.54842 15.0116 -2.71387 14.8271 -2.71387 14.5995V13.3633Z" fill="#FF334B"/>
<path d="M7.99973 12.7397C10.617 12.7397 12.7387 10.618 12.7387 8.00071C12.7387 5.38344 10.617 3.26172 7.99973 3.26172C5.38246 3.26172 3.26074 5.38344 3.26074 8.00071C3.26074 10.618 5.38246 12.7397 7.99973 12.7397Z" fill="white"/>
<path d="M7.17573 10.3587L6.5115 10.4765C6.4278 10.4913 6.35156 10.4227 6.35156 10.3323V10.0664H7.1757L7.17573 10.3587Z" fill="#82AFFF"/>
<path d="M8.82422 10.3587L9.48845 10.4765C9.57215 10.4913 9.64839 10.4227 9.64839 10.3323V10.0664H8.82426V10.3587H8.82422Z" fill="#82AFFF"/>
<path d="M7.99998 5.53318H7.92623C7.8377 5.53318 7.75807 5.4879 7.71841 5.41528L7.58789 5.17553L7.70626 5.12109L7.83678 5.36084C7.85384 5.39217 7.88816 5.41165 7.92623 5.41165H7.99998V5.53318V5.53318Z" fill="#965032"/>
<path d="M6.94797 5.48969L6.76367 5.12109L6.66088 5.17249L6.84517 5.54108L6.94797 5.48969Z" fill="#965032"/>
<path d="M8.412 7.18152L8.08345 6.87794C8.01207 6.81197 7.97108 6.72066 7.97108 6.62729V6.5251C7.97108 6.48762 7.96144 6.44998 7.94331 6.41643L7.86142 6.26506C7.84434 6.23353 7.81 6.21382 7.77177 6.21382H7.489C7.40491 6.21382 7.32937 6.17068 7.29179 6.10122L7.17578 5.88676L7.28334 5.83698L7.39935 6.05144C7.41643 6.08297 7.45076 6.10268 7.489 6.10268H7.77177C7.85586 6.10268 7.9314 6.14582 7.96898 6.21528L8.05087 6.36664C8.07737 6.4157 8.09138 6.47038 8.09138 6.5251V6.62729C8.09138 6.69136 8.1195 6.75405 8.1685 6.79918L8.29182 6.91319V6.39546C8.29182 6.2551 8.23954 6.11749 8.14463 6.00781C8.03278 5.87842 7.97117 5.71625 7.97117 5.55071V5.12109H8.09138V5.55071C8.09138 5.69107 8.14367 5.82868 8.23857 5.93836C8.35046 6.06775 8.41204 6.22993 8.41204 6.39546V7.18152H8.412Z" fill="#965032"/>
<path d="M7.99998 7.18162H7.84406C7.7479 7.18162 7.66087 7.09663 7.62737 6.97031L7.58789 6.82096L7.68635 6.76953L7.72583 6.91888C7.74411 6.98798 7.79158 7.0342 7.84406 7.0342H7.99998V7.18162Z" fill="#965032"/>
<path d="M8.5173 5.16748L8.41211 5.12109L7.74702 6.6293L7.85221 6.67569L8.5173 5.16748Z" fill="#965032"/>
<path d="M8.41209 6.35737H8V6.21612H8.32685V5.5332H8.41209V6.35737Z" fill="#965032"/>
<path d="M7.38176 6.76951H6.96972C6.85593 6.76951 6.76367 6.67729 6.76367 6.56346C6.76367 6.44968 6.85589 6.35742 6.96972 6.35742H7.3818C7.49559 6.35742 7.58784 6.44964 7.58784 6.56346C7.58781 6.67729 7.49555 6.76951 7.38176 6.76951Z" fill="#73AF00"/>
<path d="M8.61813 6.76951H8.20604C8.09225 6.76951 8 6.67729 8 6.56346C8 6.44968 8.09222 6.35742 8.20604 6.35742H8.61813C8.73192 6.35742 8.82417 6.44964 8.82417 6.56346C8.82417 6.67729 8.73188 6.76951 8.61813 6.76951Z" fill="#73AF00"/>
<path d="M9.38344 6.3574H8.67704C8.53073 6.3574 8.41211 6.26518 8.41211 6.15136C8.41211 6.03757 8.53068 5.94531 8.67704 5.94531H9.38344C9.52975 5.94531 9.64837 6.03753 9.64837 6.15136C9.64832 6.26515 9.52975 6.3574 9.38344 6.3574Z" fill="#73AF00"/>
<path d="M9.40108 5.94529H8.24726C8.11071 5.94529 8 5.85307 8 5.73925C8 5.62546 8.11066 5.5332 8.24726 5.5332H9.40108C9.53763 5.5332 9.64834 5.62542 9.64834 5.73925C9.64834 5.853 9.53763 5.94529 9.40108 5.94529Z" fill="#73AF00"/>
<path d="M8.57691 5.12107H8.24726C8.11071 5.12107 8 5.02885 8 4.91503C8 4.80124 8.11066 4.70898 8.24726 4.70898H8.57691C8.71346 4.70898 8.82417 4.8012 8.82417 4.91503C8.82417 5.02882 8.71342 5.12107 8.57691 5.12107Z" fill="#73AF00"/>
<path d="M6.60911 5.53318H6.5061C6.42075 5.53318 6.35156 5.44096 6.35156 5.32714C6.35156 5.21335 6.42073 5.12109 6.5061 5.12109H6.60911C6.69446 5.12109 6.76365 5.21331 6.76365 5.32714C6.76362 5.44096 6.69443 5.53318 6.60911 5.53318Z" fill="#73AF00"/>
<path d="M7.79391 5.12107H7.38182C7.26803 5.12107 7.17578 5.02885 7.17578 4.91503C7.17578 4.80124 7.268 4.70898 7.38182 4.70898H7.79391C7.9077 4.70898 7.99995 4.8012 7.99995 4.91503C7.99988 5.02885 7.90766 5.12107 7.79391 5.12107Z" fill="#73AF00"/>
<path d="M7.38176 5.94529H6.55762C6.44382 5.94529 6.35156 5.85307 6.35156 5.73925C6.35156 5.62546 6.44378 5.5332 6.55762 5.5332H7.38176C7.49556 5.5332 7.58782 5.62542 7.58782 5.73925C7.58782 5.85307 7.49556 5.94529 7.38176 5.94529Z" fill="#73AF00"/>
<path d="M10.5693 9.24219H5.84246C5.66842 9.24219 5.52734 9.36518 5.52734 9.51691C5.52734 9.66864 5.66842 9.79164 5.84246 9.79164H7.10297C7.10297 9.94337 7.24405 10.0664 7.41809 10.0664H8.99372C9.16776 10.0664 9.30883 9.94337 9.30883 9.79164H10.5693C10.7434 9.79164 10.8845 9.66864 10.8845 9.51691C10.8845 9.36522 10.7434 9.24219 10.5693 9.24219Z" fill="#73AF00"/>
<path d="M10.8762 6.90503C10.8655 6.8792 10.8097 6.90987 10.7748 6.89433C10.3423 6.70125 9.7616 6.34949 9.38204 6.10968L9.30582 5.9648L8.58634 5.54488C8.54055 5.51816 8.48537 5.53873 8.46022 5.59185L8.42475 5.66671C8.39769 5.72387 8.41556 5.79657 8.4641 5.82691L9.14916 6.25495L9.34274 6.23776L10.0952 6.70233C10.0952 6.70233 10.6064 7.01639 10.6336 7.03945C10.6608 7.06251 10.6764 7.19171 10.7271 7.18091C10.7634 7.17316 10.9226 7.01676 10.8762 6.90503Z" fill="#BE7855"/>
<path d="M5.90871 9.68588C5.90871 9.68588 5.97499 10.0068 5.91284 10.043C5.85069 10.0791 5.51919 10.0791 5.5275 10.0023C5.53576 9.92545 5.58139 9.6543 5.58139 9.6543L5.90871 9.68588Z" fill="#FFBE3C"/>
<path d="M6.36481 9.24219C6.36481 9.24219 6.31182 9.41135 6.41781 9.41776C6.52375 9.42412 7.12274 9.42094 7.13909 9.40821C7.15543 9.39549 7.17573 9.36352 7.17573 9.36352L6.62151 9.24219H6.36481Z" fill="#FFBE3C"/>
<path d="M5.82288 7.18164C5.82288 7.18164 5.69364 7.47328 5.64663 8.48379C5.63412 8.75263 5.66833 8.68965 5.52734 9.55432L5.69464 9.63722C5.74335 9.66134 5.80184 9.65963 5.84885 9.63254L6.01169 9.53888C6.01169 9.53888 5.93216 8.57134 6.19244 8.01545C6.19244 8.01545 6.32983 8.25567 6.32983 8.43404C6.32983 8.61245 6.32262 9.47024 6.32262 9.47024C6.32262 9.47024 6.62626 9.51828 6.7636 9.50456C6.7636 9.50456 6.67683 7.64315 6.5901 7.20481L5.82288 7.18164Z" fill="#EAF3F5"/>
<path d="M5.97312 7.18164C5.97312 7.18164 5.9194 7.21516 5.94767 7.29653C5.94767 7.29653 6.36042 7.44736 6.74772 7.31808C6.74772 7.31808 6.79012 7.26539 6.73645 7.20077L5.97312 7.18164Z" fill="#965032"/>
<path d="M5.59891 6.25007C5.39966 6.32504 5.0969 6.5122 5.1161 6.66109C5.1353 6.80998 5.23952 6.77366 5.27205 6.73708C5.30458 6.70051 5.3979 6.58323 5.42707 6.5624C5.45625 6.54156 5.92749 6.29665 5.92749 6.29665L7.17526 5.6473C7.17526 5.6473 7.18482 5.5842 7.1105 5.5332C7.11045 5.5332 6.34711 5.9685 5.59891 6.25007Z" fill="#965032"/>
<path d="M5.89419 5.59966L5.8868 5.64946C5.8868 5.64946 5.86713 5.96854 5.98018 6.05454C5.98018 6.05454 6.00475 6.12012 5.96545 6.15185C5.92615 6.18357 5.53794 6.36455 5.53794 6.36455C5.53794 6.36455 5.43717 6.55692 5.43962 6.66551C5.43962 6.66551 5.34379 6.63156 5.35363 6.58857C5.36342 6.54557 5.41999 6.43243 5.40276 6.37812C5.38554 6.32381 5.32167 6.33967 5.32167 6.33967C5.32167 6.33967 5.28971 6.37135 5.34134 6.39169L5.32412 6.45957L5.11523 6.5727L5.16192 6.62472C5.16192 6.62472 5.16437 7.02299 5.4199 7.07501C5.4199 7.07501 5.55503 7.08403 5.71478 6.80344C5.71478 6.80344 5.80077 6.94371 5.77126 7.06595C5.77126 7.06595 6.05136 7.20622 6.43467 7.08407L6.43961 6.83968C6.43961 6.83968 6.49859 7.21532 6.70004 7.17908C6.70004 7.17908 7.25817 6.98122 7.16522 6.90602C6.94899 6.73101 6.68788 6.87892 6.68788 6.87892C6.67521 6.62472 6.65214 6.29592 6.61645 6.26035C6.55748 6.20153 6.37565 6.23322 6.33962 6.15778C6.30358 6.08234 6.31342 5.94963 6.35272 5.79571C6.39202 5.64183 6.1922 5.5332 6.1922 5.5332L5.89419 5.59966Z" fill="#FFBE3C"/>
<path d="M5.94827 5.78551C5.94827 5.78551 6.11004 5.83657 6.2368 5.77398L6.29227 5.94529H6.32395C6.32395 5.94529 6.40033 5.62823 6.29892 5.63195C6.29892 5.63195 6.29854 5.52902 6.12143 5.53334C5.96933 5.53705 5.91659 5.66033 5.94827 5.78551Z" fill="#464655"/>
<path d="M10.0913 9.68588C10.0913 9.68588 10.025 10.0068 10.0871 10.043C10.1493 10.0791 10.4808 10.0791 10.4725 10.0023C10.4642 9.92551 10.4186 9.6543 10.4186 9.6543L10.0913 9.68588Z" fill="#965032"/>
<path d="M9.63514 9.24219C9.63514 9.24219 9.68814 9.41135 9.58214 9.41776C9.4762 9.42412 8.87722 9.42094 8.86087 9.40822C8.84452 9.39545 8.82422 9.36352 8.82422 9.36352L9.37844 9.24219H9.63514Z" fill="#965032"/>
<path d="M10.1771 7.18164C10.1771 7.18164 10.3063 7.47328 10.3533 8.48379C10.3658 8.75263 10.3316 8.68965 10.4726 9.55432L10.3053 9.63722C10.2566 9.66134 10.1981 9.65963 10.1511 9.63254L9.98824 9.53888C9.98824 9.53888 10.0678 8.57134 9.80749 8.01545C9.80749 8.01545 9.6701 8.25567 9.6701 8.43404C9.6701 8.61245 9.67731 9.47024 9.67731 9.47024C9.67731 9.47024 9.37367 9.51828 9.23633 9.50456C9.23633 9.50456 9.3231 7.64315 9.40983 7.20481L10.1771 7.18164Z" fill="#EAF3F5"/>
<path d="M10.0268 7.18164C10.0268 7.18164 10.0805 7.21516 10.0523 7.29653C10.0523 7.29653 9.63953 7.44736 9.25223 7.31808C9.25223 7.31808 9.20983 7.26539 9.2635 7.20077L10.0268 7.18164Z" fill="#BE7855"/>
<path d="M10.1057 5.59966L10.1131 5.64946C10.1131 5.64946 10.1328 5.96854 10.0197 6.05454C10.0197 6.05454 9.99513 6.12012 10.0344 6.15185C10.0737 6.18357 10.4619 6.36455 10.4619 6.36455C10.4619 6.36455 10.5627 6.55692 10.5603 6.66551C10.5603 6.66551 10.6561 6.63156 10.6463 6.58857C10.6365 6.54557 10.5799 6.43243 10.5971 6.37812C10.6143 6.32381 10.6782 6.33967 10.6782 6.33967C10.6782 6.33967 10.7102 6.37135 10.6585 6.39169L10.6758 6.45957L10.8846 6.5727L10.838 6.62472C10.838 6.62472 10.8355 7.02299 10.58 7.07501C10.58 7.07501 10.4448 7.08403 10.2851 6.80344C10.2851 6.80344 10.1991 6.94371 10.2286 7.06595C10.2286 7.06595 9.94852 7.20622 9.56521 7.08407L9.56027 6.83968C9.56027 6.83968 9.5013 7.21532 9.29985 7.17908C9.29985 7.17908 8.74171 6.98122 8.83466 6.90602C9.05089 6.73101 9.312 6.87892 9.312 6.87892C9.32467 6.62472 9.34774 6.29592 9.38343 6.26035C9.44241 6.20153 9.62419 6.23322 9.66027 6.15778C9.69635 6.08234 9.68647 5.94963 9.64717 5.79571C9.60786 5.64183 9.80768 5.5332 9.80768 5.5332L10.1057 5.59966Z" fill="#965032"/>
<path d="M10.0517 5.78551C10.0517 5.78551 9.88993 5.83657 9.76317 5.77398L9.70771 5.94529H9.67603C9.67603 5.94529 9.59965 5.62823 9.70106 5.63195C9.70106 5.63195 9.70144 5.52902 9.8785 5.53334C10.0306 5.53705 10.0834 5.66033 10.0517 5.78551Z" fill="#464655"/>
<path d="M6.76757 5.642C6.75532 5.61455 6.77585 5.60702 6.77585 5.60702C6.77585 5.60702 6.92439 5.53195 6.94168 5.53322C6.97024 5.53535 7.00527 5.58155 7.00527 5.62102C7.00527 5.66046 7.06106 5.76286 7.17576 5.78833C7.17576 5.78833 7.03261 5.96746 6.83392 5.94299C6.83392 5.94293 6.84723 5.82039 6.76757 5.642Z" fill="#EAF3F5"/>
<path d="M6.87551 7.18164C6.81374 7.18164 6.76367 7.22836 6.76367 7.286V8.47971C6.76367 8.76817 6.91824 9.77782 7.99993 10.0662C9.08162 9.77778 9.23619 8.76813 9.23619 8.47971V7.286C9.23619 7.22836 9.18612 7.18164 9.12435 7.18164H6.87551Z" fill="#82AFFF"/>
<path d="M9.23626 8.54589V7.29132C9.23626 7.23075 9.18619 7.18164 9.12442 7.18164H8V8.24276L9.08664 9.24207C9.20695 8.95 9.23626 8.67702 9.23626 8.54589Z" fill="#F8CB32"/>
<path d="M6.76367 8.54589V7.29132C6.76367 7.23075 6.81374 7.18164 6.87551 7.18164H7.99993V8.24276L6.91329 9.24207C6.79298 8.95 6.76367 8.67702 6.76367 8.54589Z" fill="#EAF3F5"/>
<path d="M7.17578 9.24219L7.4583 9.65427H8.24523L8.41204 9.35939L8.22015 9.46525H7.58419L7.17578 9.24219Z" fill="#8C5A28"/>
<path d="M7.58787 8.83008L7.51362 9.24216L7.17578 9.17117C7.17578 9.17117 7.33123 8.97254 7.58787 8.83008Z" fill="white"/>
<path d="M8.02729 8.41797H8V9.24214H8.02729V8.41797Z" fill="#8C5A28"/>
<path d="M8.4394 8.41797H8.41211V9.24214H8.4394V8.41797Z" fill="#8C5A28"/>
<path d="M7.61518 8.41797H7.58789V9.24214H7.61518V8.41797Z" fill="#8C5A28"/>
<path d="M8.37138 8.97715H8.0407C8.01825 8.97715 8 8.96698 8 8.95446V8.85276C8 8.84025 8.01825 8.83008 8.0407 8.83008H8.37138C8.39384 8.83008 8.41209 8.84025 8.41209 8.85276V8.95446C8.41201 8.96698 8.39384 8.97715 8.37138 8.97715Z" fill="white"/>
<path d="M8.37138 8.97715H8.0407C8.01825 8.97715 8 8.96698 8 8.95446V8.85276C8 8.84025 8.01825 8.83008 8.0407 8.83008H8.37138C8.39384 8.83008 8.41209 8.84025 8.41209 8.85276V8.95446C8.41201 8.96698 8.39384 8.97715 8.37138 8.97715Z" fill="white"/>
<path d="M8.37138 8.97715H8.0407C8.01825 8.97715 8 8.96698 8 8.95446V8.85276C8 8.84025 8.01825 8.83008 8.0407 8.83008H8.37138C8.39384 8.83008 8.41209 8.84025 8.41209 8.85276V8.95446C8.41201 8.96698 8.39384 8.97715 8.37138 8.97715Z" fill="white"/>
<path d="M8.31364 9.1627H8.16038C8.14787 9.1627 8.1377 9.15253 8.1377 9.14001V9.03831C8.1377 9.0258 8.14787 9.01562 8.16038 9.01562H8.31364C8.32616 9.01562 8.33633 9.0258 8.33633 9.03831V9.14001C8.33628 9.15253 8.32616 9.1627 8.31364 9.1627Z" fill="white"/>
<path d="M8.31364 8.98143H8.16038C8.14787 8.98143 8.1377 8.97126 8.1377 8.95875V8.88011C8.1377 8.86759 8.14787 8.85742 8.16038 8.85742H8.31364C8.32616 8.85742 8.33633 8.86759 8.33633 8.88011V8.95875C8.33628 8.9713 8.32616 8.98143 8.31364 8.98143Z" fill="white"/>
<path d="M8.31364 8.80335H8.16038C8.14787 8.80335 8.1377 8.79318 8.1377 8.78066V8.7219C8.1377 8.70939 8.14787 8.69922 8.16038 8.69922H8.31364C8.32616 8.69922 8.33633 8.70939 8.33633 8.7219V8.78066C8.33628 8.79322 8.32616 8.80335 8.31364 8.80335Z" fill="white"/>
<path d="M7.80876 9.1627H7.6555C7.64298 9.1627 7.63281 9.15253 7.63281 9.14001V9.03831C7.63281 9.0258 7.64298 9.01562 7.6555 9.01562H7.80876C7.82127 9.01562 7.83144 9.0258 7.83144 9.03831V9.14001C7.83144 9.15253 7.82127 9.1627 7.80876 9.1627Z" fill="white"/>
<path d="M7.80876 8.98143H7.6555C7.64298 8.98143 7.63281 8.97126 7.63281 8.95875V8.88011C7.63281 8.86759 7.64298 8.85742 7.6555 8.85742H7.80876C7.82127 8.85742 7.83144 8.86759 7.83144 8.88011V8.95875C7.83144 8.9713 7.82127 8.98143 7.80876 8.98143Z" fill="white"/>
<path d="M7.80876 8.80335H7.6555C7.64298 8.80335 7.63281 8.79318 7.63281 8.78066V8.7219C7.63281 8.70939 7.64298 8.69922 7.6555 8.69922H7.80876C7.82127 8.69922 7.83144 8.70939 7.83144 8.7219V8.78066C7.83144 8.79322 7.82127 8.80335 7.80876 8.80335Z" fill="white"/>
<path d="M8.22253 8.58984V8.67202L8.10156 8.63018L8.22253 8.58984Z" fill="#FF334B"/>
<path d="M7.71859 8.58984V8.67202L7.59766 8.63018L7.71859 8.58984Z" fill="#FF334B"/>
<path d="M7.97155 8.53125V8.61343L7.85059 8.57159L7.97155 8.53125Z" fill="#FF334B"/>
<path d="M8.90906 9.30469H7.08496C7.11212 9.35638 7.14192 9.40752 7.17532 9.45791H8.81861C8.85214 9.40756 8.88185 9.35638 8.90906 9.30469Z" fill="#4173CD"/>
<path d="M8.81911 9.45898H7.17578C7.24835 9.56822 7.33733 9.67197 7.44397 9.76543H8.55084C8.65756 9.67197 8.7465 9.56818 8.81911 9.45898Z" fill="#73AF00"/>
<path d="M7.44336 9.76562C7.59039 9.89449 7.7709 10.0032 7.99682 10.0721C8.22278 10.0032 8.4032 9.89445 8.55027 9.76562H7.44336Z" fill="#F8CB32"/>
<path d="M7.80038 8.16882C7.80038 8.16882 7.78916 8.17275 7.77711 8.17137C7.76778 8.16736 7.74869 8.16677 7.7602 8.13136C7.76581 8.11383 7.77753 8.08905 7.76903 8.08269C7.76217 8.07469 7.75472 8.06607 7.74672 8.05687C7.73078 8.03845 7.71286 8.01761 7.69324 7.99492C7.65297 7.95056 7.60526 7.89954 7.5496 7.84928C7.52185 7.82408 7.49318 7.79801 7.46397 7.77156C7.43375 7.74611 7.40588 7.71757 7.37298 7.69388C7.35436 7.68409 7.33071 7.67919 7.31004 7.67153C7.28986 7.66341 7.27718 7.64805 7.26241 7.63504C7.23349 7.60833 7.20507 7.58205 7.17753 7.5566C7.12162 7.50655 7.07252 7.45691 7.03055 7.41422C6.98982 7.3735 6.95689 7.33814 6.9337 7.31231C6.91156 7.28774 6.91298 7.25037 6.93675 7.22744L7.00481 7.16177C7.02858 7.13883 7.06599 7.13875 7.08972 7.16173C7.11467 7.18583 7.1489 7.22003 7.18808 7.26217C7.22922 7.30566 7.2771 7.35651 7.3251 7.41414C7.34954 7.4426 7.37474 7.47198 7.40044 7.50178C7.41291 7.51701 7.42777 7.5302 7.43522 7.55062C7.44216 7.57155 7.44622 7.59536 7.45531 7.61432C7.47782 7.64805 7.50532 7.67693 7.52972 7.70807C7.55512 7.73812 7.58011 7.76775 7.6043 7.79638C7.65256 7.8538 7.70182 7.90327 7.74476 7.94508C7.76673 7.9655 7.78686 7.98417 7.80473 8.00074C7.81365 8.00903 7.82202 8.01677 7.82976 8.02397C7.83587 8.03272 7.86102 8.02183 7.87873 8.0169C7.91451 8.00664 7.91443 8.02577 7.91811 8.03523C7.91903 8.04732 7.91472 8.05841 7.91472 8.05841L7.80038 8.16882Z" fill="#BE7855"/>
<path d="M7.04955 8.29105C7.03774 8.29105 7.02582 8.28745 7.01552 8.27983C6.99003 8.261 6.98455 8.22505 7.00342 8.19947L7.54931 7.45894C7.5681 7.43349 7.60384 7.4278 7.62966 7.44684C7.65515 7.46568 7.66063 7.50163 7.64176 7.5272L7.09588 8.26774C7.08458 8.28293 7.06717 8.29105 7.04955 8.29105Z" fill="#965032"/>
<path d="M7.4873 7.40958L7.77144 7.59792L7.89269 7.42871L7.62776 7.21484L7.4873 7.40958Z" fill="white"/>
<path d="M8.24219 7.33626L8.97025 8.23408C8.97025 8.23408 9.07258 8.23872 9.05864 8.15732L8.30501 7.27344L8.24219 7.33626Z" fill="#965032"/>
<path d="M8.0791 7.46007C8.0791 7.46007 8.2838 7.42286 8.36985 7.29492L8.48616 7.43216C8.48616 7.43216 8.29544 7.56705 8.27681 7.71357C8.27681 7.71361 8.121 7.67176 8.0791 7.46007Z" fill="#EAF3F5"/>
<path d="M8.86614 7.37104C8.85275 7.37104 8.8399 7.3638 8.8332 7.35112C8.81249 7.31186 8.80893 7.27641 8.82257 7.24561C8.8417 7.20242 8.88669 7.18978 8.89171 7.18848C8.91197 7.18396 8.93189 7.19547 8.93708 7.21522C8.94214 7.23498 8.93038 7.25523 8.91071 7.26042C8.90657 7.26172 8.89435 7.26712 8.8905 7.27599C8.88686 7.28474 8.88991 7.29914 8.89908 7.31655C8.90866 7.33471 8.90172 7.35723 8.88347 7.36685C8.8779 7.36974 8.872 7.37104 8.86614 7.37104Z" fill="#965032"/>
<path d="M8.26752 7.92473C8.26752 7.91134 8.26028 7.89849 8.2476 7.8918C8.20834 7.87108 8.1729 7.86752 8.14209 7.88117C8.0989 7.90029 8.08626 7.94528 8.08496 7.95031C8.08044 7.97056 8.09195 7.99049 8.11171 7.99568C8.13146 8.00074 8.15172 7.98898 8.15691 7.96931C8.15821 7.96516 8.1636 7.95294 8.17248 7.94909C8.18122 7.94545 8.19562 7.94851 8.21303 7.95767C8.2312 7.9673 8.25371 7.96031 8.26334 7.94206C8.26623 7.9365 8.26752 7.93059 8.26752 7.92473Z" fill="#965032"/>
<path d="M8.89045 7.28711L8.20508 7.9601L8.36633 8.13998L9.03622 7.46389L8.89045 7.28711Z" fill="#EAF3F5"/>
<path d="M5.40931 6.31762C5.45522 6.30699 5.49549 6.36868 5.45401 6.41342C5.41249 6.45811 5.29258 6.53885 5.25609 6.53156C5.19226 6.51872 5.14756 6.37822 5.40931 6.31762Z" fill="#FFBE3C"/>
<path d="M10.6093 6.38207C10.5667 6.37144 10.5294 6.43313 10.5678 6.47787C10.6063 6.52257 10.7175 6.6033 10.7513 6.59602C10.8105 6.58317 10.852 6.44271 10.6093 6.38207Z" fill="#965032"/>
<path d="M9.04244 7.00632C9.09986 7.00632 9.1464 7.05596 9.1464 7.11719V8.38532C9.1464 8.69176 9.00272 9.76435 7.99722 10.0708C6.99171 9.76431 6.84803 8.69172 6.84803 8.38532V7.11719C6.84803 7.05596 6.89457 7.00632 6.95199 7.00632H9.04244ZM9.04244 6.92969H6.95204C6.85247 6.92969 6.77148 7.01377 6.77148 7.11719V8.38532C6.77148 8.45852 6.78136 8.84481 6.97627 9.26062C7.18348 9.70262 7.52885 10.0081 7.97499 10.1441L7.99734 10.1509L8.01969 10.1441C8.46584 10.0081 8.8112 9.70262 9.01841 9.26062C9.21332 8.84485 9.2232 8.45856 9.2232 8.38532V7.11719C9.22299 7.01385 9.142 6.92969 9.04244 6.92969Z" fill="#464655"/>
<path d="M9.83667 10.0888C9.5111 9.9797 9.16176 10.03 8.83229 10.2498C8.41122 10.5305 8.1321 10.5305 7.99792 10.5305C7.86374 10.5305 7.58463 10.5305 7.16355 10.2498C6.83418 10.0302 6.48471 9.97975 6.15918 10.0888V10.4172C6.36434 10.3192 6.6535 10.2781 6.99355 10.5047C7.49184 10.8369 7.8465 10.8369 7.99792 10.8369C8.14935 10.8369 8.504 10.8369 9.0023 10.5047C9.34235 10.2779 9.63151 10.319 9.83667 10.4172V10.0888Z" fill="#EAF3F5"/>
<path d="M7.99804 11.834C5.8436 11.834 4.09082 10.0811 4.09082 7.92674C4.09082 5.77235 5.84364 4.01953 7.99804 4.01953C10.1524 4.01953 11.9052 5.77235 11.9052 7.92674C11.9052 10.0811 10.1525 11.834 7.99804 11.834ZM7.99804 4.17271C5.92806 4.17271 4.244 5.85668 4.244 7.92674C4.244 9.99681 5.92806 11.6808 7.99804 11.6808C10.068 11.6808 11.7521 9.99681 11.7521 7.92674C11.7521 5.85668 10.068 4.17271 7.99804 4.17271Z" fill="#965032"/>
<path d="M3.7237 8.25227C3.7237 8.25227 3.70771 7.77344 4.16742 7.77344C4.16742 7.77344 4.17696 7.96177 4.01102 8.04477C3.8768 8.11186 3.7237 8.25227 3.7237 8.25227Z" fill="#73AF00"/>
<path d="M4.61081 8.25227C4.61081 8.25227 4.6268 7.77344 4.16709 7.77344C4.16709 7.77344 4.15755 7.96177 4.3235 8.04477C4.45776 8.11186 4.61081 8.25227 4.61081 8.25227Z" fill="#73AF00"/>
<path d="M12.269 7.77344C12.269 7.77344 12.285 8.25227 11.8253 8.25227C11.8253 8.25227 11.8158 8.06394 11.9817 7.98094C12.1159 7.91381 12.269 7.77344 12.269 7.77344Z" fill="#73AF00"/>
<path d="M11.3819 7.77344C11.3819 7.77344 11.3659 8.25227 11.8256 8.25227C11.8256 8.25227 11.8352 8.06394 11.6692 7.98094C11.5349 7.91381 11.3819 7.77344 11.3819 7.77344Z" fill="#73AF00"/>
<path d="M8.23567 12.2856C8.23567 12.2856 7.75684 12.3016 7.75684 11.8419C7.75684 11.8419 7.94517 11.8324 8.02817 11.9983C8.0953 12.1325 8.23567 12.2856 8.23567 12.2856Z" fill="#73AF00"/>
<path d="M8.23567 11.3985C8.23567 11.3985 7.75684 11.3825 7.75684 11.8422C7.75684 11.8422 7.94517 11.8518 8.02817 11.6858C8.0953 11.5516 8.23567 11.3985 8.23567 11.3985Z" fill="#73AF00"/>
<path d="M7.75684 3.7403C7.75684 3.7403 8.23567 3.72431 8.23567 4.18402C8.23567 4.18402 8.04733 4.19356 7.96434 4.02762C7.89717 3.89336 7.75684 3.7403 7.75684 3.7403Z" fill="#73AF00"/>
<path d="M7.75684 4.62742C7.75684 4.62742 8.23567 4.6434 8.23567 4.1837C8.23567 4.1837 8.04733 4.17415 7.96434 4.3401C7.89717 4.47432 7.75684 4.62742 7.75684 4.62742Z" fill="#73AF00"/>
<path d="M5.14459 11.2031C5.14459 11.2031 4.7947 10.8758 5.11973 10.5508C5.11973 10.5508 5.25964 10.6772 5.201 10.8532C5.15363 10.9956 5.14459 11.2031 5.14459 11.2031Z" fill="#73AF00"/>
<path d="M5.77243 10.5752C5.77243 10.5752 5.44514 10.2254 5.12012 10.5504C5.12012 10.5504 5.24651 10.6903 5.42254 10.6317C5.56488 10.5842 5.77243 10.5752 5.77243 10.5752Z" fill="#73AF00"/>
<path d="M10.8481 4.82227C10.8481 4.82227 11.198 5.14955 10.873 5.47458C10.873 5.47458 10.7331 5.34818 10.7917 5.17215C10.8391 5.02977 10.8481 4.82227 10.8481 4.82227Z" fill="#73AF00"/>
<path d="M10.2207 5.44968C10.2207 5.44968 10.548 5.79957 10.873 5.47454C10.873 5.47454 10.7466 5.33463 10.5706 5.39326C10.4282 5.44068 10.2207 5.44968 10.2207 5.44968Z" fill="#73AF00"/>
<path d="M11.1875 10.8657C11.1875 10.8657 10.8602 11.2156 10.5352 10.8906C10.5352 10.8906 10.6616 10.7506 10.8376 10.8093C10.98 10.8567 11.1875 10.8657 11.1875 10.8657Z" fill="#73AF00"/>
<path d="M10.5596 10.2383C10.5596 10.2383 10.2097 10.5656 10.5348 10.8906C10.5348 10.8906 10.6747 10.7642 10.616 10.5882C10.5686 10.4458 10.5596 10.2383 10.5596 10.2383Z" fill="#73AF00"/>
<path d="M4.80566 5.16119C4.80566 5.16119 5.13295 4.8113 5.45797 5.13633C5.45797 5.13633 5.33158 5.27624 5.15555 5.21761C5.01317 5.17014 4.80566 5.16119 4.80566 5.16119Z" fill="#73AF00"/>
<path d="M5.43308 5.78903C5.43308 5.78903 5.78296 5.46175 5.45794 5.13672C5.45794 5.13672 5.31803 5.26311 5.37666 5.43915C5.42412 5.58153 5.43308 5.78903 5.43308 5.78903Z" fill="#73AF00"/>
<path d="M4.14081 9.86999C4.14081 9.86999 3.94285 9.43372 4.36752 9.25781C4.36752 9.25781 4.44842 9.42811 4.32684 9.56836C4.22849 9.68169 4.14081 9.86999 4.14081 9.86999Z" fill="#73AF00"/>
<path d="M4.96036 9.53028C4.96036 9.53028 4.79191 9.08179 4.36719 9.25769C4.36719 9.25769 4.43043 9.43536 4.61554 9.4485C4.76516 9.45913 4.96036 9.53028 4.96036 9.53028Z" fill="#73AF00"/>
<path d="M11.8517 6.15625C11.8517 6.15625 12.0497 6.59252 11.625 6.76843C11.625 6.76843 11.5441 6.59809 11.6657 6.45788C11.764 6.34454 11.8517 6.15625 11.8517 6.15625Z" fill="#73AF00"/>
<path d="M11.0322 6.49609C11.0322 6.49609 11.2007 6.94458 11.6254 6.76868C11.6254 6.76868 11.5622 6.59101 11.377 6.57787C11.2274 6.56724 11.0322 6.49609 11.0322 6.49609Z" fill="#73AF00"/>
<path d="M9.85241 11.8683C9.85241 11.8683 9.41614 12.0663 9.24023 11.6416C9.24023 11.6416 9.41053 11.5607 9.55078 11.6823C9.66416 11.7806 9.85241 11.8683 9.85241 11.8683Z" fill="#73AF00"/>
<path d="M9.5127 11.0488C9.5127 11.0488 9.06421 11.2173 9.24012 11.642C9.24012 11.642 9.41778 11.5788 9.43092 11.3937C9.44159 11.2439 9.5127 11.0488 9.5127 11.0488Z" fill="#73AF00"/>
<path d="M6.14062 4.15741C6.14062 4.15741 6.57689 3.95945 6.7528 4.38413C6.7528 4.38413 6.58246 4.46503 6.44225 4.34345C6.32888 4.24513 6.14062 4.15741 6.14062 4.15741Z" fill="#73AF00"/>
<path d="M6.47949 4.97794C6.47949 4.97794 6.92798 4.80948 6.75208 4.38477C6.75208 4.38477 6.57441 4.448 6.56127 4.63312C6.5506 4.78278 6.47949 4.97794 6.47949 4.97794Z" fill="#73AF00"/>
<path d="M6.58301 12.0522C6.58301 12.0522 6.13452 11.8837 6.31043 11.459C6.31043 11.459 6.48809 11.5222 6.50123 11.7073C6.51186 11.857 6.58301 12.0522 6.58301 12.0522Z" fill="#73AF00"/>
<path d="M6.92175 11.2316C6.92175 11.2316 6.48548 11.0337 6.30957 11.4583C6.30957 11.4583 6.47991 11.5392 6.62012 11.4177C6.73345 11.3194 6.92175 11.2316 6.92175 11.2316Z" fill="#73AF00"/>
<path d="M9.41016 3.97461C9.41016 3.97461 9.85865 4.14307 9.68274 4.56778C9.68274 4.56778 9.50508 4.50454 9.49194 4.31943C9.48126 4.16972 9.41016 3.97461 9.41016 3.97461Z" fill="#73AF00"/>
<path d="M9.07031 4.7941C9.07031 4.7941 9.50658 4.99207 9.68249 4.56739C9.68249 4.56739 9.51219 4.48649 9.37194 4.60807C9.25861 4.70638 9.07031 4.7941 9.07031 4.7941Z" fill="#73AF00"/>
<path d="M12.0356 9.42773C12.0356 9.42773 11.8671 9.87622 11.4424 9.70032C11.4424 9.70032 11.5056 9.52266 11.6907 9.50951C11.8404 9.49884 12.0356 9.42773 12.0356 9.42773Z" fill="#73AF00"/>
<path d="M11.215 9.08789C11.215 9.08789 11.0171 9.52416 11.4417 9.70006C11.4417 9.70006 11.5226 9.52977 11.4011 9.38952C11.3027 9.27614 11.215 9.08789 11.215 9.08789Z" fill="#73AF00"/>
<path d="M3.95703 6.59864C3.95703 6.59864 4.12549 6.15015 4.55021 6.32605C4.55021 6.32605 4.48697 6.50372 4.30185 6.51686C4.15215 6.52757 3.95703 6.59864 3.95703 6.59864Z" fill="#73AF00"/>
<path d="M4.7775 6.93835C4.7775 6.93835 4.97546 6.50208 4.55079 6.32617C4.55079 6.32617 4.46989 6.49651 4.59147 6.63672C4.68982 6.75005 4.7775 6.93835 4.7775 6.93835Z" fill="#73AF00"/>
<path d="M3.85242 9.08161C3.85242 9.08161 3.74335 8.61508 4.19422 8.52539C4.19422 8.52539 4.24034 8.70824 4.09374 8.822C3.97517 8.91403 3.85242 9.08161 3.85242 9.08161Z" fill="#73AF00"/>
<path d="M4.72293 8.90807C4.72293 8.90807 4.64517 8.4353 4.19434 8.52499C4.19434 8.52499 4.22167 8.71157 4.40067 8.76062C4.54544 8.80021 4.72293 8.90807 4.72293 8.90807Z" fill="#73AF00"/>
<path d="M12.1407 6.94531C12.1407 6.94531 12.2497 7.41184 11.7989 7.50153C11.7989 7.50153 11.7527 7.31868 11.8994 7.20492C12.0179 7.11289 12.1407 6.94531 12.1407 6.94531Z" fill="#73AF00"/>
<path d="M11.2695 7.11719C11.2695 7.11719 11.3473 7.58995 11.7981 7.50026C11.7981 7.50026 11.7708 7.31368 11.5918 7.26463C11.4471 7.225 11.2695 7.11719 11.2695 7.11719Z" fill="#73AF00"/>
<path d="M9.06501 12.1573C9.06501 12.1573 8.59848 12.2663 8.50879 11.8155C8.50879 11.8155 8.69164 11.7694 8.8054 11.916C8.89747 12.0345 9.06501 12.1573 9.06501 12.1573Z" fill="#73AF00"/>
<path d="M8.89147 11.2871C8.89147 11.2871 8.4187 11.3649 8.50839 11.8157C8.50839 11.8157 8.69497 11.7884 8.74402 11.6094C8.78365 11.4646 8.89147 11.2871 8.89147 11.2871Z" fill="#73AF00"/>
<path d="M6.92773 3.86902C6.92773 3.86902 7.39426 3.75995 7.48395 4.21083C7.48395 4.21083 7.3011 4.25695 7.18734 4.11034C7.09527 3.99177 6.92773 3.86902 6.92773 3.86902Z" fill="#73AF00"/>
<path d="M7.10156 4.73953C7.10156 4.73953 7.57433 4.66177 7.48464 4.21094C7.48464 4.21094 7.29806 4.23827 7.24901 4.41727C7.20937 4.562 7.10156 4.73953 7.10156 4.73953Z" fill="#73AF00"/>
<path d="M5.82177 11.6994C5.82177 11.6994 5.41475 11.4466 5.67014 11.0645C5.67014 11.0645 5.83206 11.1611 5.80883 11.3452C5.79013 11.4942 5.82177 11.6994 5.82177 11.6994Z" fill="#73AF00"/>
<path d="M6.31457 10.9598C6.31457 10.9598 5.92531 10.6805 5.66992 11.0627C5.66992 11.0627 5.82122 11.1753 5.98243 11.0834C6.1128 11.0091 6.31457 10.9598 6.31457 10.9598Z" fill="#73AF00"/>
<path d="M10.1709 4.32812C10.1709 4.32812 10.5779 4.58087 10.3225 4.96307C10.3225 4.96307 10.1606 4.86639 10.1838 4.68228C10.2026 4.53341 10.1709 4.32812 10.1709 4.32812Z" fill="#73AF00"/>
<path d="M9.67773 5.0659C9.67773 5.0659 10.067 5.34522 10.3224 4.96303C10.3224 4.96303 10.1711 4.85044 10.0099 4.94235C9.87951 5.0166 9.67773 5.0659 9.67773 5.0659Z" fill="#73AF00"/>
<path d="M11.6818 10.1875C11.6818 10.1875 11.4291 10.5945 11.0469 10.3391C11.0469 10.3391 11.1435 10.1772 11.3277 10.2004C11.4765 10.2192 11.6818 10.1875 11.6818 10.1875Z" fill="#73AF00"/>
<path d="M10.9442 9.69531C10.9442 9.69531 10.6649 10.0846 11.0471 10.34C11.0471 10.34 11.1596 10.1887 11.0677 10.0275C10.9934 9.89704 10.9442 9.69531 10.9442 9.69531Z" fill="#73AF00"/>
<path d="M4.31055 5.83739C4.31055 5.83739 4.56329 5.43038 4.94549 5.68576C4.94549 5.68576 4.84881 5.84769 4.6647 5.82446C4.51583 5.80571 4.31055 5.83739 4.31055 5.83739Z" fill="#73AF00"/>
<path d="M5.04832 6.33215C5.04832 6.33215 5.32765 5.94288 4.94545 5.6875C4.94545 5.6875 4.83286 5.8388 4.92477 6.00001C4.99902 6.13038 5.04832 6.33215 5.04832 6.33215Z" fill="#73AF00"/>
<path d="M4.577 10.5861C4.577 10.5861 4.29767 10.1968 4.67987 9.94141C4.67987 9.94141 4.79245 10.0927 4.70054 10.2539C4.62626 10.3843 4.577 10.5861 4.577 10.5861Z" fill="#73AF00"/>
<path d="M5.31463 10.0933C5.31463 10.0933 5.06188 9.68624 4.67969 9.94162C4.67969 9.94162 4.77637 10.1035 4.96048 10.0803C5.10934 10.0616 5.31463 10.0933 5.31463 10.0933Z" fill="#73AF00"/>
<path d="M11.4165 5.43945C11.4165 5.43945 11.6958 5.82872 11.3136 6.08411C11.3136 6.08411 11.201 5.93281 11.2929 5.77159C11.3672 5.64122 11.4165 5.43945 11.4165 5.43945Z" fill="#73AF00"/>
<path d="M10.6777 5.93359C10.6777 5.93359 10.9305 6.34061 11.3127 6.08522C11.3127 6.08522 11.216 5.9233 11.0319 5.94653C10.883 5.96528 10.6777 5.93359 10.6777 5.93359Z" fill="#73AF00"/>
<path d="M10.5695 11.4331C10.5695 11.4331 10.1802 11.7124 9.9248 11.3302C9.9248 11.3302 10.0761 11.2176 10.2373 11.3095C10.3677 11.3838 10.5695 11.4331 10.5695 11.4331Z" fill="#73AF00"/>
<path d="M10.0757 10.6953C10.0757 10.6953 9.66866 10.9481 9.92404 11.3303C9.92404 11.3303 10.086 11.2336 10.0628 11.0495C10.044 10.9006 10.0757 10.6953 10.0757 10.6953Z" fill="#73AF00"/>
<path d="M5.42383 4.59262C5.42383 4.59262 5.8131 4.3133 6.06848 4.69549C6.06848 4.69549 5.91718 4.80808 5.75597 4.71617C5.6256 4.64192 5.42383 4.59262 5.42383 4.59262Z" fill="#73AF00"/>
<path d="M5.91699 5.33221C5.91699 5.33221 6.32401 5.07946 6.06862 4.69727C6.06862 4.69727 5.9067 4.79394 5.92992 4.97805C5.94867 5.12692 5.91699 5.33221 5.91699 5.33221Z" fill="#73AF00"/>
<path d="M7.39732 12.2513C7.39732 12.2513 6.92456 12.1735 7.01425 11.7227C7.01425 11.7227 7.20083 11.75 7.24988 11.929C7.28947 12.0737 7.39732 12.2513 7.39732 12.2513Z" fill="#73AF00"/>
<path d="M7.57087 11.3807C7.57087 11.3807 7.10434 11.2717 7.01465 11.7225C7.01465 11.7225 7.1975 11.7687 7.31126 11.6221C7.40329 11.5035 7.57087 11.3807 7.57087 11.3807Z" fill="#73AF00"/>
<path d="M8.59473 3.77539C8.59473 3.77539 9.06749 3.85315 8.9778 4.30399C8.9778 4.30399 8.79122 4.27666 8.74217 4.09765C8.70258 3.95293 8.59473 3.77539 8.59473 3.77539Z" fill="#73AF00"/>
<path d="M8.42188 4.64556C8.42188 4.64556 8.88841 4.75463 8.9781 4.30375C8.9781 4.30375 8.79524 4.25763 8.68149 4.40424C8.58945 4.52281 8.42188 4.64556 8.42188 4.64556Z" fill="#73AF00"/>
<path d="M12.2337 8.61133C12.2337 8.61133 12.1559 9.0841 11.7051 8.99441C11.7051 8.99441 11.7324 8.80783 11.9114 8.75878C12.0562 8.71914 12.2337 8.61133 12.2337 8.61133Z" fill="#73AF00"/>
<path d="M11.3632 8.43945C11.3632 8.43945 11.2541 8.90598 11.705 8.99567C11.705 8.99567 11.7511 8.81282 11.6045 8.69906C11.4858 8.60699 11.3632 8.43945 11.3632 8.43945Z" fill="#73AF00"/>
<path d="M3.75879 7.41393C3.75879 7.41393 3.83655 6.94116 4.28739 7.03085C4.28739 7.03085 4.26006 7.21743 4.08105 7.26648C3.93633 7.30611 3.75879 7.41393 3.75879 7.41393Z" fill="#73AF00"/>
<path d="M4.62896 7.58747C4.62896 7.58747 4.73803 7.12094 4.28715 7.03125C4.28715 7.03125 4.24103 7.2141 4.38764 7.32786C4.50621 7.41993 4.62896 7.58747 4.62896 7.58747Z" fill="#73AF00"/>
</g>
<defs>
<clipPath id="clip0_5367_192571">
<rect x="15" y="1" width="14" height="14" rx="2" transform="rotate(90 15 1)" fill="white"/>
</clipPath>
</defs>
</svg>
