<svg width="16" height="16" viewBox="0 0 16 16" fill="none" xmlns="http://www.w3.org/2000/svg">
<g clip-path="url(#clip0_5367_192567)">
<rect x="1" y="15" width="14" height="14" rx="2" transform="rotate(-90 1 15)" fill="#FF334B"/>
<path d="M3.7998 1L3.7998 15L12.1998 15L12.1998 1L3.7998 1Z" fill="white"/>
<path d="M9.67376 9.0394L11.3107 8.10402L10.9351 7.91621C10.8298 7.86353 10.7694 7.74978 10.785 7.63299L10.9073 6.71668L10.2142 6.91831C10.0611 6.96287 9.90226 6.86868 9.86782 6.71303L9.80144 6.41303L9.15073 7.17459C9.06051 7.28015 8.88866 7.19953 8.9122 7.06265L9.1901 5.44678L8.76463 5.56315C8.64035 5.59715 8.5091 5.54059 8.44851 5.4269L8.00048 4.58719V4.58594L8.00017 4.58656L7.99982 4.58594V4.58719L7.55179 5.4269C7.49114 5.54056 7.35989 5.59712 7.2356 5.56315L6.81011 5.44678L7.08801 7.06265C7.11154 7.19946 6.93967 7.28012 6.84945 7.17459L6.19873 6.41303L6.13236 6.71303C6.09792 6.86871 5.93904 6.96284 5.78595 6.91831L5.09292 6.71668L5.21514 7.63299C5.23073 7.74974 5.17042 7.86353 5.06508 7.91621L4.68945 8.10402L6.32642 9.03943C6.49598 9.13634 6.57029 9.34183 6.50189 9.52474L6.36195 9.89902L7.7646 9.77927C7.84223 9.77265 7.90829 9.83515 7.90601 9.91299L7.86182 11.4144H8.1377L8.09348 9.91293C8.0912 9.83505 8.15726 9.77258 8.23488 9.77921L9.63819 9.89902L9.49826 9.52474C9.42991 9.3418 9.50419 9.13627 9.67376 9.0394Z" fill="#FF334B"/>
</g>
<defs>
<clipPath id="clip0_5367_192567">
<rect x="1" y="15" width="14" height="14" rx="2" transform="rotate(-90 1 15)" fill="white"/>
</clipPath>
</defs>
</svg>
