<svg width="16" height="16" viewBox="0 0 16 16" fill="none" xmlns="http://www.w3.org/2000/svg">
<g clip-path="url(#clip0_5367_192540)">
<rect x="1" y="1" width="14" height="14" rx="2" fill="#464655"/>
<path d="M1.24139 1H14.7586C14.8919 1 15 1.12373 15 1.27633V4.5H1V1.27633C1 1.12373 1.10809 1 1.24139 1Z" fill="#41479B"/>
<path d="M15 4.5H1V8H15V4.5Z" fill="white"/>
<path d="M15 8H1V11.5H15V8Z" fill="#73AF00"/>
<path d="M1 11.5H15V14.7237C15 14.8763 14.8919 15 14.7586 15H1.24139C1.10809 15 1 14.8763 1 14.7237V11.5Z" fill="#F8CB32"/>
<path d="M3.2035 1.76862L3.43369 2.45883L4.16125 2.46449C4.21762 2.46493 4.24097 2.53687 4.19562 2.57037L3.61031 3.00255L3.82975 3.69624C3.84675 3.74996 3.78556 3.79446 3.73972 3.76165L3.14781 3.33858L2.55591 3.76165C2.51003 3.79443 2.44888 3.74996 2.46588 3.69624L2.68531 3.00255L2.1001 2.57037C2.05475 2.5369 2.07813 2.46496 2.13447 2.46449L2.86203 2.45883L3.09222 1.76862C3.11003 1.71515 3.18566 1.71515 3.2035 1.76862Z" fill="#F8CB32"/>
<path d="M9.31007 1.01758H6.68945V15.0004H9.31007V1.01758Z" fill="#FF334B"/>
</g>
<defs>
<clipPath id="clip0_5367_192540">
<rect x="1" y="1" width="14" height="14" rx="2" fill="white"/>
</clipPath>
</defs>
</svg>
