<svg width="16" height="16" viewBox="0 0 16 16" fill="none" xmlns="http://www.w3.org/2000/svg">
<rect x="0.917969" y="1" width="14" height="14" rx="2" fill="#FF334B"/>
<path d="M11.8217 6.58133H9.3375V4.09709C9.3375 3.90111 9.17858 3.74219 8.98259 3.74219H6.85323C6.65724 3.74219 6.49832 3.90111 6.49832 4.09709V6.58133H4.01409C3.8181 6.58133 3.65918 6.74025 3.65918 6.93623V9.0656C3.65918 9.26158 3.8181 9.42051 4.01409 9.42051H6.49832V11.9047C6.49832 12.1007 6.65724 12.2596 6.85323 12.2596H8.98259C9.17858 12.2596 9.3375 12.1007 9.3375 11.9047V9.42043H11.8217C12.0177 9.42043 12.1766 9.2615 12.1766 9.06552V6.93615C12.1766 6.74021 12.0177 6.58133 11.8217 6.58133Z" fill="white"/>
</svg>
