<svg width="16" height="16" viewBox="0 0 16 16" fill="none" xmlns="http://www.w3.org/2000/svg">
<g clip-path="url(#clip0_5367_192499)">
<rect x="1" y="1" width="14" height="14" rx="2" fill="#41479B"/>
<path d="M10.8072 7.62114L10.9084 7.92451L11.2281 7.92698C11.2529 7.9272 11.2632 7.95876 11.2432 7.97351L10.986 8.16348L11.0824 8.46839C11.0899 8.49201 11.063 8.51158 11.0428 8.49714L10.7826 8.31117L10.5224 8.49714C10.5023 8.51154 10.4754 8.49201 10.4829 8.46839L10.5793 8.16348L10.322 7.97351C10.3021 7.9588 10.3124 7.92717 10.3371 7.92698L10.6569 7.92451L10.7581 7.62114C10.7661 7.59764 10.7994 7.59764 10.8072 7.62114Z" fill="white"/>
<path d="M9.447 7.9948L9.66281 8.2308L9.95594 8.10302C9.97865 8.09312 10.0009 8.1178 9.98865 8.13937L9.8309 8.41752L10.043 8.65683C10.0595 8.6754 10.0428 8.70418 10.0186 8.69921L9.70528 8.63515L9.54325 8.91083C9.53069 8.93218 9.49819 8.92527 9.49537 8.90065L9.45947 8.5829L9.14719 8.51399C9.12297 8.50865 9.11953 8.47558 9.14209 8.46533L9.43322 8.33299L9.40225 8.01471C9.39991 7.99002 9.43028 7.97649 9.447 7.9948Z" fill="white"/>
<path d="M8.35646 8.88816L8.64958 9.01594L8.8654 8.77994C8.88211 8.76166 8.91249 8.77519 8.91008 8.79985L8.87911 9.11813L9.17024 9.25047C9.1928 9.26072 9.1893 9.29378 9.16514 9.29913L8.85286 9.36803L8.81696 9.68578C8.81418 9.71041 8.78165 9.71731 8.76908 9.69597L8.60705 9.42028L8.29374 9.48434C8.26946 9.48931 8.25284 9.46053 8.2693 9.44197L8.48143 9.20266L8.32368 8.9245C8.31149 8.90297 8.33371 8.87828 8.35646 8.88816Z" fill="white"/>
<path d="M7.7239 10.1477L8.04368 10.1452L8.14486 9.84187C8.15268 9.81834 8.18593 9.81834 8.1938 9.84187L8.29496 10.1452L8.61474 10.1477C8.63949 10.1479 8.64977 10.1795 8.62983 10.1942L8.37258 10.3842L8.46902 10.6891C8.47649 10.7127 8.44961 10.7323 8.42943 10.7179L8.16924 10.5319L7.90905 10.7179C7.88886 10.7323 7.86202 10.7127 7.86946 10.6891L7.9659 10.3842L7.70865 10.1942C7.68886 10.1795 7.69915 10.1479 7.7239 10.1477Z" fill="white"/>
<path d="M7.65869 11.5571L7.94982 11.4248L7.91885 11.1065C7.91644 11.0818 7.94682 11.0683 7.96354 11.0866L8.17935 11.3226L8.47247 11.1948C8.49519 11.1849 8.51744 11.2096 8.50519 11.2311L8.34744 11.5093L8.55957 11.7486C8.576 11.7672 8.55938 11.796 8.53513 11.791L8.22182 11.7269L8.05978 12.0026C8.04722 12.024 8.01472 12.0171 8.01191 11.9924L7.976 11.6747L7.66372 11.6058C7.6396 11.6004 7.63613 11.5673 7.65869 11.5571Z" fill="white"/>
<path d="M8.17163 12.8697L8.38375 12.6304L8.226 12.3522C8.21379 12.3307 8.23604 12.306 8.25872 12.3159L8.55185 12.4437L8.76766 12.2077C8.78438 12.1894 8.81475 12.2029 8.81235 12.2276L8.78138 12.5459L9.0725 12.6782C9.09507 12.6885 9.09157 12.7215 9.06741 12.7269L8.75513 12.7958L8.71922 13.1135C8.71644 13.1381 8.68391 13.145 8.67135 13.1237L8.50932 12.848L8.19601 12.9121C8.17182 12.917 8.15519 12.8883 8.17163 12.8697Z" fill="white"/>
<path d="M9.17524 13.861L9.27168 13.5561L9.01443 13.3661C8.99449 13.3514 9.00477 13.3198 9.02952 13.3196L9.3493 13.3171L9.45049 13.0137C9.4583 12.9902 9.49155 12.9902 9.49943 13.0137L9.60058 13.3171L9.92036 13.3196C9.94511 13.3198 9.95539 13.3514 9.93546 13.3661L9.67821 13.5561L9.77465 13.861C9.78211 13.8846 9.75524 13.9042 9.73505 13.8897L9.47486 13.7038L9.21468 13.8897C9.19471 13.9041 9.1678 13.8846 9.17524 13.861Z" fill="white"/>
<path d="M10.4944 14.3577L10.4585 14.0399L10.1462 13.971C10.122 13.9657 10.1186 13.9326 10.1411 13.9223L10.4322 13.79L10.4013 13.4717C10.3989 13.4471 10.4292 13.4335 10.446 13.4518L10.6618 13.6878L10.9549 13.56C10.9776 13.5501 10.9999 13.5748 10.9876 13.5964L10.8299 13.8745L11.042 14.1138C11.0584 14.1324 11.0418 14.1612 11.0176 14.1562L10.7042 14.0922L10.5422 14.3678C10.5296 14.3892 10.4971 14.3823 10.4944 14.3577Z" fill="white"/>
<path d="M11.9019 14.276L11.7399 14.0004L11.4266 14.0644C11.4023 14.0694 11.3856 14.0406 11.4021 14.022L11.6142 13.7827L11.4565 13.5046C11.4443 13.483 11.4665 13.4583 11.4892 13.4682L11.7823 13.596L11.9981 13.36C12.0149 13.3417 12.0452 13.3553 12.0428 13.3799L12.0119 13.6982L12.303 13.8305C12.3256 13.8408 12.3221 13.8739 12.2979 13.8792L11.9856 13.9481L11.9497 14.2659C11.947 14.2905 11.9145 14.2974 11.9019 14.276Z" fill="white"/>
<path d="M13.1542 13.628L12.894 13.4421L12.6338 13.628C12.6136 13.6424 12.5867 13.6229 12.5942 13.5993L12.6906 13.2944L12.4334 13.1044C12.4134 13.0897 12.4237 13.0581 12.4485 13.0579L12.7682 13.0554L12.8694 12.752C12.8772 12.7285 12.9105 12.7285 12.9184 12.752L13.0195 13.0554L13.3393 13.0579C13.3641 13.0581 13.3743 13.0896 13.3544 13.1044L13.0972 13.2944L13.1936 13.5993C13.2012 13.6229 13.1743 13.6424 13.1542 13.628Z" fill="white"/>
<path d="M14.0352 12.5273L13.7219 12.4632L13.5599 12.7389C13.5473 12.7603 13.5148 12.7534 13.512 12.7287L13.4761 12.411L13.1638 12.3421C13.1396 12.3367 13.1361 12.3037 13.1587 12.2934L13.4498 12.1611L13.4189 11.8428C13.4164 11.8181 13.4468 11.8046 13.4635 11.8229L13.6794 12.0589L13.9725 11.9311C13.9952 11.9212 14.0174 11.9459 14.0052 11.9675L13.8474 12.2456L14.0596 12.4849C14.0761 12.5035 14.0595 12.5323 14.0352 12.5273Z" fill="white"/>
<path d="M14.3917 11.1624L14.0794 11.2313L14.0435 11.5491C14.0407 11.5737 14.0082 11.5806 13.9956 11.5593L13.8336 11.2836L13.5203 11.3477C13.496 11.3526 13.4794 11.3238 13.4959 11.3053L13.708 11.066L13.5502 10.7878C13.538 10.7662 13.5603 10.7415 13.583 10.7514L13.8761 10.8792L14.0919 10.6432C14.1086 10.6249 14.139 10.6385 14.1366 10.6631L14.1056 10.9814L14.3967 11.1138C14.4194 11.124 14.4159 11.1571 14.3917 11.1624Z" fill="white"/>
<path d="M14.1632 9.77237L13.9059 9.96234L14.0023 10.2672C14.0098 10.2909 13.9829 10.3104 13.9627 10.296L13.7026 10.11L13.4424 10.296C13.4222 10.3104 13.3953 10.2909 13.4028 10.2672L13.4992 9.96234L13.242 9.77237C13.222 9.75765 13.2323 9.72602 13.2571 9.72584L13.5768 9.72337L13.678 9.41999C13.6858 9.39646 13.7191 9.39646 13.727 9.41999L13.8281 9.72337L14.1479 9.72584C14.1728 9.72602 14.1831 9.75765 14.1632 9.77237Z" fill="white"/>
<path d="M13.3881 8.59439L13.2303 8.87258L13.4424 9.11189C13.4589 9.13045 13.4423 9.15923 13.418 9.15427L13.1047 9.0902L12.9427 9.36589C12.9301 9.38723 12.8976 9.38033 12.8948 9.3557L12.8589 9.03795L12.5466 8.96905C12.5224 8.9637 12.5189 8.93064 12.5415 8.92039L12.8326 8.78805L12.8017 8.46977C12.7993 8.44511 12.8296 8.43158 12.8464 8.44986L13.0622 8.68586L13.3553 8.55808C13.378 8.54817 13.4003 8.57286 13.3881 8.59439Z" fill="white"/>
<path d="M12.2011 7.83306L12.1701 8.15134L12.4613 8.28368C12.4838 8.29393 12.4803 8.32699 12.4562 8.33234L12.1439 8.40124L12.108 8.71899C12.1052 8.74362 12.0727 8.75052 12.0601 8.72918L11.8981 8.45349L11.5848 8.51756C11.5605 8.52253 11.5439 8.49374 11.5603 8.47518L11.7724 8.23587L11.6147 7.95768C11.6025 7.93612 11.6247 7.91143 11.6474 7.92134L11.9405 8.04912L12.1563 7.81312C12.1731 7.79487 12.2035 7.8084 12.2011 7.83306Z" fill="white"/>
<path d="M10.8072 7.62114L10.9084 7.92451L11.2281 7.92698C11.2529 7.9272 11.2632 7.95876 11.2432 7.97351L10.986 8.16348L11.0824 8.46839C11.0899 8.49201 11.063 8.51158 11.0428 8.49714L10.7826 8.31117L10.5224 8.49714C10.5023 8.51154 10.4754 8.49201 10.4829 8.46839L10.5793 8.16348L10.322 7.97351C10.3021 7.9588 10.3124 7.92717 10.3371 7.92698L10.6569 7.92451L10.7581 7.62114C10.7661 7.59764 10.7994 7.59764 10.8072 7.62114Z" fill="white"/>
<g clip-path="url(#clip1_5367_192499)">
<rect width="9.61523" height="6.28688" transform="translate(0.869141 0.839844)" fill="#41479B"/>
<path d="M10.332 0.714844H9.733L6.53885 2.8033V0.714844H4.8147V2.8033L1.62055 0.714844H1.0216C0.831172 0.714844 0.676758 0.868945 0.676758 1.05899V1.33195L3.4172 3.12375H0.676758V4.8444H3.4172L0.676758 6.63624V6.90916C0.676758 7.0992 0.831172 7.25331 1.0216 7.25331H1.62055L4.8147 5.16484V7.25331H6.53885V5.16484L9.73296 7.25331H10.3319C10.5223 7.25331 10.6768 7.0992 10.6768 6.90916V6.6362L7.93636 4.8444H10.6768V3.12375H7.93632L10.6768 1.33195V1.05899C10.6768 0.868945 10.5224 0.714844 10.332 0.714844Z" fill="white"/>
<path d="M10.6768 3.46789H6.19401V0.714844H5.15951V3.46789H0.676758V4.50025H5.15951V7.25331H6.19401V4.50025H10.6768V3.46789Z" fill="#FF334B"/>
<path d="M4.81738 3.11059L0.856151 0.714844C0.750741 0.777021 0.676758 0.881431 0.676758 1.0063V1.0245L4.12599 3.11059H4.81738Z" fill="#FF334B"/>
<path d="M7.17608 3.11059L10.6428 0.886481C10.5826 0.785716 10.4763 0.714844 10.3492 0.714844H10.2743L6.54004 3.11059H7.17608Z" fill="#FF334B"/>
<path d="M4.18202 4.84961L0.725586 7.07591C0.785188 7.17942 0.893029 7.25233 1.0218 7.25233H1.08704L4.81738 4.84961H4.18202Z" fill="#FF334B"/>
<path d="M10.6772 6.93504L7.4617 4.84961H6.83105L10.4825 7.21777C10.5919 7.16706 10.6669 7.06076 10.6772 6.93504Z" fill="#FF334B"/>
</g>
</g>
<defs>
<clipPath id="clip0_5367_192499">
<rect x="1" y="1" width="14" height="14" rx="2" fill="white"/>
</clipPath>
<clipPath id="clip1_5367_192499">
<rect width="9.61523" height="6.28688" fill="white" transform="translate(0.869141 0.839844)"/>
</clipPath>
</defs>
</svg>
