<svg width="16" height="16" viewBox="0 0 16 16" fill="none" xmlns="http://www.w3.org/2000/svg">
<rect x="1" y="1" width="14" height="14" rx="2" fill="#FF334B"/>
<path d="M5.84716 5.33896L6.37392 6.91838L8.03884 6.93127C8.2544 6.9329 8.34378 7.20805 8.17034 7.33604L6.83102 8.32504L7.33319 9.91247C7.39816 10.118 7.1642 10.288 6.98882 10.1626L5.63435 9.19443L4.27988 10.1626C4.1045 10.288 3.87054 10.1179 3.93551 9.91241L4.43767 8.32498L3.09835 7.33604C2.92491 7.20798 3.01429 6.9329 3.22986 6.93127L4.89478 6.91838L5.42154 5.33896C5.48976 5.13441 5.779 5.13441 5.84716 5.33896Z" fill="#F8CB32"/>
<path d="M11.8927 5.7287L12.2704 6.24382L12.88 6.05317C12.9589 6.02851 13.0238 6.11851 12.9755 6.18555L12.6023 6.70386L12.972 7.22468C13.0199 7.29209 12.9543 7.38166 12.8756 7.35643L12.2673 7.16171L11.8862 7.67427C11.8368 7.74062 11.7314 7.70594 11.7311 7.62332L11.7282 6.98458L11.123 6.78047C11.0447 6.754 11.045 6.64309 11.1236 6.61717L11.7301 6.41713L11.7372 5.77846C11.7381 5.6959 11.8438 5.66204 11.8927 5.7287Z" fill="#F8CB32"/>
<path d="M9.59364 4.19377L10.2286 4.26274L10.4995 3.68434C10.5346 3.60948 10.6448 3.62231 10.6617 3.70324L10.7923 4.3284L11.4261 4.40726C11.5081 4.41747 11.53 4.52625 11.4582 4.56737L10.9039 4.88471L11.0248 5.51187C11.0404 5.59311 10.9437 5.64744 10.8825 5.59192L10.4093 5.16286L9.85027 5.47156C9.77791 5.51155 9.69623 5.43632 9.73015 5.3609L9.99197 4.7783L9.52555 4.34192C9.46521 4.28571 9.51146 4.18488 9.59364 4.19377Z" fill="#F8CB32"/>
<path d="M10.5975 10.383L10.2197 10.8981L9.61016 10.7075C9.53123 10.6828 9.46632 10.7728 9.51464 10.8399L9.88781 11.3582L9.51815 11.879C9.47027 11.9464 9.5358 12.036 9.61454 12.0107L10.2229 11.816L10.604 12.3286C10.6533 12.3949 10.7588 12.3603 10.7591 12.2776L10.7619 11.6389L11.3671 11.4348C11.4455 11.4083 11.4451 11.2974 11.3666 11.2715L10.7601 11.0714L10.7529 10.4328C10.7519 10.3503 10.6464 10.3163 10.5975 10.383Z" fill="#F8CB32"/>
<path d="M12.8963 8.93986L12.2613 9.00884L11.9904 8.43043C11.9553 8.35557 11.8451 8.3684 11.8282 8.44933L11.6976 9.07449L11.0638 9.15336C10.9817 9.16356 10.9599 9.27234 11.0317 9.31346L11.5859 9.6308L11.4651 10.258C11.4494 10.3392 11.5461 10.3935 11.6074 10.338L12.0805 9.90896L12.6396 10.2177C12.7119 10.2576 12.7936 10.1824 12.7597 10.107L12.4979 9.5244L12.9643 9.08801C13.0248 9.03181 12.9786 8.93097 12.8963 8.93986Z" fill="#F8CB32"/>
</svg>
