<svg width="16" height="16" viewBox="0 0 16 16" fill="none" xmlns="http://www.w3.org/2000/svg">
<g clip-path="url(#clip0_5367_192406)">
<rect x="15" y="1" width="14" height="14" rx="2" transform="rotate(90 15 1)" fill="white"/>
<path d="M20.0589 5.78906H-1.30957V10.2101H20.0589V5.78906Z" fill="#FF334B"/>
<path d="M-0.940155 1H19.6915C19.8949 1 20.0599 1.16498 20.0599 1.36844V3.39477H-1.30859V1.36844C-1.30859 1.16498 -1.14361 1 -0.940155 1Z" fill="#41479B"/>
<path d="M20.0589 3.39453H-1.30957V5.7893H20.0589V3.39453Z" fill="white"/>
<path d="M19.6904 15.0002H-0.941132C-1.14459 15.0002 -1.30957 14.8353 -1.30957 14.6318V12.6055H20.0589V14.6318C20.0589 14.8353 19.8939 15.0002 19.6904 15.0002Z" fill="#41479B"/>
<path d="M20.0589 10.2109H-1.30957V12.6057H20.0589V10.2109Z" fill="white"/>
<path d="M4.46641 9.84259C5.41814 9.84259 6.18966 9.01781 6.18966 8.0004C6.18966 6.98298 5.41814 6.1582 4.46641 6.1582C3.51469 6.1582 2.74316 6.98298 2.74316 8.0004C2.74316 9.01781 3.51469 9.84259 4.46641 9.84259Z" fill="white"/>
<path d="M5.35787 7.28711H3.5752V8.17845H5.35787V7.28711Z" fill="#3CC8FF"/>
<path d="M3.81336 7.79297L3.83372 7.98958L3.91377 7.80891L3.87237 8.00219L4.00442 7.85503L3.90526 8.0261L4.07633 7.92698L3.92921 8.05903L4.12249 8.01759L3.94178 8.09768L4.13843 8.11804L3.94178 8.13841L4.12249 8.2185L3.92921 8.1771L4.07633 8.30911L3.90526 8.20994L4.00442 8.38102L3.87237 8.2339L3.91377 8.42718L3.83372 8.24651L3.81336 8.44308L3.79299 8.24651L3.7129 8.42718L3.7543 8.2339L3.62229 8.38102L3.72137 8.20994L3.55034 8.30911L3.6975 8.1771L3.50418 8.2185L3.6849 8.13841L3.48828 8.11804L3.6849 8.09768L3.50418 8.01759L3.6975 8.05903L3.55034 7.92698L3.72137 8.0261L3.62229 7.85503L3.7543 8.00219L3.7129 7.80891L3.79299 7.98958L3.81336 7.79297Z" fill="#F8CB32"/>
<path d="M4.82276 9.42646H4.10971L3.45605 8.89162V8.11914H5.53585V8.89162L4.82276 9.42646Z" fill="#41479B"/>
<path d="M5.18022 7.88105H5.18018C5.18002 7.86477 5.16683 7.85167 5.15051 7.85167C5.13419 7.85167 5.12109 7.86477 5.12084 7.88105H5.12075C5.12075 7.98418 5.06099 8.12683 4.9877 8.229C4.88536 8.09978 4.84688 7.94996 4.83236 7.85559C4.82543 7.8106 4.77681 7.78564 4.73608 7.80601C4.71646 7.81582 4.70323 7.83497 4.69989 7.85663C4.6544 8.14807 4.51701 8.2719 4.42803 8.32282C4.29485 8.19407 4.25095 7.98568 4.23651 7.86248C4.23087 7.81457 4.17962 7.7871 4.13647 7.80864C4.11986 7.81694 4.10754 7.83193 4.10174 7.84958C3.91535 8.41772 3.39746 8.47532 3.39746 8.47532V8.65357H5.47725V8.59418V8.53479V8.4754V8.41601V8.35662C5.23966 8.29698 5.18022 7.88105 5.18022 7.88105Z" fill="#73AF00"/>
<path d="M5.47764 7.3465C5.23996 7.22764 5.23996 7.10882 5.23996 7.10882C5.23996 7.10882 4.94285 6.98996 4.70517 6.98996C4.70517 6.98996 4.76456 6.87109 4.64578 6.87109C4.52692 6.87109 4.46753 6.87109 4.46753 6.87109C4.46753 6.87109 4.40814 6.87109 4.28927 6.87109C4.17041 6.87109 4.22989 6.98996 4.22989 6.98996C3.9922 6.98996 3.69509 7.10882 3.69509 7.10882C3.69509 7.10882 3.69509 7.22768 3.45741 7.3465C3.21973 7.46536 3.21973 7.73276 3.21973 7.73276C3.21973 7.78201 3.25967 7.82187 3.30883 7.82187C3.35808 7.82187 3.39794 7.78192 3.39794 7.73276C3.39794 7.72258 3.39585 7.71302 3.39272 7.70392L3.39794 7.70304L3.99216 7.28711H4.46757H4.94297L5.5372 7.70304L5.54242 7.70392C5.53929 7.71298 5.5372 7.72262 5.5372 7.73276C5.5372 7.78201 5.57714 7.82187 5.6263 7.82187C5.67547 7.82187 5.71541 7.78192 5.71541 7.73276C5.71533 7.73272 5.71533 7.46532 5.47764 7.3465Z" fill="#F0AA00"/>
<path d="M5.65546 8.05935C5.59607 8.05935 5.41778 8.05935 5.41778 7.8811C5.41778 7.70285 5.65546 7.70285 5.65546 7.70285L5.29892 7.58398C5.18006 7.99992 5.41778 7.99992 5.41778 8.53475C5.41778 9.01383 4.88299 9.30723 4.70469 9.30723C4.52644 9.30723 4.46701 9.42609 4.46701 9.42609C4.46701 9.42609 4.40762 9.30723 4.22933 9.30723C4.05108 9.30723 3.51624 9.01383 3.51624 8.53475C3.51624 7.99996 3.75392 7.99996 3.6351 7.58398L3.27856 7.70285C3.27856 7.70285 3.51624 7.70285 3.51624 7.8811C3.51624 8.05935 3.33799 8.05935 3.27856 8.05935C3.21913 8.05935 2.98145 8.05935 2.98145 8.35646C2.98145 8.65357 3.27856 9.01012 3.69453 9.2478C4.11047 9.48548 3.93222 9.72321 4.46701 9.72321C5.00181 9.72321 4.82356 9.48552 5.23949 9.2478C5.65542 9.01012 5.95258 8.65357 5.95258 8.35646C5.95258 8.05935 5.71485 8.05935 5.65546 8.05935Z" fill="#F0AA00"/>
<path d="M4.34785 7.12973L4.20412 7.06512C4.18025 7.0544 4.15379 7.05189 4.12833 7.05782C4.03567 7.07923 3.80584 7.14964 3.63477 7.34676L3.81302 7.40614L4.34785 7.12973Z" fill="#73AF00"/>
<path d="M4.58594 7.12973L4.72967 7.06512C4.75355 7.0544 4.78001 7.05189 4.80547 7.05782C4.89812 7.07923 5.12795 7.14964 5.29903 7.34676L5.12078 7.40614L4.58594 7.12973Z" fill="#73AF00"/>
<path d="M4.48769 7.16884L4.59603 7.0605C4.60184 7.0547 4.60184 7.04531 4.59603 7.03951C4.59023 7.03371 4.58084 7.03371 4.57504 7.03951L4.4667 7.14785L4.35835 7.03951C4.35255 7.03371 4.34316 7.03371 4.33736 7.03951C4.33156 7.04531 4.33156 7.0547 4.33736 7.0605L4.4457 7.16884L4.33736 7.27719C4.33156 7.28299 4.33156 7.29238 4.33736 7.29818C4.34028 7.3011 4.34408 7.30256 4.34788 7.30256C4.35163 7.30256 4.35547 7.3011 4.35839 7.29818L4.46674 7.18984L4.57508 7.29818C4.578 7.3011 4.5818 7.30256 4.5856 7.30256C4.58944 7.30256 4.5932 7.3011 4.59612 7.29818C4.60192 7.29238 4.60192 7.28299 4.59612 7.27719L4.48769 7.16884Z" fill="#73AF00"/>
<path d="M5.65518 7.7031C5.65518 7.60202 5.55965 7.55832 5.47693 7.53933V7.49225C5.36508 7.48173 5.3026 7.43975 5.19418 7.36584C5.1524 7.33733 5.10503 7.30511 5.04781 7.2703C4.83888 7.14339 4.67829 7.12506 4.58559 7.12949V7.22769H4.34791V7.12949C4.25522 7.12506 4.09462 7.14339 3.88569 7.2703C3.82852 7.30507 3.7811 7.33733 3.73933 7.36584C3.63086 7.43971 3.56846 7.48173 3.45657 7.49225V7.53933C3.37381 7.55828 3.27832 7.60197 3.27832 7.7031L3.45657 7.64371V7.67079C3.62522 7.65836 3.72163 7.59367 3.8397 7.51324C3.87973 7.48599 3.92505 7.45507 3.97822 7.4228C4.11394 7.34034 4.21941 7.31479 4.28848 7.30878V7.40603H4.64502V7.30878C4.7141 7.31484 4.81956 7.34034 4.95528 7.4228C5.00854 7.45515 5.05382 7.48599 5.0938 7.51324C5.21183 7.59367 5.30828 7.6584 5.47693 7.67079V7.64371L5.65518 7.7031Z" fill="white"/>
<path d="M5.18015 6.76709V6.69356H5.01462C5.04355 6.66872 5.06133 6.63951 5.06133 6.60445C5.06133 6.44026 4.68779 6.39648 4.4671 6.39648C4.2464 6.39648 3.87287 6.44026 3.87287 6.60445C3.87287 6.63951 3.89065 6.66872 3.91957 6.69356H3.75405V6.76709C3.60856 6.79956 3.48966 6.87761 3.4834 6.88182L3.5493 6.98069C3.55093 6.97961 3.71444 6.87181 3.87287 6.87181V6.81242H5.06133V6.87181C5.21979 6.87181 5.38327 6.97957 5.3849 6.98069L5.4508 6.88182C5.44458 6.87761 5.32564 6.79956 5.18015 6.76709ZM4.70478 6.67711V6.632C4.70478 6.60291 4.67744 6.58158 4.64923 6.58863L4.4671 6.63417L4.28497 6.58863C4.25675 6.58158 4.22942 6.60291 4.22942 6.632V6.67711C4.09591 6.6575 4.01698 6.62486 3.99545 6.60445C4.02758 6.5739 4.18505 6.51535 4.46706 6.51535C4.74906 6.51535 4.90653 6.57398 4.93867 6.60445C4.91721 6.62482 4.83825 6.65745 4.70478 6.67711Z" fill="#3CC8FF"/>
<path d="M4.47455 7.42824L4.48958 7.47336L4.53703 7.47373C4.54319 7.47377 4.54573 7.48166 4.54078 7.48529L4.50261 7.51359L4.51692 7.55896C4.51876 7.56484 4.5121 7.56968 4.5071 7.56609L4.46847 7.53842L4.42984 7.56609C4.42484 7.56968 4.41818 7.5648 4.42001 7.55896L4.43434 7.51359L4.39616 7.48529C4.39121 7.48166 4.39379 7.47377 4.39991 7.47373L4.44736 7.47336L4.46239 7.42824C4.46435 7.42236 4.47255 7.42236 4.47455 7.42824Z" fill="white"/>
<path d="M4.2411 7.44322L4.26075 7.48654L4.308 7.48195C4.31412 7.48137 4.31745 7.48892 4.31295 7.49305L4.27794 7.52519L4.29692 7.5688C4.29942 7.57448 4.29326 7.57999 4.28793 7.57694L4.24664 7.55349L4.21113 7.58508C4.20655 7.58917 4.19939 7.58504 4.2006 7.57899L4.21009 7.53233L4.16917 7.50825C4.16388 7.50512 4.16559 7.49706 4.17171 7.49635L4.21887 7.49101L4.22907 7.44456C4.23032 7.43846 4.23856 7.43759 4.2411 7.44322Z" fill="white"/>
<path d="M4.00202 7.50646L4.03057 7.54449L4.0757 7.52971C4.08153 7.52779 4.08644 7.53447 4.0829 7.53948L4.05568 7.57846L4.08365 7.6169C4.08727 7.62186 4.08248 7.62858 4.07661 7.62679L4.03124 7.61285L4.00339 7.65141C3.99981 7.65638 3.9919 7.65392 3.99182 7.64778L3.99099 7.6002L3.94582 7.58555C3.93999 7.58368 3.93991 7.57537 3.94574 7.57341L3.99061 7.55792L3.99053 7.51035C3.99049 7.50421 3.99835 7.50154 4.00202 7.50646Z" fill="white"/>
<path d="M3.7625 7.6074L3.79581 7.64129L3.83856 7.62067C3.84414 7.618 3.84984 7.62393 3.84701 7.62944L3.82515 7.67167L3.85796 7.70606C3.8622 7.71053 3.85837 7.71779 3.8523 7.71683L3.80542 7.70907L3.7829 7.75097C3.77999 7.75639 3.77187 7.75498 3.77096 7.74888L3.76388 7.7018L3.71717 7.69329C3.71109 7.69221 3.70997 7.68398 3.71546 7.68123L3.75793 7.65994L3.7516 7.61278C3.75077 7.60665 3.75818 7.60302 3.7625 7.6074Z" fill="white"/>
<path d="M4.69502 7.44322L4.67537 7.48654L4.62812 7.48195C4.62201 7.48137 4.61867 7.48892 4.62317 7.49305L4.65818 7.52519L4.6392 7.5688C4.6367 7.57448 4.64286 7.57999 4.64819 7.57694L4.68948 7.55349L4.72499 7.58508C4.72957 7.58917 4.73673 7.58504 4.73552 7.57899L4.72603 7.53233L4.76695 7.50825C4.77224 7.50512 4.77053 7.49706 4.76441 7.49635L4.71725 7.49101L4.70705 7.44456C4.70576 7.43846 4.69752 7.43759 4.69502 7.44322Z" fill="white"/>
<path d="M4.93445 7.50646L4.90589 7.54449L4.86077 7.52971C4.85494 7.52779 4.85003 7.53447 4.85357 7.53948L4.88079 7.57846L4.85282 7.6169C4.8492 7.62186 4.85398 7.62858 4.85985 7.62679L4.90523 7.61285L4.93308 7.65141C4.93666 7.65638 4.94457 7.65392 4.94465 7.64778L4.94548 7.6002L4.99065 7.58555C4.99648 7.58368 4.99656 7.57537 4.99073 7.57341L4.94586 7.55792L4.94594 7.51035C4.94598 7.50421 4.93811 7.50154 4.93445 7.50646Z" fill="white"/>
<path d="M5.1744 7.6074L5.1411 7.64129L5.09835 7.62067C5.09277 7.618 5.08706 7.62393 5.0899 7.62944L5.11175 7.67167L5.07895 7.70606C5.0747 7.71053 5.07853 7.71779 5.08461 7.71683L5.13148 7.70907L5.154 7.75097C5.15692 7.75639 5.16503 7.75498 5.16595 7.74888L5.17303 7.7018L5.21973 7.69329C5.22581 7.69221 5.22693 7.68398 5.22144 7.68123L5.17898 7.65994L5.18531 7.61278C5.1861 7.60665 5.17869 7.60302 5.1744 7.6074Z" fill="white"/>
<path d="M4.05664 8.85352L4.35935 9.05589H4.72516L4.89418 8.91107L4.76418 8.96307H4.33335L4.05664 8.85352Z" fill="#8C5A28"/>
<path d="M4.26235 8.59375L4.23321 8.8884L4.10059 8.83765C4.10059 8.83757 4.16161 8.69558 4.26235 8.59375Z" fill="white"/>
<path d="M4.54407 8.47656H4.52441V8.97822H4.54407V8.47656Z" fill="#8C5A28"/>
<path d="M4.72571 8.51953H4.70605V8.97904H4.72571V8.51953Z" fill="#8C5A28"/>
<path d="M4.36341 8.51953H4.34375V8.97904H4.36341V8.51953Z" fill="#8C5A28"/>
<path d="M4.59447 8.9301H4.47471C4.46226 8.9301 4.45215 8.91996 4.45215 8.90748V8.84684C4.45215 8.83436 4.46226 8.82422 4.47471 8.82422H4.59447C4.60692 8.82422 4.61704 8.83436 4.61704 8.84684V8.90748C4.61704 8.91996 4.60692 8.9301 4.59447 8.9301Z" fill="white"/>
<path d="M4.59447 8.78948H4.47471C4.46226 8.78948 4.45215 8.77934 4.45215 8.76686V8.70622C4.45215 8.69374 4.46226 8.68359 4.47471 8.68359H4.59447C4.60692 8.68359 4.61704 8.69374 4.61704 8.70622V8.76686C4.61704 8.77938 4.60692 8.78948 4.59447 8.78948Z" fill="white"/>
<path d="M4.59447 8.66057H4.47471C4.46226 8.66057 4.45215 8.65043 4.45215 8.63795V8.57731C4.45215 8.56483 4.46226 8.55469 4.47471 8.55469H4.59447C4.60692 8.55469 4.61704 8.56483 4.61704 8.57731V8.63795C4.61704 8.65043 4.60692 8.66057 4.59447 8.66057Z" fill="white"/>
<path d="M4.7656 8.9301H4.66807C4.65562 8.9301 4.64551 8.91996 4.64551 8.90748V8.84684C4.64551 8.83436 4.65562 8.82422 4.66807 8.82422H4.7656C4.77805 8.82422 4.78817 8.83436 4.78817 8.84684V8.90748C4.78817 8.91996 4.77805 8.9301 4.7656 8.9301Z" fill="white"/>
<path d="M4.7656 8.80021H4.66807C4.65562 8.80021 4.64551 8.79007 4.64551 8.77759V8.73356C4.64551 8.72108 4.65562 8.71094 4.66807 8.71094H4.7656C4.77805 8.71094 4.78817 8.72108 4.78817 8.73356V8.77759C4.78817 8.79007 4.77805 8.80021 4.7656 8.80021Z" fill="white"/>
<path d="M4.7656 8.67261H4.66807C4.65562 8.67261 4.64551 8.66247 4.64551 8.64999V8.62028C4.64551 8.6078 4.65562 8.59766 4.66807 8.59766H4.7656C4.77805 8.59766 4.78817 8.6078 4.78817 8.62028V8.64999C4.78817 8.66247 4.77805 8.67261 4.7656 8.67261Z" fill="white"/>
<path d="M4.40232 8.9301H4.30479C4.29234 8.9301 4.28223 8.91996 4.28223 8.90748V8.84684C4.28223 8.83436 4.29234 8.82422 4.30479 8.82422H4.40232C4.41477 8.82422 4.42489 8.83436 4.42489 8.84684V8.90748C4.42484 8.91996 4.41477 8.9301 4.40232 8.9301Z" fill="white"/>
<path d="M4.40232 8.80021H4.30479C4.29234 8.80021 4.28223 8.79007 4.28223 8.77759V8.73356C4.28223 8.72108 4.29234 8.71094 4.30479 8.71094H4.40232C4.41477 8.71094 4.42489 8.72108 4.42489 8.73356V8.77759C4.42484 8.79007 4.41477 8.80021 4.40232 8.80021Z" fill="white"/>
<path d="M4.40232 8.67261H4.30479C4.29234 8.67261 4.28223 8.66247 4.28223 8.64999V8.62028C4.28223 8.6078 4.29234 8.59766 4.30479 8.59766H4.40232C4.41477 8.59766 4.42489 8.6078 4.42489 8.62028V8.64999C4.42484 8.66247 4.41477 8.67261 4.40232 8.67261Z" fill="white"/>
<path d="M4.36328 8.51953V8.57892L4.45041 8.54866L4.36328 8.51953Z" fill="white"/>
<path d="M4.72656 8.51953V8.57892L4.81369 8.54866L4.72656 8.51953Z" fill="white"/>
<path d="M4.54492 8.47656V8.53591L4.63209 8.50565L4.54492 8.47656Z" fill="white"/>
<path d="M4.3125 8.07422L4.41763 8.14454H4.54476L4.60348 8.09421L4.55828 8.11224H4.40862L4.3125 8.07422Z" fill="#8C5A28"/>
<path d="M4.38335 7.98438L4.37323 8.08675L4.32715 8.0691C4.32711 8.0691 4.34834 8.01977 4.38335 7.98438Z" fill="white"/>
<path d="M4.48141 7.94336H4.47461V8.11769H4.48141V7.94336Z" fill="#8C5A28"/>
<path d="M4.54489 7.95898H4.53809V8.11854H4.54489V7.95898Z" fill="#8C5A28"/>
<path d="M4.41891 7.95898H4.41211V8.11854H4.41891V7.95898Z" fill="#8C5A28"/>
<path d="M4.49969 8.10322H4.45806C4.45373 8.10322 4.4502 8.09971 4.4502 8.09533V8.07429C4.4502 8.06995 4.45369 8.06641 4.45806 8.06641H4.49969C4.50402 8.06641 4.50756 8.06991 4.50756 8.07429V8.09533C4.50756 8.09971 4.50406 8.10322 4.49969 8.10322Z" fill="white"/>
<path d="M4.49969 8.05439H4.45806C4.45373 8.05439 4.4502 8.05088 4.4502 8.0465V8.02547C4.4502 8.02113 4.45369 8.01758 4.45806 8.01758H4.49969C4.50402 8.01758 4.50756 8.02108 4.50756 8.02547V8.0465C4.50756 8.05084 4.50406 8.05439 4.49969 8.05439Z" fill="white"/>
<path d="M4.49969 8.00751H4.45806C4.45373 8.00751 4.4502 8.00401 4.4502 7.99963V7.97859C4.4502 7.97425 4.45369 7.9707 4.45806 7.9707H4.49969C4.50402 7.9707 4.50756 7.97421 4.50756 7.97859V7.99963C4.50756 8.00401 4.50406 8.00751 4.49969 8.00751Z" fill="white"/>
<path d="M4.55835 8.10322H4.52447C4.52014 8.10322 4.5166 8.09971 4.5166 8.09533V8.07429C4.5166 8.06995 4.5201 8.06641 4.52447 8.06641H4.55835C4.56268 8.06641 4.56622 8.06991 4.56622 8.07429V8.09533C4.56618 8.09971 4.56264 8.10322 4.55835 8.10322Z" fill="white"/>
<path d="M4.55835 8.05644H4.52447C4.52014 8.05644 4.5166 8.05294 4.5166 8.04855V8.03328C4.5166 8.02894 4.5201 8.02539 4.52447 8.02539H4.55835C4.56268 8.02539 4.56622 8.0289 4.56622 8.03328V8.04855C4.56618 8.05298 4.56264 8.05644 4.55835 8.05644Z" fill="white"/>
<path d="M4.55835 8.01241H4.52447C4.52014 8.01241 4.5166 8.00891 4.5166 8.00452V7.99422C4.5166 7.98988 4.5201 7.98633 4.52447 7.98633H4.55835C4.56268 7.98633 4.56622 7.98983 4.56622 7.99422V8.00452C4.56618 8.00895 4.56264 8.01241 4.55835 8.01241Z" fill="white"/>
<path d="M4.43238 8.10322H4.39849C4.39416 8.10322 4.39062 8.09971 4.39062 8.09533V8.07429C4.39062 8.06995 4.39412 8.06641 4.39849 8.06641H4.43238C4.43671 8.06641 4.44025 8.06991 4.44025 8.07429V8.09533C4.4402 8.09971 4.43671 8.10322 4.43238 8.10322Z" fill="white"/>
<path d="M4.43238 8.05644H4.39849C4.39416 8.05644 4.39062 8.05294 4.39062 8.04855V8.03328C4.39062 8.02894 4.39412 8.02539 4.39849 8.02539H4.43238C4.43671 8.02539 4.44025 8.0289 4.44025 8.03328V8.04855C4.4402 8.05298 4.43671 8.05644 4.43238 8.05644Z" fill="white"/>
<path d="M4.43238 8.01241H4.39849C4.39416 8.01241 4.39062 8.00891 4.39062 8.00452V7.99422C4.39062 7.98988 4.39412 7.98633 4.39849 7.98633H4.43238C4.43671 7.98633 4.44025 7.98983 4.44025 7.99422V8.00452C4.4402 8.00895 4.43671 8.01241 4.43238 8.01241Z" fill="white"/>
<path d="M4.41895 7.95898V7.9796L4.44921 7.96913L4.41895 7.95898Z" fill="white"/>
<path d="M4.54492 7.95898V7.9796L4.57518 7.96913L4.54492 7.95898Z" fill="white"/>
<path d="M4.48242 7.94531V7.96589L4.51269 7.95537L4.48242 7.94531Z" fill="white"/>
<path d="M4.23806 7.76328H4.16093C4.13314 7.76328 4.11035 7.74053 4.11035 7.71269C4.11035 7.6849 4.1331 7.66211 4.16093 7.66211H4.23806C4.26586 7.66211 4.28864 7.68486 4.28864 7.71269C4.28869 7.74053 4.2659 7.76328 4.23806 7.76328Z" fill="white"/>
<path d="M4.82385 7.76327H4.77311C4.74526 7.76327 4.72266 7.74061 4.72266 7.71269C4.72266 7.68477 4.74526 7.66211 4.77311 7.66211H4.82385C4.8517 7.66211 4.87431 7.68477 4.87431 7.71269C4.87427 7.74061 4.85166 7.76327 4.82385 7.76327Z" fill="white"/>
<path d="M5.18586 7.83999H5.14115C5.12521 7.83999 5.1123 7.82705 5.1123 7.81107V7.80627C5.1123 7.79028 5.12521 7.77734 5.14115 7.77734H5.18586C5.2018 7.77734 5.21471 7.79028 5.21471 7.80627V7.81107C5.21471 7.82705 5.2018 7.83999 5.18586 7.83999Z" fill="white"/>
</g>
<defs>
<clipPath id="clip0_5367_192406">
<rect x="15" y="1" width="14" height="14" rx="2" transform="rotate(90 15 1)" fill="white"/>
</clipPath>
</defs>
</svg>
