<svg width="16" height="16" viewBox="0 0 16 16" fill="none" xmlns="http://www.w3.org/2000/svg">
<g clip-path="url(#clip0_5367_192383)">
<rect x="15" y="0.826172" width="14" height="14" rx="2" transform="rotate(90 15 0.826172)" fill="#41479B"/>
<path d="M1.10175 14.8262L9 7.82617L1.10175 0.826172C1.04097 0.894612 1 0.993784 1 1.10911V14.5432C1 14.6586 1.04097 14.7577 1.10175 14.8262Z" fill="white"/>
<path d="M3.89754 8.72086C4.3927 8.72086 4.7941 8.31946 4.7941 7.8243C4.7941 7.32914 4.3927 6.92773 3.89754 6.92773C3.40238 6.92773 3.00098 7.32914 3.00098 7.8243C3.00098 8.31946 3.40238 8.72086 3.89754 8.72086Z" fill="#F8CB32"/>
<path d="M3.89677 7.82434L3.56055 6.47953L3.89677 6.03125L4.23295 6.47953L3.89677 7.82434Z" fill="#F8CB32"/>
<path d="M3.89677 7.82422L4.23295 9.16903L3.89677 9.61731L3.56055 9.16903L3.89677 7.82422Z" fill="#F8CB32"/>
<path d="M3.89664 7.8245L2.5518 8.16072L2.10352 7.8245L2.5518 7.48828L3.89664 7.8245Z" fill="#F8CB32"/>
<path d="M3.89746 7.8245L5.24227 7.48828L5.69055 7.8245L5.24227 8.16072L3.89746 7.8245Z" fill="#F8CB32"/>
<path d="M3.89746 7.82458L4.61065 6.63592L5.16537 6.55664L5.08612 7.11136L3.89746 7.82458Z" fill="#F8CB32"/>
<path d="M3.89684 7.82422L3.18362 9.01287L2.62891 9.09216L2.70819 8.53744L3.89684 7.82422Z" fill="#F8CB32"/>
<path d="M3.89684 7.82458L2.70819 7.11136L2.62891 6.55664L3.18362 6.63592L3.89684 7.82458Z" fill="#F8CB32"/>
<path d="M3.89746 7.82422L5.08612 8.53744L5.16537 9.09216L4.61065 9.01287L3.89746 7.82422Z" fill="#F8CB32"/>
<path d="M1.7397 3.9406L1.78645 4.28935L1.47157 4.44647C1.43082 4.46682 1.43938 4.52735 1.48423 4.53554L1.83035 4.59885L1.88248 4.94685C1.88923 4.99191 1.94945 5.00244 1.9711 4.96232L2.13829 4.65269L2.48535 4.71063C2.53029 4.71816 2.55892 4.6641 2.52748 4.63116L2.28467 4.37647L2.44701 4.06429C2.46804 4.02388 2.42548 3.97994 2.38442 3.99966L2.06717 4.15191L1.82045 3.901C1.78857 3.86857 1.73367 3.89547 1.7397 3.9406Z" fill="#F8CB32"/>
<path d="M1.87883 10.729L1.81976 11.0759L1.47245 11.1323C1.42748 11.1396 1.4177 11.1999 1.45804 11.221L1.7697 11.3844L1.71604 11.7321C1.70911 11.7772 1.76345 11.8051 1.79604 11.7733L2.0477 11.5273L2.36189 11.6859C2.40258 11.7064 2.44595 11.6633 2.42576 11.6225L2.26964 11.3071L2.51745 11.0574C2.54951 11.025 2.52201 10.9705 2.47689 10.977L2.1287 11.0281L1.9677 10.7152C1.94686 10.6747 1.88642 10.684 1.87883 10.729Z" fill="#F8CB32"/>
<path d="M7.33561 7.31123L7.13308 7.59898L6.79526 7.50055C6.75155 7.4878 6.71673 7.53808 6.74405 7.57452L6.95514 7.85605L6.75711 8.14692C6.73148 8.18458 6.76851 8.2332 6.81164 8.21848L7.14461 8.10473L7.36005 8.38295C7.38795 8.41898 7.44564 8.39873 7.44495 8.3532L7.43964 8.00139L7.77083 7.88245C7.8137 7.86705 7.8123 7.80592 7.76876 7.79251L7.43248 7.68883L7.42173 7.33711C7.42042 7.29152 7.36183 7.27395 7.33561 7.31123Z" fill="#F8CB32"/>
<path d="M1.24139 0.826172H14.7586C14.8919 0.826172 15 0.925159 15 1.04723V3.62617H1V1.04723C1 0.925159 1.10809 0.826172 1.24139 0.826172Z" fill="#41479B"/>
<path d="M15 3.62695H1V6.42695H15V3.62695Z" fill="white"/>
<path d="M15 6.42578H1V9.22578H15V6.42578Z" fill="#41479B"/>
<path d="M15 9.22656H1V12.0266H15V9.22656Z" fill="white"/>
<path d="M1 12.0254H15V14.6043C15 14.7264 14.8919 14.8254 14.7586 14.8254H1.24139C1.10809 14.8254 1 14.7264 1 14.6043V12.0254Z" fill="#41479B"/>
<path d="M1.10175 14.8262L9 7.82617L1.10175 0.826172C1.04097 0.894612 1 0.993784 1 1.10911V14.5432C1 14.6586 1.04097 14.7577 1.10175 14.8262Z" fill="#FF334B"/>
<path d="M4.09338 6.43345L4.38129 7.29666L5.29123 7.30373C5.40901 7.30463 5.45788 7.45497 5.36313 7.52497L4.63113 8.06554L4.9056 8.93313C4.94116 9.04544 4.81326 9.13838 4.71738 9.06985L3.97707 8.54072L3.23676 9.06985C3.14095 9.13838 3.01304 9.04544 3.04854 8.93313L3.32301 8.06554L2.59101 7.52497C2.49626 7.45497 2.54508 7.30466 2.66292 7.30373L3.57285 7.29666L3.86076 6.43345C3.89804 6.32166 4.0561 6.32166 4.09338 6.43345Z" fill="white"/>
</g>
<defs>
<clipPath id="clip0_5367_192383">
<rect x="15" y="0.826172" width="14" height="14" rx="2" transform="rotate(90 15 0.826172)" fill="white"/>
</clipPath>
</defs>
</svg>
