<svg width="16" height="16" viewBox="0 0 16 16" fill="none" xmlns="http://www.w3.org/2000/svg">
<g clip-path="url(#clip0_5367_192366)">
<rect x="15" y="1" width="14" height="14" rx="2" transform="rotate(90 15 1)" fill="#41479B"/>
<path d="M19.0623 8.71875H-1.1875V9.64977H19.0623V8.71875Z" fill="white"/>
<path d="M19.0623 10.582H-1.1875V11.513H19.0623V10.582Z" fill="white"/>
<path d="M19.0623 9.64844H-1.1875V10.5795H19.0623V9.64844Z" fill="#FF334B"/>
<path d="M5.52253 6.82725L5.62963 7.14832L5.96806 7.15093C5.99429 7.15117 6.00516 7.18459 5.98408 7.20017L5.71182 7.40125L5.8139 7.72394C5.82181 7.74893 5.79333 7.76962 5.77201 7.75435L5.49662 7.55751L5.22123 7.75435C5.19988 7.76958 5.17144 7.74893 5.17935 7.72394L5.28143 7.40125L5.00917 7.20017C4.98809 7.18459 4.99896 7.15113 5.02518 7.15093L5.36362 7.14832L5.47072 6.82725C5.47902 6.80237 5.51426 6.80237 5.52253 6.82725Z" fill="#F8CB32"/>
<path d="M5.52253 12.4698L5.62963 12.7909L5.96806 12.7935C5.99429 12.7937 6.00516 12.8272 5.98408 12.8428L5.71182 13.0438L5.8139 13.3665C5.82181 13.3915 5.79333 13.4122 5.77201 13.3969L5.49662 13.2001L5.22123 13.3969C5.19988 13.4122 5.17144 13.3915 5.17935 13.3665L5.28143 13.0438L5.00917 12.8428C4.98809 12.8272 4.99896 12.7937 5.02518 12.7935L5.36362 12.7909L5.47072 12.4698C5.47902 12.445 5.51426 12.445 5.52253 12.4698Z" fill="#F8CB32"/>
<path d="M3.69043 12.7842L3.96258 12.5829L4.24105 12.7753C4.26261 12.7902 4.29077 12.7691 4.28246 12.7442L4.1752 12.4231L4.44422 12.2177C4.46507 12.2018 4.45364 12.1685 4.42741 12.1688L4.08898 12.1716L3.97674 11.8522C3.96804 11.8275 3.93288 11.8281 3.92497 11.8531L3.82304 12.1758L3.48469 12.1839C3.45847 12.1845 3.44815 12.2182 3.4695 12.2334L3.74497 12.43L3.64807 12.7543C3.64056 12.7795 3.66931 12.7998 3.69043 12.7842Z" fill="#F8CB32"/>
<path d="M4.23482 8.19825L3.95848 8.00283L3.68412 8.20105C3.66288 8.2164 3.63429 8.19587 3.64208 8.1708L3.74254 7.84759L3.46925 7.6479C3.44809 7.63244 3.45876 7.59894 3.48499 7.59858L3.82342 7.59427L3.9289 7.27269C3.93705 7.24777 3.97225 7.24761 3.98067 7.27241L4.0894 7.59297L4.42787 7.59388C4.45409 7.59396 4.46513 7.62734 4.44408 7.643L4.17281 7.84542L4.27655 8.16763C4.28462 8.19251 4.25626 8.21335 4.23482 8.19825Z" fill="#F8CB32"/>
<path d="M6.78418 8.20213L7.05633 8.00089L7.3348 8.19327C7.35636 8.20814 7.38452 8.18702 7.37621 8.16214L7.26895 7.84111L7.53797 7.63569C7.55882 7.61975 7.54739 7.58648 7.52116 7.58672L7.18273 7.58953L7.07049 7.2702C7.06179 7.24544 7.02663 7.24603 7.01872 7.27103L6.91679 7.5938L6.57844 7.60187C6.55222 7.60246 6.5419 7.63612 6.56325 7.65135L6.83872 7.84799L6.74182 8.17231C6.73431 8.19746 6.7631 8.21775 6.78418 8.20213Z" fill="#F8CB32"/>
<path d="M7.32857 12.7803L7.05223 12.5849L6.77787 12.7831C6.75663 12.7984 6.72804 12.7779 6.73583 12.7528L6.83629 12.4296L6.563 12.2299C6.54184 12.2145 6.55251 12.181 6.57874 12.1806L6.91717 12.1763L7.02265 11.8547C7.0308 11.8298 7.066 11.8296 7.07442 11.8544L7.18315 12.175L7.52162 12.1759C7.54784 12.176 7.55887 12.2094 7.53783 12.225L7.26656 12.4274L7.3703 12.7497C7.37833 12.7747 7.34997 12.7955 7.32857 12.7803Z" fill="#F8CB32"/>
<path d="M3.28591 10.8082L2.94747 10.8104L2.83578 10.4909C2.82716 10.4662 2.79196 10.4667 2.78401 10.4917L2.68154 10.8143L2.34314 10.8218C2.31692 10.8224 2.30652 10.856 2.32788 10.8713L2.60303 11.0684L2.50558 11.3925C2.49802 11.4176 2.52678 11.4379 2.5479 11.4224L2.8204 11.2216L3.09856 11.4144C3.12011 11.4294 3.14827 11.4083 3.14001 11.3834L3.03326 11.0622L3.3026 10.8573C3.32348 10.8413 3.31213 10.808 3.28591 10.8082Z" fill="#F8CB32"/>
<path d="M2.34321 9.06826L2.6816 9.0619L2.7851 8.73964C2.79313 8.71468 2.82829 8.71429 2.83688 8.73909L2.94754 9.05893L3.28601 9.05778C3.31223 9.0577 3.3235 9.09104 3.30254 9.10683L3.03253 9.31091L3.13825 9.63245C3.14644 9.65737 3.11824 9.67837 3.09672 9.66334L2.8192 9.46962L2.54606 9.66951C2.5249 9.68501 2.49623 9.66461 2.50382 9.63953L2.6023 9.31569L2.32778 9.1177C2.3065 9.10236 2.31703 9.06874 2.34321 9.06826Z" fill="#F8CB32"/>
<path d="M8.64919 9.05628L8.31076 9.05849L8.19906 8.739C8.19044 8.71424 8.15524 8.71472 8.14729 8.73975L8.04482 9.06237L7.70642 9.06988C7.6802 9.07044 7.6698 9.10409 7.69116 9.11936L7.96631 9.31648L7.86886 9.6406C7.8613 9.66567 7.89006 9.686 7.91118 9.67046L8.18368 9.4697L8.46184 9.66255C8.48339 9.67746 8.51155 9.65638 8.50329 9.6315L8.39658 9.31031L8.66592 9.10536C8.68676 9.08942 8.67541 9.05608 8.64919 9.05628Z" fill="#F8CB32"/>
<path d="M7.7065 10.8202L8.04489 10.8138L8.1484 10.4916C8.15642 10.4666 8.19158 10.4662 8.20017 10.491L8.31083 10.8109L8.6493 10.8097C8.67552 10.8097 8.6868 10.843 8.66583 10.8588L8.39582 11.0629L8.50154 11.3844C8.50973 11.4093 8.48153 11.4303 8.46001 11.4153L8.18249 11.2216L7.90935 11.4215C7.88819 11.437 7.85952 11.4166 7.86711 11.3915L7.96559 11.0676L7.69107 10.8697C7.6698 10.8543 7.68028 10.8208 7.7065 10.8202Z" fill="#F8CB32"/>
</g>
<defs>
<clipPath id="clip0_5367_192366">
<rect x="15" y="1" width="14" height="14" rx="2" transform="rotate(90 15 1)" fill="white"/>
</clipPath>
</defs>
</svg>
