<svg width="16" height="16" viewBox="0 0 16 16" fill="none" xmlns="http://www.w3.org/2000/svg">
<g clip-path="url(#clip0_5367_192360)">
<rect x="15" y="0.826172" width="14" height="14" rx="2" transform="rotate(90 15 0.826172)" fill="#41479B"/>
<path d="M16 9.93164H0V11.311H16V9.93164Z" fill="#F8CB32"/>
<path d="M5.46696 3.83977L5.19562 4.65333L4.33802 4.65999C4.25577 4.66062 4.22168 4.76558 4.28784 4.81443L4.97774 5.32386L4.71905 6.14152C4.69427 6.21992 4.78352 6.2848 4.85043 6.23695L5.54815 5.73827L6.24586 6.23695C6.31277 6.28477 6.40205 6.21992 6.37724 6.14152L6.11855 5.32386L6.80846 4.81443C6.87465 4.76555 6.84052 4.66065 6.75827 4.65999L5.90068 4.65333L5.62933 3.83977C5.60333 3.76174 5.49299 3.76174 5.46696 3.83977Z" fill="white"/>
<path d="M3.51222 2.33855L3.35519 2.80946L2.85882 2.81333C2.81122 2.81371 2.79147 2.87443 2.82979 2.90271L3.2291 3.19758L3.07938 3.67086C3.06504 3.71624 3.11669 3.7538 3.15541 3.72611L3.55922 3.43746L3.96303 3.72611C4.00175 3.7538 4.05344 3.71624 4.03906 3.67086L3.88935 3.19758L4.28866 2.90271C4.32694 2.87443 4.30722 2.81368 4.25963 2.81333L3.76325 2.80946L3.60622 2.33855C3.59116 2.2934 3.52728 2.2934 3.51222 2.33855Z" fill="white"/>
</g>
<defs>
<clipPath id="clip0_5367_192360">
<rect x="15" y="0.826172" width="14" height="14" rx="2" transform="rotate(90 15 0.826172)" fill="white"/>
</clipPath>
</defs>
</svg>
