<svg width="16" height="16" viewBox="0 0 16 16" fill="none" xmlns="http://www.w3.org/2000/svg">
<g clip-path="url(#clip0_5367_192348)">
<rect x="14.8047" y="15.1191" width="14" height="14" rx="2" transform="rotate(180 14.8047 15.1191)" fill="#41479B"/>
<path d="M14.7151 15.1191C14.7686 15.0511 14.8047 14.9526 14.8047 14.838V1.48994C14.8047 1.28518 14.6959 1.11914 14.5618 1.11914H0.957994C0.898938 1.11914 0.846791 1.15526 0.804688 1.20877L14.7151 15.1191Z" fill="#73AF00"/>
<path d="M7.80457 9.77515C8.71868 9.77515 9.45972 9.03411 9.45972 8.12C9.45972 7.20588 8.71868 6.46484 7.80457 6.46484C6.89045 6.46484 6.14941 7.20588 6.14941 8.12C6.14941 9.03411 6.89045 9.77515 7.80457 9.77515Z" fill="#F8CB32"/>
<path d="M6.82262 7.40667C6.75493 7.39089 6.6869 7.56502 6.76231 7.62533C6.83771 7.68564 6.97343 7.79873 6.8905 7.86661C6.80756 7.93448 6.7774 7.94202 6.76231 8.02495C6.74725 8.10789 6.76231 8.12298 6.69443 8.16067C6.62656 8.19836 6.46822 8.27377 6.53609 8.3492C6.60397 8.42464 6.69443 8.37939 6.75475 8.25873C6.75475 8.25873 7.177 8.24367 7.19209 8.2738C7.20715 8.30398 7.24487 8.41708 7.33537 8.38689C7.42584 8.3567 7.42584 8.3567 7.42584 8.3567C7.42584 8.3567 7.47862 8.33408 7.51631 8.37933C7.55399 8.42458 7.64449 8.43964 7.75006 8.43964C7.85562 8.43964 7.94609 8.49995 7.93859 8.64323C7.93378 8.73501 7.91034 8.92583 7.89418 9.05111C7.88553 9.11817 7.93153 9.17992 7.99824 9.19104L8.19131 9.22323C8.24209 9.23167 8.28931 9.19545 8.29384 9.14417C8.3029 9.04104 8.31606 8.88989 8.31562 8.88454C8.31127 8.83033 8.42118 8.5528 8.41365 8.42458C8.40609 8.29639 8.40609 8.29639 8.40609 8.29639C8.40609 8.29639 8.51918 8.28133 8.56443 8.20592C8.60968 8.13051 8.70771 7.94202 8.90374 7.87417L8.95652 7.74598C8.95652 7.74598 8.80574 7.67811 8.83587 7.63289C8.86605 7.58764 8.88112 7.46698 8.85849 7.36899C8.83587 7.27099 8.82831 7.13524 8.82831 7.13524C8.82831 7.13524 8.77456 7.11252 8.76321 7.14377C8.75187 7.17502 8.74049 7.19202 8.71212 7.18636C8.68374 7.18067 8.64115 7.17783 8.62981 7.1523C8.61846 7.12674 8.58721 7.1012 8.55884 7.11539C8.53046 7.12961 8.48218 7.31977 8.41409 7.33964C8.41409 7.33964 8.4084 7.25733 8.36584 7.27436C8.32327 7.29139 8.32609 7.33111 8.32043 7.40208C8.31477 7.47305 7.83784 7.95277 7.42056 7.82505C7.42056 7.82505 7.37515 7.73423 7.28146 7.74273C7.18778 7.75127 7.09693 7.74842 7.04303 7.68311C6.98906 7.6178 6.90315 7.42552 6.82262 7.40667Z" fill="#73AF00"/>
<path d="M2.00998 9.90899L2.09169 10.116L2.30447 10.0508C2.31631 10.0472 2.32642 10.0599 2.32028 10.0707L2.20939 10.2636L2.39298 10.3893C2.4032 10.3963 2.39957 10.4121 2.38733 10.414L2.16736 10.4476L2.18354 10.6696C2.18445 10.6819 2.16978 10.689 2.16071 10.6806L1.99731 10.5295L1.8339 10.6806C1.82483 10.689 1.81016 10.6819 1.81107 10.6696L1.82726 10.4476L1.60729 10.414C1.59507 10.4122 1.59144 10.3963 1.60163 10.3893L1.78523 10.2636L1.67433 10.0707C1.66817 10.0599 1.67831 10.0472 1.69015 10.0508L1.90292 10.116L1.98464 9.90899C1.98915 9.89752 2.00542 9.89752 2.00998 9.90899Z" fill="white"/>
<path d="M4.98556 9.35044L5.06728 9.55742L5.28005 9.49227C5.29189 9.48864 5.302 9.50136 5.29587 9.51211L5.18497 9.70504L5.36857 9.83076C5.37878 9.83775 5.37516 9.85359 5.36292 9.85549L5.14294 9.88909L5.15913 10.111C5.16004 10.1233 5.14537 10.1304 5.1363 10.122L4.97289 9.97099L4.80949 10.122C4.80039 10.1304 4.78575 10.1234 4.78666 10.111L4.80285 9.88909L4.58287 9.85549C4.57066 9.85362 4.56703 9.83775 4.57722 9.83076L4.76081 9.70504L4.64992 9.51211C4.64376 9.50139 4.65389 9.48867 4.66574 9.49227L4.87851 9.55742L4.96023 9.35044C4.96476 9.33892 4.98103 9.33892 4.98556 9.35044Z" fill="white"/>
<path d="M3.49826 8.00862L3.57997 8.21561L3.79275 8.15045C3.80459 8.14683 3.8147 8.15955 3.80856 8.17029L3.69767 8.36323L3.88126 8.48895C3.89148 8.49593 3.88785 8.51178 3.87561 8.51367L3.65564 8.54727L3.67183 8.7692C3.67273 8.78152 3.65806 8.78858 3.649 8.78021L3.48559 8.62918L3.32218 8.78021C3.31311 8.78858 3.29845 8.78154 3.29935 8.7692L3.31554 8.54727L3.09557 8.51367C3.08335 8.5118 3.07973 8.49593 3.08991 8.48895L3.27351 8.36323L3.16262 8.17029C3.15645 8.15957 3.16659 8.14685 3.17843 8.15045L3.3912 8.21561L3.47292 8.00862C3.47745 7.99713 3.49372 7.99713 3.49826 8.00862Z" fill="white"/>
<path d="M3.49826 12.8836L3.57997 13.0906L3.79275 13.0255C3.80459 13.0218 3.8147 13.0345 3.80856 13.0453L3.69767 13.2382L3.88126 13.3639C3.89148 13.3709 3.88785 13.3868 3.87561 13.3887L3.65564 13.4223L3.67183 13.6442C3.67273 13.6565 3.65806 13.6636 3.649 13.6552L3.48559 13.5042L3.32218 13.6552C3.31311 13.6636 3.29845 13.6565 3.29935 13.6442L3.31554 13.4223L3.09557 13.3887C3.08335 13.3868 3.07973 13.3709 3.08991 13.3639L3.27351 13.2382L3.16262 13.0453C3.15645 13.0346 3.16659 13.0219 3.17843 13.0255L3.3912 13.0906L3.47292 12.8836C3.47745 12.8721 3.49372 12.8721 3.49826 12.8836Z" fill="white"/>
<path d="M4.10653 10.0959L4.16355 10.2669L4.34387 10.2683C4.35784 10.2684 4.3636 10.2862 4.3524 10.2945L4.20734 10.4016L4.26172 10.5735C4.26594 10.5869 4.25079 10.5979 4.23943 10.5897L4.09274 10.4849L3.94606 10.5897C3.9347 10.5979 3.91955 10.5869 3.92376 10.5735L3.97814 10.4016L3.83308 10.2945C3.82183 10.2862 3.82764 10.2684 3.84162 10.2683L4.02193 10.2669L4.07895 10.0959C4.08338 10.0826 4.1021 10.0826 4.10653 10.0959Z" fill="white"/>
<path d="M9.46887 5.88837C9.57129 5.99721 10.6967 6.30368 11.8342 5.70781C12.9718 5.11195 13.6489 4.94045 13.6489 4.94045C13.6489 4.94045 13.6579 4.78697 13.7978 4.76442C13.9377 4.74184 13.8701 4.68317 13.834 4.63804C13.7978 4.59292 13.6218 4.47103 13.3825 4.57485C13.3825 4.57485 13.1042 4.58538 13.0621 4.20019C13.0199 3.81499 13.0019 3.42376 12.9056 3.25526C12.8093 3.08674 12.0148 2.24414 11.9185 2.31034C11.8222 2.37654 12.1593 3.21314 12.4722 3.50808C12.4722 3.50808 12.5445 4.02571 12.4542 4.04976C12.3639 4.07384 11.8644 3.61641 10.9736 3.50808C10.9736 3.50808 11.3528 4.02571 11.8162 4.24239C12.2796 4.45906 12.406 4.65769 12.394 4.74194C12.382 4.82619 12.2255 5.22946 11.9667 5.41605C11.7079 5.60262 11.0579 6.10818 9.58326 5.84337C9.58323 5.84325 9.42074 5.83724 9.46887 5.88837Z" fill="#F8CB32"/>
</g>
<defs>
<clipPath id="clip0_5367_192348">
<rect x="14.8047" y="15.1191" width="14" height="14" rx="2" transform="rotate(180 14.8047 15.1191)" fill="white"/>
</clipPath>
</defs>
</svg>
