<svg width="16" height="16" viewBox="0 0 16 16" fill="none" xmlns="http://www.w3.org/2000/svg">
<g clip-path="url(#clip0_5367_192299)">
<rect x="15" y="1" width="14" height="14" rx="2" transform="rotate(90 15 1)" fill="#73AF00"/>
<path d="M16 6.89648H0V7.63211H16V6.89648Z" fill="#F8CB32"/>
<path d="M16 7.63281H0V8.36844H16V7.63281Z" fill="#464655"/>
<path d="M16 8.36719H0V9.10281H16V8.36719Z" fill="white"/>
<path d="M7.63211 1H6.89648V15H7.63211V1Z" fill="#F8CB32"/>
<path d="M8.36746 1H7.63184V15H8.36746V1Z" fill="#464655"/>
<path d="M9.10379 1H8.36816V15H9.10379V1Z" fill="white"/>
<path d="M7.99996 10.7577C9.52357 10.7577 10.7587 9.52259 10.7587 7.99898C10.7587 6.47537 9.52357 5.24023 7.99996 5.24023C6.47634 5.24023 5.24121 6.47537 5.24121 7.99898C5.24121 9.52259 6.47634 10.7577 7.99996 10.7577Z" fill="#FF334B"/>
<path d="M7.76338 8.47461C7.76338 8.47461 7.73116 8.70014 7.95026 9.03517H8.37551L8.27885 8.62927L7.76338 8.47461Z" fill="#73AF00"/>
<path d="M7.73322 6.96448C7.73322 6.96448 7.0374 8.10276 8.05965 8.78142L8.16703 8.13711L8.23575 7.3038L8.12837 6.94727L7.73322 6.96448Z" fill="#A561CD"/>
<path d="M7.7333 6.96448C7.7333 6.96448 7.65377 7.09689 7.58789 7.29611C7.67745 7.38973 7.9223 7.50573 8.22336 7.45486L8.23583 7.3038L8.12842 6.94727L7.7333 6.96448Z" fill="#73AF00"/>
<path d="M7.59961 6.80187C7.59961 6.80187 7.60817 6.57422 7.83158 6.57422C8.1108 6.57422 8.33845 6.63862 8.69923 7.38603C8.69923 7.38603 8.37833 7.70103 8.1752 7.26575C8.11508 7.13687 8.09358 6.98228 8.09358 6.98228C8.09358 6.98228 7.84445 7.06819 7.67264 6.96937L7.59961 6.80187Z" fill="#A561CD"/>
<path d="M7.71136 6.90912L7.6598 6.77169C7.6598 6.77169 7.37202 6.72444 7.49227 7.07237C7.49227 7.07237 7.50086 7.00366 7.57389 7.01225C7.64695 7.02081 7.72424 6.96497 7.71136 6.90912Z" fill="#F8CB32"/>
<path d="M8.19257 8.21484C8.19257 8.21484 7.88979 8.45212 8.05944 9.00947C8.14966 9.30584 8.51044 9.63122 8.51044 9.63122C8.51044 9.63122 8.77782 8.93216 8.69085 8.66156C8.63966 8.50228 8.19257 8.21484 8.19257 8.21484Z" fill="#73AF00"/>
<path d="M8.76833 9.11305C8.76833 9.11305 7.98658 8.3678 7.93502 7.78149C7.88345 7.19518 8.22155 7.28824 8.28295 7.32618C8.42898 7.41637 8.79839 7.79436 8.76833 9.11305Z" fill="#73AF00"/>
<path d="M8.67112 9.28316H7.37681C7.34991 9.28316 7.32812 9.26137 7.32812 9.23447V9.13853C7.32812 9.11162 7.34991 9.08984 7.37681 9.08984H8.67112C8.69803 9.08984 8.71981 9.11162 8.71981 9.13853V9.23447C8.71978 9.26134 8.698 9.28316 8.67112 9.28316Z" fill="#B34900"/>
<path d="M8.35556 9.09958C8.31049 9.1183 8.22024 9.14148 8.24281 9.22198C8.26009 9.28367 8.37812 9.27673 8.35556 9.34764C8.34031 9.39555 8.10059 9.39995 8.00762 9.3863C7.95068 9.37792 7.82721 9.34439 7.8444 9.20267C7.86159 9.06092 7.91312 9.03911 7.97759 9.01367C8.04149 8.98842 8.32102 8.99402 8.36202 9.0287C8.38293 9.04642 8.38968 9.08542 8.35556 9.09958Z" fill="#F8CB32"/>
<path d="M8.02504 5.53586L8.08782 5.72414L8.28626 5.7257C8.31195 5.72592 8.3226 5.7587 8.30195 5.77395L8.14229 5.89186L8.20217 6.08108C8.20992 6.10555 8.18204 6.12583 8.16114 6.11089L7.99967 5.99548L7.83823 6.11089C7.81732 6.12583 7.78945 6.10558 7.7972 6.08108L7.85707 5.89186L7.69742 5.77395C7.67676 5.75867 7.68742 5.72589 7.71311 5.7257L7.91154 5.72414L7.97432 5.53586C7.98242 5.51148 8.01689 5.51148 8.02504 5.53586Z" fill="#73AF00"/>
<path d="M8.02504 9.9382L8.08782 10.1265L8.28626 10.128C8.31195 10.1283 8.3226 10.161 8.30195 10.1763L8.14229 10.2942L8.20217 10.4834C8.20992 10.5079 8.18204 10.5282 8.16114 10.5132L7.99967 10.3978L7.83823 10.5132C7.81732 10.5282 7.78945 10.5079 7.7972 10.4834L7.85707 10.2942L7.69742 10.1763C7.67676 10.161 7.68742 10.1282 7.71311 10.128L7.91154 10.1265L7.97432 9.9382C7.98242 9.91383 8.01689 9.91383 8.02504 9.9382Z" fill="#73AF00"/>
<path d="M8.02504 5.53586L8.08782 5.72414L8.28626 5.7257C8.31195 5.72592 8.3226 5.7587 8.30195 5.77395L8.14229 5.89186L8.20217 6.08108C8.20992 6.10555 8.18204 6.12583 8.16114 6.11089L7.99967 5.99548L7.83823 6.11089C7.81732 6.12583 7.78945 6.10558 7.7972 6.08108L7.85707 5.89186L7.69742 5.77395C7.67676 5.75867 7.68742 5.72589 7.71311 5.7257L7.91154 5.72414L7.97432 5.53586C7.98242 5.51148 8.01689 5.51148 8.02504 5.53586Z" fill="#73AF00"/>
<path d="M8.02504 9.9382L8.08782 10.1265L8.28626 10.128C8.31195 10.1283 8.3226 10.161 8.30195 10.1763L8.14229 10.2942L8.20217 10.4834C8.20992 10.5079 8.18204 10.5282 8.16114 10.5132L7.99967 10.3978L7.83823 10.5132C7.81732 10.5282 7.78945 10.5079 7.7972 10.4834L7.85707 10.2942L7.69742 10.1763C7.67676 10.161 7.68742 10.1282 7.71311 10.128L7.91154 10.1265L7.97432 9.9382C7.98242 9.91383 8.01689 9.91383 8.02504 9.9382Z" fill="#73AF00"/>
<path d="M6.49116 5.98739L6.54616 6.17808L6.38353 6.29183C6.36247 6.30655 6.37228 6.33961 6.39797 6.34046L6.59631 6.34708L6.65428 6.53689C6.66181 6.56149 6.69625 6.56233 6.705 6.53821L6.77259 6.35161L6.97103 6.35517C6.99672 6.35561 7.00822 6.32314 6.98794 6.30736L6.83134 6.18542L6.896 5.99774C6.90437 5.97346 6.877 5.95246 6.85572 5.96686L6.69137 6.07811L6.53294 5.95864C6.51241 5.94314 6.484 5.96271 6.49116 5.98739Z" fill="#73AF00"/>
<path d="M8.98627 9.6143L9.04127 9.80499L8.87865 9.91874C8.85759 9.93346 8.8674 9.96652 8.89309 9.96737L9.09143 9.97399L9.1494 10.1638C9.15693 10.1884 9.19137 10.1892 9.20012 10.1651L9.26771 9.97852L9.46615 9.98208C9.49184 9.98252 9.50334 9.95005 9.48305 9.93427L9.32646 9.81233L9.39115 9.62471C9.39952 9.60043 9.37215 9.57943 9.35087 9.59383L9.18652 9.70508L9.02809 9.58562C9.00759 9.57008 8.97918 9.58965 8.98627 9.6143Z" fill="#73AF00"/>
<path d="M5.55854 7.25132L5.71697 7.37079L5.65522 7.55941C5.64722 7.58382 5.67491 7.60438 5.69597 7.58966L5.8586 7.47588L6.01891 7.59288C6.03966 7.60801 6.06779 7.58807 6.06025 7.56348L6.00229 7.3737L6.1631 7.25742C6.18391 7.24235 6.17357 7.20945 6.14788 7.20901L5.94944 7.20548L5.88854 7.01657C5.88063 6.99213 5.84619 6.99179 5.83782 7.01604L5.77316 7.20367L5.57472 7.20323C5.54901 7.20313 5.53804 7.23582 5.55854 7.25132Z" fill="#73AF00"/>
<path d="M9.7304 8.65366L9.88884 8.77313L9.82709 8.96176C9.81909 8.98616 9.84678 9.00673 9.86784 8.99201L10.0305 8.87823L10.1908 8.99523C10.2115 9.01035 10.2397 8.99038 10.2321 8.96582L10.1742 8.77604L10.335 8.65976C10.3558 8.6447 10.3454 8.61179 10.3197 8.61135L10.1213 8.60782L10.0604 8.41892C10.0525 8.39448 10.0181 8.39413 10.0097 8.41838L9.94503 8.60601L9.74659 8.60557C9.7209 8.60551 9.7099 8.6382 9.7304 8.65366Z" fill="#73AF00"/>
<path d="M9.40266 5.98737L9.34766 6.17805L9.51028 6.2918C9.53135 6.30652 9.52153 6.33959 9.49585 6.34043L9.2975 6.34705L9.23953 6.53687C9.232 6.56146 9.19757 6.5623 9.18882 6.53818L9.12122 6.35159L8.92278 6.35515C8.8971 6.35559 8.8856 6.32312 8.90588 6.30734L9.06247 6.1854L8.99778 5.99777C8.98941 5.97349 9.01678 5.95249 9.03807 5.9669L9.20241 6.07815L9.36085 5.95868C9.38138 5.94312 9.40978 5.96268 9.40266 5.98737Z" fill="#73AF00"/>
<path d="M6.90754 9.6143L6.85254 9.80499L7.01517 9.91874C7.03623 9.93346 7.02642 9.96652 7.00073 9.96737L6.80239 9.97399L6.74442 10.1638C6.73689 10.1884 6.70245 10.1892 6.6937 10.1651L6.62611 9.97852L6.42767 9.98208C6.40198 9.98252 6.39048 9.95005 6.41076 9.93427L6.56736 9.81233L6.50267 9.62471C6.49429 9.60043 6.52167 9.57943 6.54295 9.59383L6.70729 9.70508L6.86573 9.58562C6.88626 9.57008 6.91467 9.58965 6.90754 9.6143Z" fill="#73AF00"/>
<path d="M10.3354 7.25132L10.177 7.37079L10.2387 7.55941C10.2467 7.58382 10.219 7.60438 10.198 7.58966L10.0353 7.47588L9.87502 7.59288C9.85427 7.60801 9.82615 7.58807 9.83368 7.56348L9.89165 7.3737L9.73083 7.25742C9.71002 7.24235 9.72036 7.20945 9.74605 7.20901L9.94449 7.20548L10.0054 7.01657C10.0133 6.99213 10.0477 6.99179 10.0561 7.01604L10.1208 7.20367L10.3192 7.20323C10.3449 7.20313 10.3559 7.23582 10.3354 7.25132Z" fill="#73AF00"/>
<path d="M6.16352 8.65366L6.00508 8.77313L6.06683 8.96176C6.07483 8.98616 6.04715 9.00673 6.02608 8.99201L5.86346 8.87823L5.70315 8.99523C5.6824 9.01035 5.65427 8.99038 5.6618 8.96582L5.71977 8.77604L5.55896 8.65976C5.53815 8.6447 5.54849 8.61179 5.57418 8.61135L5.77261 8.60782L5.83352 8.41892C5.84143 8.39448 5.87586 8.39413 5.88424 8.41838L5.9489 8.60601L6.14733 8.60557C6.17308 8.60551 6.18405 8.6382 6.16352 8.65366Z" fill="#73AF00"/>
</g>
<defs>
<clipPath id="clip0_5367_192299">
<rect x="15" y="1" width="14" height="14" rx="2" transform="rotate(90 15 1)" fill="white"/>
</clipPath>
</defs>
</svg>
