<svg width="16" height="16" viewBox="0 0 16 16" fill="none" xmlns="http://www.w3.org/2000/svg">
<g clip-path="url(#clip0_5367_192238)">
<rect x="15" y="1" width="14" height="14" rx="2" transform="rotate(90 15 1)" fill="#41479B"/>
<rect x="8" y="0.953125" width="7.09375" height="7.04688" fill="#FF334B"/>
<rect x="0.90625" y="8" width="7.09375" height="7.04688" fill="#FF334B"/>
<path d="M9.19726 19.4641L9.19727 -1.9043L6.8025 -1.9043L6.8025 19.4641L9.19726 19.4641Z" fill="white"/>
<path d="M-2.68387 9.19726L18.6846 9.19727L18.6846 6.8025L-2.68387 6.8025L-2.68387 9.19726Z" fill="white"/>
<path d="M7.75195 8.83045C7.75195 8.83045 7.91677 8.8908 7.89527 9.0977L7.96189 9.09645C7.96189 9.09645 7.91986 8.85736 7.88511 8.8287C7.85036 8.80005 7.75195 8.83045 7.75195 8.83045Z" fill="#64B496"/>
<path d="M7.9172 8.79893C7.8473 8.79893 7.72511 8.79884 7.59661 8.76415C7.62527 8.73434 7.66486 8.67428 7.66486 8.56956C7.66486 8.40556 7.55186 8.51019 7.55186 8.51019C7.55186 8.51019 7.47755 8.57272 7.52249 8.73987C7.47867 8.72315 7.43521 8.70159 7.39377 8.67397C7.41955 8.64159 7.47099 8.56615 7.50086 8.44653C7.50086 8.44653 7.31255 8.40931 7.26105 8.55112C7.22949 8.51109 7.20249 8.46606 7.17996 8.41622C7.22836 8.41681 7.29589 8.38487 7.29589 8.20056C7.29589 8.20056 7.17292 8.20078 7.14008 8.30744C7.12714 8.26284 7.1173 8.21506 7.11005 8.16456C7.15914 8.17881 7.28608 8.18903 7.28608 7.91356C7.28608 7.91356 7.13367 7.91384 7.09839 8.04884C7.09646 8.01431 7.09571 7.97862 7.09605 7.94181C7.17005 7.90312 7.27217 7.81791 7.26158 7.64306C7.26158 7.64306 7.1913 7.659 7.12686 7.71303C7.13955 7.64675 7.1343 7.54972 7.03264 7.46875C7.03264 7.46875 6.93924 7.63406 7.07567 7.76828C7.0638 7.78497 7.05346 7.80397 7.04492 7.82506C7.01427 7.77837 6.96511 7.73497 6.88593 7.70859C6.88593 7.70859 6.84949 7.93 7.05621 8.02262C7.06111 8.15194 7.08133 8.26619 7.11608 8.36553C7.05686 8.31337 7.00896 8.24156 7.00896 8.24156C7.00896 7.99556 6.8073 7.98934 6.8073 7.98934C6.76964 8.27012 6.97727 8.28147 6.97727 8.28147L7.09096 8.40553C6.84496 8.36453 6.84496 8.56953 6.84496 8.56953C7.00896 8.61053 7.09096 8.52853 7.09096 8.52853L7.17964 8.57412C7.02233 8.57872 6.96796 8.73353 6.96796 8.73353C7.16567 8.7665 7.31024 8.72 7.35939 8.7005C7.55852 8.83972 7.80395 8.8399 7.91727 8.8399V8.79893H7.9172Z" fill="#64B496"/>
<path d="M7.90332 8.79893C7.97323 8.79893 8.09541 8.79884 8.22391 8.76415C8.19526 8.73434 8.15566 8.67428 8.15566 8.56956C8.15566 8.40556 8.26866 8.51019 8.26866 8.51019C8.26866 8.51019 8.34298 8.57272 8.29804 8.73987C8.34185 8.72315 8.38532 8.70159 8.42676 8.67397C8.40098 8.64159 8.34954 8.56615 8.31966 8.44653C8.31966 8.44653 8.50798 8.40931 8.55948 8.55112C8.59104 8.51109 8.61804 8.46606 8.64057 8.41622C8.59216 8.41681 8.52463 8.38487 8.52463 8.20056C8.52463 8.20056 8.6476 8.20078 8.68051 8.30744C8.69344 8.26284 8.70329 8.21506 8.71054 8.16456C8.66144 8.17881 8.53451 8.18903 8.53451 7.91356C8.53451 7.91356 8.68691 7.91384 8.72219 8.04884C8.72413 8.01431 8.72488 7.97862 8.72454 7.94181C8.65054 7.90312 8.54841 7.81791 8.55901 7.64306C8.55901 7.64306 8.62929 7.659 8.69373 7.71303C8.68104 7.64675 8.68629 7.54972 8.78794 7.46875C8.78794 7.46875 8.88135 7.63406 8.74491 7.76828C8.75679 7.78497 8.76713 7.80397 8.77566 7.82506C8.80632 7.77837 8.85547 7.73497 8.93466 7.70859C8.93466 7.70859 8.9711 7.93 8.76438 8.02262C8.75947 8.15194 8.73926 8.26619 8.70451 8.36553C8.76373 8.31337 8.81163 8.24156 8.81163 8.24156C8.81163 7.99556 9.01329 7.98934 9.01329 7.98934C9.05094 8.27012 8.84332 8.28147 8.84332 8.28147L8.72963 8.40553C8.97563 8.36453 8.97563 8.56953 8.97563 8.56953C8.81163 8.61053 8.72963 8.52853 8.72963 8.52853L8.64094 8.57412C8.79826 8.57872 8.85263 8.73353 8.85263 8.73353C8.65491 8.7665 8.51035 8.72 8.46119 8.7005C8.26207 8.83972 8.01663 8.8399 7.90332 8.8399V8.79893Z" fill="#64B496"/>
<path d="M7.21841 7.00977C7.07423 7.10217 6.94713 7.21983 6.84473 7.35873C6.88873 7.39117 6.93273 7.42364 6.97673 7.45608C7.0671 7.33348 7.17926 7.22967 7.30644 7.14808L7.21841 7.00977Z" fill="#41479B"/>
<path d="M7.91116 8.07617H8.48513V8.40417C8.48513 8.49477 8.41173 8.56817 8.32113 8.56817H8.07513C8.00776 8.56817 7.94851 8.60111 7.91113 8.6513L7.91116 8.07617Z" fill="#FF6B71"/>
<path d="M8.03418 7.70686V7.25586H8.64918L8.48518 7.41986V7.87086H8.03418V7.70686Z" fill="#5F64B9"/>
<path d="M8.4843 7.87109H8.2793V8.07609H8.4843V7.87109Z" fill="white"/>
<path d="M7.91088 8.07617H7.33691V8.40417C7.33691 8.49477 7.41032 8.56817 7.50091 8.56817H7.74691C7.81429 8.56817 7.87354 8.60111 7.91091 8.6513L7.91088 8.07617Z" fill="#FF6B71"/>
<path d="M7.80859 8.57814C7.8495 8.5912 7.88481 8.61667 7.91016 8.65023H7.91206C7.93744 8.61664 7.97272 8.59123 8.01362 8.57814V8.24023H7.80862L7.80859 8.57814Z" fill="white"/>
<path d="M7.78785 7.70686V7.25586H7.17285L7.33685 7.41986V7.87086H7.78785V7.70686Z" fill="#5F64B9"/>
<path d="M7.54191 7.87109H7.33691V8.07609H7.54191V7.87109Z" fill="white"/>
<path d="M7.54199 7.46094V7.58394L7.66531 7.66594V7.58394L7.54199 7.46094Z" fill="#41479B"/>
<path d="M7.66504 7.58398V7.70698L7.82904 7.78898V7.74798L7.66504 7.58398Z" fill="white"/>
<path d="M8.27957 7.46094V7.58394L8.15625 7.66594V7.58394L8.27957 7.46094Z" fill="#41479B"/>
<path d="M8.15716 7.58398V7.70698L7.99316 7.78898V7.74798L8.15716 7.58398Z" fill="white"/>
<path d="M8.15821 8.36448H7.66355C7.55112 8.36448 7.45996 8.2727 7.45996 8.15948V7.52539L7.91387 7.83148L8.36177 7.52539V8.15948C8.36177 8.27273 8.27065 8.36448 8.15821 8.36448Z" fill="#FF334B"/>
<path d="M7.62396 7.62495L7.45996 7.50195V7.95295L7.62396 8.03495V7.62495Z" fill="#41479B"/>
<path d="M8.19727 7.62495L8.36127 7.50195V7.95295L8.19727 8.03495V7.62495Z" fill="#41479B"/>
<path d="M8.15704 8.03516H7.66504V8.24016H8.15704V8.03516Z" fill="#41479B"/>
<path d="M7.66504 7.66602L7.91101 7.78901L8.15701 7.66602V8.03501H7.66504V7.66602Z" fill="#FF334B"/>
<path d="M8.09545 7.70456V8.11681C8.09545 8.15072 8.06786 8.17828 8.03398 8.17828H7.78798C7.75408 8.17828 7.72652 8.15069 7.72652 8.11681V7.70625L7.60352 7.62387V8.11681C7.60352 8.21853 7.68627 8.30128 7.78798 8.30128H8.03398C8.1357 8.30128 8.21845 8.21853 8.21845 8.11681V7.62109L8.09545 7.70456Z" fill="white"/>
<path d="M8.13821 7.99086C8.06915 7.99708 7.99143 8.00405 7.91077 8.03211C7.83015 8.00405 7.7524 7.99708 7.68334 7.99086C7.56777 7.98048 7.49921 7.97039 7.45996 7.90067V8.01902C7.52024 8.0582 7.59659 8.06539 7.67599 8.07255C7.74727 8.07895 7.82096 8.08555 7.89627 8.11408L7.9108 8.11955L7.92533 8.11408C8.00062 8.08555 8.0743 8.07898 8.14562 8.07255C8.22508 8.06542 8.30155 8.05833 8.36183 8.01908V7.90039C8.32255 7.97039 8.25393 7.98048 8.13821 7.99086Z" fill="white"/>
<path d="M7.99307 7.60447H7.9316V7.54297H7.8906V7.60447H7.8291V7.64547H7.8906V7.82997H7.9316V7.64547H7.99307V7.60447Z" fill="#F8CB32"/>
<path d="M7.52933 7.41891L7.50684 7.44141L7.8671 7.80167L7.8896 7.77918L7.52933 7.41891Z" fill="#464655"/>
<path d="M7.4502 7.36328L7.49534 7.45334L7.54049 7.40831L7.4502 7.36328Z" fill="#F8CB32"/>
<path d="M7.61168 7.36016L7.58594 7.37891L7.88595 7.79076L7.91169 7.77201L7.61168 7.36016Z" fill="#464655"/>
<path d="M7.54199 7.29297L7.5726 7.38894L7.6242 7.35144L7.54199 7.29297Z" fill="#F8CB32"/>
<path d="M7.45767 7.49345L7.43945 7.51953L7.85719 7.81122L7.8754 7.78514L7.45767 7.49345Z" fill="#464655"/>
<path d="M7.37012 7.45312L7.43037 7.53391L7.46693 7.48172L7.37012 7.45312Z" fill="#F8CB32"/>
<path d="M7.93258 7.77829L7.95508 7.80078L8.31534 7.44051L8.29285 7.41802L7.93258 7.77829Z" fill="#464655"/>
<path d="M8.37154 7.36328L8.3264 7.45334L8.28125 7.40831L8.37154 7.36328Z" fill="#F8CB32"/>
<path d="M7.90981 7.77227L7.93555 7.79102L8.23556 7.37916L8.20982 7.36041L7.90981 7.77227Z" fill="#464655"/>
<path d="M8.27945 7.29297L8.24884 7.38894L8.19727 7.35144L8.27945 7.29297Z" fill="#F8CB32"/>
<path d="M7.94663 7.78642L7.96484 7.8125L8.38258 7.52081L8.36437 7.49473L7.94663 7.78642Z" fill="#464655"/>
<path d="M8.4513 7.45312L8.39106 7.53391L8.35449 7.48172L8.4513 7.45312Z" fill="#F8CB32"/>
<path d="M7.88956 8.55634C7.88956 8.55634 7.731 8.38606 7.76178 8.22975C7.7865 8.10403 7.86153 7.96544 7.92025 7.93172C7.92025 7.93172 8.00328 7.92659 7.98247 7.99872C7.96165 8.07084 7.93628 8.08944 7.94372 8.16053C7.9565 8.28359 7.97634 8.42941 7.88956 8.55634Z" fill="white"/>
<path d="M7.93767 7.93259C7.92777 7.93127 7.92023 7.93171 7.92023 7.93171C7.86152 7.96543 7.78648 8.10402 7.76177 8.22974C7.74777 8.30083 7.77305 8.37468 7.80467 8.43421C7.78464 8.17646 7.85989 8.08502 7.93767 7.93259Z" fill="#41479B"/>
<path d="M7.94468 8.16153C7.93725 8.09044 7.96266 8.07184 7.98353 7.99972C7.99816 7.94925 7.96181 7.93662 7.93866 7.93359C7.93866 7.93359 7.88559 8.05522 7.88217 8.13681C7.87916 8.20859 7.89759 8.50069 7.89044 8.55737C7.97745 8.43034 7.95755 8.28453 7.94468 8.16153Z" fill="#FF334B"/>
<path d="M7.83617 7.99327C7.8692 7.96105 7.91564 7.94665 7.96114 7.95446C7.93958 7.88505 7.91802 7.81565 7.89645 7.74621C7.85102 7.73843 7.80455 7.75284 7.77148 7.78502C7.79302 7.85446 7.81461 7.92387 7.83617 7.99327Z" fill="#F5F0F0"/>
<path d="M7.96117 7.95616C7.9942 7.92395 8.04064 7.90954 8.08614 7.91735C8.06458 7.84795 8.04302 7.77854 8.02145 7.7091C7.97602 7.70132 7.92955 7.71573 7.89648 7.74791C7.91802 7.81732 7.93958 7.88673 7.96117 7.95616Z" fill="white"/>
<path d="M7.72362 7.05497C7.50105 7.04984 7.28124 7.10456 7.08705 7.2134C7.06034 7.16572 7.03359 7.11803 7.00684 7.07037C7.22662 6.94712 7.47546 6.88519 7.7274 6.891C7.72612 6.94566 7.72483 7.00031 7.72362 7.05497Z" fill="#5F64B9"/>
<path d="M8.60268 7.00977C8.74687 7.10217 8.87396 7.21983 8.97637 7.35873C8.93237 7.39117 8.88837 7.42364 8.84437 7.45608C8.75399 7.33348 8.64184 7.22967 8.51465 7.14808L8.60268 7.00977Z" fill="#41479B"/>
<path d="M8.09851 7.05497C8.32107 7.04984 8.54088 7.10456 8.73507 7.2134C8.76179 7.16572 8.78854 7.11803 8.81529 7.07037C8.59551 6.94712 8.34666 6.88519 8.09473 6.891C8.09601 6.94566 8.09729 7.00031 8.09851 7.05497Z" fill="#5F64B9"/>
<path d="M8.23831 7.01077C8.02359 6.95202 7.79703 6.95202 7.58234 7.01077C7.56794 6.95805 7.55347 6.90534 7.53906 6.85259C7.78209 6.78612 8.03853 6.78612 8.28159 6.85259C8.26719 6.9053 8.25275 6.95802 8.23831 7.01077Z" fill="#41479B"/>
<path d="M7.36126 8.84766C7.18429 8.89387 7.01129 8.95622 6.84473 9.03469C6.86804 9.08413 6.89135 9.13359 6.91463 9.18303C7.07535 9.10728 7.24241 9.0475 7.41338 9.00359L7.36126 8.84766Z" fill="#FF6B71"/>
<path d="M8.46033 8.84766C8.6373 8.89387 8.8103 8.95622 8.97686 9.03469C8.95355 9.08413 8.93023 9.13359 8.90695 9.18303C8.74623 9.10728 8.57917 9.0475 8.4082 9.00359L8.46033 8.84766Z" fill="#FF6B71"/>
<path d="M8.56997 8.97598C8.13876 8.87245 7.68923 8.87245 7.25801 8.97598C7.24526 8.9228 7.23248 8.86967 7.21973 8.81655C7.67607 8.70698 8.15191 8.70698 8.60826 8.81655C8.59554 8.86967 8.58276 8.92286 8.56997 8.97598Z" fill="#FF334B"/>
<path d="M7.91107 9.01964L7.79801 9.04793C7.77213 9.05439 7.74707 9.03483 7.74707 9.00818V8.94921C7.74707 8.92255 7.77213 8.90296 7.79801 8.90946L7.91107 8.93774V9.01964Z" fill="#FF334B"/>
<path d="M7.91113 8.93773L8.02419 8.90945C8.05007 8.90298 8.07513 8.92254 8.07513 8.9492V9.00817C8.07513 9.03482 8.05007 9.05442 8.02419 9.04792L7.91113 9.01964V8.93773Z" fill="#FF334B"/>
<path d="M7.92006 9.01953H7.90242C7.88459 9.01953 7.87012 9.00512 7.87012 8.98731V8.96972C7.87012 8.95194 7.88456 8.9375 7.90242 8.9375H7.92006C7.93788 8.9375 7.95236 8.95191 7.95236 8.96972V8.98731C7.95233 9.00512 7.93788 9.01953 7.92006 9.01953Z" fill="#FF6B71"/>
</g>
<defs>
<clipPath id="clip0_5367_192238">
<rect x="15" y="1" width="14" height="14" rx="2" transform="rotate(90 15 1)" fill="white"/>
</clipPath>
</defs>
</svg>
