<svg width="16" height="16" viewBox="0 0 16 16" fill="none" xmlns="http://www.w3.org/2000/svg">
<g clip-path="url(#clip0_5367_192150)">
<rect x="15" y="1" width="14" height="14" rx="2" transform="rotate(90 15 1)" fill="#41479B"/>
<path d="M1.10175 15L9 8L1.10175 1C1.04097 1.06844 1 1.16761 1 1.28293V14.717C1 14.8324 1.04097 14.9316 1.10175 15Z" fill="white"/>
<path d="M3.89754 8.89469C4.3927 8.89469 4.7941 8.49328 4.7941 7.99813C4.7941 7.50297 4.3927 7.10156 3.89754 7.10156C3.40238 7.10156 3.00098 7.50297 3.00098 7.99813C3.00098 8.49328 3.40238 8.89469 3.89754 8.89469Z" fill="#F8CB32"/>
<path d="M3.89677 7.99817L3.56055 6.65336L3.89677 6.20508L4.23295 6.65336L3.89677 7.99817Z" fill="#F8CB32"/>
<path d="M3.89677 7.99805L4.23295 9.34286L3.89677 9.79114L3.56055 9.34286L3.89677 7.99805Z" fill="#F8CB32"/>
<path d="M3.89664 7.99833L2.5518 8.33455L2.10352 7.99833L2.5518 7.66211L3.89664 7.99833Z" fill="#F8CB32"/>
<path d="M3.89746 7.99833L5.24227 7.66211L5.69055 7.99833L5.24227 8.33455L3.89746 7.99833Z" fill="#F8CB32"/>
<path d="M3.89746 7.99841L4.61065 6.80975L5.16537 6.73047L5.08612 7.28519L3.89746 7.99841Z" fill="#F8CB32"/>
<path d="M3.89684 7.99805L3.18362 9.1867L2.62891 9.26598L2.70819 8.71127L3.89684 7.99805Z" fill="#F8CB32"/>
<path d="M3.89684 7.99841L2.70819 7.28519L2.62891 6.73047L3.18362 6.80975L3.89684 7.99841Z" fill="#F8CB32"/>
<path d="M3.89746 7.99805L5.08612 8.71127L5.16537 9.26598L4.61065 9.1867L3.89746 7.99805Z" fill="#F8CB32"/>
<path d="M1.7397 4.11443L1.78645 4.46318L1.47157 4.6203C1.43082 4.64065 1.43938 4.70118 1.48423 4.70936L1.83035 4.77268L1.88248 5.12068C1.88923 5.16574 1.94945 5.17627 1.9711 5.13615L2.13829 4.82652L2.48535 4.88446C2.53029 4.89199 2.55892 4.83793 2.52748 4.80499L2.28467 4.5503L2.44701 4.23811C2.46804 4.19771 2.42548 4.15377 2.38442 4.17349L2.06717 4.32574L1.82045 4.07483C1.78857 4.0424 1.73367 4.0693 1.7397 4.11443Z" fill="#F8CB32"/>
<path d="M1.87883 10.9028L1.81976 11.2497L1.47245 11.3061C1.42748 11.3134 1.4177 11.3737 1.45804 11.3949L1.7697 11.5582L1.71604 11.906C1.70911 11.951 1.76345 11.9789 1.79604 11.9471L2.0477 11.7012L2.36189 11.8597C2.40258 11.8802 2.44595 11.8371 2.42576 11.7963L2.26964 11.481L2.51745 11.2312C2.54951 11.1988 2.52201 11.1443 2.47689 11.1509L2.1287 11.2019L1.9677 10.889C1.94686 10.8485 1.88642 10.8578 1.87883 10.9028Z" fill="#F8CB32"/>
<path d="M7.33561 7.48506L7.13308 7.77281L6.79526 7.67437C6.75155 7.66162 6.71673 7.71191 6.74405 7.74834L6.95514 8.02987L6.75711 8.32075C6.73148 8.35841 6.76851 8.40703 6.81164 8.39231L7.14461 8.27856L7.36005 8.55678C7.38795 8.59281 7.44564 8.57256 7.44495 8.52703L7.43964 8.17522L7.77083 8.05628C7.8137 8.04087 7.8123 7.97975 7.76876 7.96634L7.43248 7.86266L7.42173 7.51094C7.42042 7.46534 7.36183 7.44778 7.33561 7.48506Z" fill="#F8CB32"/>
<path d="M15 1H1V5.66667H15V1Z" fill="#73AF00"/>
<path d="M15 5.66602H1V10.3327H15V5.66602Z" fill="white"/>
<path d="M15 10.334H1V15.0007H15V10.334Z" fill="#FF334B"/>
<path d="M1.05654 15L5.44543 8L1.05654 1C1.02277 1.06844 1 1.16761 1 1.28293V14.717C1 14.8324 1.02277 14.9316 1.05654 15Z" fill="#4173CD"/>
<path d="M8.93407 8.08597C8.93407 8.09272 8.93185 8.74122 8.76601 9.06025H9.23204C9.06616 8.74125 9.06398 8.09272 9.06398 8.08597C9.06398 7.86253 9.29557 7.68497 9.29791 7.68322L9.21988 7.57941C9.21382 7.58397 9.13663 7.64312 9.06401 7.73922V7.56641H8.9341V7.73922C8.86148 7.64312 8.78432 7.58394 8.77823 7.57941L8.7002 7.68322C8.70254 7.68497 8.93407 7.8625 8.93407 8.08597Z" fill="#B46446"/>
<path d="M9.64863 7.30522C9.64466 7.30522 9.641 7.30625 9.63707 7.3065C9.6106 7.23031 9.53894 7.17531 9.45375 7.17531C9.42304 7.17531 9.39438 7.18306 9.36854 7.19572C9.341 7.14512 9.28807 7.11037 9.22644 7.11037C9.20872 7.11037 9.19201 7.11394 9.17604 7.11916C9.14147 7.03762 9.06076 6.98047 8.96666 6.98047C8.85101 6.98047 8.7566 7.06716 8.74226 7.17887C8.73063 7.17706 8.71897 7.17531 8.70688 7.17531C8.58132 7.17531 8.47954 7.27709 8.47954 7.40266C8.47954 7.41741 8.48119 7.43175 8.48388 7.44572C8.42635 7.46465 8.3811 7.50912 8.36123 7.56619C8.35735 7.56584 8.3536 7.565 8.34963 7.565C8.27788 7.565 8.21973 7.62319 8.21973 7.6949C8.21973 7.76665 8.27791 7.82481 8.34963 7.82481C8.38276 7.82481 8.41269 7.81203 8.43563 7.79156C8.46669 7.81253 8.50416 7.82481 8.54451 7.82481C8.58019 7.82481 8.61316 7.81453 8.64191 7.79778C8.67066 7.8145 8.70366 7.82481 8.73932 7.82481C8.84694 7.82481 8.93419 7.73756 8.93419 7.62994C8.93419 7.62169 8.93276 7.61387 8.93179 7.6059C8.96204 7.62081 8.9956 7.62994 9.03166 7.62994C9.07685 7.62994 9.11866 7.61637 9.15404 7.59365C9.18725 7.65372 9.25044 7.69487 9.32394 7.69487C9.33972 7.69487 9.35491 7.6925 9.3696 7.68894C9.40535 7.7319 9.45854 7.75984 9.51879 7.75984C9.577 7.75984 9.62869 7.73381 9.66438 7.69331C9.7645 7.68522 9.84357 7.60228 9.84357 7.50003C9.84347 7.39247 9.75625 7.30522 9.64863 7.30522Z" fill="#73AF00"/>
<path d="M9.4543 7.46894C9.4543 7.46219 9.45571 7.45581 9.4563 7.44922C9.42155 7.48134 9.37549 7.50144 9.3244 7.50144C9.25652 7.50144 9.19693 7.46669 9.16202 7.41406C9.12712 7.46669 9.06749 7.50144 8.99965 7.50144C8.94746 7.50144 8.90037 7.48066 8.86537 7.44725C8.84512 7.55206 8.75312 7.63131 8.6424 7.63131C8.63115 7.63131 8.6204 7.62959 8.60962 7.628C8.60965 7.62912 8.60996 7.63019 8.60996 7.63131C8.60996 7.71625 8.5553 7.78772 8.47949 7.81441C8.50002 7.82175 8.52193 7.82616 8.54502 7.82616C8.58071 7.82616 8.61368 7.81587 8.64243 7.79912C8.67118 7.81584 8.70418 7.82616 8.73984 7.82616C8.84746 7.82616 8.93471 7.73891 8.93471 7.63128C8.93471 7.62303 8.93327 7.61522 8.9323 7.60725C8.96255 7.62216 8.99612 7.63128 9.03218 7.63128C9.07737 7.63128 9.11918 7.61772 9.15455 7.595C9.18777 7.65506 9.25096 7.69622 9.32446 7.69622C9.34024 7.69622 9.35543 7.69384 9.37012 7.69028C9.40587 7.73325 9.45905 7.76119 9.51927 7.76119C9.57749 7.76119 9.62918 7.73516 9.66487 7.69466L9.66527 7.69459C9.54749 7.68603 9.4543 7.58887 9.4543 7.46894Z" fill="#5FA000"/>
<path d="M8.99957 9.47331C8.98913 9.47331 8.97988 9.46665 8.97647 9.45684C8.97401 9.44953 8.91285 9.27853 8.67482 9.27853H8.35007C8.15754 9.27853 8.00098 9.1219 8.00098 8.92943V6.78606C8.00098 6.77263 8.01188 6.76172 8.02532 6.76172H10.0388C10.0522 6.76172 10.0631 6.77263 10.0631 6.78606V8.92943C10.0631 9.12196 9.9065 9.27853 9.71404 9.27853H9.32432C9.08485 9.27853 9.02326 9.4549 9.02269 9.45671C9.01935 9.46668 9.0101 9.47334 8.99963 9.47334L8.99957 9.47331ZM8.04963 6.81034V8.92937C8.04963 9.095 8.18438 9.22978 8.35004 9.22978H8.67479C8.86757 9.22978 8.96088 9.33331 8.99954 9.3955C9.03819 9.33325 9.13151 9.22978 9.32429 9.22978H9.714C9.87966 9.22978 10.0144 9.095 10.0144 8.92937V6.81034H8.04963Z" fill="#464655"/>
<path d="M8.74938 6.20703L8.81113 6.30581L8.92754 6.30984L8.87282 6.41269L8.92754 6.51553L8.81113 6.51956L8.74938 6.61837L8.6877 6.51956L8.57129 6.51553L8.62598 6.41269L8.57129 6.30984L8.6877 6.30581L8.74938 6.20703Z" fill="#F8CB32"/>
<path d="M8.20091 6.29688L8.28401 6.3785L8.39813 6.35525L8.36895 6.468L8.44616 6.55525L8.33391 6.58634L8.29701 6.69681L8.21391 6.61516L8.09979 6.63844L8.12895 6.52566L8.05176 6.43844L8.16401 6.40734L8.20091 6.29688Z" fill="#F8CB32"/>
<path d="M7.67466 6.45312L7.77341 6.51494L7.87982 6.46756L7.87569 6.58397L7.96991 6.65247L7.86704 6.70709L7.85482 6.82294L7.75607 6.76113L7.64966 6.8085L7.65379 6.69209L7.55957 6.62359L7.66244 6.56897L7.67466 6.45312Z" fill="#F8CB32"/>
<path d="M9.25042 6.20703L9.18867 6.30581L9.07227 6.30984L9.12698 6.41269L9.07227 6.51553L9.18867 6.51956L9.25042 6.61837L9.31211 6.51956L9.42851 6.51553L9.37383 6.41269L9.42851 6.30984L9.31211 6.30581L9.25042 6.20703Z" fill="#F8CB32"/>
<path d="M9.79994 6.29688L9.71684 6.3785L9.60272 6.35525L9.63191 6.468L9.55469 6.55525L9.66694 6.58634L9.70384 6.69681L9.78694 6.61516L9.90106 6.63844L9.87191 6.52566L9.94909 6.43844L9.83685 6.40734L9.79994 6.29688Z" fill="#F8CB32"/>
<path d="M10.3265 6.45312L10.2277 6.51494L10.1213 6.46756L10.1255 6.58397L10.0312 6.65247L10.1341 6.70709L10.1463 6.82294L10.2451 6.76113L10.3515 6.8085L10.3474 6.69209L10.4416 6.62359L10.3387 6.56897L10.3265 6.45312Z" fill="#F8CB32"/>
</g>
<defs>
<clipPath id="clip0_5367_192150">
<rect x="15" y="1" width="14" height="14" rx="2" transform="rotate(90 15 1)" fill="white"/>
</clipPath>
</defs>
</svg>
