<svg width="16" height="16" viewBox="0 0 16 16" fill="none" xmlns="http://www.w3.org/2000/svg">
<g clip-path="url(#clip0_5367_192113)">
<rect x="15" y="1" width="14" height="14" rx="2" transform="rotate(90 15 1)" fill="#4173CD"/>
<path d="M17 8.0297H1V1.37C1 1.16568 1.12353 1 1.27587 1H16.7241C16.8765 1 17 1.16568 17 1.37L17 8.0297Z" fill="#73AF00"/>
<path d="M1 1.3692V14.6886C1 14.8223 1.04878 14.9343 1.11815 14.9992L15 8.0289L1.11815 1.05859C1.04875 1.12356 1 1.23542 1 1.3692Z" fill="#FF334B"/>
<path d="M6.21969 9.47615C6.21969 9.47615 6.99663 9.19281 7.21601 8.34274C7.21601 8.34274 6.87779 8.78149 6.64013 8.90946C6.64013 8.90946 7.16113 8.21478 7.05144 7.5384C7.05144 7.5384 6.98744 7.81262 6.85947 7.92231C6.85947 7.92231 7.08801 6.94428 6.79547 6.53297C6.79547 6.53297 6.8046 6.88031 6.67666 7.22765C6.67666 7.22765 6.72541 6.12772 6.22573 5.84744C6.22573 5.84744 6.42073 6.19478 6.33844 6.48725C6.33844 6.48725 6.20135 5.86569 5.56454 5.61891C5.56454 5.61891 5.52491 5.66459 5.53407 5.80172C5.53407 5.80172 5.36042 5.59147 4.93079 5.60062C4.93079 5.60062 4.93992 5.756 5.0496 5.90225C5.0496 5.90225 4.87595 5.99366 4.76626 5.96625C4.76626 5.96625 4.93992 6.15822 5.55232 6.1399C5.55232 6.1399 5.47004 6.21303 5.30554 6.23131C5.30554 6.23131 5.55573 6.34622 5.80216 6.3684C6.14038 6.39884 6.27444 6.59694 6.33841 6.84372C6.33841 6.84372 6.07335 6.68834 5.97279 6.53294C5.97279 6.53294 5.95451 6.798 6.45723 7.30987L6.20129 7.20018C6.20129 7.20018 6.36582 7.6755 6.56691 8.21478L6.35666 7.98624C6.35666 7.98624 6.31098 8.37015 6.27438 9.08312L6.12813 8.7449C6.12813 8.7449 5.8722 9.58584 5.47916 9.72293C5.17148 9.83027 4.83117 9.90374 4.69745 9.93071C4.68492 9.46024 4.88504 9.35731 4.88504 9.35731C5.24151 9.37559 5.32379 8.98256 5.32379 8.98256C5.25067 9.05568 5.11354 9.05568 5.11354 9.05568C5.32379 8.83631 5.32379 8.52556 5.32379 8.52556C5.19582 8.77234 4.99473 8.8089 4.99473 8.8089L5.01301 8.56212C4.64123 8.83249 4.66776 9.14915 4.67392 9.19556C4.66554 9.13637 4.59932 8.67328 4.56514 8.56212C4.52857 8.44331 4.61082 8.20565 4.73879 8.24218C5.15301 8.36053 5.25067 8.0594 5.25067 8.0594C5.03129 8.15996 4.90332 8.08681 4.90332 8.08681C5.18667 7.81259 5.06785 7.55668 5.06785 7.55668C4.97645 7.82175 4.72051 7.86746 4.72051 7.86746L4.71139 7.575C4.59257 7.639 4.48285 7.92234 4.48285 7.92234C4.48285 7.92234 4.45545 7.69381 4.53767 7.49271C4.61995 7.29162 4.83013 7.39215 4.83013 7.39215C5.20488 7.46528 5.32373 7.10881 5.32373 7.10881L5.07695 7.14537C5.35117 6.94428 5.26892 6.69747 5.26892 6.69747C5.20492 6.85284 4.97645 6.88028 4.97645 6.88028L5.08613 6.58781C4.84848 6.58781 4.71139 6.89859 4.71139 6.89859L4.6931 6.59697C4.80279 6.20394 4.54685 6.03025 4.54685 6.03025C4.49204 6.10337 4.51945 6.25878 4.51945 6.25878C4.29092 6.05769 4.11726 6.29534 4.11726 6.29534C4.29092 6.47815 4.45548 6.45987 4.45548 6.45987C4.40067 6.49644 4.19954 6.51469 4.19954 6.51469C4.42807 6.70665 4.55601 6.67006 4.55601 6.67006C4.6657 7.13625 4.3732 7.34646 4.3732 7.34646C4.31839 6.99912 4.10814 6.83459 4.10814 6.83459L4.11726 7.06312C3.98017 6.98084 3.87048 6.73406 3.87048 6.73406C3.77907 7.0814 4.02586 7.38303 4.02586 7.38303L3.79732 7.36475C3.99842 7.83093 4.31832 7.68468 4.31832 7.68468C4.29092 8.01374 4.4006 8.55303 4.4006 8.55303C4.35492 8.49821 3.87048 8.04115 3.87048 8.04115C3.8522 8.22393 4.02586 8.46159 4.02586 8.46159C3.93445 8.44331 3.66939 8.24221 3.66939 8.24221C3.69679 8.53468 4.0807 8.72665 4.0807 8.72665C3.93445 8.74493 3.65107 8.5804 3.65107 8.5804C3.81561 9.28421 4.41885 8.97343 4.41885 8.97343L4.46514 9.92543C4.3377 9.89484 4.05904 9.8238 3.76989 9.72296C3.37686 9.58587 3.12092 8.74493 3.12092 8.74493L2.97467 9.08315C2.93811 8.37018 2.89239 7.98628 2.89239 7.98628L2.68214 8.21481C2.88323 7.67553 3.04776 7.20022 3.04776 7.20022L2.79183 7.3099C3.29473 6.79797 3.27642 6.5329 3.27642 6.5329C3.17586 6.68828 2.91079 6.84368 2.91079 6.84368C2.97479 6.5969 3.17586 6.34097 3.42267 6.32269C3.66948 6.3044 3.94367 6.23128 3.94367 6.23128C3.77914 6.213 3.69689 6.13987 3.69689 6.13987C4.40985 6.07587 4.48295 5.88394 4.48295 5.88394C4.37326 5.91134 4.03504 5.87481 4.03504 5.87481C4.31839 5.71944 4.78457 5.57319 4.78457 5.57319C4.2087 5.47262 3.71514 5.80172 3.71514 5.80172C3.79742 5.64634 3.94367 5.47266 3.94367 5.47266C3.23986 5.78344 2.91076 6.48725 2.91076 6.48725C2.82848 6.19478 3.02348 5.84741 3.02348 5.84741C2.5238 6.12772 2.57255 7.22762 2.57255 7.22762C2.44458 6.88028 2.45373 6.53294 2.45373 6.53294C2.16127 6.94425 2.38973 7.92228 2.38973 7.92228C2.26177 7.81259 2.19777 7.53837 2.19777 7.53837C2.08808 8.21478 2.60908 8.90943 2.60908 8.90943C2.37142 8.78146 2.0332 8.34271 2.0332 8.34271C2.25258 9.19277 3.02951 9.47612 3.02951 9.47612C2.59989 9.31159 2.41711 9.44871 2.41711 9.44871C2.71873 9.51271 3.01123 9.69549 3.24889 9.86915C3.48654 10.0428 3.80648 10.0794 4.08982 10.1159C4.20689 10.131 4.30389 10.1507 4.37901 10.1687C4.22414 10.2445 4.11726 10.4031 4.11726 10.5872H5.0496C5.0496 10.4101 4.95085 10.2561 4.80539 10.1771C4.89901 10.1571 5.02373 10.1334 5.15929 10.1159C5.44263 10.0793 5.73866 10.0041 6.00023 9.86912C6.28357 9.72287 6.53035 9.51265 6.83201 9.44868C6.8321 9.44874 6.64926 9.31168 6.21969 9.47615Z" fill="#F8CB32"/>
</g>
<defs>
<clipPath id="clip0_5367_192113">
<rect x="15" y="1" width="14" height="14" rx="2" transform="rotate(90 15 1)" fill="white"/>
</clipPath>
</defs>
</svg>
