<svg width="16" height="16" viewBox="0 0 16 16" fill="none" xmlns="http://www.w3.org/2000/svg">
<g clip-path="url(#clip0_5367_192065)">
<rect x="1" y="1" width="14" height="14" rx="2" fill="#C8414B"/>
<path d="M16 4.15625H0V11.8438H16V4.15625Z" fill="#FFD250"/>
<path d="M6.75132 7.80976L6.98523 6.75723C7.00679 6.6603 6.93301 6.56836 6.8337 6.56836H6.66895C6.56967 6.56836 6.49592 6.6603 6.51742 6.75723L6.75132 7.80976Z" fill="#C8414B"/>
<path d="M7.0273 7.25781H6.47559V9.6025H7.0273V7.25781Z" fill="white"/>
<path d="M7.16499 6.98242H6.3374V7.2583H7.16499V6.98242Z" fill="#FAB446"/>
<path d="M7.1655 7.81055H5.78613V8.08642H7.1655V7.81055Z" fill="#C8414B"/>
<path d="M7.16548 8.91305L6.33789 8.6372V8.36133L7.16548 8.6372V8.91305Z" fill="#C8414B"/>
<path d="M2.61363 7.80976L2.84753 6.75723C2.8691 6.6603 2.79532 6.56836 2.696 6.56836H2.53125C2.43197 6.56836 2.35822 6.6603 2.37972 6.75723L2.61363 7.80976Z" fill="#C8414B"/>
<path d="M3.5791 6.98242C3.42675 6.98242 3.30322 7.10595 3.30322 7.2583V9.05139C3.30322 9.38654 3.61603 10.0169 4.68253 10.0169C5.74903 10.0169 6.06184 9.38657 6.06184 9.05139V7.2583C6.06184 7.10595 5.93831 6.98242 5.78597 6.98242H3.5791V6.98242Z" fill="white"/>
<path d="M4.68302 8.36173H3.30371V7.2583C3.30371 7.10595 3.42724 6.98242 3.57959 6.98242H4.68302V8.36173Z" fill="#C8414B"/>
<path d="M4.68311 8.36133H6.06242V9.05098C6.06242 9.43189 5.75367 9.74064 5.37276 9.74064C4.99185 9.74064 4.68311 9.43189 4.68311 9.05098V8.36133V8.36133Z" fill="#C8414B"/>
<path d="M3.30322 8.36133H4.68253V9.05098C4.68253 9.43189 4.37378 9.74064 3.99288 9.74064C3.61197 9.74064 3.30322 9.43189 3.30322 9.05098V8.36133V8.36133Z" fill="#FAB446"/>
<path d="M4.40576 9.59961V8.36133H4.12988V9.72673C4.23251 9.70592 4.32523 9.66048 4.40576 9.59961Z" fill="#C8414B"/>
<path d="M3.854 9.72673V8.36133H3.57812V9.59961C3.65869 9.66048 3.75141 9.70592 3.854 9.72673Z" fill="#C8414B"/>
<path d="M4.40669 7.80859H3.5791V8.08447H4.40669V7.80859Z" fill="#FFB441"/>
<path d="M4.40669 7.25781H3.5791V7.53369H4.40669V7.25781Z" fill="#FAB446"/>
<path d="M4.26852 7.42188H3.7168V7.92162H4.26852V7.42188Z" fill="#FAB446"/>
<path d="M2.88912 7.25781H2.3374V9.6025H2.88912V7.25781Z" fill="white"/>
<path d="M3.02681 9.46484H2.19922V9.74072H3.02681V9.46484Z" fill="#FAB446"/>
<path d="M3.02681 6.98242H2.19922V7.2583H3.02681V6.98242Z" fill="#FAB446"/>
<path d="M3.16496 9.74023H2.06152V10.0161H3.16496V9.74023Z" fill="#5064AA"/>
<path d="M7.30318 9.46484H6.47559V9.74072H7.30318V9.46484Z" fill="#FAB446"/>
<path d="M7.30265 9.74023H6.19922V10.0161H7.30265V9.74023Z" fill="#5064AA"/>
<path d="M5.51017 6.70508H3.85498V6.98095H5.51017V6.70508Z" fill="#FAB446"/>
<path d="M4.82031 5.87891H4.54443V6.7065H4.82031V5.87891Z" fill="#FFB441"/>
<path d="M4.40646 6.29241C4.17827 6.29241 3.99268 6.10678 3.99268 5.87862C3.99268 5.65044 4.1783 5.46484 4.40646 5.46484C4.63464 5.46484 4.82024 5.65047 4.82024 5.87862C4.82027 6.10678 4.63464 6.29241 4.40646 6.29241ZM4.40646 5.74069C4.33036 5.74069 4.26852 5.8025 4.26852 5.87862C4.26852 5.95472 4.33033 6.01656 4.40646 6.01656C4.48258 6.01656 4.54439 5.95475 4.54439 5.87862C4.54439 5.80253 4.48258 5.74069 4.40646 5.74069Z" fill="white"/>
<path d="M4.95821 6.29241C4.73003 6.29241 4.54443 6.10678 4.54443 5.87862C4.54443 5.65044 4.73006 5.46484 4.95821 5.46484C5.1864 5.46484 5.37199 5.65047 5.37199 5.87862C5.37199 6.10678 5.18637 6.29241 4.95821 6.29241ZM4.95821 5.74069C4.88212 5.74069 4.82028 5.8025 4.82028 5.87862C4.82028 5.95472 4.88209 6.01656 4.95821 6.01656C5.03431 6.01656 5.09615 5.95475 5.09615 5.87862C5.09612 5.80253 5.03431 5.74069 4.95821 5.74069Z" fill="white"/>
<path d="M5.50997 6.56779C5.28178 6.56779 5.09619 6.38217 5.09619 6.15401C5.09619 5.92583 5.28182 5.74023 5.50997 5.74023C5.73816 5.74023 5.92375 5.92586 5.92375 6.15401C5.92375 6.38217 5.73813 6.56779 5.50997 6.56779ZM5.50997 6.01608C5.43388 6.01608 5.37203 6.07789 5.37203 6.15401C5.37203 6.23011 5.43385 6.29195 5.50997 6.29195C5.58607 6.29195 5.64791 6.23014 5.64791 6.15401C5.64791 6.07789 5.58607 6.01608 5.50997 6.01608Z" fill="white"/>
<path d="M3.8547 6.56779C3.62651 6.56779 3.44092 6.38217 3.44092 6.15401C3.44092 5.92583 3.62654 5.74023 3.8547 5.74023C4.08289 5.74023 4.26848 5.92586 4.26848 6.15401C4.26851 6.38217 4.08289 6.56779 3.8547 6.56779ZM3.8547 6.01608C3.7786 6.01608 3.71676 6.07789 3.71676 6.15401C3.71676 6.23011 3.77857 6.29195 3.8547 6.29195C3.93082 6.29195 3.99264 6.23011 3.99264 6.15398C3.99264 6.07789 3.93082 6.01608 3.8547 6.01608Z" fill="white"/>
<path d="M5.50976 8.91256V9.0505C5.50976 9.12656 5.44788 9.18844 5.37182 9.18844C5.29576 9.18844 5.23388 9.12656 5.23388 9.0505V8.91256H5.50976ZM5.7856 8.63672H4.95801V9.0505C4.95801 9.27869 5.14363 9.46428 5.37179 9.46428C5.59998 9.46428 5.78557 9.27866 5.78557 9.0505V8.63672H5.7856Z" fill="#FAB446"/>
<path d="M5.37207 8.08544C5.21972 8.08544 5.09619 7.96191 5.09619 7.80956V7.53369C5.09619 7.38134 5.21972 7.25781 5.37207 7.25781C5.52441 7.25781 5.64794 7.38134 5.64794 7.53369V7.80956C5.64794 7.96191 5.52441 8.08544 5.37207 8.08544Z" fill="#FFA0D2"/>
<path d="M4.68234 8.77483C4.91086 8.77483 5.09612 8.58957 5.09612 8.36105C5.09612 8.13252 4.91086 7.94727 4.68234 7.94727C4.45381 7.94727 4.26855 8.13252 4.26855 8.36105C4.26855 8.58957 4.45381 8.77483 4.68234 8.77483Z" fill="#5064AA"/>
<path d="M4.82031 5.32617H4.54443V6.15376H4.82031V5.32617Z" fill="#FAB446"/>
<path d="M3.85498 6.7065L3.5791 6.43062L3.74069 6.26903C3.99048 6.01925 4.32929 5.87891 4.68257 5.87891C5.03585 5.87891 5.37463 6.01925 5.62444 6.26903L5.78604 6.43062L5.51016 6.7065H3.85498Z" fill="#C8414B"/>
<path d="M4.68188 6.56689C4.75806 6.56689 4.81982 6.50513 4.81982 6.42895C4.81982 6.35277 4.75806 6.29102 4.68188 6.29102C4.6057 6.29102 4.54395 6.35277 4.54395 6.42895C4.54395 6.50513 4.6057 6.56689 4.68188 6.56689Z" fill="#FFD250"/>
<path d="M4.13012 6.56689C4.20631 6.56689 4.26806 6.50513 4.26806 6.42895C4.26806 6.35277 4.20631 6.29102 4.13012 6.29102C4.05394 6.29102 3.99219 6.35277 3.99219 6.42895C3.99219 6.50513 4.05394 6.56689 4.13012 6.56689Z" fill="#FFD250"/>
<path d="M5.23364 6.56689C5.30982 6.56689 5.37158 6.50513 5.37158 6.42895C5.37158 6.35277 5.30982 6.29102 5.23364 6.29102C5.15746 6.29102 5.0957 6.35277 5.0957 6.42895C5.0957 6.50513 5.15746 6.56689 5.23364 6.56689Z" fill="#FFD250"/>
<path d="M3.57859 7.80859H2.19922V8.08447H3.57859V7.80859Z" fill="#C8414B"/>
<path d="M2.19922 8.91109L3.02678 8.63525V8.35938L2.19922 8.63525V8.91109Z" fill="#C8414B"/>
</g>
<defs>
<clipPath id="clip0_5367_192065">
<rect x="1" y="1" width="14" height="14" rx="2" fill="white"/>
</clipPath>
</defs>
</svg>
