<svg width="16" height="16" viewBox="0 0 16 16" fill="none" xmlns="http://www.w3.org/2000/svg">
<g clip-path="url(#clip0_5367_192057)">
<rect x="1" y="1" width="14" height="14" rx="2" fill="#73AF00"/>
<path d="M15 5.66602H1V10.3327H15V5.66602Z" fill="#F8CB32"/>
<path d="M15 10.3359H1V15.0026H15V10.3359Z" fill="#FF334B"/>
<path d="M11.311 8.0009C11.311 9.82671 9.82866 11.3117 8.00023 11.3117C6.17179 11.3117 4.68945 9.82671 4.68945 8.0009C4.68945 6.16984 6.17179 4.6875 8.00023 4.6875C9.82866 4.6875 11.311 6.16984 11.311 8.0009Z" fill="#4173CD"/>
<path d="M5.48242 7.16828H7.40604L7.84132 5.82869L7.95692 6.188L7.32479 8.13537L7.13648 7.998L7.33339 7.39293H5.78633L5.48242 7.16828ZM6.44355 10.1303L7.03808 8.30187L5.89864 7.47215H6.27445L7.93054 8.67443L7.74229 8.81181L7.22639 8.43659L6.74748 9.91099L6.44355 10.1303ZM9.55748 10.1303L8.00054 8.99946L6.86173 9.82646L6.97801 9.47243L8.63276 8.26749L8.70345 8.48943L8.18882 8.86202L9.4406 9.77365L9.55748 10.1303ZM10.5186 7.16828L8.96295 8.30184L9.39829 9.64149L9.09442 9.41949L8.46289 7.47212H8.6941L8.89092 8.07987L10.1434 7.16825H10.5186V7.16828H10.5186ZM8.00054 5.33984L8.59507 7.16828H10.0041L9.69954 7.39293H7.65307L7.72511 7.16828H8.36317L7.88426 5.69653L8.00054 5.33984Z" fill="#F2DD30"/>
<path d="M8.05596 10.6484H7.94564V9.21367H8.05596V10.6484ZM10.5021 8.86745L9.13799 8.4262L9.17236 8.32317L10.5371 8.76442L10.5021 8.86745ZM5.49824 8.86745L5.46387 8.76442L6.82924 8.32317L6.86299 8.4262L5.49824 8.86745ZM8.75952 7.04954L8.66961 6.98617L9.5132 5.82617L9.60108 5.88961L8.75952 7.04954ZM7.24349 7.04954L6.39855 5.88961L6.48777 5.82617L7.33068 6.98617L7.24349 7.04954Z" fill="#F2DD30"/>
</g>
<defs>
<clipPath id="clip0_5367_192057">
<rect x="1" y="1" width="14" height="14" rx="2" fill="white"/>
</clipPath>
</defs>
</svg>
