<svg width="16" height="16" viewBox="0 0 16 16" fill="none" xmlns="http://www.w3.org/2000/svg">
<rect x="15" y="1" width="14" height="14" rx="2" transform="rotate(90 15 1)" fill="#82AFFF"/>
<path d="M7.95214 3.12405L7.67446 3.95663L6.79684 3.96345C6.74875 3.96382 6.72878 4.02523 6.76749 4.05385L7.4735 4.57519L7.20877 5.41194C7.19427 5.45779 7.24649 5.4958 7.28561 5.46779L7.99958 4.95743L8.71364 5.46779C8.7528 5.49576 8.80502 5.45783 8.79048 5.41194L8.52575 4.57519L9.23176 4.05385C9.27047 4.02527 9.2505 3.96386 9.20241 3.96345L8.32479 3.95663L8.04711 3.12405C8.03192 3.07844 7.96733 3.07844 7.95214 3.12405Z" fill="white"/>
<path d="M7.95214 10.5577L7.67446 11.3903L6.79684 11.3971C6.74875 11.3974 6.72878 11.4589 6.76749 11.4875L7.4735 12.0088L7.20877 12.8456C7.19427 12.8914 7.24649 12.9294 7.28561 12.9014L7.99958 12.3911L8.71364 12.9014C8.7528 12.9294 8.80502 12.8915 8.79048 12.8456L8.52575 12.0088L9.23176 11.4875C9.27047 11.4589 9.2505 11.3975 9.20241 11.3971L8.32479 11.3903L8.04711 10.5577C8.03192 10.512 7.96733 10.512 7.95214 10.5577Z" fill="white"/>
<path d="M12.8762 7.95312L12.0437 7.67544L12.0368 6.79782C12.0365 6.74973 11.9751 6.72976 11.9464 6.76847L11.4251 7.47448L10.5884 7.20974C10.5425 7.19525 10.5045 7.24747 10.5325 7.28659L11.0429 8.00056L10.5325 8.71462C10.5045 8.75377 10.5425 8.80599 10.5884 8.79146L11.4251 8.52672L11.9464 9.23274C11.975 9.27144 12.0364 9.25148 12.0368 9.20338L12.0437 8.32576L12.8762 8.04809C12.9219 8.0329 12.9219 7.96831 12.8762 7.95312Z" fill="white"/>
<path d="M3.12356 7.95312L3.95614 7.67544L3.96296 6.79782C3.96333 6.74973 4.02474 6.72976 4.05336 6.76847L4.5747 7.47448L5.41145 7.20974C5.4573 7.19525 5.49532 7.24747 5.46731 7.28659L4.95695 8.0006L5.46731 8.71466C5.49528 8.75381 5.45734 8.80604 5.41145 8.7915L4.5747 8.52677L4.05336 9.23278C4.02478 9.27149 3.96337 9.25152 3.96296 9.20342L3.95614 8.32581L3.12356 8.04813C3.07795 8.0329 3.07795 7.96831 3.12356 7.95312Z" fill="white"/>
</svg>
