<svg width="16" height="16" viewBox="0 0 16 16" fill="none" xmlns="http://www.w3.org/2000/svg">
<g clip-path="url(#clip0_5367_191936)">
<rect x="15" y="1" width="14" height="14" rx="2" transform="rotate(90 15 1)" fill="#41479B"/>
<path d="M15.7241 15H0.275874C0.123531 15 0 14.835 0 14.6315V1.36844C0 1.16498 0.123531 1 0.275874 1H15.7241C15.8764 1 16 1.16498 16 1.36844V14.6315C15.9999 14.835 15.8764 15 15.7241 15Z" fill="#41479B"/>
<path d="M15.9999 1.36844C15.9999 1.16498 15.8764 1 15.7241 1H14.4898L9.37924 5.47178V1H6.62063V5.47178L1.51006 1H0.275874C0.123531 1 0 1.16498 0 1.36844V2.32129L4.38464 6.15786H0V9.84206H4.38464L0 13.6787V14.6315C0 14.835 0.123531 15 0.275874 15H1.51009L6.62069 10.5282V15H9.37931V10.5282L14.4899 15H15.7241C15.8765 15 16 14.835 16 14.6315V13.6787L11.6154 9.8421H15.9999V6.1579H11.6153L15.9999 2.32129V1.36844Z" fill="white"/>
<path d="M15.9999 6.89473H8.82756V1H7.17238V6.89473H0V9.10522H7.17238V15H8.82756V9.10522H15.9999V6.89473Z" fill="#FF334B"/>
<path d="M5.32794 9.8418L-0.256348 14.6829C-0.236816 14.8608 -0.126973 14.9997 0.0116825 14.9997H0.39165L6.34131 9.84184H5.32794V9.8418V9.8418Z" fill="#FF334B"/>
<path d="M10.8249 9.8418H9.81152L15.7525 14.9921C15.891 14.9724 16.0003 14.8214 16.0003 14.6312V14.3283L10.8249 9.8418Z" fill="#FF334B"/>
<path d="M0.272461 1.77437L5.32804 6.15712H6.34141L0.433179 1.03516C0.338804 1.09371 0.272461 1.21954 0.272461 1.36766V1.77437Z" fill="#FF334B"/>
<path d="M10.6135 6.15786L16.2112 1.30504C16.1879 1.13301 16.0804 1 15.9449 1H15.5497L9.6001 6.15786H10.6135Z" fill="#FF334B"/>
</g>
<defs>
<clipPath id="clip0_5367_191936">
<rect x="15" y="1" width="14" height="14" rx="2" transform="rotate(90 15 1)" fill="white"/>
</clipPath>
</defs>
</svg>
