<svg width="16" height="16" viewBox="0 0 16 16" fill="none" xmlns="http://www.w3.org/2000/svg">
<g clip-path="url(#clip0_5367_191907)">
<rect x="15" y="1" width="14" height="14" rx="2" transform="rotate(90 15 1)" fill="white"/>
<path d="M16 6.89574H9.10342V2.75781H6.89652V6.89574H0V9.10261H6.89652V13.2405H9.10342V9.10261H16V6.89574Z" fill="#FF334B"/>
<path d="M11.3096 8.82706V7.17188L10.8958 7.58569H5.10275L4.68896 7.17188V8.82706L5.10275 8.41325H10.8958L11.3096 8.82706Z" fill="#F8CB32"/>
<path d="M7.17188 11.3101H8.82703L8.41325 10.8963V5.10326L8.82703 4.68945H7.17188L7.58566 5.10326V10.8963L7.17188 11.3101Z" fill="#F8CB32"/>
</g>
<defs>
<clipPath id="clip0_5367_191907">
<rect x="15" y="1" width="14" height="14" rx="2" transform="rotate(90 15 1)" fill="white"/>
</clipPath>
</defs>
</svg>
