<svg width="16" height="16" viewBox="0 0 16 16" fill="none" xmlns="http://www.w3.org/2000/svg">
<g clip-path="url(#clip0_5367_191883)">
<rect x="1" y="1" width="14" height="14" rx="2" fill="white"/>
<path d="M0 8H16V14.6316C16 14.835 15.8764 15 15.7241 15H0.275874C0.123531 15 0 14.835 0 14.6316V8Z" fill="#FF334B"/>
<path d="M6.34007 3.58984C3.90481 3.58984 1.93066 5.56403 1.93066 7.99925H10.7494C10.7494 5.56403 8.77534 3.58984 6.34007 3.58984Z" fill="#FF334B"/>
<path d="M6.34105 12.4094C8.77631 12.4094 10.7505 10.4352 10.7505 8H1.93164C1.93164 10.4353 3.90583 12.4094 6.34105 12.4094Z" fill="white"/>
</g>
<defs>
<clipPath id="clip0_5367_191883">
<rect x="1" y="1" width="14" height="14" rx="2" fill="white"/>
</clipPath>
</defs>
</svg>
