<svg width="16" height="16" viewBox="0 0 16 16" fill="none" xmlns="http://www.w3.org/2000/svg">
<g clip-path="url(#clip0_5367_191861)">
<rect x="1" y="1" width="14" height="14" rx="2" fill="white"/>
<path d="M15 1H1V2.5H15V1Z" fill="#41479B"/>
<path d="M15 3.5H1V5H15V3.5Z" fill="#41479B"/>
<path d="M7 1H1V7H7V1Z" fill="#41479B"/>
<path d="M15 11H1V12.5H15V11Z" fill="#41479B"/>
<path d="M15 13.5H1V15H15V13.5Z" fill="#41479B"/>
<path d="M15 6H1V7.5H15V6Z" fill="#41479B"/>
<path d="M15 8.5H1V10H15V8.5Z" fill="#41479B"/>
<path d="M7 3.6H4.63333V1H3.36667V3.6H1V4.9H3.36667V7.5H4.63333V4.9H7V3.6Z" fill="white"/>
</g>
<defs>
<clipPath id="clip0_5367_191861">
<rect x="1" y="1" width="14" height="14" rx="2" fill="white"/>
</clipPath>
</defs>
</svg>
