<svg width="16" height="16" viewBox="0 0 16 16" fill="none" xmlns="http://www.w3.org/2000/svg">
<g clip-path="url(#clip0_5367_191787)">
<rect x="15" y="1" width="14" height="14" rx="2" transform="rotate(90 15 1)" fill="#464655"/>
<path d="M15 1.24139L15 14.7586C15 14.8919 14.835 15 14.6316 15L10.3333 15L10.3333 1L14.6316 1C14.835 1 15 1.10809 15 1.24139Z" fill="#82AFFF"/>
<path d="M10.3335 15L10.3335 1L5.66683 1L5.66683 15L10.3335 15Z" fill="white"/>
<path d="M7.93016 6.5957L7.77197 6.67483L7.9175 6.73489L7.93016 6.5957Z" fill="#FFC855"/>
<path d="M8.00023 9.51795C7.12101 9.51795 6.40576 8.80264 6.40576 7.92348C6.40576 7.3773 6.68067 6.87511 7.1411 6.58008L7.18204 6.64402C6.74348 6.92505 6.4817 7.40336 6.4817 7.92348C6.4817 8.76083 7.16295 9.44205 8.00026 9.44205L8.00023 9.51795Z" fill="#73AF00"/>
<path d="M7.0874 9.61759C7.14815 9.62996 7.24187 9.61393 7.33812 9.56912C7.4344 9.52424 7.50693 9.46281 7.53653 9.40834C7.47578 9.39596 7.38206 9.41199 7.28581 9.45681C7.18959 9.50171 7.11703 9.56312 7.0874 9.61759Z" fill="#73AF00"/>
<path d="M7.53702 9.40811C7.54939 9.34736 7.53336 9.25364 7.48855 9.15739C7.44368 9.06111 7.38224 8.98858 7.32777 8.95898C7.31539 9.01973 7.33143 9.11345 7.37624 9.2097C7.42108 9.30589 7.48252 9.37845 7.53702 9.40811Z" fill="#73AF00"/>
<path d="M6.77002 9.42263C6.8283 9.44382 6.92336 9.4417 7.02514 9.41151C7.12693 9.38129 7.20774 9.33113 7.24502 9.2816C7.18674 9.26042 7.09168 9.26254 6.98989 9.29273C6.88811 9.32295 6.8073 9.37307 6.77002 9.42263Z" fill="#73AF00"/>
<path d="M7.2449 9.28164C7.26609 9.22336 7.26396 9.1283 7.23377 9.02652C7.20352 8.9247 7.1534 8.84392 7.10387 8.80664C7.08268 8.86492 7.08481 8.95998 7.11499 9.06177C7.14521 9.16358 7.19537 9.24439 7.2449 9.28164Z" fill="#73AF00"/>
<path d="M6.47607 9.15658C6.52961 9.18786 6.62348 9.20289 6.72907 9.19146C6.83467 9.18002 6.92314 9.14518 6.9687 9.10314C6.91517 9.07186 6.82129 9.05683 6.7157 9.06827C6.61011 9.07971 6.52164 9.11455 6.47607 9.15658Z" fill="#73AF00"/>
<path d="M6.96859 9.10395C6.99987 9.05042 7.01491 8.95655 7.00347 8.85095C6.99203 8.74536 6.95719 8.65689 6.91516 8.61133C6.88388 8.66486 6.86884 8.75873 6.88028 8.86433C6.89172 8.96992 6.92656 9.05842 6.96859 9.10395Z" fill="#73AF00"/>
<path d="M6.2334 8.79023C6.28052 8.83051 6.37027 8.86191 6.47621 8.86932C6.58215 8.87673 6.67543 8.85813 6.72768 8.82485C6.68055 8.78457 6.5908 8.75316 6.48487 8.74576C6.37893 8.73835 6.28568 8.75694 6.2334 8.79023Z" fill="#73AF00"/>
<path d="M6.72725 8.82436C6.76753 8.77723 6.79894 8.68748 6.80634 8.58155C6.81375 8.47561 6.79516 8.38233 6.76187 8.33008C6.72159 8.3772 6.69019 8.46695 6.68278 8.57289C6.67534 8.67886 6.69394 8.77208 6.72725 8.82436Z" fill="#73AF00"/>
<path d="M6.09082 8.38578C6.12845 8.43506 6.20954 8.48466 6.31157 8.51419C6.4136 8.54372 6.50863 8.54515 6.56679 8.52359C6.52916 8.47431 6.44807 8.42472 6.34604 8.39519C6.24401 8.36566 6.14895 8.36419 6.09082 8.38578Z" fill="#73AF00"/>
<path d="M6.56691 8.52284C6.61619 8.48522 6.66578 8.40413 6.69531 8.30209C6.72488 8.20006 6.72628 8.10503 6.70472 8.04688C6.65544 8.0845 6.60584 8.16559 6.57631 8.26763C6.54678 8.36969 6.54538 8.46469 6.56691 8.52284Z" fill="#73AF00"/>
<path d="M6.03076 7.91292C6.05445 7.97023 6.12007 8.03898 6.21107 8.0938C6.30207 8.14858 6.39354 8.17442 6.45529 8.16852C6.43161 8.1112 6.36598 8.04245 6.27498 7.98764C6.18401 7.93286 6.09248 7.90708 6.03076 7.91292Z" fill="#73AF00"/>
<path d="M6.45542 8.16867C6.51273 8.14499 6.58148 8.07936 6.63629 7.98836C6.69107 7.89736 6.71692 7.80589 6.71101 7.74414C6.6537 7.76783 6.58495 7.83345 6.53013 7.92445C6.47538 8.01549 6.44951 8.10695 6.45542 8.16867Z" fill="#73AF00"/>
<path d="M6.08789 7.4668C6.09902 7.5278 6.1488 7.6088 6.22627 7.68145C6.30373 7.75411 6.38783 7.79852 6.44936 7.80573C6.43823 7.74473 6.38845 7.66373 6.31098 7.59108C6.23352 7.51845 6.14948 7.47398 6.08789 7.4668Z" fill="#73AF00"/>
<path d="M6.44922 7.80678C6.51022 7.79566 6.59122 7.74588 6.66387 7.66841C6.73653 7.59094 6.78094 7.50684 6.78816 7.44531C6.72716 7.45644 6.64616 7.50622 6.5735 7.58369C6.50084 7.66113 6.45638 7.74516 6.44922 7.80678Z" fill="#73AF00"/>
<path d="M6.31194 6.98438C6.29919 7.04503 6.3146 7.13884 6.35885 7.23541C6.4031 7.33197 6.46409 7.40488 6.51838 7.43484C6.53113 7.37419 6.51572 7.28037 6.47147 7.18381C6.42722 7.08722 6.36622 7.01428 6.31194 6.98438Z" fill="#73AF00"/>
<path d="M6.51807 7.43537C6.57872 7.44812 6.67253 7.43271 6.7691 7.38846C6.86566 7.34421 6.93857 7.28321 6.96853 7.22893C6.90788 7.21618 6.81407 7.23159 6.7175 7.27584C6.62094 7.32009 6.548 7.38109 6.51807 7.43537Z" fill="#73AF00"/>
<path d="M6.57961 6.62695C6.55101 6.68195 6.54064 6.77648 6.55729 6.88136C6.57395 6.98627 6.61307 7.07292 6.65732 7.11633C6.68592 7.06133 6.69629 6.9668 6.67964 6.86192C6.66298 6.75705 6.62382 6.67039 6.57961 6.62695Z" fill="#73AF00"/>
<path d="M6.65723 7.11777C6.71223 7.14637 6.80676 7.15674 6.91163 7.14009C7.01654 7.12343 7.1032 7.08431 7.1466 7.04006C7.0916 7.01146 6.99707 7.00109 6.8922 7.01774C6.78729 7.0344 6.70063 7.07352 6.65723 7.11777Z" fill="#73AF00"/>
<path d="M6.84228 6.37891C6.8059 6.42913 6.78172 6.52103 6.78275 6.62725C6.78378 6.73347 6.80975 6.82491 6.84709 6.87438C6.88346 6.82416 6.90765 6.73225 6.90662 6.62603C6.90559 6.51984 6.87965 6.42834 6.84228 6.37891Z" fill="#73AF00"/>
<path d="M6.84717 6.87492C6.89739 6.9113 6.98929 6.93548 7.09551 6.93445C7.20173 6.93342 7.29317 6.90745 7.34264 6.87011C7.29242 6.83373 7.20051 6.80955 7.09429 6.81058C6.98811 6.81161 6.89667 6.83761 6.84717 6.87492Z" fill="#73AF00"/>
<path d="M6.97461 6.74457C7.03639 6.74957 7.12755 6.72248 7.21773 6.66638C7.30795 6.61032 7.37261 6.54063 7.39548 6.48301C7.3337 6.47801 7.24255 6.5051 7.15236 6.5612C7.06217 6.61723 6.99752 6.68691 6.97461 6.74457Z" fill="#73AF00"/>
<path d="M8 9.51798V9.44205C8.83731 9.44205 9.51856 8.76083 9.51856 7.92348C9.51856 7.40336 9.25675 6.92502 8.81822 6.64402L8.85916 6.58008C9.31959 6.87511 9.5945 7.37733 9.5945 7.92348C9.59447 8.80264 8.87922 9.51798 8 9.51798Z" fill="#73AF00"/>
<path d="M8.9125 9.61759C8.85175 9.62996 8.75803 9.61393 8.66178 9.56912C8.5655 9.52424 8.49297 9.46281 8.46338 9.40834C8.52413 9.39596 8.61785 9.41199 8.7141 9.45681C8.81032 9.50171 8.88288 9.56312 8.9125 9.61759Z" fill="#73AF00"/>
<path d="M8.46351 9.40811C8.45114 9.34736 8.46717 9.25364 8.51198 9.15739C8.55686 9.06111 8.61829 8.98858 8.67276 8.95898C8.68514 9.01973 8.6691 9.11345 8.62429 9.2097C8.57945 9.30589 8.51801 9.37845 8.46351 9.40811Z" fill="#73AF00"/>
<path d="M9.23037 9.42263C9.17209 9.44382 9.07703 9.4417 8.97525 9.41151C8.87347 9.38129 8.79265 9.33113 8.75537 9.2816C8.81365 9.26042 8.90871 9.26254 9.0105 9.29273C9.11228 9.32295 9.19309 9.37307 9.23037 9.42263Z" fill="#73AF00"/>
<path d="M8.75522 9.28164C8.73407 9.22336 8.73616 9.1283 8.76635 9.02652C8.7966 8.9247 8.84672 8.84392 8.89625 8.80664C8.91744 8.86492 8.91532 8.95998 8.88513 9.06177C8.85494 9.16358 8.80479 9.24439 8.75522 9.28164Z" fill="#73AF00"/>
<path d="M9.52388 9.15658C9.47034 9.18786 9.37647 9.20289 9.27088 9.19146C9.16528 9.18002 9.07681 9.14518 9.03125 9.10314C9.08478 9.07186 9.17866 9.05683 9.28425 9.06827C9.38984 9.07971 9.47831 9.11455 9.52388 9.15658Z" fill="#73AF00"/>
<path d="M9.03137 9.10395C9.00009 9.05042 8.98506 8.95655 8.99649 8.85095C9.00793 8.74536 9.04277 8.65689 9.0848 8.61133C9.11609 8.66486 9.13112 8.75873 9.11968 8.86433C9.10824 8.96992 9.0734 9.05842 9.03137 9.10395Z" fill="#73AF00"/>
<path d="M9.76723 8.79023C9.72011 8.83051 9.63036 8.86191 9.52442 8.86932C9.41848 8.87673 9.32523 8.85813 9.27295 8.82485C9.32007 8.78457 9.40982 8.75316 9.51576 8.74576C9.6217 8.73835 9.71495 8.75694 9.76723 8.79023Z" fill="#73AF00"/>
<path d="M9.27261 8.82436C9.23232 8.77723 9.20092 8.68748 9.19351 8.58155C9.1861 8.47561 9.2047 8.38233 9.23798 8.33008C9.27826 8.3772 9.30967 8.46695 9.31707 8.57289C9.32451 8.67886 9.30592 8.77208 9.27261 8.82436Z" fill="#73AF00"/>
<path d="M9.90908 8.38578C9.87145 8.43506 9.79036 8.48466 9.68833 8.51419C9.58633 8.54375 9.49126 8.54515 9.43311 8.52359C9.47073 8.47431 9.55182 8.42472 9.65386 8.39519C9.75589 8.36566 9.85095 8.36419 9.90908 8.38578Z" fill="#73AF00"/>
<path d="M9.43326 8.52284C9.38398 8.48522 9.33438 8.40413 9.30485 8.30209C9.27529 8.20006 9.27388 8.10503 9.29545 8.04688C9.34473 8.0845 9.39432 8.16559 9.42385 8.26763C9.45338 8.36969 9.45479 8.46469 9.43326 8.52284Z" fill="#73AF00"/>
<path d="M9.96945 7.91292C9.94577 7.97023 9.88014 8.03898 9.78914 8.0938C9.69814 8.14858 9.60667 8.17442 9.54492 8.16852C9.56861 8.1112 9.63423 8.04245 9.72523 7.98764C9.8162 7.93286 9.90773 7.90708 9.96945 7.91292Z" fill="#73AF00"/>
<path d="M9.545 8.16867C9.48768 8.14499 9.41893 8.07936 9.36412 7.98836C9.30934 7.89736 9.28349 7.80589 9.2894 7.74414C9.34671 7.76783 9.41546 7.83345 9.47028 7.92445C9.52509 8.01549 9.5509 8.10695 9.545 8.16867Z" fill="#73AF00"/>
<path d="M9.91225 7.4668C9.90112 7.5278 9.85134 7.6088 9.77388 7.68145C9.69641 7.75411 9.61231 7.79852 9.55078 7.80573C9.56191 7.74473 9.61169 7.66373 9.68916 7.59108C9.76662 7.51842 9.85066 7.47398 9.91225 7.4668Z" fill="#73AF00"/>
<path d="M9.55085 7.80678C9.48985 7.79566 9.40885 7.74588 9.33619 7.66841C9.26354 7.59094 9.21913 7.50684 9.21191 7.44531C9.27291 7.45644 9.35391 7.50622 9.42657 7.58369C9.49923 7.66113 9.54369 7.74516 9.55085 7.80678Z" fill="#73AF00"/>
<path d="M9.6883 6.98438C9.70105 7.04503 9.68564 7.13884 9.64139 7.23541C9.59714 7.33197 9.53614 7.40488 9.48186 7.43484C9.46911 7.37419 9.48452 7.28037 9.52877 7.18381C9.57302 7.08722 9.63402 7.01428 9.6883 6.98438Z" fill="#73AF00"/>
<path d="M9.48172 7.43537C9.42106 7.44812 9.32725 7.43271 9.23069 7.38846C9.13412 7.34421 9.06122 7.28321 9.03125 7.22893C9.09191 7.21618 9.18572 7.23159 9.28228 7.27584C9.37884 7.32009 9.45178 7.38109 9.48172 7.43537Z" fill="#73AF00"/>
<path d="M9.42051 6.62695C9.4491 6.68195 9.45948 6.77648 9.44282 6.88136C9.42616 6.98627 9.38704 7.07292 9.34279 7.11633C9.3142 7.06133 9.30382 6.9668 9.32048 6.86192C9.33713 6.75705 9.37629 6.67039 9.42051 6.62695Z" fill="#73AF00"/>
<path d="M9.34289 7.11777C9.28789 7.14637 9.19336 7.15674 9.08848 7.14009C8.98358 7.12343 8.89692 7.08431 8.85352 7.04006C8.90852 7.01146 9.00305 7.00109 9.10792 7.01774C9.21283 7.0344 9.29948 7.07352 9.34289 7.11777Z" fill="#73AF00"/>
<path d="M9.15764 6.37891C9.19401 6.42913 9.2182 6.52103 9.21717 6.62725C9.21614 6.73347 9.19017 6.82491 9.15283 6.87438C9.11645 6.82416 9.09226 6.73225 9.09329 6.62603C9.09432 6.51984 9.12026 6.42834 9.15764 6.37891Z" fill="#73AF00"/>
<path d="M9.15318 6.87492C9.10296 6.9113 9.01106 6.93548 8.90484 6.93445C8.79862 6.93342 8.70718 6.90745 8.65771 6.87011C8.70793 6.83373 8.79984 6.80955 8.90606 6.81058C9.01228 6.81161 9.10368 6.83761 9.15318 6.87492Z" fill="#73AF00"/>
<path d="M9.02537 6.74457C8.96359 6.74957 8.87243 6.72248 8.78224 6.66638C8.69202 6.61032 8.62737 6.54063 8.60449 6.48301C8.66627 6.47801 8.75743 6.5051 8.84762 6.5612C8.93781 6.61723 9.00246 6.68691 9.02537 6.74457Z" fill="#73AF00"/>
<path d="M7.12945 9.16486L6.85308 9.44124L6.7168 9.16864L7.12567 8.75977L7.26195 8.89605L7.22258 9.01414C7.20364 9.07095 7.17177 9.12255 7.12945 9.16486Z" fill="#966446"/>
<path d="M8.625 7.125L7.12587 8.62412C7.08825 8.66175 7.08825 8.72278 7.12587 8.76041L7.194 8.82853L7.46659 8.55594L8.55687 7.32934L8.69316 7.19306L8.625 7.125Z" fill="#B9B9B9"/>
<path d="M7.49456 8.39022C7.4765 8.40828 7.46631 8.43281 7.46631 8.45834V8.55472L8.55659 7.32812L7.49456 8.39022Z" fill="#966446"/>
<path d="M8.69292 7.19286L8.6248 7.12473L8.55664 7.19286L8.6248 7.26105L8.69292 7.3292L9.44252 6.44336L8.69292 7.19286Z" fill="#A0A0A0"/>
<path d="M8.94646 9.16486L9.22284 9.44124L9.35912 9.16864L8.95025 8.75977L8.81396 8.89605L8.85334 9.01414C8.87228 9.07095 8.90415 9.12255 8.94646 9.16486Z" fill="#966446"/>
<path d="M7.45097 7.125L8.95009 8.62412C8.98772 8.66175 8.98772 8.72278 8.95009 8.76041L8.88197 8.82853L8.60938 8.55594L7.51909 7.32934L7.38281 7.19306L7.45097 7.125Z" fill="#B9B9B9"/>
<path d="M8.58107 8.39022C8.59914 8.40828 8.60932 8.43281 8.60932 8.45834V8.55472L7.51904 7.32812L8.58107 8.39022Z" fill="#966446"/>
<path d="M7.38289 7.19286L7.45102 7.12473L7.51918 7.19286L7.45102 7.26105L7.38289 7.3292L6.6333 6.44336L7.38289 7.19286Z" fill="#A0A0A0"/>
<path d="M7.47852 9.10908L7.54623 9.17083C7.7933 8.89995 8.22564 8.42592 8.91102 7.81055C8.91105 7.81058 8.34323 8.16108 7.47852 9.10908Z" fill="#B9B9B9"/>
<path d="M7.287 9.38579C7.26269 9.3636 7.26097 9.32591 7.28313 9.3016L7.42825 9.14247C7.45044 9.11816 7.48813 9.11644 7.51244 9.1386C7.53675 9.16079 7.53847 9.19847 7.51632 9.22279L7.37119 9.38191C7.349 9.40626 7.31132 9.40801 7.287 9.38579Z" fill="#F8CB32"/>
<path d="M7.42375 9.05859L7.38444 9.07613C7.34947 9.09353 7.25747 9.14556 7.24163 9.21972C7.23406 9.25484 7.24472 9.28906 7.272 9.32144C7.2746 9.31475 7.27813 9.30825 7.28328 9.30266L7.30156 9.28263C7.28922 9.26469 7.28266 9.24706 7.28638 9.22937C7.29631 9.183 7.35819 9.14159 7.39706 9.12106L7.57094 9.27966L7.61419 9.23225L7.42375 9.05859Z" fill="#FFC855"/>
<path d="M8.59656 9.1833L8.52884 9.24505C8.28178 8.97417 7.84944 8.50014 7.16406 7.88477C7.16403 7.8848 7.73184 8.23523 8.59656 9.1833Z" fill="#B9B9B9"/>
<path d="M8.78832 9.46196C8.81263 9.43977 8.81435 9.40208 8.7922 9.37777L8.64707 9.21865C8.62488 9.19433 8.5872 9.19261 8.56288 9.21477C8.53857 9.23696 8.53685 9.27465 8.55901 9.29896L8.70413 9.45808C8.72632 9.48243 8.76401 9.48415 8.78832 9.46196Z" fill="#F8CB32"/>
<path d="M8.65137 9.13281L8.69069 9.15034C8.72566 9.16775 8.81766 9.21978 8.8335 9.29394C8.84106 9.32906 8.83041 9.36328 8.80313 9.39566C8.80053 9.38897 8.797 9.3825 8.79184 9.37687L8.77356 9.35684C8.78591 9.33891 8.79247 9.32128 8.78875 9.30359C8.77881 9.25722 8.71694 9.21581 8.67806 9.19528L8.50419 9.35388L8.46094 9.30647L8.65137 9.13281Z" fill="#FFC855"/>
<path d="M8.06755 6.676C8.07286 6.66281 8.07596 6.64853 8.07596 6.63344C8.07596 6.57053 8.02496 6.51953 7.96205 6.51953C7.89914 6.51953 7.84814 6.57053 7.84814 6.63344C7.84814 6.67091 7.86649 6.70387 7.89446 6.72466C7.85327 7.05544 8.17943 7.08072 8.30371 7.12697C8.49227 7.19709 8.7288 7.33906 8.71393 7.73584C8.69949 8.12153 8.45558 8.49369 8.45558 8.49369L8.65805 8.21844C8.58402 8.53156 8.41114 8.93044 8.00002 9.40478C8.00002 9.40478 8.28111 9.12981 8.51568 8.77522C8.34308 9.18125 8.15186 9.55663 8.15186 9.55663C8.15186 9.55663 8.49039 9.11688 8.76405 8.35603C9.0958 7.43359 8.39793 6.87941 8.06755 6.676Z" fill="#69B469"/>
<path d="M7.77247 8.03711H7.46875V8.18898H7.77247V8.03711Z" fill="#F4E08F"/>
<path d="M7.46877 8.34086C7.55265 8.34086 7.62064 8.27286 7.62064 8.18898C7.62064 8.10511 7.55265 8.03711 7.46877 8.03711C7.38489 8.03711 7.31689 8.10511 7.31689 8.18898C7.31689 8.27286 7.38489 8.34086 7.46877 8.34086Z" fill="#ECD077"/>
<path d="M7.46877 7.35453C7.55265 7.35453 7.62064 7.28653 7.62064 7.20266C7.62064 7.11878 7.55265 7.05078 7.46877 7.05078C7.38489 7.05078 7.31689 7.11878 7.31689 7.20266C7.31689 7.28653 7.38489 7.35453 7.46877 7.35453Z" fill="#ECD077"/>
<path d="M8.37989 7.35453C8.46377 7.35453 8.53177 7.28653 8.53177 7.20266C8.53177 7.11878 8.46377 7.05078 8.37989 7.05078H7.46877C7.55264 7.05078 7.62064 7.11878 7.62064 7.20266C7.62064 7.28653 7.55264 7.35453 7.46877 7.35453C7.38489 7.35453 7.31689 7.28653 7.31689 7.20266C7.31689 7.45756 7.53021 7.76575 7.59899 8.03787C7.59899 8.03787 7.62061 8.10587 7.62061 8.18975C7.62061 8.27362 7.55261 8.34162 7.46874 8.34162H8.37986C8.46374 8.34162 8.53174 8.27362 8.53174 8.18975C8.53174 7.93484 8.31843 7.62666 8.24964 7.35453H8.37989Z" fill="#FCF0A8"/>
<path d="M7.62063 7.20312C7.62063 7.287 7.55263 7.355 7.46875 7.355H8.37988C8.46375 7.355 8.53175 7.287 8.53175 7.20312H7.62063Z" fill="#F4E08F"/>
<path d="M7.62062 8.18945C7.62062 8.27333 7.55262 8.34133 7.46875 8.34133H8.37987C8.46375 8.34133 8.53175 8.27333 8.53175 8.18945H7.62062Z" fill="#F4E08F"/>
<path d="M5.6665 1L5.6665 15L1.36828 15C1.16482 15 0.999837 14.8919 0.999837 14.7586L0.999837 1.24139C0.999837 1.10809 1.16482 1 1.36828 1L5.6665 1Z" fill="#82AFFF"/>
</g>
<defs>
<clipPath id="clip0_5367_191787">
<rect x="15" y="1" width="14" height="14" rx="2" transform="rotate(90 15 1)" fill="white"/>
</clipPath>
</defs>
</svg>
