<svg width="16" height="16" viewBox="0 0 16 16" fill="none" xmlns="http://www.w3.org/2000/svg">
<rect x="1" y="1" width="14" height="14" rx="2" fill="#41479B"/>
<rect x="2.3" y="2.3" width="11.4" height="11.4" rx="0.7" stroke="#FF334B" stroke-width="0.6"/>
<path d="M7.99998 4.25586C6.57692 5.00457 5.61719 6.78775 5.61719 8.0003C5.61719 9.21284 6.57692 10.9961 7.99998 11.7447C9.42305 10.996 10.3828 9.21284 10.3828 8.0003C10.3828 6.78775 9.42309 5.00457 7.99998 4.25586Z" fill="#3CC8FF"/>
<path d="M8.30702 6.71783C8.53692 6.59665 8.92945 6.46329 9.37547 6.62698C9.37547 6.62698 8.94591 6.14847 8.34977 6.53832C8.51015 6.34384 8.751 6.10308 9.01182 6.03602C9.01182 6.03602 8.49276 5.84217 8.1787 6.53438C8.23953 6.18524 8.22846 5.63551 7.66571 5.31641C7.66571 5.31641 7.98036 5.99165 8.01128 6.55198C7.993 6.45256 7.95639 6.34863 7.85977 6.24785C7.56221 5.9374 7.30351 5.91152 7.30351 5.91152C7.30351 5.91152 7.71606 6.3687 7.91877 6.80123C7.802 6.6615 7.59619 6.48259 7.26469 6.49362C6.48846 6.51949 6.32031 6.98519 6.32031 6.98519C6.64209 6.84971 7.15275 6.78222 7.54864 6.81569C7.03755 6.90574 6.85596 7.54247 6.85596 7.54247C7.26635 7.03075 7.71428 6.94761 7.89311 6.93544C7.56641 7.20568 7.5863 7.70336 7.5863 7.70336C7.66223 7.42319 7.95635 7.10388 8.09968 6.96076C8.48559 7.37827 8.53128 7.84758 8.53128 7.84758C8.53128 7.84758 8.61573 7.70637 8.57679 7.41899C8.53997 7.14769 8.36971 6.96958 8.23979 6.86494C8.92118 6.95885 9.3658 7.4531 9.3658 7.4531C9.14289 6.80275 8.58498 6.71805 8.30702 6.71783Z" fill="#73AF00"/>
<path d="M7.23926 8.90531L7.58254 8.3124L10.4026 8.25L10.2153 9.03005L7.23926 8.90531Z" fill="#FF965A"/>
<path d="M5.71973 8.74805C6.0024 9.85739 6.84934 11.1384 7.99966 11.7436C9.14998 11.1384 9.99693 9.85739 10.2796 8.74805H5.71973Z" fill="#4173CD"/>
<path d="M6.12793 9.87246C6.12793 9.87246 6.94468 9.83203 7.43536 10.0335C7.55795 10.0838 7.57381 10.2494 7.4631 10.3223C7.22408 10.4795 6.87681 10.7502 6.87681 10.9958L6.12793 9.87246Z" fill="#F8CB32"/>
<path d="M7.56295 11.3705C7.53173 11.0584 7.80783 10.8315 8.187 10.684C8.67845 10.4929 8.40931 10.1886 8.16358 9.98973C7.87052 9.75254 8.24939 9.68552 9.84077 9.6543L9.06067 10.8713L7.99977 11.745L7.56295 11.3705Z" fill="#F8CB32"/>
<path d="M7.9998 11.9553L7.91259 11.9092C6.42747 11.1281 5.42969 9.25666 5.42969 7.99911C5.42969 6.74161 6.42739 4.87007 7.91259 4.08903L7.9998 4.04297L8.08701 4.08903C9.57217 4.87011 10.5699 6.74156 10.5699 7.99911C10.5699 9.25662 9.57217 11.1282 8.08701 11.9092L7.9998 11.9553ZM7.9998 4.46786C6.68248 5.21165 5.80415 6.87543 5.80415 7.99907C5.80415 9.12271 6.68248 10.7866 7.9998 11.5303C9.31711 10.7865 10.1954 9.12271 10.1954 7.99907C10.1954 6.87543 9.31716 5.21161 7.9998 4.46786Z" fill="#FF334B"/>
<path d="M8.79566 10.1376C8.77848 10.1376 8.7613 10.133 8.7459 10.1233C8.23706 9.80352 7.94531 9.27419 7.94531 8.67106V6.94713C7.94531 6.89542 7.98722 6.85352 8.03893 6.85352C8.09063 6.85352 8.13254 6.89542 8.13254 6.94713V8.67106C8.13254 9.2084 8.39235 9.67996 8.84537 9.96462C8.88927 9.99223 8.90242 10.05 8.87498 10.0937C8.85712 10.1221 8.82675 10.1376 8.79566 10.1376Z" fill="#A54B37"/>
<path d="M8.03878 7.15763C8.15188 7.15763 8.24357 7.06594 8.24357 6.95284C8.24357 6.83974 8.15188 6.74805 8.03878 6.74805C7.92567 6.74805 7.83398 6.83974 7.83398 6.95284C7.83398 7.06594 7.92567 7.15763 8.03878 7.15763Z" fill="#A54B37"/>
</svg>
