<svg width="16" height="16" viewBox="0 0 16 16" fill="none" xmlns="http://www.w3.org/2000/svg">
<g clip-path="url(#clip0_5367_191768)">
<rect x="15" y="1" width="14" height="14" rx="2" transform="rotate(90 15 1)" fill="#F8CB32"/>
<path d="M14.7586 15L1.24139 15C1.10809 15 1 14.7525 1 14.4473L1 8L15 8L15 14.4473C15 14.7525 14.8919 15 14.7586 15Z" fill="#73AF00"/>
<path d="M8 1L8 15L1.55266 15C1.24747 15 0.999999 14.8919 0.999999 14.7586L1 1.24139C1 1.10809 1.24747 1 1.55266 1L8 1Z" fill="#FF334B"/>
<path d="M4.44776 6.73083L4.14367 7.6427L3.18245 7.65014C3.12976 7.65054 3.10789 7.7178 3.15032 7.74911L3.92357 8.32011L3.63364 9.23654C3.61773 9.28679 3.67495 9.32832 3.71782 9.29773L4.49982 8.73879L5.28182 9.29776C5.32469 9.32842 5.38188 9.28682 5.36601 9.2366L5.07607 8.32017L5.84932 7.74917C5.89169 7.71786 5.86988 7.65061 5.81719 7.6502L4.85598 7.64276L4.55188 6.73089C4.53513 6.68086 4.46445 6.68086 4.44776 6.73083Z" fill="#464655"/>
</g>
<defs>
<clipPath id="clip0_5367_191768">
<rect x="15" y="1" width="14" height="14" rx="2" transform="rotate(90 15 1)" fill="white"/>
</clipPath>
</defs>
</svg>
