<svg width="16" height="16" viewBox="0 0 16 16" fill="none" xmlns="http://www.w3.org/2000/svg">
<rect x="1" y="1" width="14" height="14" rx="2" fill="#FF334B"/>
<path d="M6.79197 8.56792C6.30177 8.57298 5.75131 8.41599 5.26899 7.88433C5.23573 7.84768 5.2404 7.78993 5.27819 7.7579L5.27833 7.75777C5.31498 7.72672 5.36916 7.73152 5.40154 7.76707C6.13675 8.57439 7.048 8.43303 7.59243 8.23798C7.39129 8.24692 7.13857 8.23181 6.97602 8.12498C6.29697 7.67861 6.60453 7.20374 6.15354 6.62971C5.7054 6.05933 5.30216 6.0733 4.6672 6.16955C4.03859 6.26479 3.83834 5.8037 3.776 5.54781C3.76486 5.50195 3.7009 5.49909 3.68451 5.54327C2.90101 7.66011 5.25687 10.2794 7.6756 8.39607C7.43693 8.48396 7.12954 8.56448 6.79197 8.56792ZM5.02697 7.84957C5.01323 7.88737 4.95926 7.88587 4.94759 7.84737L4.85737 7.55007L4.54686 7.53919C4.50664 7.53778 4.4914 7.48602 4.52439 7.46303L4.77927 7.28537L4.69368 6.98665C4.68258 6.94802 4.72711 6.91749 4.75918 6.94172L5.00693 7.1292L5.26454 6.95547C5.29789 6.93296 5.3407 6.96586 5.32749 7.00388L5.22573 7.29744L5.47057 7.48875C5.50224 7.51355 5.48418 7.56439 5.44396 7.56359L5.13331 7.55751L5.02697 7.84957Z" fill="white"/>
<path d="M8.52684 7.16211C8.91607 6.8641 9.45068 6.65961 10.1555 6.79573C10.2041 6.80511 10.235 6.8541 10.224 6.90238L10.224 6.90256C10.2133 6.94943 10.167 6.97806 10.1198 6.96898C9.0473 6.76384 8.40283 7.42346 8.08421 7.90604C8.2398 7.77825 8.45111 7.63878 8.64525 7.62685C9.45632 7.57676 9.49495 8.14128 10.2002 8.33012C10.9008 8.51774 11.2151 8.2648 11.6656 7.80697C12.1115 7.35373 12.5483 7.60262 12.7516 7.77001C12.788 7.80001 12.8409 7.76398 12.8275 7.71878C12.1849 5.55498 8.72886 4.87188 7.92285 7.82948C8.06104 7.61614 8.25879 7.36734 8.52684 7.16211ZM10.37 6.67847C10.3584 6.63997 10.4025 6.60878 10.4349 6.63257L10.6853 6.81635L10.9404 6.63882C10.9734 6.61583 11.0166 6.64812 11.0041 6.68631L10.9067 6.98136L11.1543 7.16902C11.1863 7.19334 11.169 7.24448 11.1288 7.24426L10.8181 7.24281L10.7162 7.53632C10.703 7.57434 10.649 7.57363 10.6368 7.53535L10.5421 7.23942L10.2315 7.23316C10.1913 7.23232 10.1752 7.18083 10.2079 7.15735L10.4602 6.9759L10.37 6.67847Z" fill="white"/>
<path d="M7.22869 7.36648C7.03751 6.91505 6.97319 6.3463 7.28133 5.69796C7.30256 5.65324 7.35776 5.63558 7.40172 5.65835L7.4019 5.65844C7.44458 5.68051 7.46071 5.73249 7.44022 5.77593C6.97332 6.76303 7.45084 7.55198 7.83836 7.98118C7.75352 7.79854 7.6714 7.55912 7.70832 7.36811C7.86272 6.5703 8.41891 6.67404 8.77815 6.03847C9.1351 5.407 8.96876 5.03943 8.63815 4.48884C8.31085 3.94375 8.6611 3.5831 8.87405 3.42813C8.91215 3.40038 8.89052 3.34016 8.84343 3.34183C6.5877 3.42275 5.06185 6.5981 7.72383 8.11822C7.55181 7.931 7.36036 7.67735 7.22869 7.36648ZM7.22142 5.46092C7.1812 5.46259 7.16208 5.41211 7.19323 5.38669L7.43384 5.19013L7.32573 4.89882C7.31173 4.86111 7.35384 4.82728 7.38763 4.84904L7.64894 5.01714L7.89254 4.82433C7.92408 4.79935 7.96924 4.82891 7.95897 4.86785L7.87986 5.16828L8.13848 5.34039C8.17196 5.36268 8.15782 5.41475 8.11769 5.41704L7.80748 5.43462L7.72374 5.73381C7.7129 5.77253 7.65898 5.77518 7.6444 5.73769L7.53181 5.44814L7.22142 5.46092Z" fill="white"/>
<path d="M8.98712 8.39078C9.3923 8.66671 9.75441 9.11004 9.84647 9.82196C9.85286 9.87107 9.81599 9.91579 9.7667 9.9205H9.76643C9.71859 9.92508 9.67688 9.8901 9.67062 9.84248C9.52855 8.75984 8.69986 8.35518 8.1416 8.20422C8.31177 8.31179 8.51053 8.46861 8.58291 8.64918C8.88519 9.40347 8.36142 9.61752 8.40357 10.3463C8.44547 11.0705 8.78444 11.2894 9.36054 11.5733C9.93087 11.8543 9.8318 12.3471 9.73665 12.5927C9.71965 12.6367 9.77044 12.6756 9.80912 12.6487C11.6616 11.359 11.2247 7.86335 8.16358 8.02704C8.40987 8.09123 8.70814 8.20078 8.98712 8.39078ZM10.0253 9.98878C10.0582 9.96561 10.1016 9.99768 10.0892 10.0359L9.99338 10.3315L10.242 10.5178C10.2742 10.5419 10.2572 10.5932 10.2169 10.5932L9.90625 10.5934L9.80586 10.8874C9.79286 10.9255 9.73886 10.9251 9.72643 10.8869L9.63023 10.5914L9.31958 10.5868C9.27931 10.5862 9.26306 10.5347 9.29557 10.5111L9.54684 10.3282L9.45521 10.0313C9.44336 9.99288 9.48724 9.96147 9.51979 9.98512L9.77128 10.1676L10.0253 9.98878Z" fill="white"/>
<path d="M7.97335 9.2699C7.8338 9.73984 7.52165 10.2196 6.8715 10.524C6.82665 10.545 6.77287 10.5235 6.7534 10.478L6.75331 10.4778C6.73441 10.4336 6.75503 10.3833 6.79846 10.3628C7.78653 9.89803 7.91987 8.98555 7.89379 8.40782C7.84309 8.6027 7.7542 8.8397 7.60424 8.96361C6.9777 9.48108 6.61441 9.04727 5.93298 9.30924C5.25592 9.5695 5.1505 9.959 5.0554 10.5942C4.9613 11.223 4.46163 11.2785 4.19873 11.2627C4.15169 11.2599 4.13006 11.3201 4.16746 11.3488C5.95964 12.721 9.15661 11.2411 8.06925 8.375C8.08308 8.62882 8.06947 8.94626 7.97335 9.2699ZM6.76696 10.745C6.79903 10.7693 6.78172 10.8204 6.7415 10.8202L6.43085 10.8189L6.32901 11.1124C6.31583 11.1505 6.26183 11.1497 6.24958 11.1115L6.15483 10.8155L5.84418 10.8094C5.80396 10.8086 5.78788 10.757 5.82057 10.7336L6.07272 10.552L5.98259 10.2547C5.97091 10.2162 6.01496 10.185 6.04739 10.2088L6.29795 10.3925L6.55292 10.2148C6.58591 10.1919 6.62917 10.2241 6.61662 10.2623L6.51935 10.5574L6.76696 10.745Z" fill="white"/>
</svg>
