<svg width="16" height="16" viewBox="0 0 16 16" fill="none" xmlns="http://www.w3.org/2000/svg">
<g clip-path="url(#clip0_5367_191751)">
<rect x="1" y="1" width="14" height="14" rx="2" fill="#4173CD"/>
<path d="M15 5.66406H1V10.3352H15V5.66406Z" fill="white"/>
</g>
<path d="M8.0402 7.55803L8.13891 7.85407L8.45094 7.85647C8.49135 7.85678 8.50807 7.90835 8.4756 7.93235L8.22457 8.11772L8.31869 8.41525C8.33085 8.45378 8.28704 8.48563 8.25413 8.46216L8.00029 8.28069L7.74642 8.46213C7.71354 8.4856 7.6697 8.45375 7.68185 8.41522L7.77598 8.11769L7.52495 7.93232C7.49248 7.90832 7.5092 7.85675 7.5496 7.85644L7.86163 7.85403L7.96035 7.558C7.9732 7.51972 8.02738 7.51972 8.0402 7.55803Z" fill="#4173CD"/>
<path d="M5.22187 8.35295L5.32059 8.64898L5.63262 8.65139C5.67302 8.6517 5.68974 8.70326 5.65727 8.72726L5.40624 8.91264L5.50037 9.21017C5.51255 9.2487 5.46871 9.28054 5.4358 9.25708L5.18193 9.07564L4.92806 9.25708C4.89518 9.28054 4.85134 9.2487 4.86349 9.21017L4.95762 8.91264L4.70659 8.72726C4.67412 8.70326 4.69084 8.6517 4.73124 8.65139L5.04327 8.64898L5.14199 8.35295C5.15487 8.31464 5.20909 8.31464 5.22187 8.35295Z" fill="#4173CD"/>
<path d="M5.22187 6.76309L5.32059 7.05912L5.63262 7.06152C5.67302 7.06184 5.68974 7.1134 5.65727 7.1374L5.40624 7.32277L5.50037 7.6203C5.51255 7.65883 5.46871 7.69068 5.4358 7.66721L5.18193 7.48577L4.92806 7.66721C4.89518 7.69068 4.85134 7.65883 4.86349 7.6203L4.95762 7.32277L4.70659 7.1374C4.67412 7.1134 4.69084 7.06184 4.73124 7.06152L5.04327 7.05912L5.14199 6.76309C5.15487 6.7248 5.20909 6.7248 5.22187 6.76309Z" fill="#4173CD"/>
<path d="M10.8576 8.35295L10.9564 8.64898L11.2684 8.65139C11.3088 8.6517 11.3255 8.70326 11.293 8.72726L11.042 8.91264L11.1361 9.21017C11.1483 9.2487 11.1045 9.28054 11.0716 9.25708L10.8177 9.07564L10.5638 9.25708C10.531 9.28054 10.4871 9.2487 10.4993 9.21017L10.5934 8.91264L10.3424 8.72726C10.3098 8.70326 10.3266 8.6517 10.367 8.65139L10.679 8.64898L10.7778 8.35295C10.7906 8.31464 10.8449 8.31464 10.8576 8.35295Z" fill="#4173CD"/>
<path d="M10.8576 6.76309L10.9564 7.05912L11.2684 7.06152C11.3088 7.06184 11.3255 7.1134 11.293 7.1374L11.042 7.32277L11.1361 7.6203C11.1483 7.65883 11.1045 7.69068 11.0716 7.66721L10.8177 7.48577L10.5638 7.66721C10.531 7.69068 10.4871 7.65883 10.4993 7.6203L10.5934 7.32277L10.3424 7.1374C10.3098 7.1134 10.3266 7.06184 10.367 7.06152L10.679 7.05912L10.7778 6.76309C10.7906 6.7248 10.8449 6.7248 10.8576 6.76309Z" fill="#4173CD"/>
<defs>
<clipPath id="clip0_5367_191751">
<rect x="1" y="1" width="14" height="14" rx="2" fill="white"/>
</clipPath>
</defs>
</svg>
