<svg width="16" height="16" viewBox="0 0 16 16" fill="none" xmlns="http://www.w3.org/2000/svg">
<g clip-path="url(#clip0_5367_191693)">
<rect x="1" y="1" width="14" height="14" rx="2" fill="#464655"/>
<path d="M1.24139 1H14.7586C14.8919 1 15 1.16498 15 1.36844V5.66667H1V1.36844C1 1.16498 1.10809 1 1.24139 1Z" fill="#FF334B"/>
<path d="M15 5.66602H1V10.3327H15V5.66602Z" fill="white"/>
<path d="M1 10.334H15V14.6322C15 14.8357 14.8919 15.0007 14.7586 15.0007H1.24139C1.10809 15.0007 1 14.8357 1 14.6322V10.334Z" fill="#41479B"/>
<path d="M6.60172 6.35156H5.66992V7.41655H6.60172V6.35156Z" fill="#FF334B"/>
<path d="M8.465 6.35156H7.5332V7.41655H8.465V6.35156Z" fill="#FF334B"/>
<path d="M7.53336 7.41602H6.60156V8.48101H7.53336V7.41602Z" fill="#FF334B"/>
<path d="M10.3283 6.35156H9.39648V7.41655H10.3283V6.35156Z" fill="#FF334B"/>
<path d="M9.39665 7.41602H8.46484V8.48101H9.39665V7.41602Z" fill="#FF334B"/>
<path d="M7.53336 6.35156H6.60156V7.41655H7.53336V6.35156Z" fill="white"/>
<path d="M9.39665 6.35156H8.46484V7.41655H9.39665V6.35156Z" fill="white"/>
<path d="M6.60172 7.41602H5.66992V8.48101H6.60172V7.41602Z" fill="white"/>
<path d="M8.465 7.41602H7.5332V8.48101H8.465V7.41602Z" fill="white"/>
<path d="M10.3283 7.41602H9.39648V8.48101H10.3283V7.41602Z" fill="white"/>
<path d="M8.465 8.48242H7.5332V9.54741H8.465V8.48242Z" fill="#FF334B"/>
<path d="M7.53336 9.54688H6.60156V10.6119H7.53336V9.54688Z" fill="#FF334B"/>
<path d="M9.39762 9.54688H8.46582V10.6119H9.39762V9.54688Z" fill="#FF334B"/>
<path d="M7.53336 8.48242H6.60156V9.54741H7.53336V8.48242Z" fill="white"/>
<path d="M9.39665 8.48242H8.46484V9.54741H9.39665V8.48242Z" fill="white"/>
<path d="M8.465 9.54688H7.5332V10.6119H8.465V9.54688Z" fill="white"/>
<path d="M10.3294 6.35195V9.34704C10.3294 10.6336 9.28638 11.6766 7.99983 11.6766C6.71328 11.6766 5.67031 10.6336 5.67031 9.34704V6.35195H10.3294V6.35195ZM10.4958 6.18555H10.3294H5.67031H5.50391V6.35195V9.34704C5.50391 10.7233 6.62356 11.843 7.99983 11.843C9.3761 11.843 10.4958 10.7233 10.4958 9.34704V6.35195V6.18555Z" fill="#FF334B"/>
<path d="M6.6027 9.54734V8.48242H5.6709V9.34768C5.6709 9.41513 5.67535 9.48136 5.68096 9.54737H6.6027V9.54734V9.54734Z" fill="#FF334B"/>
<path d="M10.3192 9.54688H9.39746V10.6118H9.95442C10.1566 10.3001 10.286 9.93751 10.3192 9.54688Z" fill="white"/>
<path d="M6.04544 10.6118H6.6024V9.54688H5.68066C5.71388 9.93747 5.84333 10.3 6.04544 10.6118Z" fill="white"/>
<path d="M9.39746 9.54737H10.3192C10.3248 9.48144 10.3293 9.41513 10.3293 9.34768V8.48242H9.39746V9.54737Z" fill="#FF334B"/>
<path d="M6.60189 11.2072V10.6113H6.04492C6.19417 10.8416 6.38319 11.0426 6.60189 11.2072Z" fill="#FF334B"/>
<path d="M9.95442 10.6113H9.39746V11.2072C9.61619 11.0426 9.80521 10.8416 9.95442 10.6113Z" fill="#FF334B"/>
<path d="M6.60156 11.2072C6.87277 11.4113 7.18842 11.5595 7.53336 11.6295V10.6113H6.60156V11.2072V11.2072Z" fill="white"/>
<path d="M8.46484 11.6295C8.80979 11.5595 9.12544 11.4113 9.39665 11.2072V10.6113H8.46484V11.6295Z" fill="white"/>
<path d="M8.46598 10.6113H7.53418V11.6295C7.68471 11.6601 7.84052 11.6763 8.0001 11.6763C8.15968 11.6763 8.31545 11.6601 8.46602 11.6295V10.6113H8.46598Z" fill="#FF334B"/>
<path d="M6.31362 4.5905C6.11087 4.55914 5.90345 4.53652 5.692 4.52344C5.52846 4.65806 5.37258 4.79841 5.22461 4.94378C5.37322 5.30248 5.52179 5.66119 5.67032 6.01989C5.96863 5.89635 6.2743 5.79747 6.58441 5.72335C6.49415 5.34572 6.4039 4.96809 6.31362 4.5905Z" fill="#4173CD"/>
<path d="M8.56568 4.41324C8.38349 4.32106 8.19484 4.23582 8.00013 4.1582C7.80541 4.23586 7.61673 4.3211 7.43457 4.41324C7.46484 4.80025 7.49515 5.18734 7.52542 5.57447C7.84142 5.5497 8.15892 5.5497 8.47491 5.57447C8.5051 5.18738 8.53541 4.80033 8.56568 4.41324Z" fill="#4173CD"/>
<path d="M10.7748 4.94378C10.6269 4.79845 10.4709 4.6581 10.3074 4.52344C10.096 4.53648 9.88857 4.55914 9.68583 4.5905C9.59558 4.96813 9.50529 5.34572 9.41504 5.72332C9.72515 5.79747 10.0308 5.89632 10.3291 6.01985C10.4777 5.66115 10.6263 5.30245 10.7748 4.94378Z" fill="#4173CD"/>
<path d="M7.43411 4.41384C7.23981 4.35115 7.03993 4.29629 6.83493 4.25C6.65405 4.3571 6.48014 4.47084 6.31348 4.59053C6.40373 4.96816 6.49402 5.34575 6.58434 5.72334C6.89445 5.64919 7.20897 5.59981 7.525 5.57508C7.49469 5.18798 7.46438 4.80093 7.43411 4.41384Z" fill="#41479B"/>
<path d="M9.68512 4.59053C9.51846 4.47084 9.34451 4.35706 9.16367 4.25C8.95867 4.29629 8.75875 4.35122 8.56449 4.41384C8.53421 4.80085 8.5039 5.18795 8.47363 5.57508C8.78966 5.59977 9.10418 5.64919 9.41429 5.72334C9.50458 5.34575 9.59487 4.96812 9.68512 4.59053Z" fill="#41479B"/>
<path d="M7.47101 4.87676C7.11871 4.90428 6.76807 4.95935 6.42234 5.04207C6.40428 4.96655 6.38622 4.89101 6.36816 4.81549C6.72574 4.73007 7.0884 4.67307 7.4528 4.64453C7.4589 4.72196 7.46497 4.79936 7.47101 4.87676Z" fill="#FF334B"/>
<path d="M7.5074 5.34156C7.17931 5.36723 6.85272 5.41854 6.53074 5.49552C6.51264 5.42001 6.49462 5.34446 6.47656 5.26899C6.81039 5.18915 7.14903 5.13595 7.48923 5.10938C7.4953 5.1867 7.50133 5.26417 7.5074 5.34156Z" fill="#FF334B"/>
<path d="M9.10563 5.42077C9.02439 5.40633 8.94292 5.39348 8.86127 5.38224C8.72698 5.36369 8.62697 5.24969 8.63862 5.12156C8.65023 4.99345 8.77859 4.90053 8.92475 4.92073C9.0124 4.9328 9.09986 4.94656 9.1871 4.96209C9.33258 4.9878 9.42675 5.11598 9.39836 5.24129C9.37005 5.36686 9.23939 5.44433 9.10563 5.42077Z" fill="#F8CB32"/>
<path d="M10.4188 5.80399C10.1091 5.6757 9.79164 5.57308 9.46973 5.49606C9.48782 5.42055 9.50584 5.345 9.5239 5.26953C9.85772 5.3493 10.1868 5.45576 10.508 5.58877C10.4782 5.66051 10.4485 5.73225 10.4188 5.80399Z" fill="#FF334B"/>
<path d="M10.3357 5.10589C10.3028 5.19663 10.1918 5.2398 10.0869 5.20568C9.98209 5.17153 9.91793 5.07185 9.94447 4.97904C9.97101 4.88622 10.0834 4.8371 10.1946 4.87325C10.306 4.90933 10.3686 5.01515 10.3357 5.10589Z" fill="#F8CB32"/>
<path d="M6.05626 4.97897C6.08276 5.07186 6.01856 5.17157 5.91379 5.20561C5.80895 5.23954 5.69797 5.19638 5.66502 5.10583C5.63207 5.01505 5.6948 4.90926 5.80609 4.87322C5.91726 4.83715 6.02979 4.88619 6.05626 4.97897Z" fill="#F8CB32"/>
<path d="M7.94692 4.82598C7.94714 4.90315 7.87778 4.96599 7.79182 4.96863C7.70591 4.97138 7.63266 4.9128 7.62814 4.83593C7.62365 4.75903 7.69294 4.69245 7.78312 4.68955C7.87329 4.68672 7.94654 4.74881 7.94692 4.82598Z" fill="#F8CB32"/>
<path d="M8.37249 4.83594C8.36793 4.91299 8.29464 4.97139 8.2088 4.96864C8.12289 4.966 8.05352 4.90316 8.05371 4.82599C8.05405 4.74889 8.12734 4.68661 8.21747 4.68955C8.30769 4.69227 8.37694 4.75899 8.37249 4.83594Z" fill="#F8CB32"/>
<path d="M8.15185 5.18626C8.1497 5.26342 8.08211 5.32412 8.00075 5.32412C7.91948 5.32408 7.85188 5.26346 7.84966 5.18626C7.84755 5.10931 7.91514 5.0447 8.00075 5.04492C8.08637 5.04473 8.15396 5.10927 8.15185 5.18626Z" fill="#F8CB32"/>
</g>
<defs>
<clipPath id="clip0_5367_191693">
<rect x="1" y="1" width="14" height="14" rx="2" fill="white"/>
</clipPath>
</defs>
</svg>
