<svg width="16" height="16" viewBox="0 0 16 16" fill="none" xmlns="http://www.w3.org/2000/svg">
<g clip-path="url(#clip0_5367_191235)">
<rect x="15" y="1" width="14" height="14" rx="2" transform="rotate(90 15 1)" fill="#4173CD"/>
<path d="M20.0178 2.75004H-1.35059V1.36844C-1.35059 1.16498 -1.18561 1 -0.982148 1H19.6494C19.8529 1 20.0178 1.16498 20.0178 1.36844L20.0178 2.75004Z" fill="white"/>
<path d="M20.0178 2.75H-1.35059V4.49999H20.0178V2.75Z" fill="#FF334B"/>
<path d="M20.0178 4.5H-1.35059V6.25H20.0178V4.5Z" fill="#41479B"/>
<path d="M20.0178 6.25H-1.35059V8H20.0178V6.25Z" fill="white"/>
<path d="M20.0178 9.74929H-1.35059V7.63086H-0.890081V7.9993H20.0178V9.74929Z" fill="#FF334B"/>
<path d="M20.0178 11.5H-1.35059V13.25H20.0178V11.5Z" fill="white"/>
<path d="M19.6494 15H-0.982148C-1.18561 15 -1.35059 14.835 -1.35059 14.6316V13.25H20.0178V14.6316C20.0178 14.8351 19.8528 15 19.6494 15Z" fill="#FF334B"/>
<path d="M20.0178 9.75H-1.35059V11.5H20.0178V9.75Z" fill="#41479B"/>
<path d="M11.0295 9.75003H-1.40469C-1.65901 9.75003 -1.86523 9.54381 -1.86523 9.28948V1.46055C-1.86523 1.20622 -1.65901 1 -1.40469 1H11.0295C11.2838 1 11.4901 1.20622 11.4901 1.46055V9.28948C11.49 9.54381 11.2838 9.75003 11.0295 9.75003Z" fill="#41479B"/>
<path d="M11.0295 1H10.2295L5.96365 3.7949V1H3.66102V3.7949L-0.604833 1H-1.40469C-1.65901 1 -1.86523 1.20617 -1.86523 1.46049V1.82578L1.79468 4.22362H-1.86523V6.52625H1.79468L-1.86523 8.92415V9.28943C-1.86523 9.54375 -1.65901 9.74998 -1.40469 9.74998H-0.604729L3.66112 6.95508V9.74998H5.96375V6.95508L10.2296 9.74998H11.0295C11.2838 9.74998 11.4901 9.54375 11.4901 9.28943V8.92415L7.83015 6.5263H11.49V4.22367H7.8301L11.49 1.82583V1.46055C11.49 1.20617 11.2838 1 11.0295 1Z" fill="white"/>
<path d="M11.49 4.68422H5.50315V1H4.12162V4.68422H-1.86523V6.06576H4.12162V9.74998H5.50315V6.06576H11.49V4.68422Z" fill="#FF334B"/>
<path d="M3.20052 4.22396L-1.64576 1.07812C-1.77472 1.15972 -1.86523 1.29687 -1.86523 1.46078V1.48468L2.35466 4.22396H3.20052Z" fill="#FF334B"/>
<path d="M6.80973 4.22367L11.4201 1.23095C11.34 1.09536 11.1986 1 11.0296 1H10.93L5.96387 4.22367H6.80973Z" fill="#FF334B"/>
<path d="M2.80273 6.52539L-1.79883 9.51237C-1.71948 9.65125 -1.57591 9.74907 -1.40448 9.74907H-1.31762L3.64865 6.52539H2.80273V6.52539Z" fill="#FF334B"/>
<path d="M11.4827 9.32467L7.17009 6.52539H6.32422L11.2215 9.7043C11.3682 9.63622 11.4689 9.49354 11.4827 9.32467Z" fill="#FF334B"/>
</g>
<defs>
<clipPath id="clip0_5367_191235">
<rect x="15" y="1" width="14" height="14" rx="2" transform="rotate(90 15 1)" fill="white"/>
</clipPath>
</defs>
</svg>
