<svg width="16" height="16" viewBox="0 0 16 16" fill="none" xmlns="http://www.w3.org/2000/svg">
<g clip-path="url(#clip0_5367_191221)">
<rect x="1" y="14.8398" width="14" height="14" rx="2" transform="rotate(-90 1 14.8398)" fill="#41479B"/>
<path d="M15 0.839844H1V3.63984H15V0.839844Z" fill="#41479B"/>
<path d="M15 3.64062H1V12.0406H15V3.64062Z" fill="white"/>
<path d="M15 12.0391H1V14.8391H15V12.0391Z" fill="#41479B"/>
<path d="M10.154 7.84066L11.2311 5.97516H9.07704L7.9998 4.10938L6.92261 5.97516H4.76855L5.84561 7.84066L4.76855 9.70616H6.92261L7.9998 11.5719L9.07699 9.70616H11.231L10.154 7.84066ZM10.1744 6.58528L9.8018 7.23058L9.42923 6.58528H10.1744ZM9.44957 7.84066L8.72475 9.09604H7.2748L6.55003 7.84066L7.27485 6.58528H8.7248L9.44957 7.84066ZM7.9998 5.32962L8.37252 5.97521H7.62709L7.9998 5.32962ZM5.82522 6.58528H6.57032L6.19775 7.23058L5.82522 6.58528ZM5.82522 9.09604L6.1978 8.45074L6.57037 9.09604H5.82522ZM7.9998 10.3517L7.62709 9.70611H8.37252L7.9998 10.3517ZM9.8018 8.45074L10.1744 9.09604H9.42928L9.8018 8.45074Z" fill="#41479B"/>
</g>
<defs>
<clipPath id="clip0_5367_191221">
<rect x="1" y="14.8398" width="14" height="14" rx="2" transform="rotate(-90 1 14.8398)" fill="white"/>
</clipPath>
</defs>
</svg>
