<svg width="16" height="16" viewBox="0 0 16 16" fill="none" xmlns="http://www.w3.org/2000/svg">
<g clip-path="url(#clip0_5367_191136)">
<rect x="1" y="1" width="14" height="14" rx="2" fill="#464655"/>
<path d="M1.24139 1H14.7586C14.8919 1 15 1.16498 15 1.36844V5.66667H1V1.36844C1 1.16498 1.10809 1 1.24139 1Z" fill="#FAB446"/>
<path d="M15 5.66602H1V10.3327H15V5.66602Z" fill="white"/>
<path d="M7.99984 9.48307C7.18221 9.48307 6.51709 8.81795 6.51709 8.00033C6.51709 7.1827 7.18221 6.51758 7.99984 6.51758C8.81746 6.51758 9.48258 7.1827 9.48258 8.00033C9.48258 8.81795 8.81746 9.48307 7.99984 9.48307ZM7.99984 6.79342C7.33428 6.79342 6.79293 7.33476 6.79293 8.00033C6.79293 8.66589 7.33428 9.20723 7.99984 9.20723C8.6654 9.20723 9.20674 8.66589 9.20674 8.00033C9.20674 7.33476 8.6654 6.79342 7.99984 6.79342Z" fill="#41479B"/>
<path d="M7.99964 8.16822C8.09247 8.16822 8.16773 8.09296 8.16773 8.00013C8.16773 7.90729 8.09247 7.83203 7.99964 7.83203C7.9068 7.83203 7.83154 7.90729 7.83154 8.00013C7.83154 8.09296 7.9068 8.16822 7.99964 8.16822Z" fill="#41479B"/>
<path d="M8.00008 8.0252L7.5729 8.06833L6.65527 8.0252V7.97477L7.5729 7.93164L8.00008 7.97477V8.0252Z" fill="#41479B"/>
<path d="M8 8.0252L8.42719 8.06833L9.34481 8.0252V7.97477L8.42719 7.93164L8 7.97477V8.0252Z" fill="#41479B"/>
<path d="M7.97477 8.00106L7.93164 7.57387L7.97477 6.65625H8.0252L8.06833 7.57387L8.0252 8.00106H7.97477Z" fill="#41479B"/>
<path d="M7.97477 8L7.93164 8.42719L7.97477 9.34481H8.0252L8.06833 8.42719L8.0252 8H7.97477Z" fill="#41479B"/>
<path d="M7.98218 8.01781L7.64962 7.74628L7.03125 7.06691L7.06691 7.03125L7.74628 7.64962L8.01781 7.98219L7.98218 8.01781Z" fill="#41479B"/>
<path d="M7.98193 8.01805L8.25346 8.35061L8.93284 8.96898L8.96849 8.93333L8.35012 8.25395L8.01756 7.98242L7.98193 8.01805Z" fill="#41479B"/>
<path d="M7.98193 7.98219L8.25346 7.64962L8.93284 7.03125L8.96849 7.06691L8.35012 7.74628L8.01756 8.01781L7.98193 7.98219Z" fill="#41479B"/>
<path d="M7.98218 7.98242L7.64962 8.25395L7.03125 8.93333L7.06691 8.96898L7.74628 8.35061L8.01781 8.01805L7.98218 7.98242Z" fill="#41479B"/>
<path d="M8.00931 8.02319L7.63112 8.2265L6.76687 8.53781L6.74756 8.49122L7.57884 8.10022L7.98999 7.97656L8.00931 8.02319Z" fill="#41479B"/>
<path d="M8.00955 8.02414L8.4207 7.90048L9.25198 7.50948L9.23267 7.46289L8.36842 7.7742L7.99023 7.97751L8.00955 8.02414Z" fill="#41479B"/>
<path d="M7.97654 8.00979L7.77323 7.63161L7.46191 6.76736L7.50851 6.74805L7.89951 7.57933L8.02316 7.99048L7.97654 8.00979Z" fill="#41479B"/>
<path d="M7.97656 8.00955L8.10022 8.4207L8.49122 9.25198L8.53781 9.23267L8.2265 8.36842L8.02319 7.99023L7.97656 8.00955Z" fill="#41479B"/>
<path d="M7.98999 8.02414L7.57884 7.90048L6.74756 7.50948L6.76687 7.46289L7.63112 7.7742L8.00931 7.97751L7.98999 8.02414Z" fill="#41479B"/>
<path d="M7.99023 8.02319L8.36842 8.2265L9.23267 8.53781L9.25198 8.49122L8.4207 8.10022L8.00955 7.97656L7.99023 8.02319Z" fill="#41479B"/>
<path d="M7.97656 7.99048L8.10022 7.57933L8.49122 6.74805L8.53781 6.76736L8.2265 7.63161L8.02319 8.00979L7.97656 7.99048Z" fill="#41479B"/>
<path d="M7.97654 7.99023L7.77323 8.36842L7.46191 9.23267L7.50851 9.25198L7.89951 8.4207L8.02316 8.00955L7.97654 7.99023Z" fill="#41479B"/>
<path d="M1 10.334H15V14.6322C15 14.8357 14.8919 15.0007 14.7586 15.0007H1.24139C1.10809 15.0007 1 14.8357 1 14.6322V10.334Z" fill="#73AF00"/>
</g>
<defs>
<clipPath id="clip0_5367_191136">
<rect x="1" y="1" width="14" height="14" rx="2" fill="white"/>
</clipPath>
</defs>
</svg>
