<svg width="16" height="16" viewBox="0 0 16 16" fill="none" xmlns="http://www.w3.org/2000/svg">
<g clip-path="url(#clip0_5367_191123)">
<rect x="1" y="0.839844" width="14" height="14" rx="2" fill="#464655"/>
<path d="M1.24139 0.839844H14.7586C14.8919 0.839844 15 1.00482 15 1.20828V5.50651H1V1.20828C1 1.00482 1.10809 0.839844 1.24139 0.839844Z" fill="#FF334B"/>
<path d="M15 5.50586H1V10.1725H15V5.50586Z" fill="white"/>
<path d="M1 10.1738H15V14.4721C15 14.6755 14.8919 14.8405 14.7586 14.8405H1.24139C1.10809 14.8405 1 14.6755 1 14.4721V10.1738Z" fill="#464655"/>
<path d="M9.6269 7.20849C9.5979 7.1934 9.56355 7.1394 9.57427 7.11577C9.58555 7.09099 9.56799 7.09312 9.62727 7.11074C9.73446 7.13849 9.80383 7.12584 9.87193 7.06787L9.93246 7.01996L10.0031 7.05527C10.0422 7.0729 10.0825 7.08549 10.0939 7.08296C10.1267 7.0754 10.1898 6.99468 10.1885 6.96693C10.1872 6.92918 10.215 6.93924 10.2288 6.97959C10.2578 7.05527 10.2045 7.1858 10.1314 7.20346C10.0961 7.21352 10.0633 7.21102 10.0078 7.1934C9.94221 7.16815 9.93208 7.16815 9.89683 7.1934C9.82365 7.2514 9.71896 7.25649 9.6269 7.20849Z" fill="#73AF00"/>
<path d="M9.90362 6.91682C9.86824 6.86722 9.82571 6.69369 9.83815 6.65122C9.85049 6.61222 9.8629 6.60516 9.89652 6.61579C9.95674 6.637 9.97096 6.676 9.9638 6.81772C9.95321 6.92388 9.93908 6.95935 9.90362 6.91682Z" fill="#73AF00"/>
<path d="M7.53177 7.68305C7.38643 7.76574 7.17024 7.77996 7.17024 8.00911C6.85368 8.0209 6.48037 8.03508 6.14368 8.02799C6.23493 7.91011 6.81246 7.37633 7.05262 7.16477C7.09237 7.12977 7.10587 7.06202 7.08274 7.01437L7.07652 7.00155C7.0419 6.93015 6.94771 6.91315 6.89034 6.96799C6.65102 7.19693 6.41387 7.41024 6.37524 7.4468C6.06543 7.75993 5.97456 7.85118 5.92587 7.90018C5.89121 7.93508 5.87193 7.98224 5.87218 8.03143V8.03465C5.87274 8.13683 5.95571 8.21936 6.05787 8.21936H7.41352C7.49033 8.21936 7.39587 7.9524 7.49505 7.9524C7.56402 7.9524 7.57037 8.04818 7.56733 8.14964C7.56502 8.22683 7.50143 8.28789 7.42424 8.28799C6.83815 8.2888 6.22802 8.2944 5.6539 8.29493C5.60649 8.29496 5.56843 8.25649 5.56843 8.20905V8.10577C5.56843 8.01821 5.47118 7.9673 5.398 8.01536C5.39531 8.01711 5.39268 8.0188 5.39006 8.02043C5.35181 8.04433 5.33225 8.09115 5.34718 8.13368C5.35687 8.1613 5.36109 8.19493 5.362 8.23008C5.36325 8.27655 5.3254 8.31486 5.27893 8.3163C5.08906 8.32211 4.88272 8.32383 4.82412 8.21186C4.79106 8.14874 4.72072 8.11893 4.65693 8.1508L4.64847 8.15505C4.58134 8.18861 4.55447 8.27164 4.59122 8.33705C4.66115 8.46139 4.72497 8.60564 4.69184 8.80768C4.66484 8.87133 4.61397 8.91121 4.55884 8.94708C4.49759 8.98696 4.53603 9.08027 4.60787 9.06699C4.78206 9.0348 4.90209 8.89693 4.93881 8.73443H7.63943C7.73846 8.73443 7.81877 8.65411 7.81877 8.55508V7.96899C7.79402 7.79411 7.60618 7.80121 7.53177 7.68305Z" fill="#73AF00"/>
<path d="M10.957 6.90911C10.9968 6.93474 11.0367 6.96039 11.0812 6.98158C11.1298 7.0048 11.1484 7.06417 11.12 7.10992C11.1124 7.12202 11.1062 7.13555 11.1026 7.15199V8.31439C11.182 8.33092 11.2276 8.31527 11.2638 8.2903C11.3047 8.26211 11.36 8.28261 11.3729 8.33055C11.4003 8.43252 11.4451 8.53211 11.4691 8.6228C11.4841 8.67945 11.4415 8.73492 11.3829 8.73492H10.9275C10.8872 8.73492 10.8545 8.70223 10.8545 8.66192V6.96505C10.8545 6.91246 10.9127 6.88064 10.957 6.90911Z" fill="#73AF00"/>
<path d="M10.4059 7.19295C10.4062 7.51391 10.4099 7.85966 10.4105 8.20372C10.4105 8.24832 10.3744 8.28444 10.3298 8.28444H10.3246C10.28 8.28444 10.2439 8.24835 10.2439 8.20382V7.38851C10.2439 7.34413 10.1918 7.32041 10.1584 7.3496L10.0515 7.44195C10.0297 7.46082 10.0171 7.48798 10.017 7.51685C10.0167 7.64948 10.0155 8.0356 10.015 8.20416C10.0149 8.24857 9.97882 8.28444 9.93438 8.28444H9.92707C9.88276 8.28444 9.84676 8.24885 9.84645 8.20454C9.84567 8.09232 9.84429 7.88435 9.84373 7.72835C9.84354 7.68348 9.79048 7.66004 9.75673 7.6896C9.64601 7.78663 9.62045 7.80857 9.56235 7.8686C9.56707 7.89932 9.59073 7.8686 9.60488 7.89219V8.04816C9.20151 7.97222 9.17142 8.29447 9.18651 8.64022C9.18879 8.69219 9.23145 8.73329 9.28345 8.73329H10.5499C10.5969 8.73329 10.6349 8.69522 10.6349 8.64825V7.07385C10.6349 7.02126 10.5725 6.99426 10.5337 7.02979C10.5028 7.0581 10.4697 7.08645 10.4414 7.1121C10.4186 7.13288 10.4058 7.16207 10.4059 7.19295ZM9.47382 8.27266C9.44904 8.20176 9.58845 8.17576 9.60495 8.2396C9.61085 8.31754 9.50457 8.31991 9.47382 8.27266Z" fill="#73AF00"/>
<path d="M5.29098 8.86133C5.33942 8.86133 5.37839 8.90152 5.37839 8.94873C5.37839 8.99839 5.33942 9.03617 5.29098 9.03617C5.24139 9.03617 5.20117 8.99839 5.20117 8.94873C5.2012 8.90152 5.24142 8.86133 5.29098 8.86133Z" fill="#73AF00"/>
<path d="M8.17033 6.94443C8.19398 6.95865 8.2183 6.97224 8.2442 6.98446C8.29095 7.00655 8.30939 7.06465 8.2808 7.10774C8.2722 7.12071 8.26486 7.13543 8.26055 7.15405V8.31408C8.34473 8.3328 8.39077 8.31446 8.42748 8.2873C8.46405 8.26027 8.51667 8.27896 8.52839 8.32286C8.54942 8.40161 8.58105 8.47949 8.60545 8.55342C8.63533 8.64383 8.56827 8.73699 8.47305 8.73699H8.11783C8.0603 8.73699 8.01367 8.69036 8.01367 8.6328V7.03427C8.01367 6.9539 8.10139 6.90302 8.17033 6.94443Z" fill="#73AF00"/>
</g>
<defs>
<clipPath id="clip0_5367_191123">
<rect x="1" y="0.839844" width="14" height="14" rx="2" fill="white"/>
</clipPath>
</defs>
</svg>
