<svg width="16" height="16" viewBox="0 0 16 16" fill="none" xmlns="http://www.w3.org/2000/svg">
<g clip-path="url(#clip0_5367_191075)">
<rect x="1" y="1" width="14" height="14" rx="2" fill="#464655"/>
<path d="M1.24139 1H14.7586C14.8919 1 15 1.16498 15 1.36844V5.66667H1V1.36844C1 1.16498 1.10809 1 1.24139 1Z" fill="#73AF00"/>
<path d="M15 5.66602H1V10.3327H15V5.66602Z" fill="white"/>
<path d="M1 10.334H15V14.6322C15 14.8357 14.8919 15.0007 14.7586 15.0007H1.24139C1.10809 15.0007 1 14.8357 1 14.6322V10.334Z" fill="#FF334B"/>
<path d="M-0.124563 5.0375H-0.122156C-0.0981876 5.0375 -0.0787502 5.01809 -0.0787502 4.99409V4.90009C-0.0787502 4.87612 -0.059344 4.85669 -0.035344 4.85669H0.146749C0.170718 4.85669 0.190156 4.87609 0.190156 4.90009V4.99409C0.190156 5.01806 0.209562 5.0375 0.233562 5.0375H0.592999C0.616967 5.0375 0.636405 5.01809 0.636405 4.99409V4.80853C0.636405 4.78456 0.616999 4.76513 0.592999 4.76513H0.412061C0.388093 4.76513 0.368655 4.78453 0.368655 4.80853V4.81328C0.368655 4.83725 0.388061 4.85669 0.412061 4.85669H0.50378C0.527749 4.85669 0.547186 4.87609 0.547186 4.90009V4.90481C0.547186 4.92878 0.52778 4.94822 0.50378 4.94822H0.32278C0.298812 4.94822 0.279374 4.92881 0.279374 4.90481V4.80853C0.279374 4.78456 0.259968 4.76513 0.235968 4.76513H-0.124563C-0.148531 4.76513 -0.167969 4.78453 -0.167969 4.80853V4.99409C-0.167969 5.01803 -0.148563 5.0375 -0.124563 5.0375ZM0.0550621 5.0375H0.0575308C0.0814995 5.0375 0.100937 5.01809 0.100937 4.99409V4.99162C0.100937 4.96766 0.0815308 4.94822 0.0575308 4.94822H0.0550621C0.0310934 4.94822 0.0116559 4.96762 0.0116559 4.99162V4.99409C0.0116559 5.01803 0.0310934 5.0375 0.0550621 5.0375ZM-0.124563 4.67359H0.951154C0.975123 4.67359 0.99456 4.65419 0.99456 4.63019V4.62544C0.99456 4.60147 0.975154 4.58203 0.951154 4.58203H-0.124563C-0.148531 4.58203 -0.167969 4.60144 -0.167969 4.62544V4.63019C-0.167969 4.65419 -0.148563 4.67359 -0.124563 4.67359ZM0.951123 5.0375H0.770186C0.746217 5.0375 0.72678 5.01809 0.72678 4.99409V4.80853C0.72678 4.78456 0.746186 4.76513 0.770186 4.76513H1.04044C1.0644 4.76513 1.08384 4.74572 1.08384 4.72172V4.62544C1.08384 4.60147 1.10325 4.58203 1.12725 4.58203H1.12965C1.15362 4.58203 1.17306 4.60144 1.17306 4.62544V4.90481C1.17306 4.92878 1.19247 4.94822 1.21647 4.94822H1.21893C1.2429 4.94822 1.26234 4.92881 1.26234 4.90481V4.62544C1.26234 4.60147 1.28175 4.58203 1.30575 4.58203H1.30815C1.33212 4.58203 1.35156 4.60144 1.35156 4.62544V4.90481C1.35156 4.92878 1.37097 4.94822 1.39497 4.94822H1.39856C1.42253 4.94822 1.44197 4.92881 1.44197 4.90481V4.62544C1.44197 4.60147 1.46137 4.58203 1.48537 4.58203H1.48668C1.51065 4.58203 1.53009 4.60144 1.53009 4.62544V4.99409C1.53009 5.01806 1.51068 5.0375 1.48668 5.0375H1.12725C1.10328 5.0375 1.08384 5.01809 1.08384 4.99409V4.90009C1.08384 4.87612 1.06444 4.85669 1.04044 4.85669H0.859498C0.835529 4.85669 0.816092 4.87609 0.816092 4.90009V4.90481C0.816092 4.92878 0.835498 4.94822 0.859498 4.94822H0.951154C0.975123 4.94822 0.99456 4.96762 0.99456 4.99162V4.99409C0.99456 5.01803 0.975092 5.0375 0.951123 5.0375Z" fill="white"/>
<path d="M1.66401 5.0375H1.66761C1.69157 5.0375 1.71101 5.01809 1.71101 4.99409V4.90009C1.71101 4.87612 1.73042 4.85669 1.75442 4.85669H1.93423C1.9582 4.85669 1.97764 4.87609 1.97764 4.90009V4.99409C1.97764 5.01806 1.99704 5.0375 2.02104 5.0375H2.38048C2.40445 5.0375 2.42389 5.01809 2.42389 4.99409V4.80853C2.42389 4.78456 2.40448 4.76512 2.38048 4.76512H2.19954C2.17557 4.76512 2.15614 4.78453 2.15614 4.80853V4.81328C2.15614 4.83725 2.17554 4.85669 2.19954 4.85669H2.29126C2.31523 4.85669 2.33467 4.87609 2.33467 4.90009V4.90481C2.33467 4.92878 2.31526 4.94822 2.29126 4.94822H2.11032C2.08635 4.94822 2.06692 4.92881 2.06692 4.90481V4.80853C2.06692 4.78456 2.04751 4.76512 2.02351 4.76512H1.66401C1.64004 4.76512 1.62061 4.78453 1.62061 4.80853V4.99409C1.62064 5.01803 1.64007 5.0375 1.66401 5.0375ZM1.84254 5.0375H1.84495C1.86892 5.0375 1.88835 5.01809 1.88835 4.99409V4.99162C1.88835 4.96766 1.86895 4.94822 1.84495 4.94822H1.84254C1.81857 4.94822 1.79914 4.96762 1.79914 4.99162V4.99409C1.79917 5.01803 1.81857 5.0375 1.84254 5.0375ZM1.66401 4.67359H2.73863C2.7626 4.67359 2.78204 4.65419 2.78204 4.63019V4.62544C2.78204 4.60147 2.76263 4.58203 2.73863 4.58203H1.66401C1.64004 4.58203 1.62061 4.60144 1.62061 4.62544V4.63019C1.62064 4.65419 1.64007 4.67359 1.66401 4.67359ZM2.73863 5.0375H2.55654C2.53257 5.0375 2.51313 5.01809 2.51313 4.99409V4.80853C2.51313 4.78456 2.53254 4.76512 2.55654 4.76512H2.82679C2.85076 4.76512 2.8702 4.74572 2.8702 4.72172V4.62544C2.8702 4.60147 2.8896 4.58203 2.9136 4.58203H2.9172C2.94117 4.58203 2.9606 4.60144 2.9606 4.62544V4.90481C2.9606 4.92878 2.98001 4.94822 3.00401 4.94822H3.0076C3.03157 4.94822 3.05101 4.92881 3.05101 4.90481V4.62544C3.05101 4.60147 3.07041 4.58203 3.09441 4.58203H3.09573C3.1197 4.58203 3.13913 4.60144 3.13913 4.62544V4.90481C3.13913 4.92878 3.15854 4.94822 3.18254 4.94822H3.18613C3.2101 4.94822 3.22954 4.92881 3.22954 4.90481V4.62544C3.22954 4.60147 3.24895 4.58203 3.27295 4.58203H3.27535C3.29932 4.58203 3.31876 4.60144 3.31876 4.62544V4.99409C3.31876 5.01806 3.29935 5.0375 3.27535 5.0375H2.91367C2.8897 5.0375 2.87026 5.01809 2.87026 4.99409V4.90009C2.87026 4.87612 2.85085 4.85669 2.82685 4.85669H2.64704C2.62307 4.85669 2.60363 4.87609 2.60363 4.90009V4.90481C2.60363 4.92878 2.62304 4.94822 2.64704 4.94822H2.73876C2.76273 4.94822 2.78217 4.96762 2.78217 4.99162V4.99409C2.78201 5.01803 2.7626 5.0375 2.73863 5.0375Z" fill="white"/>
<path d="M3.45161 5.0375H3.45402C3.47798 5.0375 3.49742 5.01809 3.49742 4.99409V4.90009C3.49742 4.87612 3.51683 4.85669 3.54083 4.85669H3.72183C3.7458 4.85669 3.76523 4.87609 3.76523 4.90009V4.99409C3.76523 5.01806 3.78464 5.0375 3.80864 5.0375H4.1692C4.19317 5.0375 4.21261 5.01809 4.21261 4.99409V4.80853C4.21261 4.78456 4.1932 4.76512 4.1692 4.76512H3.98826C3.9643 4.76512 3.94486 4.78453 3.94486 4.80853V4.81328C3.94486 4.83725 3.96426 4.85669 3.98826 4.85669H4.07998C4.10395 4.85669 4.12339 4.87609 4.12339 4.90009V4.90481C4.12339 4.92878 4.10398 4.94822 4.07998 4.94822H3.89789C3.87392 4.94822 3.85448 4.92881 3.85448 4.90481V4.80853C3.85448 4.78456 3.83508 4.76512 3.81108 4.76512H3.45164C3.42767 4.76512 3.40823 4.78453 3.40823 4.80853V4.99409C3.40817 5.01803 3.42764 5.0375 3.45161 5.0375ZM3.63011 5.0375H3.63252C3.65648 5.0375 3.67592 5.01809 3.67592 4.99409V4.99162C3.67592 4.96766 3.65651 4.94822 3.63252 4.94822H3.63011C3.60614 4.94822 3.5867 4.96762 3.5867 4.99162V4.99409C3.5867 5.01803 3.60614 5.0375 3.63011 5.0375ZM3.45161 4.67359H4.52736C4.55133 4.67359 4.57076 4.65419 4.57076 4.63019V4.62544C4.57076 4.60147 4.55136 4.58203 4.52736 4.58203H3.45161C3.42764 4.58203 3.4082 4.60144 3.4082 4.62544V4.63019C3.40817 4.65419 3.42764 4.67359 3.45161 4.67359ZM4.52736 5.0375H4.34526C4.32129 5.0375 4.30186 5.01809 4.30186 4.99409V4.80853C4.30186 4.78456 4.32126 4.76512 4.34526 4.76512H4.61545C4.63942 4.76512 4.65886 4.74572 4.65886 4.72172V4.62544C4.65886 4.60147 4.67826 4.58203 4.70226 4.58203H4.70473C4.7287 4.58203 4.74814 4.60144 4.74814 4.62544V4.90481C4.74814 4.92878 4.76754 4.94822 4.79154 4.94822H4.79514C4.81911 4.94822 4.83854 4.92881 4.83854 4.90481V4.62544C4.83854 4.60147 4.85795 4.58203 4.88195 4.58203H4.88554C4.90951 4.58203 4.92895 4.60144 4.92895 4.62544V4.90481C4.92895 4.92878 4.94836 4.94822 4.97236 4.94822H4.97367C4.99764 4.94822 5.01707 4.92881 5.01707 4.90481V4.62544C5.01707 4.60147 5.03648 4.58203 5.06048 4.58203H5.06289C5.08686 4.58203 5.10629 4.60144 5.10629 4.62544V4.99409C5.10629 5.01806 5.08689 5.0375 5.06289 5.0375H4.70226C4.67829 5.0375 4.65886 5.01809 4.65886 4.99409V4.90009C4.65886 4.87612 4.63945 4.85669 4.61545 4.85669H4.43451C4.41054 4.85669 4.39111 4.87609 4.39111 4.90009V4.90481C4.39111 4.92878 4.41051 4.94822 4.43451 4.94822H4.52742C4.55139 4.94822 4.57083 4.96762 4.57083 4.99162V4.99409C4.57076 5.01803 4.55133 5.0375 4.52736 5.0375Z" fill="white"/>
<path d="M5.23872 5.0375H5.24113C5.26509 5.0375 5.28453 5.01809 5.28453 4.99409V4.90009C5.28453 4.87612 5.30394 4.85669 5.32794 4.85669H5.50887C5.53284 4.85669 5.55228 4.87609 5.55228 4.90009V4.99409C5.55228 5.01806 5.57169 5.0375 5.59569 5.0375H5.95631C5.98028 5.0375 5.99972 5.01809 5.99972 4.99409V4.80853C5.99972 4.78456 5.98031 4.76512 5.95631 4.76512H5.77422C5.75025 4.76512 5.73081 4.78453 5.73081 4.80853V4.81328C5.73081 4.83725 5.75022 4.85669 5.77422 4.85669H5.86594C5.88991 4.85669 5.90934 4.87609 5.90934 4.90009V4.90481C5.90934 4.92878 5.88994 4.94822 5.86594 4.94822H5.685C5.66103 4.94822 5.64159 4.92881 5.64159 4.90481V4.80853C5.64159 4.78456 5.62219 4.76512 5.59819 4.76512H5.23875C5.21478 4.76512 5.19534 4.78453 5.19534 4.80853V4.99409C5.19534 5.01803 5.21478 5.0375 5.23872 5.0375ZM5.41725 5.0375H5.41966C5.44362 5.0375 5.46306 5.01809 5.46306 4.99409V4.99162C5.46306 4.96766 5.44366 4.94822 5.41966 4.94822H5.41725C5.39328 4.94822 5.37384 4.96762 5.37384 4.99162V4.99409C5.37387 5.01803 5.39328 5.0375 5.41725 5.0375ZM5.23872 4.67359H6.31334C6.33731 4.67359 6.35675 4.65419 6.35675 4.63019V4.62544C6.35675 4.60147 6.33734 4.58203 6.31334 4.58203H5.23872C5.21475 4.58203 5.19531 4.60144 5.19531 4.62544V4.63019C5.19534 4.65419 5.21478 4.67359 5.23872 4.67359ZM6.31334 5.0375H6.13125C6.10728 5.0375 6.08784 5.01809 6.08784 4.99409V4.80853C6.08784 4.78456 6.10725 4.76512 6.13125 4.76512H6.40378C6.42775 4.76512 6.44719 4.74572 6.44719 4.72172V4.62544C6.44719 4.60147 6.46659 4.58203 6.49059 4.58203H6.493C6.51697 4.58203 6.5364 4.60144 6.5364 4.62544V4.90481C6.5364 4.92878 6.55581 4.94822 6.57981 4.94822H6.58112C6.60509 4.94822 6.62453 4.92881 6.62453 4.90481V4.62544C6.62453 4.60147 6.64394 4.58203 6.66794 4.58203H6.67153C6.6955 4.58203 6.71494 4.60144 6.71494 4.62544V4.90481C6.71494 4.92878 6.73434 4.94822 6.75834 4.94822H6.76081C6.78478 4.94822 6.80422 4.92881 6.80422 4.90481V4.62544C6.80422 4.60147 6.82362 4.58203 6.84762 4.58203H6.85003C6.874 4.58203 6.89343 4.60144 6.89343 4.62544V4.99409C6.89343 5.01806 6.87403 5.0375 6.85003 5.0375H6.49044C6.46647 5.0375 6.44703 5.01809 6.44703 4.99409V4.90009C6.44703 4.87612 6.42762 4.85669 6.40362 4.85669H6.22153C6.19756 4.85669 6.17812 4.87609 6.17812 4.90009V4.90481C6.17812 4.92878 6.19753 4.94822 6.22153 4.94822H6.31325C6.33722 4.94822 6.35665 4.96762 6.35665 4.99162V4.99409C6.35672 5.01803 6.33731 5.0375 6.31334 5.0375Z" fill="white"/>
<path d="M7.02583 5.0375H7.0283C7.05227 5.0375 7.0717 5.01809 7.0717 4.99409V4.90009C7.0717 4.87612 7.09111 4.85669 7.11511 4.85669H7.29605C7.32001 4.85669 7.33945 4.87609 7.33945 4.90009V4.99409C7.33945 5.01806 7.35886 5.0375 7.38286 5.0375H7.74348C7.76745 5.0375 7.78689 5.01809 7.78689 4.99409V4.80853C7.78689 4.78456 7.76748 4.76512 7.74348 4.76512H7.56139C7.53742 4.76512 7.51798 4.78453 7.51798 4.80853V4.81328C7.51798 4.83725 7.53739 4.85669 7.56139 4.85669H7.6542C7.67817 4.85669 7.69761 4.87609 7.69761 4.90009V4.90481C7.69761 4.92878 7.6782 4.94822 7.6542 4.94822H7.47326C7.4493 4.94822 7.42986 4.92881 7.42986 4.90481V4.80853C7.42986 4.78456 7.41045 4.76512 7.38645 4.76512H7.02583C7.00186 4.76512 6.98242 4.78453 6.98242 4.80853V4.99409C6.98245 5.01803 7.00186 5.0375 7.02583 5.0375ZM7.20551 5.0375H7.20683C7.2308 5.0375 7.25023 5.01809 7.25023 4.99409V4.99162C7.25023 4.96766 7.23083 4.94822 7.20683 4.94822H7.20551C7.18155 4.94822 7.16211 4.96762 7.16211 4.99162V4.99409C7.16211 5.01803 7.18155 5.0375 7.20551 5.0375ZM7.02583 4.67359H8.10161C8.12558 4.67359 8.14501 4.65419 8.14501 4.63019V4.62544C8.14501 4.60147 8.12561 4.58203 8.10161 4.58203H7.02583C7.00186 4.58203 6.98242 4.60144 6.98242 4.62544V4.63019C6.98245 4.65419 7.00186 4.67359 7.02583 4.67359ZM8.10164 5.0375H7.91955C7.89558 5.0375 7.87614 5.01809 7.87614 4.99409V4.80853C7.87614 4.78456 7.89555 4.76512 7.91955 4.76512H8.19092C8.21489 4.76512 8.23433 4.74572 8.23433 4.72172V4.62544C8.23433 4.60147 8.25373 4.58203 8.27773 4.58203H8.28014C8.30411 4.58203 8.32354 4.60144 8.32354 4.62544V4.90481C8.32354 4.92878 8.34295 4.94822 8.36695 4.94822H8.36942C8.39339 4.94822 8.41283 4.92881 8.41283 4.90481V4.62544C8.41283 4.60147 8.43223 4.58203 8.45623 4.58203H8.45864C8.48261 4.58203 8.50204 4.60144 8.50204 4.62544V4.90481C8.50204 4.92878 8.52145 4.94822 8.54545 4.94822H8.54786C8.57183 4.94822 8.59126 4.92881 8.59126 4.90481V4.62544C8.59126 4.60147 8.61067 4.58203 8.63467 4.58203H8.63714C8.66111 4.58203 8.68054 4.60144 8.68054 4.62544V4.99409C8.68054 5.01806 8.66114 5.0375 8.63714 5.0375H8.2777C8.25373 5.0375 8.23429 5.01809 8.23429 4.99409V4.90009C8.23429 4.87612 8.21489 4.85669 8.19089 4.85669H8.00879C7.98483 4.85669 7.96539 4.87609 7.96539 4.90009V4.90481C7.96539 4.92878 7.98479 4.94822 8.00879 4.94822H8.10161C8.12558 4.94822 8.14501 4.96762 8.14501 4.99162V4.99409C8.14501 5.01803 8.12561 5.0375 8.10164 5.0375Z" fill="white"/>
<path d="M8.81342 5.0375H8.81589C8.83986 5.0375 8.8593 5.01809 8.8593 4.99409V4.90009C8.8593 4.87612 8.87871 4.85669 8.90271 4.85669H9.08364C9.10761 4.85669 9.12705 4.87609 9.12705 4.90009V4.99409C9.12705 5.01806 9.14646 5.0375 9.17046 5.0375H9.53108C9.55505 5.0375 9.57449 5.01809 9.57449 4.99409V4.80853C9.57449 4.78456 9.55508 4.76512 9.53108 4.76512H9.35008C9.32611 4.76512 9.30667 4.78453 9.30667 4.80853V4.81328C9.30667 4.83725 9.32608 4.85669 9.35008 4.85669H9.44067C9.46464 4.85669 9.48408 4.87609 9.48408 4.90009V4.90481C9.48408 4.92878 9.46467 4.94822 9.44067 4.94822H9.26086C9.23689 4.94822 9.21746 4.92881 9.21746 4.90481V4.80853C9.21746 4.78456 9.19805 4.76512 9.17405 4.76512H8.81342C8.78946 4.76512 8.77002 4.78453 8.77002 4.80853V4.99409C8.77002 5.01803 8.78946 5.0375 8.81342 5.0375ZM8.99308 5.0375H8.99439C9.01836 5.0375 9.0378 5.01809 9.0378 4.99409V4.99162C9.0378 4.96766 9.01839 4.94822 8.99439 4.94822H8.99308C8.96911 4.94822 8.94968 4.96762 8.94968 4.99162V4.99409C8.94971 5.01803 8.96911 5.0375 8.99308 5.0375ZM8.81342 4.67359H9.88917C9.91314 4.67359 9.93258 4.65419 9.93258 4.63019V4.62544C9.93258 4.60147 9.91317 4.58203 9.88917 4.58203H8.81342C8.78946 4.58203 8.77002 4.60144 8.77002 4.62544V4.63019C8.77002 4.65419 8.78946 4.67359 8.81342 4.67359ZM9.8892 5.0375H9.70827C9.6843 5.0375 9.66486 5.01809 9.66486 4.99409V4.80853C9.66486 4.78456 9.68427 4.76512 9.70827 4.76512H9.97845C10.0024 4.76512 10.0219 4.74572 10.0219 4.72172V4.62544C10.0219 4.60147 10.0413 4.58203 10.0653 4.58203H10.0677C10.0917 4.58203 10.1111 4.60144 10.1111 4.62544V4.90481C10.1111 4.92878 10.1305 4.94822 10.1545 4.94822H10.157C10.1809 4.94822 10.2004 4.92881 10.2004 4.90481V4.62544C10.2004 4.60147 10.2198 4.58203 10.2438 4.58203H10.2462C10.2702 4.58203 10.2896 4.60144 10.2896 4.62544V4.90481C10.2896 4.92878 10.309 4.94822 10.333 4.94822H10.3355C10.3594 4.94822 10.3789 4.92881 10.3789 4.90481V4.62544C10.3789 4.60147 10.3983 4.58203 10.4223 4.58203H10.4247C10.4487 4.58203 10.4681 4.60144 10.4681 4.62544V4.99409C10.4681 5.01806 10.4487 5.0375 10.4247 5.0375H10.0652C10.0412 5.0375 10.0218 5.01809 10.0218 4.99409V4.90009C10.0218 4.87612 10.0024 4.85669 9.97839 4.85669H9.79633C9.77236 4.85669 9.75292 4.87609 9.75292 4.90009V4.90481C9.75292 4.92878 9.77233 4.94822 9.79633 4.94822H9.88914C9.91311 4.94822 9.93255 4.96762 9.93255 4.99162V4.99409C9.93261 5.01803 9.91314 5.0375 9.8892 5.0375Z" fill="white"/>
<path d="M10.6005 5.0375H10.603C10.627 5.0375 10.6464 5.01809 10.6464 4.99409V4.90009C10.6464 4.87612 10.6658 4.85669 10.6898 4.85669H10.8719C10.8958 4.85669 10.9153 4.87609 10.9153 4.90009V4.99409C10.9153 5.01806 10.9347 5.0375 10.9587 5.0375H11.3182C11.3422 5.0375 11.3616 5.01809 11.3616 4.99409V4.80853C11.3616 4.78456 11.3422 4.76512 11.3182 4.76512H11.1372C11.1133 4.76512 11.0938 4.78453 11.0938 4.80853V4.81328C11.0938 4.83725 11.1132 4.85669 11.1372 4.85669H11.2301C11.2541 4.85669 11.2735 4.87609 11.2735 4.90009V4.90481C11.2735 4.92878 11.2541 4.94822 11.2301 4.94822H11.0468C11.0229 4.94822 11.0034 4.92881 11.0034 4.90481V4.80853C11.0034 4.78456 10.984 4.76512 10.96 4.76512H10.6006C10.5766 4.76512 10.5572 4.78453 10.5572 4.80853V4.99409C10.5572 5.01803 10.5766 5.0375 10.6005 5.0375ZM10.7791 5.0375H10.7827C10.8066 5.0375 10.8261 5.01809 10.8261 4.99409V4.99162C10.8261 4.96766 10.8067 4.94822 10.7827 4.94822H10.7791C10.7551 4.94822 10.7357 4.96762 10.7357 4.99162V4.99409C10.7357 5.01803 10.7551 5.0375 10.7791 5.0375ZM10.6005 4.67359H11.6763C11.7002 4.67359 11.7197 4.65419 11.7197 4.63019V4.62544C11.7197 4.60147 11.7003 4.58203 11.6763 4.58203H10.6005C10.5766 4.58203 10.5571 4.60144 10.5571 4.62544V4.63019C10.5572 4.65419 10.5766 4.67359 10.6005 4.67359ZM11.6763 5.0375H11.4954C11.4714 5.0375 11.452 5.01809 11.452 4.99409V4.80853C11.452 4.78456 11.4714 4.76512 11.4954 4.76512H11.7656C11.7896 4.76512 11.809 4.74572 11.809 4.72172V4.62544C11.809 4.60147 11.8284 4.58203 11.8524 4.58203H11.8549C11.8788 4.58203 11.8983 4.60144 11.8983 4.62544V4.90481C11.8983 4.92878 11.9177 4.94822 11.9417 4.94822H11.9441C11.9681 4.94822 11.9875 4.92881 11.9875 4.90481V4.62544C11.9875 4.60147 12.0069 4.58203 12.0309 4.58203H12.0334C12.0573 4.58203 12.0768 4.60144 12.0768 4.62544V4.90481C12.0768 4.92878 12.0962 4.94822 12.1202 4.94822H12.1238C12.1477 4.94822 12.1672 4.92881 12.1672 4.90481V4.62544C12.1672 4.60147 12.1866 4.58203 12.2106 4.58203H12.2118C12.2358 4.58203 12.2552 4.60144 12.2552 4.62544V4.99409C12.2552 5.01806 12.2358 5.0375 12.2118 5.0375H11.8524C11.8284 5.0375 11.809 5.01809 11.809 4.99409V4.90009C11.809 4.87612 11.7896 4.85669 11.7656 4.85669H11.5858C11.5618 4.85669 11.5424 4.87609 11.5424 4.90009V4.90481C11.5424 4.92878 11.5618 4.94822 11.5858 4.94822H11.6764C11.7003 4.94822 11.7198 4.96762 11.7198 4.99162V4.99409C11.7197 5.01803 11.7003 5.0375 11.6763 5.0375Z" fill="white"/>
<path d="M12.3891 5.0375H12.3904C12.4144 5.0375 12.4338 5.01809 12.4338 4.99409V4.90009C12.4338 4.87612 12.4532 4.85669 12.4772 4.85669H12.6582C12.6822 4.85669 12.7016 4.87609 12.7016 4.90009V4.99409C12.7016 5.01806 12.721 5.0375 12.745 5.0375H13.1056C13.1296 5.0375 13.149 5.01809 13.149 4.99409V4.80853C13.149 4.78456 13.1296 4.76512 13.1056 4.76512H12.9259C12.9019 4.76512 12.8825 4.78453 12.8825 4.80853V4.81328C12.8825 4.83725 12.9019 4.85669 12.9259 4.85669H13.0175C13.0415 4.85669 13.0609 4.87609 13.0609 4.90009V4.90481C13.0609 4.92878 13.0415 4.94822 13.0175 4.94822H12.8355C12.8115 4.94822 12.792 4.92881 12.792 4.90481V4.80853C12.792 4.78456 12.7726 4.76512 12.7486 4.76512H12.3891C12.3651 4.76512 12.3457 4.78453 12.3457 4.80853V4.99409C12.3457 5.01803 12.3651 5.0375 12.3891 5.0375ZM12.5676 5.0375H12.5701C12.594 5.0375 12.6135 5.01809 12.6135 4.99409V4.99162C12.6135 4.96766 12.5941 4.94822 12.5701 4.94822H12.5676C12.5436 4.94822 12.5242 4.96762 12.5242 4.99162V4.99409C12.5242 5.01803 12.5436 5.0375 12.5676 5.0375ZM12.3891 4.67359H13.466C13.49 4.67359 13.5095 4.65419 13.5095 4.63019V4.62544C13.5095 4.60147 13.49 4.58203 13.466 4.58203H12.3891C12.3651 4.58203 12.3457 4.60144 12.3457 4.62544V4.63019C12.3457 4.65419 12.3651 4.67359 12.3891 4.67359ZM13.466 5.0375H13.2827C13.2588 5.0375 13.2393 5.01809 13.2393 4.99409V4.80853C13.2393 4.78456 13.2587 4.76512 13.2827 4.76512H13.553C13.577 4.76512 13.5964 4.74572 13.5964 4.72172V4.62544C13.5964 4.60147 13.6158 4.58203 13.6398 4.58203H13.6434C13.6674 4.58203 13.6868 4.60144 13.6868 4.62544V4.90481C13.6868 4.92878 13.7062 4.94822 13.7302 4.94822H13.7326C13.7566 4.94822 13.776 4.92881 13.776 4.90481V4.62544C13.776 4.60147 13.7954 4.58203 13.8194 4.58203H13.8207C13.8447 4.58203 13.8641 4.60144 13.8641 4.62544V4.90481C13.8641 4.92878 13.8835 4.94822 13.9075 4.94822H13.9111C13.9351 4.94822 13.9545 4.92881 13.9545 4.90481V4.62544C13.9545 4.60147 13.974 4.58203 13.9979 4.58203H14.0004C14.0244 4.58203 14.0438 4.60144 14.0438 4.62544V4.99409C14.0438 5.01806 14.0244 5.0375 14.0004 5.0375H13.6398C13.6158 5.0375 13.5964 5.01809 13.5964 4.99409V4.90009C13.5964 4.87612 13.577 4.85669 13.553 4.85669H13.372C13.3481 4.85669 13.3286 4.87609 13.3286 4.90009V4.90481C13.3286 4.92878 13.348 4.94822 13.372 4.94822H13.466C13.49 4.94822 13.5095 4.96762 13.5095 4.99162V4.99409C13.5095 5.01803 13.49 5.0375 13.466 5.0375Z" fill="white"/>
<path d="M14.1762 5.0375H14.1787C14.2027 5.0375 14.2221 5.01809 14.2221 4.99409V4.90009C14.2221 4.87612 14.2415 4.85669 14.2655 4.85669H14.4464C14.4704 4.85669 14.4898 4.87609 14.4898 4.90009V4.99409C14.4898 5.01806 14.5092 5.0375 14.5332 5.0375H14.8939C14.9178 5.0375 14.9373 5.01809 14.9373 4.99409V4.80853C14.9373 4.78456 14.9179 4.76512 14.8939 4.76512H14.7141C14.6901 4.76512 14.6707 4.78453 14.6707 4.80853V4.81328C14.6707 4.83725 14.6901 4.85669 14.7141 4.85669H14.8058C14.8297 4.85669 14.8492 4.87609 14.8492 4.90009V4.90481C14.8492 4.92878 14.8298 4.94822 14.8058 4.94822H14.6225C14.5985 4.94822 14.5791 4.92881 14.5791 4.90481V4.80853C14.5791 4.78456 14.5597 4.76512 14.5357 4.76512H14.1763C14.1523 4.76512 14.1328 4.78453 14.1328 4.80853V4.99409C14.1328 5.01803 14.1523 5.0375 14.1762 5.0375ZM14.3548 5.0375H14.3572C14.3812 5.0375 14.4006 5.01809 14.4006 4.99409V4.99162C14.4006 4.96766 14.3812 4.94822 14.3572 4.94822H14.3548C14.3308 4.94822 14.3113 4.96762 14.3113 4.99162V4.99409C14.3114 5.01803 14.3308 5.0375 14.3548 5.0375ZM14.1762 4.67359H15.2508C15.2748 4.67359 15.2942 4.65419 15.2942 4.63019V4.62544C15.2942 4.60147 15.2748 4.58203 15.2508 4.58203H14.1762C14.1523 4.58203 14.1328 4.60144 14.1328 4.62544V4.63019C14.1328 4.65419 14.1523 4.67359 14.1762 4.67359ZM15.2508 5.0375H15.0699C15.0459 5.0375 15.0265 5.01809 15.0265 4.99409V4.80853C15.0265 4.78456 15.0459 4.76512 15.0699 4.76512H15.3424C15.3664 4.76512 15.3858 4.74572 15.3858 4.72172V4.62544C15.3858 4.60147 15.4052 4.58203 15.4292 4.58203H15.4294C15.4533 4.58203 15.4728 4.60144 15.4728 4.62544V4.90481C15.4728 4.92878 15.4922 4.94822 15.5162 4.94822H15.5209C15.5449 4.94822 15.5643 4.92881 15.5643 4.90481V4.62544C15.5643 4.60147 15.5837 4.58203 15.6077 4.58203H15.6079C15.6318 4.58203 15.6513 4.60144 15.6513 4.62544V4.90481C15.6513 4.92878 15.6707 4.94822 15.6947 4.94822H15.6972C15.7211 4.94822 15.7406 4.92881 15.7406 4.90481V4.62544C15.7406 4.60147 15.76 4.58203 15.784 4.58203H15.7887C15.8127 4.58203 15.8321 4.60144 15.8321 4.62544V4.99409C15.8321 5.01806 15.8127 5.0375 15.7887 5.0375H15.4292C15.4053 5.0375 15.3858 5.01809 15.3858 4.99409V4.90009C15.3858 4.87612 15.3664 4.85669 15.3424 4.85669H15.1592C15.1352 4.85669 15.1158 4.87609 15.1158 4.90009V4.90481C15.1158 4.92878 15.1352 4.94822 15.1592 4.94822H15.2508C15.2748 4.94822 15.2942 4.96762 15.2942 4.99162V4.99409C15.2942 5.01803 15.2748 5.0375 15.2508 5.0375Z" fill="white"/>
<path d="M-0.124563 5.31395H0.59303C0.616999 5.31395 0.636436 5.29455 0.636436 5.27055V5.17427C0.636436 5.1503 0.61703 5.13086 0.59303 5.13086H-0.124563C-0.148531 5.13086 -0.167969 5.15027 -0.167969 5.17427V5.27055C-0.167969 5.29455 -0.148563 5.31395 -0.124563 5.31395ZM0.770217 5.31395H1.48668C1.51065 5.31395 1.53009 5.29455 1.53009 5.27055V5.17427C1.53009 5.1503 1.51068 5.13086 1.48668 5.13086H0.770217C0.746248 5.13086 0.726811 5.15027 0.726811 5.17427V5.27055C0.726811 5.29455 0.746248 5.31395 0.770217 5.31395Z" fill="white"/>
<path d="M1.66401 5.31395H2.38048C2.40445 5.31395 2.42388 5.29455 2.42388 5.27055V5.17427C2.42388 5.1503 2.40448 5.13086 2.38048 5.13086H1.66401C1.64004 5.13086 1.62061 5.15027 1.62061 5.17427V5.27055C1.62064 5.29455 1.64007 5.31395 1.66401 5.31395ZM2.55654 5.31395H3.27529C3.29926 5.31395 3.3187 5.29455 3.3187 5.27055V5.17427C3.3187 5.1503 3.29929 5.13086 3.27529 5.13086H2.55654C2.53257 5.13086 2.51313 5.15027 2.51313 5.17427V5.27055C2.51313 5.29455 2.53257 5.31395 2.55654 5.31395Z" fill="white"/>
<path d="M3.45161 5.31395H4.1692C4.19317 5.31395 4.21261 5.29455 4.21261 5.27055V5.17427C4.21261 5.1503 4.1932 5.13086 4.1692 5.13086H3.45161C3.42764 5.13086 3.4082 5.15027 3.4082 5.17427V5.27055C3.40817 5.29455 3.42764 5.31395 3.45161 5.31395ZM4.34523 5.31395H5.06282C5.08679 5.31395 5.10623 5.29455 5.10623 5.27055V5.17427C5.10623 5.1503 5.08682 5.13086 5.06282 5.13086H4.34523C4.32126 5.13086 4.30183 5.15027 4.30183 5.17427V5.27055C4.30186 5.29455 4.3213 5.31395 4.34523 5.31395Z" fill="white"/>
<path d="M5.23872 5.31395H5.95631C5.98028 5.31395 5.99972 5.29455 5.99972 5.27055V5.17427C5.99972 5.1503 5.98031 5.13086 5.95631 5.13086H5.23872C5.21475 5.13086 5.19531 5.15027 5.19531 5.17427V5.27055C5.19534 5.29455 5.21478 5.31395 5.23872 5.31395ZM6.13125 5.31395H6.85C6.87396 5.31395 6.8934 5.29455 6.8934 5.27055V5.17427C6.8934 5.1503 6.874 5.13086 6.85 5.13086H6.13125C6.10728 5.13086 6.08784 5.15027 6.08784 5.17427V5.27055C6.08784 5.29455 6.10725 5.31395 6.13125 5.31395Z" fill="white"/>
<path d="M7.02583 5.31395H7.74348C7.76745 5.31395 7.78689 5.29455 7.78689 5.27055V5.17427C7.78689 5.1503 7.76748 5.13086 7.74348 5.13086H7.02583C7.00186 5.13086 6.98242 5.15027 6.98242 5.17427V5.27055C6.98245 5.29455 7.00186 5.31395 7.02583 5.31395ZM7.91948 5.31395H8.63714C8.66111 5.31395 8.68054 5.29455 8.68054 5.27055V5.17427C8.68054 5.1503 8.66114 5.13086 8.63714 5.13086H7.91948C7.89551 5.13086 7.87608 5.15027 7.87608 5.17427V5.27055C7.87611 5.29455 7.89551 5.31395 7.91948 5.31395Z" fill="white"/>
<path d="M8.81342 5.31395H9.53108C9.55505 5.31395 9.57449 5.29455 9.57449 5.27055V5.17427C9.57449 5.1503 9.55508 5.13086 9.53108 5.13086H8.81342C8.78946 5.13086 8.77002 5.15027 8.77002 5.17427V5.27055C8.77002 5.29455 8.78946 5.31395 8.81342 5.31395ZM9.70827 5.31395H10.4247C10.4487 5.31395 10.4681 5.29455 10.4681 5.27055V5.17427C10.4681 5.1503 10.4487 5.13086 10.4247 5.13086H9.70827C9.6843 5.13086 9.66486 5.15027 9.66486 5.17427V5.27055C9.66486 5.29455 9.6843 5.31395 9.70827 5.31395Z" fill="white"/>
<path d="M10.6005 5.31395H11.3182C11.3422 5.31395 11.3616 5.29455 11.3616 5.27055V5.17427C11.3616 5.1503 11.3422 5.13086 11.3182 5.13086H10.6005C10.5766 5.13086 10.5571 5.15027 10.5571 5.17427V5.27055C10.5572 5.29455 10.5766 5.31395 10.6005 5.31395ZM11.4954 5.31395H12.2118C12.2357 5.31395 12.2552 5.29455 12.2552 5.27055V5.17427C12.2552 5.1503 12.2358 5.13086 12.2118 5.13086H11.4954C11.4714 5.13086 11.452 5.15027 11.452 5.17427V5.27055C11.452 5.29455 11.4714 5.31395 11.4954 5.31395Z" fill="white"/>
<path d="M12.3891 5.31395H13.1056C13.1295 5.31395 13.149 5.29455 13.149 5.27055V5.17427C13.149 5.1503 13.1296 5.13086 13.1056 5.13086H12.3891C12.3651 5.13086 12.3457 5.15027 12.3457 5.17427V5.27055C12.3457 5.29455 12.3651 5.31395 12.3891 5.31395ZM13.2828 5.31395H14.0004C14.0244 5.31395 14.0438 5.29455 14.0438 5.27055V5.17427C14.0438 5.1503 14.0244 5.13086 14.0004 5.13086H13.2828C13.2588 5.13086 13.2394 5.15027 13.2394 5.17427V5.27055C13.2394 5.29455 13.2588 5.31395 13.2828 5.31395Z" fill="white"/>
<path d="M14.1762 5.31395H14.8939C14.9178 5.31395 14.9373 5.29455 14.9373 5.27055V5.17427C14.9373 5.1503 14.9179 5.13086 14.8939 5.13086H14.1762C14.1523 5.13086 14.1328 5.15027 14.1328 5.17427V5.27055C14.1328 5.29455 14.1523 5.31395 14.1762 5.31395ZM15.0699 5.31395H15.7887C15.8127 5.31395 15.8321 5.29455 15.8321 5.27055V5.17427C15.8321 5.1503 15.8127 5.13086 15.7887 5.13086H15.0699C15.046 5.13086 15.0265 5.15027 15.0265 5.17427V5.27055C15.0265 5.29455 15.0459 5.31395 15.0699 5.31395Z" fill="white"/>
<path d="M15.7889 10.9023H15.7865C15.7626 10.9023 15.7431 10.9218 15.7431 10.9458V11.0397C15.7431 11.0637 15.7237 11.0832 15.6997 11.0832H15.5176C15.4936 11.0832 15.4742 11.0637 15.4742 11.0397V10.9458C15.4742 10.9218 15.4548 10.9023 15.4308 10.9023H15.0714C15.0474 10.9023 15.028 10.9218 15.028 10.9458V11.1313C15.028 11.1553 15.0474 11.1747 15.0714 11.1747H15.2523C15.2763 11.1747 15.2957 11.1553 15.2957 11.1313V11.1266C15.2957 11.1026 15.2763 11.0832 15.2523 11.0832H15.1606C15.1366 11.0832 15.1172 11.0638 15.1172 11.0398V11.0351C15.1172 11.0111 15.1366 10.9917 15.1606 10.9917H15.3416C15.3656 10.9917 15.385 11.0111 15.385 11.0351V11.1313C15.385 11.1553 15.4044 11.1747 15.4284 11.1747H15.789C15.8129 11.1747 15.8324 11.1553 15.8324 11.1313V10.9458C15.8323 10.9218 15.8129 10.9023 15.7889 10.9023ZM15.6093 10.9023H15.6068C15.5829 10.9023 15.5634 10.9218 15.5634 10.9458V10.9482C15.5634 10.9722 15.5828 10.9916 15.6068 10.9916H15.6093C15.6333 10.9916 15.6527 10.9722 15.6527 10.9482V10.9458C15.6527 10.9218 15.6333 10.9023 15.6093 10.9023ZM15.7889 11.2662H14.7132C14.6892 11.2662 14.6698 11.2857 14.6698 11.3097V11.3144C14.6698 11.3384 14.6892 11.3578 14.7132 11.3578H15.7889C15.8129 11.3578 15.8323 11.3384 15.8323 11.3144V11.3097C15.8323 11.2857 15.8129 11.2662 15.7889 11.2662ZM14.7132 10.9023H14.8942C14.9182 10.9023 14.9376 10.9218 14.9376 10.9458V11.1313C14.9376 11.1553 14.9182 11.1747 14.8942 11.1747H14.6239C14.6 11.1747 14.5805 11.1942 14.5805 11.2182V11.3144C14.5805 11.3384 14.5611 11.3578 14.5371 11.3578H14.5347C14.5107 11.3578 14.4913 11.3384 14.4913 11.3144V11.0351C14.4913 11.0111 14.4719 10.9917 14.4479 10.9917H14.4454C14.4215 10.9917 14.402 11.0111 14.402 11.0351V11.3144C14.402 11.3384 14.3826 11.3578 14.3586 11.3578H14.3562C14.3322 11.3578 14.3128 11.3384 14.3128 11.3144V11.0351C14.3128 11.0111 14.2934 10.9917 14.2694 10.9917H14.2658C14.2418 10.9917 14.2224 11.0111 14.2224 11.0351V11.3144C14.2224 11.3384 14.203 11.3578 14.179 11.3578H14.1777C14.1537 11.3578 14.1343 11.3384 14.1343 11.3144V10.9458C14.1343 10.9218 14.1537 10.9024 14.1777 10.9024H14.5371C14.5611 10.9024 14.5805 10.9218 14.5805 10.9458V11.0398C14.5805 11.0637 14.5999 11.0832 14.6239 11.0832H14.8049C14.8288 11.0832 14.8483 11.0638 14.8483 11.0398V11.0351C14.8483 11.0111 14.8289 10.9917 14.8049 10.9917H14.7132C14.6892 10.9917 14.6698 10.9723 14.6698 10.9483V10.9458C14.6698 10.9218 14.6893 10.9023 14.7132 10.9023Z" fill="white"/>
<path d="M14.0004 10.9023H13.9969C13.9729 10.9023 13.9534 10.9218 13.9534 10.9458V11.0397C13.9534 11.0637 13.934 11.0832 13.91 11.0832H13.7302C13.7063 11.0832 13.6868 11.0637 13.6868 11.0397V10.9458C13.6868 10.9218 13.6674 10.9023 13.6434 10.9023H13.284C13.26 10.9023 13.2406 10.9218 13.2406 10.9458V11.1313C13.2406 11.1553 13.26 11.1747 13.284 11.1747H13.4649C13.4889 11.1747 13.5083 11.1553 13.5083 11.1313V11.1266C13.5083 11.1026 13.4889 11.0832 13.4649 11.0832H13.3732C13.3492 11.0832 13.3298 11.0638 13.3298 11.0398V11.0351C13.3298 11.0111 13.3492 10.9917 13.3732 10.9917H13.5542C13.5782 10.9917 13.5976 11.0111 13.5976 11.0351V11.1313C13.5976 11.1553 13.617 11.1747 13.641 11.1747H14.0004C14.0244 11.1747 14.0439 11.1553 14.0439 11.1313V10.9458C14.0438 10.9218 14.0244 10.9023 14.0004 10.9023ZM13.8219 10.9023H13.8195C13.7955 10.9023 13.7761 10.9218 13.7761 10.9458V10.9482C13.7761 10.9722 13.7955 10.9916 13.8195 10.9916H13.8219C13.8459 10.9916 13.8653 10.9722 13.8653 10.9482V10.9458C13.8653 10.9218 13.8459 10.9023 13.8219 10.9023ZM14.0004 11.2662H12.9258C12.9019 11.2662 12.8824 11.2857 12.8824 11.3097V11.3144C12.8824 11.3384 12.9018 11.3578 12.9258 11.3578H14.0004C14.0244 11.3578 14.0439 11.3384 14.0439 11.3144V11.3097C14.0438 11.2857 14.0244 11.2662 14.0004 11.2662ZM12.9258 10.9023H13.1079C13.1319 10.9023 13.1513 10.9218 13.1513 10.9458V11.1313C13.1513 11.1553 13.1319 11.1747 13.1079 11.1747H12.8377C12.8137 11.1747 12.7943 11.1942 12.7943 11.2182V11.3144C12.7943 11.3384 12.7749 11.3578 12.7509 11.3578H12.7473C12.7233 11.3578 12.7039 11.3384 12.7039 11.3144V11.0351C12.7039 11.0111 12.6845 10.9917 12.6605 10.9917H12.6569C12.6329 10.9917 12.6135 11.0111 12.6135 11.0351V11.3144C12.6135 11.3384 12.594 11.3578 12.57 11.3578H12.5687C12.5448 11.3578 12.5253 11.3384 12.5253 11.3144V11.0351C12.5253 11.0111 12.5059 10.9917 12.4819 10.9917H12.4783C12.4544 10.9917 12.4349 11.0111 12.4349 11.0351V11.3144C12.4349 11.3384 12.4155 11.3578 12.3915 11.3578H12.3891C12.3651 11.3578 12.3457 11.3384 12.3457 11.3144V10.9458C12.3457 10.9218 12.3651 10.9024 12.3891 10.9024H12.7508C12.7748 10.9024 12.7942 10.9218 12.7942 10.9458V11.0398C12.7942 11.0637 12.8136 11.0832 12.8376 11.0832H13.0175C13.0414 11.0832 13.0609 11.0638 13.0609 11.0398V11.0351C13.0609 11.0111 13.0415 10.9917 13.0175 10.9917H12.9257C12.9018 10.9917 12.8823 10.9723 12.8823 10.9483V10.9458C12.8824 10.9218 12.9019 10.9023 12.9258 10.9023Z" fill="white"/>
<path d="M12.2128 10.9023H12.2104C12.1864 10.9023 12.167 10.9218 12.167 10.9458V11.0397C12.167 11.0637 12.1476 11.0832 12.1236 11.0832H11.9426C11.9186 11.0832 11.8992 11.0637 11.8992 11.0397V10.9458C11.8992 10.9218 11.8798 10.9023 11.8558 10.9023H11.4952C11.4712 10.9023 11.4518 10.9218 11.4518 10.9458V11.1313C11.4518 11.1553 11.4712 11.1747 11.4952 11.1747H11.6761C11.7001 11.1747 11.7195 11.1553 11.7195 11.1313V11.1266C11.7195 11.1026 11.7001 11.0832 11.6761 11.0832H11.5844C11.5604 11.0832 11.541 11.0638 11.541 11.0398V11.0351C11.541 11.0111 11.5604 10.9917 11.5844 10.9917H11.7665C11.7905 10.9917 11.8099 11.0111 11.8099 11.0351V11.1313C11.8099 11.1553 11.8293 11.1747 11.8533 11.1747H12.2128C12.2367 11.1747 12.2562 11.1553 12.2562 11.1313V10.9458C12.2562 10.9218 12.2368 10.9023 12.2128 10.9023ZM12.0343 10.9023H12.0319C12.0079 10.9023 11.9885 10.9218 11.9885 10.9458V10.9482C11.9885 10.9722 12.0079 10.9916 12.0319 10.9916H12.0343C12.0583 10.9916 12.0777 10.9722 12.0777 10.9482V10.9458C12.0777 10.9218 12.0583 10.9023 12.0343 10.9023ZM12.2128 11.2662H11.137C11.113 11.2662 11.0936 11.2857 11.0936 11.3097V11.3144C11.0936 11.3384 11.113 11.3578 11.137 11.3578H12.2128C12.2368 11.3578 12.2562 11.3384 12.2562 11.3144V11.3097C12.2562 11.2857 12.2368 11.2662 12.2128 11.2662ZM11.137 10.9023H11.3191C11.3431 10.9023 11.3625 10.9218 11.3625 10.9458V11.1313C11.3625 11.1553 11.3431 11.1747 11.3191 11.1747H11.0489C11.025 11.1747 11.0055 11.1942 11.0055 11.2182V11.3144C11.0055 11.3384 10.9861 11.3578 10.9621 11.3578H10.9597C10.9357 11.3578 10.9163 11.3384 10.9163 11.3144V11.0351C10.9163 11.0111 10.8969 10.9917 10.8729 10.9917H10.8693C10.8453 10.9917 10.8259 11.0111 10.8259 11.0351V11.3144C10.8259 11.3384 10.8064 11.3578 10.7824 11.3578H10.7789C10.7549 11.3578 10.7354 11.3384 10.7354 11.3144V11.0351C10.7354 11.0111 10.716 10.9917 10.692 10.9917H10.6907C10.6668 10.9917 10.6473 11.0111 10.6473 11.0351V11.3144C10.6473 11.3384 10.6279 11.3578 10.6039 11.3578H10.6015C10.5775 11.3578 10.5581 11.3384 10.5581 11.3144V10.9458C10.5581 10.9218 10.5775 10.9024 10.6015 10.9024H10.9621C10.9861 10.9024 11.0055 10.9218 11.0055 10.9458V11.0398C11.0055 11.0637 11.0249 11.0832 11.0489 11.0832H11.2299C11.2539 11.0832 11.2733 11.0638 11.2733 11.0398V11.0351C11.2733 11.0111 11.2539 10.9917 11.2299 10.9917H11.137C11.113 10.9917 11.0936 10.9723 11.0936 10.9483V10.9458C11.0936 10.9218 11.1131 10.9023 11.137 10.9023Z" fill="white"/>
<path d="M10.4257 10.9023H10.4233C10.3993 10.9023 10.3799 10.9218 10.3799 10.9458V11.0397C10.3799 11.0637 10.3605 11.0832 10.3365 11.0832H10.1556C10.1316 11.0832 10.1122 11.0637 10.1122 11.0397V10.9458C10.1122 10.9218 10.0927 10.9023 10.0687 10.9023H9.70812C9.68415 10.9023 9.66471 10.9218 9.66471 10.9458V11.1313C9.66471 11.1553 9.68412 11.1747 9.70812 11.1747H9.89021C9.91418 11.1747 9.93362 11.1553 9.93362 11.1313V11.1266C9.93362 11.1026 9.91421 11.0832 9.89021 11.0832H9.79849C9.77453 11.0832 9.75509 11.0638 9.75509 11.0398V11.0351C9.75509 11.0111 9.77449 10.9917 9.79849 10.9917H9.97943C10.0034 10.9917 10.0228 11.0111 10.0228 11.0351V11.1313C10.0228 11.1553 10.0422 11.1747 10.0662 11.1747H10.4257C10.4496 11.1747 10.4691 11.1553 10.4691 11.1313V10.9458C10.4691 10.9218 10.4496 10.9023 10.4257 10.9023ZM10.2472 10.9023H10.2448C10.2208 10.9023 10.2014 10.9218 10.2014 10.9458V10.9482C10.2014 10.9722 10.2208 10.9916 10.2448 10.9916H10.2472C10.2711 10.9916 10.2906 10.9722 10.2906 10.9482V10.9458C10.2906 10.9218 10.2711 10.9023 10.2472 10.9023ZM10.4257 11.2662H9.35109C9.32712 11.2662 9.30768 11.2857 9.30768 11.3097V11.3144C9.30768 11.3384 9.32709 11.3578 9.35109 11.3578H10.4257C10.4497 11.3578 10.4691 11.3384 10.4691 11.3144V11.3097C10.4691 11.2857 10.4496 11.2662 10.4257 11.2662ZM9.35109 10.9023H9.53318C9.55715 10.9023 9.57659 10.9218 9.57659 10.9458V11.1313C9.57659 11.1553 9.55718 11.1747 9.53318 11.1747H9.26065C9.23668 11.1747 9.21725 11.1942 9.21725 11.2182V11.3144C9.21725 11.3384 9.19784 11.3578 9.17384 11.3578H9.17143C9.14746 11.3578 9.12803 11.3384 9.12803 11.3144V11.0351C9.12803 11.0111 9.10862 10.9917 9.08462 10.9917H9.08331C9.05934 10.9917 9.0399 11.0111 9.0399 11.0351V11.3144C9.0399 11.3384 9.0205 11.3578 8.9965 11.3578H8.9929C8.96893 11.3578 8.9495 11.3384 8.9495 11.3144V11.0351C8.9495 11.0111 8.93009 10.9917 8.90609 10.9917H8.90362C8.87965 10.9917 8.86022 11.0111 8.86022 11.0351V11.3144C8.86022 11.3384 8.84081 11.3578 8.81681 11.3578H8.8144C8.79043 11.3578 8.771 11.3384 8.771 11.3144V10.9458C8.771 10.9218 8.7904 10.9024 8.8144 10.9024H9.17384C9.19781 10.9024 9.21725 10.9218 9.21725 10.9458V11.0398C9.21725 11.0637 9.23665 11.0832 9.26065 11.0832H9.44274C9.46671 11.0832 9.48615 11.0638 9.48615 11.0398V11.0351C9.48615 11.0111 9.46674 10.9917 9.44274 10.9917H9.35103C9.32706 10.9917 9.30762 10.9723 9.30762 10.9483V10.9458C9.30771 10.9218 9.32712 10.9023 9.35109 10.9023Z" fill="white"/>
<path d="M8.6386 10.9023H8.63613C8.61216 10.9023 8.59273 10.9218 8.59273 10.9458V11.0397C8.59273 11.0637 8.57332 11.0832 8.54932 11.0832H8.36838C8.34442 11.0832 8.32498 11.0637 8.32498 11.0397V10.9458C8.32498 10.9218 8.30557 10.9023 8.28157 10.9023H7.92095C7.89698 10.9023 7.87754 10.9218 7.87754 10.9458V11.1313C7.87754 11.1553 7.89695 11.1747 7.92095 11.1747H8.10304C8.12701 11.1747 8.14645 11.1553 8.14645 11.1313V11.1266C8.14645 11.1026 8.12704 11.0832 8.10304 11.0832H8.01023C7.98626 11.0832 7.96682 11.0638 7.96682 11.0398V11.0351C7.96682 11.0111 7.98623 10.9917 8.01023 10.9917H8.19117C8.21513 10.9917 8.23457 11.0111 8.23457 11.0351V11.1313C8.23457 11.1553 8.25398 11.1747 8.27798 11.1747H8.6386C8.66257 11.1747 8.68201 11.1553 8.68201 11.1313V10.9458C8.68198 10.9218 8.66257 10.9023 8.6386 10.9023ZM8.45891 10.9023H8.4576C8.43363 10.9023 8.4142 10.9218 8.4142 10.9458V10.9482C8.4142 10.9722 8.4336 10.9916 8.4576 10.9916H8.45891C8.48288 10.9916 8.50232 10.9722 8.50232 10.9482V10.9458C8.50232 10.9218 8.48288 10.9023 8.45891 10.9023ZM8.6386 11.2662H7.56282C7.53885 11.2662 7.51942 11.2857 7.51942 11.3097V11.3144C7.51942 11.3384 7.53882 11.3578 7.56282 11.3578H8.6386C8.66257 11.3578 8.68201 11.3384 8.68201 11.3144V11.3097C8.68198 11.2857 8.66257 11.2662 8.6386 11.2662ZM7.56279 10.9023H7.74489C7.76885 10.9023 7.78829 10.9218 7.78829 10.9458V11.1313C7.78829 11.1553 7.76889 11.1747 7.74489 11.1747H7.47351C7.44954 11.1747 7.4301 11.1942 7.4301 11.2182V11.3144C7.4301 11.3384 7.4107 11.3578 7.3867 11.3578H7.38429C7.36032 11.3578 7.34089 11.3384 7.34089 11.3144V11.0351C7.34089 11.0111 7.32148 10.9917 7.29748 10.9917H7.29501C7.27104 10.9917 7.2516 11.0111 7.2516 11.0351V11.3144C7.2516 11.3384 7.2322 11.3578 7.2082 11.3578H7.20579C7.18182 11.3578 7.16239 11.3384 7.16239 11.3144V11.0351C7.16239 11.0111 7.14298 10.9917 7.11898 10.9917H7.11657C7.09261 10.9917 7.07317 11.0111 7.07317 11.0351V11.3144C7.07317 11.3384 7.05376 11.3578 7.02976 11.3578H7.02729C7.00332 11.3578 6.98389 11.3384 6.98389 11.3144V10.9458C6.98389 10.9218 7.00329 10.9024 7.02729 10.9024H7.38673C7.4107 10.9024 7.43014 10.9218 7.43014 10.9458V11.0398C7.43014 11.0637 7.44954 11.0832 7.47354 11.0832H7.65564C7.6796 11.0832 7.69904 11.0638 7.69904 11.0398V11.0351C7.69904 11.0111 7.67964 10.9917 7.65564 10.9917H7.56282C7.53885 10.9917 7.51942 10.9723 7.51942 10.9483V10.9458C7.51942 10.9218 7.53882 10.9023 7.56279 10.9023Z" fill="white"/>
<path d="M6.851 10.9023H6.84854C6.82457 10.9023 6.80513 10.9218 6.80513 10.9458V11.0397C6.80513 11.0637 6.78572 11.0832 6.76172 11.0832H6.58079C6.55682 11.0832 6.53738 11.0637 6.53738 11.0397V10.9458C6.53738 10.9218 6.51797 10.9023 6.49397 10.9023H6.13335C6.10938 10.9023 6.08994 10.9218 6.08994 10.9458V11.1313C6.08994 11.1553 6.10935 11.1747 6.13335 11.1747H6.31435C6.33832 11.1747 6.35776 11.1553 6.35776 11.1313V11.1266C6.35776 11.1026 6.33835 11.0832 6.31435 11.0832H6.22376C6.19979 11.0832 6.18035 11.0638 6.18035 11.0398V11.0351C6.18035 11.0111 6.19976 10.9917 6.22376 10.9917H6.40357C6.42754 10.9917 6.44697 11.0111 6.44697 11.0351V11.1313C6.44697 11.1553 6.46638 11.1747 6.49038 11.1747H6.851C6.87497 11.1747 6.89441 11.1553 6.89441 11.1313V10.9458C6.89441 10.9218 6.87497 10.9023 6.851 10.9023ZM6.67135 10.9023H6.67004C6.64607 10.9023 6.62663 10.9218 6.62663 10.9458V10.9482C6.62663 10.9722 6.64604 10.9916 6.67004 10.9916H6.67135C6.69532 10.9916 6.71475 10.9722 6.71475 10.9482V10.9458C6.71472 10.9218 6.69532 10.9023 6.67135 10.9023ZM6.851 11.2662H5.77522C5.75126 11.2662 5.73182 11.2857 5.73182 11.3097V11.3144C5.73182 11.3384 5.75122 11.3578 5.77522 11.3578H6.85097C6.87494 11.3578 6.89438 11.3384 6.89438 11.3144V11.3097C6.89441 11.2857 6.87497 11.2662 6.851 11.2662ZM5.77522 10.9023H5.95616C5.98013 10.9023 5.99957 10.9218 5.99957 10.9458V11.1313C5.99957 11.1553 5.98016 11.1747 5.95616 11.1747H5.68598C5.66201 11.1747 5.64257 11.1942 5.64257 11.2182V11.3144C5.64257 11.3384 5.62316 11.3578 5.59916 11.3578H5.59669C5.57273 11.3578 5.55329 11.3384 5.55329 11.3144V11.0351C5.55329 11.0111 5.53388 10.9917 5.50988 10.9917H5.50748C5.48351 10.9917 5.46407 11.0111 5.46407 11.0351V11.3144C5.46407 11.3384 5.44466 11.3578 5.42066 11.3578H5.41819C5.39423 11.3578 5.37479 11.3384 5.37479 11.3144V11.0351C5.37479 11.0111 5.35538 10.9917 5.33138 10.9917H5.32898C5.30501 10.9917 5.28557 11.0111 5.28557 11.0351V11.3144C5.28557 11.3384 5.26616 11.3578 5.24216 11.3578H5.23969C5.21573 11.3578 5.19629 11.3384 5.19629 11.3144V10.9458C5.19629 10.9218 5.2157 10.9024 5.23969 10.9024H5.59923C5.62319 10.9024 5.64263 10.9218 5.64263 10.9458V11.0398C5.64263 11.0637 5.66204 11.0832 5.68604 11.0832H5.8681C5.89207 11.0832 5.91151 11.0638 5.91151 11.0398V11.0351C5.91151 11.0111 5.8921 10.9917 5.8681 10.9917H5.77529C5.75132 10.9917 5.73188 10.9723 5.73188 10.9483V10.9458C5.73182 10.9218 5.75129 10.9023 5.77522 10.9023Z" fill="white"/>
<path d="M5.06393 10.9023H5.06146C5.03749 10.9023 5.01805 10.9218 5.01805 10.9458V11.0397C5.01805 11.0637 4.99865 11.0832 4.97465 11.0832H4.79258C4.76861 11.0832 4.74918 11.0637 4.74918 11.0397V10.9458C4.74918 10.9218 4.72977 10.9023 4.70577 10.9023H4.34624C4.32227 10.9023 4.30283 10.9218 4.30283 10.9458V11.1313C4.30283 11.1553 4.32224 11.1747 4.34624 11.1747H4.52724C4.55121 11.1747 4.57065 11.1553 4.57065 11.1313V11.1266C4.57065 11.1026 4.55124 11.0832 4.52724 11.0832H4.43433C4.41037 11.0832 4.39093 11.0638 4.39093 11.0398V11.0351C4.39093 11.0111 4.41033 10.9917 4.43433 10.9917H4.61762C4.64158 10.9917 4.66102 11.0111 4.66102 11.0351V11.1313C4.66102 11.1553 4.68043 11.1747 4.70443 11.1747H5.06386C5.08783 11.1747 5.10727 11.1553 5.10727 11.1313V10.9458C5.1073 10.9218 5.0879 10.9023 5.06393 10.9023ZM4.8854 10.9023H4.8818C4.85783 10.9023 4.8384 10.9218 4.8384 10.9458V10.9482C4.8384 10.9722 4.8578 10.9916 4.8818 10.9916H4.8854C4.90936 10.9916 4.9288 10.9722 4.9288 10.9482V10.9458C4.9288 10.9218 4.90936 10.9023 4.8854 10.9023ZM5.06393 11.2662H3.98818C3.96421 11.2662 3.94477 11.2857 3.94477 11.3097V11.3144C3.94477 11.3384 3.96418 11.3578 3.98818 11.3578H5.06393C5.0879 11.3578 5.10733 11.3384 5.10733 11.3144V11.3097C5.1073 11.2857 5.0879 11.2662 5.06393 11.2662ZM3.98812 10.9023H4.16905C4.19302 10.9023 4.21246 10.9218 4.21246 10.9458V11.1313C4.21246 11.1553 4.19305 11.1747 4.16905 11.1747H3.89887C3.8749 11.1747 3.85546 11.1942 3.85546 11.2182V11.3144C3.85546 11.3384 3.83605 11.3578 3.81205 11.3578H3.80959C3.78562 11.3578 3.76618 11.3384 3.76618 11.3144V11.0351C3.76618 11.0111 3.74677 10.9917 3.72277 10.9917H3.72037C3.6964 10.9917 3.67696 11.0111 3.67696 11.0351V11.3144C3.67696 11.3384 3.65755 11.3578 3.63355 11.3578H3.63109C3.60712 11.3578 3.58768 11.3384 3.58768 11.3144V11.0351C3.58768 11.0111 3.56827 10.9917 3.54427 10.9917H3.54068C3.51671 10.9917 3.49727 11.0111 3.49727 11.0351V11.3144C3.49727 11.3384 3.47787 11.3578 3.45387 11.3578H3.45259C3.42862 11.3578 3.40918 11.3384 3.40918 11.3144V10.9458C3.40918 10.9218 3.42859 10.9024 3.45259 10.9024H3.81202C3.83599 10.9024 3.85543 10.9218 3.85543 10.9458V11.0398C3.85543 11.0637 3.87484 11.0832 3.89884 11.0832H4.07865C4.10262 11.0832 4.12205 11.0638 4.12205 11.0398V11.0351C4.12205 11.0111 4.10265 10.9917 4.07865 10.9917H3.98805C3.96409 10.9917 3.94465 10.9723 3.94465 10.9483V10.9458C3.94474 10.9218 3.96415 10.9023 3.98812 10.9023Z" fill="white"/>
<path d="M3.27532 10.9023H3.27401C3.25004 10.9023 3.2306 10.9218 3.2306 10.9458V11.0397C3.2306 11.0637 3.2112 11.0832 3.1872 11.0832H3.0062C2.98223 11.0832 2.96279 11.0637 2.96279 11.0397V10.9458C2.96279 10.9218 2.94338 10.9023 2.91938 10.9023H2.55888C2.53492 10.9023 2.51548 10.9218 2.51548 10.9458V11.1313C2.51548 11.1553 2.53488 11.1747 2.55888 11.1747H2.73863C2.7626 11.1747 2.78204 11.1553 2.78204 11.1313V11.1266C2.78204 11.1026 2.76263 11.0832 2.73863 11.0832H2.64698C2.62301 11.0832 2.60357 11.0638 2.60357 11.0398V11.0351C2.60357 11.0111 2.62298 10.9917 2.64698 10.9917H2.82907C2.85304 10.9917 2.87248 11.0111 2.87248 11.0351V11.1313C2.87248 11.1553 2.89188 11.1747 2.91588 11.1747H3.27541C3.29938 11.1747 3.31882 11.1553 3.31882 11.1313V10.9458C3.31876 10.9218 3.29929 10.9023 3.27532 10.9023ZM3.09682 10.9023H3.09435C3.07038 10.9023 3.05095 10.9218 3.05095 10.9458V10.9482C3.05095 10.9722 3.07035 10.9916 3.09435 10.9916H3.09682C3.12079 10.9916 3.14023 10.9722 3.14023 10.9482V10.9458C3.14023 10.9218 3.12079 10.9023 3.09682 10.9023ZM3.27532 11.2662H2.19842C2.17445 11.2662 2.15501 11.2857 2.15501 11.3097V11.3144C2.15501 11.3384 2.17442 11.3578 2.19842 11.3578H3.27535C3.29932 11.3578 3.31876 11.3384 3.31876 11.3144V11.3097C3.31876 11.2857 3.29929 11.2662 3.27532 11.2662ZM2.19842 10.9023H2.3817C2.40567 10.9023 2.4251 10.9218 2.4251 10.9458V11.1313C2.4251 11.1553 2.4057 11.1747 2.3817 11.1747H2.11145C2.08748 11.1747 2.06804 11.1942 2.06804 11.2182V11.3144C2.06804 11.3384 2.04864 11.3578 2.02464 11.3578H2.02104C1.99707 11.3578 1.97764 11.3384 1.97764 11.3144V11.0351C1.97764 11.0111 1.95823 10.9917 1.93423 10.9917H1.93182C1.90786 10.9917 1.88842 11.0111 1.88842 11.0351V11.3144C1.88842 11.3384 1.86901 11.3578 1.84501 11.3578H1.8437C1.81973 11.3578 1.80029 11.3384 1.80029 11.3144V11.0351C1.80029 11.0111 1.78089 10.9917 1.75689 10.9917H1.75329C1.72932 10.9917 1.70989 11.0111 1.70989 11.0351V11.3144C1.70989 11.3384 1.69048 11.3578 1.66648 11.3578H1.66401C1.64004 11.3578 1.62061 11.3384 1.62061 11.3144V10.9458C1.62061 10.9218 1.64001 10.9024 1.66401 10.9024H2.02464C2.0486 10.9024 2.06804 10.9218 2.06804 10.9458V11.0398C2.06804 11.0637 2.08745 11.0832 2.11145 11.0832H2.29239C2.31635 11.0832 2.33579 11.0638 2.33579 11.0398V11.0351C2.33579 11.0111 2.31639 10.9917 2.29239 10.9917H2.19848C2.17451 10.9917 2.15507 10.9723 2.15507 10.9483V10.9458C2.15498 10.9218 2.17445 10.9023 2.19842 10.9023Z" fill="white"/>
<path d="M1.48784 10.9023H1.48537C1.4614 10.9023 1.44197 10.9218 1.44197 10.9458V11.0397C1.44197 11.0637 1.42256 11.0832 1.39856 11.0832H1.21762C1.19365 11.0832 1.17422 11.0637 1.17422 11.0397V10.9458C1.17422 10.9218 1.15481 10.9023 1.13081 10.9023H0.770217C0.746248 10.9023 0.726811 10.9218 0.726811 10.9458V11.1313C0.726811 11.1553 0.746217 11.1747 0.770217 11.1747H0.950029C0.973998 11.1747 0.993435 11.1553 0.993435 11.1313V11.1266C0.993435 11.1026 0.974029 11.0832 0.950029 11.0832H0.858311C0.834342 11.0832 0.814904 11.0638 0.814904 11.0398V11.0351C0.814904 11.0111 0.834311 10.9917 0.858311 10.9917H1.04159C1.06556 10.9917 1.085 11.0111 1.085 11.0351V11.1313C1.085 11.1553 1.1044 11.1747 1.1284 11.1747H1.48784C1.51181 11.1747 1.53125 11.1553 1.53125 11.1313V10.9458C1.53125 10.9218 1.51181 10.9023 1.48784 10.9023ZM1.30934 10.9023H1.30687C1.2829 10.9023 1.26347 10.9218 1.26347 10.9458V10.9482C1.26347 10.9722 1.28287 10.9916 1.30687 10.9916H1.30934C1.33331 10.9916 1.35275 10.9722 1.35275 10.9482V10.9458C1.35272 10.9218 1.33331 10.9023 1.30934 10.9023ZM1.48784 11.2662H0.413249C0.38928 11.2662 0.369843 11.2857 0.369843 11.3097V11.3144C0.369843 11.3384 0.389249 11.3578 0.413249 11.3578H1.48787C1.51184 11.3578 1.53128 11.3384 1.53128 11.3144V11.3097C1.53125 11.2857 1.51181 11.2662 1.48784 11.2662ZM0.413249 10.9023H0.594186C0.618155 10.9023 0.637592 10.9218 0.637592 10.9458V11.1313C0.637592 11.1553 0.618186 11.1747 0.594186 11.1747H0.321718C0.297749 11.1747 0.278312 11.1942 0.278312 11.2182V11.3144C0.278312 11.3384 0.258905 11.3578 0.234906 11.3578H0.23478C0.210812 11.3578 0.191374 11.3384 0.191374 11.3144V11.0351C0.191374 11.0111 0.171968 10.9917 0.147968 10.9917H0.143156C0.119187 10.9917 0.0997495 11.0111 0.0997495 11.0351V11.3144C0.0997495 11.3384 0.0803433 11.3578 0.0563433 11.3578H0.0562496C0.0322809 11.3578 0.0128434 11.3384 0.0128434 11.3144V11.0351C0.0128434 11.0111 -0.0065628 10.9917 -0.0305628 10.9917H-0.0330628C-0.0570315 10.9917 -0.0764689 11.0111 -0.0764689 11.0351V11.3144C-0.0764689 11.3384 -0.0958751 11.3578 -0.119875 11.3578H-0.124563C-0.148531 11.3578 -0.167969 11.3384 -0.167969 11.3144V10.9458C-0.167969 10.9218 -0.148563 10.9024 -0.124563 10.9024H0.234874C0.258843 10.9024 0.27828 10.9218 0.27828 10.9458V11.0398C0.27828 11.0637 0.297687 11.0832 0.321687 11.0832H0.504936C0.528905 11.0832 0.548342 11.0638 0.548342 11.0398V11.0351C0.548342 11.0111 0.528936 10.9917 0.504936 10.9917H0.41328C0.389311 10.9917 0.369874 10.9723 0.369874 10.9483V10.9458C0.369843 10.9218 0.38928 10.9023 0.413249 10.9023Z" fill="white"/>
<path d="M15.7889 10.625H15.0713C15.0474 10.625 15.0279 10.6444 15.0279 10.6684V10.7647C15.0279 10.7887 15.0473 10.8081 15.0713 10.8081H15.7889C15.8129 10.8081 15.8323 10.7887 15.8323 10.7647V10.6684C15.8323 10.6444 15.8129 10.625 15.7889 10.625ZM14.8942 10.625H14.1777C14.1537 10.625 14.1343 10.6444 14.1343 10.6684V10.7647C14.1343 10.7887 14.1537 10.8081 14.1777 10.8081H14.8942C14.9181 10.8081 14.9376 10.7887 14.9376 10.7647V10.6684C14.9376 10.6444 14.9181 10.625 14.8942 10.625Z" fill="white"/>
<path d="M14.0004 10.625H13.2839C13.26 10.625 13.2405 10.6444 13.2405 10.6684V10.7647C13.2405 10.7887 13.2599 10.8081 13.2839 10.8081H14.0004C14.0244 10.8081 14.0438 10.7887 14.0438 10.7647V10.6684C14.0438 10.6444 14.0243 10.625 14.0004 10.625ZM13.1079 10.625H12.3891C12.3651 10.625 12.3457 10.6444 12.3457 10.6684V10.7647C12.3457 10.7887 12.3651 10.8081 12.3891 10.8081H13.1079C13.1318 10.8081 13.1513 10.7887 13.1513 10.7647V10.6684C13.1513 10.6444 13.1319 10.625 13.1079 10.625Z" fill="white"/>
<path d="M12.2132 10.625H11.4956C11.4717 10.625 11.4522 10.6444 11.4522 10.6684V10.7647C11.4522 10.7887 11.4716 10.8081 11.4956 10.8081H12.2132C12.2372 10.8081 12.2566 10.7887 12.2566 10.7647V10.6684C12.2567 10.6444 12.2372 10.625 12.2132 10.625ZM11.3196 10.625H10.602C10.578 10.625 10.5586 10.6444 10.5586 10.6684V10.7647C10.5586 10.7887 10.578 10.8081 10.602 10.8081H11.3196C11.3436 10.8081 11.363 10.7887 11.363 10.7647V10.6684C11.363 10.6444 11.3435 10.625 11.3196 10.625Z" fill="white"/>
<path d="M10.4257 10.625H9.70809C9.68412 10.625 9.66468 10.6444 9.66468 10.6684V10.7647C9.66468 10.7887 9.68409 10.8081 9.70809 10.8081H10.4257C10.4497 10.8081 10.4691 10.7887 10.4691 10.7647V10.6684C10.4691 10.6444 10.4496 10.625 10.4257 10.625ZM9.53315 10.625H8.8144C8.79043 10.625 8.771 10.6444 8.771 10.6684V10.7647C8.771 10.7887 8.7904 10.8081 8.8144 10.8081H9.53315C9.55712 10.8081 9.57656 10.7887 9.57656 10.7647V10.6684C9.57656 10.6444 9.55715 10.625 9.53315 10.625Z" fill="white"/>
<path d="M8.6386 10.625H7.92095C7.89698 10.625 7.87754 10.6444 7.87754 10.6684V10.7647C7.87754 10.7887 7.89695 10.8081 7.92095 10.8081H8.6386C8.66257 10.8081 8.68201 10.7887 8.68201 10.7647V10.6684C8.68198 10.6444 8.66257 10.625 8.6386 10.625ZM7.74495 10.625H7.02729C7.00332 10.625 6.98389 10.6444 6.98389 10.6684V10.7647C6.98389 10.7887 7.00329 10.8081 7.02729 10.8081H7.74495C7.76892 10.8081 7.78835 10.7887 7.78835 10.7647V10.6684C7.78832 10.6444 7.76892 10.625 7.74495 10.625Z" fill="white"/>
<path d="M6.851 10.625H6.13335C6.10938 10.625 6.08994 10.6444 6.08994 10.6684V10.7647C6.08994 10.7887 6.10935 10.8081 6.13335 10.8081H6.851C6.87497 10.8081 6.89441 10.7887 6.89441 10.7647V10.6684C6.89441 10.6444 6.87497 10.625 6.851 10.625ZM5.95616 10.625H5.23969C5.21573 10.625 5.19629 10.6444 5.19629 10.6684V10.7647C5.19629 10.7887 5.2157 10.8081 5.23969 10.8081H5.95616C5.98013 10.8081 5.99957 10.7887 5.99957 10.7647V10.6684C5.99957 10.6444 5.98013 10.625 5.95616 10.625Z" fill="white"/>
<path d="M5.06383 10.625H4.34618C4.32221 10.625 4.30277 10.6444 4.30277 10.6684V10.7647C4.30277 10.7887 4.32218 10.8081 4.34618 10.8081H5.06383C5.0878 10.8081 5.10724 10.7887 5.10724 10.7647V10.6684C5.10721 10.6444 5.0878 10.625 5.06383 10.625ZM4.16899 10.625H3.45259C3.42862 10.625 3.40918 10.6444 3.40918 10.6684V10.7647C3.40918 10.7887 3.42859 10.8081 3.45259 10.8081H4.16899C4.19296 10.8081 4.2124 10.7887 4.2124 10.7647V10.6684C4.21237 10.6444 4.19296 10.625 4.16899 10.625Z" fill="white"/>
<path d="M3.27532 10.625H2.55888C2.53492 10.625 2.51548 10.6444 2.51548 10.6684V10.7647C2.51548 10.7887 2.53488 10.8081 2.55888 10.8081H3.27535C3.29932 10.8081 3.31876 10.7887 3.31876 10.7647V10.6684C3.31876 10.6444 3.29929 10.625 3.27532 10.625ZM2.38167 10.625H1.66401C1.64004 10.625 1.62061 10.6444 1.62061 10.6684V10.7647C1.62061 10.7887 1.64001 10.8081 1.66401 10.8081H2.38167C2.40564 10.8081 2.42507 10.7887 2.42507 10.7647V10.6684C2.42507 10.6444 2.40564 10.625 2.38167 10.625Z" fill="white"/>
<path d="M1.48784 10.625H0.770217C0.746248 10.625 0.726811 10.6444 0.726811 10.6684V10.7647C0.726811 10.7887 0.746217 10.8081 0.770217 10.8081H1.48787C1.51184 10.8081 1.53128 10.7887 1.53128 10.7647V10.6684C1.53125 10.6444 1.51181 10.625 1.48784 10.625ZM0.594155 10.625H-0.124563C-0.148563 10.625 -0.167969 10.6444 -0.167969 10.6684V10.7647C-0.167969 10.7887 -0.148563 10.8081 -0.124563 10.8081H0.594186C0.618155 10.8081 0.637592 10.7887 0.637592 10.7647V10.6684C0.637592 10.6444 0.618155 10.625 0.594155 10.625Z" fill="white"/>
<path d="M7.6044 6.69434C7.68621 6.71616 7.77359 6.69213 7.83358 6.63103C7.92415 6.72272 8.07255 6.72491 8.16643 6.63544C8.22755 6.5765 8.25265 6.487 8.2308 6.40625C8.15118 6.53503 7.98315 6.5765 7.85437 6.49572C7.8478 6.49131 7.83908 6.48697 7.83365 6.48259C7.71255 6.57206 7.54124 6.54806 7.44955 6.42806C7.44624 6.42147 7.43974 6.41275 7.43533 6.40625C7.40255 6.53291 7.47893 6.66378 7.6044 6.69434Z" fill="#FF334B"/>
<path d="M8.11317 9.24448C8.40648 9.08345 8.65126 8.82973 8.78548 8.49554C9.01404 7.92273 8.87011 7.27617 8.43289 6.85679C8.41786 6.84239 8.39501 6.86167 8.40592 6.87942C8.83714 7.58264 8.66726 8.50673 7.99998 9.0131L8.03189 6.97039C8.03233 6.94267 8.01995 6.91626 7.99842 6.89879L7.88989 6.81107C7.85664 6.7842 7.80914 6.78436 7.77608 6.81139L7.66914 6.89879C7.6478 6.91623 7.63561 6.94248 7.63605 6.97004L7.66705 9.0142C6.99967 8.50807 6.82942 7.58314 7.25998 6.87945C7.27086 6.8617 7.24802 6.84242 7.23302 6.85686C6.79664 7.27623 6.6518 7.92276 6.88033 8.49554C7.01455 8.82967 7.2593 9.08341 7.5527 9.24445C7.36598 9.30845 7.16973 9.34238 6.9713 9.3367C6.95033 9.3361 6.94611 9.3656 6.9662 9.37166C7.21833 9.4482 7.47764 9.45345 7.72145 9.39879L7.81717 9.58451C7.8238 9.59732 7.84214 9.59738 7.8488 9.58454L7.94517 9.39888C8.18898 9.45345 8.44839 9.4481 8.7007 9.37157C8.72076 9.36551 8.71658 9.33601 8.69561 9.3366C8.49692 9.34238 8.3002 9.30845 8.11317 9.24448Z" fill="#FF334B"/>
<path d="M9.3069 7.3444C9.15677 7.06393 8.90746 6.85134 8.61068 6.74718C8.59209 6.74065 8.57759 6.76521 8.59277 6.77774C9.24796 7.31746 9.3793 8.27874 8.87265 8.97468C8.84643 9.00961 8.81805 9.04671 8.79077 9.07721C9.4128 8.7433 9.64302 7.9664 9.3069 7.3444Z" fill="#FF334B"/>
<path d="M6.79382 8.97464C6.28714 8.2787 6.41745 7.31745 7.07251 6.77773C7.08773 6.76517 7.0732 6.74067 7.05461 6.74717C6.7582 6.85136 6.51061 7.06389 6.35951 7.34436C6.02126 7.96636 6.2537 8.74326 6.87676 9.07714C6.84732 9.04664 6.81895 9.00957 6.79382 8.97464Z" fill="#FF334B"/>
</g>
<defs>
<clipPath id="clip0_5367_191075">
<rect x="1" y="1" width="14" height="14" rx="2" fill="white"/>
</clipPath>
</defs>
</svg>
