<svg width="16" height="16" viewBox="0 0 16 16" fill="none" xmlns="http://www.w3.org/2000/svg">
<g clip-path="url(#clip0_5367_191014)">
<rect x="1" y="14.8398" width="14" height="14" rx="2" transform="rotate(-90 1 14.8398)" fill="white"/>
<path d="M18.727 1.15313C18.727 0.948847 18.5614 0.783203 18.3571 0.783203H17.377L7.99975 6.92701L-1.37758 0.783245H-2.35762C-2.56189 0.783245 -2.72754 0.948847 -2.72754 1.15313V1.66766L6.64979 7.81146L-2.72754 13.9552V14.4698C-2.72754 14.674 -2.56189 14.8397 -2.35762 14.8397H-1.37753L7.99975 8.69592L17.3771 14.8397H18.3572C18.5614 14.8397 18.7271 14.674 18.7271 14.4698V13.9552L9.34971 7.81146L18.727 1.6677V1.15313Z" fill="#FF334B"/>
<path d="M9.01217 2.32145C9.01217 2.32145 8.90564 2.16164 8.74584 2.26817C8.74584 2.26817 8.93065 2.40137 8.80575 2.54121C8.67361 2.6892 8.49197 2.54445 8.48057 2.43838C8.52902 2.43468 8.56732 2.39463 8.56732 2.34523C8.56732 2.29336 8.52532 2.25136 8.47345 2.25136C8.42158 2.25136 8.37958 2.29336 8.37958 2.34523C8.37958 2.38571 8.40534 2.41989 8.44124 2.43308C8.41834 2.52386 8.18021 2.59334 8.11157 2.44299C8.03428 2.27373 8.15654 2.13001 8.32134 2.14998C8.32134 2.14998 8.28971 1.94025 8.06667 2.02844C8.06667 2.02844 8.1599 1.78871 8.00009 1.62891C7.84028 1.78871 7.93351 2.02844 7.93351 2.02844C7.71043 1.94021 7.67884 2.14998 7.67884 2.14998C7.84364 2.13001 7.96586 2.27366 7.88861 2.44299C7.81997 2.59334 7.58184 2.52386 7.55894 2.43308C7.59484 2.41993 7.6206 2.38575 7.6206 2.34523C7.6206 2.29336 7.5786 2.25136 7.52673 2.25136C7.47486 2.25136 7.43286 2.29336 7.43286 2.34523C7.43286 2.39466 7.47116 2.43468 7.5196 2.43838C7.50821 2.54445 7.32653 2.6892 7.19443 2.54121C7.06957 2.40137 7.25434 2.26817 7.25434 2.26817C7.09453 2.16164 6.98801 2.32145 6.98801 2.32145C6.93473 2.10836 6.72168 2.16164 6.72168 2.16164C6.93477 2.42797 7.09145 2.9774 7.09145 2.9774H8.90892C8.90892 2.9774 9.06556 2.42801 9.27869 2.16164C9.2785 2.16164 9.06541 2.10836 9.01217 2.32145Z" fill="#F8CB32"/>
<path d="M8.90846 2.97769C8.61446 2.87406 8.30708 2.82227 7.99975 2.82227C7.69241 2.82227 7.38503 2.87406 7.09103 2.97769C6.61435 5.06622 7.99975 5.62445 7.99975 5.62445C7.99975 5.62445 9.38514 5.06622 8.90846 2.97769Z" fill="#FF334B"/>
<path d="M7.33467 3.72066C7.33467 3.72066 7.291 3.71243 7.253 3.74284C7.253 3.74284 7.2397 3.69033 7.30803 3.67767C7.37644 3.66494 7.33467 3.72066 7.33467 3.72066Z" fill="#82AFFF"/>
<path d="M7.28214 3.65509C7.28214 3.65509 7.24754 3.62719 7.19971 3.63603C7.19971 3.63603 7.21282 3.58348 7.27906 3.60463C7.3453 3.62574 7.28214 3.65509 7.28214 3.65509Z" fill="#82AFFF"/>
<path d="M7.3111 3.68159C7.3111 3.68159 7.26338 3.67336 7.22184 3.70377C7.22184 3.70377 7.20732 3.65125 7.28202 3.6386C7.35672 3.62591 7.3111 3.68159 7.3111 3.68159Z" fill="#82AFFF"/>
<path d="M8.13779 3.82215C8.13779 3.82215 8.09339 3.82424 8.06347 3.86262C8.06347 3.86262 8.03839 3.8146 8.10197 3.78647C8.1655 3.75831 8.13779 3.82215 8.13779 3.82215Z" fill="#82AFFF"/>
<path d="M8.0724 3.76361C8.0724 3.76361 8.03227 3.74447 7.98779 3.76414C7.98779 3.76414 7.98837 3.70994 8.05769 3.7152C8.12702 3.72046 8.0724 3.76361 8.0724 3.76361Z" fill="#82AFFF"/>
<path d="M8.10513 3.78899C8.10513 3.78899 8.05676 3.792 8.02341 3.83118C8.02341 3.83118 7.99711 3.78346 8.0669 3.75385C8.13668 3.72423 8.10513 3.78899 8.10513 3.78899Z" fill="#82AFFF"/>
<path d="M8.6446 3.84881C8.6446 3.84881 8.62798 3.84881 8.59821 3.87682C8.59821 3.87682 8.57691 3.82918 8.63964 3.80578C8.70245 3.78237 8.6446 3.84881 8.6446 3.84881Z" fill="#82AFFF"/>
<path d="M8.61311 3.78288C8.61311 3.78288 8.57564 3.76214 8.53174 3.77846C8.53174 3.77846 8.53544 3.7264 8.60179 3.73543C8.66814 3.74454 8.61311 3.78288 8.61311 3.78288Z" fill="#82AFFF"/>
<path d="M8.6431 3.80943C8.6431 3.80943 8.59641 3.80955 8.56211 3.84526C8.56211 3.84526 8.53962 3.79781 8.60841 3.77338C8.67721 3.74899 8.6431 3.80943 8.6431 3.80943Z" fill="#82AFFF"/>
<path d="M7.26187 3.391C7.26187 3.391 7.22174 3.36432 7.1709 3.37846C7.1709 3.37846 7.17997 3.32057 7.2536 3.33688C7.32727 3.35319 7.26187 3.391 7.26187 3.391Z" fill="#82AFFF"/>
<path d="M7.25895 3.29176C7.25895 3.29176 7.23304 3.25101 7.17773 3.24743C7.17773 3.24743 7.21352 3.19251 7.27637 3.23466C7.33925 3.27674 7.25895 3.29176 7.25895 3.29176Z" fill="#82AFFF"/>
<path d="M7.25886 3.34453C7.25886 3.34453 7.21656 3.31327 7.16064 3.32478C7.16064 3.32478 7.17322 3.26369 7.25242 3.28625C7.33166 3.30889 7.25886 3.34453 7.25886 3.34453Z" fill="#82AFFF"/>
<path d="M8.51668 3.52743C8.58696 3.52933 8.67047 3.50147 8.68377 3.42868C8.69905 3.34502 8.6274 3.30271 8.53124 3.30649C8.46104 3.30927 8.28324 3.34959 8.15591 3.3451C8.02995 3.34067 8.02652 3.21605 8.21731 3.22927C8.50026 3.2489 8.54519 3.2122 8.54519 3.2122C8.39328 3.24067 8.33252 3.1875 8.17112 3.1875C8.00971 3.1875 7.97873 3.29928 8.0439 3.3603C8.11692 3.42868 8.38188 3.38309 8.45216 3.36979C8.52244 3.35649 8.61155 3.35581 8.6186 3.40524C8.62489 3.44956 8.50719 3.44716 8.4238 3.44396C8.2911 3.43885 8.09794 3.47487 7.92613 3.48375C7.78298 3.49114 7.76305 3.45078 7.73046 3.40943C7.73808 3.39567 7.74243 3.38031 7.74243 3.36408C7.74243 3.35588 7.74113 3.34795 7.73907 3.34026C7.7499 3.3284 7.76125 3.30942 7.76644 3.27859C7.76644 3.27859 7.72981 3.27215 7.70214 3.28614C7.67996 3.26864 7.65058 3.2577 7.61807 3.2577C7.58552 3.2577 7.55617 3.26864 7.53399 3.28614C7.50632 3.27219 7.46969 3.27859 7.46969 3.27859C7.47492 3.30946 7.48627 3.32836 7.49706 3.34026C7.495 3.34792 7.4937 3.3558 7.4937 3.36408C7.4937 3.39388 7.50804 3.42083 7.53117 3.44015C7.5423 3.44949 7.55061 3.46176 7.55343 3.47601L7.55743 3.49625C7.55918 3.50513 7.5649 3.51207 7.57233 3.5163C7.45433 3.50414 7.39846 3.42997 7.3698 3.38873C7.33744 3.34224 7.31728 3.23937 7.26789 3.22798L7.23877 3.38309C7.23877 3.38309 7.30116 3.52739 7.41725 3.58627C7.54828 3.6527 7.57298 3.65465 7.61601 3.67363C7.62104 3.69642 7.53498 3.71033 7.44763 3.69264C7.38665 3.6803 7.30448 3.59172 7.25767 3.59805L7.31221 3.71921C7.46032 3.81289 7.58979 3.81487 7.70085 3.79517C7.77932 3.78126 7.80916 3.71734 7.81435 3.68998C7.8464 3.68403 7.88131 3.6774 7.98947 3.65083C8.03475 3.63971 8.08693 3.63384 8.13884 3.6314C8.15347 3.66478 8.18693 3.70755 8.30215 3.71159C8.30215 3.71159 8.32997 3.75591 8.23507 3.74703C8.14009 3.73815 8.11578 3.70858 8.06002 3.7149L8.10972 3.83313C8.10972 3.83313 8.23126 3.79136 8.38062 3.80656C8.38062 3.80656 8.40845 3.81419 8.42495 3.79014C8.44137 3.76609 8.43383 3.75218 8.41858 3.73064C8.41004 3.71852 8.40509 3.67927 8.40242 3.64714C8.45715 3.6609 8.62504 3.62682 8.68571 3.63193C8.74646 3.63696 8.75534 3.70789 8.7414 3.73194C8.72748 3.75599 8.60026 3.73544 8.60026 3.73544L8.64299 3.85222C8.64299 3.85222 8.65583 3.84605 8.68823 3.81552C8.7146 3.79071 8.82242 3.79909 8.82242 3.78007V3.56375C8.82242 3.55349 8.81351 3.54549 8.80329 3.54637C8.56539 3.5671 8.51668 3.52743 8.51668 3.52743Z" fill="#F8CB32"/>
<path d="M7.56836 3.45117C7.57194 3.45815 7.57457 3.46573 7.57602 3.47377L7.5796 3.49401C7.58086 3.5011 7.58646 3.50625 7.59294 3.50625H7.64813C7.65461 3.50625 7.66021 3.5011 7.66147 3.49401L7.66505 3.47377C7.6665 3.46573 7.66913 3.45818 7.67271 3.45117H7.56836Z" fill="#FF334B"/>
<path d="M7.62055 3.49023C7.60782 3.49023 7.59788 3.4918 7.59925 3.50948L7.60439 3.58513C7.60527 3.59668 7.61224 3.60549 7.62055 3.60549C7.62882 3.60549 7.63587 3.59668 7.63671 3.58513L7.64186 3.50948C7.64319 3.4918 7.63324 3.49023 7.62055 3.49023Z" fill="#82AFFF"/>
<path d="M7.45615 4.46829C7.45615 4.46829 7.42051 4.46154 7.38953 4.48635C7.38953 4.48635 7.37866 4.44352 7.43442 4.43315C7.49026 4.4229 7.45615 4.46829 7.45615 4.46829Z" fill="#82AFFF"/>
<path d="M7.41342 4.41443C7.41342 4.41443 7.38522 4.39168 7.34619 4.39888C7.34619 4.39888 7.35686 4.35597 7.41091 4.37324C7.46495 4.39046 7.41342 4.41443 7.41342 4.41443Z" fill="#82AFFF"/>
<path d="M7.43652 4.43509C7.43652 4.43509 7.39757 4.42835 7.36372 4.45316C7.36372 4.45316 7.35187 4.41032 7.41281 4.39995C7.47372 4.38966 7.43652 4.43509 7.43652 4.43509Z" fill="#82AFFF"/>
<path d="M8.11186 4.55109C8.11186 4.55109 8.07515 4.55282 8.05042 4.58451C8.05042 4.58451 8.02968 4.54479 8.08226 4.52153C8.13488 4.49831 8.11186 4.55109 8.11186 4.55109Z" fill="#82AFFF"/>
<path d="M8.05779 4.50267C8.05779 4.50267 8.02509 4.48708 7.98877 4.50309C7.98877 4.50309 7.98923 4.45888 8.04579 4.46319C8.10234 4.46745 8.05779 4.50267 8.05779 4.50267Z" fill="#82AFFF"/>
<path d="M8.08478 4.52327C8.08478 4.52327 8.04534 4.52575 8.01813 4.55768C8.01813 4.55768 7.99667 4.51873 8.05357 4.49461C8.11055 4.47045 8.08478 4.52327 8.08478 4.52327Z" fill="#82AFFF"/>
<path d="M8.52515 4.57288C8.52515 4.57288 8.51143 4.57288 8.48678 4.59603C8.48678 4.59603 8.46912 4.55662 8.52105 4.53734C8.57298 4.51798 8.52515 4.57288 8.52515 4.57288Z" fill="#82AFFF"/>
<path d="M8.49852 4.51803C8.49852 4.51803 8.46795 4.5011 8.43213 4.51444C8.43213 4.51444 8.43514 4.47199 8.4893 4.47938C8.54342 4.48674 8.49852 4.51803 8.49852 4.51803Z" fill="#82AFFF"/>
<path d="M8.52306 4.53999C8.52306 4.53999 8.48499 4.54007 8.45698 4.56922C8.45698 4.56922 8.43861 4.53054 8.49475 4.5106C8.55089 4.49067 8.52306 4.53999 8.52306 4.53999Z" fill="#82AFFF"/>
<path d="M7.39647 4.19885C7.39647 4.19885 7.36377 4.17713 7.32227 4.18864C7.32227 4.18864 7.32966 4.14138 7.38976 4.15472C7.44983 4.16806 7.39647 4.19885 7.39647 4.19885Z" fill="#82AFFF"/>
<path d="M7.39388 4.11816C7.39388 4.11816 7.37272 4.08489 7.32764 4.08199C7.32764 4.08199 7.35683 4.03721 7.40809 4.07155C7.45935 4.10593 7.39388 4.11816 7.39388 4.11816Z" fill="#82AFFF"/>
<path d="M7.39408 4.16096C7.39408 4.16096 7.35955 4.13546 7.31396 4.14487C7.31396 4.14487 7.32422 4.09502 7.38882 4.11347C7.45346 4.13188 7.39408 4.16096 7.39408 4.16096Z" fill="#82AFFF"/>
<path d="M8.42001 4.31043C8.47733 4.312 8.54548 4.28928 8.5563 4.2299C8.56876 4.16168 8.51034 4.12715 8.43186 4.13028C8.37458 4.13256 8.22956 4.16542 8.12571 4.16176C8.02295 4.15814 8.02013 4.05649 8.17579 4.06728C8.4066 4.08328 8.44322 4.05336 8.44322 4.05336C8.31932 4.07658 8.26973 4.0332 8.13805 4.0332C8.00638 4.0332 7.98115 4.12437 8.03427 4.17418C8.09384 4.22994 8.30998 4.19278 8.3673 4.18192C8.42462 4.17106 8.49734 4.17048 8.5031 4.21085C8.50828 4.24698 8.4122 4.24503 8.34421 4.24244C8.23593 4.23829 8.07841 4.26767 7.93823 4.27488C7.82145 4.2809 7.80522 4.24797 7.77861 4.21428C7.78483 4.20303 7.78837 4.19057 7.78837 4.17731C7.78837 4.17064 7.78727 4.1642 7.78559 4.15791C7.79443 4.14823 7.80365 4.13275 7.80792 4.1076C7.80792 4.1076 7.778 4.10234 7.75548 4.11374C7.73741 4.09948 7.71344 4.09056 7.68688 4.09056C7.66031 4.09056 7.63638 4.09948 7.61827 4.11374C7.59575 4.10234 7.56583 4.1076 7.56583 4.1076C7.57006 4.13275 7.57932 4.14823 7.58817 4.15791C7.58649 4.16416 7.58538 4.1706 7.58538 4.17731C7.58538 4.20162 7.59712 4.22361 7.61595 4.23935C7.62502 4.24698 7.6318 4.25696 7.63409 4.26862L7.63737 4.28517C7.63882 4.29241 7.64347 4.29805 7.64953 4.30152C7.55325 4.29161 7.50771 4.23112 7.48435 4.19747C7.45797 4.15955 7.44151 4.07562 7.40119 4.06632L7.37744 4.19282C7.37744 4.19282 7.42836 4.31055 7.52303 4.35857C7.6299 4.41277 7.65002 4.41433 7.68516 4.4298C7.68928 4.4484 7.61908 4.45976 7.5478 4.44528C7.49807 4.43518 7.43107 4.36299 7.39284 4.3681L7.43732 4.46692C7.55813 4.54334 7.66374 4.54494 7.75434 4.52886C7.81833 4.5175 7.84268 4.4654 7.84691 4.44307C7.87302 4.43823 7.90149 4.43281 7.98976 4.41113C8.02673 4.40206 8.06926 4.39725 8.11164 4.39527C8.12357 4.42252 8.1509 4.45743 8.24485 4.46067C8.24485 4.46067 8.26756 4.4968 8.19012 4.48956C8.11263 4.48232 8.09281 4.4582 8.04735 4.46338L8.0879 4.5598C8.0879 4.5598 8.18703 4.52573 8.30891 4.53812C8.30891 4.53812 8.33163 4.54429 8.34504 4.5247C8.35846 4.50507 8.35228 4.49372 8.33986 4.47619C8.33289 4.46631 8.32888 4.43426 8.32667 4.40804C8.3713 4.41928 8.50828 4.39146 8.55771 4.39558C8.6073 4.39969 8.6145 4.45751 8.60314 4.47718C8.59178 4.4968 8.488 4.48003 8.488 4.48003L8.52288 4.57528C8.52288 4.57528 8.53336 4.57025 8.55981 4.54532C8.5813 4.52508 8.66927 4.53191 8.66927 4.51643V4.33997C8.66927 4.33159 8.66199 4.32507 8.65368 4.32579C8.45976 4.34275 8.42001 4.31043 8.42001 4.31043Z" fill="#F8CB32"/>
<path d="M7.64648 4.24805C7.64938 4.25376 7.65159 4.25994 7.6527 4.26646L7.65559 4.283C7.65658 4.28879 7.6612 4.29298 7.66646 4.29298H7.71147C7.71673 4.29298 7.7213 4.28879 7.72233 4.283L7.72522 4.26646C7.72641 4.25994 7.72854 4.25373 7.73144 4.24805H7.64648Z" fill="#FF334B"/>
<path d="M7.68837 4.2793C7.67797 4.2793 7.66993 4.28055 7.67099 4.29504L7.67519 4.35674C7.67591 4.36619 7.68159 4.37336 7.68837 4.37336C7.69519 4.37336 7.70087 4.36619 7.70156 4.35674L7.70575 4.29504C7.70686 4.28055 7.69878 4.2793 7.68837 4.2793Z" fill="#82AFFF"/>
<path d="M7.59126 5.06102C7.59126 5.06102 7.56421 5.05592 7.54068 5.07474C7.54068 5.07474 7.53245 5.04221 7.5748 5.03436C7.61715 5.02652 7.59126 5.06102 7.59126 5.06102Z" fill="#82AFFF"/>
<path d="M7.55885 5.02073C7.55885 5.02073 7.53741 5.00346 7.50781 5.00891C7.50781 5.00891 7.51593 4.97634 7.55692 4.98943C7.59795 5.00257 7.55885 5.02073 7.55885 5.02073Z" fill="#82AFFF"/>
<path d="M7.57646 5.03759C7.57646 5.03759 7.54691 5.03248 7.52121 5.0513C7.52121 5.0513 7.51221 5.01877 7.55846 5.01093C7.60471 5.00308 7.57646 5.03759 7.57646 5.03759Z" fill="#82AFFF"/>
<path d="M8.08126 5.12224C8.08126 5.12224 8.05375 5.12352 8.03525 5.14728C8.03525 5.14728 8.01972 5.11753 8.05909 5.10014C8.09846 5.08271 8.08126 5.12224 8.08126 5.12224Z" fill="#82AFFF"/>
<path d="M8.04165 5.08879C8.04165 5.08879 8.01681 5.07693 7.98926 5.08914C7.98926 5.08914 7.98964 5.0556 8.03253 5.05881C8.0755 5.06206 8.04165 5.08879 8.04165 5.08879Z" fill="#82AFFF"/>
<path d="M8.06141 5.10272C8.06141 5.10272 8.03146 5.10461 8.01083 5.12884C8.01083 5.12884 7.99452 5.09928 8.03772 5.08097C8.08092 5.06265 8.06141 5.10272 8.06141 5.10272Z" fill="#82AFFF"/>
<path d="M8.39077 5.13909C8.39077 5.13909 8.3805 5.13909 8.36203 5.15644C8.36203 5.15644 8.34881 5.12692 8.38768 5.11247C8.42655 5.09798 8.39077 5.13909 8.39077 5.13909Z" fill="#82AFFF"/>
<path d="M8.37167 5.10036C8.37167 5.10036 8.34849 5.08753 8.32129 5.09762C8.32129 5.09762 8.32361 5.06539 8.36468 5.07096C8.40579 5.07656 8.37167 5.10036 8.37167 5.10036Z" fill="#82AFFF"/>
<path d="M8.39026 5.11575C8.39026 5.11575 8.36136 5.11582 8.34007 5.13796C8.34007 5.13796 8.32613 5.1086 8.36874 5.09345C8.41136 5.07831 8.39026 5.11575 8.39026 5.11575Z" fill="#82AFFF"/>
<path d="M7.54657 4.85952C7.54657 4.85952 7.52172 4.84302 7.49023 4.85175C7.49023 4.85175 7.49588 4.8159 7.54147 4.82602C7.58706 4.8361 7.54657 4.85952 7.54657 4.85952Z" fill="#82AFFF"/>
<path d="M7.54373 4.79851C7.54373 4.79851 7.52791 4.77362 7.49414 4.77141C7.49414 4.77141 7.51602 4.73791 7.55436 4.7636C7.59278 4.78932 7.54373 4.79851 7.54373 4.79851Z" fill="#82AFFF"/>
<path d="M7.54388 4.83159C7.54388 4.83159 7.518 4.81249 7.48389 4.81955C7.48389 4.81955 7.49155 4.78223 7.53995 4.79603C7.58835 4.80979 7.54388 4.83159 7.54388 4.83159Z" fill="#82AFFF"/>
<path d="M8.31232 4.94393C8.35524 4.94511 8.40627 4.92807 8.41439 4.88363C8.42372 4.83252 8.37997 4.80672 8.32124 4.80901C8.27832 4.81069 8.16978 4.83534 8.09199 4.8326C8.01508 4.82989 8.01299 4.75378 8.1295 4.76186C8.3023 4.77383 8.32978 4.75142 8.32978 4.75142C8.23701 4.76884 8.19985 4.73633 8.10129 4.73633C8.00273 4.73633 7.98379 4.80459 8.02358 4.8419C8.06817 4.88367 8.23004 4.85581 8.27291 4.84769C8.31583 4.83957 8.37025 4.83916 8.3746 4.86934C8.37849 4.8964 8.30657 4.89495 8.25561 4.89297C8.17454 4.88985 8.05662 4.91184 7.95162 4.91729C7.86419 4.92178 7.852 4.89712 7.8321 4.87189C7.83675 4.86347 7.83942 4.85413 7.83942 4.84422C7.83942 4.83923 7.83862 4.83439 7.83736 4.8297C7.84396 4.82242 7.85089 4.81088 7.85409 4.79201C7.85409 4.79201 7.83172 4.78808 7.8148 4.79658C7.80127 4.78591 7.78336 4.7792 7.76346 4.7792C7.74357 4.7792 7.72565 4.78587 7.71212 4.79658C7.6952 4.78805 7.67283 4.79201 7.67283 4.79201C7.67603 4.81084 7.68297 4.82242 7.68956 4.8297C7.6883 4.83435 7.6875 4.83919 7.6875 4.84422C7.6875 4.86244 7.69631 4.87887 7.71037 4.89068C7.71719 4.89636 7.72222 4.90387 7.72394 4.9126L7.72638 4.92495C7.72745 4.93036 7.73095 4.93459 7.73545 4.93718C7.66338 4.92975 7.62927 4.88443 7.61177 4.85928C7.59199 4.83089 7.57968 4.76808 7.54954 4.76106L7.53174 4.85577C7.53174 4.85577 7.56989 4.94393 7.64074 4.97987C7.72078 5.02046 7.73583 5.02164 7.76213 5.03322C7.76525 5.04714 7.71262 5.05563 7.6593 5.04485C7.62203 5.03726 7.57187 4.98318 7.54329 4.98707L7.5766 5.06108C7.66708 5.11829 7.74612 5.11951 7.81396 5.10747C7.86191 5.09897 7.88012 5.05994 7.88325 5.04325C7.9028 5.03963 7.92414 5.03555 7.99019 5.01931C8.01786 5.01249 8.04969 5.00891 8.08144 5.00746C8.09039 5.02785 8.11082 5.05396 8.18114 5.0564C8.18114 5.0564 8.19814 5.08346 8.14017 5.07804C8.08216 5.07263 8.0673 5.05457 8.03326 5.05842L8.06364 5.13064C8.06364 5.13064 8.13788 5.1051 8.22908 5.1144C8.22908 5.1144 8.24608 5.11902 8.25614 5.10434C8.26621 5.08967 8.26155 5.08113 8.25226 5.06802C8.24703 5.06063 8.24402 5.03662 8.24238 5.01703C8.27581 5.02545 8.37833 5.0046 8.41542 5.00773C8.4525 5.01085 8.45795 5.05411 8.44945 5.06878C8.44095 5.08346 8.36324 5.07092 8.36324 5.07092L8.38931 5.14223C8.38931 5.14223 8.39712 5.13845 8.41694 5.11982C8.43306 5.10469 8.49892 5.10975 8.49892 5.09817V4.96603C8.49892 4.95978 8.49351 4.9549 8.48722 4.95544C8.34205 4.9682 8.31232 4.94393 8.31232 4.94393Z" fill="#F8CB32"/>
<path d="M7.73291 4.89648C7.73511 4.90085 7.73673 4.90553 7.73762 4.91047L7.73983 4.92299C7.7406 4.92739 7.74408 4.93056 7.74806 4.93056H7.78221C7.78623 4.93056 7.78967 4.92735 7.79044 4.92299L7.79264 4.91047C7.79353 4.90553 7.79515 4.90081 7.79736 4.89648H7.73291Z" fill="#FF334B"/>
<path d="M7.76524 4.92188C7.75736 4.92188 7.75121 4.9228 7.75203 4.93381L7.75523 4.98064C7.75577 4.98779 7.7601 4.99328 7.76524 4.99328C7.77042 4.99328 7.7747 4.98783 7.77525 4.98064L7.77845 4.93381C7.77926 4.9228 7.77312 4.92188 7.76524 4.92188Z" fill="#82AFFF"/>
</g>
<defs>
<clipPath id="clip0_5367_191014">
<rect x="1" y="14.8398" width="14" height="14" rx="2" transform="rotate(-90 1 14.8398)" fill="white"/>
</clipPath>
</defs>
</svg>
