<svg width="16" height="16" viewBox="0 0 16 16" fill="none" xmlns="http://www.w3.org/2000/svg">
<g clip-path="url(#clip0_5367_190964)">
<rect x="1" y="1" width="14" height="14" rx="2" fill="#C8414B"/>
<path d="M16.0498 10.4258H0.0498047V14.9999H16.0498V10.4258Z" fill="#73AF00"/>
<path d="M-0.999969 5.57422L15 5.57422L15 1.00008L-0.999969 1.00008L-0.999969 5.57422Z" fill="#464655"/>
<path d="M16.0498 5.57422H0.0498047V6.12594H16.0498V5.57422Z" fill="white"/>
<path d="M16.0498 9.875H0.0498047V10.4267H16.0498V9.875Z" fill="white"/>
<path d="M10.1025 4.94167C10.4113 4.30498 10.7335 2.83008 10.7335 2.83008C10.7335 2.83008 9.77468 3.99621 9.46583 4.63286C9.4011 4.7663 9.42856 4.91977 9.52204 5.02359L6.00488 12.2751L6.24363 12.3909L9.76078 5.1394C9.90031 5.14857 10.0378 5.07511 10.1025 4.94167Z" fill="white"/>
<path d="M5.99619 4.94167C5.68742 4.30498 5.36523 2.83008 5.36523 2.83008C5.36523 2.83008 6.32403 3.99621 6.63288 4.63286C6.69761 4.7663 6.67015 4.91977 6.57667 5.02359L10.0938 12.2751L9.85508 12.3909L6.33793 5.1394C6.1984 5.14857 6.06087 5.07511 5.99619 4.94167Z" fill="white"/>
<path d="M9.96649 8.17254C9.96649 10.2904 8.40215 12.0072 8.04916 12.0072C7.69617 12.0072 6.13184 10.2904 6.13184 8.17254C6.13184 6.0547 7.69617 4.33789 8.04916 4.33789C8.40215 4.33789 9.96649 6.0547 9.96649 8.17254Z" fill="#C8414B"/>
<path d="M9.5827 10.0225C9.80854 9.47384 9.96618 8.84357 9.96618 8.17239C9.96618 7.50121 9.80859 6.87099 9.5827 6.32227C9.35686 6.87095 9.19922 7.50121 9.19922 8.17239C9.19922 8.84357 9.35686 9.47384 9.5827 10.0225Z" fill="#464655"/>
<path d="M6.51532 6.32227C6.28948 6.87095 6.13184 7.50121 6.13184 8.17239C6.13184 8.84357 6.28943 9.47379 6.51532 10.0225C6.74116 9.47384 6.8988 8.84357 6.8988 8.17239C6.8988 7.50121 6.74116 6.87099 6.51532 6.32227Z" fill="#464655"/>
<path d="M8.0495 8.74802C8.26129 8.74802 8.43298 8.4905 8.43298 8.17284C8.43298 7.85517 8.26129 7.59766 8.0495 7.59766C7.83771 7.59766 7.66602 7.85517 7.66602 8.17284C7.66602 8.4905 7.83771 8.74802 8.0495 8.74802Z" fill="white"/>
<path d="M8.10742 4.33789V7.59732C8.21198 7.37969 8.39742 6.73657 8.39742 5.9676C8.39742 5.1986 8.21198 4.55552 8.10742 4.33789Z" fill="white"/>
<path d="M7.99215 4.33789C7.88759 4.55552 7.70215 5.1986 7.70215 5.9676C7.70215 6.73661 7.88759 7.37973 7.99215 7.59732V4.33789Z" fill="white"/>
<path d="M8.10742 8.74805V12.0075C8.21198 11.7898 8.39742 11.1467 8.39742 10.3778C8.39742 9.60875 8.21198 8.96568 8.10742 8.74805Z" fill="white"/>
<path d="M7.99215 8.74805C7.88759 8.96568 7.70215 9.60875 7.70215 10.3778C7.70215 11.1468 7.88759 11.7899 7.99215 12.0075V8.74805Z" fill="white"/>
</g>
<defs>
<clipPath id="clip0_5367_190964">
<rect x="1" y="1" width="14" height="14" rx="2" fill="white"/>
</clipPath>
</defs>
</svg>
