<svg width="16" height="16" viewBox="0 0 16 16" fill="none" xmlns="http://www.w3.org/2000/svg">
<g clip-path="url(#clip0_5367_190938)">
<rect x="1" y="14.5469" width="14" height="14" rx="2" transform="rotate(-90 1 14.5469)" fill="white"/>
<path d="M15 0.546875H1V3.34688H15V0.546875Z" fill="#41479B"/>
<path d="M15 3.34766H1V11.7477H15V3.34766Z" fill="#FF334B"/>
<path d="M15 11.7461H1V14.5461H15V11.7461Z" fill="#41479B"/>
<path d="M12.7819 10.1936V9.68119H12.6112V9.33961H12.4403V8.99807H12.2695V8.65649H11.7572V7.63174H11.7571L11.928 7.46095V6.94858H11.7572V6.607H11.5864V6.09463H11.4156V5.75304H11.2448V5.41146H11.074V5.24067H10.7324V5.41146H10.5616V5.75304H10.3908V6.09463H10.2201V6.607H10.0493V6.94858H9.02451V6.43621H8.85376V5.92384H8.68297V5.41146H8.51218V5.06988H8.34139V4.7283H8.1706V4.55751H8.0852V4.38672H7.91441V4.55751H7.82898V4.7283H7.65823V5.06988H7.48743V5.41146H7.31664V5.92384H7.14585V6.43621H6.97506V6.94858H5.95032V6.607H5.77953V6.09463H5.60874V5.75304H5.43795V5.41146H5.26716V5.24067H4.92557V5.41146H4.75478V5.75304H4.58399V6.09463H4.4132V6.607H4.24241V6.94858H4.07162V7.46095L4.24233 7.63174H4.24241V8.65649H3.73008V8.99807H3.55929V9.33961H3.38846V9.68119H3.21767V10.1936H3.04688V10.7059H12.9527V10.1936H12.7819Z" fill="white"/>
</g>
<defs>
<clipPath id="clip0_5367_190938">
<rect x="1" y="14.5469" width="14" height="14" rx="2" transform="rotate(-90 1 14.5469)" fill="white"/>
</clipPath>
</defs>
</svg>
