<svg width="16" height="16" viewBox="0 0 16 16" fill="none" xmlns="http://www.w3.org/2000/svg">
<g clip-path="url(#clip0_5367_190889)">
<rect x="15" y="1" width="14" height="14" rx="2" transform="rotate(90 15 1)" fill="#41479B"/>
<path d="M11.3103 1H0.275875C0.123531 1 0 1.16494 0 1.3684V14.6316C0 14.7354 0.0327188 14.8284 0.0844688 14.8954L11.3103 1Z" fill="#73AF00"/>
<path d="M15.9153 1.10547L4.68945 15.0009H15.7239C15.8763 15.0009 15.9998 14.8359 15.9998 14.6324V1.36928C15.9998 1.2654 15.9671 1.17241 15.9153 1.10547Z" fill="#FF334B"/>
<path d="M11.3103 0.5H11.0715L10.9214 0.685786L-0.304461 14.5812L-0.552798 14.8886L-0.311099 15.2012C-0.192976 15.354 0.00810373 15.5 0.275848 15.5H4.68963H4.92847L5.07856 15.3142L16.3045 1.4188L16.5527 1.11151L16.3112 0.798898C16.1929 0.645748 15.9917 0.5 15.7241 0.5H11.3103Z" fill="#464655" stroke="#F8CB32"/>
<path d="M5.20999 9.4866L5.88762 9.74987L6.35607 9.19397C6.41673 9.12199 6.5341 9.16864 6.52875 9.26263L6.48775 9.98842L7.16119 10.2622C7.24839 10.2976 7.24028 10.4236 7.14928 10.4476L6.44634 10.6329L6.3941 11.358C6.38731 11.4519 6.26498 11.4832 6.21401 11.404L5.82057 10.7927L5.11485 10.9671C5.02346 10.9897 4.95594 10.8829 5.01546 10.81L5.47523 10.2469L5.09129 9.62959C5.04166 9.54968 5.12228 9.45248 5.20999 9.4866Z" fill="white"/>
<path d="M9.14798 4.64283L9.8256 4.9061L10.2941 4.3502C10.3547 4.27822 10.4721 4.32487 10.4667 4.41886L10.4257 5.14465L11.0992 5.41839C11.1864 5.45386 11.1783 5.57984 11.0873 5.60387L10.3843 5.78916L10.3321 6.51426C10.3253 6.60812 10.203 6.63938 10.152 6.56024L9.75855 5.94894L9.05283 6.12331C8.96144 6.14589 8.89392 6.03916 8.95344 5.96627L9.41322 5.40315L9.02927 4.78582C8.97963 4.70597 9.06024 4.60875 9.14798 4.64283Z" fill="white"/>
</g>
<defs>
<clipPath id="clip0_5367_190889">
<rect x="15" y="1" width="14" height="14" rx="2" transform="rotate(90 15 1)" fill="white"/>
</clipPath>
</defs>
</svg>
