<svg width="16" height="16" viewBox="0 0 16 16" fill="none" xmlns="http://www.w3.org/2000/svg">
<g clip-path="url(#clip0_5367_190873)">
<rect x="1" y="1" width="14" height="14" rx="2" fill="#41479B"/>
<path d="M16 4H0V4.55172H16V4Z" fill="white"/>
<path d="M16.0005 11.1719H0.000488281V11.7236H16.0005V11.1719Z" fill="white"/>
<path d="M16 4.55273H0V11.1733H16V4.55273Z" fill="#FF334B"/>
<path d="M4.41341 10.07C5.63224 10.07 6.62029 9.08194 6.62029 7.86312C6.62029 6.6443 5.63224 5.65625 4.41341 5.65625C3.19459 5.65625 2.20654 6.6443 2.20654 7.86312C2.20654 9.08194 3.19459 10.07 4.41341 10.07Z" fill="white"/>
<path d="M4.47229 5.8529L4.91501 7.18034L6.31429 7.19121C6.37382 7.19165 6.39851 7.26762 6.3506 7.30299L5.22495 8.13424L5.64701 9.46837C5.66498 9.52512 5.60035 9.57205 5.55191 9.53746L4.41354 8.72374L3.27514 9.53743C3.22673 9.57205 3.16211 9.52508 3.18004 9.46833L3.60211 8.13421L2.47645 7.30296C2.42854 7.26762 2.45323 7.19165 2.51276 7.19118L3.91204 7.18031L4.35476 5.85287C4.3736 5.79643 4.45345 5.79643 4.47229 5.8529Z" fill="#FF334B"/>
</g>
<defs>
<clipPath id="clip0_5367_190873">
<rect x="1" y="1" width="14" height="14" rx="2" fill="white"/>
</clipPath>
</defs>
</svg>
