<svg width="16" height="16" viewBox="0 0 16 16" fill="none" xmlns="http://www.w3.org/2000/svg">
<g clip-path="url(#clip0_5367_190747)">
<rect x="1" y="1" width="14" height="14" rx="2" fill="#41479B"/>
<path d="M8.59325 6.23062H1.14502C0.992672 6.23062 0.869141 6.10431 0.869141 5.94853V1.15319C0.869141 0.99741 0.992672 0.871094 1.14502 0.871094H8.59325C8.74559 0.871094 8.86913 0.99741 8.86913 1.15319V5.94856C8.86909 6.10437 8.74563 6.23062 8.59325 6.23062Z" fill="#41479B"/>
<path d="M8.59324 1H8.11405L5.55875 2.6708V1H4.17944V2.6708L1.62414 1H1.14501C0.992671 1 0.869141 1.12325 0.869141 1.27529V1.49366L3.06148 2.92709H0.869141V4.30361H3.06148L0.869141 5.73708V5.95545C0.869141 6.10749 0.992671 6.23077 1.14501 6.23077H1.6242L4.1795 4.55997V6.23077H5.55881V4.55997L8.11408 6.23077H8.59327C8.74561 6.23077 8.86914 6.10749 8.86914 5.95545V5.73708L6.67681 4.30365H8.86911V2.92712H6.67677L8.86911 1.49369V1.27532C8.86911 1.12325 8.74558 1 8.59324 1Z" fill="white"/>
<path d="M8.86914 3.20244H5.28292V1H4.45536V3.20244H0.869141V4.02833H4.45536V6.23077H5.28292V4.02833H8.86914V3.20244Z" fill="#FF334B"/>
<path d="M3.94606 2.84615L1.00245 1C0.924118 1.04788 0.869141 1.12837 0.869141 1.22457V1.23859L3.43229 2.84615H3.94606Z" fill="#FF334B"/>
<path d="M6.19054 2.87892L8.99934 1.08249C8.94739 1.00632 8.85814 0.954282 8.75336 0.957334L8.69161 0.959133L5.66606 2.8942L6.19054 2.87892Z" fill="#FF334B"/>
<path d="M3.72817 4.38477L0.869141 6.09537C0.918442 6.1749 1.00764 6.23092 1.11415 6.23092H1.16812L4.25376 4.38477H3.72817V4.38477Z" fill="#FF334B"/>
<path d="M8.86892 6.01045L6.29654 4.38477H5.79199L8.71314 6.23092C8.80064 6.19138 8.86067 6.10852 8.86892 6.01045Z" fill="#FF334B"/>
<path d="M11.2944 7.3445C11.2944 7.3445 11.1791 6.88306 10.833 6.65234C10.833 6.65234 11.1791 7.22912 11.1791 7.69059L11.2944 7.3445Z" fill="#F8CB32"/>
<path d="M10.7607 6.84375C10.7607 6.84375 11.0023 6.99153 11.1321 7.23309L11.0275 7.47466C11.0276 7.47466 10.941 7.13219 10.7607 6.84375Z" fill="#F8CB32"/>
<path d="M10.4941 6.89844C10.4941 6.89844 10.9123 7.02822 11.1106 7.29859L10.9916 7.47884C10.9916 7.47884 10.833 7.17244 10.4941 6.89844Z" fill="#F8CB32"/>
<path d="M10.4326 7.10742C10.4326 7.10742 10.8724 7.17589 11.0707 7.38502L11.0202 7.5833C11.0202 7.58327 10.7787 7.29486 10.4326 7.10742Z" fill="#F8CB32"/>
<path d="M10.4473 7.25C10.4473 7.25 10.8726 7.29328 11.0673 7.51675C11.262 7.74028 10.9952 7.67175 10.9952 7.67175C10.9952 7.67175 10.7717 7.41584 10.4473 7.25Z" fill="#F8CB32"/>
<path d="M11.2939 7.3445C11.2939 7.3445 11.4093 6.88306 11.7554 6.65234C11.7554 6.65234 11.4093 7.22912 11.4093 7.69059L11.2939 7.3445Z" fill="#F8CB32"/>
<path d="M11.8274 6.84375C11.8274 6.84375 11.5858 6.99153 11.4561 7.23309L11.5606 7.47466C11.5606 7.47466 11.6471 7.13219 11.8274 6.84375Z" fill="#F8CB32"/>
<path d="M12.095 6.89844C12.095 6.89844 11.6768 7.02822 11.4785 7.29859L11.5975 7.47884C11.5975 7.47884 11.7561 7.17244 12.095 6.89844Z" fill="#F8CB32"/>
<path d="M12.1557 7.10742C12.1557 7.10742 11.7159 7.17589 11.5176 7.38502L11.568 7.5833C11.568 7.58327 11.8096 7.29486 12.1557 7.10742Z" fill="#F8CB32"/>
<path d="M12.1414 7.25C12.1414 7.25 11.716 7.29328 11.5213 7.51675C11.3266 7.74028 11.5934 7.67175 11.5934 7.67175C11.5934 7.67175 11.8169 7.41584 12.1414 7.25Z" fill="#F8CB32"/>
<path d="M11.2943 6.65234C11.2943 6.65234 11.1792 6.89506 11.2943 7.01644C11.4094 6.89509 11.2943 6.65234 11.2943 6.65234Z" fill="#F8CB32"/>
<path d="M11.1792 6.71289C11.1792 6.71289 11.1637 6.9812 11.3162 7.0502C11.3774 6.89433 11.1792 6.71289 11.1792 6.71289Z" fill="#F8CB32"/>
<path d="M11.4095 6.71289C11.4095 6.71289 11.425 6.9812 11.2725 7.0502C11.2113 6.89433 11.4095 6.71289 11.4095 6.71289Z" fill="#F8CB32"/>
<path d="M11.4468 6.86719C11.4468 6.86719 11.3461 7.11641 11.1787 7.11356C11.19 6.9465 11.4468 6.86719 11.4468 6.86719Z" fill="#F8CB32"/>
<path d="M11.1416 6.86719C11.1416 6.86719 11.2423 7.11641 11.4097 7.11356C11.3984 6.9465 11.1416 6.86719 11.1416 6.86719Z" fill="#F8CB32"/>
<path d="M11.2935 7.92092C11.4847 7.92092 11.6398 7.71433 11.6398 7.45948C11.6398 7.20464 11.4847 6.99805 11.2935 6.99805C11.1023 6.99805 10.9473 7.20464 10.9473 7.45948C10.9473 7.71433 11.1023 7.92092 11.2935 7.92092Z" fill="#FFD255"/>
<path d="M10.5031 7.9308L10.4238 7.80821C10.4238 7.80821 10.193 7.86349 10.1378 7.69046L10.0488 7.68324C10.0488 7.68324 10.0608 7.56549 10.1642 7.54865C10.1642 7.54865 10.2266 7.47174 10.3372 7.48618C10.4478 7.50059 10.5055 7.5943 10.5691 7.61837C10.6328 7.6424 10.64 7.72171 10.64 7.72171L11.1255 8.21918C11.1255 8.21918 10.9861 8.39705 10.8611 8.45471C10.7361 8.51233 10.2771 8.23121 10.5031 7.9308Z" fill="#73AF00"/>
<path d="M12.08 8.02148C12.08 8.02148 12.282 8.15848 12.2891 8.53701H11.9539C11.9539 8.53701 11.9575 8.28105 11.8926 8.14408L12.08 8.02148Z" fill="#73AF00"/>
<path d="M12.0361 8.03614C12.0361 8.03614 12.2885 8.11908 12.4435 7.9208L12.1803 7.88477L12.0361 8.03614Z" fill="#73AF00"/>
<path d="M11.9609 7.75922L12.2171 7.84559C12.2494 7.8565 12.2608 7.8965 12.2382 7.922C12.141 8.03153 11.8508 8.29397 11.3829 8.29397C10.7736 8.29397 10.6162 7.91062 10.609 7.88181C10.6018 7.853 10.5693 7.61866 10.5693 7.61866L10.8289 7.58984L11.9609 7.75922Z" fill="#73AF00"/>
<path d="M9.46937 11.2891H10.1404L9.7943 11.9594L9.44824 11.4979L9.46937 11.2891Z" fill="#FF334B"/>
<path d="M13.1183 11.2891H12.4473L12.7933 11.9594L13.1394 11.4979L13.1183 11.2891Z" fill="#FF334B"/>
<path d="M9.46655 12.4201C9.13552 12.4201 8.8822 12.2424 8.86914 12.2332L9.13589 11.8565C9.13811 11.858 9.36161 12.0098 9.58951 11.9408C9.82014 11.8712 9.97154 11.599 10.058 11.3828L10.4864 11.5542C10.3047 12.0087 10.0454 12.288 9.71608 12.3845C9.62995 12.4098 9.54598 12.4201 9.46655 12.4201Z" fill="#FFD25A"/>
<path d="M13.1214 12.4201C13.4525 12.4201 13.7058 12.2424 13.7188 12.2332L13.4521 11.8565C13.4499 11.858 13.2264 12.0098 12.9985 11.9408C12.7678 11.8712 12.6164 11.599 12.53 11.3828L12.1016 11.5542C12.2833 12.0087 12.5426 12.288 12.8719 12.3845C12.958 12.4098 13.042 12.4201 13.1214 12.4201Z" fill="#FFD25A"/>
<path d="M12.7933 9.99759H9.79395V8.88916C9.79395 8.73681 9.91748 8.61328 10.0698 8.61328H12.5175C12.6698 8.61328 12.7933 8.73681 12.7933 8.88916V9.99759H12.7933Z" fill="#FF334B"/>
<path d="M10.6136 9.42056L10.5776 9.18984C10.4081 9.18263 10.3108 8.98438 10.3108 8.98438L10.1738 9.06006C10.318 9.40616 10.6136 9.42056 10.6136 9.42056Z" fill="#F8CB32"/>
<path d="M12.4191 9.18298C12.4695 9.14455 12.5801 9.13011 12.5801 9.13011C12.5008 9.04839 12.4143 9.10608 12.4143 9.10608C12.4864 9.0388 12.4455 8.94267 12.4455 8.94267C12.4455 8.97392 12.3951 8.99555 12.3951 8.99555C12.3975 8.93308 12.3326 8.87295 12.3326 8.87295L12.299 8.92823C12.2773 8.87536 12.2004 8.83452 12.2004 8.83452L12.1692 8.9643C12.0971 8.90183 11.9697 8.90661 11.9697 8.90661L11.9937 8.9667C11.9168 8.96908 11.7077 9.01236 11.5851 9.02677C11.4625 9.04117 11.3641 9.00755 11.3641 8.9523C11.3641 8.90598 11.4712 8.90027 11.5175 8.89958C11.5503 8.90689 11.5915 8.9187 11.6495 8.93611C11.7576 8.96855 11.8209 8.92155 11.8209 8.92155C11.783 8.90714 11.7789 8.8903 11.7789 8.8903C11.86 8.84342 11.936 8.85498 11.936 8.85498C11.909 8.79552 11.7918 8.79911 11.7918 8.79911C11.8225 8.78289 11.8459 8.73242 11.8459 8.73242C11.8387 8.73964 11.7721 8.75598 11.6811 8.76817C11.6127 8.77739 11.5484 8.82942 11.5219 8.85348C11.4497 8.84795 11.2612 8.84567 11.2943 8.97639C11.3352 9.13742 11.6596 9.07973 11.8591 9.04848C12.0586 9.01723 12.1619 9.0437 12.2052 9.07011C12.2485 9.09655 12.1868 9.18611 11.9841 9.14942C11.8089 9.11773 11.7125 9.11683 11.6595 9.12239C11.6008 9.12614 11.5507 9.14195 11.5154 9.14942C11.4361 9.16623 11.1309 9.27439 11.0732 9.11817C11.0155 8.96192 10.7343 9.37292 10.7343 9.37292L10.7563 9.39905L10.6815 9.38133C10.5805 9.51651 10.2777 9.55798 10.2777 9.55798C10.2777 9.55798 10.2326 9.47689 10.1948 9.46605C10.1569 9.45523 10.1407 9.5147 10.1407 9.5147C10.1407 9.5147 10.0956 9.51648 10.0921 9.55798C10.0884 9.59942 10.1245 9.60305 10.1245 9.60305C10.1245 9.60305 10.0812 9.66614 10.1533 9.68414C10.1533 9.68414 10.1479 9.77245 10.2542 9.71117C10.5702 9.75098 10.8006 9.58876 10.9003 9.50026C10.9655 9.50445 11.0671 9.50236 11.1453 9.46183C11.2702 9.39692 11.4144 9.3152 11.4985 9.34648C11.4985 9.34648 11.5659 9.55317 11.3015 9.55795C11.3015 9.55795 11.2624 9.50851 11.2231 9.50851C11.2061 9.50851 11.1884 9.52889 11.1939 9.5472C11.1939 9.5472 11.1477 9.54448 11.1396 9.57164C11.1329 9.59376 11.1491 9.61911 11.183 9.61505C11.183 9.61505 11.1599 9.64898 11.183 9.66933C11.2061 9.68967 11.2346 9.66933 11.2346 9.66933C11.2346 9.66933 11.2224 9.71139 11.2509 9.71545C11.2752 9.71892 11.3075 9.67911 11.3168 9.66701C11.3591 9.67361 11.6477 9.70689 11.7101 9.40411C11.7101 9.40411 11.8543 9.46658 11.9961 9.45458C12.1379 9.44258 12.2773 9.4642 12.2653 9.53389C12.2495 9.58442 12.2185 9.58108 12.2185 9.58108C12.1846 9.56748 12.1276 9.56886 12.1195 9.61773C12.1114 9.66661 12.1778 9.66795 12.1778 9.66795C12.1968 9.71273 12.2511 9.69373 12.2511 9.69373C12.2986 9.72767 12.3298 9.69101 12.3298 9.69101C12.3502 9.70867 12.3712 9.71195 12.3909 9.69508C12.4099 9.6788 12.3992 9.5702 12.3974 9.53145C12.3944 9.46698 12.3854 9.29836 12.2917 9.29592C12.198 9.29352 12.0778 9.3488 11.912 9.20939C11.9033 9.20211 11.8949 9.19748 11.8863 9.1913C11.9648 9.19858 12.021 9.21986 12.0754 9.22861C12.1499 9.24067 12.3686 9.22145 12.4191 9.18298Z" fill="#F8CB32"/>
<path d="M10.1736 9.06065C10.1736 9.06065 10.1276 9.0619 10.1051 9.05524C10.0665 9.04386 10.0618 8.98315 10.1033 8.9723C10.1033 8.9723 10.0534 8.93839 10.0763 8.90021C10.0946 8.86964 10.1413 8.86974 10.1575 8.88777C10.1575 8.88777 10.1423 8.83749 10.1863 8.82089C10.2213 8.80768 10.2494 8.84793 10.2494 8.90021C10.2494 8.90021 10.3017 8.85764 10.3287 8.8858C10.3475 8.90543 10.3421 8.93121 10.3107 8.98493C10.2785 9.03974 10.1736 9.06065 10.1736 9.06065Z" fill="#F8CB32"/>
<path d="M10.1153 9.03861C10.1153 9.03861 10.0909 9.08067 10.0205 9.05489C10.0205 9.05489 10.0814 9.02636 10.0895 9.00195L10.1153 9.03861Z" fill="#41479B"/>
<path d="M10.0896 8.91636C10.0896 8.91636 10.0517 8.89195 10.0098 8.89329C10.0098 8.89329 10.072 8.84717 10.1248 8.88789L10.0896 8.91636Z" fill="#41479B"/>
<path d="M10.1782 8.85047C10.1782 8.85047 10.1904 8.80569 10.166 8.78125C10.166 8.78125 10.2161 8.80297 10.2229 8.84366L10.1782 8.85047Z" fill="#41479B"/>
<path d="M10.2891 8.89647C10.2891 8.89647 10.3134 8.84219 10.2918 8.81641C10.2918 8.81641 10.3567 8.85441 10.3297 8.91684L10.2891 8.89647Z" fill="#41479B"/>
<path d="M10.1622 9.50012C10.1622 9.50012 10.1361 9.44665 10.1025 9.44684C10.1025 9.44684 10.1732 9.42106 10.2038 9.48184L10.1622 9.50012Z" fill="#41479B"/>
<path d="M10.1051 9.56786C10.1051 9.56786 10.0586 9.5308 10.0283 9.54549C10.0283 9.54549 10.0811 9.49174 10.1347 9.53342L10.1051 9.56786Z" fill="#41479B"/>
<path d="M10.1378 9.66458C10.1378 9.66458 10.0784 9.66392 10.0635 9.69414C10.0635 9.69414 10.0722 9.61923 10.1401 9.61914L10.1378 9.66458Z" fill="#41479B"/>
<path d="M10.1914 9.72611C10.1914 9.72611 10.1671 9.76817 10.0967 9.74239C10.0967 9.74239 10.1576 9.71386 10.1657 9.68945L10.1914 9.72611Z" fill="#41479B"/>
<path d="M11.2651 9.70508C11.2651 9.70508 11.2452 9.73952 11.1875 9.71842C11.1875 9.71842 11.2343 9.70167 11.241 9.68164L11.2651 9.70508Z" fill="#41479B"/>
<path d="M10.6542 8.95944C10.6542 8.95944 10.5244 9.18053 10.5556 9.50019C10.5556 9.50019 10.9383 9.44431 11.1042 9.06219C11.1042 9.06219 11.1446 9.04584 11.1604 9.00659C11.1738 8.97322 11.1727 8.91825 11.1084 8.91856C11.1084 8.91856 11.1277 8.88012 11.1511 8.87109C11.1511 8.87109 11.1096 8.85487 11.0609 8.86569C11.0609 8.86569 11.0988 8.82781 11.0988 8.77916C11.0988 8.77916 11.0411 8.81703 11.0051 8.82059C11.0051 8.82059 11.0015 8.76112 11.0159 8.75391C11.0159 8.75391 10.9402 8.76112 10.9023 8.80078C10.9023 8.80078 10.8771 8.76653 10.8789 8.73047C10.8789 8.73047 10.8086 8.76112 10.7816 8.80616C10.7816 8.80616 10.7599 8.78272 10.7618 8.75928C10.7618 8.75928 10.7113 8.82056 10.7005 8.853C10.7005 8.853 10.6529 8.83994 10.632 8.87825C10.6168 8.90594 10.6203 8.93634 10.6542 8.95944Z" fill="#FFD255"/>
<path d="M11.2069 9.54253C11.2069 9.54253 11.1915 9.51356 11.1455 9.50725C11.1455 9.50725 11.2042 9.48013 11.2412 9.519L11.2069 9.54253Z" fill="#41479B"/>
<path d="M12.1618 9.65242C12.1618 9.65242 12.1281 9.66308 12.1124 9.71077C12.1124 9.71077 12.0951 9.64305 12.1436 9.61133L12.1618 9.65242Z" fill="#41479B"/>
<path d="M12.2319 9.67714C12.2319 9.67714 12.2 9.70817 12.2015 9.75842C12.2015 9.75842 12.1622 9.70073 12.1969 9.6543L12.2319 9.67714Z" fill="#41479B"/>
<path d="M12.3847 9.6738C12.3847 9.6738 12.3751 9.70667 12.4042 9.74173C12.4042 9.74173 12.3439 9.72252 12.3428 9.66992L12.3847 9.6738Z" fill="#41479B"/>
<path d="M12.313 9.68742C12.313 9.68742 12.2874 9.7118 12.2942 9.76161C12.2942 9.76161 12.2467 9.71973 12.2763 9.66992L12.313 9.68742Z" fill="#41479B"/>
<path d="M11.1579 9.60128C11.1579 9.60128 11.1271 9.59022 11.0889 9.61659C11.0889 9.61659 11.114 9.55694 11.1675 9.56072L11.1579 9.60128Z" fill="#41479B"/>
<path d="M11.2003 9.66798C11.2003 9.66798 11.1687 9.65967 11.1328 9.6893C11.1328 9.6893 11.1383 9.63173 11.1919 9.63086L11.2003 9.66798Z" fill="#41479B"/>
<path d="M12.7933 10.1842C12.5432 10.1842 12.5432 10.4099 12.293 10.4099C12.0428 10.4099 12.0428 10.1842 11.7926 10.1842C11.5426 10.1842 11.5426 10.4099 11.2926 10.4099C11.0428 10.4099 11.0428 10.1842 10.7931 10.1842C10.5433 10.1842 10.5433 10.4099 10.2936 10.4099C10.0438 10.4099 10.0438 10.1842 9.79395 10.1842V9.76758C10.0438 9.76758 10.0438 9.99323 10.2936 9.99323C10.5433 9.99323 10.5433 9.76758 10.7931 9.76758C11.0428 9.76758 11.0428 9.99323 11.2926 9.99323C11.5426 9.99323 11.5426 9.76758 11.7926 9.76758C12.0428 9.76758 12.0428 9.99323 12.293 9.99323C12.5432 9.99323 12.5432 9.76758 12.7933 9.76758V10.1842Z" fill="white"/>
<path d="M12.2935 10.4092C12.0434 10.4092 12.0434 10.1836 11.7932 10.1836C11.5432 10.1836 11.5432 10.4092 11.2932 10.4092C11.0434 10.4092 11.0434 10.1836 10.7936 10.1836C10.5438 10.1836 10.5439 10.4092 10.2941 10.4092C10.0448 10.4092 10.0441 10.1847 9.7959 10.1837C9.79934 10.2835 9.81081 10.4315 9.84002 10.6055C10.043 10.6324 10.0614 10.8258 10.2941 10.8258C10.5439 10.8258 10.5439 10.6002 10.7936 10.6002C11.0434 10.6002 11.0434 10.8258 11.2931 10.8258C11.5431 10.8258 11.5431 10.6002 11.7931 10.6002C12.0433 10.6002 12.0433 10.8258 12.2935 10.8258C12.5265 10.8258 12.545 10.6323 12.7483 10.6055C12.7775 10.4315 12.789 10.2835 12.7924 10.1837C12.5439 10.1847 12.5432 10.4092 12.2935 10.4092Z" fill="#41479B"/>
<path d="M12.2933 10.8272C12.0432 10.8272 12.0432 10.6016 11.793 10.6016C11.543 10.6016 11.543 10.8272 11.293 10.8272C11.0432 10.8272 11.0432 10.6016 10.7934 10.6016C10.5436 10.6016 10.5437 10.8272 10.2939 10.8272C10.0612 10.8272 10.0427 10.6338 9.83984 10.6069C9.86303 10.7448 9.89759 10.8985 9.94856 11.0575C10.061 11.122 10.11 11.2439 10.2939 11.2439C10.5437 11.2439 10.5437 11.0182 10.7934 11.0182C11.0432 11.0182 11.0432 11.2439 11.293 11.2439C11.543 11.2439 11.543 11.0182 11.793 11.0182C12.0431 11.0182 12.0431 11.2439 12.2933 11.2439C12.4777 11.2439 12.5266 11.1218 12.6394 11.0573C12.6904 10.8984 12.7249 10.7447 12.7481 10.6069C12.5449 10.6338 12.5263 10.8272 12.2933 10.8272Z" fill="white"/>
<path d="M12.293 11.2432C12.0428 11.2432 12.0428 11.0176 11.7926 11.0176C11.5426 11.0176 11.5426 11.2432 11.2926 11.2432C11.0429 11.2432 11.0429 11.0176 10.7931 11.0176C10.5433 11.0176 10.5433 11.2432 10.2936 11.2432C10.1097 11.2432 10.0607 11.1214 9.94824 11.0568C10.0117 11.2549 10.1009 11.4603 10.2253 11.6519C10.2463 11.6562 10.2679 11.6599 10.2936 11.6599C10.5434 11.6599 10.5434 11.4342 10.7931 11.4342C11.0429 11.4342 11.0429 11.6599 11.2926 11.6599C11.5426 11.6599 11.5426 11.4342 11.7926 11.4342C12.0428 11.4342 12.0428 11.6599 12.293 11.6599C12.319 11.6599 12.3409 11.6562 12.362 11.6518C12.4865 11.4602 12.5756 11.2547 12.6391 11.0567C12.5263 11.1211 12.4773 11.2432 12.293 11.2432Z" fill="#41479B"/>
<path d="M12.2933 11.6593C12.0431 11.6593 12.0431 11.4336 11.7929 11.4336C11.5429 11.4336 11.5429 11.6593 11.2929 11.6593C11.0431 11.6593 11.0431 11.4336 10.7934 11.4336C10.5436 11.4336 10.5436 11.6593 10.2939 11.6593C10.2682 11.6593 10.2466 11.6556 10.2256 11.6513C10.3046 11.773 10.3983 11.8887 10.5085 11.9935C10.5849 11.929 10.6456 11.8502 10.7934 11.8502C11.0432 11.8502 11.0432 12.0759 11.293 12.0759C11.543 12.0759 11.543 11.8502 11.793 11.8502C11.9414 11.8502 12.0021 11.9293 12.0789 11.994C12.1893 11.8891 12.2831 11.7732 12.3623 11.6512C12.3412 11.6556 12.3193 11.6593 12.2933 11.6593Z" fill="white"/>
<path d="M12.0791 11.9953C12.0023 11.9307 11.9417 11.8516 11.7932 11.8516C11.5432 11.8516 11.5432 12.0772 11.2932 12.0772C11.0434 12.0772 11.0434 11.8516 10.7937 11.8516C10.6459 11.8516 10.5852 11.9303 10.5088 11.9948C10.7097 12.1858 10.9659 12.3397 11.2942 12.4217C11.6222 12.3397 11.8783 12.1861 12.0791 11.9953Z" fill="#41479B"/>
<path d="M11.7926 9.76758C11.5426 9.76758 11.5426 9.99323 11.2926 9.99323C11.0428 9.99323 11.0428 9.76758 10.7931 9.76758C10.5433 9.76758 10.5433 9.99323 10.2936 9.99323C10.0438 9.99323 10.0438 9.76758 9.79395 9.76758C9.79395 9.90992 9.79395 10.0335 9.79395 10.1136C9.79395 10.1332 9.79438 10.1572 9.79532 10.1843C10.0436 10.1853 10.0443 10.4099 10.2936 10.4099C10.5433 10.4099 10.5433 10.1842 10.793 10.1842C11.0428 10.1842 11.0428 10.4099 11.2926 10.4099C11.5426 10.4099 11.5426 10.1842 11.7926 10.1842C12.0428 10.1842 12.0428 10.4099 12.2929 10.4099C12.5426 10.4099 12.5433 10.1853 12.7919 10.1843C12.7928 10.1572 12.7933 10.1331 12.7933 10.1136C12.7933 10.0335 12.7933 9.90989 12.7933 9.76758C12.5431 9.76758 12.5431 9.99323 12.2929 9.99323C12.0428 9.99323 12.0428 9.76758 11.7926 9.76758Z" fill="white"/>
<path d="M12.6786 8.61384C12.7423 8.61384 12.7939 8.6655 12.7939 8.72919V9.76744V9.99815C12.7939 10.0419 12.7939 10.0818 12.7939 10.1135C12.7939 10.133 12.7935 10.1571 12.7925 10.1842C12.7891 10.2839 12.7776 10.432 12.7484 10.606C12.7252 10.7437 12.6907 10.8974 12.6397 11.0563C12.5763 11.2544 12.4871 11.4599 12.3627 11.6515C12.2834 11.7734 12.1896 11.8894 12.0792 11.9942C11.8783 12.1849 11.6223 12.3386 11.2943 12.4206C10.966 12.3386 10.7098 12.1847 10.5089 11.9937C10.3986 11.889 10.305 11.7733 10.2259 11.6515C10.1015 11.4599 10.0124 11.2546 9.94888 11.0565C9.89791 10.8975 9.86332 10.7438 9.84016 10.6059C9.81091 10.432 9.79948 10.2839 9.79604 10.1842C9.7951 10.157 9.79466 10.133 9.79466 10.1135C9.79466 10.0818 9.79466 10.0418 9.79466 9.99812V9.7674V8.72916C9.79466 8.66544 9.84632 8.61381 9.91001 8.61381H12.6786L12.6786 8.61384ZM12.6786 8.52734H9.90991C9.7986 8.52734 9.70801 8.61791 9.70801 8.72925V9.7675V9.99822V10.1136C9.70801 10.1339 9.70845 10.159 9.70945 10.1872C9.71273 10.2814 9.72323 10.433 9.75473 10.6204C9.78154 10.7799 9.81913 10.9356 9.86638 11.083C9.93951 11.3111 10.036 11.5183 10.1533 11.6987C10.2396 11.8316 10.3392 11.9521 10.4492 12.0566C10.6786 12.2746 10.9559 12.4253 11.2732 12.5047L11.2942 12.5099L11.3152 12.5047C11.6323 12.4254 11.9093 12.2748 12.1387 12.057C12.2489 11.9524 12.3487 11.8318 12.4352 11.6987C12.5524 11.5181 12.6489 11.3109 12.7221 11.0827C12.7693 10.9354 12.8068 10.7798 12.8337 10.6203C12.8652 10.4329 12.8757 10.2813 12.879 10.1872C12.8799 10.1589 12.8804 10.1339 12.8804 10.1135V9.99818V9.76747V8.72922C12.8804 8.61791 12.7899 8.52734 12.6786 8.52734Z" fill="white"/>
<path d="M11.2944 11.7227L10.9778 11.943L11.0895 11.5738L10.7822 11.3409L11.1677 11.3331L11.2944 10.9688L11.421 11.3331L11.8065 11.3409L11.4993 11.5738L11.611 11.943L11.2944 11.7227Z" fill="#73AF00"/>
<path d="M11.2937 11.0408L11.4036 11.3569L11.7382 11.3637L11.4715 11.5659L11.5685 11.8862L11.2937 11.6951L11.019 11.8862L11.116 11.5659L10.8493 11.3637L11.1839 11.3569L11.2937 11.0408ZM11.2937 10.8984L11.2496 11.0254L11.1504 11.3108L10.8483 11.317L10.7139 11.3197L10.821 11.401L11.0617 11.5836L10.9743 11.8728L10.9353 12.0015L11.0457 11.9247L11.2937 11.7521L11.5417 11.9247L11.6521 12.0015L11.6131 11.8728L11.5257 11.5836L11.7664 11.401L11.8736 11.3197L11.7391 11.317L11.4371 11.3108L11.3378 11.0254L11.2937 10.8984Z" fill="#F8CB32"/>
<path d="M10.5991 10.8243L10.2825 11.0445L10.3942 10.6754L10.0869 10.4424L10.4725 10.4346L10.5991 10.0703L10.7257 10.4346L11.1113 10.4424L10.804 10.6754L10.9157 11.0445L10.5991 10.8243Z" fill="#73AF00"/>
<path d="M10.5984 10.1404L10.7083 10.4565L11.0429 10.4633L10.7762 10.6655L10.8732 10.9858L10.5985 10.7946L10.3237 10.9858L10.4207 10.6655L10.154 10.4633L10.4886 10.4565L10.5984 10.1404ZM10.5984 9.99805L10.5543 10.125L10.4551 10.4105L10.153 10.4166L10.0186 10.4194L10.1257 10.5006L10.3664 10.6832L10.279 10.9724L10.24 11.1011L10.3504 11.0243L10.5984 10.8517L10.8464 11.0243L10.9568 11.1011L10.9178 10.9724L10.8304 10.6832L11.0711 10.5006L11.1782 10.4194L11.0438 10.4166L10.7417 10.4105L10.6425 10.125L10.5984 9.99805Z" fill="#F8CB32"/>
<path d="M11.9829 10.8243L11.6663 11.0445L11.778 10.6754L11.4707 10.4424L11.8562 10.4346L11.9829 10.0703L12.1095 10.4346L12.495 10.4424L12.1878 10.6754L12.2994 11.0445L11.9829 10.8243Z" fill="#73AF00"/>
<path d="M11.9832 10.1404L12.0931 10.4565L12.4277 10.4633L12.161 10.6655L12.2579 10.9858L11.9832 10.7946L11.7085 10.9858L11.8054 10.6655L11.5387 10.4633L11.8734 10.4565L11.9832 10.1404ZM11.9832 9.99805L11.939 10.125L11.8398 10.4105L11.5377 10.4166L11.4033 10.4194L11.5104 10.5006L11.7512 10.6832L11.6637 10.9724L11.6248 11.1011L11.7352 11.0243L11.9832 10.8517L12.2312 11.0243L12.3415 11.1011L12.3026 10.9724L12.2151 10.6832L12.4559 10.5006L12.563 10.4194L12.4286 10.4166L12.1265 10.4105L12.0273 10.125L11.9832 9.99805Z" fill="#F8CB32"/>
<path d="M13.1186 11.2891C12.8323 12.018 12.1233 12.5362 11.294 12.5362C10.4647 12.5362 9.75563 12.018 9.46935 11.2891L9.04004 11.457C9.39369 12.3575 10.2695 12.9977 11.294 12.9977C12.3184 12.9977 13.1943 12.3575 13.5479 11.457L13.1186 11.2891Z" fill="#F8CB32"/>
<path d="M11.5249 8.61364H11.1789L11.0635 8.26758H11.4096L11.5249 8.61364Z" fill="white"/>
<path d="M12.1016 8.61353H11.8709L11.7939 8.38281H11.8993C11.9742 8.38281 12.0406 8.43075 12.0643 8.50178L12.1016 8.61353Z" fill="white"/>
<path d="M10.8324 8.61353H10.6017L10.5753 8.53462C10.5504 8.45994 10.606 8.38281 10.6848 8.38281H10.7554L10.8324 8.61353Z" fill="white"/>
<path d="M11.8706 8.61364H11.5245L11.4092 8.26758H11.6721C11.7218 8.26758 11.7658 8.29933 11.7816 8.34648L11.8706 8.61364Z" fill="#41479B"/>
<path d="M11.1784 8.61364H10.8324L10.7544 8.37989C10.736 8.32464 10.7772 8.26758 10.8354 8.26758H11.0631L11.1784 8.61364Z" fill="#41479B"/>
<path d="M12.141 7.8132C12.0508 7.94298 11.7985 8.09798 11.3875 8.09798C11.0489 8.09798 10.8311 7.89351 10.7584 7.81289C10.7407 7.79326 10.7314 7.76817 10.7314 7.7417V7.66302C10.7314 7.62914 10.749 7.59833 10.7783 7.58133C10.8515 7.5387 11.0208 7.4707 11.3551 7.4707C11.7697 7.4707 12.141 7.8132 12.141 7.8132Z" fill="#509664"/>
</g>
<defs>
<clipPath id="clip0_5367_190747">
<rect x="1" y="1" width="14" height="14" rx="2" fill="white"/>
</clipPath>
</defs>
</svg>
