<svg width="16" height="16" viewBox="0 0 16 16" fill="none" xmlns="http://www.w3.org/2000/svg">
<g clip-path="url(#clip0_5367_190654)">
<rect x="1" y="15" width="14" height="14" rx="2" transform="rotate(-90 1 15)" fill="#41479B"/>
<path d="M15 1H1V3.8H15V1Z" fill="#FF334B"/>
<path d="M15 3.80078H1V12.2008H15V3.80078Z" fill="#41479B"/>
<path d="M15 12.1992H1V14.9992H15V12.1992Z" fill="#FF334B"/>
<path d="M7.99992 11.1034C9.7139 11.1034 11.1034 9.7139 11.1034 7.99992C11.1034 6.28594 9.7139 4.89648 7.99992 4.89648C6.28594 4.89648 4.89648 6.28594 4.89648 7.99992C4.89648 9.7139 6.28594 11.1034 7.99992 11.1034Z" fill="white"/>
</g>
<defs>
<clipPath id="clip0_5367_190654">
<rect x="1" y="15" width="14" height="14" rx="2" transform="rotate(-90 1 15)" fill="white"/>
</clipPath>
</defs>
</svg>
