<svg width="16" height="16" viewBox="0 0 16 16" fill="none" xmlns="http://www.w3.org/2000/svg">
<g clip-path="url(#clip0_5367_190649)">
<rect x="1" y="15" width="14" height="14" rx="2" transform="rotate(-90 1 15)" fill="white"/>
<path d="M15 1H1V3.8H15V1Z" fill="#FF334B"/>
<path d="M15 12.1992H1V14.9992H15V12.1992Z" fill="#FF334B"/>
<path d="M8.58926 9.71773L11.1387 9.20782C11.3227 9.17104 11.4048 8.95448 11.2915 8.80488C11.2517 8.75235 11.1931 8.71732 11.1279 8.70717L8.41198 8.2837C8.33691 8.27198 8.28373 8.20148 8.29635 8.12357C8.30857 8.04814 8.38504 8.00004 8.46079 8.01004L10.3439 8.25782C10.4969 8.27795 10.5908 8.09507 10.4852 7.98245L10.334 7.8212C10.2774 7.76082 10.2033 7.71985 10.122 7.70414L8.54892 7.39948L9.89019 7.4961C9.99301 7.50351 10.0526 7.38198 9.98372 7.30523L9.91494 7.22857C9.87335 7.18226 9.81813 7.15039 9.75719 7.13767L8.42554 6.85939L9.37191 6.83201C9.4556 6.82961 9.49816 6.73036 9.44223 6.66808L9.39979 6.62079C9.36654 6.58376 9.32354 6.55683 9.27573 6.54311L8.43166 6.30076H9.09498C9.1606 6.30076 9.20473 6.23351 9.17863 6.17333L9.15626 6.1217C9.12941 6.05976 9.07766 6.01204 9.01379 5.99033L8.40038 5.78164L8.70207 5.78067C8.79173 5.78039 8.85185 5.68845 8.8162 5.60623C8.78748 5.53995 8.73679 5.48561 8.67266 5.45236L7.99982 5.10352L7.32689 5.45242C7.26279 5.48567 7.21207 5.54001 7.18336 5.6063C7.1477 5.68858 7.20782 5.78048 7.29748 5.78073L7.59917 5.78173L6.98576 5.99042C6.92186 6.01214 6.87011 6.05986 6.84329 6.12179L6.82092 6.17342C6.79482 6.23364 6.83895 6.30086 6.90457 6.30086H7.56789L6.72382 6.5432C6.67601 6.55692 6.63301 6.58386 6.59976 6.62089L6.55733 6.66817C6.50142 6.73048 6.54398 6.8297 6.62764 6.83211L7.57401 6.85948L6.24236 7.13776C6.18142 7.15048 6.12614 7.18236 6.08461 7.22867L6.01583 7.30532C5.94695 7.38204 6.00651 7.50361 6.10936 7.4962L7.45064 7.39957L5.87755 7.70423C5.7963 7.71995 5.72211 7.76092 5.66551 7.82129L5.51433 7.98254C5.40873 8.09517 5.50264 8.27807 5.65567 8.25792L7.53876 8.01014C7.61451 8.00017 7.69101 8.04823 7.7032 8.12367C7.71582 8.20163 7.66264 8.2721 7.58757 8.28379L4.87161 8.70726C4.80652 8.71738 4.74789 8.75245 4.70808 8.80495C4.59477 8.95451 4.67689 9.17107 4.86089 9.20788L7.41029 9.71779V10.036C7.41029 10.2097 7.34129 10.3763 7.21848 10.4991L6.82095 10.8967H7.99982H9.17873L8.7811 10.499C8.65829 10.3762 8.58929 10.2096 8.58929 10.0359V9.71773H8.58926Z" fill="#73AF00"/>
</g>
<defs>
<clipPath id="clip0_5367_190649">
<rect x="1" y="15" width="14" height="14" rx="2" transform="rotate(-90 1 15)" fill="white"/>
</clipPath>
</defs>
</svg>
