<svg width="16" height="16" viewBox="0 0 16 16" fill="none" xmlns="http://www.w3.org/2000/svg">
<g clip-path="url(#clip0_5367_190596)">
<rect x="1" y="1" width="14" height="14" rx="2" fill="white"/>
<path d="M16 2.27275H0V1.36844C0 1.16498 0.123531 1 0.275874 1H15.7241C15.8765 1 16 1.16498 16 1.36844L16 2.27275Z" fill="#FF334B"/>
<path d="M16 3.54492H0V4.81763H16V3.54492Z" fill="#FF334B"/>
<path d="M16 7.36451H0.275874C0.123531 7.36451 0 7.19953 0 6.99607V6.0918H16V7.36451Z" fill="#FF334B"/>
<path d="M16 8.63672H0V9.90943H16V8.63672Z" fill="#FF334B"/>
<path d="M16 11.1816H0V12.4544H16V11.1816Z" fill="#FF334B"/>
<path d="M15.7241 14.9993H0.275874C0.123531 14.9993 0 14.8343 0 14.6308V13.7266H16V14.6308C16 14.8343 15.8764 14.9993 15.7241 14.9993Z" fill="#FF334B"/>
<path d="M6.59783 7.36369H1.07156C0.868104 7.36369 0.703125 7.19871 0.703125 6.99525V1.36844C0.703125 1.16498 0.868104 1 1.07156 1H6.59788C6.80134 1 6.96631 1.16498 6.96631 1.36844V6.99525C6.96627 7.19871 6.80129 7.36369 6.59783 7.36369Z" fill="#41479B"/>
<path d="M3.72907 2.64619L3.37732 3.70083L2.26558 3.70943C2.15899 3.71027 2.11475 3.84628 2.20052 3.90963L3.09486 4.57009L2.75952 5.63008C2.72738 5.73171 2.84311 5.8158 2.92984 5.75383L3.83441 5.10735L4.73889 5.75383C4.82561 5.8158 4.94135 5.73171 4.90921 5.63008L4.57387 4.57009L5.46821 3.90963C5.55398 3.84632 5.50974 3.71022 5.40314 3.70943L4.2914 3.70083L3.93966 2.64619C3.90586 2.54502 3.76283 2.54502 3.72907 2.64619Z" fill="white"/>
</g>
<defs>
<clipPath id="clip0_5367_190596">
<rect x="1" y="1" width="14" height="14" rx="2" fill="white"/>
</clipPath>
</defs>
</svg>
