<svg width="16" height="16" viewBox="0 0 16 16" fill="none" xmlns="http://www.w3.org/2000/svg">
<rect x="1" y="1" width="14" height="14" rx="2" fill="#FF334B"/>
<path d="M9.31124 8.78292L11.4185 7.23673H8.80887L8.00027 4.74805L7.19168 7.23673H4.58203L6.68931 8.78292L5.88697 11.2523L7.99821 9.74332L8.00027 9.74479L8.00234 9.74332L10.1136 11.2523L9.31124 8.78292ZM9.73396 7.78845L9.13168 8.23035L8.98808 7.78845H9.73396ZM7.33728 8.57404L7.59256 7.78842H8.40799L8.66327 8.57404L8.00027 9.06054L7.33728 8.57404ZM8.00027 6.53361L8.22871 7.23673H7.77178L8.00027 6.53361ZM6.26659 7.78845H7.01246L6.86887 8.23035L6.26659 7.78845ZM6.92956 9.82885L7.15775 9.1266L7.52996 9.3997L6.92956 9.82885ZM8.84284 9.1266L9.07102 9.82885L8.47065 9.39973L8.84284 9.1266Z" fill="#5A8250"/>
</svg>
