<svg width="16" height="16" viewBox="0 0 16 16" fill="none" xmlns="http://www.w3.org/2000/svg">
<g clip-path="url(#clip0_5367_190490)">
<rect x="1" y="1" width="14" height="14" rx="2" fill="#41479B"/>
<path d="M0.124312 12.4378L16 5.86853V3.9375L0 12.2134C0 12.3085 0.0510937 12.3881 0.124312 12.4378Z" fill="white"/>
<path d="M15.8955 2.07031L0 11.9365V12.2124L16 3.9365V2.28131C16 2.19484 15.9578 2.12091 15.8955 2.07031Z" fill="#FF9B55"/>
<path d="M5.30902 5.05187L7.09436 4.8289L5.30902 4.60596L6.21386 4.051L5.08802 4.32628L5.7732 3.39147L4.83842 4.07665L5.11367 2.95081L4.55874 3.85565L4.33577 2.07031L4.1128 3.85565L3.55783 2.95081L3.83311 4.07665L2.8983 3.39147L3.58349 4.32628L2.45765 4.051L3.36249 4.60596L1.57715 4.8289L3.36249 5.05187L2.45765 5.60684L3.58349 5.33156L2.8983 6.26637L3.83311 5.58118L3.55783 6.70702L4.1128 5.80218L4.33577 7.58752L4.55874 5.80218L5.11367 6.70702L4.83842 5.58118L5.7732 6.26637L5.08802 5.33156L6.21386 5.60684L5.30902 5.05187Z" fill="white"/>
</g>
<defs>
<clipPath id="clip0_5367_190490">
<rect x="1" y="1" width="14" height="14" rx="2" fill="white"/>
</clipPath>
</defs>
</svg>
