<svg width="16" height="16" viewBox="0 0 16 16" fill="none" xmlns="http://www.w3.org/2000/svg">
<g clip-path="url(#clip0_5367_190479)">
<rect x="0.707031" y="1" width="14" height="14" rx="2" fill="#FF334B"/>
<path d="M6.43824 6.68836C6.43799 6.68853 6.43778 6.68874 6.43752 6.6889L1.048 1H-2.6513C-2.74124 1 -2.82065 1.03604 -2.88477 1.08943L6.16136 7.01619C6.2404 6.89576 6.33406 6.78701 6.43824 6.68836Z" fill="#F8CB32"/>
<path d="M5.87653 8.21924C5.86999 8.15604 5.85742 8.09465 5.85742 8.02973C5.85742 7.96482 5.86999 7.90343 5.87653 7.84023V7.84032L-3.021 6.91992V9.13954L5.87653 8.21911V8.21924Z" fill="#F8CB32"/>
<path d="M7.41946 6.20803C7.51379 6.19319 7.6085 6.17907 7.70698 6.17907C7.80546 6.17907 7.90017 6.19323 7.9945 6.20803H7.99446L8.81679 1H6.59717L7.41946 6.20803Z" fill="#F8CB32"/>
<path d="M9.25246 7.01619L18.2986 1.08943C18.2345 1.03604 18.1551 1 18.0652 1H14.3658L8.9763 6.68895C8.97605 6.68878 8.97584 6.68857 8.97559 6.6884C9.07977 6.78701 9.17343 6.89576 9.25246 7.01619Z" fill="#F8CB32"/>
<path d="M8.97559 9.36885C8.9758 9.36868 8.97605 9.36847 8.9763 9.36831L14.3658 15.0573H18.0652C18.1551 15.0573 18.2345 15.0212 18.2986 14.9678L9.25246 9.04102C9.17343 9.16146 9.07977 9.27024 8.97559 9.36885Z" fill="#F8CB32"/>
<path d="M9.5376 7.84036V7.84027C9.54414 7.90343 9.55671 7.96486 9.55671 8.02978C9.55671 8.09469 9.54414 8.15608 9.5376 8.21928V8.21919L18.4351 9.13954V6.91992L9.5376 7.84036Z" fill="#F8CB32"/>
<path d="M7.9945 9.84961C7.90017 9.8644 7.80546 9.87857 7.70698 9.87857C7.6085 9.87857 7.51379 9.8644 7.41946 9.84961H7.4195L6.59717 15.0576H8.81679L7.9945 9.84961Z" fill="#F8CB32"/>
<path d="M6.1614 9.04102L-2.88477 14.9678C-2.82065 15.0212 -2.74124 15.0573 -2.6513 15.0573H1.04804L6.43757 9.36831C6.43782 9.36847 6.43803 9.36868 6.43828 9.36885C6.3341 9.27024 6.24044 9.16146 6.1614 9.04102Z" fill="#F8CB32"/>
<path d="M7.70677 9.50827C8.524 9.50827 9.18649 8.84578 9.18649 8.02855C9.18649 7.21132 8.524 6.54883 7.70677 6.54883C6.88954 6.54883 6.22705 7.21132 6.22705 8.02855C6.22705 8.84578 6.88954 9.50827 7.70677 9.50827Z" fill="#F8CB32"/>
</g>
<defs>
<clipPath id="clip0_5367_190479">
<rect x="0.707031" y="1" width="14" height="14" rx="2" fill="white"/>
</clipPath>
</defs>
</svg>
