<svg width="16" height="16" viewBox="0 0 16 16" fill="none" xmlns="http://www.w3.org/2000/svg">
<g clip-path="url(#clip0_5367_190470)">
<rect x="1" y="1" width="14" height="14" rx="2" fill="#F8CB32"/>
<path d="M15 5.66602H1V10.3327H15V5.66602Z" fill="#73AF00"/>
<path d="M15 10.3359H1V15.0026H15V10.3359Z" fill="#FF334B"/>
<path d="M8.1571 4.52934L8.98319 7.0063L11.5942 7.02655C11.7535 7.0278 11.8195 7.23102 11.6914 7.32564L9.59097 8.87673L10.3786 11.3662C10.4266 11.5181 10.2537 11.6437 10.1241 11.5511L7.99985 10.0327L5.8756 11.5511C5.74601 11.6437 5.57314 11.5181 5.62117 11.3662L6.40876 8.87673L4.30833 7.32564C4.1802 7.23102 4.24623 7.02774 4.40554 7.02655L7.01654 7.0063L7.84263 4.52934C7.89297 4.37824 8.10672 4.37824 8.1571 4.52934Z" fill="white"/>
</g>
<defs>
<clipPath id="clip0_5367_190470">
<rect x="1" y="1" width="14" height="14" rx="2" fill="white"/>
</clipPath>
</defs>
</svg>
