<svg width="16" height="16" viewBox="0 0 16 16" fill="none" xmlns="http://www.w3.org/2000/svg">
<rect x="1" y="1" width="14" height="14" rx="2" fill="#5AA587"/>
<path d="M8.91243 9.97015C9.34004 10.0724 9.79647 10.0803 10.2529 9.967C11.0571 9.76734 11.6932 9.24304 12.0628 8.56984C11.4212 8.14772 10.6138 7.98185 9.80961 8.18151C9.37729 8.28888 8.99802 8.49471 8.67834 8.76263C8.68137 8.75861 8.68387 8.75468 8.6869 8.75066C9.87104 7.68282 11.193 8.02757 11.193 8.02757L11.5058 7.76034C11.5058 7.76034 10.1724 7.29963 8.97798 8.28762C9.71719 6.85646 8.91952 5.62881 8.91952 5.62881L8.73555 5.99671C8.73555 5.99671 9.39889 7.21313 8.62282 8.63241C8.62191 8.63344 8.62101 8.63457 8.6201 8.6356C8.80921 8.25574 8.91952 7.8299 8.91952 7.37645C8.91952 6.54789 8.56398 5.80418 7.99966 5.2832C7.43539 5.80418 7.07981 6.54789 7.07981 7.37645C7.07981 7.82994 7.19007 8.25574 7.37922 8.6356C7.37832 8.63457 7.37741 8.6334 7.3765 8.63241C6.60043 7.21313 7.26378 5.99671 7.26378 5.99671L7.07981 5.62881C7.07981 5.62881 6.28218 6.85646 7.02135 8.28762C5.82696 7.29967 4.49354 7.76034 4.49354 7.76034L4.8063 8.02757C4.8063 8.02757 6.12824 7.68278 7.31243 8.75066C7.31545 8.75468 7.31796 8.75861 7.32098 8.76263C7.00134 8.49471 6.62204 8.28888 6.18972 8.18151C5.38557 7.98185 4.57813 8.14772 3.93652 8.56984C4.30615 9.24304 4.94223 9.7673 5.74642 9.967C6.20285 10.0803 6.65932 10.0724 7.08693 9.97015C5.49371 10.4156 4.45167 9.45596 4.45167 9.45596L4.05024 9.54583C4.05024 9.54583 5.66049 11.2725 7.99966 9.57866C10.3388 11.2725 11.9491 9.54583 11.9491 9.54583L11.5477 9.45596C11.5477 9.45596 10.5057 10.4156 8.91243 9.97015Z" fill="white"/>
<path d="M5.67578 11.957C5.84204 12.0603 6.01586 12.1522 6.19581 12.233H9.8052C9.98524 12.1522 10.159 12.0603 10.3252 11.957H5.67578Z" fill="white"/>
<path d="M6.51855 12.3633C6.98168 12.5282 7.48011 12.6187 7.99987 12.6187C8.51964 12.6187 9.01807 12.5282 9.4812 12.3633H6.51855Z" fill="white"/>
<path d="M4.69629 11.1328C4.75202 11.1956 4.80901 11.2572 4.86816 11.3168H11.1313C11.1905 11.2572 11.2474 11.1956 11.3032 11.1328H4.69629Z" fill="white"/>
<path d="M5.10059 11.5332C5.19274 11.6136 5.28784 11.6906 5.38652 11.7631H10.6141C10.7128 11.6905 10.8079 11.6135 10.9 11.5332H5.10059Z" fill="white"/>
<path d="M9.84003 10.6423C8.8097 10.6423 8.10475 9.95365 8.0977 9.94665L8.00006 9.84961L7.90276 9.94682C7.89576 9.95382 7.19535 10.6423 6.16065 10.6423H4.31934C4.38216 10.737 4.44895 10.8288 4.51878 10.9182H6.16073C7.08629 10.9182 7.75828 10.4341 8.00041 10.23C8.24249 10.4341 8.91447 10.9182 9.84007 10.9182H11.482C11.5518 10.8288 11.6186 10.737 11.6815 10.6423H9.84003Z" fill="white"/>
<path d="M7.95175 3.41569L7.79033 3.89973L7.28011 3.90371C7.2312 3.9041 7.21089 3.96653 7.25026 3.99556L7.66076 4.2987L7.50686 4.7852C7.49208 4.83186 7.54522 4.87044 7.58506 4.84197L8.00018 4.54527L8.41531 4.84197C8.4551 4.87044 8.50824 4.83182 8.49351 4.7852L8.33961 4.2987L8.75011 3.99556C8.78947 3.96648 8.76916 3.90405 8.72025 3.90371L8.21003 3.89973L8.04862 3.41569C8.03289 3.36925 7.96722 3.36925 7.95175 3.41569Z" fill="#F8CB32"/>
<path d="M5.53699 4.40597L5.63045 4.74531L5.33963 4.94358C5.31172 4.96259 5.32407 5.00619 5.35786 5.0077L5.70951 5.02373L5.8082 5.3616C5.8177 5.394 5.86294 5.39569 5.87482 5.3641L5.99869 5.03462L6.35052 5.04516C6.38426 5.04615 6.39986 5.00364 6.3735 4.9826L6.09841 4.76294L6.21719 4.43159C6.22859 4.39979 6.19295 4.37183 6.16478 4.39041L5.87089 4.58415L5.59247 4.36881C5.56564 4.34816 5.52801 4.37343 5.53699 4.40597Z" fill="#F8CB32"/>
<path d="M4.12914 6.11541L4.38367 6.35857L4.23603 6.67808C4.22186 6.70876 4.25487 6.73978 4.28455 6.72375L4.59443 6.55685L4.85267 6.79603C4.87743 6.81898 4.91713 6.79716 4.91113 6.76398L4.84813 6.41768L5.15541 6.24593C5.18488 6.22947 5.17645 6.18497 5.14297 6.18048L4.79412 6.13338L4.72577 5.78808C4.71925 5.75494 4.67427 5.74928 4.65967 5.7797L4.50706 6.09687L4.15757 6.05514C4.12404 6.05112 4.10473 6.09208 4.12914 6.11541Z" fill="#F8CB32"/>
<path d="M10.5431 4.40597L10.4497 4.74531L10.7405 4.94358C10.7684 4.96259 10.7561 5.00619 10.7223 5.0077L10.3706 5.02373L10.2719 5.3616C10.2624 5.394 10.2172 5.39569 10.2053 5.3641L10.0814 5.03462L9.72962 5.04516C9.69588 5.04615 9.68028 5.00364 9.70664 4.9826L9.98173 4.76294L9.86296 4.43159C9.85155 4.39979 9.88719 4.37183 9.91537 4.39041L10.2093 4.58415L10.4877 4.36881C10.5145 4.34816 10.5521 4.37343 10.5431 4.40597Z" fill="#F8CB32"/>
<path d="M11.9505 6.11541L11.696 6.35857L11.8437 6.67808C11.8578 6.70876 11.8248 6.73978 11.7951 6.72375L11.4853 6.55685L11.227 6.79603C11.2023 6.81898 11.1626 6.79716 11.1686 6.76398L11.2316 6.41768L10.9243 6.24593C10.8948 6.22947 10.9032 6.18497 10.9367 6.18048L11.2856 6.13338L11.3539 5.78808C11.3604 5.75494 11.4054 5.74928 11.42 5.7797L11.5726 6.09687L11.9221 6.05514C11.9556 6.05112 11.975 6.09208 11.9505 6.11541Z" fill="#F8CB32"/>
</svg>
