<svg width="16" height="16" viewBox="0 0 16 16" fill="none" xmlns="http://www.w3.org/2000/svg">
<rect x="1" y="1" width="14" height="14" rx="2" fill="#4173CD"/>
<path d="M8.00001 13.1289C5.12247 13.1289 2.78125 10.7877 2.78125 7.91017C2.78125 5.03259 5.12243 2.69141 8.00001 2.69141C10.8776 2.69141 13.2188 5.03259 13.2188 7.91017C13.2188 10.7877 10.8776 13.1289 8.00001 13.1289ZM8.00001 3.77116C5.71766 3.77116 3.861 5.62786 3.861 7.91017C3.861 10.1925 5.7177 12.0492 8.00001 12.0492C10.2823 12.0492 12.139 10.1925 12.139 7.91017C12.139 5.62786 10.2824 3.77116 8.00001 3.77116Z" fill="white"/>
<path d="M8.00043 12.7684C5.32129 12.7684 3.1416 10.5888 3.1416 7.90961C3.1416 5.23047 5.32129 3.05078 8.00043 3.05078C10.6796 3.05078 12.8593 5.23047 12.8593 7.90961C12.8593 10.5888 10.6796 12.7684 8.00043 12.7684ZM8.00043 3.41067C5.51968 3.41067 3.50149 5.42882 3.50149 7.90961C3.50149 10.3904 5.51964 12.4085 8.00043 12.4085C10.4812 12.4085 12.4994 10.3904 12.4994 7.90961C12.4994 5.42886 10.4812 3.41067 8.00043 3.41067Z" fill="#FFDC00"/>
<path d="M3.32136 8.27064C3.52014 8.27064 3.68129 8.1095 3.68129 7.91071C3.68129 7.71193 3.52014 7.55078 3.32136 7.55078C3.12257 7.55078 2.96143 7.71193 2.96143 7.91071C2.96143 8.1095 3.12257 8.27064 3.32136 8.27064Z" fill="#FFDC00"/>
<path d="M12.6793 8.27064C12.8781 8.27064 13.0392 8.1095 13.0392 7.91071C13.0392 7.71193 12.8781 7.55078 12.6793 7.55078C12.4805 7.55078 12.3193 7.71193 12.3193 7.91071C12.3193 8.1095 12.4805 8.27064 12.6793 8.27064Z" fill="#FFDC00"/>
<path d="M8.00007 3.59096C8.19885 3.59096 8.36 3.42981 8.36 3.23103C8.36 3.03324 8.19885 2.87109 8.00007 2.87109C7.80128 2.87109 7.64014 3.03324 7.64014 3.23103C7.64014 3.42981 7.80128 3.59096 8.00007 3.59096Z" fill="#FFDC00"/>
<path d="M4.69147 4.96205C4.89026 4.96205 5.05141 4.8009 5.05141 4.60212C5.05141 4.40333 4.89026 4.24219 4.69147 4.24219C4.49269 4.24219 4.33154 4.40333 4.33154 4.60212C4.33154 4.8009 4.49269 4.96205 4.69147 4.96205Z" fill="#FFDC00"/>
<path d="M11.3087 4.96205C11.5074 4.96205 11.6686 4.8009 11.6686 4.60212C11.6686 4.40333 11.5074 4.24219 11.3087 4.24219C11.1099 4.24219 10.9487 4.40333 10.9487 4.60212C10.9487 4.8009 11.1099 4.96205 11.3087 4.96205Z" fill="#FFDC00"/>
<path d="M12.3228 6.47963C12.5216 6.47963 12.6828 6.31848 12.6828 6.1197C12.6828 5.92091 12.5216 5.75977 12.3228 5.75977C12.124 5.75977 11.9629 5.92091 11.9629 6.1197C11.9629 6.31848 12.124 6.47963 12.3228 6.47963Z" fill="#FFDC00"/>
<path d="M6.20954 3.94643C6.40833 3.94643 6.56947 3.78528 6.56947 3.58649C6.56947 3.38771 6.40833 3.22656 6.20954 3.22656C6.01076 3.22656 5.84961 3.38771 5.84961 3.58649C5.84961 3.78528 6.01076 3.94643 6.20954 3.94643Z" fill="#FFDC00"/>
<path d="M3.6778 6.47963C3.87659 6.47963 4.03773 6.31848 4.03773 6.1197C4.03773 5.92091 3.87659 5.75977 3.6778 5.75977C3.47902 5.75977 3.31787 5.92091 3.31787 6.1197C3.31787 6.31848 3.47902 6.47963 3.6778 6.47963Z" fill="#FFDC00"/>
<path d="M9.79108 3.94643C9.98987 3.94643 10.151 3.78528 10.151 3.58649C10.151 3.38771 9.98987 3.22656 9.79108 3.22656C9.5923 3.22656 9.43115 3.38771 9.43115 3.58649C9.43115 3.78528 9.5923 3.94643 9.79108 3.94643Z" fill="#FFDC00"/>
<path d="M12.5889 7.35658C12.7877 7.35658 12.9489 7.19544 12.9489 6.99665C12.9489 6.79787 12.7877 6.63672 12.5889 6.63672C12.3902 6.63672 12.229 6.79787 12.229 6.99665C12.229 7.19544 12.3902 7.35658 12.5889 7.35658Z" fill="#FFDC00"/>
<path d="M7.08747 3.6808C7.28625 3.6808 7.4474 3.51965 7.4474 3.32087C7.4474 3.12208 7.28625 2.96094 7.08747 2.96094C6.88869 2.96094 6.72754 3.12208 6.72754 3.32087C6.72754 3.51965 6.88869 3.6808 7.08747 3.6808Z" fill="#FFDC00"/>
<path d="M4.10993 5.67103C4.30872 5.67103 4.46986 5.50989 4.46986 5.3111C4.46986 5.11232 4.30872 4.95117 4.10993 4.95117C3.91115 4.95117 3.75 5.11232 3.75 5.3111C3.75 5.50989 3.91115 5.67103 4.10993 5.67103Z" fill="#FFDC00"/>
<path d="M10.6002 4.38002C10.7989 4.38002 10.9601 4.21887 10.9601 4.02009C10.9601 3.8213 10.7989 3.66016 10.6002 3.66016C10.4014 3.66016 10.2402 3.8213 10.2402 4.02009C10.2402 4.21887 10.4014 4.38002 10.6002 4.38002Z" fill="#FFDC00"/>
<path d="M11.8902 5.67103C12.089 5.67103 12.2501 5.50989 12.2501 5.3111C12.2501 5.11232 12.089 4.95117 11.8902 4.95117C11.6914 4.95117 11.5303 5.11232 11.5303 5.3111C11.5303 5.50989 11.6914 5.67103 11.8902 5.67103Z" fill="#FFDC00"/>
<path d="M5.40095 4.38002C5.59973 4.38002 5.76088 4.21887 5.76088 4.02009C5.76088 3.8213 5.59973 3.66016 5.40095 3.66016C5.20216 3.66016 5.04102 3.8213 5.04102 4.02009C5.04102 4.21887 5.20216 4.38002 5.40095 4.38002Z" fill="#FFDC00"/>
<path d="M3.41169 7.35658C3.61047 7.35658 3.77162 7.19544 3.77162 6.99665C3.77162 6.79787 3.61047 6.63672 3.41169 6.63672C3.2129 6.63672 3.05176 6.79787 3.05176 6.99665C3.05176 7.19544 3.2129 7.35658 3.41169 7.35658Z" fill="#FFDC00"/>
<path d="M8.91315 3.6808C9.11194 3.6808 9.27308 3.51965 9.27308 3.32087C9.27308 3.12208 9.11194 2.96094 8.91315 2.96094C8.71437 2.96094 8.55322 3.12208 8.55322 3.32087C8.55322 3.51965 8.71437 3.6808 8.91315 3.6808Z" fill="#FFDC00"/>
<path d="M12.6788 8.08958C12.5794 8.08958 12.4989 8.00909 12.4989 7.90961C12.4989 5.42886 10.4807 3.41067 7.99994 3.41067C5.51916 3.41067 3.50104 5.4289 3.50104 7.90961C3.50104 8.00909 3.42056 8.08958 3.32108 8.08958C3.2216 8.08958 3.14111 8.00909 3.14111 7.90961C3.14111 5.23047 5.3208 3.05078 7.99994 3.05078C10.6791 3.05078 12.8588 5.23047 12.8588 7.90961C12.8588 8.00909 12.7783 8.08958 12.6788 8.08958Z" fill="#FFA000"/>
<path d="M8.9997 13.309H6.99969C6.57232 13.309 6.23906 12.9389 6.28382 12.5139L6.91994 6.4707H9.0794L9.71552 12.5139C9.76029 12.9389 9.42702 13.309 8.9997 13.309Z" fill="#B4B4B4"/>
<path d="M9.06961 6.4695H6.92213C6.8275 6.4695 6.74808 6.39823 6.73785 6.30417L6.60371 5.06871C6.58059 4.85584 6.74734 4.66992 6.96152 4.66992H9.03863C9.25276 4.66992 9.41956 4.85576 9.39644 5.06871L9.2632 6.29585C9.25247 6.39464 9.16901 6.4695 9.06961 6.4695Z" fill="#AAAAAA"/>
<path d="M8.08303 5.09054L8.75021 7.01003L10.7819 7.05141C10.8655 7.05312 10.9001 7.15937 10.8334 7.20997L9.21407 8.43764L9.80253 10.3826C9.82674 10.4627 9.73636 10.5284 9.66765 10.4806L7.99969 9.31994L6.33168 10.4806C6.26302 10.5284 6.17259 10.4627 6.19681 10.3826L6.78527 8.43764L5.16594 7.20997C5.09928 7.15945 5.13382 7.05312 5.21744 7.05141L7.24913 7.01003L7.91631 5.09054C7.94379 5.01149 8.05555 5.01149 8.08303 5.09054Z" fill="white"/>
</svg>
