<svg width="16" height="16" viewBox="0 0 16 16" fill="none" xmlns="http://www.w3.org/2000/svg">
<g clip-path="url(#clip0_5367_190406)">
<rect x="1" y="1" width="14" height="14" rx="2" fill="#41479B"/>
<path d="M16 7.13601H8.5517V0.619141H7.44824V7.13601H0V8.23945H7.44824V14.9316H8.5517V8.23945H16V7.13601Z" fill="white"/>
<path d="M12.9395 5.34666C12.9316 5.29973 12.9138 5.24413 12.8913 5.20835C12.8466 5.14654 12.7948 5.10326 12.7447 5.07632C12.3497 4.89488 12.0191 4.93045 11.7036 4.9292C11.3919 4.93723 11.1003 4.99098 10.8637 5.04279C10.7994 5.05573 10.7437 5.06538 10.6842 5.07657C10.7137 5.01576 10.8216 4.93966 10.9669 4.89354C11.3211 4.77254 11.7255 4.72395 12.1229 4.64651C12.2233 4.62685 12.3251 4.60382 12.4292 4.5742C12.4853 4.55498 12.5326 4.53998 12.5986 4.50929C12.641 4.48532 12.6827 4.45517 12.7184 4.42295C12.7564 4.38876 12.7535 4.3792 12.7731 4.35613C12.8633 4.18435 12.7779 4.06204 12.7062 3.99817C12.6372 3.94151 12.5791 3.91939 12.5237 3.8966C12.4163 3.85892 12.3167 3.83529 12.2207 3.81526C12.0356 3.77823 11.8536 3.74182 11.6755 3.70617C11.5908 3.68657 11.509 3.66482 11.4372 3.63845C11.3738 3.62154 11.2842 3.55889 11.2975 3.57598C11.1338 3.56185 11.5217 3.37926 11.8014 3.27726C11.8758 3.24445 11.9497 3.21132 12.0254 3.16457C12.0997 3.11548 12.1762 3.07382 12.2587 2.93632C12.275 2.90779 12.2743 2.90086 12.2828 2.8822L12.2922 2.85848C12.3127 2.78539 12.3014 2.80511 12.3062 2.77342C12.3158 2.69673 12.2857 2.61476 12.2381 2.54648C12.1409 2.44142 12.0442 2.41136 11.9724 2.39123C11.6754 2.32086 11.4617 2.34011 11.2761 2.34083C10.924 2.35739 10.7228 2.36683 10.7228 2.36683L10.7092 2.36745C10.7088 2.36748 10.7084 2.36748 10.708 2.36751C10.5954 2.37411 10.5096 2.47064 10.5162 2.58314C10.5168 2.59414 10.522 2.60336 10.5242 2.61376C10.3648 2.6577 10.1125 2.70264 9.86294 2.64379C9.82494 2.63504 9.78984 2.65789 9.78106 2.69426C9.77231 2.73095 9.79516 2.76761 9.83153 2.77614C9.92959 2.79926 10.0269 2.80832 10.1196 2.80832C10.3167 2.80832 10.485 2.76823 10.5999 2.73301C10.637 2.76054 10.682 2.77789 10.7317 2.77498C10.7317 2.77498 10.935 2.76307 11.2908 2.74226C11.4574 2.73626 11.6813 2.72748 11.8661 2.77089C11.8813 2.77326 11.8895 2.77801 11.8997 2.78229C11.9011 2.76592 11.8698 2.81204 11.821 2.83576C11.7736 2.86636 11.7119 2.89567 11.6477 2.92479C11.5165 2.98426 11.3663 3.03539 11.1998 3.12498C11.1194 3.17242 11.02 3.22061 10.9375 3.36157C10.8989 3.42689 10.8806 3.53248 10.9008 3.60692L10.9068 3.63726L10.9102 3.65226L10.9121 3.6597C10.8993 3.63317 10.9315 3.70451 10.929 3.69807L10.9457 3.72582C10.9604 3.74695 10.9581 3.7557 10.9936 3.79257C11.0221 3.82339 11.0542 3.85289 11.0874 3.87864C11.1165 3.89864 11.1382 3.90807 11.1643 3.92289C11.2158 3.95326 11.2626 3.96732 11.3114 3.98648C11.4077 4.02038 11.5014 4.04342 11.595 4.0641C11.7757 4.0981 11.9602 4.13282 12.148 4.16817C12.2267 4.18338 12.3003 4.20257 12.3684 4.22354C12.2812 4.25498 12.1592 4.28667 12.0539 4.30695C11.6709 4.38776 11.2648 4.43663 10.8518 4.5817C10.7484 4.62104 10.6425 4.66807 10.5387 4.7476C10.4409 4.8217 10.3381 4.96948 10.3512 5.13182C10.3162 5.13673 10.276 5.14388 10.2436 5.14748C9.89322 5.19385 9.74597 5.13216 9.75547 5.13038C9.70972 5.10338 9.65075 5.11851 9.62375 5.16429C9.59672 5.21001 9.61188 5.26901 9.65763 5.29601C9.65763 5.29601 9.71769 5.33679 9.82491 5.36029C9.93159 5.38441 10.0817 5.39548 10.2645 5.38107C10.3148 5.37763 10.3738 5.3701 10.4292 5.36426C10.4675 5.41944 10.5121 5.48032 10.5536 5.50982C10.6501 5.59079 10.7523 5.64257 10.8542 5.68791C11.2643 5.84654 11.6742 5.87985 12.0738 5.86413C12.2744 5.84907 12.4719 5.82566 12.6746 5.73519C12.7691 5.6911 12.8989 5.62166 12.939 5.42082C12.939 5.3951 12.9434 5.38338 12.9395 5.34666ZM12.6446 5.40991C12.6393 5.38023 12.623 5.44757 12.5464 5.46613C12.4146 5.52404 12.2348 5.55054 12.058 5.55985C11.7014 5.57157 11.312 5.52994 10.9782 5.39454C10.9257 5.37029 10.8829 5.33976 10.8378 5.31057C10.8626 5.30679 10.8841 5.30416 10.9094 5.30016C11.1575 5.26063 11.4161 5.2141 11.7132 5.2092C11.9961 5.20401 12.3563 5.20791 12.5955 5.32691C12.6233 5.34188 12.6355 5.35748 12.6446 5.36688C12.6446 5.36688 12.6367 5.35735 12.6456 5.35129C12.6495 5.35735 12.6446 5.39123 12.6446 5.40991Z" fill="white"/>
<path d="M12.9395 12.7842C12.9316 12.7372 12.9138 12.6816 12.8913 12.6459C12.8466 12.584 12.7948 12.5408 12.7447 12.5138C12.3497 12.3324 12.0191 12.3679 11.7036 12.3667C11.3919 12.3747 11.1003 12.4285 10.8637 12.4803C10.7994 12.4932 10.7437 12.5029 10.6842 12.5141C10.7137 12.4533 10.8216 12.3772 10.9669 12.331C11.3211 12.21 11.7255 12.1614 12.1229 12.084C12.2233 12.0644 12.3251 12.0413 12.4292 12.0117C12.4853 11.9925 12.5326 11.9775 12.5986 11.9468C12.641 11.9228 12.6827 11.8927 12.7184 11.8604C12.7564 11.8263 12.7535 11.8167 12.7731 11.7936C12.8633 11.6219 12.7779 11.4995 12.7062 11.4357C12.6372 11.379 12.5791 11.3569 12.5237 11.3341C12.4163 11.2964 12.3167 11.2728 12.2207 11.2528C12.0356 11.2157 11.8536 11.1793 11.6755 11.1437C11.5908 11.1241 11.509 11.1023 11.4372 11.0759C11.3738 11.059 11.2842 10.9964 11.2975 11.0135C11.1338 10.9994 11.5217 10.8168 11.8014 10.7148C11.8758 10.6819 11.9497 10.6488 12.0254 10.6021C12.0997 10.553 12.1762 10.5113 12.2587 10.3738C12.275 10.3453 12.2743 10.3384 12.2828 10.3197L12.2922 10.296C12.3127 10.2229 12.3014 10.2426 12.3062 10.2109C12.3158 10.1342 12.2857 10.0523 12.2381 9.98398C12.1409 9.87892 12.0442 9.84886 11.9724 9.82873C11.6754 9.75836 11.4617 9.77761 11.2761 9.77833C10.924 9.79489 10.7228 9.80433 10.7228 9.80433L10.7092 9.80495C10.7088 9.80498 10.7084 9.80498 10.708 9.80501C10.5954 9.81161 10.5096 9.90814 10.5162 10.0206C10.5168 10.0316 10.522 10.0409 10.5242 10.0513C10.3648 10.0952 10.1125 10.1401 9.86294 10.0813C9.82494 10.0725 9.78984 10.0954 9.78106 10.1318C9.77231 10.1684 9.79516 10.2051 9.83153 10.2136C9.92959 10.2368 10.0269 10.2458 10.1196 10.2458C10.3167 10.2458 10.485 10.2057 10.5999 10.1705C10.637 10.198 10.682 10.2154 10.7317 10.2125C10.7317 10.2125 10.935 10.2006 11.2908 10.1798C11.4574 10.1738 11.6813 10.165 11.8661 10.2084C11.8813 10.2108 11.8895 10.2155 11.8997 10.2198C11.9011 10.2034 11.8698 10.2495 11.821 10.2733C11.7736 10.3039 11.7119 10.3332 11.6477 10.3623C11.5165 10.4218 11.3663 10.4729 11.1998 10.5625C11.1194 10.6099 11.02 10.6581 10.9375 10.7991C10.8989 10.8644 10.8806 10.97 10.9008 11.0444L10.9068 11.0748L10.9102 11.0898L10.9121 11.0972C10.8993 11.0707 10.9315 11.142 10.929 11.1356L10.9457 11.1633C10.9604 11.1844 10.9581 11.1932 10.9936 11.2301C11.0221 11.2609 11.0542 11.2904 11.0874 11.3161C11.1165 11.3361 11.1382 11.3456 11.1643 11.3604C11.2158 11.3908 11.2626 11.4048 11.3114 11.424C11.4077 11.4579 11.5014 11.4809 11.595 11.5016C11.7757 11.5356 11.9602 11.5703 12.148 11.6057C12.2267 11.6209 12.3003 11.6401 12.3684 11.661C12.2812 11.6925 12.1592 11.7242 12.0539 11.7444C11.6709 11.8253 11.2648 11.8741 10.8518 12.0192C10.7484 12.0585 10.6425 12.1056 10.5387 12.1851C10.4409 12.2592 10.3381 12.407 10.3512 12.5693C10.3162 12.5742 10.276 12.5814 10.2436 12.585C9.89322 12.6314 9.74597 12.5697 9.75547 12.5679C9.70972 12.5409 9.65075 12.556 9.62375 12.6018C9.59672 12.6475 9.61188 12.7065 9.65763 12.7335C9.65763 12.7335 9.71769 12.7743 9.82491 12.7978C9.93159 12.8219 10.0817 12.833 10.2645 12.8186C10.3148 12.8151 10.3738 12.8076 10.4292 12.8018C10.4675 12.8569 10.5121 12.9178 10.5536 12.9473C10.6501 13.0283 10.7523 13.0801 10.8542 13.1254C11.2643 13.284 11.6742 13.3174 12.0738 13.3016C12.2744 13.2866 12.4719 13.2632 12.6746 13.1727C12.7691 13.1286 12.8989 13.0592 12.939 12.8583C12.939 12.8326 12.9434 12.8209 12.9395 12.7842ZM12.6446 12.8474C12.6393 12.8177 12.623 12.8851 12.5464 12.9036C12.4146 12.9615 12.2348 12.988 12.058 12.9974C11.7014 13.0091 11.312 12.9674 10.9782 12.832C10.9257 12.8078 10.8829 12.7773 10.8378 12.7481C10.8626 12.7443 10.8841 12.7417 10.9094 12.7377C11.1575 12.6981 11.4161 12.6516 11.7132 12.6467C11.9961 12.6415 12.3563 12.6454 12.5955 12.7644C12.6233 12.7794 12.6355 12.795 12.6446 12.8044C12.6446 12.8044 12.6367 12.7949 12.6456 12.7888C12.6495 12.7949 12.6446 12.8287 12.6446 12.8474Z" fill="white"/>
<path d="M5.93952 5.34666C5.93162 5.29973 5.9138 5.24413 5.8913 5.20835C5.84659 5.14654 5.79484 5.10326 5.74471 5.07632C5.34974 4.89488 5.01909 4.93045 4.70356 4.9292C4.3919 4.93723 4.10034 4.99098 3.86365 5.04279C3.7994 5.05573 3.74375 5.06538 3.68422 5.07657C3.71365 5.01576 3.82156 4.93966 3.96687 4.89354C4.32112 4.77254 4.72549 4.72395 5.12293 4.64651C5.22331 4.62685 5.32506 4.60382 5.42924 4.5742C5.48534 4.55498 5.53256 4.53998 5.59862 4.50929C5.64099 4.48532 5.68271 4.45517 5.7184 4.42295C5.7564 4.38876 5.75349 4.3792 5.77306 4.35613C5.86331 4.18435 5.7779 4.06204 5.70624 3.99817C5.63721 3.94151 5.57909 3.91939 5.52371 3.8966C5.41627 3.85892 5.31674 3.83529 5.22068 3.81526C5.03559 3.77823 4.85362 3.74182 4.67546 3.70617C4.59084 3.68657 4.509 3.66482 4.43718 3.63845C4.37378 3.62154 4.28418 3.55889 4.2975 3.57598C4.13378 3.56185 4.52171 3.37926 4.80143 3.27726C4.87578 3.24445 4.94968 3.21132 5.0254 3.16457C5.09968 3.11548 5.17621 3.07382 5.25874 2.93632C5.27496 2.90779 5.27427 2.90086 5.28277 2.8822L5.29221 2.85848C5.31268 2.78539 5.30143 2.80511 5.30618 2.77342C5.31584 2.69673 5.28574 2.61476 5.23812 2.54648C5.1409 2.44142 5.04421 2.41136 4.9724 2.39123C4.6754 2.32086 4.46171 2.34011 4.27606 2.34083C3.924 2.35739 3.72278 2.36683 3.72278 2.36683L3.70919 2.36745C3.70878 2.36748 3.7084 2.36748 3.70797 2.36751C3.59544 2.37411 3.50959 2.47064 3.51619 2.58314C3.51681 2.59414 3.52197 2.60336 3.52425 2.61376C3.36481 2.6577 3.11253 2.70264 2.86294 2.64379C2.82494 2.63504 2.78984 2.65789 2.78106 2.69426C2.77231 2.73095 2.79516 2.76761 2.83153 2.77614C2.92959 2.79926 3.02687 2.80832 3.11962 2.80832C3.31666 2.80832 3.48497 2.76823 3.5999 2.73301C3.63697 2.76054 3.68203 2.77789 3.73172 2.77498C3.73172 2.77498 3.93503 2.76307 4.29084 2.74226C4.45743 2.73626 4.68131 2.72748 4.86606 2.77089C4.88134 2.77326 4.88953 2.77801 4.89965 2.78229C4.90109 2.76592 4.86984 2.81204 4.821 2.83576C4.77359 2.86636 4.7119 2.89567 4.64771 2.92479C4.51646 2.98426 4.36628 3.03539 4.19978 3.12498C4.1194 3.17242 4.02003 3.22061 3.93747 3.36157C3.89887 3.42689 3.88056 3.53248 3.90084 3.60692L3.90684 3.63726L3.91025 3.65226L3.91209 3.6597C3.89931 3.63317 3.93153 3.70451 3.929 3.69807L3.94565 3.72582C3.96043 3.74695 3.95812 3.7557 3.99362 3.79257C4.02209 3.82339 4.05425 3.85289 4.0874 3.87864C4.11647 3.89864 4.13815 3.90807 4.16431 3.92289C4.21584 3.95326 4.26262 3.96732 4.31143 3.98648C4.40768 4.02038 4.5014 4.04342 4.59499 4.0641C4.77565 4.0981 4.96024 4.13282 5.14796 4.16817C5.22668 4.18338 5.30034 4.20257 5.36843 4.22354C5.28121 4.25498 5.15915 4.28667 5.05387 4.30695C4.6709 4.38776 4.26481 4.43663 3.85178 4.5817C3.7484 4.62104 3.6425 4.66807 3.53865 4.7476C3.44087 4.8217 3.33809 4.96948 3.35125 5.13182C3.31622 5.13673 3.27597 5.14388 3.24359 5.14748C2.89322 5.19385 2.74597 5.13216 2.75547 5.13038C2.70972 5.10338 2.65075 5.11851 2.62375 5.16429C2.59672 5.21001 2.61188 5.26901 2.65763 5.29601C2.65763 5.29601 2.71769 5.33679 2.82491 5.36029C2.93159 5.38441 3.08169 5.39548 3.2645 5.38107C3.31484 5.37763 3.37381 5.3701 3.42919 5.36426C3.46747 5.41944 3.51206 5.48032 3.55359 5.50982C3.65012 5.59079 3.75234 5.64257 3.85422 5.68791C4.26431 5.84654 4.67421 5.87985 5.07381 5.86413C5.27443 5.84907 5.47187 5.82566 5.67462 5.73519C5.76915 5.6911 5.8989 5.62166 5.93896 5.42082C5.93899 5.3951 5.9434 5.38338 5.93952 5.34666ZM5.64456 5.40991C5.63934 5.38023 5.62299 5.44757 5.54643 5.46613C5.41465 5.52404 5.23477 5.55054 5.05796 5.55985C4.7014 5.57157 4.31203 5.52994 3.97815 5.39454C3.92568 5.37029 3.88287 5.33976 3.83784 5.31057C3.86259 5.30679 3.88406 5.30416 3.90943 5.30016C4.15753 5.26063 4.41612 5.2141 4.71315 5.2092C4.99606 5.20401 5.35631 5.20791 5.59552 5.32691C5.62331 5.34188 5.63546 5.35748 5.64465 5.36688C5.64465 5.36688 5.63671 5.35735 5.64556 5.35129C5.64949 5.35735 5.64459 5.39123 5.64456 5.40991Z" fill="white"/>
<path d="M5.93952 12.7842C5.93162 12.7372 5.9138 12.6816 5.8913 12.6459C5.84659 12.584 5.79484 12.5408 5.74471 12.5138C5.34974 12.3324 5.01909 12.3679 4.70356 12.3667C4.3919 12.3747 4.10034 12.4285 3.86365 12.4803C3.7994 12.4932 3.74375 12.5029 3.68422 12.5141C3.71365 12.4533 3.82156 12.3772 3.96687 12.331C4.32112 12.21 4.72549 12.1614 5.12293 12.084C5.22331 12.0644 5.32506 12.0413 5.42924 12.0117C5.48534 11.9925 5.53256 11.9775 5.59862 11.9468C5.64099 11.9228 5.68271 11.8927 5.7184 11.8604C5.7564 11.8263 5.75349 11.8167 5.77306 11.7936C5.86331 11.6219 5.7779 11.4995 5.70624 11.4357C5.63721 11.379 5.57909 11.3569 5.52371 11.3341C5.41627 11.2964 5.31674 11.2728 5.22068 11.2528C5.03559 11.2157 4.85362 11.1793 4.67546 11.1437C4.59084 11.1241 4.509 11.1023 4.43718 11.0759C4.37378 11.059 4.28418 10.9964 4.2975 11.0135C4.13378 10.9994 4.52171 10.8168 4.80143 10.7148C4.87578 10.6819 4.94968 10.6488 5.0254 10.6021C5.09968 10.553 5.17621 10.5113 5.25874 10.3738C5.27496 10.3453 5.27427 10.3384 5.28277 10.3197L5.29221 10.296C5.31268 10.2229 5.30143 10.2426 5.30618 10.2109C5.31584 10.1342 5.28574 10.0523 5.23812 9.98398C5.1409 9.87892 5.04421 9.84886 4.9724 9.82873C4.6754 9.75836 4.46171 9.77761 4.27606 9.77833C3.924 9.79489 3.72278 9.80433 3.72278 9.80433L3.70919 9.80495C3.70878 9.80498 3.7084 9.80498 3.70797 9.80501C3.59544 9.81161 3.50959 9.90814 3.51619 10.0206C3.51681 10.0316 3.52197 10.0409 3.52425 10.0513C3.36481 10.0952 3.11253 10.1401 2.86294 10.0813C2.82494 10.0725 2.78984 10.0954 2.78106 10.1318C2.77231 10.1684 2.79516 10.2051 2.83153 10.2136C2.92959 10.2368 3.02687 10.2458 3.11962 10.2458C3.31666 10.2458 3.48497 10.2057 3.5999 10.1705C3.63697 10.198 3.68203 10.2154 3.73172 10.2125C3.73172 10.2125 3.93503 10.2006 4.29084 10.1798C4.45743 10.1738 4.68131 10.165 4.86606 10.2084C4.88134 10.2108 4.88953 10.2155 4.89965 10.2198C4.90109 10.2034 4.86984 10.2495 4.821 10.2733C4.77359 10.3039 4.7119 10.3332 4.64771 10.3623C4.51646 10.4218 4.36628 10.4729 4.19978 10.5625C4.1194 10.6099 4.02003 10.6581 3.93747 10.7991C3.89887 10.8644 3.88056 10.97 3.90084 11.0444L3.90684 11.0748L3.91025 11.0898L3.91209 11.0972C3.89931 11.0707 3.93153 11.142 3.929 11.1356L3.94565 11.1633C3.96043 11.1844 3.95812 11.1932 3.99362 11.2301C4.02209 11.2609 4.05425 11.2904 4.0874 11.3161C4.11647 11.3361 4.13815 11.3456 4.16431 11.3604C4.21584 11.3908 4.26262 11.4048 4.31143 11.424C4.40768 11.4579 4.5014 11.4809 4.59499 11.5016C4.77565 11.5356 4.96024 11.5703 5.14796 11.6057C5.22668 11.6209 5.30034 11.6401 5.36843 11.661C5.28121 11.6925 5.15915 11.7242 5.05387 11.7444C4.6709 11.8253 4.26481 11.8741 3.85178 12.0192C3.7484 12.0585 3.6425 12.1056 3.53865 12.1851C3.44087 12.2592 3.33809 12.407 3.35125 12.5693C3.31622 12.5742 3.27597 12.5814 3.24359 12.585C2.89322 12.6314 2.74597 12.5697 2.75547 12.5679C2.70972 12.5409 2.65075 12.556 2.62375 12.6018C2.59672 12.6475 2.61188 12.7065 2.65763 12.7335C2.65763 12.7335 2.71769 12.7743 2.82491 12.7978C2.93159 12.8219 3.08169 12.833 3.2645 12.8186C3.31484 12.8151 3.37381 12.8076 3.42919 12.8018C3.46747 12.8569 3.51206 12.9178 3.55359 12.9473C3.65012 13.0283 3.75234 13.0801 3.85422 13.1254C4.26431 13.284 4.67421 13.3174 5.07381 13.3016C5.27443 13.2866 5.47187 13.2632 5.67462 13.1727C5.76915 13.1286 5.8989 13.0592 5.93896 12.8583C5.93899 12.8326 5.9434 12.8209 5.93952 12.7842ZM5.64456 12.8474C5.63934 12.8177 5.62299 12.8851 5.54643 12.9036C5.41465 12.9615 5.23477 12.988 5.05796 12.9974C4.7014 13.0091 4.31203 12.9674 3.97815 12.832C3.92568 12.8078 3.88287 12.7773 3.83784 12.7481C3.86259 12.7443 3.88406 12.7417 3.90943 12.7377C4.15753 12.6981 4.41612 12.6516 4.71315 12.6467C4.99606 12.6415 5.35631 12.6454 5.59552 12.7644C5.62331 12.7794 5.63546 12.795 5.64465 12.8044C5.64465 12.8044 5.63671 12.7949 5.64556 12.7888C5.64949 12.7949 5.64459 12.8287 5.64456 12.8474Z" fill="white"/>
</g>
<defs>
<clipPath id="clip0_5367_190406">
<rect x="1" y="1" width="14" height="14" rx="2" fill="white"/>
</clipPath>
</defs>
</svg>
