<svg width="16" height="16" viewBox="0 0 16 16" fill="none" xmlns="http://www.w3.org/2000/svg">
<rect x="1" y="1" width="14" height="14" rx="2" fill="#73AF00"/>
<path d="M12.5112 6.34095C12.5 6.26937 12.3961 6.27293 12.388 6.34494C12.138 8.54742 10.2698 10.2586 7.99973 10.2586C5.73037 10.2586 3.86147 8.54742 3.61147 6.34503C3.60331 6.27303 3.4995 6.26942 3.4883 6.34104C3.45356 6.56261 3.43457 6.78916 3.43457 7.02051C3.43452 9.53939 5.47885 11.5843 7.99973 11.5843C10.5215 11.5843 12.5649 9.53939 12.5649 7.02051C12.5648 6.78916 12.5458 6.56256 12.5112 6.34095Z" fill="#F8CB32"/>
<path d="M7.94347 4.45671L7.61335 5.44654L6.56992 5.45461C6.51273 5.45504 6.48899 5.52804 6.53504 5.56203L7.37446 6.18188L7.05972 7.17675C7.04249 7.23129 7.10457 7.27642 7.15114 7.24315L7.99996 6.6364L8.84887 7.24315C8.89544 7.27642 8.95752 7.23133 8.94029 7.17675L8.62555 6.18188L9.46497 5.56203C9.51101 5.52804 9.48728 5.45504 9.43008 5.45461L8.38666 5.44654L8.05653 4.45671C8.03836 4.40245 7.96156 4.40245 7.94347 4.45671Z" fill="#F8CB32"/>
</svg>
