<svg width="16" height="16" viewBox="0 0 16 16" fill="none" xmlns="http://www.w3.org/2000/svg">
<rect x="1" y="1" width="14" height="14" rx="2" fill="#41479B"/>
<path d="M8.72409 1H8.24491L5.68961 2.6708V1H4.3103V2.6708L1.755 1H1.27587C1.12353 1 1 1.12325 1 1.27529V1.49366L3.19234 2.92709H1V4.30361H3.19234L1 5.73708V5.95545C1 6.10749 1.12353 6.23077 1.27587 6.23077H1.75506L4.31036 4.55997V6.23077H5.68967V4.55997L8.24494 6.23077H8.72413C8.87647 6.23077 9 6.10749 9 5.95545V5.73708L6.80766 4.30365H8.99997V2.92712H6.80763L8.99997 1.49369V1.27532C8.99997 1.12325 8.87644 1 8.72409 1Z" fill="white"/>
<path d="M9 3.20244H5.41378V1H4.58622V3.20244H1V4.02833H4.58622V6.23077H5.41378V4.02833H9V3.20244Z" fill="#FF334B"/>
<path d="M4.07692 2.84615L1.13331 1C1.05498 1.04788 1 1.12837 1 1.22457V1.23859L3.56315 2.84615H4.07692Z" fill="#FF334B"/>
<path d="M6.13994 2.84615L8.99985 1.13226C8.95014 1.05461 8.86244 1 8.75762 1H8.69585L5.61523 2.84615H6.13994Z" fill="#FF334B"/>
<path d="M3.85903 4.38477L1 6.09537C1.0493 6.1749 1.1385 6.23092 1.24501 6.23092H1.29898L4.38462 4.38477H3.85903V4.38477Z" fill="#FF334B"/>
<path d="M8.99977 6.01045L6.42739 4.38477H5.92285L8.844 6.23092C8.9315 6.19138 8.99153 6.10852 8.99977 6.01045Z" fill="#FF334B"/>
<path d="M12.7233 8.57227H9.05859V11.4044H12.7233V8.57227Z" fill="#82AFFF"/>
<path d="M9.05859 11.4043C9.05859 12.3703 10.1414 13.1534 10.891 13.1534C11.5574 13.1534 12.7235 12.3703 12.7235 11.4043H9.05859Z" fill="#C86464"/>
<path d="M11.3802 9.60547C11.4392 9.61587 11.5399 9.62978 11.5503 9.77206C11.5607 9.91434 11.5086 10.4211 11.4566 10.4835C11.4566 10.4835 11.6267 10.8687 11.6336 11.0978C11.6406 11.3268 11.6093 12.0122 11.6301 12.1216C11.651 12.2309 11.7291 12.4547 11.7291 12.4547C11.7291 12.4547 11.4896 12.3142 11.3959 12.4027C11.3022 12.4912 10.9586 12.6109 10.8232 12.4704C10.8232 12.4704 10.9846 12.0123 10.9846 11.4917C10.9846 10.9711 10.9846 9.68528 10.9846 9.68528C10.9846 9.68528 11.0523 9.6315 11.1408 9.62975C11.2293 9.62803 11.3802 9.60547 11.3802 9.60547Z" fill="#73AF00"/>
<path d="M11.4149 12.3574C11.4253 12.4234 11.453 12.472 11.4392 12.4962C11.4253 12.5205 11.3351 12.7426 11.3871 12.7426C11.4391 12.7426 11.5294 12.7149 11.5537 12.6663C11.578 12.6177 11.5884 12.5448 11.6023 12.524C11.6162 12.5032 11.578 12.3991 11.5468 12.3817C11.5155 12.3644 11.4149 12.3574 11.4149 12.3574Z" fill="#FFF5E1"/>
<path d="M10.8141 9.75123L10.6232 9.77555C10.6232 9.77555 10.6475 9.65061 10.6509 9.56383C10.6544 9.47708 10.6613 9.31742 10.6613 9.31742C10.6613 9.31742 10.7967 9.23414 10.8001 9.22023C10.8019 9.2133 10.8179 9.16992 10.8054 9.14736C10.7928 9.1248 10.7516 9.12305 10.7516 9.12305C10.7516 9.12305 10.5919 9.20633 10.5919 9.22023C10.5919 9.23414 10.5919 9.31742 10.5746 9.34864C10.5572 9.37989 10.4601 9.64017 10.4531 9.70958C10.4462 9.77898 10.4358 9.92476 10.4635 9.9317C10.4913 9.93864 10.7793 9.96989 10.8106 9.95598C10.8418 9.94211 10.8141 9.75123 10.8141 9.75123Z" fill="#FFF5E1"/>
<path d="M11.6797 9.06625H10.9849V8.73828H10.7455V9.06625H10.0508V9.30572H10.7455V12.4552H10.9849V9.30572H11.6797V9.06625Z" fill="#464655"/>
<path d="M11.2689 9.49193C11.2689 9.49193 11.5014 9.5589 11.5326 9.48152C11.5691 9.39127 11.4476 9.37915 11.425 9.28371C11.4225 9.27302 11.4008 9.1449 11.307 9.12062C11.2134 9.0963 11.1266 9.12062 11.1231 9.18308C11.1197 9.24555 11.2689 9.49193 11.2689 9.49193Z" fill="#963C3C"/>
<path d="M11.1446 9.78747C11.1377 9.78859 11.1272 9.71806 11.1411 9.63128C11.155 9.54453 11.1411 9.51675 11.1411 9.51675C11.1411 9.51675 11.0439 9.52716 11.0439 9.489C11.0439 9.45084 11.0648 9.27381 11.1238 9.18359C11.1238 9.18359 11.1654 9.23566 11.2418 9.23566C11.2418 9.23566 11.2383 9.29812 11.2799 9.33975C11.2799 9.33975 11.2279 9.38484 11.2522 9.41609C11.2765 9.44734 11.3216 9.4855 11.3216 9.4855C11.3216 9.4855 11.3251 9.55841 11.3806 9.60697C11.3806 9.60703 11.3112 9.75972 11.1446 9.78747Z" fill="#FFF5E1"/>
<path d="M10.2142 11.293H10.1934V11.7059H10.2142V11.293Z" fill="#464655"/>
<path d="M10.2982 11.2129H10.2773V11.7858H10.2982V11.2129Z" fill="#464655"/>
<path d="M10.3812 11.1406H10.3604V11.8597H10.3812V11.1406Z" fill="#464655"/>
<path d="M10.4652 11.0352H10.4443V11.9629H10.4652V11.0352Z" fill="#464655"/>
<path d="M10.5492 10.8984H10.5283V12.0992H10.5492V10.8984Z" fill="#464655"/>
<path d="M10.6332 10.8984H10.6123V12.1553H10.6332V10.8984Z" fill="#464655"/>
<path d="M10.9879 11.5573C10.8959 11.0787 10.6409 10.8007 10.5507 10.7869C10.4604 10.773 10.3945 10.8459 10.3876 10.8979C10.3806 10.95 10.332 11.1062 10.2314 11.179C10.1307 11.2519 9.94331 11.2936 9.90168 11.4289C9.86003 11.5643 9.97109 11.6233 10.037 11.6093C10.042 11.6083 10.0468 11.6064 10.0517 11.6048L10.7612 12.4775C10.787 12.5092 10.8372 12.504 10.8551 12.4673C10.928 12.3183 11.0664 11.9654 10.9879 11.5573ZM10.1113 11.567C10.1391 11.5371 10.1509 11.496 10.1203 11.4532C10.0683 11.3803 10.0093 11.4845 10.0093 11.4845C10.0093 11.4845 9.99193 11.3942 10.1273 11.3491C10.2626 11.304 10.4153 11.2277 10.4847 11.0645C10.5542 10.9014 10.5507 10.9326 10.5507 10.9326C10.5507 10.9326 10.8283 11.0888 10.8665 11.5782C10.9047 12.0675 10.7693 12.2653 10.7693 12.2653L10.1113 11.567Z" fill="#F8CB32"/>
<path d="M10.7451 10.5098C10.7132 10.5301 10.6845 10.5477 10.6644 10.5582C10.5993 10.592 10.5212 10.6259 10.5134 10.6571C10.5056 10.6883 10.4614 10.7144 10.464 10.7508C10.4666 10.7872 10.464 10.8965 10.464 10.8965C10.503 10.8887 10.5811 10.8757 10.6072 10.8288C10.6332 10.782 10.6566 10.6909 10.7399 10.6518C10.7414 10.6511 10.7436 10.6504 10.7451 10.6497V10.5098H10.7451Z" fill="#FFF5E1"/>
<path d="M11.4346 9.84527C11.3956 9.86349 11.2785 10.0041 11.2602 10.0691C11.242 10.1342 11.1848 10.2878 11.1848 10.2878C11.1848 10.2878 11.0665 10.3032 10.9844 10.3492V10.5765C11.0299 10.5633 11.0702 10.5503 11.0937 10.5377C11.1614 10.5013 11.2577 10.4336 11.3071 10.4206C11.3566 10.4076 11.3982 10.3243 11.4164 10.2748C11.4347 10.2254 11.4919 10.0796 11.4997 9.98071C11.5075 9.88171 11.4737 9.82705 11.4346 9.84527Z" fill="#FFF5E1"/>
<path d="M10.8907 13.2121L10.8817 13.2107C9.02138 12.917 9 11.3058 9 11.2374V8.51367H12.7815V11.2374C12.7815 11.3058 12.7601 12.9169 10.8999 13.2107L10.8907 13.2121ZM9.11666 8.6303V11.2373C9.11666 11.3016 9.13678 12.8119 10.8907 13.094C12.6447 12.8119 12.6648 11.3016 12.6648 11.2373V8.6303H9.11666Z" fill="white"/>
</svg>
