<svg width="16" height="16" viewBox="0 0 16 16" fill="none" xmlns="http://www.w3.org/2000/svg">
<rect x="15" y="1" width="14" height="14" rx="2" transform="rotate(90 15 1)" fill="#FF334B"/>
<path d="M12 3C12.5523 3 13 3.44772 13 4V12C13 12.5523 12.5523 13 12 13H4C3.44772 13 3 12.5523 3 12V4C3 3.44772 3.44772 3 4 3H12Z" fill="#73AF00"/>
<path d="M7.25742 8.00276C7.25742 6.18393 8.4963 4.66073 10.1734 4.21953C10.2292 4.20484 10.2252 4.12408 10.1679 4.11674C10.0158 4.09715 9.86104 4.08594 9.70361 4.08594C7.53869 4.08594 5.78613 5.83823 5.78613 8.00276C5.78613 10.1579 7.53869 11.915 9.70361 11.915C9.86131 11.915 10.0162 11.9036 10.1685 11.8841C10.2258 11.8767 10.2298 11.796 10.174 11.7813C8.49657 11.3394 7.25742 9.81393 7.25742 8.00276Z" fill="white"/>
</svg>
