<svg width="16" height="16" viewBox="0 0 16 16" fill="none" xmlns="http://www.w3.org/2000/svg">
<g clip-path="url(#clip0_5367_190314)">
<rect x="1" y="1" width="14" height="14" rx="2" fill="#464655"/>
<path d="M15 5.66602H1V10.3327H15V5.66602Z" fill="#FF334B"/>
<path d="M1 10.334H15V14.6322C15 14.8357 14.8919 15.0007 14.7586 15.0007H1.24139C1.10809 15.0007 1 14.8357 1 14.6322V10.334Z" fill="#73AF00"/>
<path d="M10.142 4.9134C9.7114 4.17631 8.91396 3.67969 7.99871 3.67969C7.08347 3.67969 6.28603 4.17631 5.85547 4.9134H10.142Z" fill="#FF334B"/>
<path d="M8.14102 2.50733C8.14102 2.63111 7.99849 3.40389 7.99849 3.40389C7.99849 3.40389 7.85596 2.63114 7.85596 2.50733C7.85596 2.38355 7.91977 2.2832 7.99849 2.2832C8.07721 2.2832 8.14102 2.38352 8.14102 2.50733Z" fill="#FF334B"/>
<path d="M10.6781 3.67531C10.5905 3.76284 9.94336 4.20849 9.94336 4.20849C9.94336 4.20849 10.389 3.56128 10.4765 3.47378C10.5641 3.38625 10.6802 3.3604 10.7358 3.41609C10.7915 3.47168 10.7656 3.58781 10.6781 3.67531Z" fill="#FF334B"/>
<path d="M5.52101 3.47382C5.60854 3.56135 6.0542 4.20853 6.0542 4.20853C6.0542 4.20853 5.40698 3.76288 5.31948 3.67535C5.23195 3.58781 5.20611 3.47172 5.26179 3.41607C5.31739 3.36041 5.43348 3.38625 5.52101 3.47382Z" fill="#FF334B"/>
<path d="M6.73511 2.72994C6.78248 2.84432 6.94651 3.61282 6.94651 3.61282C6.94651 3.61282 6.51911 2.95341 6.47177 2.83907C6.42442 2.72472 6.44495 2.6076 6.51767 2.57744C6.59036 2.54729 6.6877 2.61557 6.73511 2.72994Z" fill="#FF334B"/>
<path d="M9.52553 2.83909C9.47816 2.95346 9.05078 3.61283 9.05078 3.61283C9.05078 3.61283 9.21481 2.84437 9.26219 2.72996C9.30956 2.61559 9.40691 2.5473 9.47962 2.57743C9.55234 2.60755 9.57294 2.72471 9.52553 2.83909Z" fill="#FF334B"/>
<path d="M7.41331 2.55061C7.43793 2.67192 7.45184 3.45761 7.45184 3.45761C7.45184 3.45761 7.15856 2.72861 7.13393 2.60727C7.10931 2.48596 7.15193 2.37492 7.22906 2.35927C7.30624 2.34361 7.38874 2.42927 7.41331 2.55061Z" fill="#FF334B"/>
<path d="M10.1322 3.19169C10.0638 3.29488 9.51807 3.86028 9.51807 3.86028C9.51807 3.86028 9.82616 3.13741 9.89453 3.03422C9.96291 2.93104 10.0715 2.88263 10.1372 2.92613C10.2028 2.96963 10.2005 3.0885 10.1322 3.19169Z" fill="#FF334B"/>
<path d="M5.03788 4.01957C5.14107 4.08795 5.70647 4.63366 5.70647 4.63366C5.70647 4.63366 4.9836 4.32557 4.88041 4.2572C4.77723 4.18882 4.72882 4.0802 4.77232 4.01457C4.81582 3.94898 4.93473 3.9512 5.03788 4.01957Z" fill="#FF334B"/>
<path d="M6.07948 3.04842C6.14866 3.15107 6.46216 3.87163 6.46216 3.87163C6.46216 3.87163 5.91223 3.31035 5.84307 3.2077C5.77388 3.10504 5.77076 2.98614 5.83607 2.94217C5.90132 2.8982 6.01032 2.94576 6.07948 3.04842Z" fill="#FF334B"/>
<path d="M11.1025 4.23377C10.9999 4.30296 10.2793 4.61646 10.2793 4.61646C10.2793 4.61646 10.8406 4.06652 10.9432 3.99737C11.0459 3.92818 11.1648 3.92506 11.2088 3.99037C11.2528 4.05565 11.2052 4.16465 11.1025 4.23377Z" fill="#FF334B"/>
<path d="M8.83637 2.60055C8.81268 2.72202 8.5249 3.45324 8.5249 3.45324C8.5249 3.45324 8.5329 2.66749 8.55662 2.54599C8.58034 2.42452 8.66215 2.33821 8.7394 2.35327C8.81668 2.36833 8.86006 2.47905 8.83637 2.60055Z" fill="#FF334B"/>
<path d="M8.92139 2.62241C8.88543 2.74084 8.79736 3.52172 8.79736 3.52172C8.79736 3.52172 9.15818 2.82369 9.19414 2.70519C9.23011 2.58675 9.19818 2.47219 9.12286 2.44931C9.04758 2.42644 8.95736 2.50397 8.92139 2.62241Z" fill="#FF334B"/>
<path d="M6.15471 3.00454C6.21306 3.11373 6.70293 3.72814 6.70293 3.72814C6.70293 3.72814 6.46449 2.97939 6.40615 2.8702C6.34781 2.76101 6.24424 2.70258 6.17481 2.73967C6.10534 2.7768 6.09637 2.89533 6.15471 3.00454Z" fill="#FF334B"/>
<path d="M11.1479 4.30802C11.0388 4.36637 10.4243 4.85624 10.4243 4.85624C10.4243 4.85624 11.1731 4.6178 11.2823 4.55946C11.3914 4.50112 11.4499 4.39755 11.4128 4.32812C11.3757 4.25868 11.2571 4.24968 11.1479 4.30802Z" fill="#FF334B"/>
<path d="M10.2024 3.24373C10.1238 3.33942 9.74365 4.0271 9.74365 4.0271C9.74365 4.0271 10.3442 3.52029 10.4227 3.42457C10.5013 3.32889 10.5156 3.21085 10.4548 3.16089C10.394 3.11095 10.2809 3.14804 10.2024 3.24373Z" fill="#FF334B"/>
<path d="M5.08993 3.94829C5.18561 4.02685 5.8733 4.40701 5.8733 4.40701C5.8733 4.40701 5.36649 3.80648 5.27077 3.72794C5.17505 3.64941 5.05705 3.63504 5.00708 3.69588C4.95715 3.75676 4.99421 3.86976 5.08993 3.94829Z" fill="#FF334B"/>
<path d="M7.50024 2.53823C7.51233 2.66144 7.7298 3.41654 7.7298 3.41654C7.7298 3.41654 7.79605 2.63354 7.78392 2.51032C7.77183 2.3871 7.69849 2.29351 7.62017 2.30123C7.54183 2.30891 7.48814 2.41501 7.50024 2.53823Z" fill="#FF334B"/>
<path d="M8.21933 2.51011C8.20701 2.6333 8.27201 3.41639 8.27201 3.41639C8.27201 3.41639 8.49064 2.66164 8.50295 2.53846C8.51526 2.41527 8.46173 2.30908 8.38339 2.30124C8.30507 2.29342 8.23164 2.38696 8.21933 2.51011Z" fill="#FF334B"/>
<path d="M5.57875 3.42061C5.65715 3.51639 6.25684 4.02417 6.25684 4.02417C6.25684 4.02417 5.87775 3.33586 5.79937 3.24008C5.72097 3.1443 5.60803 3.10705 5.54712 3.15686C5.48619 3.2067 5.50034 3.3248 5.57875 3.42061Z" fill="#FF334B"/>
<path d="M10.7305 3.73352C10.6347 3.81193 10.127 4.41161 10.127 4.41161C10.127 4.41161 10.8153 4.03252 10.911 3.95414C11.0068 3.87577 11.0441 3.7628 10.9943 3.70189C10.9444 3.64099 10.8264 3.65511 10.7305 3.73352Z" fill="#FF334B"/>
<path d="M9.59646 2.87189C9.53793 2.98098 9.29834 3.72933 9.29834 3.72933C9.29834 3.72933 9.78915 3.11567 9.84768 3.00661C9.90621 2.89752 9.89737 2.77892 9.82803 2.7417C9.75865 2.70448 9.655 2.76277 9.59646 2.87189Z" fill="#FF334B"/>
<path d="M4.71758 4.55556C4.82667 4.61409 5.57501 4.85368 5.57501 4.85368C5.57501 4.85368 4.96136 4.36287 4.8523 4.30434C4.7432 4.24581 4.62461 4.25465 4.58739 4.32403C4.5502 4.39337 4.60848 4.49703 4.71758 4.55556Z" fill="#FF334B"/>
<path d="M6.80857 2.70304C6.84432 2.82157 7.2041 3.52016 7.2041 3.52016C7.2041 3.52016 7.11729 2.73916 7.08148 2.62069C7.04573 2.50216 6.9556 2.42457 6.88026 2.44732C6.80492 2.47004 6.77279 2.58454 6.80857 2.70304Z" fill="#FF334B"/>
</g>
<defs>
<clipPath id="clip0_5367_190314">
<rect x="1" y="1" width="14" height="14" rx="2" fill="white"/>
</clipPath>
</defs>
</svg>
