<svg width="16" height="16" viewBox="0 0 16 16" fill="none" xmlns="http://www.w3.org/2000/svg">
<g clip-path="url(#clip0_5367_190289)">
<rect x="15" y="1" width="14" height="14" rx="2" transform="rotate(90 15 1)" fill="white"/>
<path d="M15 1.24139L15 14.7586C15 14.8919 14.835 15 14.6316 15L10.3333 15L10.3333 1L14.6316 1C14.835 1 15 1.10809 15 1.24139Z" fill="#FF334B"/>
<path d="M5.6665 1L5.6665 15L1.36828 15C1.16482 15 0.999837 14.8919 0.999837 14.7586L0.999837 1.24139C0.999837 1.10809 1.16482 1 1.36828 1L5.6665 1Z" fill="#73AF00"/>
<path d="M8.47578 8.18164L8 8.41958V8.65748H8.23791L8.47578 8.18164Z" fill="#FFD250"/>
<path d="M7.99934 9.25474C7.93359 9.25474 7.88037 9.20152 7.88037 9.13577V8.65998C7.88037 8.59423 7.93359 8.54102 7.99934 8.54102C8.06509 8.54102 8.11831 8.59423 8.11831 8.65998V9.13577C8.11831 9.20152 8.06509 9.25474 7.99934 9.25474Z" fill="#00C3A0"/>
<path d="M7.99932 8.77807C7.5321 8.77807 7.08095 8.59779 6.72889 8.27044C6.68079 8.22572 6.67801 8.15044 6.7227 8.10238C6.76776 8.05441 6.84295 8.05185 6.89076 8.09619C7.1987 8.38254 7.59239 8.54016 7.99929 8.54016C8.4062 8.54016 8.79989 8.38254 9.10782 8.09619C9.15579 8.05172 9.23095 8.05416 9.27589 8.10238C9.32061 8.15047 9.31782 8.22576 9.2697 8.27044C8.9177 8.59782 8.46654 8.77807 7.99932 8.77807Z" fill="#00C3A0"/>
<path d="M7.99976 9.25281C7.69482 9.25281 7.39945 9.16372 7.14551 8.99506L7.27723 8.79688C7.70657 9.08216 8.29294 9.08216 8.72226 8.79688L8.85398 8.99506C8.60007 9.16375 8.30469 9.25281 7.99976 9.25281Z" fill="#00AADC"/>
<path d="M7.81168 7.64648L7.54902 8.05295L7.50439 8.18673L8.18836 8.02814L7.81168 7.64648Z" fill="#732D37"/>
<path d="M7.27198 8.31895C6.95754 8.31895 6.58011 8.05433 6.47998 7.4647L6.71464 7.42498C6.79782 7.9153 7.09945 8.08139 7.28057 8.08095C7.33611 8.07942 7.39404 8.06027 7.3986 8.02102C7.40395 7.97408 7.40523 7.96295 7.28082 7.92089C7.2132 7.89798 7.13654 7.87211 7.08276 7.81055C6.86517 7.56208 7.15976 7.29911 7.30129 7.17273C7.32626 7.15042 7.3366 7.13148 7.33395 7.1243C7.32617 7.10395 7.27948 7.0732 7.22685 7.0732C7.07573 7.0732 6.96107 6.98783 6.92776 6.85052C6.89314 6.70833 6.95854 6.55848 7.08307 6.49414L7.19229 6.70555C7.16311 6.72064 7.15154 6.76361 7.15895 6.7943C7.16186 6.80661 7.16895 6.8353 7.22692 6.8353C7.37257 6.8353 7.51117 6.92127 7.55623 7.03952C7.57551 7.08992 7.60454 7.22095 7.45982 7.35023C7.30357 7.48977 7.21007 7.59477 7.26189 7.65389C7.2736 7.66723 7.32392 7.68433 7.35714 7.69548C7.46423 7.73173 7.66357 7.79911 7.63501 8.04827C7.6171 8.20495 7.47726 8.31367 7.28723 8.31883C7.28211 8.31883 7.27698 8.31895 7.27198 8.31895Z" fill="#AAD264"/>
<path d="M8.23791 6.99304C8.23791 6.99304 8.47581 6.51726 8 6.27935C8 6.27935 9.66528 6.04144 9.42737 8.18254L9.42728 8.18244C9.27116 8.05754 9.03934 7.82926 8.95656 7.64726L8.23791 7.23091V6.99304Z" fill="#874150"/>
<path d="M8 7.46875L9.18947 8.18244C9.18947 8.18244 9.18947 8.18244 8.71369 8.42034L8 7.70669V7.46875Z" fill="#732D37"/>
<path d="M7.52393 6.75545C7.6553 6.75545 7.76183 6.86198 7.76183 6.99336L7.76158 6.99361C7.61964 7.13555 7.58449 7.35233 7.67424 7.53186L7.72799 7.63939C7.75039 7.6842 7.77989 7.72514 7.81533 7.76058L8.47555 8.4208V8.09202C8.47555 7.68242 8.38021 7.27845 8.19702 6.91211C8.07611 6.67033 7.82899 6.51758 7.55868 6.51758H7.52396V6.75552H7.52393V6.75545V6.75545Z" fill="#783C46"/>
<path d="M7.52453 6.51758L7.28662 6.75548V6.99339C7.28662 6.99339 7.56962 6.84992 7.665 6.8042C7.73165 6.77227 7.71953 6.69673 7.68128 6.66033C7.6515 6.63202 7.52453 6.51758 7.52453 6.51758Z" fill="#FFD250"/>
<path d="M8.00015 9.72916C6.88512 9.72916 5.97803 8.82206 5.97803 7.70703H6.21593C6.21593 8.69094 7.01628 9.49128 8.00018 9.49128C8.98409 9.49128 9.78443 8.69094 9.78443 7.70703H10.0223C10.0223 8.82206 9.11518 9.72916 8.00015 9.72916Z" fill="#AAD264"/>
<path d="M6.22931 8.57483C6.31847 8.57483 6.39075 8.50255 6.39075 8.41339C6.39075 8.32423 6.31847 8.25195 6.22931 8.25195C6.14015 8.25195 6.06787 8.32423 6.06787 8.41339C6.06787 8.50255 6.14015 8.57483 6.22931 8.57483Z" fill="#F8CB32"/>
<path d="M6.58624 9.14514C6.6754 9.14514 6.74768 9.07286 6.74768 8.9837C6.74768 8.89454 6.6754 8.82227 6.58624 8.82227C6.49708 8.82227 6.4248 8.89454 6.4248 8.9837C6.4248 9.07286 6.49708 9.14514 6.58624 9.14514Z" fill="#F8CB32"/>
<path d="M7.16583 9.57483C7.25499 9.57483 7.32727 9.50255 7.32727 9.41339C7.32727 9.32423 7.25499 9.25195 7.16583 9.25195C7.07667 9.25195 7.00439 9.32423 7.00439 9.41339C7.00439 9.50255 7.07667 9.57483 7.16583 9.57483Z" fill="#F8CB32"/>
<path d="M9.78888 8.57483C9.87804 8.57483 9.95032 8.50255 9.95032 8.41339C9.95032 8.32423 9.87804 8.25195 9.78888 8.25195C9.69972 8.25195 9.62744 8.32423 9.62744 8.41339C9.62744 8.50255 9.69972 8.57483 9.78888 8.57483Z" fill="#F8CB32"/>
<path d="M9.43194 9.14514C9.5211 9.14514 9.59338 9.07286 9.59338 8.9837C9.59338 8.89454 9.5211 8.82227 9.43194 8.82227C9.34279 8.82227 9.27051 8.89454 9.27051 8.9837C9.27051 9.07286 9.34279 9.14514 9.43194 9.14514Z" fill="#F8CB32"/>
<path d="M8.85187 9.57483C8.94103 9.57483 9.0133 9.50255 9.0133 9.41339C9.0133 9.32423 8.94103 9.25195 8.85187 9.25195C8.76271 9.25195 8.69043 9.32423 8.69043 9.41339C8.69043 9.50255 8.76271 9.57483 8.85187 9.57483Z" fill="#F8CB32"/>
<path d="M8.11888 9.3723H7.88097C7.7496 9.3723 7.64307 9.26577 7.64307 9.13439C7.64307 9.00302 7.7496 8.89648 7.88097 8.89648H8.11888C8.25025 8.89648 8.35679 9.00302 8.35679 9.13439C8.35679 9.2658 8.25025 9.3723 8.11888 9.3723Z" fill="#FFB478"/>
<path d="M8.95656 7.64722C9.03587 7.88016 9.20437 8.09328 9.42728 8.18241L9.42737 8.1825C9.66528 6.04147 8 6.27935 8 6.27935C9.18947 6.27935 8.95656 7.64722 8.95656 7.64722Z" fill="#9B4B5A"/>
</g>
<defs>
<clipPath id="clip0_5367_190289">
<rect x="15" y="1" width="14" height="14" rx="2" transform="rotate(90 15 1)" fill="white"/>
</clipPath>
</defs>
</svg>
