<svg width="16" height="16" viewBox="0 0 16 16" fill="none" xmlns="http://www.w3.org/2000/svg">
<g clip-path="url(#clip0_5367_190277)">
<rect x="1" y="1.11914" width="14" height="14" rx="2" fill="white"/>
<path d="M16 2.39189H0V1.48758C0 1.28412 0.123531 1.11914 0.275874 1.11914H15.7241C15.8765 1.11914 16 1.28412 16 1.48758L16 2.39189Z" fill="#FF334B"/>
<path d="M16 3.66406H0V4.93677H16V3.66406Z" fill="#FF334B"/>
<path d="M16 7.48365H0.275874C0.123531 7.48365 0 7.31867 0 7.11521V6.21094H16V7.48365Z" fill="#FF334B"/>
<path d="M16 8.75586H0V10.0286H16V8.75586Z" fill="#FF334B"/>
<path d="M16 11.3008H0V12.5735H16V11.3008Z" fill="#FF334B"/>
<path d="M15.7241 15.1184H0.275874C0.123531 15.1184 0 14.9534 0 14.75V13.8457H16V14.75C16 14.9535 15.8764 15.1184 15.7241 15.1184Z" fill="#FF334B"/>
<path d="M8.42364 7.48283H1.18568C0.919204 7.48283 0.703125 7.31785 0.703125 7.11439V1.48758C0.703125 1.28412 0.919204 1.11914 1.18568 1.11914H8.42369C8.69017 1.11914 8.90625 1.28412 8.90625 1.48758V7.11439C8.9062 7.31785 8.69012 7.48283 8.42364 7.48283Z" fill="#41479B"/>
<path d="M2.79502 4.30129C2.79502 3.24493 3.65246 2.38803 4.70784 2.38803C4.97339 2.38803 5.22588 2.44239 5.45583 2.54034C5.48567 2.55306 5.50817 2.51152 5.48137 2.49323C5.1009 2.23423 4.6356 2.09232 4.13652 2.11827C3.03928 2.17531 2.14206 3.05911 2.07113 4.15556C1.98864 5.4309 2.99783 6.48739 4.25298 6.48739C4.70657 6.48739 5.1282 6.34763 5.47836 6.11068C5.50532 6.09243 5.48298 6.05082 5.45302 6.06351C5.22382 6.1607 4.97235 6.21462 4.7079 6.21462C3.65246 6.21459 2.79502 5.35768 2.79502 4.30129Z" fill="#F8CB32"/>
<path d="M7.16759 4.30039L7.97624 3.98751C8.01621 3.97204 8.0026 3.91233 7.95986 3.91575L7.09583 3.98494L7.68959 3.35025C7.71889 3.31896 7.68073 3.27115 7.64371 3.29273L6.89327 3.7305L7.15228 2.90229C7.16506 2.86141 7.10994 2.83487 7.08599 2.87037L6.60019 3.59002L6.47556 2.73106C6.46943 2.68863 6.40817 2.6886 6.40197 2.73102L6.32236 3.27453L6.28933 3.50456L6.27661 3.59005L5.79081 2.871C5.76683 2.8355 5.71165 2.86208 5.72453 2.90296L5.98448 3.73046L5.23411 3.2927C5.19709 3.27109 5.15893 3.31893 5.18823 3.35022L5.78196 3.98491L4.91771 3.91572C4.87497 3.9123 4.86133 3.972 4.90132 3.98748L5.7107 4.30036L4.90129 4.61331C4.86127 4.62878 4.87494 4.68849 4.91768 4.68507L5.78196 4.61588L5.1882 5.25215C5.15893 5.28351 5.19719 5.33125 5.23417 5.30961L5.98451 4.87029L5.72456 5.6978C5.71171 5.73868 5.76683 5.76529 5.79085 5.72976L6.27664 5.01071L6.28936 5.09822L6.3224 5.32622L6.40203 5.87119C6.40824 5.91365 6.46949 5.91358 6.47563 5.87116L6.60026 5.01077L7.08606 5.73042C7.11004 5.76592 7.16516 5.73944 7.15234 5.6985L6.89334 4.87029L7.64368 5.30961C7.68066 5.33125 7.71889 5.28351 7.68965 5.25215L7.09587 4.61588L7.95992 4.68507C8.00266 4.68849 8.0163 4.62878 7.97631 4.61331L7.16759 4.30039Z" fill="#F8CB32"/>
</g>
<defs>
<clipPath id="clip0_5367_190277">
<rect x="1" y="1.11914" width="14" height="14" rx="2" fill="white"/>
</clipPath>
</defs>
</svg>
