<svg width="16" height="16" viewBox="0 0 16 16" fill="none" xmlns="http://www.w3.org/2000/svg">
<g clip-path="url(#clip0_5367_190245)">
<rect x="15" y="1" width="14" height="14" rx="2" transform="rotate(90 15 1)" fill="#41479B"/>
<path d="M15 1H1V5.66667H15V1Z" fill="#5AA587"/>
<path d="M15 10.334H1V15.0007H15V10.334Z" fill="#F8CB32"/>
<path d="M1.10175 15L9 8L1.10175 1C1.04097 1.06844 1 1.16761 1 1.28293V14.717C1 14.8324 1.04097 14.9316 1.10175 15Z" fill="white"/>
<path d="M3.89754 8.89469C4.3927 8.89469 4.7941 8.49328 4.7941 7.99813C4.7941 7.50297 4.3927 7.10156 3.89754 7.10156C3.40238 7.10156 3.00098 7.50297 3.00098 7.99813C3.00098 8.49328 3.40238 8.89469 3.89754 8.89469Z" fill="#F8CB32"/>
<path d="M3.89677 7.99817L3.56055 6.65336L3.89677 6.20508L4.23295 6.65336L3.89677 7.99817Z" fill="#F8CB32"/>
<path d="M3.89677 7.99805L4.23295 9.34286L3.89677 9.79114L3.56055 9.34286L3.89677 7.99805Z" fill="#F8CB32"/>
<path d="M3.89664 7.99833L2.5518 8.33455L2.10352 7.99833L2.5518 7.66211L3.89664 7.99833Z" fill="#F8CB32"/>
<path d="M3.89746 7.99833L5.24227 7.66211L5.69055 7.99833L5.24227 8.33455L3.89746 7.99833Z" fill="#F8CB32"/>
<path d="M3.89746 7.99841L4.61065 6.80975L5.16537 6.73047L5.08612 7.28519L3.89746 7.99841Z" fill="#F8CB32"/>
<path d="M3.89684 7.99805L3.18362 9.1867L2.62891 9.26598L2.70819 8.71127L3.89684 7.99805Z" fill="#F8CB32"/>
<path d="M3.89684 7.99841L2.70819 7.28519L2.62891 6.73047L3.18362 6.80975L3.89684 7.99841Z" fill="#F8CB32"/>
<path d="M3.89746 7.99805L5.08612 8.71127L5.16537 9.26598L4.61065 9.1867L3.89746 7.99805Z" fill="#F8CB32"/>
<path d="M1.7397 4.11443L1.78645 4.46318L1.47157 4.6203C1.43082 4.64065 1.43938 4.70118 1.48423 4.70936L1.83035 4.77268L1.88248 5.12068C1.88923 5.16574 1.94945 5.17627 1.9711 5.13615L2.13829 4.82652L2.48535 4.88446C2.53029 4.89199 2.55892 4.83793 2.52748 4.80499L2.28467 4.5503L2.44701 4.23811C2.46804 4.19771 2.42548 4.15377 2.38442 4.17349L2.06717 4.32574L1.82045 4.07483C1.78857 4.0424 1.73367 4.0693 1.7397 4.11443Z" fill="#F8CB32"/>
<path d="M1.87883 10.9028L1.81976 11.2497L1.47245 11.3061C1.42748 11.3134 1.4177 11.3737 1.45804 11.3949L1.7697 11.5582L1.71604 11.906C1.70911 11.951 1.76345 11.9789 1.79604 11.9471L2.0477 11.7012L2.36189 11.8597C2.40258 11.8802 2.44595 11.8371 2.42576 11.7963L2.26964 11.481L2.51745 11.2312C2.54951 11.1988 2.52201 11.1443 2.47689 11.1509L2.1287 11.2019L1.9677 10.889C1.94686 10.8485 1.88642 10.8578 1.87883 10.9028Z" fill="#F8CB32"/>
<path d="M7.33561 7.48506L7.13308 7.77281L6.79526 7.67437C6.75155 7.66162 6.71673 7.71191 6.74405 7.74834L6.95514 8.02987L6.75711 8.32075C6.73148 8.35841 6.76851 8.40703 6.81164 8.39231L7.14461 8.27856L7.36005 8.55678C7.38795 8.59281 7.44564 8.57256 7.44495 8.52703L7.43964 8.17522L7.77083 8.05628C7.8137 8.04087 7.8123 7.97975 7.76876 7.96634L7.43248 7.86266L7.42173 7.51094C7.42042 7.46534 7.36183 7.44778 7.33561 7.48506Z" fill="#F8CB32"/>
<path d="M15 5.16211H1V10.9074H15V5.16211Z" fill="white"/>
<path d="M15 5.66602H1V10.3327H15V5.66602Z" fill="#464655"/>
<path d="M1.10175 15L9 8L1.10175 1C1.04097 1.06844 1 1.16761 1 1.28293V14.717C1 14.8324 1.04097 14.9316 1.10175 15Z" fill="#FF334B"/>
<path d="M3.9384 5.97845L4.34168 7.18767L5.61634 7.19758C5.68762 7.19814 5.71715 7.28911 5.6598 7.33145L4.6344 8.08867L5.01887 9.30401C5.04034 9.37198 4.96299 9.4282 4.90499 9.38673L3.86796 8.64548L2.83093 9.38673C2.77293 9.42817 2.69556 9.37198 2.71706 9.30401L3.10153 8.08867L2.07615 7.33145C2.01881 7.28911 2.04837 7.19814 2.11962 7.19758L3.39428 7.18767L3.79756 5.97845C3.82018 5.91083 3.91584 5.91083 3.9384 5.97845Z" fill="#F8CB32"/>
<path d="M3.7947 8.22442L3.69501 8.32473H2.86133L3.08886 7.48983L3.18183 7.44336L3.03258 8.18773C3.03133 8.19692 3.0332 8.20608 3.0393 8.21342C3.04483 8.22076 3.05336 8.22442 3.06255 8.22442H3.7947Z" fill="white"/>
<path d="M3.99516 8.36428C3.95907 8.39119 3.91504 8.4065 3.86916 8.4065C3.82329 8.4065 3.77926 8.39122 3.74316 8.36428L3.86916 8.23828L3.99516 8.36428Z" fill="white"/>
<path d="M4.87576 8.32473H4.04207L3.94238 8.22442H4.67451C4.68369 8.22442 4.69223 8.22076 4.69776 8.21342C4.70385 8.20608 4.70573 8.19689 4.70448 8.18773L4.55523 7.44336L4.64819 7.48983L4.87576 8.32473Z" fill="white"/>
<path d="M4.63769 8.16336H3.89941V7.40183C4.02298 7.29723 4.34898 7.3688 4.48719 7.41161L4.63769 8.16336Z" fill="white"/>
<path d="M3.83786 7.40181V8.16334H3.09961L3.25008 7.41162C3.38833 7.36878 3.71433 7.29725 3.83786 7.40181Z" fill="white"/>
<path d="M4.94535 8.34768L4.70372 7.46078C4.70128 7.45281 4.69578 7.4455 4.68782 7.44181L4.52635 7.36109C4.52572 7.36047 4.5251 7.36047 4.52391 7.36047C4.52328 7.36047 4.52328 7.35984 4.52269 7.35922C4.5031 7.3525 4.056 7.20691 3.86822 7.34944C3.68044 7.20691 3.23332 7.3525 3.21376 7.35922C3.21313 7.35984 3.21313 7.35984 3.21254 7.36047C3.21129 7.36047 3.21072 7.36047 3.2101 7.36109L3.04863 7.44181C3.04066 7.44547 3.03519 7.45281 3.03272 7.46078L2.7911 8.34768C2.78866 8.35687 2.79048 8.36665 2.79601 8.374C2.8021 8.38134 2.81129 8.38625 2.82048 8.38625H3.67679C3.72754 8.437 3.79607 8.46697 3.86822 8.46697C3.94041 8.46697 4.00891 8.437 4.05966 8.38625H4.91597C4.92516 8.38625 4.93432 8.38134 4.94044 8.374C4.94594 8.36665 4.94778 8.35687 4.94535 8.34768ZM3.89879 7.40206C4.02235 7.29747 4.34835 7.36903 4.48657 7.41184L4.63703 8.16356H3.89879C3.89879 8.16359 3.89879 7.40206 3.89879 7.40206ZM3.24982 7.41187C3.38807 7.36906 3.71407 7.2975 3.8376 7.40209V8.16362H3.09935L3.24982 7.41187ZM2.86082 8.32506L3.08835 7.49015L3.18132 7.44369L3.03207 8.18806C3.03082 8.19725 3.03269 8.2064 3.03879 8.21375C3.04432 8.22109 3.05285 8.22475 3.06204 8.22475H3.79416L3.69447 8.32506H2.86082ZM3.86819 8.40581C3.82232 8.40581 3.77829 8.39053 3.74219 8.36359L3.86819 8.23759L3.99419 8.36359C3.95813 8.3905 3.9141 8.40581 3.86819 8.40581ZM4.04191 8.32506L3.94222 8.22475H4.67435C4.68353 8.22475 4.69207 8.22109 4.6976 8.21375C4.70369 8.2064 4.70557 8.19722 4.70432 8.18806L4.55507 7.44369L4.64803 7.49015L4.87557 8.32506H4.04191V8.32506Z" fill="#464655"/>
<path d="M4.63316 6.60233C4.60197 6.62405 4.55972 6.62033 4.53282 6.59342L4.49213 6.55273V6.65233L4.24316 6.9013H4.14357L3.74526 7.29964H3.64566L2.87979 8.06551C2.86091 8.08439 2.85435 8.11226 2.86279 8.13758L2.89882 8.24567L2.74944 8.39504H2.64985L2.34538 8.69951C2.32107 8.72382 2.32107 8.76326 2.34538 8.78761L2.54632 8.98854C2.57532 9.01754 2.62288 9.01573 2.64957 8.98457L3.09801 8.44482L3.14779 8.29545L3.24738 8.19586L3.44657 8.49461L3.59594 8.34523L3.4366 8.10623L3.47629 8.06654C3.51488 8.02795 3.51488 7.96542 3.47629 7.92683L3.44657 7.89711L3.47454 7.86914C3.68707 8.05126 3.94225 8.09836 4.18522 7.9942L4.102 7.80001C3.90125 7.88604 3.73732 7.81408 3.62329 7.72036L4.04404 7.29961L4.02744 7.21661L4.14363 7.10042H4.24322L4.99013 6.35352L4.63316 6.60233Z" fill="#464655"/>
<path d="M3.14826 6.50304L3.04867 6.60264C3.0212 6.63011 3.0212 6.6747 3.04867 6.70223L3.06526 6.71882L2.8993 6.75204L2.45117 7.20017L2.70014 7.44914L3.14826 7.00101L3.18145 6.83501L3.24786 6.90142L3.29764 6.85164L4.95389 8.50788L5.05348 8.40829L3.39723 6.75204L3.44701 6.70226L3.24783 6.50307C3.22036 6.47554 3.1758 6.47554 3.14826 6.50304Z" fill="#464655"/>
</g>
<defs>
<clipPath id="clip0_5367_190245">
<rect x="15" y="1" width="14" height="14" rx="2" transform="rotate(90 15 1)" fill="white"/>
</clipPath>
</defs>
</svg>
