<svg width="16" height="16" viewBox="0 0 16 16" fill="none" xmlns="http://www.w3.org/2000/svg">
<g clip-path="url(#clip0_5367_190232)">
<rect x="15" y="1" width="14" height="14" rx="2" transform="rotate(90 15 1)" fill="#41479B"/>
<path d="M0.941406 12.1936L15.0587 4.96484V15.0851H0.941406V12.1936Z" fill="#73AF00"/>
<path d="M15.7241 2.75781H14.9333L0 10.4819V11.0336L15.8864 2.81653C15.8404 2.78206 15.7861 2.75781 15.7241 2.75781Z" fill="white"/>
<path d="M0.276113 13.2407H1.06689L16.0002 5.51656V4.96484L0.11377 13.182C0.159832 13.2164 0.214144 13.2407 0.276113 13.2407Z" fill="white"/>
<path d="M15.8864 2.81641L0 11.0335V12.9645C0 13.0549 0.0463437 13.1314 0.113531 13.1817L16 4.96459V3.03353C16 2.94312 15.9536 2.86672 15.8864 2.81641Z" fill="#FF334B"/>
<path d="M4.00995 3.36009C4.28155 3.36009 4.52736 3.47013 4.70539 3.64803L4.80305 2.97034L4.26445 3.39413L4.00992 2.75781L3.75539 3.39413L3.2168 2.97034L3.31445 3.64803C3.49255 3.47009 3.73836 3.36009 4.00995 3.36009Z" fill="#F8CB32"/>
<path d="M3.31405 5.03934C3.13614 4.86131 3.02611 4.61544 3.02611 4.34391C3.02611 4.07231 3.13614 3.8265 3.31405 3.64847L2.63636 3.55078L3.06014 4.08937L2.42383 4.34391L3.06014 4.59844L2.63636 5.13703L3.31405 5.03934Z" fill="#F8CB32"/>
<path d="M5.59627 4.34388L4.95996 4.08934L5.38374 3.55078L4.70605 3.64844C4.88396 3.82647 4.99399 4.07234 4.99399 4.34388C4.99399 4.61544 4.88396 4.86128 4.70605 5.03931L5.38374 5.13697L4.95996 4.59837L5.59627 4.34388Z" fill="#F8CB32"/>
<path d="M4.00989 5.327C3.7383 5.327 3.49248 5.21697 3.31445 5.03906L3.2168 5.71675L3.75539 5.29297L4.00992 5.92928L4.26445 5.29297L4.80305 5.71675L4.70539 5.03906C4.5273 5.217 4.28148 5.327 4.00989 5.327Z" fill="#F8CB32"/>
<path d="M4.00995 5.14783C4.45366 5.14783 4.81336 4.78813 4.81336 4.34442C4.81336 3.90071 4.45366 3.54102 4.00995 3.54102C3.56624 3.54102 3.20654 3.90071 3.20654 4.34442C3.20654 4.78813 3.56624 5.14783 4.00995 5.14783Z" fill="#F8CB32"/>
</g>
<defs>
<clipPath id="clip0_5367_190232">
<rect x="15" y="1" width="14" height="14" rx="2" transform="rotate(90 15 1)" fill="white"/>
</clipPath>
</defs>
</svg>
