<svg width="16" height="16" viewBox="0 0 16 16" fill="none" xmlns="http://www.w3.org/2000/svg">
<g clip-path="url(#clip0_5367_190222)">
<rect x="15" y="1" width="14" height="14" rx="2" transform="rotate(90 15 1)" fill="white"/>
<path d="M15 1.24139L15 14.7586C15 14.8919 14.835 15 14.6316 15L10.3333 15L10.3333 1L14.6316 1C14.835 1 15 1.10809 15 1.24139Z" fill="#73AF00"/>
<path d="M5.6665 1L5.6665 15L1.36828 15C1.16482 15 0.999837 14.8919 0.999837 14.7586L0.999837 1.24139C0.999837 1.10809 1.16482 1 1.36828 1L5.6665 1Z" fill="#73AF00"/>
<path d="M9.84253 10.7055L8.9864 5.71133C8.95371 5.52064 8.88587 5.33767 8.78634 5.17177L8.00006 3.86133L7.21378 5.1718C7.11421 5.3377 7.0464 5.52067 7.01371 5.71136L6.15756 10.7055C6.14121 10.8009 6.21465 10.888 6.31146 10.888H7.68775V12.1372H8.31234V10.888H9.68862C9.7854 10.888 9.8589 10.8009 9.84253 10.7055Z" fill="#73AF00"/>
</g>
<defs>
<clipPath id="clip0_5367_190222">
<rect x="15" y="1" width="14" height="14" rx="2" transform="rotate(90 15 1)" fill="white"/>
</clipPath>
</defs>
</svg>
