<svg width="16" height="16" viewBox="0 0 16 16" fill="none" xmlns="http://www.w3.org/2000/svg">
<g clip-path="url(#clip0_5367_190174)">
<rect x="1" y="1" width="14" height="14" rx="2" fill="#41479B"/>
<path d="M15 5.66602H1V10.3327H15V5.66602Z" fill="white"/>
<path d="M15 10.334H1V15.0007H15V10.334Z" fill="#41479B"/>
<path d="M7.99967 7.01172L7.1582 8.24919H8.84114L7.99967 7.01172Z" fill="#AFEBFF"/>
<path d="M7.15876 8.24805L6.61426 9.04004H9.38619L8.84169 8.24805H7.15876Z" fill="#557DE6"/>
<path d="M8.21582 8.17895C8.21916 8.17205 8.2227 8.16527 8.22573 8.1582C8.22273 8.1652 8.21916 8.17205 8.21582 8.17895Z" fill="#73AF00"/>
<path d="M8.23926 8.12208C8.24132 8.11586 8.24382 8.10983 8.2456 8.10352C8.24379 8.1098 8.24129 8.11583 8.23926 8.12208Z" fill="#73AF00"/>
<path d="M8.1875 8.23141C8.19175 8.22463 8.19594 8.21788 8.19991 8.21094C8.19597 8.21791 8.19172 8.22466 8.1875 8.23141Z" fill="#73AF00"/>
<path d="M8.31633 8C8.3088 8 8.30158 8.00125 8.29492 8.00347C8.30158 8.00122 8.3088 8 8.31633 8Z" fill="#73AF00"/>
<path d="M8.27612 8.01367C8.26565 8.02186 8.25846 8.03327 8.25684 8.04627V8.04633V8.04627C8.25849 8.03327 8.26562 8.02183 8.27612 8.01367Z" fill="#73AF00"/>
<path d="M8.25098 8.38237C8.26276 8.39356 8.27445 8.40419 8.2862 8.41437C8.34901 8.36 8.41457 8.29091 8.46057 8.21006C8.45726 8.21584 8.4537 8.22147 8.4502 8.22716C8.40723 8.14816 8.38454 8.07981 8.37354 8.03928C8.36726 8.01616 8.34332 8.00003 8.31598 8C8.32651 8.09231 8.34913 8.26197 8.25098 8.38237Z" fill="#73AF00"/>
<path d="M8.5 8.12208C8.50206 8.11586 8.50456 8.10983 8.50634 8.10352C8.50456 8.1098 8.50206 8.11583 8.5 8.12208Z" fill="#73AF00"/>
<path d="M8.53784 8.01367C8.52737 8.02186 8.52018 8.03327 8.51855 8.04627V8.04633V8.04627C8.52021 8.03327 8.52734 8.02183 8.53784 8.01367Z" fill="#73AF00"/>
<path d="M8.47656 8.17895C8.47991 8.17205 8.48344 8.16527 8.48647 8.1582C8.48341 8.1652 8.47991 8.17205 8.47656 8.17895Z" fill="#73AF00"/>
<path d="M9.011 8.44575C8.91559 8.44575 8.82531 8.39997 8.77018 8.32209C8.68715 8.20478 8.6495 8.09541 8.63428 8.03931C8.628 8.01612 8.604 8 8.57662 8L8.57672 8.00003C8.58928 8.11022 8.61915 8.3305 8.44012 8.44578H8.32356C8.31878 8.442 8.31412 8.43837 8.30922 8.43437C8.30931 8.43447 8.30943 8.43456 8.30953 8.43466C8.2769 8.47725 8.21165 8.48919 8.16106 8.46309C7.94925 8.35397 7.98212 8.11594 7.99534 8.00003C7.968 8.00006 7.94406 8.01616 7.93778 8.03931C7.92678 8.07984 7.90409 8.14819 7.86112 8.22719C7.85765 8.2215 7.85406 8.21591 7.85075 8.21009C7.9025 8.30103 7.97928 8.37778 8.04865 8.43466C8.01603 8.47725 7.95078 8.48919 7.90019 8.46309C7.68837 8.35397 7.72125 8.11591 7.73447 8.00003C7.70712 8.00006 7.68319 8.01616 7.6769 8.03931C7.6659 8.07984 7.64322 8.14819 7.60025 8.22719C7.59678 8.2215 7.59319 8.21591 7.58987 8.21009C7.64162 8.30103 7.7184 8.37778 7.78778 8.43466C7.75515 8.47725 7.68991 8.48919 7.63931 8.46309C7.4275 8.35397 7.46037 8.11594 7.47359 8.00003L7.47369 8C7.44631 8 7.42231 8.01609 7.41603 8.03931C7.40081 8.09541 7.36316 8.20478 7.28012 8.32209C7.22503 8.4 7.13475 8.44575 7.03931 8.44575H6.96094V8.54475H8.9904H9.03987V8.44575H9.011Z" fill="#73AF00"/>
<path d="M8.08594 8.1582C8.08897 8.16527 8.0925 8.17208 8.09584 8.17895C8.0925 8.17208 8.08894 8.16523 8.08594 8.1582Z" fill="#73AF00"/>
<path d="M8.06641 8.10352C8.06816 8.10983 8.07069 8.11586 8.07275 8.12208C8.07066 8.11586 8.06816 8.10983 8.06641 8.10352Z" fill="#73AF00"/>
<path d="M8.05444 8.04633V8.04627C8.05281 8.03327 8.04569 8.02186 8.03516 8.01367C8.04563 8.02186 8.05281 8.03327 8.05444 8.04627V8.04633Z" fill="#73AF00"/>
<path d="M8.1123 8.21094C8.11627 8.21791 8.12049 8.22462 8.12471 8.23141C8.12049 8.22462 8.11627 8.21788 8.1123 8.21094Z" fill="#73AF00"/>
<path d="M8.15752 8.27892C8.15699 8.27827 8.15655 8.27758 8.15605 8.27689C8.1603 8.27123 8.16437 8.26555 8.16846 8.25977C8.1644 8.26552 8.16021 8.2712 8.15599 8.27683C8.15174 8.2712 8.14759 8.26555 8.14355 8.25977C8.14812 8.26623 8.15274 8.27258 8.15752 8.27892Z" fill="#73AF00"/>
<path d="M8.17871 8.30664C8.18352 8.31242 8.18834 8.3182 8.19327 8.32377C8.18834 8.3182 8.18352 8.31242 8.17871 8.30664Z" fill="#73AF00"/>
<path d="M8.23244 8.36386C8.22781 8.35923 8.22331 8.35439 8.21875 8.34961C8.22334 8.35442 8.22781 8.35923 8.23244 8.36386Z" fill="#73AF00"/>
<path d="M8.57582 8.00006L8.57573 8.00003C8.5607 8.00003 8.54682 8.00494 8.53632 8.01309C8.52585 8.02128 8.51866 8.03269 8.51704 8.04569V8.04575C8.5146 8.06528 8.51045 8.08431 8.50523 8.10303C8.50348 8.10934 8.50095 8.11537 8.49888 8.12159C8.49485 8.13384 8.4907 8.14603 8.48563 8.15787C8.4826 8.16494 8.47907 8.17175 8.47573 8.17862C8.4706 8.18925 8.46535 8.19984 8.45951 8.21009C8.41351 8.29091 8.34795 8.36003 8.28513 8.4144C8.27342 8.40428 8.26173 8.39362 8.24991 8.38241C8.34804 8.262 8.32545 8.09234 8.31495 8.00003L8.31485 8C8.30732 8 8.3001 8.00125 8.29345 8.00347C8.28679 8.00572 8.2807 8.009 8.27545 8.01306C8.26498 8.02125 8.25779 8.03266 8.25617 8.04566V8.04572C8.25373 8.06525 8.24957 8.08428 8.24432 8.103C8.24257 8.10931 8.24004 8.11534 8.23798 8.12156C8.23395 8.13381 8.22979 8.146 8.22473 8.15784C8.2217 8.16491 8.21817 8.17172 8.21482 8.17859C8.2097 8.18922 8.20445 8.19981 8.1986 8.21006C8.19463 8.21703 8.19041 8.22375 8.1862 8.23053C8.18007 8.24034 8.17379 8.25006 8.16713 8.2595C8.16307 8.26528 8.15895 8.27103 8.15473 8.27662C8.15048 8.27097 8.14629 8.26528 8.1422 8.2595C8.13554 8.25006 8.12926 8.24037 8.12313 8.23053C8.11888 8.22375 8.1147 8.217 8.11073 8.21006C8.10485 8.19978 8.09967 8.18919 8.09451 8.17859C8.09117 8.17169 8.08763 8.16491 8.0846 8.15784C8.07954 8.14603 8.07538 8.13381 8.07135 8.12156C8.06929 8.11534 8.06679 8.10931 8.06501 8.103C8.05976 8.08431 8.05563 8.06525 8.0532 8.04572V8.04566C8.05157 8.03266 8.04445 8.02125 8.03392 8.01306C8.02345 8.00487 8.00957 8 7.99454 8L7.99445 8.00003C7.98126 8.11594 7.94835 8.35397 8.16016 8.46309C8.19588 8.4815 8.23876 8.48078 8.27238 8.46384C8.29385 8.45303 8.31691 8.44578 8.34095 8.44578H8.43926C8.61826 8.33053 8.58838 8.11022 8.57582 8.00006Z" fill="#F8CB32"/>
<path d="M7.80469 8.10352C7.80644 8.10983 7.80897 8.11586 7.81103 8.12208C7.80897 8.11586 7.80647 8.10983 7.80469 8.10352Z" fill="#73AF00"/>
<path d="M7.79272 8.04633V8.04627C7.79109 8.03327 7.78397 8.02186 7.77344 8.01367C7.78391 8.02186 7.79109 8.03327 7.79272 8.04627V8.04633Z" fill="#73AF00"/>
<path d="M7.82422 8.1582C7.82725 8.16527 7.83078 8.17208 7.83412 8.17895C7.83075 8.17208 7.82725 8.16523 7.82422 8.1582Z" fill="#73AF00"/>
<path d="M7.73438 8C7.74191 8 7.74912 8.00125 7.75578 8.00347C7.74909 8.00122 7.74187 8 7.73438 8Z" fill="#73AF00"/>
<path d="M7.89943 8.46306C7.95006 8.48912 8.01531 8.47719 8.0479 8.43462C7.97853 8.37775 7.90178 8.30103 7.85 8.21006C7.84412 8.19978 7.83893 8.18919 7.83378 8.17859C7.83043 8.17169 7.8269 8.16491 7.82387 8.15784C7.81881 8.14603 7.81465 8.13381 7.81062 8.12156C7.80856 8.11534 7.80606 8.10931 7.80428 8.103C7.79903 8.08431 7.7949 8.06525 7.79246 8.04572V8.04566C7.79084 8.03266 7.78371 8.02125 7.77318 8.01306C7.76793 8.009 7.76184 8.00572 7.75518 8.00347C7.74853 8.00122 7.74131 8 7.73378 8L7.73368 8.00003C7.72053 8.11591 7.68762 8.35391 7.89943 8.46306Z" fill="#F8CB32"/>
<path d="M7.54395 8.10352C7.5457 8.10983 7.54823 8.11586 7.55029 8.12208C7.54823 8.11586 7.54573 8.10983 7.54395 8.10352Z" fill="#73AF00"/>
<path d="M7.56348 8.1582C7.56651 8.16527 7.57004 8.17208 7.57338 8.17895C7.57004 8.17208 7.56648 8.16523 7.56348 8.1582Z" fill="#73AF00"/>
<path d="M7.53198 8.04633V8.04627C7.53035 8.03327 7.52323 8.02186 7.5127 8.01367C7.52316 8.02186 7.53035 8.03327 7.53198 8.04627V8.04633Z" fill="#73AF00"/>
<path d="M7.63872 8.46306C7.68934 8.48912 7.75459 8.47719 7.78719 8.43462C7.71781 8.37775 7.64106 8.30103 7.58928 8.21006C7.5834 8.19978 7.57822 8.18919 7.57306 8.17859C7.56972 8.17169 7.56619 8.16491 7.56315 8.15784C7.55809 8.14603 7.55394 8.13381 7.54991 8.12156C7.54784 8.11534 7.54534 8.10931 7.54356 8.103C7.53831 8.08431 7.53419 8.06525 7.53175 8.04572V8.04566C7.53012 8.03266 7.523 8.02125 7.51247 8.01306C7.502 8.00487 7.48812 8 7.47306 8L7.47297 8.00003C7.45978 8.11591 7.42684 8.35391 7.63872 8.46306Z" fill="#F8CB32"/>
<path d="M7.58266 7.6073C7.57856 7.62308 7.57441 7.63889 7.57031 7.65467C7.70544 7.61414 7.85456 7.5898 8.01637 7.5898C8.17819 7.58989 8.32731 7.61405 8.46244 7.65467C8.45834 7.63889 8.45419 7.62308 8.45009 7.6073C8.31569 7.57261 8.17103 7.55267 8.01637 7.55273C7.86175 7.5527 7.71709 7.57261 7.58266 7.6073Z" fill="#41479B"/>
<path d="M7.58852 7.586C7.58442 7.60178 7.58027 7.61759 7.57617 7.63337C7.7098 7.59275 7.85711 7.56837 8.01686 7.56831C8.17664 7.56837 8.32392 7.59272 8.45755 7.63337C8.45345 7.61759 8.4493 7.60178 8.4452 7.586C8.3123 7.55106 8.16948 7.53128 8.01686 7.53125C7.8642 7.53128 7.72142 7.55116 7.58852 7.586Z" fill="#5AA0E6"/>
<path d="M7.5934 7.56669C7.5893 7.58247 7.58515 7.59828 7.58105 7.61406C7.71337 7.57331 7.85893 7.54875 8.01677 7.54881C8.17468 7.54881 8.32021 7.57328 8.45249 7.61406C8.4484 7.59828 8.44424 7.58247 8.44015 7.56669C8.30868 7.53175 8.16755 7.51172 8.01677 7.51172C7.86599 7.51169 7.7249 7.53175 7.5934 7.56669Z" fill="#9BC800"/>
<path d="M7.59926 7.54542C7.59516 7.5612 7.59101 7.57702 7.58691 7.5928C7.71766 7.55189 7.86129 7.52733 8.01698 7.52733C8.17266 7.52739 8.31629 7.55189 8.44704 7.5928C8.44294 7.57702 8.43879 7.5612 8.43469 7.54542C8.30476 7.51036 8.16566 7.4903 8.01698 7.49023C7.86829 7.49027 7.72916 7.51036 7.59926 7.54542Z" fill="#FFE14E"/>
<path d="M7.60414 7.52413C7.60005 7.53991 7.59589 7.55572 7.5918 7.5715C7.72105 7.5305 7.86267 7.50584 8.01626 7.50581C8.16986 7.50591 8.31151 7.53044 8.44073 7.5715C8.43664 7.55572 8.43248 7.53991 8.42839 7.52413C8.30008 7.489 8.16286 7.46875 8.01626 7.46875C7.86967 7.46881 7.73248 7.48891 7.60414 7.52413Z" fill="#FFB14E"/>
<path d="M7.60729 7.51445C7.60438 7.52552 7.60154 7.53655 7.59863 7.54764C7.72619 7.50658 7.86582 7.48167 8.01704 7.4817C8.16832 7.48164 8.30791 7.50648 8.43544 7.54764C8.43254 7.53658 8.42969 7.52555 8.42679 7.51445C8.29913 7.47923 8.16273 7.45902 8.01701 7.45898C7.87135 7.45889 7.73498 7.4792 7.60729 7.51445Z" fill="#FF334B"/>
<path d="M9.38592 9.08862H6.61395C6.59567 9.08862 6.57892 9.07856 6.5703 9.06253C6.56167 9.0464 6.56267 9.02684 6.57277 9.01165L7.95876 6.93269C7.97714 6.90525 8.02276 6.90525 8.04114 6.93269L9.42714 9.01165C9.43723 9.02684 9.4382 9.04637 9.42957 9.06253C9.42095 9.07859 9.4042 9.08862 9.38592 9.08862ZM6.70639 8.98962H9.29342L7.99992 7.04941L6.70639 8.98962Z" fill="#F8CB32"/>
<path d="M8.09416 7.7992C8.09416 7.75564 8.05003 7.68945 7.97937 7.68945C7.93809 7.68945 7.90462 7.7147 7.90462 7.7458C7.90462 7.76136 7.91297 7.77539 7.92644 7.78558C7.92637 7.78614 7.92634 7.78677 7.92631 7.7873C7.90944 7.79764 7.89844 7.8132 7.89844 7.83086C7.89844 7.86055 7.92903 7.88461 7.96769 7.8868L7.9995 7.95042L8.02822 7.89298C8.06594 7.88339 8.09416 7.84514 8.09416 7.7992Z" fill="#FF334B"/>
</g>
<defs>
<clipPath id="clip0_5367_190174">
<rect x="1" y="1" width="14" height="14" rx="2" fill="white"/>
</clipPath>
</defs>
</svg>
