<svg width="16" height="16" viewBox="0 0 16 16" fill="none" xmlns="http://www.w3.org/2000/svg">
<g clip-path="url(#clip0_5367_190155)">
<rect x="1" y="1" width="14" height="14" rx="2" fill="#41479B"/>
<path d="M16 7.09375H0V8.90778H16V7.09375Z" fill="#F8CB32"/>
<path d="M4.3669 9.8457L4.63492 10.9166L5.4024 10.1232L5.09913 11.1845L6.16044 10.8812L5.36715 11.6488L6.4379 11.9167L5.36715 12.1847L6.16044 12.9522L5.09913 12.6489L5.4024 13.7103L4.63492 12.917L4.3669 13.9878L4.09887 12.917L3.3314 13.7103L3.63472 12.6489L2.57336 12.9522L3.36669 12.1847L2.2959 11.9167L3.36669 11.6488L2.57336 10.8812L3.63472 11.1845L3.3314 10.1232L4.09887 10.9166L4.3669 9.8457Z" fill="white"/>
</g>
<defs>
<clipPath id="clip0_5367_190155">
<rect x="1" y="1" width="14" height="14" rx="2" fill="white"/>
</clipPath>
</defs>
</svg>
