<svg width="16" height="16" viewBox="0 0 16 16" fill="none" xmlns="http://www.w3.org/2000/svg">
<rect x="15" y="1" width="14" height="14" rx="2" transform="rotate(90 15 1)" fill="#F8CB32"/>
<path d="M9.75168 6.93865H1.31258C1.13996 6.93865 1 6.79868 1 6.62607V1.31258C1 1.13996 1.13996 1 1.31258 1H9.75168C9.92429 1 10.0643 1.13996 10.0643 1.31258V6.62611C10.0642 6.79875 9.92433 6.93865 9.75168 6.93865Z" fill="#41479B"/>
<path d="M9.75168 1H9.20878L6.31353 2.89687V1H4.75073V2.89687L1.85547 1H1.31258C1.13996 1 1 1.13996 1 1.31258V1.5605L3.484 3.18792H1V4.75073H3.484L1 6.37819V6.62607C1 6.79868 1.13996 6.93865 1.31258 6.93865H1.85547L4.75073 5.04178V6.93865H6.31353V5.04178L9.20875 6.93865H9.75165C9.92426 6.93865 10.0642 6.79868 10.0642 6.62607V6.37815L7.58026 4.75073H10.0642V3.18792H7.58023L10.0642 1.5605V1.31258C10.0642 1.13996 9.92433 1 9.75168 1Z" fill="white"/>
<path d="M10.0642 3.5005H6.00096V1H5.06327V3.5005H1V4.43815H5.06327V6.93865H6.00096V4.43815H10.0642V3.5005Z" fill="#FF334B"/>
<path d="M4.43815 3.18783L1.14896 1.05273C1.06143 1.10815 1 1.2012 1 1.31248V1.3287L3.86406 3.18783H4.43815Z" fill="#FF334B"/>
<path d="M6.88757 3.18792L10.0167 1.15675C9.96227 1.06472 9.86631 1 9.75163 1H9.68404L6.31348 3.18792H6.88757Z" fill="#FF334B"/>
<path d="M4.16802 4.75L1.04492 6.77728C1.09878 6.87153 1.19622 6.93792 1.31257 6.93792H1.37152L4.74211 4.75H4.16802Z" fill="#FF334B"/>
<path d="M10.0596 6.64992L7.13265 4.75H6.55859L9.88238 6.90751C9.98198 6.8613 10.0502 6.76446 10.0596 6.64992Z" fill="#FF334B"/>
<path d="M5.53193 4.90663C6.0498 4.90663 6.46962 4.48681 6.46962 3.96894C6.46962 3.45107 6.0498 3.03125 5.53193 3.03125C5.01406 3.03125 4.59424 3.45107 4.59424 3.96894C4.59424 4.48681 5.01406 4.90663 5.53193 4.90663Z" fill="#41479B"/>
<path d="M5.59519 3.20968L5.75187 3.6794L6.247 3.68322C6.31113 3.68372 6.33768 3.76554 6.28613 3.80361L5.8878 4.09773L6.03714 4.56982C6.05648 4.63093 5.9869 4.68149 5.93475 4.64421L5.53192 4.35631L5.12909 4.64421C5.07693 4.68149 5.00736 4.63093 5.02669 4.56982L5.17604 4.09773L4.77771 3.80361C4.72612 3.76551 4.75271 3.68372 4.81683 3.68322L5.31197 3.6794L5.46865 3.20968C5.4889 3.14886 5.57494 3.14886 5.59519 3.20968Z" fill="#F8CB32"/>
<path d="M3.00042 3.59092L3.08466 3.84348L3.35088 3.84553C3.38534 3.84581 3.39964 3.88979 3.37192 3.91025L3.15777 4.06842L3.23808 4.32222C3.24849 4.35508 3.21103 4.38227 3.18302 4.36223L2.96647 4.20743L2.74992 4.36223C2.72187 4.38227 2.68448 4.35508 2.69486 4.32222L2.77516 4.06842L2.56102 3.91025C2.5333 3.88979 2.54757 3.84578 2.58205 3.84553L2.84828 3.84348L2.93251 3.59092C2.94331 3.55824 2.98952 3.55824 3.00042 3.59092Z" fill="#F8CB32"/>
<path d="M8.15521 3.59092L8.23944 3.84348L8.50567 3.84553C8.54012 3.84581 8.55443 3.88979 8.5267 3.91025L8.31256 4.06842L8.39286 4.32222C8.40327 4.35508 8.36581 4.38227 8.3378 4.36223L8.12125 4.20743L7.9047 4.36223C7.87666 4.38227 7.83927 4.35508 7.84964 4.32222L7.92995 4.06842L7.7158 3.91025C7.68808 3.88979 7.70235 3.84578 7.73684 3.84553L8.00306 3.84348L8.0873 3.59092C8.0981 3.55824 8.1443 3.55824 8.15521 3.59092Z" fill="#F8CB32"/>
<path d="M5.5698 1.69444L5.65403 1.947L5.92026 1.94905C5.95471 1.94933 5.96901 1.99331 5.94129 2.01378L5.72711 2.1719L5.80741 2.4257C5.81782 2.45856 5.78036 2.48575 5.75235 2.46571L5.5358 2.31091L5.31925 2.46571C5.29121 2.48575 5.25382 2.45856 5.2642 2.4257L5.3445 2.1719L5.13036 2.01374C5.10263 1.99327 5.1169 1.94926 5.15139 1.94902L5.41761 1.94696L5.50185 1.6944C5.51265 1.66176 5.55893 1.66176 5.5698 1.69444Z" fill="#F8CB32"/>
<path d="M5.5698 5.53428L5.65403 5.78684L5.92026 5.78889C5.95471 5.78918 5.96901 5.83315 5.94129 5.85362L5.72711 6.01175L5.80741 6.26555C5.81782 6.2984 5.78036 6.3256 5.75235 6.30556L5.5358 6.15076L5.31925 6.30556C5.29121 6.3256 5.25382 6.2984 5.2642 6.26555L5.3445 6.01175L5.13036 5.85358C5.10263 5.83312 5.1169 5.78911 5.15139 5.78886L5.41761 5.7868L5.50185 5.53425C5.51265 5.5016 5.55893 5.5016 5.5698 5.53428Z" fill="#F8CB32"/>
</svg>
