<svg width="16" height="16" viewBox="0 0 16 16" fill="none" xmlns="http://www.w3.org/2000/svg">
<g clip-path="url(#clip0_5367_190118)">
<rect x="1" y="1" width="14" height="14" rx="2" fill="#41479B"/>
<path d="M10.9802 13.003C10.969 13.003 10.9577 12.9994 10.9482 12.9927L10.6217 12.7594L10.2951 12.9927C10.2856 12.9994 10.2742 13.003 10.2631 13.003C10.2516 13.003 10.2403 12.9994 10.2306 12.9924C10.2115 12.9784 10.2033 12.9537 10.2104 12.931L10.3315 12.5485L10.0088 12.3103C9.98965 12.2961 9.98172 12.2716 9.989 12.2489C9.99641 12.2263 10.0173 12.2109 10.0411 12.2107L10.4424 12.2074L10.5693 11.8268C10.5769 11.8044 10.598 11.7891 10.6217 11.7891C10.6454 11.7891 10.6666 11.8044 10.6741 11.8268L10.801 12.2074L11.2023 12.2107C11.2262 12.211 11.247 12.2263 11.2544 12.2489C11.2617 12.2716 11.2537 12.2961 11.2347 12.3103L10.9119 12.5485L11.033 12.931C11.0402 12.9537 11.032 12.9784 11.0128 12.9924C11.003 12.9994 10.9916 13.003 10.9802 13.003Z" fill="#FF334B"/>
<path d="M10.6211 11.8447L10.7605 12.2628L11.2012 12.2662L10.8467 12.528L10.9796 12.9481L10.6211 12.6919L10.2626 12.9482L10.3955 12.528L10.041 12.2662L10.4817 12.2628L10.6211 11.8447ZM10.6211 11.7344C10.5737 11.7344 10.5315 11.7647 10.5164 11.8098L10.402 12.1531L10.0402 12.1559C9.9927 12.1562 9.95076 12.1869 9.93607 12.2321C9.92139 12.2773 9.93729 12.3268 9.97545 12.355L10.2665 12.5699L10.1574 12.9149C10.1431 12.9602 10.1593 13.0096 10.1977 13.0375C10.2171 13.0515 10.2398 13.0585 10.2626 13.0585C10.2851 13.0585 10.3076 13.0517 10.3268 13.0379L10.6212 12.8275L10.9155 13.0379C10.9348 13.0516 10.9572 13.0585 10.9797 13.0585C11.0024 13.0585 11.0252 13.0515 11.0446 13.0375C11.083 13.0095 11.0992 12.9602 11.0849 12.9149L10.9758 12.5699L11.2669 12.355C11.3051 12.3268 11.3209 12.2773 11.3062 12.2321C11.2915 12.187 11.2496 12.1562 11.2021 12.1559L10.8403 12.1531L10.7259 11.8098C10.7108 11.7648 10.6686 11.7344 10.6211 11.7344Z" fill="white"/>
<path d="M10.9802 8.55567C10.9689 8.55567 10.9577 8.55214 10.9482 8.54542L10.6217 8.31189L10.2951 8.54545C10.2856 8.55217 10.2742 8.5557 10.2631 8.5557C10.2517 8.5557 10.2403 8.55217 10.2306 8.54517C10.2115 8.53117 10.2033 8.50639 10.2104 8.48376L10.3315 8.1012L10.0088 7.8628C9.98965 7.84851 9.98172 7.82373 9.989 7.80139C9.99641 7.77876 10.0174 7.76339 10.0411 7.76314L10.4424 7.76017L10.5693 7.37952C10.5769 7.35717 10.598 7.3418 10.6217 7.3418C10.6454 7.3418 10.6666 7.35714 10.6741 7.37952L10.801 7.76017L11.2023 7.76314C11.226 7.76342 11.247 7.77876 11.2544 7.80139C11.2617 7.82373 11.2537 7.84851 11.2347 7.8628L10.9119 8.1012L11.033 8.48376C11.0402 8.50639 11.032 8.53117 11.0128 8.54517C11.003 8.55217 10.9916 8.55567 10.9802 8.55567Z" fill="#FF334B"/>
<path d="M10.6211 7.39745L10.7605 7.81551L11.2012 7.81892L10.8467 8.0807L10.9796 8.50089L10.6211 8.24461L10.2626 8.50089L10.3955 8.0807L10.041 7.81892L10.4817 7.81551L10.6211 7.39745ZM10.6211 7.28711C10.5737 7.28711 10.5315 7.31748 10.5164 7.36255L10.402 7.7058L10.0402 7.70861C9.9927 7.70895 9.95076 7.73967 9.93607 7.78486C9.92139 7.83005 9.93729 7.87951 9.97545 7.90773L10.2665 8.12267L10.1574 8.46764C10.1431 8.51292 10.1593 8.56229 10.1977 8.5902C10.2171 8.60423 10.2398 8.61126 10.2626 8.61126C10.2851 8.61126 10.3076 8.60439 10.3268 8.59067L10.6212 8.38026L10.9155 8.59067C10.9348 8.60436 10.9572 8.61126 10.9797 8.61126C11.0024 8.61126 11.0252 8.60423 11.0446 8.5902C11.083 8.56226 11.0992 8.51292 11.0849 8.46764L10.9758 8.12267L11.2669 7.90773C11.3051 7.87951 11.3209 7.83005 11.3062 7.78486C11.2915 7.73967 11.2496 7.70895 11.2021 7.70861L10.8403 7.7058L10.7259 7.36255C10.7108 7.31748 10.6686 7.28711 10.6211 7.28711Z" fill="white"/>
<path d="M12.9108 9.93461C12.8995 9.93461 12.8884 9.93107 12.8788 9.92436L12.5523 9.69079L12.2258 9.92436C12.2162 9.93107 12.2049 9.93461 12.1937 9.93461C12.1824 9.93461 12.171 9.93107 12.1613 9.92407C12.1422 9.91007 12.1339 9.88529 12.1411 9.86267L12.2622 9.48011L11.9394 9.2417C11.9203 9.22742 11.9124 9.20264 11.9197 9.1803C11.9271 9.15767 11.9481 9.1423 11.9718 9.14205L12.3731 9.13908L12.5 8.75842C12.5075 8.73608 12.5287 8.7207 12.5524 8.7207C12.5761 8.7207 12.5973 8.73605 12.6048 8.75842L12.7317 9.13908L13.133 9.14205C13.1567 9.14233 13.1777 9.15767 13.1851 9.1803C13.1924 9.20264 13.1844 9.22742 13.1653 9.2417L12.8426 9.48011L12.9637 9.86267C12.9708 9.88529 12.9626 9.91007 12.9435 9.92407C12.9336 9.93107 12.9222 9.93461 12.9108 9.93461Z" fill="#FF334B"/>
<path d="M12.5528 8.77636L12.6922 9.19442L13.1329 9.19783L12.7783 9.45961L12.9113 9.87979L12.5527 9.62351L12.1942 9.87979L12.3272 9.45964L11.9726 9.19786L12.4133 9.19445L12.5528 8.77636ZM12.5528 8.66602C12.5053 8.66602 12.4631 8.69639 12.4481 8.74145L12.3336 9.0847L11.9718 9.08752C11.9243 9.08786 11.8824 9.11858 11.8677 9.16376C11.853 9.20895 11.8689 9.25842 11.9071 9.28664L12.1982 9.50158L12.089 9.84654C12.0747 9.89183 12.091 9.9412 12.1294 9.96911C12.1487 9.98314 12.1715 9.99017 12.1942 9.99017C12.2167 9.99017 12.2392 9.98329 12.2584 9.96958L12.5528 9.75917L12.8472 9.96958C12.8664 9.98326 12.8888 9.99017 12.9113 9.99017C12.9341 9.99017 12.9569 9.98314 12.9762 9.96911C13.0146 9.94117 13.0309 9.89183 13.0166 9.84654L12.9074 9.50158L13.1985 9.28664C13.2367 9.25842 13.2526 9.20895 13.2379 9.16376C13.2232 9.11858 13.1813 9.08786 13.1338 9.08752L12.772 9.0847L12.6575 8.74145C12.6424 8.69639 12.6003 8.66602 12.5528 8.66602Z" fill="white"/>
<path d="M9.04952 10.4873C9.03821 10.4873 9.02705 10.4838 9.01746 10.4771L8.69099 10.2435L8.36446 10.4771C8.3549 10.4838 8.34358 10.4873 8.3324 10.4873C8.32108 10.4873 8.30965 10.4838 8.29996 10.4768C8.28083 10.4628 8.27262 10.438 8.27974 10.4154L8.40083 10.0328L8.07812 9.79444C8.05899 9.78016 8.05105 9.75537 8.05833 9.73303C8.06574 9.71041 8.08674 9.69503 8.11046 9.69478L8.51174 9.69181L8.63865 9.31116C8.64621 9.28881 8.66733 9.27344 8.69105 9.27344C8.71477 9.27344 8.73593 9.28878 8.74346 9.31116L8.87036 9.69181L9.27164 9.69478C9.29536 9.69506 9.31636 9.71041 9.32377 9.73303C9.33105 9.75537 9.32308 9.78016 9.30399 9.79444L8.98127 10.0328L9.10236 10.4154C9.10949 10.438 9.1013 10.4628 9.08215 10.4768C9.0723 10.4838 9.06086 10.4873 9.04952 10.4873Z" fill="#FF334B"/>
<path d="M8.69047 9.32909L8.82988 9.74716L9.27056 9.75056L8.91603 10.0123L9.04897 10.4325L8.69044 10.1762L8.33191 10.4325L8.46485 10.0123L8.11032 9.75056L8.551 9.74716L8.69047 9.32909ZM8.69047 9.21875C8.643 9.21875 8.60081 9.24913 8.58578 9.29419L8.47131 9.63744L8.1095 9.64025C8.06203 9.64059 8.0201 9.67131 8.00541 9.7165C7.99072 9.76169 8.00663 9.81116 8.04479 9.83937L8.33585 10.0543L8.22672 10.3993C8.21241 10.4446 8.22866 10.4939 8.26706 10.5218C8.28641 10.5359 8.30916 10.5429 8.33194 10.5429C8.35441 10.5429 8.37691 10.536 8.3961 10.5223L8.69047 10.3119L8.98485 10.5223C9.00406 10.536 9.02653 10.5429 9.049 10.5429C9.07175 10.5429 9.09453 10.5359 9.11388 10.5218C9.15228 10.4939 9.16853 10.4446 9.15422 10.3993L9.04509 10.0543L9.33616 9.83937C9.37437 9.81116 9.39022 9.76169 9.37553 9.7165C9.36084 9.67131 9.31894 9.64059 9.27144 9.64025L8.90963 9.63744L8.79516 9.29419C8.78013 9.24913 8.73794 9.21875 8.69047 9.21875Z" fill="white"/>
<g clip-path="url(#clip1_5367_190118)">
<rect width="9.61523" height="6.28688" transform="translate(0.869141 0.839844)" fill="#41479B"/>
<path d="M10.332 0.714844H9.733L6.53885 2.8033V0.714844H4.8147V2.8033L1.62055 0.714844H1.0216C0.831172 0.714844 0.676758 0.868945 0.676758 1.05899V1.33195L3.4172 3.12375H0.676758V4.8444H3.4172L0.676758 6.63624V6.90916C0.676758 7.0992 0.831172 7.25331 1.0216 7.25331H1.62055L4.8147 5.16484V7.25331H6.53885V5.16484L9.73296 7.25331H10.3319C10.5223 7.25331 10.6768 7.0992 10.6768 6.90916V6.6362L7.93636 4.8444H10.6768V3.12375H7.93632L10.6768 1.33195V1.05899C10.6768 0.868945 10.5224 0.714844 10.332 0.714844Z" fill="white"/>
<path d="M10.6768 3.46789H6.19401V0.714844H5.15951V3.46789H0.676758V4.50025H5.15951V7.25331H6.19401V4.50025H10.6768V3.46789Z" fill="#FF334B"/>
<path d="M4.81738 3.11059L0.856151 0.714844C0.750741 0.777021 0.676758 0.881431 0.676758 1.0063V1.0245L4.12599 3.11059H4.81738Z" fill="#FF334B"/>
<path d="M7.17608 3.11059L10.6428 0.886481C10.5826 0.785716 10.4763 0.714844 10.3492 0.714844H10.2743L6.54004 3.11059H7.17608Z" fill="#FF334B"/>
<path d="M4.18202 4.84961L0.725586 7.07591C0.785188 7.17942 0.893029 7.25233 1.0218 7.25233H1.08704L4.81738 4.84961H4.18202Z" fill="#FF334B"/>
<path d="M10.6772 6.93504L7.4617 4.84961H6.83105L10.4825 7.21777C10.5919 7.16706 10.6669 7.06076 10.6772 6.93504Z" fill="#FF334B"/>
</g>
</g>
<defs>
<clipPath id="clip0_5367_190118">
<rect x="1" y="1" width="14" height="14" rx="2" fill="white"/>
</clipPath>
<clipPath id="clip1_5367_190118">
<rect width="9.61523" height="6.28688" fill="white" transform="translate(0.869141 0.839844)"/>
</clipPath>
</defs>
</svg>
