<svg width="16" height="16" viewBox="0 0 16 16" fill="none" xmlns="http://www.w3.org/2000/svg">
<g clip-path="url(#clip0_5367_190078)">
<rect x="1" y="1" width="14" height="14" rx="2" fill="white"/>
<path d="M8.0957 8H14.8543C14.9876 8 15.0957 7.83502 15.0957 7.63156V1.36844C15.0957 1.16498 14.9876 1 14.8543 1H8.33709C8.20379 1 8.0957 1.16498 8.0957 1.36844V8V8Z" fill="#FF334B"/>
<path d="M1.24139 15H7.75861C7.89191 15 8 14.835 8 14.6316V8H1.24139C1.10809 8 1 8.16498 1 8.36844V14.6316C1 14.8351 1.10809 15 1.24139 15Z" fill="#4173CD"/>
<path d="M4.60612 3.32266L4.86911 4.11122L5.70036 4.11766C5.80799 4.11847 5.85261 4.25585 5.76602 4.31975L5.09733 4.81353L5.34805 5.60609C5.38049 5.70872 5.26368 5.79356 5.17611 5.731L4.49987 5.24766L3.82359 5.73103C3.73602 5.79362 3.61921 5.70872 3.65165 5.60612L3.90237 4.81356L3.23368 4.31978C3.14709 4.25585 3.19171 4.1185 3.29934 4.11769L4.13059 4.11125L4.39358 3.32269C4.42765 3.22057 4.57208 3.22057 4.60612 3.32266Z" fill="#4173CD"/>
<path d="M11.7018 10.3227L11.9648 11.1112L12.7961 11.1177C12.9037 11.1185 12.9483 11.2558 12.8617 11.3198L12.193 11.8135L12.4438 12.6061C12.4762 12.7087 12.3594 12.7936 12.2718 12.731L11.5956 12.2477L10.9193 12.731C10.8317 12.7936 10.7149 12.7087 10.7474 12.6061L10.9981 11.8136L10.3294 11.3198C10.2428 11.2558 10.2874 11.1185 10.395 11.1177L11.2263 11.1113L11.4893 10.3227C11.5234 10.2206 11.6678 10.2206 11.7018 10.3227Z" fill="#FF334B"/>
</g>
<defs>
<clipPath id="clip0_5367_190078">
<rect x="1" y="1" width="14" height="14" rx="2" fill="white"/>
</clipPath>
</defs>
</svg>
