<svg width="16" height="16" viewBox="0 0 16 16" fill="none" xmlns="http://www.w3.org/2000/svg">
<g clip-path="url(#clip0_5367_190049)">
<rect x="1" y="15" width="14" height="14" rx="2" transform="rotate(-90 1 15)" fill="#FF334B"/>
<path d="M15 4.43164H1V11.5691H15V4.43164Z" fill="white"/>
<path d="M9.81834 7.29631L8.06722 8.01109C8.06654 8.00931 8.06569 8.00772 8.06488 8.00603L9.75606 7.15906C9.68919 7.02559 9.60797 6.90059 9.51372 6.78659L8.05569 7.99237C8.05425 7.99056 8.05341 7.98825 8.05175 7.98656L9.38831 6.64866C9.29297 6.55328 9.18756 6.46806 9.07431 6.39387L8.03953 7.97781C8.03719 7.97622 8.0351 7.9744 8.03253 7.97309L8.878 6.28087C8.74222 6.21284 8.59747 6.16022 8.44597 6.125L8.01632 7.96768C8.01088 7.96637 8.00566 7.96434 7.99975 7.96434C7.99385 7.96434 7.98869 7.96637 7.98319 7.96768L7.55354 6.125C7.40201 6.16022 7.25729 6.21281 7.12151 6.28087L7.96697 7.97309C7.96444 7.9744 7.96232 7.97622 7.95997 7.97781L6.92519 6.39387C6.81191 6.46809 6.70654 6.55331 6.61119 6.64866L7.94775 7.98656C7.94613 7.98825 7.94532 7.99053 7.94382 7.99237L6.48579 6.78659C6.39154 6.90056 6.31032 7.02559 6.24344 7.15906L7.93463 8.00603C7.93382 8.00775 7.93297 8.00934 7.93229 8.01109L6.18116 7.29631C6.12838 7.42575 6.08913 7.56209 6.06488 7.70365L7.92919 8.02643C7.92894 8.02806 7.92838 8.02953 7.92822 8.03118L6.04641 7.83515C6.03963 7.90156 6.03613 7.9689 6.03613 8.03712C6.03613 8.15506 6.0471 8.27034 6.06704 8.3825L7.99972 8.18256L9.93244 8.3825C9.95237 8.27028 9.96334 8.15503 9.96334 8.03712C9.96334 7.9689 9.95981 7.90156 9.95306 7.83515L8.07122 8.03118C8.0711 8.02953 8.0705 8.02806 8.07025 8.02643L9.93453 7.70365C9.91037 7.56212 9.87109 7.42578 9.81834 7.29631Z" fill="#FFB955"/>
<path d="M6.10254 8.54149C6.11601 8.59227 6.13157 8.6422 6.14891 8.69127H9.85184C9.86919 8.6422 9.88475 8.59227 9.89822 8.54149C9.71681 8.51805 9.69428 8.40039 9.47328 8.40039C9.22794 8.40039 9.22794 8.54583 8.98256 8.54583C8.73722 8.54583 8.73722 8.40039 8.49185 8.40039C8.24644 8.40039 8.24644 8.54583 8.00097 8.54583C7.75569 8.54583 7.75569 8.40039 7.51038 8.40039C7.26485 8.40039 7.26485 8.54583 7.01938 8.54583C6.77372 8.54583 6.77373 8.40039 6.52804 8.40039C6.30676 8.40039 6.28426 8.51808 6.10254 8.54149Z" fill="#4173CD"/>
<path d="M9.41558 8.90911C9.17939 8.90908 9.17936 8.76367 8.94314 8.76367C8.70686 8.76367 8.70686 8.90911 8.47058 8.90911C8.2343 8.90911 8.2343 8.76367 7.99802 8.76367C7.76168 8.76367 7.76168 8.90911 7.52536 8.90911C7.28915 8.90911 7.28915 8.76367 7.05296 8.76367C6.81655 8.76367 6.81655 8.90911 6.58015 8.90911C6.3704 8.90911 6.34627 8.79498 6.17871 8.76905C6.21871 8.86842 6.26612 8.96401 6.32115 9.05458H9.41549H9.41567H9.67992C9.73505 8.96383 9.78258 8.86798 9.82264 8.76833C9.65005 8.79261 9.62752 8.90911 9.41558 8.90911Z" fill="#4173CD"/>
<path d="M9.60305 9.16967C9.55733 9.1457 9.50318 9.12695 9.41858 9.12695C9.1823 9.12695 9.1823 9.27239 8.94602 9.27239C8.70974 9.27239 8.70974 9.12695 8.47346 9.12695C8.23711 9.12695 8.23711 9.27239 8.0008 9.27239C7.76458 9.27239 7.76458 9.12695 7.5284 9.12695C7.29199 9.12695 7.29199 9.27239 7.05558 9.27239C6.81899 9.27239 6.81899 9.12695 6.58246 9.12695C6.49755 9.12695 6.44327 9.14577 6.39746 9.16983C6.46005 9.25811 6.5294 9.3412 6.60537 9.41789H9.39508C9.47105 9.34114 9.54046 9.25802 9.60305 9.16967Z" fill="#4173CD"/>
<path d="M9.2103 9.58356C9.13892 9.54219 9.08152 9.49219 8.94289 9.49219C8.70661 9.49219 8.70661 9.63762 8.47033 9.63762C8.23405 9.63762 8.23405 9.49219 7.99777 9.49219C7.76143 9.49219 7.76143 9.63762 7.52512 9.63762C7.2889 9.63762 7.2889 9.49219 7.05271 9.49219C6.91593 9.49219 6.85818 9.54081 6.78809 9.58187C6.88543 9.65841 6.99012 9.72584 7.10102 9.78312H8.89949C9.00961 9.72625 9.11355 9.65937 9.2103 9.58356Z" fill="#4173CD"/>
<path d="M7.5291 9.85547C7.45166 9.85547 7.39976 9.87116 7.35645 9.89216C7.55838 9.96228 7.77507 10.0009 8.00088 10.0009H8.00126C7.76529 10.0008 7.76523 9.85547 7.5291 9.85547Z" fill="#4173CD"/>
<path d="M8.00195 10.0009C8.22748 10.0007 8.44386 9.96206 8.64551 9.89187C8.60233 9.87106 8.55054 9.85547 8.47351 9.85547C8.23755 9.85547 8.23711 10.0003 8.00195 10.0009Z" fill="#4173CD"/>
<path d="M8.25816 7.78772L7.63591 7.6079C7.60101 7.59781 7.57682 7.56631 7.57635 7.52997C7.57348 7.29956 7.56348 6.48822 7.56348 6.36362C7.56348 6.21819 7.70891 6 7.99985 6H8.22923C8.25094 6 8.25751 6.02956 8.23754 6.03809C8.13248 6.08312 7.99988 6.17697 7.99988 6.36362C7.99988 6.58525 8.21091 6.68025 8.31147 6.71294C8.34254 6.72303 8.36354 6.75156 8.36354 6.78425V7.70856C8.36348 7.7634 8.31088 7.80297 8.25816 7.78772Z" fill="#FF334B"/>
<path d="M7.70906 8.60156C7.73187 8.58775 7.75894 8.61081 7.74865 8.63543C7.68775 8.78165 7.53847 9.0544 7.27231 9.0544C6.90869 9.0544 6.83594 8.7635 6.83594 8.54531V7.00266C6.83594 6.97097 6.86163 6.94531 6.89328 6.94531H6.99675C7.02844 6.94531 7.05409 6.971 7.05409 7.00266V8.47259C7.05419 8.66925 7.46769 8.74772 7.70906 8.60156Z" fill="#FF334B"/>
<path d="M8.25961 8.60156C8.2368 8.58775 8.20974 8.61081 8.22002 8.63543C8.28093 8.78165 8.43021 9.0544 8.69636 9.0544C9.05999 9.0544 9.13274 8.7635 9.13274 8.54531V7.00266C9.13274 6.97097 9.10705 6.94531 9.07539 6.94531H8.97192C8.94024 6.94531 8.91458 6.971 8.91458 7.00266V8.47259C8.91452 8.66925 8.50099 8.74772 8.25961 8.60156Z" fill="#FF334B"/>
<path d="M8.76507 8.36373H7.23529C7.21591 8.36373 7.2002 8.34802 7.2002 8.32864V8.32611C7.2002 8.30673 7.21591 8.29102 7.23529 8.29102H8.76507C8.78444 8.29102 8.80016 8.30673 8.80016 8.32611V8.32864C8.80016 8.34805 8.78444 8.36373 8.76507 8.36373Z" fill="#AA4650"/>
<path d="M7.35471 8.08839L7.43346 7.98339C7.44552 7.96736 7.44224 7.94452 7.42618 7.93245C7.41014 7.92045 7.3873 7.9238 7.37527 7.93977L7.34461 7.98064V7.95239C7.34461 7.9323 7.32833 7.91602 7.30824 7.91602C7.28814 7.91602 7.27186 7.9323 7.27186 7.95239V7.97798L7.24321 7.93977C7.23118 7.92373 7.20839 7.92039 7.1923 7.93245C7.17621 7.94452 7.17296 7.96733 7.18502 7.98339L7.26377 8.08839L7.18502 8.19339C7.17296 8.20942 7.17624 8.23226 7.1923 8.24433C7.19883 8.24923 7.20649 8.25158 7.21405 8.25158C7.22511 8.25158 7.23602 8.24655 7.24314 8.23701L7.30914 8.14898L7.37514 8.23701C7.38227 8.24655 7.39317 8.25158 7.40424 8.25158C7.41183 8.25158 7.41949 8.24923 7.42599 8.24433C7.44208 8.23226 7.44533 8.20945 7.43327 8.19339L7.35471 8.08839Z" fill="#AA4650"/>
<path d="M8.03342 8.08839L8.11217 7.98339C8.12423 7.96736 8.12095 7.94452 8.10489 7.93245C8.08885 7.92045 8.06601 7.9238 8.05398 7.93977L8.02332 7.98064V7.95239C8.02332 7.9323 8.00704 7.91602 7.98695 7.91602C7.96686 7.91602 7.95057 7.9323 7.95057 7.95239V7.97798L7.92192 7.93977C7.90989 7.92373 7.88711 7.92039 7.87101 7.93245C7.85492 7.94452 7.85167 7.96733 7.86373 7.98339L7.94248 8.08839L7.86373 8.19339C7.85167 8.20942 7.85495 8.23226 7.87101 8.24433C7.87754 8.24923 7.8852 8.25158 7.89276 8.25158C7.90382 8.25158 7.91473 8.24655 7.92186 8.23701L7.98786 8.14898L8.05386 8.23701C8.06098 8.24655 8.07189 8.25158 8.08295 8.25158C8.09054 8.25158 8.0982 8.24923 8.1047 8.24433C8.12079 8.23226 8.12404 8.20945 8.11198 8.19339L8.03342 8.08839Z" fill="#AA4650"/>
<path d="M7.69455 8.08839L7.7733 7.98339C7.78536 7.96736 7.78208 7.94452 7.76602 7.93245C7.74999 7.92045 7.72714 7.9238 7.71511 7.93977L7.68446 7.98064V7.95239C7.68446 7.9323 7.66818 7.91602 7.64808 7.91602C7.62799 7.91602 7.61171 7.9323 7.61171 7.95239V7.97798L7.58305 7.93977C7.57102 7.92373 7.54824 7.92039 7.53214 7.93245C7.51605 7.94452 7.5128 7.96733 7.52486 7.98339L7.60361 8.08839L7.52486 8.19339C7.5128 8.20942 7.51608 8.23226 7.53214 8.24433C7.53868 8.24923 7.54633 8.25158 7.55389 8.25158C7.56496 8.25158 7.57586 8.24655 7.58299 8.23701L7.64899 8.14898L7.71499 8.23701C7.72211 8.24655 7.73302 8.25158 7.74408 8.25158C7.75168 8.25158 7.75933 8.24923 7.76583 8.24433C7.78193 8.23226 7.78518 8.20945 7.77311 8.19339L7.69455 8.08839Z" fill="#AA4650"/>
<path d="M8.37326 8.08839L8.45201 7.98339C8.46407 7.96736 8.46079 7.94452 8.44473 7.93245C8.4287 7.92045 8.40585 7.9238 8.39382 7.93977L8.36317 7.98064V7.95239C8.36317 7.9323 8.34689 7.91602 8.32679 7.91602C8.3067 7.91602 8.29042 7.9323 8.29042 7.95239V7.97798L8.26176 7.93977C8.24973 7.92373 8.22695 7.92039 8.21086 7.93245C8.19476 7.94452 8.19151 7.96733 8.20357 7.98339L8.28232 8.08839L8.20357 8.19339C8.19151 8.20942 8.19479 8.23226 8.21086 8.24433C8.21739 8.24923 8.22504 8.25158 8.2326 8.25158C8.24367 8.25158 8.25457 8.24655 8.2617 8.23701L8.3277 8.14898L8.3937 8.23701C8.40082 8.24655 8.41173 8.25158 8.42279 8.25158C8.43039 8.25158 8.43804 8.24923 8.44454 8.24433C8.46064 8.23226 8.46389 8.20945 8.45182 8.19339L8.37326 8.08839Z" fill="#AA4650"/>
<path d="M8.71213 8.08839L8.79088 7.98339C8.80294 7.96736 8.79966 7.94452 8.7836 7.93245C8.76756 7.92045 8.74472 7.9238 8.73269 7.93977L8.70203 7.98064V7.95239C8.70203 7.9323 8.68575 7.91602 8.66566 7.91602C8.64557 7.91602 8.62928 7.9323 8.62928 7.95239V7.97798L8.60063 7.93977C8.5886 7.92373 8.56582 7.92039 8.54972 7.93245C8.53363 7.94452 8.53038 7.96733 8.54244 7.98339L8.62119 8.08839L8.54244 8.19339C8.53038 8.20942 8.53366 8.23226 8.54972 8.24433C8.55625 8.24923 8.56391 8.25158 8.57147 8.25158C8.58254 8.25158 8.59344 8.24655 8.60057 8.23701L8.66657 8.14898L8.73257 8.23701C8.73969 8.24655 8.7506 8.25158 8.76166 8.25158C8.76925 8.25158 8.77691 8.24923 8.78341 8.24433C8.7995 8.23226 8.80275 8.20945 8.79069 8.19339L8.71213 8.08839Z" fill="#AA4650"/>
<path d="M7.28711 8.58828C7.34089 8.61181 7.65686 8.61519 7.73751 8.53116C7.81817 8.44713 7.80139 8.41016 7.80139 8.41016L7.41817 8.4135L7.28711 8.58828Z" fill="#AA4650"/>
<path d="M8.69737 8.58828C8.64359 8.61181 8.32762 8.61519 8.24696 8.53116C8.16631 8.44713 8.18309 8.41016 8.18309 8.41016L8.56631 8.4135L8.69737 8.58828Z" fill="#AA4650"/>
</g>
<defs>
<clipPath id="clip0_5367_190049">
<rect x="1" y="15" width="14" height="14" rx="2" transform="rotate(-90 1 15)" fill="white"/>
</clipPath>
</defs>
</svg>
