<svg width="16" height="16" viewBox="0 0 16 16" fill="none" xmlns="http://www.w3.org/2000/svg">
<g clip-path="url(#clip0_5367_190039)">
<rect x="1" y="1" width="14" height="14" rx="2" fill="#FF334B"/>
<path d="M1.0896 1C1.03608 1.068 1 1.16654 1 1.28112V14.6292C1 14.834 1.10878 15 1.24294 15H14.8467C14.9057 15 14.9579 14.9639 15 14.9104L1.0896 1Z" fill="#464655"/>
<path d="M2.86704 8.78208L2.70916 9.25545L2.21016 9.25933C2.16229 9.2597 2.14248 9.32077 2.18094 9.3492L2.58235 9.64561L2.43182 10.1214C2.41738 10.167 2.46935 10.2047 2.50826 10.1769L2.91422 9.88673L3.32019 10.1769C3.35913 10.2048 3.41107 10.167 3.39663 10.1214L3.2461 9.64561L3.6475 9.3492C3.68597 9.3208 3.66616 9.25973 3.61828 9.25933L3.11929 9.25545L2.96141 8.78208C2.94638 8.7367 2.88216 8.7367 2.86704 8.78208Z" fill="white"/>
<path d="M6.26645 8.78208L6.10858 9.25545L5.60958 9.25933C5.5617 9.2597 5.54189 9.32077 5.58036 9.3492L5.98176 9.64561L5.83123 10.1214C5.81679 10.167 5.86876 10.2047 5.90767 10.1769L6.31364 9.88673L6.71961 10.1769C6.75854 10.2048 6.81048 10.167 6.79604 10.1214L6.64551 9.64561L7.04692 9.3492C7.08539 9.3208 7.06557 9.25973 7.0177 9.25933L6.5187 9.25545L6.36082 8.78208C6.34582 8.7367 6.28161 8.7367 6.26645 8.78208Z" fill="white"/>
<path d="M4.56674 6.72153L4.40887 7.19491L3.90987 7.19878C3.86199 7.19915 3.84218 7.26022 3.88065 7.28865L4.28206 7.58506L4.13153 8.06081C4.11709 8.10643 4.16906 8.14418 4.20796 8.11637L4.61393 7.82619L5.0199 8.11637C5.05884 8.14418 5.11077 8.10643 5.09634 8.06081L4.94581 7.58506L5.34721 7.28865C5.38568 7.26025 5.36587 7.19919 5.31799 7.19878L4.81899 7.19491L4.66112 6.72153C4.64609 6.67616 4.5819 6.67616 4.56674 6.72153Z" fill="white"/>
<path d="M4.56674 11.7879L4.40887 12.2613L3.90987 12.2652C3.86199 12.2656 3.84218 12.3266 3.88065 12.3551L4.28206 12.6515L4.13153 13.1272C4.11709 13.1728 4.16906 13.2106 4.20796 13.1828L4.61393 12.8926L5.0199 13.1828C5.05884 13.2106 5.11077 13.1728 5.09634 13.1272L4.94581 12.6515L5.34721 12.3551C5.38568 12.3267 5.36587 12.2656 5.31799 12.2652L4.81899 12.2613L4.66112 11.7879C4.64609 11.7426 4.5819 11.7426 4.56674 11.7879Z" fill="white"/>
<path d="M5.35855 10.5532L5.27458 10.805L5.00924 10.807C4.9838 10.8072 4.97324 10.8397 4.99371 10.8548L5.20714 11.0124L5.12711 11.2654C5.11943 11.2897 5.14705 11.3098 5.16777 11.295L5.38368 11.1407L5.59958 11.295C5.62027 11.3097 5.64789 11.2897 5.64024 11.2654L5.56021 11.0124L5.77364 10.8548C5.79411 10.8397 5.78358 10.8072 5.75811 10.807L5.49277 10.805L5.4088 10.5532C5.40074 10.5291 5.36658 10.5291 5.35855 10.5532Z" fill="white"/>
<path d="M12.7845 6.2456C12.7441 5.93297 12.6106 5.62404 12.5135 5.43326C12.5614 5.45722 12.6359 5.50038 12.6359 5.50038L12.5702 5.26201C12.7346 5.32776 12.8579 5.45519 12.8579 5.45519C12.7756 5.04419 12.6482 4.85107 12.6482 4.85107L12.751 4.88807C12.5578 4.41132 12.2701 4.2757 12.2701 4.2757L12.4345 4.2346C12.192 3.93048 11.8509 3.82773 11.8509 3.82773L12.0728 3.72085C11.4851 3.38795 10.918 3.73729 10.918 3.73729C10.918 3.73729 11.1152 3.53182 11.1892 3.44551C11.2632 3.3592 11.0865 3.33045 11.0865 3.33045C11.0865 3.33045 11.2591 3.21126 11.2508 3.14138C11.2426 3.07148 11.0865 3.10851 11.0865 3.10851C11.0865 3.10851 11.2221 2.96879 11.2221 2.8907C11.2221 2.8126 11.0824 2.86195 11.0824 2.86195C11.0824 2.86195 11.1276 2.76742 11.1399 2.69342C11.1523 2.61945 11.0166 2.68107 11.0166 2.68107C11.0166 2.68107 11.1687 2.40982 11.1605 2.35229C11.1523 2.29473 10.7618 2.53723 10.4824 2.80439C10.2029 3.07157 10.2364 3.50082 10.2612 3.60298C10.2859 3.70513 10.3014 3.94338 10.1776 4.02691C10.0538 4.11048 9.83296 3.90585 9.72337 3.77982C9.61378 3.65379 9.47678 3.6976 9.33431 3.74695C9.19184 3.79626 8.92331 3.73051 8.84112 3.71954C8.75891 3.70857 8.93425 3.80176 9.08222 3.85654C9.23019 3.91132 9.29593 4.04285 9.50418 4.11957C9.68656 4.18679 9.83262 4.35738 9.68912 4.43601C9.57731 4.49729 9.57815 4.39901 9.085 4.27163C8.59181 4.14426 8 5.39773 8 5.39773C8.31681 5.35854 8.47875 5.16876 8.47875 5.16876L8.39316 5.41429C8.62728 5.36994 8.74178 5.22757 8.74178 5.22757L8.67987 5.47516C8.85934 5.41944 8.98315 5.22757 8.98315 5.22757L8.93053 5.47204C9.1069 5.38847 9.19978 5.22757 9.19978 5.22757C9.21834 5.31732 9.23297 5.50047 9.23297 5.50047C9.50615 5.35444 9.56997 5.14704 9.56997 5.14704C9.88231 6.09232 10.3344 6.24847 10.3344 6.24847L10.3591 6.00188C10.4988 6.19916 10.6961 6.29779 10.6961 6.29779L10.6632 6.08407C11.1481 6.67588 11.7071 6.82385 11.7071 6.82385L11.564 6.49629L11.74 6.532C11.5509 6.37172 11.481 6.09225 11.481 6.09225L11.629 6.11691C11.3906 5.8991 11.2714 5.64838 11.2714 5.64838L11.4153 5.67304C11.3701 5.60316 11.3331 5.3566 11.3331 5.3566C11.5961 5.43882 11.7317 5.54154 11.7317 5.54154L11.7473 5.45201C11.973 5.6146 12.3436 5.91729 12.6004 6.29782C12.6007 6.42194 12.5806 6.54729 12.5291 6.6731C12.2935 7.24766 11.6742 7.21013 11.4002 7.08953C11.4002 7.08953 12.2496 7.7526 12.7154 6.81007C12.7449 6.75038 12.7634 6.68644 12.7766 6.62088C12.8347 6.75944 12.8749 6.90394 12.8826 7.05391C12.9319 8.01563 11.9291 7.92522 11.9291 7.92522C11.9291 7.92522 13.0387 8.3691 13.0881 7.08682C13.099 6.80169 12.9782 6.51663 12.7845 6.2456ZM11.7762 5.28563L11.7811 5.25788C11.9496 5.30719 12.1263 5.42641 12.1263 5.42641L12.1654 5.30929C12.3321 5.50963 12.4652 5.72522 12.5394 5.94841C12.3143 5.7066 12.0446 5.48204 11.7762 5.28563Z" fill="#F8CB32"/>
</g>
<defs>
<clipPath id="clip0_5367_190039">
<rect x="1" y="1" width="14" height="14" rx="2" fill="white"/>
</clipPath>
</defs>
</svg>
