<svg width="16" height="16" viewBox="0 0 16 16" fill="none" xmlns="http://www.w3.org/2000/svg">
<g clip-path="url(#clip0_5367_189893)">
<rect x="15" y="1" width="14" height="14" rx="2" transform="rotate(90 15 1)" fill="#FF334B"/>
<path d="M-1.25 14.7586L-1.25 1.24139C-1.25 1.10809 -1.00253 1 -0.697343 1L5.75 1L5.75 15L-0.697342 15C-1.00253 15 -1.25 14.8919 -1.25 14.7586Z" fill="#73AF00"/>
<path d="M5.75015 10.4808C7.12016 10.4808 8.23077 9.37016 8.23077 8.00015C8.23077 6.63014 7.12016 5.51953 5.75015 5.51953C4.38014 5.51953 3.26953 6.63014 3.26953 8.00015C3.26953 9.37016 4.38014 10.4808 5.75015 10.4808Z" fill="#F8CB32"/>
<path d="M6.57754 7.17281V8.27625C6.57754 8.73259 6.20629 9.10384 5.74995 9.10384C5.2936 9.10384 4.92235 8.73259 4.92235 8.27625V7.17281H6.57754V7.17281ZM6.85338 6.62109H4.64648C4.49414 6.62109 4.37061 6.74462 4.37061 6.89697V8.27628C4.37061 9.03803 4.98817 9.65559 5.74992 9.65559C6.51166 9.65559 7.12923 9.03803 7.12923 8.27628V6.89697C7.12926 6.74462 7.00573 6.62109 6.85338 6.62109Z" fill="#FF334B"/>
<path d="M6.57755 7.17188V8.27531C6.57755 8.73165 6.2063 9.1029 5.74996 9.1029C5.29361 9.1029 4.92236 8.73165 4.92236 8.27531V7.17188H6.57755" fill="white"/>
<path d="M4.6438 7.03369C4.71998 7.03369 4.78173 6.97193 4.78173 6.89575C4.78173 6.81957 4.71998 6.75781 4.6438 6.75781C4.56762 6.75781 4.50586 6.81957 4.50586 6.89575C4.50586 6.97193 4.56762 7.03369 4.6438 7.03369Z" fill="#F8CB32"/>
<path d="M6.85083 7.03369C6.92701 7.03369 6.98877 6.97193 6.98877 6.89575C6.98877 6.81957 6.92701 6.75781 6.85083 6.75781C6.77465 6.75781 6.71289 6.81957 6.71289 6.89575C6.71289 6.97193 6.77465 7.03369 6.85083 7.03369Z" fill="#F8CB32"/>
<path d="M4.6438 8.1372C4.71998 8.1372 4.78173 8.07545 4.78173 7.99927C4.78173 7.92308 4.71998 7.86133 4.6438 7.86133C4.56762 7.86133 4.50586 7.92308 4.50586 7.99927C4.50586 8.07545 4.56762 8.1372 4.6438 8.1372Z" fill="#F8CB32"/>
<path d="M6.85083 8.1372C6.92701 8.1372 6.98877 8.07545 6.98877 7.99927C6.98877 7.92308 6.92701 7.86133 6.85083 7.86133C6.77465 7.86133 6.71289 7.92308 6.71289 7.99927C6.71289 8.07545 6.77465 8.1372 6.85083 8.1372Z" fill="#F8CB32"/>
<path d="M5.74731 7.03369C5.82349 7.03369 5.88525 6.97193 5.88525 6.89575C5.88525 6.81957 5.82349 6.75781 5.74731 6.75781C5.67113 6.75781 5.60938 6.81957 5.60938 6.89575C5.60938 6.97193 5.67113 7.03369 5.74731 7.03369Z" fill="#F8CB32"/>
<path d="M6.57544 9.15478C6.65162 9.15478 6.71337 9.09302 6.71337 9.01684C6.71337 8.94066 6.65162 8.87891 6.57544 8.87891C6.49926 8.87891 6.4375 8.94066 6.4375 9.01684C6.4375 9.09302 6.49926 9.15478 6.57544 9.15478Z" fill="#F8CB32"/>
<path d="M4.9353 9.15478C5.01148 9.15478 5.07324 9.09302 5.07324 9.01684C5.07324 8.94066 5.01148 8.87891 4.9353 8.87891C4.85912 8.87891 4.79736 8.94066 4.79736 9.01684C4.79736 9.09302 4.85912 9.15478 4.9353 9.15478Z" fill="#F8CB32"/>
<path d="M5.92766 7.92969V8.16725C5.92766 8.2655 5.84773 8.34544 5.74948 8.34544C5.65123 8.34544 5.57129 8.2655 5.57129 8.16725V7.92969H5.92766Z" fill="#41479B"/>
<path d="M5.92766 7.36719V7.60475C5.92766 7.703 5.84773 7.78294 5.74948 7.78294C5.65123 7.78294 5.57129 7.703 5.57129 7.60475V7.36719H5.92766Z" fill="#41479B"/>
<path d="M5.92766 8.5V8.73756C5.92766 8.83581 5.84773 8.91575 5.74948 8.91575C5.65123 8.91575 5.57129 8.83581 5.57129 8.73756V8.5H5.92766Z" fill="#41479B"/>
<path d="M6.40764 7.92969V8.16725C6.40764 8.2655 6.32771 8.34544 6.22946 8.34544C6.13121 8.34544 6.05127 8.2655 6.05127 8.16725V7.92969H6.40764Z" fill="#41479B"/>
<path d="M5.44768 7.92969V8.16725C5.44768 8.2655 5.36775 8.34544 5.2695 8.34544C5.17125 8.34544 5.09131 8.2655 5.09131 8.16725V7.92969H5.44768Z" fill="#41479B"/>
</g>
<defs>
<clipPath id="clip0_5367_189893">
<rect x="15" y="1" width="14" height="14" rx="2" transform="rotate(90 15 1)" fill="white"/>
</clipPath>
</defs>
</svg>
