<svg width="16" height="16" viewBox="0 0 16 16" fill="none" xmlns="http://www.w3.org/2000/svg">
<rect x="1" y="1" width="14" height="14" rx="2" fill="#4173CD"/>
<path d="M15 11.5H1V15H15V11.5Z" fill="#73AF00"/>
<path d="M1 8H15V11.2237C15 11.3763 14.8919 11.5 14.7586 11.5H1.24139C1.10809 11.5 1 11.3763 1 11.2237V8Z" fill="#F8CB32"/>
<path d="M12.5488 4.85551L13.678 4.66857L12.5488 4.48164L13.5205 3.87683L12.4057 4.13623L13.072 3.20561L12.1414 3.87189L12.4008 2.75714L11.796 3.72883L11.609 2.59961L11.4221 3.72879L10.8173 2.75711L11.0767 3.87186L10.146 3.20558L10.8123 4.1362L9.69757 3.87679L10.6693 4.48161L9.54004 4.66857L10.6692 4.85551L9.69754 5.46032L10.8123 5.20092L10.146 6.13154L11.0766 5.46526L10.8172 6.58001L11.422 5.60832L11.609 6.73754L11.7959 5.60835L12.4008 6.58004L12.1413 5.46529L13.072 6.13157L12.4057 5.20095L13.5204 5.46035L12.5488 4.85551ZM11.609 5.35823C11.2281 5.35823 10.9193 5.04948 10.9193 4.66857C10.9193 4.28767 11.2281 3.97892 11.609 3.97892C11.9899 3.97892 12.2987 4.28767 12.2987 4.66857C12.2987 5.04948 11.9899 5.35823 11.609 5.35823Z" fill="#F8CB32"/>
<path d="M11.609 5.18684C11.8947 5.18684 12.1263 4.95526 12.1263 4.66959C12.1263 4.38392 11.8947 4.15234 11.609 4.15234C11.3234 4.15234 11.0918 4.38392 11.0918 4.66959C11.0918 4.95526 11.3234 5.18684 11.609 5.18684Z" fill="#F8CB32"/>
</svg>
