<svg width="16" height="16" viewBox="0 0 16 16" fill="none" xmlns="http://www.w3.org/2000/svg">
<rect x="1" y="1" width="14" height="14" rx="2" fill="#73AF00"/>
<path d="M3.31022 6.30145C3.3374 6.47573 3.44275 6.53041 3.53434 6.52326C3.64234 6.51488 3.73706 6.41613 3.73706 6.31182V5.71376C3.73706 5.68382 3.76143 5.65938 3.79143 5.65938C3.82143 5.65938 3.84581 5.68379 3.84581 5.71376V6.31438C3.84581 6.3866 3.8815 6.45395 3.94134 6.49438C3.97787 6.51913 4.0204 6.53185 4.06325 6.53185C4.09053 6.53185 4.11793 6.52663 4.14406 6.51623L4.1984 6.49451C4.2034 6.99654 4.17287 7.43776 4.17231 7.44585C4.16806 7.50576 4.21312 7.55779 4.27303 7.56204C4.27568 7.56226 4.27828 7.56235 4.2809 7.56235C4.33746 7.56235 4.38518 7.5186 4.38928 7.46135C4.39181 7.42601 4.42531 6.94279 4.41528 6.40776L4.44815 6.39463C4.47696 6.38316 4.50934 6.38454 4.53706 6.39835C4.65684 6.45804 4.80096 6.43476 4.89562 6.34013L4.91521 6.32057C5.00309 6.23254 5.03331 6.10466 4.99396 5.9867L4.90137 5.70892C4.95143 5.72398 5.00643 5.70182 5.03062 5.6536C5.05749 5.59988 5.03571 5.53457 4.98199 5.5077L4.76453 5.39895C4.72518 5.3792 4.67796 5.38526 4.64462 5.41401C4.61137 5.44292 4.59881 5.48888 4.61271 5.5306L4.78768 6.05554C4.80078 6.09482 4.79071 6.13751 4.76143 6.16682L4.74187 6.18638C4.71353 6.21473 4.67034 6.22163 4.63424 6.20379C4.56378 6.16857 4.48353 6.16198 4.40824 6.18116C4.39296 5.83213 4.35537 5.48457 4.27531 5.24429C4.25634 5.18735 4.19487 5.15648 4.13771 5.17557C4.08075 5.19448 4.04996 5.25604 4.06896 5.3131C4.14731 5.54807 4.18143 5.90617 4.19356 6.26223L4.06337 6.31429V5.71367C4.06337 5.56373 3.9414 5.44179 3.7915 5.44179C3.64159 5.44179 3.51962 5.5637 3.51962 5.71367V6.24007L3.40868 5.6921C3.39687 5.63317 3.33956 5.59473 3.28056 5.60704C3.22165 5.61904 3.18359 5.67638 3.19556 5.73523L3.31022 6.30145Z" fill="white"/>
<path d="M3.51988 5.3868C3.57994 5.3868 3.62863 5.33817 3.62863 5.27805V5.1693C3.62863 5.1092 3.57994 5.06055 3.51988 5.06055C3.45982 5.06055 3.41113 5.10917 3.41113 5.1693V5.27805C3.41113 5.33814 3.45982 5.3868 3.51988 5.3868Z" fill="white"/>
<path d="M4.60728 5.27805H4.71603C4.7761 5.27805 4.82478 5.22942 4.82478 5.1693C4.82478 5.1092 4.7761 5.06055 4.71603 5.06055H4.60728C4.54722 5.06055 4.49854 5.10917 4.49854 5.1693C4.49854 5.22942 4.54722 5.27805 4.60728 5.27805Z" fill="white"/>
<path d="M3.89877 6.70694L3.35506 7.03319C3.30352 7.06409 3.28687 7.13087 3.31777 7.1824C3.33815 7.21637 3.37415 7.23518 3.41112 7.23518C3.43018 7.23518 3.44946 7.23019 3.46699 7.21965L4.01071 6.8934C4.06224 6.8625 4.0789 6.79572 4.04799 6.74419C4.01709 6.69269 3.95034 6.67603 3.89877 6.70694Z" fill="white"/>
<path d="M5.36477 6.9002L5.36733 6.89848C5.37645 6.93523 5.39211 6.97079 5.41752 7.00067C5.4617 7.0527 5.52795 7.07886 5.60283 7.07267C5.70905 7.06492 5.78124 7.01639 5.82905 6.95373C5.83633 6.95873 5.84399 6.96329 5.85199 6.96733C5.91077 6.99695 5.97873 6.99473 6.04345 6.96114C6.2078 6.87651 6.2432 6.6807 6.2382 6.57833C6.23527 6.51864 6.18452 6.47651 6.12498 6.47533C6.06527 6.47789 6.01877 6.52854 6.02092 6.58823C6.02098 6.58961 6.02339 6.71864 5.94452 6.76654C5.93164 6.74861 5.91639 6.70823 5.91064 6.67489C5.90145 6.61892 5.85005 6.57995 5.79474 6.58442C5.73836 6.58886 5.6948 6.63623 5.69461 6.69283C5.69455 6.70864 5.69105 6.84817 5.58333 6.85986C5.5708 6.84276 5.57058 6.77076 5.58292 6.71754C5.59333 6.67389 5.57583 6.62833 5.53889 6.60286C5.50189 6.57726 5.45311 6.57726 5.41595 6.60245L5.35527 6.64373C5.32645 6.01311 5.26005 5.27827 5.25924 5.26886C5.25383 5.20917 5.20127 5.16467 5.14111 5.17042C5.0813 5.17583 5.03721 5.22873 5.04264 5.28864C5.04358 5.2987 5.12036 6.14892 5.14405 6.7982C5.13849 6.80348 5.13277 6.80926 5.12733 6.81433C5.08433 6.70592 4.99908 6.63764 4.8893 6.62723C4.73436 6.61354 4.56649 6.71898 4.5063 6.86958C4.45442 6.99914 4.48708 7.12648 4.58942 7.19389C4.66302 7.24242 4.77408 7.2577 4.91374 7.20876C4.87964 7.32854 4.81755 7.45004 4.73686 7.54401C4.66458 7.62823 4.54389 7.72539 4.38946 7.72104C4.29955 7.71751 4.23049 7.68811 4.17827 7.63098C4.05236 7.49345 4.06321 7.24454 4.0633 7.24189C4.06643 7.18198 4.02055 7.13092 3.96071 7.12761C3.90043 7.12123 3.84943 7.1702 3.84611 7.2302C3.84536 7.24398 3.82958 7.57111 4.01686 7.77679C4.10905 7.8782 4.23152 7.93248 4.38089 7.93832C4.38817 7.93864 4.39546 7.93873 4.40277 7.93873C4.58467 7.93873 4.76117 7.84951 4.90177 7.68567C5.03402 7.53167 5.12383 7.32248 5.15077 7.12829C5.15042 7.50029 4.92624 7.91985 4.62902 8.1047C4.5028 8.18307 4.30602 8.25379 4.08436 8.14451C3.81111 8.00964 3.84368 7.69732 3.84511 7.68457C3.85258 7.62498 3.8103 7.57064 3.75071 7.5632C3.69139 7.55598 3.63671 7.59792 3.62933 7.65761C3.6269 7.67704 3.57465 8.13548 3.98814 8.33948C4.09436 8.39192 4.20543 8.41795 4.31736 8.41795C4.46114 8.41795 4.60627 8.37495 4.74383 8.28935C5.1057 8.06442 5.36836 7.57573 5.36836 7.12739C5.36833 7.05729 5.36699 6.98073 5.36477 6.9002ZM4.70905 7.01229C4.68961 6.99942 4.7048 6.95836 4.70808 6.95017C4.73099 6.89283 4.80261 6.84323 4.85983 6.84323C4.86277 6.84323 4.86574 6.84333 4.86858 6.84364C4.88249 6.84492 4.91939 6.84842 4.93527 6.93051C4.93696 6.93923 4.93839 6.94814 4.93952 6.95726C4.81833 7.02845 4.73708 7.0307 4.70905 7.01229Z" fill="white"/>
<path d="M3.57469 8.0125C3.52316 7.98222 3.4566 7.99953 3.42603 8.05106C3.42103 8.05944 3.41441 8.06859 3.40766 8.07684C3.40647 8.07409 3.40532 8.07113 3.40413 8.06791C3.35878 7.94694 3.39107 7.7606 3.40738 7.69897C3.42272 7.641 3.38819 7.58153 3.33025 7.566C3.27238 7.55113 3.21285 7.58491 3.19728 7.64291C3.18938 7.67232 3.12253 7.93631 3.20047 8.14425C3.25038 8.27722 3.327 8.31078 3.38253 8.31531C3.38747 8.31572 3.39235 8.31594 3.39719 8.31594C3.51425 8.31594 3.59216 8.19797 3.61382 8.1606C3.64385 8.10881 3.62625 8.04288 3.57469 8.0125Z" fill="white"/>
<path d="M5.58148 6.0392C5.60501 6.0392 5.6287 6.03164 5.64858 6.01595L6.19683 5.58555C6.20439 5.57961 6.20923 5.57183 6.21476 5.56451C6.29373 5.51689 6.34714 5.43114 6.34714 5.33242C6.34714 5.18248 6.22517 5.06055 6.07526 5.06055C5.92536 5.06055 5.80339 5.18245 5.80339 5.33242C5.80339 5.41633 5.84239 5.49048 5.90226 5.54039L5.51423 5.84501C5.46701 5.88208 5.4588 5.95045 5.49586 5.99761C5.51733 6.02495 5.54926 6.0392 5.58148 6.0392ZM6.07529 5.27802C6.10529 5.27802 6.12967 5.30242 6.12967 5.33239C6.12967 5.36236 6.10529 5.38676 6.07529 5.38676C6.04529 5.38676 6.02092 5.36236 6.02092 5.33239C6.02092 5.30242 6.04529 5.27802 6.07529 5.27802Z" fill="white"/>
<path d="M5.94646 5.93729C5.88918 5.9182 5.82784 5.94907 5.80887 6.00601C5.79724 6.04082 5.74465 6.22023 5.85124 6.3267C5.89262 6.3681 5.94696 6.38882 6.01371 6.3887C6.05831 6.3887 6.10843 6.37957 6.16393 6.36098C6.2209 6.34207 6.25168 6.28051 6.23268 6.22345C6.21368 6.16651 6.15221 6.13551 6.09509 6.15473C6.03434 6.17492 6.00865 6.17164 6.00631 6.17373C5.9999 6.1576 6.00412 6.10904 6.01528 6.07432C6.03409 6.01757 6.00331 5.9562 5.94646 5.93729Z" fill="white"/>
<path d="M7.19109 5.48726C7.20131 5.49023 7.21153 5.4916 7.22162 5.4916C7.26871 5.4916 7.31209 5.46082 7.32596 5.41332L7.3894 5.19585C7.40621 5.13819 7.37309 5.07776 7.31549 5.06098C7.25768 5.04429 7.19746 5.07723 7.18062 5.13488L7.11718 5.35235C7.10034 5.4101 7.13346 5.47051 7.19109 5.48726Z" fill="white"/>
<path d="M6.55718 5.47411C6.57443 5.4842 6.59337 5.48898 6.61196 5.48898C6.64933 5.48898 6.68571 5.46977 6.70593 5.43517C6.73624 5.38336 6.7188 5.31664 6.66696 5.28639C6.64508 5.27364 6.64805 5.23764 6.64887 5.23052C6.65212 5.20195 6.66915 5.16711 6.69877 5.15789C6.75612 5.14008 6.78815 5.07911 6.7703 5.02177C6.75237 4.96433 6.69152 4.93255 6.63408 4.95017C6.52568 4.98392 6.44665 5.0843 6.43274 5.2058C6.41986 5.31886 6.46755 5.42167 6.55718 5.47411Z" fill="white"/>
<path d="M5.69469 7.23633C5.63462 7.23633 5.58594 7.28495 5.58594 7.34508C5.58594 7.39817 5.62397 7.44236 5.67428 7.45189C5.68 7.46027 5.69466 7.48908 5.69466 7.56255C5.69466 7.62264 5.74334 7.6713 5.80341 7.6713C5.86347 7.6713 5.91216 7.62267 5.91216 7.56255C5.91219 7.24005 5.70356 7.23633 5.69469 7.23633Z" fill="white"/>
<path d="M7.5394 6.78559C7.55305 6.78784 7.56665 6.78887 7.5803 6.78887C7.66574 6.78887 7.75205 6.74578 7.83755 6.66028C7.88002 6.61781 7.88002 6.549 7.83755 6.50653C7.79508 6.46406 7.72627 6.46406 7.6838 6.50653C7.61877 6.57162 7.58377 6.573 7.5748 6.57097C7.55405 6.568 7.53524 6.5409 7.53105 6.5335C7.50377 6.48059 7.43909 6.4595 7.38584 6.48612C7.33212 6.513 7.3103 6.57831 7.33721 6.63203C7.34393 6.64553 7.40671 6.76403 7.5394 6.78559Z" fill="white"/>
<path d="M9.38787 6.02184C9.38718 6.02015 9.38652 6.01856 9.38599 6.01706C9.36671 5.96059 9.30512 5.92987 9.24874 5.94909C9.19171 5.968 9.16093 6.02956 9.17993 6.08662C9.1884 6.11209 9.23687 6.23997 9.35687 6.25609C9.3649 6.25715 9.37287 6.25769 9.38077 6.25769C9.45612 6.25769 9.52677 6.20894 9.59109 6.1125C9.62437 6.06259 9.61087 5.99506 9.5609 5.96172C9.51087 5.92847 9.44334 5.94184 9.41012 5.99191C9.40152 6.00475 9.39409 6.01453 9.38787 6.02184Z" fill="white"/>
<path d="M9.1744 7.99747C9.1744 7.53375 9.15403 7.09872 9.12571 6.71753C9.28012 6.98531 9.41903 7.2559 9.50753 7.49197C9.52393 7.53562 9.56534 7.5625 9.60934 7.5625C9.62203 7.5625 9.63493 7.56025 9.64749 7.55559C9.70374 7.53447 9.73224 7.47181 9.71115 7.41553C9.57349 7.04859 9.32612 6.61159 9.08228 6.22366C9.02284 5.63788 8.95628 5.26606 8.95512 5.25944C8.9444 5.20031 8.8879 5.16038 8.82871 5.17191C8.76962 5.18263 8.73043 5.23922 8.74115 5.29828C8.74203 5.303 8.77628 5.49453 8.81725 5.81687C8.73368 5.69291 8.65606 5.58106 8.59093 5.489L8.59625 5.49069C8.65353 5.50978 8.71481 5.47891 8.73384 5.42197C8.75284 5.36494 8.72206 5.30334 8.66509 5.28444L8.33884 5.17569C8.29359 5.16041 8.24393 5.17656 8.21625 5.21522C8.20884 5.22553 8.20378 5.23684 8.20034 5.24853C8.13525 5.20041 8.05175 5.16128 7.97337 5.19409C7.92597 5.21375 7.86947 5.26322 7.86947 5.38756C7.86947 5.48303 7.90587 5.58625 7.9445 5.69563C8.00853 5.877 8.04862 6.01037 7.98081 6.074C7.94334 6.10912 7.90587 6.12241 7.86937 6.11319C7.80231 6.09619 7.73593 6.00687 7.69172 5.87425C7.68978 5.8685 7.68578 5.86431 7.68303 5.85916C7.7059 5.69072 7.69593 5.48778 7.64984 5.2575C7.63812 5.19856 7.58097 5.16022 7.52187 5.17222C7.46297 5.184 7.42481 5.24125 7.43659 5.30019C7.50759 5.65528 7.48628 5.94497 7.37962 6.07509C7.33837 6.12544 7.28669 6.14878 7.217 6.14878C7.19497 6.14878 7.17994 6.14178 7.16497 6.12456C7.07919 6.02569 7.07953 5.70669 7.10722 5.51159C7.11162 5.4805 7.10228 5.44884 7.08162 5.42503C7.06097 5.40125 7.03103 5.38756 6.99953 5.38756C6.81244 5.38756 6.7415 5.60038 6.67887 5.78812C6.65144 5.87066 6.60025 6.02409 6.56456 6.04003C6.49875 6.04003 6.45619 5.84675 6.45581 5.71369C6.45562 5.65369 6.40703 5.60516 6.34706 5.60516C6.34706 5.60516 6.34697 5.60516 6.34687 5.60516C6.28687 5.60516 6.23828 5.65378 6.23828 5.71378C6.23828 5.96459 6.32372 6.2575 6.56453 6.2575C6.74384 6.2575 6.81647 6.06209 6.87728 5.8805C6.88784 6.02491 6.92047 6.17453 7.00062 6.26694C7.05697 6.33194 7.13175 6.36622 7.217 6.36622C7.35125 6.36622 7.46559 6.31322 7.54778 6.21297C7.56268 6.19484 7.5755 6.174 7.58815 6.15297C7.65128 6.24272 7.72875 6.30194 7.81603 6.32397C7.84162 6.33044 7.86737 6.33372 7.89284 6.33372C7.97678 6.33372 8.05881 6.29909 8.12965 6.2325C8.14437 6.21862 8.15475 6.20353 8.16597 6.18862C8.19256 6.19622 8.21953 6.20072 8.24631 6.20072C8.3344 6.20072 8.41921 6.16525 8.47184 6.13147C8.52218 6.09919 8.53675 6.0325 8.50478 5.98194C8.47275 5.9315 8.40575 5.91641 8.35506 5.94806C8.35412 5.9485 8.2815 5.99025 8.23196 5.98044C8.23209 5.86122 8.18897 5.73462 8.14959 5.62309C8.12718 5.55956 8.10418 5.4945 8.09334 5.44131C8.10231 5.44888 8.11106 5.45672 8.1189 5.46434C8.16128 5.50681 8.23015 5.50681 8.27262 5.46434C8.27965 5.45731 8.28371 5.44878 8.2884 5.44056C8.40112 5.59584 8.63296 5.92216 8.87143 6.29831C8.91696 6.76065 8.9569 7.35043 8.9569 7.99731C8.9569 8.0574 9.00559 8.10606 9.06565 8.10606C9.12571 8.10618 9.1744 8.05759 9.1744 7.99747Z" fill="white"/>
<path d="M9.28309 5.60482C9.28309 5.66492 9.33178 5.71357 9.39184 5.71357C9.45191 5.71357 9.50059 5.66495 9.50059 5.60482C9.50059 5.47685 9.40047 5.2701 9.38037 5.22995C9.3535 5.17632 9.28825 5.15467 9.23447 5.18132C9.18075 5.2082 9.15894 5.27351 9.18584 5.32723C9.22506 5.4057 9.28309 5.5481 9.28309 5.60482Z" fill="white"/>
<path d="M8.7884 8.00865C8.73509 7.98146 8.66959 8.00302 8.64243 8.05655C8.63074 8.07937 8.61265 8.10477 8.59737 8.12112C8.59256 8.0779 8.60406 7.99155 8.62599 7.91999C8.64059 7.87221 8.62078 7.82058 8.57799 7.7949C8.53537 7.76912 8.4804 7.7758 8.44512 7.81115L8.22765 8.02862C8.18518 8.07108 8.18518 8.1399 8.22765 8.18237C8.27012 8.22483 8.33893 8.22483 8.3814 8.18237L8.38693 8.17683C8.39634 8.22049 8.41434 8.2603 8.44515 8.29112C8.48593 8.3319 8.53521 8.35346 8.58643 8.35346C8.59637 8.35346 8.60634 8.35258 8.61634 8.35102C8.73953 8.33105 8.81621 8.19524 8.83678 8.15412C8.86349 8.10049 8.84184 8.03565 8.7884 8.00865Z" fill="white"/>
<path d="M8.7463 7.13331H7.9799C7.98668 7.10625 7.99368 7.0804 8.00083 7.0559C8.30646 6.99237 8.48811 6.89372 8.54152 6.76209C8.55999 6.71644 8.57927 6.62415 8.50061 6.51806C8.42971 6.42247 8.32965 6.37959 8.22571 6.40081C8.07118 6.43212 7.93349 6.59862 7.83471 6.86518C7.52774 6.91775 7.33124 7.02793 7.20684 7.13665C7.16271 6.69103 6.98974 6.42631 6.9813 6.41372C6.94796 6.36369 6.8804 6.35019 6.83052 6.38353C6.78056 6.41687 6.76709 6.48431 6.80034 6.53431C6.80231 6.53728 6.99955 6.83897 6.99955 7.34393C6.99955 7.84028 6.60377 8.21387 6.34712 8.21387C6.22502 8.21387 6.17156 8.06875 6.14809 7.946C6.3994 7.76987 6.62115 7.56606 6.67012 7.37025C6.7364 7.10528 6.65299 6.91 6.59781 6.78078C6.59521 6.77484 6.59249 6.76847 6.58974 6.76187C6.59209 6.764 6.59431 6.76622 6.59652 6.76834C6.6389 6.81081 6.70777 6.81081 6.75024 6.76834C6.79271 6.72587 6.79271 6.65706 6.75024 6.61459C6.68668 6.55097 6.56324 6.45103 6.45102 6.498C6.40362 6.51765 6.34712 6.56712 6.34712 6.69147C6.34712 6.74765 6.37059 6.80253 6.39777 6.86625C6.44674 6.98084 6.50765 7.12347 6.45909 7.31756C6.43037 7.43243 6.28931 7.57178 6.10315 7.71015C6.08318 7.68628 6.05437 7.67025 6.02087 7.67025H6.02068C5.96068 7.67034 5.91209 7.71887 5.91209 7.77887C5.91209 7.79843 5.91296 7.81934 5.91421 7.84081C5.68149 7.99153 5.41815 8.13103 5.21459 8.22359C5.15996 8.24846 5.13581 8.3129 5.16065 8.36759C5.17887 8.40762 5.21837 8.43131 5.25968 8.43131C5.27475 8.43131 5.29006 8.42824 5.30462 8.42156C5.36575 8.39378 5.65596 8.25856 5.95409 8.07381C6.00899 8.26021 6.12534 8.43137 6.34709 8.43137C6.60796 8.43137 6.9039 8.21806 7.07468 7.89959C7.0953 7.936 7.11899 7.97087 7.14727 8.0034C7.42099 8.31903 7.95562 8.32262 7.97824 8.32262C8.0368 8.32262 8.0848 8.27631 8.08693 8.21781C8.08899 8.15928 8.0444 8.10959 7.98602 8.10546C7.98515 8.10537 7.89849 8.09581 7.8503 8.03953C7.82121 8.00556 7.80958 7.95881 7.81471 7.89671C7.82583 7.76271 8.25812 7.66253 8.63908 7.65662C8.68449 7.65587 8.72468 7.62709 8.7399 7.58431L8.84865 7.2785C8.86046 7.24525 8.85539 7.20818 8.83499 7.17943C8.81483 7.1505 8.78161 7.13331 8.7463 7.13331ZM8.26899 6.61403C8.27105 6.61362 8.2738 6.61297 8.27727 6.61297C8.28768 6.61297 8.30408 6.61806 8.32596 6.64759C8.33008 6.65312 8.34333 6.672 8.33999 6.68031C8.32752 6.71109 8.25243 6.76197 8.09602 6.80806C8.1648 6.67381 8.23208 6.62147 8.26899 6.61403ZM7.61227 8.0435C7.5018 8.00759 7.38921 7.95068 7.31127 7.86053C7.22562 7.76146 7.19399 7.63615 7.21474 7.47759C7.21787 7.46925 7.22499 7.45284 7.23743 7.4315C7.39055 7.41746 7.79965 7.47781 7.82799 7.59496C7.7018 7.65937 7.60887 7.74993 7.59812 7.87868C7.59271 7.94328 7.5993 7.99796 7.61227 8.0435Z" fill="white"/>
<path d="M9.92983 5.57059L9.82108 5.24434C9.80355 5.1919 9.74914 5.16055 9.69517 5.17243C9.64096 5.18402 9.60417 5.23443 9.6097 5.28955C9.68474 6.03993 9.82667 7.50327 9.82667 7.67108C9.82667 7.82177 9.55864 8.11845 9.12558 8.33502C9.07186 8.36189 9.05005 8.42717 9.07696 8.48092C9.09602 8.51905 9.13439 8.54102 9.17433 8.54102C9.19064 8.54102 9.20727 8.5373 9.22286 8.52955C9.61846 8.33174 10.0442 7.97874 10.0442 7.67108C10.0442 7.51042 9.93305 6.3544 9.86939 5.70502C9.92092 5.68302 9.94786 5.62477 9.92983 5.57059Z" fill="white"/>
<path d="M10.8375 6.55106C10.8585 6.57199 10.8863 6.58293 10.9145 6.58293C10.9328 6.58293 10.9514 6.57827 10.9682 6.56868C11.0107 6.54446 11.0318 6.49477 11.0198 6.44731C11.0003 6.37087 10.9938 6.27527 11.0042 6.23621C11.0586 6.2379 11.1092 6.19915 11.1172 6.14296C11.1257 6.08349 11.0844 6.02837 11.0249 6.0199C10.953 6.01015 10.8899 6.03127 10.8458 6.08031C10.8172 6.11218 10.8002 6.15306 10.791 6.19702L10.6651 6.07109C10.6226 6.02862 10.5538 6.02862 10.5113 6.07109C10.4689 6.11356 10.4689 6.18237 10.5113 6.22484L10.8375 6.55106Z" fill="white"/>
<path d="M11.0821 6.66507L10.6743 6.95731C10.6255 6.99225 10.6143 7.06022 10.6493 7.10906C10.6705 7.13869 10.7039 7.15441 10.7378 7.15441C10.7597 7.15441 10.7819 7.14781 10.801 7.13403L11.2088 6.84178C11.2576 6.80685 11.2689 6.73888 11.2339 6.69003C11.1988 6.64116 11.1308 6.62978 11.0821 6.66507Z" fill="white"/>
<path d="M11.0458 7.07326C11.0116 7.11732 11.0165 7.17935 11.0554 7.21748C11.06 7.22535 11.0813 7.26694 11.0774 7.37401C11.0753 7.4341 11.1222 7.48444 11.1822 7.48657C11.1835 7.48666 11.1849 7.48666 11.1862 7.48666C11.2445 7.48666 11.2927 7.44044 11.2948 7.38185C11.3027 7.15991 11.2301 7.07879 11.1985 7.05423C11.1512 7.0172 11.0827 7.02591 11.0458 7.07326Z" fill="white"/>
<path d="M11.9951 7.8748C12.0552 7.8748 12.1039 7.82617 12.1039 7.76605C12.1039 7.60561 12.0956 7.42648 12.0822 7.24014C12.19 7.41683 12.2796 7.57973 12.337 7.7137C12.3546 7.75501 12.3947 7.77964 12.437 7.77964C12.4512 7.77964 12.4658 7.77689 12.4797 7.77083C12.5349 7.74714 12.5605 7.6832 12.5368 7.62811C12.4372 7.39576 12.2512 7.08802 12.0393 6.7703C11.9966 6.37117 11.9409 5.98008 11.8976 5.69955C11.9206 5.70189 11.9445 5.69627 11.9655 5.68264C11.9998 5.66064 12.0159 5.62242 12.0136 5.58439C12.0164 5.59508 12.0194 5.6058 12.0257 5.61564C12.0264 5.61671 12.0963 5.73211 12.0653 5.88189C12.0531 5.94061 12.0909 5.99817 12.1497 6.01036C12.1572 6.01183 12.1646 6.01261 12.1719 6.01261C12.2223 6.01261 12.2676 5.97724 12.2783 5.92586C12.3274 5.6883 12.214 5.50652 12.2092 5.49886C12.1769 5.4483 12.1096 5.43346 12.059 5.46552C12.0245 5.48749 12.0082 5.52574 12.0104 5.56386C12.0076 5.55311 12.0045 5.5423 11.9982 5.53246L11.8146 5.24702C11.7866 5.20346 11.7317 5.18583 11.6836 5.20455C11.6353 5.22346 11.6071 5.27367 11.616 5.32464C11.6176 5.33321 11.7007 5.81039 11.7743 6.38555C11.6909 6.26783 11.6076 6.15274 11.5268 6.04286C11.5136 5.87833 11.5004 5.72624 11.489 5.60046C11.495 5.59867 11.5009 5.59633 11.5067 5.59346C11.5604 5.56658 11.5823 5.50127 11.5553 5.44755L11.4466 5.23008C11.4231 5.18314 11.3696 5.15977 11.3191 5.17421C11.2688 5.18886 11.2359 5.23727 11.2411 5.28952C11.2541 5.4193 11.2676 5.56296 11.2808 5.71386C11.2121 5.62321 11.1484 5.54021 11.094 5.46992C11.1046 5.4608 11.1137 5.44946 11.1203 5.43605C11.1472 5.38233 11.1254 5.31702 11.0717 5.29014L10.8543 5.18139C10.8086 5.15868 10.7533 5.17058 10.721 5.2103C10.689 5.25002 10.6888 5.30671 10.7207 5.34664C10.7266 5.35396 10.9943 5.68958 11.3146 6.12277C11.3702 6.84123 11.4072 7.58864 11.3549 7.74533C11.3454 7.77398 11.3287 7.80776 11.313 7.80895C11.2473 7.81808 11.0904 7.67114 11.0117 7.51364C10.9663 7.42295 10.9009 7.41351 10.866 7.41508C10.7491 7.4223 10.7035 7.55089 10.6207 7.78433C10.5613 7.95158 10.4874 8.15951 10.4046 8.24458C10.3597 8.1897 10.3016 8.00561 10.2693 7.81645C10.2845 7.85826 10.3236 7.88851 10.3707 7.88851C10.4308 7.88851 10.4794 7.83989 10.4794 7.77976C10.4794 7.61758 10.366 6.38255 10.3027 5.70571C10.3556 5.68446 10.3834 5.62533 10.3651 5.57052L10.2564 5.24427C10.2389 5.19183 10.1853 5.16089 10.1307 5.17227C10.0766 5.18374 10.0397 5.23396 10.0449 5.28899C10.1188 6.06474 10.2574 7.56311 10.2617 7.76992C10.2614 7.76805 10.2611 7.76623 10.2608 7.76436C10.2524 7.70489 10.1969 7.66411 10.1378 7.67208C10.0783 7.68067 10.0371 7.7357 10.0455 7.79514C10.0773 8.01742 10.1584 8.39958 10.3453 8.46183C10.3601 8.46683 10.3799 8.47126 10.4033 8.47126C10.4461 8.47126 10.5006 8.45608 10.5563 8.40033C10.6747 8.28192 10.7549 8.05614 10.8256 7.85705C10.8416 7.81201 10.8605 7.7587 10.8783 7.71305C10.9781 7.85873 11.1521 8.04011 11.3285 8.02592C11.3905 8.02148 11.5033 7.98814 11.5613 7.81417C11.6191 7.6407 11.5962 7.03573 11.5573 6.45655C11.6489 6.58495 11.7406 6.71645 11.8281 6.8463C11.862 7.17195 11.8863 7.4982 11.8863 7.76617C11.8864 7.82614 11.9351 7.8748 11.9951 7.8748Z" fill="white"/>
<path d="M12.8203 7.30299C12.7432 6.72912 12.6359 6.06434 12.5679 5.65634C12.5986 5.6639 12.6321 5.65771 12.659 5.63699C12.7068 5.60059 12.716 5.53227 12.6795 5.48462L12.4824 5.22634C12.452 5.18662 12.3983 5.17262 12.3524 5.19268C12.3065 5.21274 12.2803 5.26162 12.2888 5.31099C12.2908 5.32212 12.4847 6.43843 12.6046 7.33187C12.6504 7.67327 12.5836 7.9784 12.4256 8.14786C12.3241 8.25674 12.1895 8.30599 12.0267 8.29652C11.9669 8.29333 11.9151 8.33833 11.9113 8.39824C11.9076 8.45814 11.9531 8.50977 12.013 8.51355C12.0314 8.51474 12.0495 8.51524 12.0674 8.51524C12.2725 8.51524 12.4505 8.44008 12.5847 8.29605C12.7896 8.0763 12.8755 7.71427 12.8203 7.30299Z" fill="white"/>
<path d="M11.6237 8.01991C11.5837 8.06335 11.5868 8.13172 11.629 8.17275C11.6349 8.17847 11.642 8.18975 11.642 8.19528C11.6421 8.19835 11.6377 8.2075 11.6256 8.21959C11.5831 8.26206 11.5831 8.33088 11.6256 8.37335C11.6469 8.3946 11.6747 8.40522 11.7025 8.40522C11.7303 8.40522 11.7582 8.3946 11.7794 8.37335C11.8484 8.30441 11.861 8.23444 11.8595 8.18781C11.8561 8.08747 11.7878 8.02269 11.7742 8.01069C11.7297 7.97203 11.6636 7.97669 11.6237 8.01991Z" fill="white"/>
<path d="M11.2406 10.405H11.1318H10.4794V10.2962C10.4794 10.2362 10.4307 10.1875 10.3706 10.1875C10.3106 10.1875 10.2619 10.2361 10.2619 10.2962V10.405H4.49854C4.716 10.6225 5.15097 10.7312 5.47722 10.7312C5.71119 10.7312 8.62968 10.7312 10.2619 10.7312V10.9487C10.2619 11.0088 10.3106 11.0575 10.3706 11.0575H11.2406C11.4205 11.0575 11.5668 10.9111 11.5668 10.7312C11.5668 10.5513 11.4205 10.405 11.2406 10.405ZM11.2406 10.84H10.4794V10.7312C11.0034 10.7312 11.3493 10.7312 11.3493 10.7312L11.3298 10.6727C11.3411 10.6898 11.3493 10.7092 11.3493 10.7312C11.3493 10.7912 11.3005 10.84 11.2406 10.84Z" fill="white"/>
</svg>
