<svg width="16" height="16" viewBox="0 0 16 16" fill="none" xmlns="http://www.w3.org/2000/svg">
<g clip-path="url(#clip0_5367_189773)">
<rect x="1" y="1" width="14" height="14" rx="2" fill="white"/>
<path d="M1.2411 15.0006H14.7584C14.8917 15.0006 14.9998 14.8357 14.9998 14.6322V10.334L1.13232 14.9564C1.16538 14.9825 1.20131 15.0006 1.2411 15.0006Z" fill="#73AF00"/>
<path d="M5.66669 1H1.24139C1.10809 1 1 1.16498 1 1.36844V14.6316C1 14.7139 1.02103 14.7859 1.05091 14.8473L5.66669 1Z" fill="#41479B"/>
<path d="M1.07132 14.8929L10.3332 1H5.66655L1.05078 14.8472C1.058 14.8621 1.0627 14.8798 1.07132 14.8929Z" fill="#F8CB32"/>
<path d="M14.7585 1H10.3332L1.07129 14.8929C1.08132 14.9081 1.09475 14.9167 1.1064 14.929L14.9999 5.66667V1.36844C14.9999 1.16498 14.8918 1 14.7585 1Z" fill="#FF334B"/>
<path d="M1.13253 14.9551L14.9999 10.3326V5.66602L1.10645 14.9283C1.11511 14.9375 1.1231 14.9478 1.13253 14.9551Z" fill="white"/>
</g>
<defs>
<clipPath id="clip0_5367_189773">
<rect x="1" y="1" width="14" height="14" rx="2" fill="white"/>
</clipPath>
</defs>
</svg>
