<svg width="16" height="16" viewBox="0 0 16 16" fill="none" xmlns="http://www.w3.org/2000/svg">
<g clip-path="url(#clip0_5367_189725)">
<rect x="1" y="0.841797" width="14" height="14" rx="2" fill="white"/>
<path d="M15 10.1745V5.50781H1V10.1745H15Z" fill="#41479B"/>
<path d="M1 10.1758H15V14.474C15 14.6775 14.8919 14.8424 14.7586 14.8424H1.24139C1.10809 14.8424 1 14.6775 1 14.474V10.1758Z" fill="#FF334B"/>
<path d="M5.62488 3.75019C5.62488 3.75019 5.558 5.88015 5.25913 6.47828C4.88916 7.21342 4.51721 7.42789 3.96381 7.62604C3.41048 7.42793 3.03852 7.21361 2.66848 6.47828C2.36965 5.88011 2.3027 3.75042 2.30273 3.75019C3.3588 3.27337 4.56881 3.27337 5.62488 3.75019Z" fill="#41479B"/>
<path d="M4.44477 6.70469C4.4043 6.67874 4.37511 6.66016 4.30868 6.66016C4.24245 6.66016 4.21326 6.6787 4.17298 6.70469C4.12682 6.73407 4.06943 6.77085 3.96272 6.77085C3.85593 6.77085 3.79854 6.73407 3.75238 6.70454C3.7121 6.67877 3.68299 6.66023 3.61675 6.66023C3.55051 6.66023 3.5214 6.67877 3.48112 6.70454C3.43752 6.73249 3.38242 6.76577 3.28662 6.7695C3.4883 7.01541 3.69973 7.13209 3.96358 7.23338C4.22733 7.13205 4.43871 7.01549 4.64039 6.76957C4.54392 6.76607 4.48851 6.73256 4.44477 6.70469Z" fill="white"/>
<path d="M3.13523 6.31033C3.17551 6.33609 3.20455 6.35463 3.27056 6.35463C3.3368 6.35463 3.36591 6.33609 3.40619 6.31033C3.45234 6.28076 3.50974 6.24401 3.61645 6.24401C3.72316 6.24401 3.78056 6.2808 3.82671 6.31018C3.86699 6.33613 3.89618 6.35471 3.96242 6.35471C4.02865 6.35471 4.05776 6.33617 4.09805 6.3104C4.1442 6.28084 4.2016 6.24409 4.30838 6.24409C4.41524 6.24409 4.47275 6.28087 4.5189 6.31025C4.55937 6.3362 4.58845 6.35478 4.65491 6.35478C4.72137 6.35478 4.75052 6.33624 4.791 6.31025C4.82955 6.28569 4.87796 6.25725 4.95461 6.24815C4.9747 6.19587 4.99422 6.13625 5.01239 6.06385L4.51702 5.23824L4.33245 5.60737L3.96332 4.86914L3.59418 5.60737L3.40962 5.23824L2.91455 6.06336C2.93264 6.13573 2.95213 6.19561 2.97225 6.24823C3.0486 6.25722 3.09679 6.28565 3.13523 6.31033Z" fill="white"/>
<path d="M4.865 6.42735C4.81885 6.45672 4.76138 6.49351 4.65448 6.49351C4.5477 6.49351 4.49022 6.45672 4.44407 6.42735C4.4036 6.40139 4.37441 6.38281 4.30799 6.38281C4.24175 6.38281 4.21256 6.40136 4.17228 6.42735C4.12613 6.45672 4.06873 6.49351 3.96202 6.49351C3.85524 6.49351 3.79784 6.45672 3.75169 6.4272C3.71141 6.40143 3.68229 6.38289 3.61606 6.38289C3.54982 6.38289 3.52071 6.40143 3.48042 6.4272C3.43427 6.45676 3.37687 6.49351 3.27017 6.49351C3.16353 6.49351 3.10621 6.45672 3.06021 6.4272C3.05998 6.42708 3.0598 6.42693 3.05957 6.42678C3.09575 6.49245 3.1319 6.55275 3.16793 6.60744C3.19486 6.62222 3.22304 6.63192 3.27017 6.63192C3.3364 6.63192 3.36552 6.61338 3.4058 6.58762C3.45195 6.55805 3.50935 6.5213 3.61606 6.5213C3.72277 6.5213 3.78016 6.55809 3.82631 6.58747C3.8666 6.61342 3.89579 6.632 3.96202 6.632C4.02826 6.632 4.05737 6.61346 4.09766 6.58769C4.14381 6.55813 4.2012 6.52138 4.30799 6.52138C4.41485 6.52138 4.47236 6.55816 4.51851 6.58754C4.55898 6.61349 4.58806 6.63208 4.65452 6.63208C4.70236 6.63208 4.73076 6.62222 4.7581 6.60714C4.7941 6.55252 4.83025 6.49223 4.86639 6.42663C4.8659 6.42682 4.86549 6.42708 4.865 6.42735Z" fill="white"/>
<path d="M3.97128 4.23195L4.00366 4.33779L4.1115 4.31293C4.1188 4.31124 4.12391 4.32008 4.1188 4.32553L4.04334 4.40651L4.1188 4.48749C4.12391 4.49299 4.11883 4.50183 4.1115 4.5001L4.00366 4.47523L3.97128 4.58108C3.9691 4.58826 3.9589 4.58826 3.95672 4.58108L3.92434 4.47523L3.8165 4.5001C3.8092 4.50179 3.80409 4.49295 3.8092 4.48749L3.88465 4.40651L3.8092 4.32553C3.80409 4.32004 3.80917 4.3112 3.8165 4.31293L3.92434 4.33779L3.95672 4.23195C3.95894 4.22477 3.9691 4.22477 3.97128 4.23195Z" fill="#F8CB32"/>
<path d="M3.44052 3.72414L3.4729 3.82998L3.58074 3.80512C3.58804 3.80343 3.59315 3.81227 3.58804 3.81772L3.51258 3.8987L3.58804 3.97968C3.59315 3.98517 3.58807 3.99401 3.58074 3.99228L3.4729 3.96742L3.44052 4.07326C3.43833 4.08045 3.42814 4.08045 3.42596 4.07326L3.39358 3.96742L3.28574 3.99228C3.27844 3.99397 3.27333 3.98514 3.27844 3.97968L3.35389 3.8987L3.27844 3.81772C3.27333 3.81223 3.2784 3.80339 3.28574 3.80512L3.39358 3.82998L3.42596 3.72414C3.42814 3.71695 3.4383 3.71695 3.44052 3.72414Z" fill="#F8CB32"/>
<path d="M4.50546 3.72414L4.53784 3.82998L4.64568 3.80512C4.65298 3.80343 4.65809 3.81227 4.65298 3.81772L4.57753 3.8987L4.65298 3.97968C4.65809 3.98517 4.65301 3.99401 4.64568 3.99228L4.53784 3.96742L4.50546 4.07326C4.50328 4.08045 4.49308 4.08045 4.4909 4.07326L4.45852 3.96742L4.35068 3.99228C4.34338 3.99397 4.33827 3.98514 4.34338 3.97968L4.41883 3.8987L4.34338 3.81772C4.33827 3.81223 4.34334 3.80339 4.35068 3.80512L4.45852 3.82998L4.4909 3.72414C4.49312 3.71695 4.50328 3.71695 4.50546 3.72414Z" fill="#F8CB32"/>
<path d="M5.43365 3.66992C5.43478 3.72879 5.43572 3.78818 5.43572 3.85231C5.40909 4.51821 5.31002 5.96835 5.09412 6.40511C4.7758 7.04439 4.48189 7.2557 3.96366 7.45042C3.44542 7.25573 3.15155 7.04446 2.83346 6.4056C2.61677 5.96718 2.51698 4.49237 2.49151 3.85235C2.49151 3.78814 2.49257 3.72943 2.49347 3.67007C2.4296 3.69508 2.36611 3.72153 2.30322 3.74993C2.30766 3.87924 2.33986 4.72757 2.43656 5.47347C2.4911 5.88989 2.56618 6.27365 2.66837 6.47823C3.03837 7.21357 3.41033 7.42789 3.96369 7.626C4.5171 7.42781 4.88901 7.21342 5.25905 6.47823C5.36128 6.27365 5.43632 5.88989 5.4909 5.47347C5.58757 4.72757 5.61972 3.87924 5.6242 3.74993C5.5612 3.72145 5.49767 3.69493 5.43365 3.66992Z" fill="#FF1722"/>
</g>
<defs>
<clipPath id="clip0_5367_189725">
<rect x="1" y="0.841797" width="14" height="14" rx="2" fill="white"/>
</clipPath>
</defs>
</svg>
