<svg width="16" height="16" viewBox="0 0 16 16" fill="none" xmlns="http://www.w3.org/2000/svg">
<g clip-path="url(#clip0_5367_189716)">
<rect x="1" y="0.841797" width="14" height="14" rx="2" fill="white"/>
<path d="M15 10.1745V5.50781H1V10.1745H15Z" fill="#41479B"/>
<path d="M1 10.1758H15V14.474C15 14.6775 14.8919 14.8424 14.7586 14.8424H1.24139C1.10809 14.8424 1 14.6775 1 14.474V10.1758Z" fill="#FF334B"/>
<path d="M4.19489 10.4245C4.11324 10.3776 2.19434 9.26151 2.19434 7.54598V5.20117H6.33226V7.54598C6.33226 9.26151 4.41336 10.3776 4.33171 10.4245L4.2633 10.4635L4.19489 10.4245Z" fill="#FF334B"/>
<path d="M5.34718 7.13053L4.6969 7.21618H4.48019V6.82812H4.61022L5.1304 6.91378L5.05997 6.61137L5.1304 6.30897L4.61022 6.39459H4.48019V6.26353L4.56581 5.61328L4.26344 5.70137L3.96106 5.61328L4.04669 6.26353V6.39459H3.91659L3.39644 6.30897L3.46687 6.61137L3.39644 6.91378L3.91659 6.82812H4.04669V7.21618H3.82994L3.17969 7.13053L3.26775 7.4329L3.17969 7.73531L3.82994 7.64965H4.04669V8.64777H4.48019V7.64965H4.6969L5.34718 7.73531L5.25912 7.4329L5.34718 7.13053Z" fill="white"/>
<path d="M4.26346 8.23438C3.97853 8.23438 3.73415 8.40725 3.62903 8.65372C3.61046 8.65219 3.59271 8.64816 3.57381 8.64816C3.20659 8.64816 2.90925 8.93597 2.88818 9.29787C3.44678 9.9855 4.14643 10.3952 4.19506 10.4232L4.26346 10.4623L4.33187 10.4232C4.38049 10.3952 5.08015 9.98553 5.63874 9.29787C5.61768 8.93597 5.32034 8.64816 4.95312 8.64816C4.93421 8.64816 4.91646 8.65219 4.8979 8.65372C4.79277 8.40725 4.5484 8.23438 4.26346 8.23438Z" fill="#41479B"/>
<path d="M6.19457 5.33837C6.19457 5.33837 6.19457 6.99356 6.19457 7.54528C6.19457 9.20046 4.26354 10.3039 4.26354 10.3039C4.26354 10.3039 2.33252 9.20046 2.33252 7.54528C2.33252 6.99356 2.33252 5.33837 2.33252 5.33837H6.19457ZM6.47041 5.0625H6.19454H2.33252H2.05664V5.33837V7.54528C2.05664 9.3399 4.04217 10.4951 4.12667 10.5434L4.26354 10.6216L4.40042 10.5434C4.48495 10.4951 6.47045 9.33987 6.47045 7.54528V5.33837V5.0625H6.47041Z" fill="white"/>
</g>
<defs>
<clipPath id="clip0_5367_189716">
<rect x="1" y="0.841797" width="14" height="14" rx="2" fill="white"/>
</clipPath>
</defs>
</svg>
