<svg width="16" height="16" viewBox="0 0 16 16" fill="none" xmlns="http://www.w3.org/2000/svg">
<g clip-path="url(#clip0_5367_189632)">
<rect x="1" y="15" width="14" height="14" rx="2" transform="rotate(-90 1 15)" fill="#464655"/>
<path d="M1 14.7586L0.999999 1.24139C0.999999 1.10809 1.16498 1 1.36844 1L5.66667 1L5.66667 15L1.36844 15C1.16498 15 1 14.8919 1 14.7586Z" fill="#73AF00"/>
<path d="M5.6665 1L5.6665 15L10.3332 15L10.3332 1L5.6665 1Z" fill="#F8CB32"/>
<path d="M10.3335 15L10.3335 1L14.6317 1C14.8352 1 15.0002 1.10809 15.0002 1.24139L15.0002 14.7586C15.0002 14.8919 14.8352 15 14.6317 15L10.3335 15Z" fill="#FF334B"/>
<path d="M8.07062 6.30871L8.47524 7.52196L9.75413 7.53189C9.82565 7.53248 9.85531 7.62372 9.79776 7.66618L8.76895 8.42589L9.1547 9.64526C9.17626 9.71347 9.09864 9.76987 9.04044 9.72828L8.00003 8.98455L6.95956 9.72824C6.90136 9.76983 6.82374 9.71343 6.8453 9.64523L7.23105 8.42586L6.20224 7.66615C6.14469 7.62366 6.17435 7.53241 6.24587 7.53185L7.52476 7.52192L7.92938 6.30867C7.95204 6.24085 8.04803 6.24085 8.07062 6.30871Z" fill="#73AF00"/>
</g>
<defs>
<clipPath id="clip0_5367_189632">
<rect x="1" y="15" width="14" height="14" rx="2" transform="rotate(-90 1 15)" fill="white"/>
</clipPath>
</defs>
</svg>
