<svg width="16" height="16" viewBox="0 0 16 16" fill="none" xmlns="http://www.w3.org/2000/svg">
<rect x="1" y="15" width="14" height="14" rx="2" transform="rotate(-90 1 15)" fill="#82AFFF"/>
<path d="M7.86557 4.71987L7.08 7.07546L4.5969 7.09472C4.46073 7.09578 4.40435 7.26949 4.51383 7.35039L6.51133 8.82546L5.76231 11.1929C5.7212 11.3227 5.86903 11.43 5.97973 11.3508L7.99998 9.90701L10.0202 11.351C10.1309 11.4301 10.2787 11.3227 10.2376 11.193L9.48859 8.82551L11.4861 7.35044C11.5956 7.26955 11.5392 7.09583 11.403 7.09477L8.91991 7.07552L8.13434 4.71992C8.09127 4.59076 7.9087 4.59076 7.86557 4.71987Z" fill="white"/>
</svg>
