<svg width="16" height="16" viewBox="0 0 16 16" fill="none" xmlns="http://www.w3.org/2000/svg">
<g clip-path="url(#clip0_5367_189617)">
<rect x="1" y="1" width="14" height="14" rx="2" fill="#464655"/>
<path d="M1 10.334L15 10.334V14.6322C15 14.8357 14.8919 15.0007 14.7586 15.0007L1.24139 15.0007C1.10809 15.0007 1 14.8357 1 14.6322L1 10.334Z" fill="#73AF00"/>
<path d="M1.01172 5.66406H15V10.3341H1.01172V5.66406Z" fill="#FF334B"/>
<path fill-rule="evenodd" clip-rule="evenodd" d="M15 5.96523H1.01172V5.36523H15V5.96523ZM1.01172 10.0352H15V10.6352H1.01172V10.0352Z" fill="white"/>
<path d="M1.10175 16.016L7.44052 8.30712C7.53258 8.19518 7.53258 7.98098 7.44052 7.869L1.10175 0.160156C1.04097 0.237669 1 0.349988 1 0.480596V15.6955C1 15.8262 1.04097 15.9385 1.10175 16.016Z" fill="#41479B"/>
<path d="M3.2364 6.64964L3.85612 7.28392L4.65686 6.90292C4.76052 6.85358 4.86733 6.96461 4.81405 7.0663L4.40233 7.85167L5.01211 8.49548C5.09108 8.57883 5.01849 8.71473 4.9053 8.69545L4.03115 8.54655L3.60727 9.32545C3.5524 9.42629 3.40071 9.39923 3.38409 9.28567L3.25552 8.40826L2.38378 8.24586C2.2709 8.22483 2.24978 8.07223 2.35268 8.0213L3.14743 7.62792L3.03249 6.74861C3.01759 6.63477 3.15615 6.56755 3.2364 6.64964Z" fill="#F8CB32"/>
</g>
<defs>
<clipPath id="clip0_5367_189617">
<rect x="1" y="1" width="14" height="14" rx="2" fill="white"/>
</clipPath>
</defs>
</svg>
