<svg width="16" height="16" viewBox="0 0 16 16" fill="none" xmlns="http://www.w3.org/2000/svg">
<g clip-path="url(#clip0_5367_189415)">
<rect x="0.933594" y="0.865234" width="14" height="14" rx="2" fill="#41479B"/>
<path d="M9.02929 7.86523C8.97643 7.86523 8.93359 7.90807 8.93359 7.96093V9.58762C8.93359 12.8411 11.2302 13.4152 11.2302 13.4152C11.2302 13.4152 13.5267 12.841 13.5267 9.58762V7.96093C13.5267 7.90807 13.4839 7.86523 13.431 7.86523H9.02929V7.86523Z" fill="#F8CB32"/>
<path d="M13.2875 8.10447V9.58762C13.2875 12.3548 11.5771 13.0528 11.2303 13.1658C10.8815 13.052 9.17283 12.3533 9.17283 9.58762V8.10447H13.2875ZM13.431 7.86523H9.02929C8.97643 7.86523 8.93359 7.90807 8.93359 7.96093V9.58762C8.93359 12.8411 11.2302 13.4152 11.2302 13.4152C11.2302 13.4152 13.5267 12.841 13.5267 9.58762V7.96093C13.5267 7.90807 13.4839 7.86523 13.431 7.86523Z" fill="white"/>
<path d="M11.4871 10.8965H10.9975C10.9975 10.8965 10.6027 11.2913 10.5122 12.1585C10.5092 12.1862 10.5205 12.2141 10.5424 12.2314C10.6254 12.2964 10.8586 12.4467 11.2423 12.4467C11.6259 12.4467 11.8591 12.2964 11.9422 12.2314C11.9641 12.2142 11.9752 12.1862 11.9723 12.1585C11.8819 11.2913 11.4871 10.8965 11.4871 10.8965Z" fill="#73AF00"/>
<path d="M11.4881 10.8148H10.9985V10.4069C10.9985 10.2723 11.1087 10.1621 11.2433 10.1621C11.3779 10.1621 11.488 10.2723 11.488 10.4069V10.8148H11.4881Z" fill="#FF334B"/>
<path d="M11.4877 10.9777H10.9981C10.953 10.9777 10.9165 10.9411 10.9165 10.8961C10.9165 10.851 10.953 10.8145 10.9981 10.8145H11.4877C11.5327 10.8145 11.5693 10.851 11.5693 10.8961C11.5692 10.9411 11.5327 10.9777 11.4877 10.9777Z" fill="#FF334B"/>
<path d="M13.1186 9.17374C13.1041 9.17374 12.8913 9.17473 12.6698 9.2128V9.08524C12.8567 8.99997 13.0398 8.95584 13.0429 8.9551C13.0648 8.94994 13.0785 8.928 13.0733 8.90606C13.0681 8.88417 13.0462 8.87047 13.0243 8.87568C13.0119 8.87851 12.8475 8.91807 12.6683 8.99605C12.6654 8.94716 12.6484 8.90229 12.6209 8.86526C12.7671 8.75209 12.8916 8.68017 12.894 8.67888C12.9135 8.66771 12.9204 8.64285 12.9093 8.62324C12.898 8.60363 12.8731 8.59683 12.8536 8.60795C12.8437 8.61361 12.7131 8.68896 12.5614 8.80743C12.5224 8.78113 12.4755 8.76579 12.425 8.76579C12.3726 8.76579 12.3241 8.78272 12.2842 8.81091C12.3261 8.60095 12.4121 8.51007 12.4133 8.50893C12.429 8.493 12.429 8.46724 12.4131 8.4514C12.3972 8.43547 12.3714 8.43547 12.3554 8.4514C12.3506 8.45627 12.2713 8.53812 12.2211 8.72201C12.1708 8.53807 12.0916 8.45622 12.0867 8.4514C12.0709 8.43557 12.0453 8.43557 12.0292 8.45135C12.0133 8.46714 12.0131 8.49295 12.0288 8.50898C12.03 8.51012 12.116 8.60105 12.1578 8.81096C12.118 8.78277 12.0695 8.76584 12.0171 8.76584C11.9666 8.76584 11.9197 8.78123 11.8807 8.80748C11.729 8.68896 11.5984 8.61366 11.5885 8.608C11.5689 8.59683 11.5439 8.60368 11.5328 8.62329C11.5217 8.64289 11.5285 8.66776 11.5481 8.67893C11.5504 8.68022 11.675 8.75209 11.8213 8.86526C11.7937 8.90234 11.7767 8.94721 11.7738 8.9961C11.5946 8.91807 11.4301 8.87856 11.4178 8.87573C11.3958 8.87047 11.3739 8.88422 11.3688 8.90611C11.3636 8.92805 11.3773 8.95004 11.3992 8.95515C11.4023 8.95584 11.5854 8.99997 11.7723 9.08529V9.21285C11.5508 9.17473 11.338 9.17379 11.3235 9.17379C11.301 9.17379 11.2827 9.19201 11.2827 9.21459C11.2827 9.23713 11.3009 9.25539 11.3235 9.25539C11.327 9.25539 11.55 9.25628 11.7723 9.29569V9.42767C11.6499 9.424 11.5133 9.44112 11.3868 9.50446C11.3667 9.51453 11.3586 9.53901 11.3686 9.55916C11.3758 9.57345 11.3902 9.58174 11.4052 9.58174C11.4113 9.58174 11.4175 9.58035 11.4233 9.57742C11.536 9.52119 11.66 9.50649 11.7722 9.51027V10.0151C11.7722 10.0767 11.7661 10.1386 11.754 10.1991L11.6915 10.512C11.687 10.5341 11.7014 10.5556 11.7234 10.56C11.7261 10.5605 11.7288 10.5608 11.7315 10.5608C11.7505 10.5608 11.7675 10.5475 11.7715 10.528L11.8341 10.2151C11.8472 10.1494 11.8539 10.0821 11.8539 10.0151V9.51637C11.9151 9.52322 11.97 9.53424 12.0142 9.54531L12.0454 9.94934C12.0492 9.99972 12.0744 10.0432 12.1112 10.0727L11.9789 10.2712C11.908 10.3775 11.9842 10.5199 12.112 10.5199H12.33C12.4577 10.5199 12.534 10.3775 12.4631 10.2712L12.3308 10.0727C12.3676 10.0432 12.3928 9.99967 12.3966 9.94934L12.4277 9.54531C12.4719 9.53424 12.5269 9.52322 12.5881 9.51637V10.0151C12.5881 10.0821 12.5947 10.1493 12.6079 10.2151L12.6705 10.528C12.6743 10.5474 12.6914 10.5608 12.7105 10.5608C12.7131 10.5608 12.7158 10.5606 12.7185 10.5599C12.7406 10.5555 12.7549 10.534 12.7505 10.5119L12.6879 10.1991C12.6758 10.1386 12.6697 10.0767 12.6697 10.015V9.51012C12.7819 9.50635 12.906 9.52104 13.0186 9.57727C13.0245 9.58015 13.0307 9.58159 13.0368 9.58159C13.0517 9.58159 13.0661 9.5733 13.0733 9.55901C13.0834 9.53886 13.0752 9.51439 13.0551 9.50431C12.9287 9.44112 12.7921 9.42395 12.6697 9.42757V9.29555C12.8919 9.25614 13.1149 9.25524 13.1184 9.25524C13.141 9.25524 13.1592 9.23693 13.1592 9.21444C13.1594 9.19196 13.1411 9.17374 13.1186 9.17374ZM12.5882 9.22844C12.5395 9.23901 12.4915 9.25157 12.4463 9.26661C12.4454 9.25053 12.4431 9.23494 12.4391 9.21985C12.4843 9.18491 12.5351 9.15319 12.5883 9.1251V9.22844H12.5882ZM12.5882 9.01054V9.03313C12.5236 9.06524 12.46 9.10247 12.403 9.1447C12.3912 9.12852 12.3775 9.11398 12.3618 9.10147C12.4228 9.03387 12.4907 8.97123 12.5574 8.91599C12.5767 8.94264 12.5882 8.9752 12.5882 9.01054ZM12.4251 8.84734C12.4494 8.84734 12.4723 8.85305 12.493 8.86263C12.4225 8.92184 12.3511 8.9892 12.2871 9.06226C12.2787 9.05968 12.2706 9.05715 12.2618 9.05556V9.05124C12.2618 9.03268 12.2625 9.01506 12.2631 8.99754C12.2699 8.91375 12.3395 8.84734 12.4251 8.84734ZM12.0171 8.84734C12.1027 8.84734 12.1723 8.9137 12.179 8.99759C12.1796 9.01511 12.1803 9.03268 12.1803 9.05129V9.05561C12.1716 9.0572 12.1633 9.05973 12.155 9.06231C12.091 8.98925 12.0195 8.92189 11.9491 8.86268C11.9699 8.85305 11.9928 8.84734 12.0171 8.84734ZM11.854 9.01054C11.854 8.97515 11.8655 8.94264 11.8847 8.91589C11.9515 8.97113 12.0193 9.03382 12.0803 9.10137C12.0646 9.11388 12.051 9.12847 12.0392 9.14466C11.9822 9.10242 11.9186 9.06519 11.8539 9.03308L11.854 9.01054ZM11.854 9.12515C11.9071 9.15324 11.9579 9.18496 12.0032 9.2199C11.9991 9.23504 11.9968 9.25058 11.996 9.26661C11.9507 9.25157 11.9028 9.23901 11.854 9.22844V9.12515H11.854ZM11.854 9.43333V9.31217C11.9051 9.32374 11.9544 9.33773 11.9996 9.35456L12.0077 9.45904C11.9633 9.44872 11.9112 9.43929 11.854 9.43333ZM12.5882 9.43338C12.531 9.43934 12.4788 9.44877 12.4345 9.45909L12.4425 9.35461C12.4878 9.33778 12.5371 9.32384 12.5882 9.31222V9.43338Z" fill="#D35A10"/>
<path d="M10.5413 10.2745H10.358L9.65773 9.65204C9.58119 9.58409 9.54883 9.47921 9.57365 9.37989L9.76891 8.59878C9.78618 8.52964 9.87225 8.50582 9.92258 8.55625L10.2395 8.87317C10.2567 8.89034 10.28 8.90002 10.3043 8.90002H10.5412V10.2746L10.5413 10.2745Z" fill="#FFA033"/>
<path d="M10.4097 8.71184L10.2973 9.21797C10.2769 9.30969 10.2803 9.40519 10.3073 9.49523L10.541 10.2743H10.7243L10.9579 9.49523C10.9849 9.40519 10.9885 9.30974 10.968 9.21797L10.8556 8.71184C10.8324 8.60746 10.7398 8.5332 10.6328 8.5332H10.6323C10.5254 8.53315 10.4328 8.60746 10.4097 8.71184Z" fill="#FF9480"/>
<path d="M10.6334 8.7168C10.5826 8.7168 10.5415 8.7578 10.5415 8.80842V10.2746H10.7252V8.80842C10.7252 8.7578 10.6841 8.7168 10.6334 8.7168Z" fill="#FFA0E4"/>
<g clip-path="url(#clip1_5367_189415)">
<rect width="9.61523" height="6.28688" transform="translate(0.869141 0.839844)" fill="#41479B"/>
<path d="M10.332 0.714844H9.733L6.53885 2.8033V0.714844H4.8147V2.8033L1.62055 0.714844H1.0216C0.831172 0.714844 0.676758 0.868945 0.676758 1.05899V1.33195L3.4172 3.12375H0.676758V4.8444H3.4172L0.676758 6.63624V6.90916C0.676758 7.0992 0.831172 7.25331 1.0216 7.25331H1.62055L4.8147 5.16484V7.25331H6.53885V5.16484L9.73296 7.25331H10.3319C10.5223 7.25331 10.6768 7.0992 10.6768 6.90916V6.6362L7.93636 4.8444H10.6768V3.12375H7.93632L10.6768 1.33195V1.05899C10.6768 0.868945 10.5224 0.714844 10.332 0.714844Z" fill="white"/>
<path d="M10.6768 3.46789H6.19401V0.714844H5.15951V3.46789H0.676758V4.50025H5.15951V7.25331H6.19401V4.50025H10.6768V3.46789Z" fill="#FF334B"/>
<path d="M4.81738 3.11059L0.856151 0.714844C0.750741 0.777021 0.676758 0.881431 0.676758 1.0063V1.0245L4.12599 3.11059H4.81738Z" fill="#FF334B"/>
<path d="M7.17608 3.11059L10.6428 0.886481C10.5826 0.785716 10.4763 0.714844 10.3492 0.714844H10.2743L6.54004 3.11059H7.17608Z" fill="#FF334B"/>
<path d="M4.18202 4.84961L0.725586 7.07591C0.785188 7.17942 0.893029 7.25233 1.0218 7.25233H1.08704L4.81738 4.84961H4.18202Z" fill="#FF334B"/>
<path d="M10.6767 6.93504L7.46121 4.84961H6.83057L10.482 7.21777C10.5914 7.16706 10.6664 7.06076 10.6767 6.93504Z" fill="#FF334B"/>
</g>
</g>
<defs>
<clipPath id="clip0_5367_189415">
<rect x="0.933594" y="0.865234" width="14" height="14" rx="2" fill="white"/>
</clipPath>
<clipPath id="clip1_5367_189415">
<rect width="9.61523" height="6.28688" fill="white" transform="translate(0.869141 0.839844)"/>
</clipPath>
</defs>
</svg>
