<svg width="16" height="16" viewBox="0 0 16 16" fill="none" xmlns="http://www.w3.org/2000/svg">
<g clip-path="url(#clip0_5367_189388)">
<rect x="15" y="1" width="14" height="14" rx="2" transform="rotate(90 15 1)" fill="#F8CB32"/>
<path d="M1.10175 15L9 8L1.10175 1C1.04097 1.06844 1 1.16761 1 1.28293V14.717C1 14.8324 1.04097 14.9316 1.10175 15Z" fill="white"/>
<path d="M3.89705 8.89469C4.39221 8.89469 4.79361 8.49328 4.79361 7.99813C4.79361 7.50297 4.39221 7.10156 3.89705 7.10156C3.40189 7.10156 3.00049 7.50297 3.00049 7.99813C3.00049 8.49328 3.40189 8.89469 3.89705 8.89469Z" fill="#F8CB32"/>
<path d="M3.89725 7.99817L3.56104 6.65336L3.89725 6.20508L4.23344 6.65336L3.89725 7.99817Z" fill="#F8CB32"/>
<path d="M3.89725 7.99805L4.23344 9.34286L3.89725 9.79114L3.56104 9.34286L3.89725 7.99805Z" fill="#F8CB32"/>
<path d="M3.89713 7.99833L2.55229 8.33455L2.104 7.99833L2.55229 7.66211L3.89713 7.99833Z" fill="#F8CB32"/>
<path d="M3.89697 7.99833L5.24179 7.66211L5.69007 7.99833L5.24179 8.33455L3.89697 7.99833Z" fill="#F8CB32"/>
<path d="M3.89697 7.99841L4.61016 6.80975L5.16488 6.73047L5.08563 7.28519L3.89697 7.99841Z" fill="#F8CB32"/>
<path d="M3.89733 7.99805L3.18411 9.1867L2.62939 9.26598L2.70868 8.71127L3.89733 7.99805Z" fill="#F8CB32"/>
<path d="M3.89733 7.99841L2.70868 7.28519L2.62939 6.73047L3.18411 6.80975L3.89733 7.99841Z" fill="#F8CB32"/>
<path d="M3.89697 7.99805L5.08563 8.71127L5.16488 9.26598L4.61016 9.1867L3.89697 7.99805Z" fill="#F8CB32"/>
<path d="M1.7397 4.11443L1.78645 4.46318L1.47157 4.6203C1.43082 4.64065 1.43938 4.70118 1.48423 4.70936L1.83035 4.77268L1.88248 5.12068C1.88923 5.16574 1.94945 5.17627 1.9711 5.13615L2.13829 4.82652L2.48535 4.88446C2.53029 4.89199 2.55892 4.83793 2.52748 4.80499L2.28467 4.5503L2.44701 4.23811C2.46804 4.19771 2.42548 4.15377 2.38442 4.17349L2.06717 4.32574L1.82045 4.07483C1.78857 4.0424 1.73367 4.0693 1.7397 4.11443Z" fill="#F8CB32"/>
<path d="M1.87883 10.9028L1.81976 11.2497L1.47245 11.3061C1.42748 11.3134 1.4177 11.3737 1.45804 11.3949L1.7697 11.5582L1.71604 11.906C1.70911 11.951 1.76345 11.9789 1.79604 11.9471L2.0477 11.7012L2.36189 11.8597C2.40258 11.8802 2.44595 11.8371 2.42576 11.7963L2.26964 11.481L2.51745 11.2312C2.54951 11.1988 2.52201 11.1443 2.47689 11.1509L2.1287 11.2019L1.9677 10.889C1.94686 10.8485 1.88642 10.8578 1.87883 10.9028Z" fill="#F8CB32"/>
<path d="M7.3361 7.48506L7.13356 7.77281L6.79575 7.67437C6.75203 7.66162 6.71722 7.71191 6.74453 7.74834L6.95563 8.02987L6.7576 8.32075C6.73197 8.35841 6.769 8.40703 6.81213 8.39231L7.1451 8.27856L7.36053 8.55678C7.38844 8.59281 7.44613 8.57256 7.44544 8.52703L7.44013 8.17522L7.77131 8.05628C7.81419 8.04087 7.81278 7.97975 7.76925 7.96634L7.43297 7.86266L7.42222 7.51094C7.42091 7.46534 7.36231 7.44778 7.3361 7.48506Z" fill="#F8CB32"/>
<path d="M1.24139 1H14.7586C14.8919 1 15 1.09899 15 1.22106V3.8H1V1.22106C1 1.09899 1.10809 1 1.24139 1Z" fill="#73AF00"/>
<path d="M15 3.80078H1V6.60078H15V3.80078Z" fill="#F8CB32"/>
<path d="M15 6.59961H1V9.39961H15V6.59961Z" fill="#73AF00"/>
<path d="M15 9.40039H1V12.2004H15V9.40039Z" fill="#F8CB32"/>
<path d="M1 12.1992H15V14.7782C15 14.9002 14.8919 14.9992 14.7586 14.9992H1.24139C1.10809 14.9992 1 14.9002 1 14.7782V12.1992Z" fill="#73AF00"/>
<path d="M6.99279 6.73108H1.1997C1.04736 6.73108 0.923828 6.60755 0.923828 6.45521V0.717281C0.923828 0.564937 1.04736 0.441406 1.1997 0.441406H6.99279C7.14513 0.441406 7.26866 0.564937 7.26866 0.717281V6.45521C7.26863 6.60755 7.14513 6.73108 6.99279 6.73108Z" fill="#FF334B"/>
<path d="M4.02806 1.92221L3.62937 3.11759L2.36931 3.12734C2.30025 3.1279 2.27159 3.21602 2.32719 3.25706L3.34087 4.00562L2.96078 5.20705C2.93997 5.27293 3.01497 5.3274 3.07112 5.28724L4.09631 4.55449L5.12149 5.28724C5.17771 5.32743 5.25271 5.27293 5.23184 5.20705L4.85174 4.00565L5.86543 3.25709C5.92102 3.21606 5.89237 3.12787 5.8233 3.12737L4.56324 3.11762L4.16446 1.92225C4.14259 1.85665 4.0499 1.85665 4.02806 1.92221Z" fill="white"/>
</g>
<defs>
<clipPath id="clip0_5367_189388">
<rect x="15" y="1" width="14" height="14" rx="2" transform="rotate(90 15 1)" fill="white"/>
</clipPath>
</defs>
</svg>
