<svg width="16" height="16" viewBox="0 0 16 16" fill="none" xmlns="http://www.w3.org/2000/svg">
<g clip-path="url(#clip0_5367_189367)">
<rect x="1" y="1" width="14" height="14" rx="2" fill="#FF334B"/>
<path d="M15 10.3327V5.66602H1V10.3327H15Z" fill="white"/>
<path d="M1 10.334H15V14.6322C15 14.8357 14.8919 15.0007 14.7586 15.0007H1.24139C1.10809 15.0007 1 14.8357 1 14.6322V10.334Z" fill="#73AF00"/>
<path d="M6.92651 9.14471C7.06266 9.07611 7.14232 8.96303 7.18495 8.88141C7.42888 9.04079 7.6379 8.98666 7.74682 8.93569C7.85311 8.8859 7.94063 8.80469 7.99903 8.72192C8.05746 8.80469 8.14498 8.8859 8.25123 8.93569C8.36012 8.98666 8.56914 9.04068 8.81311 8.88141C8.8557 8.96303 8.93535 9.07607 9.07154 9.14471C9.15005 9.18426 9.23656 9.2041 9.33046 9.2041C9.42692 9.2041 9.5311 9.18322 9.6424 9.14152L9.58834 8.99735C9.41134 9.06372 9.26116 9.06732 9.14222 9.00796C8.97571 8.92497 8.92014 8.74195 8.91969 8.74043L8.88723 8.62679L8.79645 8.7024C8.63625 8.83581 8.47038 8.86854 8.31653 8.79627C8.1603 8.72311 8.07597 8.57504 8.07597 8.53063V7.86629C8.10929 7.79301 8.18278 7.7417 8.26837 7.7417C8.29779 7.7417 8.32688 7.74809 8.35477 7.76066L8.45005 7.80366L8.43565 7.70008C8.40545 7.48245 8.21769 7.31836 7.99899 7.31836C7.78025 7.31836 7.59252 7.48245 7.56232 7.70008L7.54793 7.80366L7.6432 7.76066C7.67106 7.74809 7.70019 7.7417 7.72961 7.7417C7.8152 7.7417 7.88873 7.79301 7.92201 7.86629V8.53063C7.92201 8.57504 7.83772 8.72311 7.68145 8.79627C7.52767 8.8685 7.36173 8.83589 7.20153 8.7024L7.11141 8.62776L7.07828 8.74013C7.07776 8.74195 7.02215 8.92497 6.85565 9.00796C6.73659 9.06735 6.58649 9.06379 6.40952 8.99735L6.35547 9.14152C6.46673 9.18322 6.57098 9.2041 6.6674 9.2041C6.76145 9.20407 6.84797 9.18429 6.92651 9.14471ZM7.72961 7.62621C7.72041 7.62621 7.71124 7.62658 7.70208 7.6274C7.75361 7.51254 7.86884 7.43378 7.99899 7.43378C8.1291 7.43378 8.24437 7.51254 8.2959 7.6274C8.17621 7.61686 8.06299 7.67533 7.99899 7.76797C7.93993 7.68234 7.8412 7.62621 7.72961 7.62621Z" fill="#F4B60D"/>
<path d="M6.66602 9.63302L6.7148 9.77901C7.04206 9.66979 7.51015 9.60713 7.9989 9.60713C8.48765 9.60713 8.95574 9.66979 9.283 9.77901L9.33178 9.63302C8.98943 9.51868 8.50357 9.45312 7.9989 9.45312C7.49423 9.45316 7.00837 9.51868 6.66602 9.63302Z" fill="#F4B60D"/>
<path d="M7.99911 9.30004C8.07936 9.3003 8.15003 9.25259 8.19793 9.18837C8.1661 9.16871 8.12358 9.15721 8.07543 9.15123C8.07546 9.14949 8.07606 9.1479 8.07606 9.14611C8.07606 9.08011 8.04489 9.02313 7.99911 8.99219C7.95329 9.02313 7.92217 9.08011 7.92217 9.14611C7.92217 9.14786 7.92272 9.14945 7.9228 9.15123C7.87468 9.15721 7.83216 9.16867 7.80029 9.18837C7.84811 9.25259 7.91883 9.30023 7.99911 9.30004Z" fill="#F4B60D"/>
<path d="M7.29283 9.37194C7.37148 9.35613 7.43125 9.29525 7.46531 9.22276C7.43017 9.20985 7.38621 9.2071 7.3379 9.21088C7.33757 9.20918 7.33783 9.20747 7.33746 9.20573C7.32429 9.1411 7.28237 9.09146 7.23128 9.07031C7.19259 9.10982 7.17344 9.17189 7.18665 9.23652C7.18702 9.23826 7.18787 9.23971 7.18824 9.24142C7.14231 9.25689 7.10291 9.27662 7.07568 9.3023C7.13545 9.35565 7.21421 9.38822 7.29283 9.37194Z" fill="#F4B60D"/>
<path d="M8.76723 9.07031C8.71614 9.09146 8.67422 9.1411 8.66105 9.20573C8.66068 9.20747 8.66094 9.20914 8.6606 9.21088C8.6123 9.2071 8.56834 9.20985 8.5332 9.22276C8.56726 9.29529 8.62703 9.35613 8.70568 9.37193C8.78429 9.38822 8.86306 9.35565 8.92286 9.30226C8.89559 9.27663 8.85623 9.25685 8.8103 9.24138C8.81071 9.23967 8.81156 9.23823 8.8119 9.23648C8.82507 9.17189 8.80589 9.10982 8.76723 9.07031Z" fill="#F4B60D"/>
<path d="M7.97841 6.23581L7.92655 6.3913L7.76268 6.39256C7.74145 6.39271 7.73266 6.41979 7.74973 6.4324L7.88154 6.52975L7.83213 6.68602C7.82575 6.70624 7.84875 6.72297 7.86604 6.71065L7.99937 6.61534L8.13271 6.71065C8.15 6.72297 8.173 6.70627 8.16662 6.68602L8.11716 6.52975L8.24898 6.4324C8.26605 6.41979 8.25725 6.39274 8.23603 6.39256L8.07216 6.3913L8.0203 6.23581C8.01358 6.21567 7.98513 6.21567 7.97841 6.23581Z" fill="#F4B60D"/>
<path d="M7.04042 6.49167L6.98856 6.64716L6.82469 6.64842C6.80347 6.64857 6.79467 6.67565 6.81174 6.68826L6.94356 6.78561L6.8941 6.94188C6.88772 6.9621 6.91072 6.97883 6.92801 6.96651L7.06135 6.8712L7.19468 6.96651C7.21197 6.97883 7.23497 6.96213 7.22859 6.94188L7.17914 6.78561L7.31095 6.68826C7.32802 6.67565 7.31923 6.6486 7.29801 6.64842L7.13414 6.64716L7.08227 6.49167C7.07559 6.47153 7.04714 6.47153 7.04042 6.49167Z" fill="#F4B60D"/>
<path d="M6.35097 7.185L6.2991 7.34049L6.13523 7.34175C6.11401 7.3419 6.10522 7.36898 6.12229 7.38159L6.2541 7.47894L6.20468 7.63521C6.1983 7.65543 6.22131 7.67216 6.23859 7.65984L6.37193 7.56453L6.50527 7.65984C6.52256 7.67216 6.54556 7.65547 6.53918 7.63521L6.48976 7.47894L6.62157 7.38159C6.63864 7.36898 6.62985 7.34194 6.60863 7.34175L6.44476 7.34049L6.39289 7.185C6.38614 7.16489 6.35768 7.16489 6.35097 7.185Z" fill="#F4B60D"/>
<path d="M6.09755 8.12253L6.04569 8.27802L5.88182 8.27928C5.8606 8.27943 5.8518 8.30651 5.86887 8.31912L6.00068 8.41647L5.95123 8.57274C5.94485 8.59296 5.96785 8.60969 5.98514 8.59737L6.11848 8.50206L6.25181 8.59737C6.2691 8.60969 6.2921 8.59299 6.28572 8.57274L6.23627 8.41647L6.36808 8.31912C6.38515 8.30651 6.37636 8.27946 6.35514 8.27928L6.19127 8.27802L6.1394 8.12253C6.13272 8.10239 6.10427 8.10239 6.09755 8.12253Z" fill="#F4B60D"/>
<path d="M8.95922 6.49167L9.01109 6.64716L9.17496 6.64842C9.19618 6.64857 9.20497 6.67565 9.18791 6.68826L9.05609 6.78561L9.10555 6.94188C9.11193 6.9621 9.08892 6.97883 9.07164 6.96651L8.9383 6.8712L8.80496 6.96651C8.78768 6.97883 8.76467 6.96213 8.77105 6.94188L8.82051 6.78561L8.68869 6.68826C8.67163 6.67565 8.68042 6.6486 8.70164 6.64842L8.86551 6.64716L8.91738 6.49167C8.92405 6.47153 8.95251 6.47153 8.95922 6.49167Z" fill="#F4B60D"/>
<path d="M9.64868 7.185L9.70054 7.34049L9.86441 7.34175C9.88563 7.3419 9.89443 7.36898 9.87736 7.38159L9.74555 7.47894L9.795 7.63521C9.80138 7.65543 9.77838 7.67216 9.76109 7.65984L9.62775 7.56453L9.49442 7.65984C9.47713 7.67216 9.45413 7.65547 9.46051 7.63521L9.50996 7.47894L9.37815 7.38159C9.36108 7.36898 9.36987 7.34194 9.39109 7.34175L9.55496 7.34049L9.60683 7.185C9.61351 7.16489 9.64196 7.16489 9.64868 7.185Z" fill="#F4B60D"/>
<path d="M9.90217 8.12253L9.95404 8.27802L10.1179 8.27928C10.1391 8.27943 10.1479 8.30651 10.1309 8.31912L9.99904 8.41647L10.0485 8.57274C10.0548 8.59296 10.0318 8.60969 10.0145 8.59737L9.88121 8.50206L9.74787 8.59737C9.73058 8.60969 9.70758 8.59299 9.71396 8.57274L9.76338 8.41647L9.63156 8.31912C9.6145 8.30651 9.62329 8.27946 9.64451 8.27928L9.80838 8.27802L9.86025 8.12253C9.867 8.10239 9.89545 8.10239 9.90217 8.12253Z" fill="#F4B60D"/>
</g>
<defs>
<clipPath id="clip0_5367_189367">
<rect x="1" y="1" width="14" height="14" rx="2" fill="white"/>
</clipPath>
</defs>
</svg>
