<svg width="16" height="16" viewBox="0 0 16 16" fill="none" xmlns="http://www.w3.org/2000/svg">
<g clip-path="url(#clip0_5367_189357)">
<rect x="15" y="1" width="14" height="14" rx="2" transform="rotate(90 15 1)" fill="#41479B"/>
<path d="M13.7749 10.8877H4.53711C4.40957 10.8877 4.30615 10.7843 4.30615 10.6567C4.30615 10.5292 4.40957 10.4258 4.53711 10.4258H13.7749L14.0059 10.6567L13.7749 10.8877Z" fill="#F8CB32"/>
<path d="M13.8904 10.194H4.53711C4.53711 10.194 8.23222 6.03705 11.6964 5.11328C11.6964 5.11328 10.5417 8.11555 13.313 9.96312H13.8904C13.9542 9.96312 14.0059 10.0148 14.0059 10.0786C14.0058 10.1423 13.9542 10.194 13.8904 10.194Z" fill="#F8CB32"/>
<path d="M4.13406 8.85813L4.22367 9.12684L4.50689 9.12903C4.54354 9.12932 4.55877 9.17612 4.52926 9.19789L4.30142 9.36614L4.38686 9.6362C4.39793 9.67116 4.35811 9.70009 4.32829 9.67874L4.09785 9.51406L3.86742 9.67874C3.8376 9.70007 3.79778 9.67116 3.80884 9.6362L3.89429 9.36614L3.66645 9.19789C3.63694 9.1761 3.65216 9.12929 3.68881 9.12903L3.97204 9.12684L4.06165 8.85813C4.07324 8.82333 4.12245 8.82333 4.13406 8.85813Z" fill="white"/>
<path d="M4.12687 5.16373L4.19955 5.38171L4.42933 5.38349C4.4591 5.38372 4.47142 5.42169 4.44748 5.43934L4.26265 5.57586L4.33195 5.79493C4.34092 5.82332 4.30862 5.84676 4.28444 5.82947L4.09749 5.69583L3.91054 5.82947C3.88634 5.84676 3.85405 5.82329 3.86303 5.79493L3.93233 5.57586L3.7475 5.43934C3.72356 5.42169 3.73588 5.38372 3.76565 5.38349L3.99543 5.38171L4.06811 5.16373C4.07755 5.13553 4.11748 5.13553 4.12687 5.16373Z" fill="white"/>
<path d="M2.38615 6.51336L2.45882 6.73134L2.6886 6.73312C2.71837 6.73335 2.7307 6.77131 2.70676 6.78897L2.52193 6.92548L2.59123 7.14456C2.6002 7.17295 2.56789 7.19639 2.54372 7.1791L2.35677 7.04546L2.16982 7.1791C2.14562 7.19639 2.11333 7.17292 2.12231 7.14456L2.19161 6.92548L2.00678 6.78897C1.98284 6.77131 1.99516 6.73335 2.02493 6.73312L2.25471 6.73134L2.32739 6.51336C2.33683 6.48513 2.37675 6.48513 2.38615 6.51336Z" fill="white"/>
<path d="M5.37197 6.4206L5.4279 6.58835L5.60473 6.58971C5.62762 6.58989 5.63712 6.61909 5.6187 6.6327L5.47643 6.73773L5.52978 6.90632C5.53668 6.92814 5.51183 6.94622 5.4932 6.93287L5.34936 6.83006L5.20553 6.93287C5.1869 6.94619 5.16205 6.92814 5.16895 6.90632L5.2223 6.73773L5.08003 6.6327C5.06161 6.61909 5.07111 6.58989 5.094 6.58971L5.27083 6.58835L5.32676 6.4206C5.33401 6.39886 5.36472 6.39886 5.37197 6.4206Z" fill="white"/>
</g>
<defs>
<clipPath id="clip0_5367_189357">
<rect x="15" y="1" width="14" height="14" rx="2" transform="rotate(90 15 1)" fill="white"/>
</clipPath>
</defs>
</svg>
