<svg width="16" height="16" viewBox="0 0 16 16" fill="none" xmlns="http://www.w3.org/2000/svg">
<g clip-path="url(#clip0_5367_189273)">
<rect x="1" y="1" width="14" height="14" rx="2" fill="#82AFFF"/>
<path d="M6.3375 12.8248L6.18981 13.2676L5.72306 13.2712C5.67831 13.2716 5.65975 13.3287 5.69575 13.3553L6.07122 13.6326L5.93044 14.0776C5.91691 14.1203 5.96553 14.1556 6.00197 14.1296L6.38172 13.8582L6.76147 14.1296C6.79787 14.1556 6.84647 14.1203 6.833 14.0776L6.69222 13.6326L7.06769 13.3553C7.10369 13.3287 7.08512 13.2716 7.04037 13.2712L6.57362 13.2676L6.42594 12.8248C6.41175 12.7823 6.35166 12.7823 6.3375 12.8248Z" fill="#F8CB32"/>
<path d="M13.527 9.37758L13.3793 9.82036L12.9125 9.82398C12.8678 9.82433 12.8492 9.88145 12.8852 9.90805L13.2607 10.1853L13.1199 10.6304C13.1064 10.673 13.155 10.7083 13.1914 10.6823L13.5712 10.4109L13.9509 10.6823C13.9873 10.7084 14.0359 10.673 14.0224 10.6304L13.8817 10.1853L14.2571 9.90805C14.2931 9.88145 14.2746 9.82433 14.2298 9.82398L13.7631 9.82036L13.6154 9.37758C13.6012 9.33508 13.5411 9.33508 13.527 9.37758Z" fill="#F8CB32"/>
<path d="M13.527 5.65297L13.3793 6.09575L12.9125 6.09937C12.8678 6.09972 12.8492 6.15684 12.8852 6.18344L13.2607 6.46072L13.1199 6.90575C13.1064 6.94843 13.155 6.98372 13.1914 6.95772L13.5712 6.68631L13.9509 6.95772C13.9873 6.98375 14.0359 6.94843 14.0224 6.90575L13.8817 6.46072L14.2571 6.18344C14.2931 6.15684 14.2746 6.09972 14.2298 6.09937L13.7631 6.09575L13.6154 5.65297C13.6012 5.61047 13.5411 5.61047 13.527 5.65297Z" fill="#F8CB32"/>
<path d="M8.18557 10.4963L8.33135 10.9397L7.95901 11.2212C7.92332 11.2482 7.94248 11.3051 7.98726 11.305L8.45401 11.3033L8.60667 11.7444C8.62132 11.7867 8.68135 11.786 8.69504 11.7434L8.83773 11.299L9.30442 11.2901C9.34917 11.2892 9.36707 11.2319 9.33079 11.2058L8.9522 10.9327L9.08798 10.4861C9.10101 10.4433 9.05201 10.4085 9.01592 10.435L8.63926 10.7107L8.25651 10.4436C8.21976 10.418 8.17157 10.4538 8.18557 10.4963Z" fill="#F8CB32"/>
<path d="M8.15139 12.4104L8.29717 12.8538L7.92483 13.1353C7.88915 13.1623 7.9083 13.2192 7.95308 13.219L8.41983 13.2174L8.57249 13.6585C8.58714 13.7008 8.64717 13.7001 8.66086 13.6575L8.80355 13.2131L9.27024 13.2042C9.31499 13.2033 9.33289 13.146 9.29661 13.1198L8.91802 12.8468L9.0538 12.4002C9.06683 12.3574 9.01783 12.3226 8.98174 12.3491L8.60508 12.6247L8.22233 12.3576C8.18561 12.332 8.13739 12.3679 8.15139 12.4104Z" fill="#F8CB32"/>
<path d="M10.1685 11.926L10.3143 12.3694L9.94192 12.6509C9.90623 12.6779 9.92539 12.7348 9.97017 12.7346L10.4369 12.733L10.5896 13.1741C10.6042 13.2164 10.6643 13.2157 10.678 13.1731L10.8206 12.7286L11.2873 12.7198C11.3321 12.7189 11.35 12.6616 11.3137 12.6354L10.9351 12.3624L11.0709 11.9158C11.0839 11.873 11.0349 11.8382 10.9988 11.8647L10.6222 12.1404L10.2394 11.8732C10.2027 11.8476 10.1545 11.8835 10.1685 11.926Z" fill="#F8CB32"/>
<path d="M10.1343 7.75412L10.2801 8.19752L9.90774 8.47899C9.87206 8.50599 9.89121 8.5629 9.93599 8.56274L10.4027 8.56111L10.5554 9.00221C10.5701 9.04452 10.6301 9.04383 10.6438 9.00121L10.7865 8.55677L11.2531 8.5479C11.2979 8.54702 11.3158 8.48971 11.2795 8.46355L10.9009 8.19052L11.0367 7.74393C11.0497 7.70112 11.0007 7.66633 10.9646 7.6928L10.588 7.96849L10.2052 7.70137C10.1685 7.67574 10.1203 7.71158 10.1343 7.75412Z" fill="#F8CB32"/>
<path d="M11.8408 7.18579L11.9866 7.62919L11.6143 7.91066C11.5786 7.93766 11.5978 7.99457 11.6425 7.99441L12.1093 7.99279L12.2619 8.43388C12.2766 8.47619 12.3366 8.4755 12.3503 8.43288L12.493 7.98844L12.9597 7.97957C13.0044 7.97869 13.0223 7.92138 12.9861 7.89522L12.6075 7.62216L12.7433 7.17557C12.7563 7.13276 12.7073 7.09798 12.6712 7.12444L12.2945 7.40013L11.9118 7.13301C11.8751 7.10741 11.8268 7.14326 11.8408 7.18579Z" fill="#F8CB32"/>
<g clip-path="url(#clip1_5367_189273)">
<rect width="9.61523" height="6.28688" transform="translate(0.869141 0.839844)" fill="#41479B"/>
<path d="M10.332 0.714844H9.733L6.53885 2.8033V0.714844H4.8147V2.8033L1.62055 0.714844H1.0216C0.831172 0.714844 0.676758 0.868945 0.676758 1.05899V1.33195L3.4172 3.12375H0.676758V4.8444H3.4172L0.676758 6.63624V6.90916C0.676758 7.0992 0.831172 7.25331 1.0216 7.25331H1.62055L4.8147 5.16484V7.25331H6.53885V5.16484L9.73296 7.25331H10.3319C10.5223 7.25331 10.6768 7.0992 10.6768 6.90916V6.6362L7.93636 4.8444H10.6768V3.12375H7.93632L10.6768 1.33195V1.05899C10.6768 0.868945 10.5224 0.714844 10.332 0.714844Z" fill="white"/>
<path d="M10.6768 3.46789H6.19401V0.714844H5.15951V3.46789H0.676758V4.50025H5.15951V7.25331H6.19401V4.50025H10.6768V3.46789Z" fill="#FF334B"/>
<path d="M4.81738 3.11059L0.856151 0.714844C0.750741 0.777021 0.676758 0.881431 0.676758 1.0063V1.0245L4.12599 3.11059H4.81738Z" fill="#FF334B"/>
<path d="M7.17608 3.11059L10.6428 0.886481C10.5826 0.785716 10.4763 0.714844 10.3492 0.714844H10.2743L6.54004 3.11059H7.17608Z" fill="#FF334B"/>
<path d="M4.18202 4.84961L0.725586 7.07591C0.785188 7.17942 0.893029 7.25233 1.0218 7.25233H1.08704L4.81738 4.84961H4.18202Z" fill="#FF334B"/>
<path d="M10.6767 6.93504L7.46121 4.84961H6.83057L10.482 7.21777C10.5914 7.16706 10.6664 7.06076 10.6767 6.93504Z" fill="#FF334B"/>
</g>
</g>
<defs>
<clipPath id="clip0_5367_189273">
<rect x="1" y="1" width="14" height="14" rx="2" fill="white"/>
</clipPath>
<clipPath id="clip1_5367_189273">
<rect width="9.61523" height="6.28688" fill="white" transform="translate(0.869141 0.839844)"/>
</clipPath>
</defs>
</svg>
