<svg width="16" height="16" viewBox="0 0 16 16" fill="none" xmlns="http://www.w3.org/2000/svg">
<g clip-path="url(#clip0_5367_189187)">
<rect x="1" y="1" width="14" height="14" rx="2" fill="white"/>
<path d="M16 2.27275H0V1.36844C0 1.16498 0.123531 1 0.275874 1H15.7241C15.8765 1 16 1.16498 16 1.36844L16 2.27275Z" fill="#FF334B"/>
<path d="M16 3.54492H0V4.81763H16V3.54492Z" fill="#FF334B"/>
<path d="M16 7.36451H0.275874C0.123531 7.36451 0 7.19953 0 6.99607V6.0918H16V7.36451Z" fill="#FF334B"/>
<path d="M16 8.63672H0V9.90943H16V8.63672Z" fill="#FF334B"/>
<path d="M16 11.1816H0V12.4544H16V11.1816Z" fill="#FF334B"/>
<path d="M15.7241 14.9993H0.275874C0.123531 14.9993 0 14.8343 0 14.6308V13.7266H16V14.6308C16 14.8343 15.8764 14.9993 15.7241 14.9993Z" fill="#FF334B"/>
<path d="M7.74993 7.36369H1.42189C1.18891 7.36369 1 7.19871 1 6.99525V1.36844C1 1.16498 1.18891 1 1.42189 1H7.74998C7.98296 1 8.17188 1.16498 8.17188 1.36844V6.99525C8.17183 7.19871 7.98291 7.36369 7.74993 7.36369Z" fill="#41479B"/>
<path d="M2.02341 2.27131L2.07647 2.43044L2.24421 2.43171C2.26593 2.4319 2.27492 2.4596 2.25746 2.4725L2.12253 2.57216L2.17314 2.73207C2.17971 2.75276 2.15612 2.76992 2.13844 2.75727L2.00199 2.65976L1.86554 2.7573C1.84786 2.76992 1.82432 2.75279 1.83083 2.7321L1.88145 2.57218L1.74652 2.47253C1.72906 2.4596 1.73805 2.43193 1.75977 2.43174L1.9275 2.43047L1.98056 2.27134C1.98741 2.2507 2.01652 2.2507 2.02341 2.27131Z" fill="white"/>
<path d="M2.02341 3.10332L2.07647 3.26245L2.24421 3.26373C2.26593 3.26392 2.27492 3.29161 2.25746 3.30451L2.12253 3.40417L2.17314 3.56408C2.17971 3.58477 2.15612 3.60193 2.13844 3.58928L2.00199 3.49177L1.86554 3.58931C1.84786 3.60193 1.82432 3.5848 1.83083 3.56411L1.88145 3.4042L1.74652 3.30454C1.72906 3.29161 1.73805 3.26394 1.75977 3.26375L1.9275 3.26248L1.98056 3.10335C1.98741 3.08274 2.01652 3.08274 2.02341 3.10332Z" fill="white"/>
<path d="M2.02341 3.93536L2.07647 4.09448L2.24421 4.09576C2.26593 4.09595 2.27492 4.12364 2.25746 4.13654L2.12253 4.2362L2.17314 4.39611C2.17971 4.4168 2.15612 4.43396 2.13844 4.42131L2.00199 4.3238L1.86554 4.42134C1.84786 4.43396 1.82432 4.41683 1.83083 4.39614L1.88145 4.23623L1.74652 4.13657C1.72906 4.12364 1.73805 4.09597 1.75977 4.09578L1.9275 4.09451L1.98056 3.93538C1.98741 3.91477 2.01652 3.91477 2.02341 3.93536Z" fill="white"/>
<path d="M2.02341 4.76936L2.07647 4.92848L2.24421 4.92976C2.26593 4.92995 2.27492 4.95765 2.25746 4.97055L2.12253 5.0702L2.17314 5.23012C2.17971 5.25081 2.15612 5.26797 2.13844 5.25532L2.00199 5.1578L1.86554 5.25534C1.84786 5.26797 1.82432 5.25084 1.83083 5.23014L1.88145 5.07023L1.74652 4.97057C1.72906 4.95765 1.73805 4.92998 1.75977 4.92979L1.9275 4.92851L1.98056 4.76939C1.98741 4.74875 2.01652 4.74875 2.02341 4.76936Z" fill="white"/>
<path d="M2.02341 5.60141L2.07647 5.76054L2.24421 5.76181C2.26593 5.762 2.27492 5.7897 2.25746 5.8026L2.12253 5.90226L2.17314 6.06217C2.17971 6.08286 2.15612 6.10002 2.13844 6.08737L2.00199 5.98986L1.86554 6.08739C1.84786 6.10002 1.82432 6.08289 1.83083 6.06219L1.88145 5.90228L1.74652 5.80263C1.72906 5.7897 1.73805 5.76203 1.75977 5.76184L1.9275 5.76056L1.98056 5.60144C1.98741 5.58077 2.01652 5.58077 2.02341 5.60141Z" fill="white"/>
<path d="M2.6699 2.6795L2.72296 2.83862L2.89069 2.8399C2.91241 2.84009 2.9214 2.86779 2.90394 2.88069L2.76901 2.98034L2.81963 3.14026C2.8262 3.16095 2.8026 3.17811 2.78492 3.16546L2.64847 3.06792L2.51202 3.16546C2.49434 3.17808 2.4708 3.16095 2.47732 3.14026L2.52793 2.98034L2.393 2.88069C2.37554 2.86776 2.38453 2.84009 2.40626 2.8399L2.57399 2.83862L2.62705 2.6795C2.63386 2.65892 2.66303 2.65892 2.6699 2.6795Z" fill="white"/>
<path d="M2.6699 3.51155L2.72296 3.67068L2.89069 3.67195C2.91241 3.67214 2.9214 3.69984 2.90394 3.71274L2.76901 3.81239L2.81963 3.97231C2.8262 3.993 2.8026 4.01016 2.78492 3.99751L2.64847 3.89997L2.51202 3.99751C2.49434 4.01013 2.4708 3.99303 2.47732 3.97231L2.52793 3.81239L2.393 3.71274C2.37554 3.69981 2.38453 3.67214 2.40626 3.67195L2.57399 3.67068L2.62705 3.51155C2.63386 3.49094 2.66303 3.49094 2.6699 3.51155Z" fill="white"/>
<path d="M2.6699 4.34358L2.72296 4.50271L2.89069 4.50398C2.91241 4.50417 2.9214 4.53187 2.90394 4.54477L2.76901 4.64443L2.81963 4.80434C2.8262 4.82503 2.8026 4.84219 2.78492 4.82954L2.64847 4.732L2.51202 4.82954C2.49434 4.84216 2.4708 4.82503 2.47732 4.80434L2.52793 4.64443L2.393 4.54477C2.37554 4.53184 2.38453 4.50417 2.40626 4.50398L2.57399 4.50271L2.62705 4.34358C2.63386 4.32297 2.66303 4.32297 2.6699 4.34358Z" fill="white"/>
<path d="M2.6699 5.17755L2.72296 5.33667L2.89069 5.33795C2.91241 5.33814 2.9214 5.36584 2.90394 5.37873L2.76901 5.47839L2.81963 5.6383C2.8262 5.65899 2.8026 5.67616 2.78492 5.6635L2.64847 5.56596L2.51202 5.6635C2.49434 5.67613 2.4708 5.65899 2.47732 5.6383L2.52793 5.47839L2.393 5.37873C2.37554 5.36581 2.38453 5.33814 2.40626 5.33795L2.57399 5.33667L2.62705 5.17755C2.63386 5.15696 2.66303 5.15696 2.6699 5.17755Z" fill="white"/>
<path d="M3.31541 2.27132L3.36847 2.43044L3.5362 2.43172C3.55792 2.43191 3.56691 2.45961 3.54945 2.4725L3.41452 2.57216L3.46513 2.73207C3.47171 2.75276 3.44811 2.76993 3.43043 2.75727L3.29398 2.65973L3.15753 2.75727C3.13985 2.7699 3.11631 2.75276 3.12283 2.73207L3.17344 2.57216L3.03851 2.4725C3.02105 2.45958 3.03004 2.43191 3.05176 2.43172L3.2195 2.43044L3.27256 2.27132C3.2794 2.25071 3.30854 2.25071 3.31541 2.27132Z" fill="white"/>
<path d="M3.31541 3.10333L3.36847 3.26245L3.5362 3.26373C3.55792 3.26392 3.56691 3.29162 3.54945 3.30451L3.41452 3.40417L3.46513 3.56408C3.47171 3.58478 3.44811 3.60194 3.43043 3.58928L3.29398 3.49174L3.15753 3.58928C3.13985 3.60191 3.11631 3.58478 3.12283 3.56408L3.17344 3.40417L3.03851 3.30451C3.02105 3.29159 3.03004 3.26392 3.05176 3.26373L3.2195 3.26245L3.27256 3.10333C3.2794 3.08274 3.30854 3.08274 3.31541 3.10333Z" fill="white"/>
<path d="M3.31541 3.93536L3.36847 4.09448L3.5362 4.09576C3.55792 4.09595 3.56691 4.12365 3.54945 4.13655L3.41452 4.2362L3.46513 4.39612C3.47171 4.41681 3.44811 4.43397 3.43043 4.42132L3.29398 4.32378L3.15753 4.42132C3.13985 4.43394 3.11631 4.41681 3.12283 4.39612L3.17344 4.2362L3.03851 4.13655C3.02105 4.12362 3.03004 4.09595 3.05176 4.09576L3.2195 4.09448L3.27256 3.93536C3.2794 3.91478 3.30854 3.91478 3.31541 3.93536Z" fill="white"/>
<path d="M3.31541 4.76936L3.36847 4.92849L3.5362 4.92976C3.55792 4.92995 3.56691 4.95765 3.54945 4.97055L3.41452 5.07021L3.46513 5.23012C3.47171 5.25081 3.44811 5.26797 3.43043 5.25532L3.29398 5.15778L3.15753 5.25532C3.13985 5.26795 3.11631 5.25081 3.12283 5.23012L3.17344 5.07021L3.03851 4.97055C3.02105 4.95763 3.03004 4.92995 3.05176 4.92976L3.2195 4.92849L3.27256 4.76936C3.2794 4.74875 3.30854 4.74875 3.31541 4.76936Z" fill="white"/>
<path d="M3.31541 5.60142L3.36847 5.76054L3.5362 5.76182C3.55792 5.76201 3.56691 5.7897 3.54945 5.8026L3.41452 5.90226L3.46513 6.06217C3.47171 6.08286 3.44811 6.10002 3.43043 6.08737L3.29398 5.98983L3.15753 6.08737C3.13985 6.1 3.11631 6.08286 3.12283 6.06217L3.17344 5.90226L3.03851 5.8026C3.02105 5.78968 3.03004 5.76201 3.05176 5.76182L3.2195 5.76054L3.27256 5.60142C3.2794 5.58078 3.30854 5.58078 3.31541 5.60142Z" fill="white"/>
<path d="M3.96189 2.6795L4.01495 2.83862L4.18268 2.8399C4.20441 2.84009 4.21339 2.86779 4.19593 2.88069L4.061 2.98034L4.11162 3.14026C4.11819 3.16095 4.09459 3.17811 4.07692 3.16546L3.94046 3.06792L3.80401 3.16546C3.78634 3.17808 3.76279 3.16095 3.76931 3.14026L3.81993 2.98034L3.685 2.88069C3.66754 2.86776 3.67652 2.84009 3.69825 2.8399L3.86598 2.83862L3.91904 2.6795C3.92586 2.65892 3.95502 2.65892 3.96189 2.6795Z" fill="white"/>
<path d="M3.96189 3.51155L4.01495 3.67068L4.18268 3.67195C4.20441 3.67214 4.21339 3.69984 4.19593 3.71274L4.061 3.81239L4.11162 3.97231C4.11819 3.993 4.09459 4.01016 4.07692 3.99751L3.94046 3.89997L3.80401 3.99751C3.78634 4.01013 3.76279 3.99303 3.76931 3.97231L3.81993 3.81239L3.685 3.71274C3.66754 3.69981 3.67652 3.67214 3.69825 3.67195L3.86598 3.67068L3.91904 3.51155C3.92586 3.49094 3.95502 3.49094 3.96189 3.51155Z" fill="white"/>
<path d="M3.96189 4.34358L4.01495 4.50271L4.18268 4.50398C4.20441 4.50417 4.21339 4.53187 4.19593 4.54477L4.061 4.64443L4.11162 4.80434C4.11819 4.82503 4.09459 4.84219 4.07692 4.82954L3.94046 4.732L3.80401 4.82954C3.78634 4.84216 3.76279 4.82503 3.76931 4.80434L3.81993 4.64443L3.685 4.54477C3.66754 4.53184 3.67652 4.50417 3.69825 4.50398L3.86598 4.50271L3.91904 4.34358C3.92586 4.32297 3.95502 4.32297 3.96189 4.34358Z" fill="white"/>
<path d="M3.96189 5.17755L4.01495 5.33667L4.18268 5.33795C4.20441 5.33814 4.21339 5.36584 4.19593 5.37873L4.061 5.47839L4.11162 5.6383C4.11819 5.65899 4.09459 5.67616 4.07692 5.6635L3.94046 5.56596L3.80401 5.6635C3.78634 5.67613 3.76279 5.65899 3.76931 5.6383L3.81993 5.47839L3.685 5.37873C3.66754 5.36581 3.67652 5.33814 3.69825 5.33795L3.86598 5.33667L3.91904 5.17755C3.92586 5.15696 3.95502 5.15696 3.96189 5.17755Z" fill="white"/>
<path d="M4.60742 2.27132L4.66048 2.43044L4.82822 2.43172C4.84994 2.43191 4.85893 2.45961 4.84147 2.4725L4.70654 2.57216L4.75715 2.73207C4.76373 2.75276 4.74013 2.76993 4.72245 2.75727L4.58597 2.65973L4.44952 2.75727C4.43184 2.7699 4.4083 2.75276 4.41482 2.73207L4.46543 2.57216L4.3305 2.4725C4.31304 2.45958 4.32203 2.43191 4.34376 2.43172L4.51149 2.43044L4.56455 2.27132C4.57142 2.25071 4.60055 2.25071 4.60742 2.27132Z" fill="white"/>
<path d="M4.60742 3.10333L4.66048 3.26245L4.82822 3.26373C4.84994 3.26392 4.85893 3.29162 4.84147 3.30451L4.70654 3.40417L4.75715 3.56408C4.76373 3.58478 4.74013 3.60194 4.72245 3.58928L4.58597 3.49174L4.44952 3.58928C4.43184 3.60191 4.4083 3.58478 4.41482 3.56408L4.46543 3.40417L4.3305 3.30451C4.31304 3.29159 4.32203 3.26392 4.34376 3.26373L4.51149 3.26245L4.56455 3.10333C4.57142 3.08274 4.60055 3.08274 4.60742 3.10333Z" fill="white"/>
<path d="M4.60742 3.93536L4.66048 4.09448L4.82822 4.09576C4.84994 4.09595 4.85893 4.12365 4.84147 4.13655L4.70654 4.2362L4.75715 4.39612C4.76373 4.41681 4.74013 4.43397 4.72245 4.42132L4.58597 4.32378L4.44952 4.42132C4.43184 4.43394 4.4083 4.41681 4.41482 4.39612L4.46543 4.2362L4.3305 4.13655C4.31304 4.12362 4.32203 4.09595 4.34376 4.09576L4.51149 4.09448L4.56455 3.93536C4.57142 3.91478 4.60055 3.91478 4.60742 3.93536Z" fill="white"/>
<path d="M4.60742 4.76936L4.66048 4.92849L4.82822 4.92976C4.84994 4.92995 4.85893 4.95765 4.84147 4.97055L4.70654 5.07021L4.75715 5.23012C4.76373 5.25081 4.74013 5.26797 4.72245 5.25532L4.58597 5.15778L4.44952 5.25532C4.43184 5.26795 4.4083 5.25081 4.41482 5.23012L4.46543 5.07021L4.3305 4.97055C4.31304 4.95763 4.32203 4.92995 4.34376 4.92976L4.51149 4.92849L4.56455 4.76936C4.57142 4.74875 4.60055 4.74875 4.60742 4.76936Z" fill="white"/>
<path d="M4.60742 5.60142L4.66048 5.76054L4.82822 5.76182C4.84994 5.76201 4.85893 5.7897 4.84147 5.8026L4.70654 5.90226L4.75715 6.06217C4.76373 6.08286 4.74013 6.10002 4.72245 6.08737L4.58597 5.98983L4.44952 6.08737C4.43184 6.1 4.4083 6.08286 4.41482 6.06217L4.46543 5.90226L4.3305 5.8026C4.31304 5.78968 4.32203 5.76201 4.34376 5.76182L4.51149 5.76054L4.56455 5.60142C4.57142 5.58078 4.60055 5.58078 4.60742 5.60142Z" fill="white"/>
<path d="M5.25388 2.6795L5.30694 2.83862L5.47467 2.8399C5.4964 2.84009 5.50539 2.86779 5.48793 2.88069L5.353 2.98034L5.40361 3.14026C5.41018 3.16095 5.38659 3.17811 5.36891 3.16546L5.23246 3.06792L5.09601 3.16546C5.07833 3.17808 5.05479 3.16095 5.0613 3.14026L5.11192 2.98034L4.97699 2.88069C4.95953 2.86776 4.96852 2.84009 4.99024 2.8399L5.15797 2.83862L5.21103 2.6795C5.2179 2.65892 5.24701 2.65892 5.25388 2.6795Z" fill="white"/>
<path d="M5.25388 3.51155L5.30694 3.67068L5.47467 3.67195C5.4964 3.67214 5.50539 3.69984 5.48793 3.71274L5.353 3.81239L5.40361 3.97231C5.41018 3.993 5.38659 4.01016 5.36891 3.99751L5.23246 3.89997L5.09601 3.99751C5.07833 4.01013 5.05479 3.99303 5.0613 3.97231L5.11192 3.81239L4.97699 3.71274C4.95953 3.69981 4.96852 3.67214 4.99024 3.67195L5.15797 3.67068L5.21103 3.51155C5.2179 3.49094 5.24701 3.49094 5.25388 3.51155Z" fill="white"/>
<path d="M5.25388 4.34358L5.30694 4.50271L5.47467 4.50398C5.4964 4.50417 5.50539 4.53187 5.48793 4.54477L5.353 4.64443L5.40361 4.80434C5.41018 4.82503 5.38659 4.84219 5.36891 4.82954L5.23246 4.732L5.09601 4.82954C5.07833 4.84216 5.05479 4.82503 5.0613 4.80434L5.11192 4.64443L4.97699 4.54477C4.95953 4.53184 4.96852 4.50417 4.99024 4.50398L5.15797 4.50271L5.21103 4.34358C5.2179 4.32297 5.24701 4.32297 5.25388 4.34358Z" fill="white"/>
<path d="M5.25388 5.17755L5.30694 5.33667L5.47467 5.33795C5.4964 5.33814 5.50539 5.36584 5.48793 5.37873L5.353 5.47839L5.40361 5.6383C5.41018 5.65899 5.38659 5.67616 5.36891 5.6635L5.23246 5.56596L5.09601 5.6635C5.07833 5.67613 5.05479 5.65899 5.0613 5.6383L5.11192 5.47839L4.97699 5.37873C4.95953 5.36581 4.96852 5.33814 4.99024 5.33795L5.15797 5.33667L5.21103 5.17755C5.2179 5.15696 5.24701 5.15696 5.25388 5.17755Z" fill="white"/>
<path d="M5.90037 2.27132L5.95343 2.43044L6.12116 2.43172C6.14288 2.43191 6.15187 2.45961 6.13441 2.4725L5.99948 2.57216L6.0501 2.73207C6.05667 2.75276 6.03307 2.76993 6.01539 2.75727L5.87894 2.65973L5.74249 2.75727C5.72481 2.7699 5.70127 2.75276 5.70779 2.73207L5.7584 2.57216L5.62347 2.4725C5.60601 2.45958 5.615 2.43191 5.63672 2.43172L5.80446 2.43044L5.85752 2.27132C5.86433 2.25071 5.8935 2.25071 5.90037 2.27132Z" fill="white"/>
<path d="M5.90037 3.10333L5.95343 3.26245L6.12116 3.26373C6.14288 3.26392 6.15187 3.29162 6.13441 3.30451L5.99948 3.40417L6.0501 3.56408C6.05667 3.58478 6.03307 3.60194 6.01539 3.58928L5.87894 3.49174L5.74249 3.58928C5.72481 3.60191 5.70127 3.58478 5.70779 3.56408L5.7584 3.40417L5.62347 3.30451C5.60601 3.29159 5.615 3.26392 5.63672 3.26373L5.80446 3.26245L5.85752 3.10333C5.86433 3.08274 5.8935 3.08274 5.90037 3.10333Z" fill="white"/>
<path d="M5.90037 3.93536L5.95343 4.09448L6.12116 4.09576C6.14288 4.09595 6.15187 4.12365 6.13441 4.13655L5.99948 4.2362L6.0501 4.39612C6.05667 4.41681 6.03307 4.43397 6.01539 4.42132L5.87894 4.32378L5.74249 4.42132C5.72481 4.43394 5.70127 4.41681 5.70779 4.39612L5.7584 4.2362L5.62347 4.13655C5.60601 4.12362 5.615 4.09595 5.63672 4.09576L5.80446 4.09448L5.85752 3.93536C5.86433 3.91478 5.8935 3.91478 5.90037 3.93536Z" fill="white"/>
<path d="M5.90037 4.76936L5.95343 4.92849L6.12116 4.92976C6.14288 4.92995 6.15187 4.95765 6.13441 4.97055L5.99948 5.07021L6.0501 5.23012C6.05667 5.25081 6.03307 5.26797 6.01539 5.25532L5.87894 5.15778L5.74249 5.25532C5.72481 5.26795 5.70127 5.25081 5.70779 5.23012L5.7584 5.07021L5.62347 4.97055C5.60601 4.95763 5.615 4.92995 5.63672 4.92976L5.80446 4.92849L5.85752 4.76936C5.86433 4.74875 5.8935 4.74875 5.90037 4.76936Z" fill="white"/>
<path d="M5.90037 5.60142L5.95343 5.76054L6.12116 5.76182C6.14288 5.76201 6.15187 5.7897 6.13441 5.8026L5.99948 5.90226L6.0501 6.06217C6.05667 6.08286 6.03307 6.10002 6.01539 6.08737L5.87894 5.98983L5.74249 6.08737C5.72481 6.1 5.70127 6.08286 5.70779 6.06217L5.7584 5.90226L5.62347 5.8026C5.60601 5.78968 5.615 5.76201 5.63672 5.76182L5.80446 5.76054L5.85752 5.60142C5.86433 5.58078 5.8935 5.58078 5.90037 5.60142Z" fill="white"/>
<path d="M6.54587 2.6795L6.59893 2.83862L6.76667 2.8399C6.78839 2.84009 6.79738 2.86779 6.77992 2.88069L6.64499 2.98034L6.6956 3.14026C6.70217 3.16095 6.67858 3.17811 6.6609 3.16546L6.52445 3.06792L6.388 3.16546C6.37032 3.17808 6.34678 3.16095 6.3533 3.14026L6.40391 2.98034L6.26898 2.88069C6.25152 2.86776 6.26051 2.84009 6.28223 2.8399L6.44996 2.83862L6.50302 2.6795C6.50987 2.65892 6.53903 2.65892 6.54587 2.6795Z" fill="white"/>
<path d="M6.54587 3.51155L6.59893 3.67068L6.76667 3.67195C6.78839 3.67214 6.79738 3.69984 6.77992 3.71274L6.64499 3.81239L6.6956 3.97231C6.70217 3.993 6.67858 4.01016 6.6609 3.99751L6.52445 3.89997L6.388 3.99751C6.37032 4.01013 6.34678 3.99303 6.3533 3.97231L6.40391 3.81239L6.26898 3.71274C6.25152 3.69981 6.26051 3.67214 6.28223 3.67195L6.44996 3.67068L6.50302 3.51155C6.50987 3.49094 6.53903 3.49094 6.54587 3.51155Z" fill="white"/>
<path d="M6.54587 4.34358L6.59893 4.50271L6.76667 4.50398C6.78839 4.50417 6.79738 4.53187 6.77992 4.54477L6.64499 4.64443L6.6956 4.80434C6.70217 4.82503 6.67858 4.84219 6.6609 4.82954L6.52445 4.732L6.388 4.82954C6.37032 4.84216 6.34678 4.82503 6.3533 4.80434L6.40391 4.64443L6.26898 4.54477C6.25152 4.53184 6.26051 4.50417 6.28223 4.50398L6.44996 4.50271L6.50302 4.34358C6.50987 4.32297 6.53903 4.32297 6.54587 4.34358Z" fill="white"/>
<path d="M6.54587 5.17755L6.59893 5.33667L6.76667 5.33795C6.78839 5.33814 6.79738 5.36584 6.77992 5.37873L6.64499 5.47839L6.6956 5.6383C6.70217 5.65899 6.67858 5.67616 6.6609 5.6635L6.52445 5.56596L6.388 5.6635C6.37032 5.67613 6.34678 5.65899 6.3533 5.6383L6.40391 5.47839L6.26898 5.37873C6.25152 5.36581 6.26051 5.33814 6.28223 5.33795L6.44996 5.33667L6.50302 5.17755C6.50987 5.15696 6.53903 5.15696 6.54587 5.17755Z" fill="white"/>
<path d="M7.19236 2.27132L7.24542 2.43044L7.41315 2.43172C7.43487 2.43191 7.44386 2.45961 7.4264 2.4725L7.29147 2.57216L7.34209 2.73207C7.34866 2.75276 7.32506 2.76993 7.30738 2.75727L7.17093 2.65973L7.03448 2.75727C7.01681 2.7699 6.99326 2.75276 6.99978 2.73207L7.0504 2.57216L6.91547 2.4725C6.898 2.45958 6.90699 2.43191 6.92872 2.43172L7.09645 2.43044L7.14951 2.27132C7.15635 2.25071 7.18546 2.25071 7.19236 2.27132Z" fill="white"/>
<path d="M7.19236 3.10333L7.24542 3.26245L7.41315 3.26373C7.43487 3.26392 7.44386 3.29162 7.4264 3.30451L7.29147 3.40417L7.34209 3.56408C7.34866 3.58478 7.32506 3.60194 7.30738 3.58928L7.17093 3.49174L7.03448 3.58928C7.01681 3.60191 6.99326 3.58478 6.99978 3.56408L7.0504 3.40417L6.91547 3.30451C6.898 3.29159 6.90699 3.26392 6.92872 3.26373L7.09645 3.26245L7.14951 3.10333C7.15635 3.08274 7.18546 3.08274 7.19236 3.10333Z" fill="white"/>
<path d="M7.19236 3.93536L7.24542 4.09448L7.41315 4.09576C7.43487 4.09595 7.44386 4.12365 7.4264 4.13655L7.29147 4.2362L7.34209 4.39612C7.34866 4.41681 7.32506 4.43397 7.30738 4.42132L7.17093 4.32378L7.03448 4.42132C7.01681 4.43394 6.99326 4.41681 6.99978 4.39612L7.0504 4.2362L6.91547 4.13655C6.898 4.12362 6.90699 4.09595 6.92872 4.09576L7.09645 4.09448L7.14951 3.93536C7.15635 3.91478 7.18546 3.91478 7.19236 3.93536Z" fill="white"/>
<path d="M7.19236 4.76936L7.24542 4.92849L7.41315 4.92976C7.43487 4.92995 7.44386 4.95765 7.4264 4.97055L7.29147 5.07021L7.34209 5.23012C7.34866 5.25081 7.32506 5.26797 7.30738 5.25532L7.17093 5.15778L7.03448 5.25532C7.01681 5.26795 6.99326 5.25081 6.99978 5.23012L7.0504 5.07021L6.91547 4.97055C6.898 4.95763 6.90699 4.92995 6.92872 4.92976L7.09645 4.92849L7.14951 4.76936C7.15635 4.74875 7.18546 4.74875 7.19236 4.76936Z" fill="white"/>
<path d="M7.19236 5.60142L7.24542 5.76054L7.41315 5.76182C7.43487 5.76201 7.44386 5.7897 7.4264 5.8026L7.29147 5.90226L7.34209 6.06217C7.34866 6.08286 7.32506 6.10002 7.30738 6.08737L7.17093 5.98983L7.03448 6.08737C7.01681 6.1 6.99326 6.08286 6.99978 6.06217L7.0504 5.90226L6.91547 5.8026C6.898 5.78968 6.90699 5.76201 6.92872 5.76182L7.09645 5.76054L7.14951 5.60142C7.15635 5.58078 7.18546 5.58078 7.19236 5.60142Z" fill="white"/>
</g>
<defs>
<clipPath id="clip0_5367_189187">
<rect x="1" y="1" width="14" height="14" rx="2" fill="white"/>
</clipPath>
</defs>
</svg>
