<svg width="16" height="16" viewBox="0 0 16 16" fill="none" xmlns="http://www.w3.org/2000/svg">
<g clip-path="url(#clip0_5367_189141)">
<rect x="1" y="1" width="14" height="14" rx="2" fill="#82AFFF"/>
<path d="M15 2.52431H1V1.41905C1 1.17039 1.10809 0.96875 1.24139 0.96875H14.7586C14.8919 0.96875 15 1.17039 15 1.41905L15 2.52431Z" fill="white"/>
<path d="M15 2.52539H1V4.08095H15V2.52539Z" fill="#4173CD"/>
<path d="M15 4.08008H1V5.63563H15V4.08008Z" fill="white"/>
<path d="M15 5.63672H1V7.19227H15V5.63672Z" fill="#4173CD"/>
<path d="M15 7.19141H1V8.74696H15V7.19141Z" fill="white"/>
<path d="M15 8.74805H1V10.3036H15V8.74805Z" fill="#4173CD"/>
<path d="M15 10.3027H1V11.8583H15V10.3027Z" fill="white"/>
<path d="M15 11.8574H1V13.413H15V11.8574Z" fill="#4173CD"/>
<path d="M14.7586 14.9696H1.24139C1.10809 14.9696 1 14.768 1 14.5193V13.4141H15V14.5193C15 14.768 14.8919 14.9696 14.7586 14.9696Z" fill="white"/>
<path d="M6.59644 7.22223H0.544134C0.321308 7.22223 0.140625 7.06092 0.140625 6.86198V1.36025C0.140625 1.16131 0.321308 1 0.544134 1H6.59649C6.81932 1 7 1.16131 7 1.36025V6.86198C6.99995 7.06092 6.81927 7.22223 6.59644 7.22223Z" fill="white"/>
<path d="M3.01465 2.34375L3.47612 4.47915L4.19821 4.18003L3.01465 2.34375Z" fill="#F8CB32"/>
<path d="M3.01465 2.34375L3.83715 4.32959L3.47612 4.47915L3.01465 2.34375Z" fill="#F4B60D"/>
<path d="M4.80957 6.67642L4.34807 4.54102L3.62598 4.84014L4.80957 6.67642Z" fill="#F8CB32"/>
<path d="M4.80983 6.67642L3.9873 4.69058L4.34834 4.54102L4.80983 6.67642Z" fill="#F4B60D"/>
<path d="M6.07873 3.61328L3.94336 4.07475L4.24245 4.79684L6.07873 3.61328Z" fill="#F8CB32"/>
<path d="M6.07873 3.61328L4.09289 4.43578L3.94336 4.07475L6.07873 3.61328Z" fill="#F4B60D"/>
<path d="M1.74609 5.40817L3.88147 4.9467L3.58234 4.22461L1.74609 5.40817Z" fill="#F8CB32"/>
<path d="M1.74609 5.40844L3.7319 4.58594L3.88147 4.94697L1.74609 5.40844Z" fill="#F4B60D"/>
<path d="M4.80957 2.34375L3.62598 4.18003L4.34807 4.47915L4.80957 2.34375Z" fill="#F8CB32"/>
<path d="M4.80957 2.34375L3.98704 4.32959L3.62598 4.18003L4.80957 2.34375Z" fill="#F4B60D"/>
<path d="M3.01465 6.67642L4.19821 4.84014L3.47612 4.54102L3.01465 6.67642Z" fill="#F8CB32"/>
<path d="M3.01465 6.67725L3.83715 4.69141L4.19821 4.84097L3.01465 6.67725Z" fill="#F4B60D"/>
<path d="M6.07873 5.40817L4.24245 4.22461L3.94336 4.9467L6.07873 5.40817Z" fill="#F8CB32"/>
<path d="M6.07861 5.40817L4.09277 4.58567L4.24234 4.22461L6.07861 5.40817Z" fill="#F4B60D"/>
<path d="M1.74609 3.61328L3.58234 4.79684L3.88147 4.07475L1.74609 3.61328Z" fill="#F8CB32"/>
<path d="M1.74609 3.61328L3.7319 4.43578L3.58234 4.79684L1.74609 3.61328Z" fill="#F4B60D"/>
<path d="M3.9123 2.16602L3.52148 4.31542H4.30308L3.9123 2.16602Z" fill="#F8CB32"/>
<path d="M3.9123 2.16602V4.31542H3.52148L3.9123 2.16602Z" fill="#F4B60D"/>
<path d="M3.9123 6.85643L4.30308 4.70703H3.52148L3.9123 6.85643Z" fill="#F8CB32"/>
<path d="M3.91211 6.85643V4.70703H4.30289L3.91211 6.85643Z" fill="#F4B60D"/>
<path d="M6.25682 4.50995L4.10742 4.11914V4.90073L6.25682 4.50995Z" fill="#F8CB32"/>
<path d="M6.25682 4.50995H4.10742V4.11914L6.25682 4.50995Z" fill="#F4B60D"/>
<path d="M1.56738 4.50995L3.71678 4.90073V4.11914L1.56738 4.50995Z" fill="#F8CB32"/>
<path d="M1.56738 4.51172H3.71678V4.9025L1.56738 4.51172Z" fill="#F4B60D"/>
<path d="M5.57063 2.85352L3.77441 4.09704L4.3271 4.64973L5.57063 2.85352Z" fill="#F8CB32"/>
<path d="M5.57063 2.85352L4.05076 4.37339L3.77441 4.09704L5.57063 2.85352Z" fill="#F4B60D"/>
<path d="M2.25391 6.16926L4.05009 4.92573L3.4974 4.37305L2.25391 6.16926Z" fill="#F8CB32"/>
<path d="M2.25391 6.16831L3.77375 4.64844L4.05009 4.92478L2.25391 6.16831Z" fill="#F4B60D"/>
<path d="M5.57063 6.16926L4.3271 4.37305L3.77441 4.92573L5.57063 6.16926Z" fill="#F8CB32"/>
<path d="M5.57065 6.16926L4.05078 4.64939L4.32712 4.37305L5.57065 6.16926Z" fill="#F4B60D"/>
<path d="M2.25391 2.85352L3.4974 4.64973L4.05009 4.09704L2.25391 2.85352Z" fill="#F8CB32"/>
<path d="M2.25391 2.85352L3.77375 4.37339L3.4974 4.64973L2.25391 2.85352Z" fill="#F4B60D"/>
<path d="M3.91242 5.29164C4.34406 5.29164 4.69398 4.94172 4.69398 4.51008C4.69398 4.07843 4.34406 3.72852 3.91242 3.72852C3.48078 3.72852 3.13086 4.07843 3.13086 4.51008C3.13086 4.94172 3.48078 5.29164 3.91242 5.29164Z" fill="#F8CB32"/>
</g>
<defs>
<clipPath id="clip0_5367_189141">
<rect x="1" y="1" width="14" height="14" rx="2" fill="white"/>
</clipPath>
</defs>
</svg>
