<svg width="16" height="16" viewBox="0 0 16 16" fill="none" xmlns="http://www.w3.org/2000/svg">
<g clip-path="url(#clip0_5367_189117)">
<rect x="15" y="1" width="14" height="14" rx="2" transform="rotate(90 15 1)" fill="white"/>
<path d="M15 1H1V5.43117H15V1Z" fill="#82AFFF"/>
<path d="M15 10.5684H1V14.9995H15V10.5684Z" fill="#73AF00"/>
<path d="M17 5.03516H1V5.82558H17V5.03516Z" fill="#FF334B"/>
<path d="M17 10.1719H1V10.9623H17V10.1719Z" fill="#FF334B"/>
<path d="M3.88532 4.23704C3.32058 4.23704 2.86279 3.78036 2.86279 3.21764C2.86279 2.65286 3.32054 2.19411 3.88532 2.19411C3.88751 2.19411 3.88964 2.19411 3.89176 2.19414C3.92501 2.19458 3.93667 2.15042 3.90736 2.1347C3.73345 2.04149 3.53498 1.98874 3.32398 1.99027C2.64823 1.99508 2.09933 2.55505 2.10652 3.2308C2.11358 3.89958 2.66033 4.44092 3.33283 4.44092C3.54092 4.44092 3.73661 4.38826 3.90836 4.29633C3.93757 4.28067 3.92576 4.23651 3.89264 4.23698C3.89014 4.23704 3.88773 4.23704 3.88532 4.23704Z" fill="white"/>
<path d="M4.6859 3.9547L4.64024 4.09163L4.4959 4.09273C4.47721 4.09285 4.46946 4.11673 4.48449 4.12782L4.60062 4.21357L4.55706 4.3512C4.55143 4.36901 4.57171 4.38376 4.58693 4.37288L4.70437 4.28895L4.8218 4.37288C4.83702 4.38376 4.85727 4.36901 4.85168 4.3512L4.80812 4.21357L4.92421 4.12782C4.93924 4.11673 4.93149 4.09285 4.9128 4.09273L4.76846 4.09163L4.7228 3.9547C4.7169 3.93698 4.69184 3.93698 4.6859 3.9547Z" fill="white"/>
<path d="M5.7025 3.9547L5.65684 4.09163L5.5125 4.09273C5.49381 4.09285 5.48606 4.11673 5.50109 4.12782L5.61719 4.21357L5.57363 4.3512C5.568 4.36901 5.58828 4.38376 5.6035 4.37288L5.72094 4.28895L5.83838 4.37288C5.85359 4.38376 5.87384 4.36901 5.86825 4.3512L5.82469 4.21357L5.94078 4.12782C5.95581 4.11673 5.94806 4.09285 5.92938 4.09273L5.78503 4.09163L5.73938 3.9547C5.73347 3.93698 5.70838 3.93698 5.7025 3.9547Z" fill="white"/>
<path d="M6.72008 3.9547L6.67442 4.09163L6.53008 4.09273C6.51139 4.09285 6.50364 4.11673 6.51867 4.12782L6.6348 4.21357L6.59123 4.3512C6.58561 4.36901 6.60589 4.38376 6.62111 4.37288L6.73855 4.28895L6.85598 4.37288C6.8712 4.38376 6.89145 4.36901 6.88586 4.3512L6.8423 4.21357L6.95839 4.12782C6.97342 4.11673 6.96567 4.09285 6.94698 4.09273L6.80264 4.09163L6.75698 3.9547C6.75108 3.93698 6.72598 3.93698 6.72008 3.9547Z" fill="white"/>
<path d="M7.73668 3.9547L7.69102 4.09163L7.54668 4.09273C7.52799 4.09285 7.52024 4.11673 7.53527 4.12782L7.65137 4.21357L7.6078 4.3512C7.60218 4.36901 7.62246 4.38376 7.63768 4.37288L7.75512 4.28895L7.87255 4.37288C7.88777 4.38376 7.90802 4.36901 7.90243 4.3512L7.85887 4.21357L7.97496 4.12782C7.98999 4.11673 7.98224 4.09285 7.96355 4.09273L7.81921 4.09163L7.77355 3.9547C7.76768 3.93698 7.74259 3.93698 7.73668 3.9547Z" fill="white"/>
<path d="M8.75328 3.9547L8.70762 4.09163L8.56328 4.09273C8.54459 4.09285 8.53684 4.11673 8.55188 4.12782L8.668 4.21357L8.62444 4.3512C8.61881 4.36901 8.63909 4.38376 8.65431 4.37288L8.77175 4.28895L8.88919 4.37288C8.90441 4.38376 8.92466 4.36901 8.91906 4.3512L8.8755 4.21357L8.99162 4.12782C9.00666 4.11673 8.99891 4.09285 8.98022 4.09273L8.83587 4.09163L8.79022 3.9547C8.78425 3.93698 8.75919 3.93698 8.75328 3.9547Z" fill="white"/>
<path d="M5.7025 3.00552L5.65684 3.14246L5.5125 3.14355C5.49381 3.14368 5.48606 3.16755 5.50109 3.17865L5.61719 3.2644L5.57363 3.40202C5.568 3.41984 5.58828 3.43459 5.6035 3.42371L5.72094 3.33977L5.83838 3.42371C5.85359 3.43459 5.87384 3.41984 5.86825 3.40202L5.82469 3.2644L5.94078 3.17865C5.95581 3.16755 5.94806 3.14368 5.92938 3.14355L5.78503 3.14246L5.73938 3.00552C5.73347 2.98774 5.70838 2.98774 5.7025 3.00552Z" fill="white"/>
<path d="M6.72008 3.00552L6.67442 3.14246L6.53008 3.14355C6.51139 3.14368 6.50364 3.16755 6.51867 3.17865L6.6348 3.2644L6.59123 3.40202C6.58561 3.41984 6.60589 3.43459 6.62111 3.42371L6.73855 3.33977L6.85598 3.42371C6.8712 3.43459 6.89145 3.41984 6.88586 3.40202L6.8423 3.2644L6.95839 3.17865C6.97342 3.16755 6.96567 3.14368 6.94698 3.14355L6.80264 3.14246L6.75698 3.00552C6.75108 2.98774 6.72598 2.98774 6.72008 3.00552Z" fill="white"/>
<path d="M7.73668 3.00552L7.69102 3.14246L7.54668 3.14355C7.52799 3.14368 7.52024 3.16755 7.53527 3.17865L7.65137 3.2644L7.6078 3.40202C7.60218 3.41984 7.62246 3.43459 7.63768 3.42371L7.75512 3.33977L7.87255 3.42371C7.88777 3.43459 7.90802 3.41984 7.90243 3.40202L7.85887 3.2644L7.97496 3.17865C7.98999 3.16755 7.98224 3.14368 7.96355 3.14355L7.81921 3.14246L7.77355 3.00552C7.76768 2.98774 7.74259 2.98774 7.73668 3.00552Z" fill="white"/>
<path d="M8.75328 3.00552L8.70762 3.14246L8.56328 3.14355C8.54459 3.14368 8.53684 3.16755 8.55188 3.17865L8.668 3.2644L8.62444 3.40202C8.61881 3.41984 8.63909 3.43459 8.65431 3.42371L8.77175 3.33977L8.88919 3.42371C8.90441 3.43459 8.92466 3.41984 8.91906 3.40202L8.8755 3.2644L8.99162 3.17865C9.00666 3.16755 8.99891 3.14368 8.98022 3.14355L8.83587 3.14246L8.79022 3.00552C8.78425 2.98774 8.75919 2.98774 8.75328 3.00552Z" fill="white"/>
<path d="M6.72008 3.9547L6.67442 4.09163L6.53008 4.09273C6.51139 4.09285 6.50364 4.11673 6.51867 4.12782L6.6348 4.21357L6.59123 4.3512C6.58561 4.36901 6.60589 4.38376 6.62111 4.37288L6.73855 4.28895L6.85598 4.37288C6.8712 4.38376 6.89145 4.36901 6.88586 4.3512L6.8423 4.21357L6.95839 4.12782C6.97342 4.11673 6.96567 4.09285 6.94698 4.09273L6.80264 4.09163L6.75698 3.9547C6.75108 3.93698 6.72598 3.93698 6.72008 3.9547Z" fill="white"/>
<path d="M6.72008 2.05626L6.67442 2.19319L6.53008 2.19429C6.51139 2.19441 6.50364 2.21829 6.51867 2.22938L6.6348 2.31513L6.59123 2.45276C6.58561 2.47057 6.60589 2.48532 6.62111 2.47444L6.73855 2.39051L6.85598 2.47444C6.8712 2.48532 6.89145 2.47057 6.88586 2.45276L6.8423 2.31513L6.95839 2.22938C6.97342 2.21829 6.96567 2.19441 6.94698 2.19429L6.80264 2.19319L6.75698 2.05626C6.75108 2.03854 6.72598 2.03854 6.72008 2.05626Z" fill="white"/>
<path d="M7.73668 3.9547L7.69102 4.09163L7.54668 4.09273C7.52799 4.09285 7.52024 4.11673 7.53527 4.12782L7.65137 4.21357L7.6078 4.3512C7.60218 4.36901 7.62246 4.38376 7.63768 4.37288L7.75512 4.28895L7.87255 4.37288C7.88777 4.38376 7.90802 4.36901 7.90243 4.3512L7.85887 4.21357L7.97496 4.12782C7.98999 4.11673 7.98224 4.09285 7.96355 4.09273L7.81921 4.09163L7.77355 3.9547C7.76768 3.93698 7.74259 3.93698 7.73668 3.9547Z" fill="white"/>
<path d="M8.75328 3.9547L8.70762 4.09163L8.56328 4.09273C8.54459 4.09285 8.53684 4.11673 8.55188 4.12782L8.668 4.21357L8.62444 4.3512C8.61881 4.36901 8.63909 4.38376 8.65431 4.37288L8.77175 4.28895L8.88919 4.37288C8.90441 4.38376 8.92466 4.36901 8.91906 4.3512L8.8755 4.21357L8.99162 4.12782C9.00666 4.11673 8.99891 4.09285 8.98022 4.09273L8.83587 4.09163L8.79022 3.9547C8.78425 3.93698 8.75919 3.93698 8.75328 3.9547Z" fill="white"/>
<path d="M7.73668 2.05626L7.69102 2.19319L7.54668 2.19429C7.52799 2.19441 7.52024 2.21829 7.53527 2.22938L7.65137 2.31513L7.6078 2.45276C7.60218 2.47057 7.62246 2.48532 7.63768 2.47444L7.75512 2.39051L7.87255 2.47444C7.88777 2.48532 7.90802 2.47057 7.90243 2.45276L7.85887 2.31513L7.97496 2.22938C7.98999 2.21829 7.98224 2.19441 7.96355 2.19429L7.81921 2.19319L7.77355 2.05626C7.76768 2.03854 7.74259 2.03854 7.73668 2.05626Z" fill="white"/>
<path d="M8.75328 2.05626L8.70762 2.19319L8.56328 2.19429C8.54459 2.19441 8.53684 2.21829 8.55188 2.22938L8.668 2.31513L8.62444 2.45276C8.61881 2.47057 8.63909 2.48532 8.65431 2.47444L8.77175 2.39051L8.88919 2.47444C8.90441 2.48532 8.92466 2.47057 8.91906 2.45276L8.8755 2.31513L8.99162 2.22938C9.00666 2.21829 8.99891 2.19441 8.98022 2.19429L8.83587 2.19319L8.79022 2.05626C8.78425 2.03854 8.75919 2.03854 8.75328 2.05626Z" fill="white"/>
</g>
<defs>
<clipPath id="clip0_5367_189117">
<rect x="15" y="1" width="14" height="14" rx="2" transform="rotate(90 15 1)" fill="white"/>
</clipPath>
</defs>
</svg>
