<svg width="16" height="16" viewBox="0 0 16 16" fill="none" xmlns="http://www.w3.org/2000/svg">
<g clip-path="url(#clip0_5367_189048)">
<rect x="1" y="1" width="14" height="14" rx="2" fill="#F8CB32"/>
<path d="M15 5.66602H1V10.3327H15V5.66602Z" fill="#41479B"/>
<path d="M15 10.334H1V15.0007H15V10.334Z" fill="#FF334B"/>
<path d="M5.56709 8.71737L5.63622 8.92466L5.85468 8.92634C5.88297 8.92656 5.89471 8.96266 5.87196 8.97947L5.69622 9.10925L5.76212 9.31759C5.77065 9.34456 5.73993 9.36687 5.7169 9.3504L5.53915 9.22334L5.3614 9.3504C5.3384 9.36684 5.30768 9.34453 5.31618 9.31759L5.38209 9.10925L5.20634 8.97947C5.18359 8.96269 5.19531 8.92656 5.22362 8.92634L5.44209 8.92466L5.51122 8.71737C5.52018 8.69056 5.55815 8.69056 5.56709 8.71737Z" fill="white"/>
<path d="M5.99132 8.05797L5.95429 8.27332L6.14604 8.37807C6.17085 8.39163 6.16413 8.429 6.13613 8.43304L5.91988 8.46435L5.87951 8.67907C5.87426 8.70685 5.8367 8.71203 5.82416 8.68666L5.72757 8.49066L5.51085 8.51863C5.48279 8.52225 5.46626 8.48807 5.48654 8.46832L5.6431 8.31588L5.54954 8.11844C5.53745 8.09288 5.56482 8.0666 5.58985 8.07979L5.7832 8.18157L5.9421 8.03157C5.96266 8.01216 5.9961 8.0301 5.99132 8.05797Z" fill="white"/>
<path d="M6.52872 7.48114L6.42616 7.67408L6.5755 7.83355C6.59485 7.8542 6.57679 7.88758 6.54891 7.88264L6.33369 7.84473L6.22816 8.03608C6.2145 8.06083 6.17716 8.05398 6.17322 8.02598L6.14279 7.80961L5.92819 7.76836C5.90041 7.76302 5.89541 7.72539 5.92085 7.71299L6.11722 7.61717L6.09013 7.40036C6.0866 7.3723 6.12085 7.35592 6.14051 7.37627L6.29232 7.53339L6.49013 7.44064C6.51582 7.42864 6.54197 7.45614 6.52872 7.48114Z" fill="white"/>
<path d="M7.17493 7.12155L7.02418 7.27974L7.12506 7.47355C7.13812 7.49865 7.11172 7.52593 7.08618 7.51368L6.88918 7.41915L6.73597 7.57496C6.71615 7.59515 6.68203 7.57843 6.68578 7.5504L6.71478 7.3338L6.51925 7.23624C6.49393 7.22362 6.49925 7.18602 6.52706 7.18093L6.742 7.14158L6.77434 6.92549C6.77853 6.89752 6.81593 6.89096 6.82937 6.91587L6.93318 7.10812L7.14872 7.07212C7.17668 7.06752 7.19443 7.10108 7.17493 7.12155Z" fill="white"/>
<path d="M7.9183 6.95611L7.73067 7.06811L7.77592 7.28186C7.7818 7.30955 7.74902 7.32877 7.72773 7.31014L7.56327 7.16633L7.37392 7.27539C7.34939 7.28952 7.32102 7.26433 7.33217 7.2383L7.41814 7.0374L7.25589 6.89105C7.23489 6.87211 7.25011 6.83733 7.27827 6.8399L7.49589 6.85955L7.58495 6.66002C7.59648 6.63421 7.63427 6.6379 7.64055 6.66546L7.68911 6.87849L7.90639 6.90152C7.93442 6.90455 7.94261 6.94161 7.9183 6.95611Z" fill="white"/>
<path d="M10.4331 8.71737L10.364 8.92466L10.1455 8.92634C10.1172 8.92656 10.1055 8.96266 10.1282 8.97947L10.304 9.10925L10.238 9.31759C10.2295 9.34456 10.2602 9.36687 10.2833 9.3504L10.461 9.22334L10.6388 9.3504C10.6618 9.36684 10.6925 9.34453 10.684 9.31759L10.6181 9.10925L10.7938 8.97947C10.8166 8.96269 10.8049 8.92656 10.7765 8.92634L10.5581 8.92466L10.489 8.71737C10.48 8.69056 10.442 8.69056 10.4331 8.71737Z" fill="white"/>
<path d="M10.0089 8.05797L10.046 8.27332L9.8542 8.37807C9.82939 8.39163 9.83611 8.429 9.86411 8.43304L10.0804 8.46435L10.1207 8.67907C10.126 8.70685 10.1636 8.71203 10.1761 8.68666L10.2727 8.49066L10.4894 8.51863C10.5175 8.52225 10.534 8.48807 10.5137 8.46832L10.3571 8.31588L10.4507 8.11844C10.4628 8.09288 10.4354 8.0666 10.4104 8.07979L10.217 8.18157L10.0581 8.03157C10.0376 8.01216 10.0041 8.0301 10.0089 8.05797Z" fill="white"/>
<path d="M9.47184 7.48114L9.5744 7.67408L9.42506 7.83355C9.40571 7.8542 9.42378 7.88758 9.45165 7.88264L9.66687 7.84473L9.7724 8.03608C9.78606 8.06083 9.8234 8.05398 9.82734 8.02598L9.85777 7.80961L10.0724 7.76836C10.1001 7.76302 10.1051 7.72539 10.0797 7.71299L9.88334 7.61717L9.91043 7.40036C9.91396 7.3723 9.87971 7.35592 9.86006 7.37627L9.70824 7.53339L9.51043 7.44064C9.48474 7.42864 9.45859 7.45614 9.47184 7.48114Z" fill="white"/>
<path d="M8.82561 7.12155L8.97636 7.27974L8.87548 7.47355C8.86242 7.49865 8.88883 7.52593 8.91436 7.51368L9.11136 7.41915L9.26458 7.57496C9.28439 7.59515 9.31851 7.57843 9.31473 7.5504L9.28573 7.3338L9.48126 7.23624C9.50658 7.22362 9.50126 7.18602 9.47345 7.18093L9.25852 7.14158L9.22617 6.92549C9.22198 6.89752 9.18458 6.89096 9.17114 6.91587L9.06733 7.10812L8.8518 7.07212C8.82386 7.06752 8.80611 7.10108 8.82561 7.12155Z" fill="white"/>
<path d="M8.08275 6.95611L8.27037 7.06811L8.22512 7.28186C8.21925 7.30955 8.25203 7.32877 8.27331 7.31014L8.43778 7.16633L8.62712 7.27539C8.65165 7.28952 8.68003 7.26433 8.66887 7.2383L8.5829 7.0374L8.74515 6.89105C8.76615 6.87211 8.75093 6.83733 8.72278 6.8399L8.50515 6.85955L8.41609 6.66002C8.40456 6.63421 8.36678 6.6379 8.3605 6.66546L8.31193 6.87849L8.09465 6.90152C8.06662 6.90455 8.05844 6.94161 8.08275 6.95611Z" fill="white"/>
</g>
<defs>
<clipPath id="clip0_5367_189048">
<rect x="1" y="1" width="14" height="14" rx="2" fill="white"/>
</clipPath>
</defs>
</svg>
