<svg width="16" height="16" viewBox="0 0 16 16" fill="none" xmlns="http://www.w3.org/2000/svg">
<g clip-path="url(#clip0_5367_188965)">
<rect x="15" y="1" width="14" height="14" rx="2" transform="rotate(90 15 1)" fill="white"/>
<path d="M16.7241 15H1.27587C1.12353 15 1 14.835 1 14.6316V1.36844C1 1.16498 1.12353 1 1.27587 1H16.7241C16.8765 1 17 1.16498 17 1.36844V14.6316C17 14.8351 16.8764 15 16.7241 15Z" fill="#464655"/>
<path d="M17 7.63062H8.79511L1 1.88672V2.72848L8.15302 7.99906L1 13.2696V14.1114L8.79511 8.36749H17V7.63062Z" fill="#F8CB32"/>
<path d="M1.11035 14.9189C1.15695 14.9668 1.21254 15.0002 1.27588 15.0002H16.7241C16.8765 15.0002 17 14.8352 17 14.6318V9.10547H8.99996L1.11035 14.9189Z" fill="#73AF00"/>
<path d="M16.7241 1H1.27588C1.21254 1 1.15691 1.03339 1.11035 1.08134L8.99996 6.89473H16.9999V1.36844C17 1.16498 16.8764 1 16.7241 1Z" fill="#FF334B"/>
<path d="M4.01416 6.56261C3.2265 6.31483 2.63185 6.88717 2.49594 7.18173C2.38085 7.43133 2.16704 8.56195 3.23285 8.74223C4.29859 8.92254 4.28659 7.91686 4.28659 7.91686C4.23853 8.07714 4.15235 8.53389 3.38303 8.53389C3.09447 8.53389 2.67988 8.10517 2.758 7.63239C2.83154 7.18752 3.22894 6.95995 3.52932 6.94727C3.81375 6.93527 4.47688 7.13158 4.47688 7.93895C4.47688 8.84642 3.54157 8.94864 3.54157 8.94864V9.49661C4.35572 9.41679 4.81647 8.96579 4.93841 8.24339C5.05991 7.52423 4.81503 6.81458 4.01416 6.56261Z" fill="#F8CB32"/>
<path d="M3.14214 7.90854C3.12355 7.93214 3.11367 7.96148 3.11317 7.99151L3.11086 8.13889L3.08217 8.18892C3.07183 8.20698 3.07795 8.23004 3.09595 8.24054C3.11417 8.2512 3.13755 8.24495 3.14802 8.22661L3.17742 8.17517L3.29511 8.13254C3.33077 8.11964 3.35942 8.09283 3.37492 8.05823C3.40567 7.98958 3.4717 7.86351 3.5787 7.73198C3.6857 7.86351 3.75173 7.98958 3.78248 8.05823C3.79795 8.09283 3.82661 8.11961 3.86227 8.13254L3.97998 8.17517L4.00939 8.22661C4.01983 8.24495 4.04327 8.2512 4.06145 8.24054C4.07945 8.23001 4.08558 8.20698 4.07523 8.18892L4.04655 8.13889L4.04423 7.99151C4.04377 7.96148 4.03386 7.93214 4.01527 7.90854C3.91667 7.78333 3.8118 7.68486 3.70845 7.59776C3.79105 7.52014 3.88442 7.44604 4.00202 7.38883C4.02923 7.37558 4.04345 7.34504 4.03642 7.31561C4.02683 7.27542 3.98289 7.25433 3.94545 7.27183C3.86664 7.30854 3.73111 7.38089 3.57867 7.49204C3.4262 7.38092 3.2907 7.30861 3.21189 7.27183C3.17445 7.25439 3.13052 7.27548 3.12092 7.31561C3.11392 7.34504 3.12814 7.37558 3.1553 7.38883C3.27292 7.44604 3.3663 7.52017 3.44889 7.59776C3.34561 7.68486 3.24074 7.78336 3.14214 7.90854Z" fill="#F8CB32"/>
</g>
<defs>
<clipPath id="clip0_5367_188965">
<rect x="15" y="1" width="14" height="14" rx="2" transform="rotate(90 15 1)" fill="white"/>
</clipPath>
</defs>
</svg>
