<svg width="21" height="20" viewBox="0 0 21 20" fill="none" xmlns="http://www.w3.org/2000/svg">
<path d="M18.9216 1.23288C18.0413 0.431582 16.5552 1.08599 15.8477 1.79382C15.8477 1.79382 14.1886 3.36343 13.5004 3.96C13.3374 4.10128 13.1757 4.05068 13.1757 4.05068L5.69384 2.73483C5.37219 2.68898 4.92143 2.83925 4.69202 3.069L4.02417 3.73666C3.79427 3.96616 3.84374 4.2735 4.13387 4.41941L9.65484 7.28805C9.65484 7.28805 10.0806 7.49952 9.82393 7.74394C8.91386 8.61065 7.36953 10.1668 6.53337 11.0079C6.25928 11.2837 5.89759 11.2422 5.89759 11.2422L3.34811 10.9308C3.02387 10.9075 2.5712 11.0764 2.3413 11.3059L1.18511 12.4624C0.9555 12.692 0.99006 13.0247 1.26254 13.2018L5.49958 14.2111C5.77206 14.3881 5.84636 14.4622 6.02327 14.7343L6.96648 18.9061C7.14359 19.1784 7.47634 19.213 7.70594 18.9835L8.86243 17.8268C9.09184 17.5973 9.26113 17.1445 9.2383 16.8208L8.93591 14.3626C8.93591 14.3626 8.89103 14.0499 9.06281 13.8759C9.91197 13.0155 11.6026 11.3696 12.493 10.4677C12.7692 10.1881 12.8861 10.5387 12.8861 10.5387L15.7351 16.0202C15.8809 16.3106 16.1885 16.3601 16.4182 16.1306L17.0858 15.4624C17.3152 15.2328 17.4661 14.782 17.4207 14.4607L16.1559 7.19175C16.1559 7.19175 16.1015 6.93736 16.2548 6.77174C16.8041 6.17815 18.4468 4.39248 18.4468 4.39248C19.154 3.68494 19.8451 2.07344 18.9216 1.23288Z"/>
</svg>