<svg width="48" height="48" viewBox="0 0 48 48" fill="none" xmlns="http://www.w3.org/2000/svg">
<path d="M40.5 6.75H26.25C25.8375 6.75 25.5 7.0875 25.5 7.5V21.75C25.5 22.1625 25.8375 22.5 26.25 22.5H40.5C40.9125 22.5 41.25 22.1625 41.25 21.75V7.5C41.25 7.0875 40.9125 6.75 40.5 6.75ZM40.5 25.5H26.25C25.8375 25.5 25.5 25.8375 25.5 26.25V40.5C25.5 40.9125 25.8375 41.25 26.25 41.25H40.5C40.9125 41.25 41.25 40.9125 41.25 40.5V26.25C41.25 25.8375 40.9125 25.5 40.5 25.5ZM21.75 6.75H7.5C7.0875 6.75 6.75 7.0875 6.75 7.5V21.75C6.75 22.1625 7.0875 22.5 7.5 22.5H21.75C22.1625 22.5 22.5 22.1625 22.5 21.75V7.5C22.5 7.0875 22.1625 6.75 21.75 6.75ZM21.75 25.5H7.5C7.0875 25.5 6.75 25.8375 6.75 26.25V40.5C6.75 40.9125 7.0875 41.25 7.5 41.25H21.75C22.1625 41.25 22.5 40.9125 22.5 40.5V26.25C22.5 25.8375 22.1625 25.5 21.75 25.5Z" fill="current"/>
</svg>
