<svg width="48" height="48" viewBox="0 0 48 48" fill="none" xmlns="http://www.w3.org/2000/svg">
<path d="M39 14.625H32.625V13.875C32.625 9.1125 28.7625 5.25 24 5.25C19.2375 5.25 15.375 9.1125 15.375 13.875V14.625H9C8.17031 14.625 7.5 15.2953 7.5 16.125V41.25C7.5 42.0797 8.17031 42.75 9 42.75H39C39.8297 42.75 40.5 42.0797 40.5 41.25V16.125C40.5 15.2953 39.8297 14.625 39 14.625ZM29.25 14.625H18.75V13.875C18.75 10.9734 21.0984 8.625 24 8.625C26.9016 8.625 29.25 10.9734 29.25 13.875V14.625Z" fill="#FF6C28"/>
</svg>
