<svg width="48" height="48" viewBox="0 0 48 48" fill="none" xmlns="http://www.w3.org/2000/svg">
<g clip-path="url(#clip0_53_238580)">
<path d="M44.9322 2.95888C42.8195 1.03575 39.2527 2.60633 37.5547 4.30513C37.5547 4.30513 33.573 8.07219 31.9212 9.50397C31.5301 9.84303 31.1421 9.7216 31.1421 9.7216L13.1855 6.56356C12.4136 6.45351 11.3317 6.81416 10.7812 7.36556L9.17833 8.96793C8.62657 9.51875 8.7453 10.2563 9.44159 10.6066L22.6919 17.4913C22.6919 17.4913 23.7137 17.9988 23.0977 18.5854C20.9136 20.6655 17.2072 24.4002 15.2004 26.4189C14.5426 27.0807 13.6745 26.9813 13.6745 26.9813L7.55578 26.2338C6.77759 26.1781 5.6912 26.5833 5.13944 27.1342L2.36457 29.9098C1.81351 30.4609 1.89646 31.2592 2.5504 31.6843L12.7193 34.1065C13.3732 34.5313 13.5516 34.7092 13.9762 35.3622L16.2399 45.3747C16.6649 46.028 17.4635 46.1111 18.0146 45.5604L20.7902 42.7842C21.3407 42.2335 21.747 41.1468 21.6922 40.3699L20.9665 34.4703C20.9665 34.4703 20.8588 33.7198 21.2711 33.302C23.309 31.2371 27.3665 27.287 29.5035 25.1225C30.1663 24.4513 30.4471 25.2928 30.4471 25.2928L37.2846 38.4484C37.6345 39.1453 38.3728 39.2643 38.924 38.7133L40.5263 37.1098C41.0767 36.5586 41.439 35.4768 41.33 34.7057L38.2944 17.2602C38.2944 17.2602 38.1638 16.6496 38.5318 16.2521C39.8502 14.8275 43.7927 10.5419 43.7927 10.5419C45.4899 8.84381 47.1486 4.97621 44.9322 2.95888Z" fill="#FF6C28"/>
</g>
<defs>
<clipPath id="clip0_53_238580">
<rect width="44" height="44" fill="white" transform="translate(2 2)"/>
</clipPath>
</defs>
</svg>
