<svg width="21" height="20" viewBox="0 0 21 20" fill="none" xmlns="http://www.w3.org/2000/svg">
<path fill-rule="evenodd" clip-rule="evenodd" d="M16.5589 7.89341C16.5589 11.3168 13.7837 14.092 10.3603 14.092C6.93688 14.092 4.16166 11.3168 4.16166 7.89341C4.16166 4.47001 6.93688 1.69479 10.3603 1.69479C13.7837 1.69479 16.5589 4.47001 16.5589 7.89341ZM9.32841 14.7425C7.32756 14.4813 5.58918 13.3852 4.47435 11.8153L2.41455 15.383C2.3497 15.4953 2.42361 15.637 2.55285 15.648L5.3934 15.8908L7.02393 18.2294C7.09811 18.3358 7.25774 18.329 7.32259 18.2167L9.32841 14.7425ZM11.2862 14.7425C13.287 14.4813 15.0254 13.3852 16.1402 11.8153L18.2 15.383C18.2649 15.4953 18.191 15.637 18.0617 15.648L15.2212 15.8908L13.5906 18.2294C13.5165 18.3358 13.3568 18.329 13.292 18.2167L11.2862 14.7425ZM11.4266 6.60035L13.4252 6.90451C13.5629 6.92594 13.6589 7.05947 13.6377 7.20372C13.6298 7.26142 13.6038 7.31417 13.5645 7.35456L12.1185 8.83083L12.4601 10.9154C12.4837 11.0588 12.3916 11.1948 12.2547 11.2196C12.2004 11.2295 12.1437 11.2204 12.0949 11.1932L10.3073 10.209L8.51972 11.1932C8.47816 11.2162 8.43129 11.2265 8.38441 11.223C8.33754 11.2195 8.29254 11.2023 8.25451 11.1734C8.21649 11.1445 8.18696 11.105 8.16928 11.0594C8.15161 11.0138 8.14648 10.9639 8.15449 10.9154L8.49611 8.83083L7.05014 7.35456C7.00226 7.30568 6.97487 7.2389 6.97398 7.16889C6.97309 7.09887 6.99879 7.03135 7.04542 6.98117C7.08399 6.93995 7.13436 6.91275 7.18946 6.90451L9.188 6.60035L10.0814 4.70371C10.1436 4.57347 10.2947 4.5199 10.4191 4.58419C10.4687 4.60974 10.5088 4.65178 10.5332 4.70371L11.4266 6.60035Z"/>
</svg>
