<svg width="24" height="24" viewBox="0 0 24 24" fill="none" xmlns="http://www.w3.org/2000/svg">
<path d="M12.4617 12.4963L20.107 6.51268C20.1984 6.44237 20.25 6.33221 20.25 6.21737L20.25 4.40565C20.25 4.24862 20.0695 4.1619 19.9477 4.258L12 10.4783L4.05235 4.258C4.02471 4.23636 3.99154 4.22293 3.95664 4.21925C3.92173 4.21557 3.88649 4.22179 3.85496 4.23719C3.82342 4.25259 3.79685 4.27656 3.77829 4.30635C3.75973 4.33614 3.74992 4.37055 3.75 4.40565L3.75 6.21737C3.75 6.33221 3.80391 6.44237 3.89297 6.51268L11.5359 12.4963C11.8102 12.7096 12.1898 12.7096 12.4617 12.4963ZM12.4617 19.6213L20.107 13.6377C20.1984 13.5674 20.25 13.4572 20.25 13.3424L20.25 11.5307C20.25 11.3736 20.0695 11.2869 19.9477 11.383L12 17.6033L4.05234 11.383C4.02471 11.3614 3.99154 11.3479 3.95664 11.3442C3.92173 11.3406 3.88649 11.3468 3.85496 11.3622C3.82342 11.3776 3.79685 11.4016 3.77829 11.4313C3.75973 11.4611 3.74992 11.4956 3.75 11.5307L3.75 13.3424C3.75 13.4572 3.80391 13.5674 3.89297 13.6377L11.5359 19.6213C11.8102 19.8346 12.1898 19.8346 12.4617 19.6213Z" fill="#262626"/>
</svg>
