<svg width="21" height="20" viewBox="0 0 21 20" fill="none" xmlns="http://www.w3.org/2000/svg">
<path fill-rule="evenodd" clip-rule="evenodd" d="M4.26823 8.33333C4.26823 6.03215 6.13371 4.16667 8.4349 4.16667C10.7361 4.16667 12.6016 6.03215 12.6016 8.33333C12.6016 10.6345 10.7361 12.5 8.4349 12.5C6.13371 12.5 4.26823 10.6345 4.26823 8.33333ZM8.4349 2.5C5.21323 2.5 2.60156 5.11167 2.60156 8.33333C2.60156 11.555 5.21323 14.1667 8.4349 14.1667C9.74517 14.1667 10.9545 13.7347 11.9284 13.0053L12.8937 13.9707L12.5154 14.3489C12.4504 14.414 12.4504 14.5195 12.5154 14.5846L15.8153 17.8845C15.8804 17.9496 15.986 17.9496 16.051 17.8845L17.9369 15.9986C18.002 15.9335 18.002 15.828 17.9369 15.7629L14.637 12.463C14.5719 12.3979 14.4664 12.3979 14.4013 12.463L14.0722 12.7922L13.1069 11.8268C13.8362 10.853 14.2682 9.64362 14.2682 8.33333C14.2682 5.11167 11.6566 2.5 8.4349 2.5ZM7.01746 6C7.01746 5.90795 6.94284 5.83333 6.85079 5.83333H5.85079C5.75874 5.83333 5.68412 5.90795 5.68412 6L5.68412 10.6668C5.68412 10.7588 5.75874 10.8334 5.85079 10.8334H6.85079C6.94284 10.8334 7.01746 10.7588 7.01746 10.6668V6ZM8.84659 8.34147C8.93864 8.34147 9.01325 8.41609 9.01325 8.50814V10.6668C9.01325 10.7588 8.93864 10.8334 8.84659 10.8334H7.84659C7.75454 10.8334 7.67992 10.7588 7.67992 10.6668V8.50814C7.67992 8.41609 7.75454 8.34147 7.84659 8.34147H8.84659ZM10.8998 7.356C10.8998 7.26395 10.8252 7.18933 10.7332 7.18933H9.73316C9.64111 7.18933 9.56649 7.26395 9.56649 7.356V10.6668C9.56649 10.7588 9.64111 10.8334 9.73316 10.8334H10.7332C10.8252 10.8334 10.8998 10.7588 10.8998 10.6668V7.356Z"/>
</svg>
