<svg width="48" height="48" viewBox="0 0 48 48" fill="none" xmlns="http://www.w3.org/2000/svg">
<path fill-rule="evenodd" clip-rule="evenodd" d="M10 20C10 14.4772 14.4772 10 20 10C25.5228 10 30 14.4772 30 20C30 25.5228 25.5228 30 20 30C14.4772 30 10 25.5228 10 20ZM20 6C12.268 6 6 12.268 6 20C6 27.732 12.268 34 20 34C23.1447 34 26.0472 32.9632 28.3843 31.2128L30.7011 33.5296L29.7933 34.4374C29.6371 34.5936 29.6371 34.8469 29.7933 35.0031L37.7131 42.9228C37.8693 43.079 38.1225 43.079 38.2787 42.9228L42.8049 38.3967C42.9611 38.2405 42.9611 37.9872 42.8049 37.831L34.8851 29.9113C34.7289 29.7551 34.4757 29.7551 34.3195 29.9113L33.5295 30.7012L31.2127 28.3844C32.9632 26.0472 34 23.1447 34 20C34 12.268 27.732 6 20 6ZM16.5981 14.4C16.5981 14.1791 16.4191 14 16.1981 14H13.7981C13.5772 14 13.3981 14.1791 13.3981 14.4L13.3981 25.6002C13.3981 25.8211 13.5772 26.0002 13.7981 26.0002H16.1981C16.4191 26.0002 16.5981 25.8211 16.5981 25.6002V14.4ZM20.9881 20.0195C21.209 20.0195 21.3881 20.1986 21.3881 20.4195V25.6002C21.3881 25.8211 21.209 26.0002 20.9881 26.0002H18.5881C18.3671 26.0002 18.1881 25.8211 18.1881 25.6002V20.4195C18.1881 20.1986 18.3671 20.0195 18.5881 20.0195H20.9881ZM25.9158 17.6544C25.9158 17.4335 25.7367 17.2544 25.5158 17.2544H23.1158C22.8949 17.2544 22.7158 17.4335 22.7158 17.6544V25.6002C22.7158 25.8211 22.8949 26.0002 23.1158 26.0002H25.5158C25.7367 26.0002 25.9158 25.8211 25.9158 25.6002V17.6544Z" fill="#FF6C28"/>
</svg>
