<svg width="20" height="20" viewBox="0 0 20 20" fill="none" xmlns="http://www.w3.org/2000/svg">
<path d="M17.3027 10.4248C17.6309 9.99123 17.8125 9.45998 17.8125 8.90724C17.8125 8.03029 17.3223 7.20021 16.5332 6.73732C16.3301 6.61817 16.0988 6.55546 15.8633 6.55568H11.1797L11.2969 4.15529C11.3242 3.57521 11.1191 3.02443 10.7207 2.60451C10.5252 2.39753 10.2893 2.23285 10.0276 2.12065C9.76588 2.00845 9.48395 1.9511 9.19922 1.95216C8.18359 1.95216 7.28516 2.63576 7.01562 3.61427L5.33789 9.68849H5.33203V18.0479H14.5566C14.7363 18.0479 14.9121 18.0127 15.0742 17.9424C16.0039 17.5459 16.6035 16.6377 16.6035 15.6299C16.6035 15.3838 16.5684 15.1416 16.498 14.9072C16.8262 14.4736 17.0078 13.9424 17.0078 13.3897C17.0078 13.1436 16.9727 12.9014 16.9023 12.667C17.2305 12.2334 17.4121 11.7022 17.4121 11.1494C17.4082 10.9033 17.373 10.6592 17.3027 10.4248ZM2.1875 10.3135V17.4229C2.1875 17.7686 2.4668 18.0479 2.8125 18.0479H4.08203V9.68849H2.8125C2.4668 9.68849 2.1875 9.96779 2.1875 10.3135Z" />
</svg>
