<svg width="20" height="20" viewBox="0 0 20 20" fill="none" xmlns="http://www.w3.org/2000/svg">
<path d="M11.2119 12.9971C11.1825 12.968 11.1429 12.9517 11.1016 12.9517C11.0602 12.9517 11.0206 12.968 10.9912 12.9971L8.72168 15.2666C7.6709 16.3174 5.89746 16.4287 4.7373 15.2666C3.5752 14.1045 3.68652 12.333 4.7373 11.2822L7.00684 9.0127C7.06738 8.95215 7.06738 8.85254 7.00684 8.79199L6.22949 8.01465C6.20013 7.98557 6.16047 7.96926 6.11914 7.96926C6.07781 7.96926 6.03816 7.98557 6.00879 8.01465L3.73926 10.2842C2.08691 11.9365 2.08691 14.6104 3.73926 16.2607C5.3916 17.9111 8.06543 17.9131 9.71582 16.2607L11.9854 13.9912C12.0459 13.9307 12.0459 13.8311 11.9854 13.7705L11.2119 12.9971ZM16.2627 3.73926C14.6104 2.08691 11.9365 2.08691 10.2861 3.73926L8.01465 6.00879C7.98557 6.03816 7.96926 6.07781 7.96926 6.11914C7.96926 6.16047 7.98557 6.20013 8.01465 6.22949L8.79004 7.00488C8.85059 7.06543 8.9502 7.06543 9.01074 7.00488L11.2803 4.73535C12.3311 3.68457 14.1045 3.57324 15.2646 4.73535C16.4268 5.89746 16.3154 7.66895 15.2646 8.71973L12.9951 10.9893C12.966 11.0186 12.9497 11.0583 12.9497 11.0996C12.9497 11.1409 12.966 11.1806 12.9951 11.21L13.7725 11.9873C13.833 12.0479 13.9326 12.0479 13.9932 11.9873L16.2627 9.71777C17.9131 8.06543 17.9131 5.3916 16.2627 3.73926ZM11.917 7.27246C11.8876 7.24338 11.848 7.22707 11.8066 7.22707C11.7653 7.22707 11.7257 7.24338 11.6963 7.27246L7.27246 11.6943C7.24338 11.7237 7.22707 11.7634 7.22707 11.8047C7.22707 11.846 7.24338 11.8857 7.27246 11.915L8.0459 12.6885C8.10645 12.749 8.20606 12.749 8.2666 12.6885L12.6885 8.2666C12.749 8.20606 12.749 8.10645 12.6885 8.0459L11.917 7.27246Z" />
</svg>
