<svg width="48" height="48" viewBox="0 0 48 48" fill="none" xmlns="http://www.w3.org/2000/svg">
<path fill-rule="evenodd" clip-rule="evenodd" d="M39.0039 18.9442C39.0039 27.1604 32.3433 33.8209 24.1272 33.8209C15.911 33.8209 9.25048 27.1604 9.25048 18.9442C9.25048 10.728 15.911 4.0675 24.1272 4.0675C32.3433 4.0675 39.0039 10.728 39.0039 18.9442ZM21.6507 35.382C16.8486 34.7552 12.6765 32.1246 10.0009 28.3568L5.05743 36.9193C4.90178 37.1888 5.07917 37.5288 5.38933 37.5553L12.2067 38.138L16.1199 43.7506C16.298 44.006 16.6811 43.9896 16.8367 43.72L21.6507 35.382ZM26.3493 35.382C31.1513 34.7552 35.3235 32.1246 37.999 28.3568L42.9425 36.9193C43.0982 37.1888 42.9208 37.5288 42.6106 37.5553L35.7933 38.138L31.88 43.7506C31.702 44.006 31.3189 43.9896 31.1633 43.72L26.3493 35.382ZM26.6864 15.8408L31.4829 16.5708C31.8135 16.6223 32.0439 16.9427 31.9929 17.2889C31.974 17.4274 31.9117 17.554 31.8172 17.6509L28.3469 21.194L29.1668 26.197C29.2235 26.5412 29.0024 26.8676 28.6737 26.9269C28.5434 26.9507 28.4074 26.9289 28.2902 26.8636L24 24.5016L19.7098 26.8636C19.6101 26.9188 19.4976 26.9436 19.3851 26.9352C19.2726 26.9268 19.1646 26.8855 19.0733 26.8161C18.9821 26.7467 18.9112 26.6519 18.8688 26.5425C18.8264 26.433 18.8141 26.3134 18.8333 26.197L19.6532 21.194L16.1828 17.6509C16.0679 17.5336 16.0022 17.3734 16.0001 17.2053C15.9979 17.0373 16.0596 16.8752 16.1715 16.7548C16.2641 16.6559 16.385 16.5906 16.5172 16.5708L21.3137 15.8408L23.4579 11.2889C23.6071 10.9763 23.9698 10.8478 24.2683 11.0021C24.3873 11.0634 24.4837 11.1643 24.5422 11.2889L26.6864 15.8408Z" fill="#FF6C28"/>
</svg>
