<svg width="42" height="44" viewBox="0 0 42 44" fill="none" xmlns="http://www.w3.org/2000/svg">
<path fill-rule="evenodd" clip-rule="evenodd" d="M11.7106 16.258L4.71597 18.2773C3.88925 18.516 3.35386 19.4152 3.64826 20.2259L10.7079 39.381C11.4679 41.456 13.2884 42.8122 15.7779 42.0936L35.7865 36.3172C38.0252 35.6709 39.1622 33.8231 38.6308 31.3198L34.3831 11.3428C34.2094 10.4973 33.2705 10.0338 32.4438 10.2724L25.4584 12.2891C24.561 9.98204 23.2846 8.03596 21.8652 6.67462C19.977 4.87498 17.814 4.04027 15.7982 4.6222C13.7825 5.20413 12.3852 7.05664 11.7587 9.59231C11.2859 11.51 11.2404 13.8276 11.7106 16.258ZM23.6935 12.7986L13.457 15.7538C13.0806 13.6486 13.1097 11.6577 13.5183 10.0403C13.9938 8.13193 14.9555 6.75739 16.3024 6.36855C17.64 5.98238 19.1956 6.63018 20.5939 7.98759C21.8043 9.14764 22.8965 10.8047 23.6935 12.7986ZM18.2502 32.8764C18.1211 33.2659 18.3308 33.6783 18.7202 33.8074C19.022 33.9115 19.3064 33.9904 19.5762 34.0534C21.7612 34.6503 23.687 34.6981 25.2011 34.261C26.8147 33.7851 27.9607 32.77 28.4572 31.248C28.4599 31.2378 28.4627 31.227 28.4657 31.2154C28.479 31.1645 28.4959 31.0992 28.5216 31.0181C28.6505 30.5582 28.7117 30.1078 28.7079 29.6762C28.7012 28.712 28.392 27.8151 27.771 27.0585C27.1674 26.3271 26.2667 25.7518 25.0772 25.4311C24.3569 25.2365 23.5225 25.1352 22.577 25.1365C20.8293 25.1479 19.4992 24.8979 18.7246 24.3064C18.0539 23.7956 17.7979 22.9437 18.0786 21.6853C18.2439 20.9331 18.9247 20.2938 19.9503 19.9072C21.0222 19.5071 22.4191 19.3957 24.0069 19.7021C24.4136 19.786 24.7913 19.526 24.8752 19.1193C24.9591 18.7127 24.6964 18.3257 24.2925 18.2511C22.4282 17.8936 20.7393 18.0391 19.4405 18.5247C17.9334 19.0907 16.9123 20.1201 16.6315 21.3785C16.2144 23.2801 16.671 24.6175 17.8315 25.5002C18.8882 26.3021 20.52 26.6561 22.5891 26.6425C23.4005 26.6296 24.1006 26.7193 24.6907 26.8811C25.5746 27.119 26.2158 27.5276 26.6302 28.0218C27.018 28.4936 27.2175 29.08 27.2165 29.7042C27.2134 30.007 27.1757 30.3298 27.0863 30.6475C27.0857 30.6631 27.0784 30.6834 27.069 30.7095C27.0601 30.7344 27.0492 30.7647 27.0403 30.8017C26.7044 31.8345 25.9082 32.5273 24.7749 32.8545C23.5209 33.2165 21.8739 33.1586 19.9521 32.6366C19.6797 32.5644 19.4258 32.4867 19.1812 32.4064C18.7917 32.2773 18.3793 32.4869 18.2502 32.8764Z"/>
</svg>
