<svg width="32" height="32" viewBox="0 0 32 32" fill="none" xmlns="http://www.w3.org/2000/svg">
<path d="M8.625 20H4.125C3.57187 20 3.125 20.4469 3.125 21V29C3.125 29.5531 3.57187 30 4.125 30H8.625C9.17813 30 9.625 29.5531 9.625 29V21C9.625 20.4469 9.17813 20 8.625 20Z" fill="#EBEBEB"/>
<path d="M13.75 11H18.25C18.8031 11 19.25 11.4469 19.25 12V29C19.25 29.5531 18.8031 30 18.25 30H13.75C13.1969 30 12.75 29.5531 12.75 29V12C12.75 11.4469 13.1969 11 13.75 11Z" fill="#FFA378"/>
<path d="M23.375 2H27.875C28.4281 2 28.875 2.44687 28.875 3V29C28.875 29.5531 28.4281 30 27.875 30H23.375C22.8219 30 22.375 29.5531 22.375 29V3C22.375 2.44687 22.8219 2 23.375 2Z" fill="#E64900"/>
</svg>
