<svg width="20" height="20" viewBox="0 0 20 20" fill="none" xmlns="http://www.w3.org/2000/svg">
<path d="M10 1.25C5.16797 1.25 1.25 5.16797 1.25 10C1.25 14.832 5.16797 18.75 10 18.75C14.832 18.75 18.75 14.832 18.75 10C18.75 5.16797 14.832 1.25 10 1.25ZM5.625 8.22266C5.63001 7.97733 5.73098 7.74374 5.90625 7.57201C6.08152 7.40028 6.31712 7.3041 6.5625 7.3041C6.80788 7.3041 7.04348 7.40028 7.21875 7.57201C7.39402 7.74374 7.49499 7.97733 7.5 8.22266C7.49499 8.46798 7.39402 8.70157 7.21875 8.8733C7.04348 9.04503 6.80788 9.14121 6.5625 9.14121C6.31712 9.14121 6.08152 9.04503 5.90625 8.8733C5.73098 8.70157 5.63001 8.46798 5.625 8.22266ZM10 13.5352C8.33008 13.5352 6.96094 12.2207 6.875 10.5742C6.87394 10.5531 6.8772 10.5319 6.88457 10.512C6.89195 10.4922 6.90329 10.474 6.91791 10.4586C6.93252 10.4433 6.95011 10.4311 6.96959 10.4228C6.98908 10.4144 7.01006 10.4101 7.03125 10.4102H7.9707C8.05273 10.4102 8.12305 10.4727 8.12891 10.5547C8.20312 11.5215 9.01367 12.2852 10 12.2852C10.9863 12.2852 11.7988 11.5215 11.8711 10.5547C11.877 10.4727 11.9473 10.4102 12.0293 10.4102H12.9688C12.9899 10.4101 13.0109 10.4144 13.0304 10.4228C13.0499 10.4311 13.0675 10.4433 13.0821 10.4586C13.0967 10.474 13.108 10.4922 13.1154 10.512C13.1228 10.5319 13.1261 10.5531 13.125 10.5742C13.0391 12.2207 11.6699 13.5352 10 13.5352ZM13.4375 9.16016C13.1922 9.15515 12.9586 9.05418 12.7869 8.87891C12.6151 8.70364 12.5189 8.46803 12.5189 8.22266C12.5189 7.97728 12.6151 7.74168 12.7869 7.56641C12.9586 7.39114 13.1922 7.29016 13.4375 7.28516C13.6828 7.29016 13.9164 7.39114 14.0881 7.56641C14.2599 7.74168 14.3561 7.97728 14.3561 8.22266C14.3561 8.46803 14.2599 8.70364 14.0881 8.87891C13.9164 9.05418 13.6828 9.15515 13.4375 9.16016Z" fill="#FF6C28"/>
</svg>
