<svg width="20" height="20" viewBox="0 0 20 20" fill="none" xmlns="http://www.w3.org/2000/svg">
<path d="M17.7379 6.89552L12.7789 6.17481L10.5621 1.68067C10.5015 1.55762 10.4019 1.45802 10.2789 1.39747C9.97028 1.24512 9.59528 1.37208 9.44098 1.68067L7.22419 6.17481L2.2652 6.89552C2.12849 6.91505 2.00349 6.9795 1.90778 7.07716C1.79208 7.19607 1.72833 7.35606 1.73052 7.52196C1.73272 7.68787 1.80069 7.84611 1.9195 7.96192L5.50739 11.46L4.65974 16.3994C4.63986 16.5143 4.65257 16.6325 4.69644 16.7405C4.7403 16.8486 4.81357 16.9422 4.90792 17.0107C5.00227 17.0792 5.11393 17.1199 5.23024 17.1282C5.34656 17.1365 5.46287 17.1121 5.56598 17.0576L10.0015 14.7256L14.4371 17.0576C14.5582 17.1221 14.6988 17.1436 14.8336 17.1201C15.1734 17.0615 15.4019 16.7393 15.3433 16.3994L14.4957 11.46L18.0836 7.96192C18.1812 7.86622 18.2457 7.74122 18.2652 7.6045C18.3179 7.2627 18.0797 6.9463 17.7379 6.89552Z" />
</svg>
