<svg width="24" height="24" viewBox="0 0 24 24" fill="none" xmlns="http://www.w3.org/2000/svg">
<path fill-rule="evenodd" clip-rule="evenodd" d="M2.8125 3.75H21.1875C21.2906 3.75 21.375 3.83437 21.375 3.9375V5.4375C21.375 5.54062 21.2906 5.625 21.1875 5.625H2.8125C2.70937 5.625 2.625 5.54062 2.625 5.4375V3.9375C2.625 3.83437 2.70937 3.75 2.8125 3.75ZM2.8125 18.375H21.1875C21.2906 18.375 21.375 18.4594 21.375 18.5625V20.0625C21.375 20.1656 21.2906 20.25 21.1875 20.25H2.8125C2.70937 20.25 2.625 20.1656 2.625 20.0625V18.5625C2.625 18.4594 2.70937 18.375 2.8125 18.375ZM2.8125 11.0625H13.1875C13.2906 11.0625 13.375 11.1469 13.375 11.25V12.75C13.375 12.8531 13.2906 12.9375 13.1875 12.9375H2.8125C2.70937 12.9375 2.625 12.8531 2.625 12.75V11.25C2.625 11.1469 2.70937 11.0625 2.8125 11.0625ZM16.3214 16.9237L20.9345 12.0695C20.9711 12.0309 20.9711 11.9703 20.9345 11.9317L16.3209 7.07701C16.2814 7.03548 16.2152 7.03553 16.1758 7.07713L15.0654 8.24958C15.0287 8.28828 15.0289 8.34893 15.0657 8.38745L18.5208 12.0006L15.0825 15.6142C15.046 15.6526 15.0457 15.7127 15.0818 15.7514L16.1758 16.923C16.2151 16.9651 16.2817 16.9654 16.3214 16.9237Z"/>
</svg>
