<svg width="32" height="32" viewBox="0 0 32 32" fill="none" xmlns="http://www.w3.org/2000/svg">
<path d="M25.1875 7.75H6.8125C6.70937 7.75 6.625 7.83437 6.625 7.9375V9.4375C6.625 9.54062 6.70937 9.625 6.8125 9.625H25.1875C25.2906 9.625 25.375 9.54062 25.375 9.4375V7.9375C25.375 7.83437 25.2906 7.75 25.1875 7.75ZM25.1875 22.375H6.8125C6.70937 22.375 6.625 22.4594 6.625 22.5625V24.0625C6.625 24.1656 6.70937 24.25 6.8125 24.25H25.1875C25.2906 24.25 25.375 24.1656 25.375 24.0625V22.5625C25.375 22.4594 25.2906 22.375 25.1875 22.375ZM25.1875 15.0625H6.8125C6.70937 15.0625 6.625 15.1469 6.625 15.25V16.75C6.625 16.8531 6.70937 16.9375 6.8125 16.9375H25.1875C25.2906 16.9375 25.375 16.8531 25.375 16.75V15.25C25.375 15.1469 25.2906 15.0625 25.1875 15.0625Z" fill="black"/>
</svg>
