<svg width="16" height="17" viewBox="0 0 16 17" fill="none" xmlns="http://www.w3.org/2000/svg">
<path d="M11.75 10.9023C11.3047 10.9023 10.8937 11.0586 10.5719 11.3195L7.33437 8.97734C7.38859 8.67979 7.38859 8.3749 7.33437 8.07734L10.5719 5.73516C10.8937 5.99609 11.3047 6.15234 11.75 6.15234C12.7844 6.15234 13.625 5.31172 13.625 4.27734C13.625 3.24297 12.7844 2.40234 11.75 2.40234C10.7156 2.40234 9.875 3.24297 9.875 4.27734C9.875 4.45859 9.9 4.63203 9.94844 4.79766L6.87344 7.02422C6.41719 6.41953 5.69219 6.02734 4.875 6.02734C3.49375 6.02734 2.375 7.14609 2.375 8.52734C2.375 9.90859 3.49375 11.0273 4.875 11.0273C5.69219 11.0273 6.41719 10.6352 6.87344 10.0305L9.94844 12.257C9.9 12.4227 9.875 12.5977 9.875 12.7773C9.875 13.8117 10.7156 14.6523 11.75 14.6523C12.7844 14.6523 13.625 13.8117 13.625 12.7773C13.625 11.743 12.7844 10.9023 11.75 10.9023ZM11.75 3.46484C12.1984 3.46484 12.5625 3.82891 12.5625 4.27734C12.5625 4.72578 12.1984 5.08984 11.75 5.08984C11.3016 5.08984 10.9375 4.72578 10.9375 4.27734C10.9375 3.82891 11.3016 3.46484 11.75 3.46484ZM4.875 9.90234C4.11719 9.90234 3.5 9.28516 3.5 8.52734C3.5 7.76953 4.11719 7.15234 4.875 7.15234C5.63281 7.15234 6.25 7.76953 6.25 8.52734C6.25 9.28516 5.63281 9.90234 4.875 9.90234ZM11.75 13.5898C11.3016 13.5898 10.9375 13.2258 10.9375 12.7773C10.9375 12.3289 11.3016 11.9648 11.75 11.9648C12.1984 11.9648 12.5625 12.3289 12.5625 12.7773C12.5625 13.2258 12.1984 13.5898 11.75 13.5898Z" fill="current"/>
</svg>
