<svg width="141" height="27" viewBox="0 0 141 27" fill="none" xmlns="http://www.w3.org/2000/svg">
<path d="M8.77322 24.9058C13.6185 24.9058 17.5464 20.9779 17.5464 16.1326C17.5464 11.2873 13.6185 7.35938 8.77322 7.35938C3.9279 7.35938 0 11.2873 0 16.1326C0 20.9779 3.9279 24.9058 8.77322 24.9058Z" fill="white"/>
<path d="M37.5817 19.7963L26.0515 23.2299C26.0967 22.8096 26.1324 22.3988 26.1576 21.9954C26.166 21.8609 26.1745 21.7274 26.1829 21.594C26.1902 21.4616 26.1965 21.3292 26.2018 21.1989C26.206 21.0687 26.2123 20.9384 26.2154 20.8091C26.2228 20.5517 26.2259 20.2974 26.2259 20.0463C26.2259 19.6387 26.2175 19.2405 26.1986 18.8528C26.1934 18.755 26.1881 18.6573 26.1818 18.5596C26.1787 18.5113 26.1755 18.463 26.1723 18.4146C26.1702 18.3663 26.166 18.318 26.1629 18.2707C26.1555 18.1772 26.1492 18.0837 26.1419 17.9901C26.1366 17.9145 26.1303 17.8409 26.1219 17.7663C26.1072 17.5993 26.0883 17.4364 26.0694 17.2725C26.0599 17.1927 26.0515 17.1139 26.041 17.0351C26.0168 16.8438 25.9906 16.6558 25.9622 16.4709C25.9601 16.4519 25.957 16.433 25.9538 16.4141L25.9412 16.3385C25.9391 16.3154 25.9349 16.2912 25.9317 16.2681C25.9254 16.2197 25.917 16.1714 25.9086 16.1231C25.9055 16.0989 25.9013 16.0747 25.895 16.0506C25.8929 16.0254 25.8887 16.0001 25.8834 15.976C25.8803 15.9571 25.8761 15.9382 25.8719 15.9203C25.8719 15.9119 25.8687 15.9035 25.8666 15.8951C25.8634 15.8699 25.8592 15.8457 25.854 15.8215C25.8519 15.81 25.8508 15.7984 25.8487 15.7869C25.8456 15.7711 25.8424 15.7553 25.8393 15.7406C25.8319 15.6965 25.8235 15.6524 25.813 15.6082C25.8015 15.5452 25.7878 15.4832 25.7752 15.4212C25.7699 15.3992 25.7647 15.376 25.7605 15.354C25.7584 15.3487 25.7573 15.3435 25.7563 15.3382C25.7563 15.3351 25.7563 15.3309 25.7542 15.3277C25.7479 15.2962 25.7405 15.2647 25.7332 15.2342C25.7269 15.2069 25.7216 15.1796 25.7153 15.1522C25.7101 15.126 25.7048 15.1008 25.6995 15.0755C25.6901 15.0293 25.6785 14.982 25.668 14.9358C25.668 14.9306 25.6659 14.9242 25.6638 14.919C25.6523 14.8675 25.6397 14.816 25.626 14.7645C25.6176 14.7288 25.6081 14.6931 25.5976 14.6584C25.5829 14.5964 25.5672 14.5344 25.5514 14.4735L25.5262 14.3789C25.5199 14.3579 25.5146 14.3369 25.5094 14.3159C25.5062 14.3075 25.5041 14.3001 25.502 14.2917C25.4852 14.2329 25.4684 14.1741 25.4516 14.1152C25.4348 14.0574 25.418 13.9996 25.399 13.9429C25.3948 13.9271 25.3917 13.9114 25.3875 13.8956C25.3875 13.8904 25.3854 13.8851 25.3843 13.8799C25.3843 13.8746 25.3822 13.8694 25.3801 13.8652C25.3728 13.8347 25.3633 13.8032 25.3528 13.7727C25.3507 13.7632 25.3476 13.7527 25.3423 13.7422C25.3402 13.7349 25.3371 13.7265 25.335 13.7181C25.3318 13.7097 25.3297 13.7012 25.3265 13.6939C25.3234 13.6844 25.3202 13.675 25.3171 13.6655C25.3055 13.6256 25.2929 13.5857 25.2803 13.5457C25.2751 13.5321 25.2709 13.5184 25.2667 13.5048C25.2541 13.469 25.2425 13.4344 25.2299 13.4008C25.2183 13.3608 25.2057 13.322 25.1931 13.2841C25.1889 13.2705 25.1837 13.2568 25.1795 13.2432C25.1679 13.2085 25.1553 13.1749 25.1427 13.1402C25.1374 13.1234 25.1311 13.1055 25.1248 13.0887C25.1185 13.0719 25.1133 13.0561 25.107 13.0393C25.088 12.9899 25.0702 12.9406 25.0513 12.8912C25.045 12.8712 25.0376 12.8523 25.0303 12.8323C25.0282 12.8271 25.0271 12.8229 25.025 12.8176C25.0155 12.7935 25.0061 12.7703 24.9977 12.7462C24.9966 12.742 24.9945 12.7388 24.9935 12.7346C24.9809 12.702 24.9683 12.6684 24.9557 12.6369C24.9525 12.6306 24.9494 12.6253 24.9473 12.619C24.9409 12.6033 24.9357 12.5875 24.9294 12.5707C24.922 12.555 24.9168 12.5381 24.9105 12.5224C24.9 12.494 24.8874 12.4667 24.8769 12.4394C24.8642 12.411 24.8537 12.3837 24.8422 12.3564C24.8138 12.2849 24.7833 12.2145 24.7539 12.1441C24.7455 12.1242 24.7371 12.1053 24.7287 12.0853C24.7287 12.0842 24.7277 12.0832 24.7277 12.0821C24.7129 12.0506 24.7003 12.0191 24.6867 11.9876C24.6804 11.9718 24.6741 11.955 24.6667 11.9393C24.6667 11.935 24.6646 11.9319 24.6615 11.9277C24.6615 11.9256 24.6594 11.9224 24.6583 11.9203C24.6573 11.9193 24.6573 11.9182 24.6562 11.9172C24.6552 11.913 24.6531 11.9088 24.651 11.9046C24.6499 11.9035 24.6499 11.9025 24.6499 11.9014C24.6499 11.9014 24.6496 11.9004 24.6489 11.8983C24.6489 11.8983 24.6489 11.8972 24.6489 11.8962C24.6468 11.8909 24.6447 11.8857 24.6426 11.8804C24.6341 11.8647 24.6289 11.8489 24.6215 11.8331C24.6142 11.8174 24.6058 11.8016 24.5995 11.7859C24.5974 11.7806 24.5942 11.7753 24.5911 11.7701C24.59 11.768 24.589 11.7648 24.5869 11.7617C24.5827 11.7543 24.5785 11.747 24.5743 11.7386C24.549 11.6808 24.5228 11.623 24.4955 11.5652C24.4934 11.5579 24.4902 11.5505 24.486 11.5431C24.4776 11.5253 24.4692 11.5074 24.4597 11.4896C24.4576 11.4843 24.4555 11.4791 24.4524 11.4748C24.4387 11.4465 24.4251 11.4181 24.4104 11.3908C24.4061 11.3834 24.403 11.375 24.3998 11.3677C24.3925 11.3551 24.3872 11.3425 24.3809 11.3299C24.3788 11.3267 24.3767 11.3225 24.3757 11.3193C24.3673 11.3036 24.3599 11.2868 24.3526 11.271C24.3284 11.2227 24.3042 11.1744 24.279 11.126C24.2654 11.1008 24.2527 11.0766 24.2391 11.0514C24.2517 11.0766 24.2643 11.1019 24.278 11.1271C24.2412 11.0588 24.2044 10.9905 24.1676 10.9222C24.1435 10.876 24.1193 10.8297 24.0951 10.7845C24.1057 10.8035 24.1162 10.8213 24.1256 10.8402C24.1214 10.8297 24.1162 10.8213 24.1109 10.8119C24.1067 10.8024 24.1015 10.793 24.0962 10.7835C24.0468 10.6921 23.9964 10.6017 23.9438 10.5124C23.9344 10.4956 23.9239 10.4788 23.9134 10.462C23.9113 10.4578 23.9092 10.4546 23.906 10.4504C23.9186 10.4714 23.9312 10.4925 23.9428 10.5135C23.9186 10.4725 23.8924 10.4305 23.8661 10.3905C23.8566 10.3737 23.8482 10.3569 23.8388 10.3401C23.8335 10.3317 23.8293 10.3233 23.8241 10.3149C23.8031 10.2792 23.782 10.2424 23.76 10.2067C23.7285 10.151 23.6948 10.0974 23.6591 10.0438C23.6328 10.0007 23.6045 9.95871 23.5782 9.91563C23.5719 9.90512 23.5646 9.89462 23.5572 9.88516C23.5015 9.79901 23.4469 9.7139 23.3901 9.62985C23.3681 9.59727 23.346 9.56575 23.325 9.53423C23.3134 9.51742 23.3029 9.50166 23.2914 9.4859C23.2914 9.4859 23.2907 9.4852 23.2893 9.4838C23.284 9.47645 23.2798 9.46909 23.2735 9.46069C23.2693 9.45333 23.263 9.44598 23.2588 9.43862C23.2588 9.43757 23.2578 9.43757 23.2578 9.43652C23.2451 9.41761 23.2315 9.39974 23.2189 9.38083C23.1968 9.34931 23.1747 9.31779 23.1527 9.28627C23.1212 9.24109 23.0896 9.19696 23.056 9.15388C23.0108 9.08979 22.9636 9.02675 22.9152 8.96476C22.91 8.95951 22.9058 8.95321 22.9016 8.9469C22.8974 8.9406 22.8921 8.93429 22.8869 8.92904C22.8658 8.90067 22.8438 8.87335 22.8207 8.84498C22.7976 8.81346 22.7744 8.78299 22.7503 8.75252C22.7503 8.75147 22.7492 8.75147 22.7492 8.75147C22.7492 8.75042 22.7492 8.74937 22.7471 8.74937C22.7251 8.71995 22.7019 8.69158 22.6788 8.66216C22.6599 8.63905 22.642 8.61698 22.6242 8.59492C22.6179 8.58757 22.6116 8.58021 22.6063 8.57391C22.6305 8.60333 22.6536 8.63275 22.6778 8.66322C22.6294 8.60333 22.5811 8.54554 22.5317 8.4867C22.4487 8.38583 22.3678 8.29127 22.2869 8.19881C22.2901 8.20196 22.2932 8.20512 22.2974 8.20932C22.2943 8.20512 22.2911 8.20196 22.288 8.19776C22.2869 8.19671 22.2859 8.19461 22.2848 8.19356L22.2806 8.18831C22.2806 8.18831 22.2796 8.18725 22.2785 8.1862C22.2775 8.1841 22.2743 8.182 22.2733 8.1799C22.2659 8.17149 22.2586 8.16309 22.2512 8.15468C22.2134 8.11266 22.1755 8.06958 22.1388 8.02755C22.1188 8.00654 22.1009 7.98552 22.082 7.96556C22.0316 7.90882 21.9791 7.85314 21.9286 7.7985C21.8961 7.76278 21.8614 7.72706 21.8278 7.69238C21.8162 7.68083 21.8057 7.66927 21.7952 7.65876L21.7668 7.63039C21.7563 7.61883 21.7458 7.60728 21.7353 7.59677C21.7238 7.58521 21.7132 7.57471 21.7027 7.5642L21.6565 7.51797C21.6187 7.48014 21.5809 7.44232 21.543 7.40555H21.542C21.5241 7.38663 21.5063 7.36877 21.4884 7.35196C21.4821 7.34566 21.4758 7.3404 21.4695 7.3341C21.4937 7.35826 21.5178 7.38243 21.542 7.4066C21.5178 7.38243 21.4937 7.35826 21.4684 7.33515C21.4422 7.30888 21.4148 7.28367 21.3886 7.2574C21.4138 7.28157 21.4401 7.30573 21.4653 7.33095C21.4401 7.30468 21.4149 7.28157 21.3896 7.25635C21.3581 7.22588 21.3255 7.19646 21.294 7.16599C21.2877 7.15863 21.2804 7.15128 21.272 7.14498C21.2699 7.14182 21.2657 7.13867 21.2625 7.13447C21.2625 7.13447 21.2625 7.13342 21.2604 7.13237C21.2583 7.13132 21.2583 7.13132 21.2572 7.13027C21.2593 7.13237 21.2604 7.13342 21.2625 7.13552C21.2583 7.13342 21.2541 7.12922 21.2499 7.12501C21.252 7.12606 21.2541 7.12711 21.2562 7.12922C21.2562 7.12922 21.2541 7.12711 21.253 7.12606C21.253 7.12606 21.2523 7.12536 21.2509 7.12396H21.2499C21.2499 7.12396 21.2478 7.12081 21.2467 7.11976C21.2415 7.11346 21.2362 7.10925 21.231 7.104H21.2299C21.2215 7.09559 21.2163 7.09034 21.2079 7.08299C21.1942 7.07143 21.1827 7.05882 21.1679 7.04726C21.148 7.0273 21.127 7.00839 21.1059 6.98947C21.0996 6.98317 21.0923 6.97687 21.0849 6.97056C21.0692 6.95585 21.0534 6.94114 21.0356 6.92748C21.0145 6.90857 20.9925 6.88966 20.9715 6.87075C20.9935 6.88966 21.0145 6.90962 21.0356 6.92853C21.0051 6.90122 20.9746 6.87495 20.9441 6.84763C20.8023 6.7226 20.6584 6.60072 20.5134 6.48094C20.6016 6.55344 20.6899 6.62594 20.776 6.70054C20.733 6.66271 20.6899 6.62594 20.6458 6.58916C20.6226 6.5692 20.5985 6.54924 20.5743 6.52927C20.5543 6.51351 20.5344 6.4967 20.5144 6.47989C20.3495 6.34435 20.1824 6.21302 20.0132 6.08694C19.9481 6.0365 19.8809 5.98712 19.8147 5.93879C19.7768 5.91147 19.7401 5.8852 19.7033 5.85894C19.6371 5.81166 19.5709 5.76438 19.5037 5.71815C19.2462 5.53953 18.9857 5.37037 18.723 5.21066C18.6127 5.14132 18.5003 5.07408 18.3889 5.00998C18.3311 4.97636 18.2744 4.94379 18.2187 4.91227C18.1451 4.87024 18.0695 4.82927 17.997 4.78829C17.9938 4.78829 17.9938 4.78409 17.9886 4.78409C17.6965 4.62333 17.4033 4.47624 17.1133 4.33755C16.9778 4.27135 16.8423 4.20831 16.7067 4.15052C16.4378 4.02549 16.1667 3.91202 15.8998 3.80905C15.7632 3.75442 15.6319 3.70293 15.4995 3.6546C15.3671 3.60312 15.2358 3.55584 15.1034 3.51171C14.3847 3.25849 13.6881 3.06096 13.0346 2.90651C13.0104 2.90126 12.9863 2.89496 12.9621 2.8897C12.9369 2.88445 12.9127 2.8792 12.8885 2.87289C12.8591 2.86449 12.8297 2.85818 12.8013 2.85188C12.7824 2.84767 12.7646 2.84347 12.7488 2.84032C12.5071 2.78568 12.276 2.7384 12.0469 2.69427C11.9818 2.67956 11.9156 2.66801 11.8505 2.6575C11.7916 2.64594 11.7338 2.63439 11.6782 2.62493C11.6309 2.61652 11.5836 2.60812 11.5384 2.60181C11.1276 2.53247 10.7536 2.47783 10.4226 2.44106C10.3806 2.43581 10.3396 2.43055 10.3007 2.42635C10.2608 2.42215 10.2219 2.41794 10.182 2.41479C10.1347 2.40744 10.0864 2.40429 10.0391 2.40008C9.96239 2.38958 9.88884 2.38537 9.81949 2.37802C9.58099 2.357 9.374 2.34545 9.2164 2.33809C9.15126 2.33494 9.09347 2.33074 9.04514 2.32759C8.89804 2.32338 8.81714 2.32338 8.81714 2.32338L9.16071 2.26454L12.7026 1.652H12.7047L17.8845 0.759964H17.8909C18.1189 0.756812 18.3437 0.756812 18.5654 0.762065C18.8028 0.765217 19.0372 0.774673 19.2694 0.788332H19.2809C19.5142 0.801991 19.7443 0.819853 19.9712 0.840866C20.0857 0.851373 20.2003 0.863982 20.3127 0.87659C20.3978 0.886046 20.4818 0.896553 20.5659 0.90706C20.734 0.928073 20.9 0.952239 21.065 0.978506C21.1469 0.992165 21.2289 1.00582 21.3108 1.01948C21.6376 1.07517 21.957 1.14031 22.2712 1.21491C22.3731 1.23803 22.4739 1.26324 22.5748 1.28846C22.5822 1.29056 22.5895 1.29161 22.5979 1.29371C22.6967 1.31998 22.7944 1.34625 22.8921 1.37251C23.097 1.4282 23.2977 1.48809 23.4963 1.55113C23.595 1.5837 23.6938 1.61522 23.7925 1.64884C23.8903 1.68246 23.988 1.71609 24.0846 1.75076C24.1571 1.77703 24.2296 1.80329 24.3011 1.83061C24.5165 1.91151 24.7287 1.99662 24.9378 2.08593C25.0313 2.12585 25.1227 2.16683 25.2152 2.20781C25.3034 2.24773 25.3917 2.28766 25.4789 2.32864C25.4821 2.33074 25.4852 2.33179 25.4873 2.33284C25.6628 2.41584 25.8361 2.50095 26.0074 2.58921C26.0999 2.63754 26.1923 2.68587 26.2837 2.73525C26.3489 2.77097 26.413 2.80565 26.4771 2.84137C26.6063 2.91282 26.7334 2.98636 26.8584 3.06096C26.9215 3.09879 26.9845 3.13661 27.0465 3.17444C27.1295 3.22487 27.2115 3.27635 27.2934 3.32784C27.3659 3.37407 27.4384 3.42135 27.5099 3.46758C27.5193 3.47388 27.5277 3.48019 27.5361 3.48544C27.617 3.53903 27.6969 3.59261 27.7757 3.64725C27.8461 3.69453 27.9154 3.74286 27.9848 3.79224C28.0772 3.85633 28.1676 3.92253 28.258 3.98872C28.4051 4.09694 28.549 4.20726 28.6919 4.31863C28.7686 4.37852 28.8453 4.43946 28.9209 4.50145C28.9945 4.56134 29.067 4.62123 29.1395 4.68112C29.2256 4.75362 29.3107 4.82611 29.3959 4.89966C29.4526 4.9501 29.5104 4.99948 29.5661 5.04991C29.6365 5.1119 29.7058 5.17494 29.7741 5.23798C29.9117 5.36407 30.0473 5.49225 30.1807 5.62148C30.248 5.68663 30.3141 5.75177 30.3793 5.81691C30.4444 5.8831 30.5096 5.94825 30.5737 6.01444C30.6346 6.07643 30.6945 6.13947 30.7544 6.20146C30.7575 6.20566 30.7617 6.20987 30.7659 6.21407C30.829 6.28131 30.892 6.34856 30.954 6.4158C31.016 6.4841 31.078 6.55134 31.1389 6.61963C31.1915 6.67742 31.243 6.73626 31.2944 6.79405C31.3659 6.87495 31.4363 6.9569 31.5067 7.03886C31.5645 7.1061 31.6202 7.17334 31.6758 7.24059C31.7336 7.30993 31.7914 7.38033 31.8482 7.45073C31.9049 7.52007 31.9616 7.59047 32.0173 7.66191C32.073 7.73231 32.1287 7.8027 32.1844 7.87415C32.239 7.9456 32.2936 8.01599 32.3472 8.08744C32.509 8.30178 32.6656 8.51822 32.819 8.73466C32.8694 8.80716 32.9198 8.87966 32.9703 8.95215C33.0197 9.02465 33.069 9.09715 33.1184 9.16965C33.1668 9.24319 33.2151 9.31569 33.2634 9.38819C33.3118 9.46174 33.359 9.53423 33.4063 9.60778C33.4536 9.68028 33.4998 9.75383 33.5461 9.82632C33.6375 9.97237 33.7278 10.1195 33.8161 10.2655C33.8602 10.3391 33.9043 10.4116 33.9474 10.4851C34.0336 10.6311 34.1187 10.7772 34.2017 10.9232C34.2059 10.9316 34.2111 10.94 34.2164 10.9485C34.3351 11.1596 34.4507 11.3698 34.5621 11.5789C34.6009 11.6514 34.6388 11.7239 34.6766 11.7964C34.7155 11.872 34.7543 11.9466 34.7932 12.0212C34.8657 12.163 34.9361 12.3038 35.0055 12.4436C35.0759 12.5865 35.1441 12.7294 35.2114 12.8702C35.2786 13.012 35.3438 13.1528 35.4079 13.2925C35.4142 13.3062 35.4205 13.3209 35.4278 13.3356C35.4783 13.4459 35.5276 13.5552 35.5749 13.6645L35.5938 13.7086C35.6243 13.7769 35.6537 13.8452 35.6832 13.9135C35.7126 13.9818 35.742 14.0501 35.7704 14.1173C35.8281 14.2529 35.8828 14.3863 35.9374 14.5197C35.991 14.6521 36.0435 14.7835 36.095 14.9127C36.0982 14.9211 36.1013 14.9295 36.1055 14.9379C36.1276 14.9946 36.1486 15.0503 36.1707 15.106C36.1948 15.1701 36.22 15.2342 36.2432 15.2972C36.2673 15.3613 36.2915 15.4233 36.3146 15.4864C36.3608 15.6114 36.406 15.7343 36.4501 15.8552C36.4712 15.9161 36.4932 15.976 36.5142 16.0359C36.5237 16.0642 36.5342 16.0916 36.5437 16.1189C36.593 16.2576 36.6393 16.3942 36.6834 16.5276C36.7643 16.7661 36.8379 16.9951 36.9061 17.2137C36.9219 17.2652 36.9387 17.3167 36.9545 17.3681C36.9597 17.3871 36.966 17.407 36.9723 17.4259C36.9734 17.4301 36.9744 17.4343 36.9765 17.4385C36.9776 17.4427 36.9786 17.4469 36.9807 17.4511C36.9934 17.4932 37.006 17.5341 37.0175 17.5741C37.0543 17.696 37.089 17.8136 37.1215 17.9282C37.132 17.966 37.1426 18.0028 37.1531 18.0395C37.1636 18.0763 37.173 18.1131 37.1835 18.1488C37.214 18.257 37.2424 18.36 37.2686 18.4588C37.2896 18.5397 37.3107 18.6164 37.3296 18.691C37.3411 18.7382 37.3537 18.7845 37.3653 18.8286C37.4063 18.9925 37.4409 19.1375 37.4704 19.2625C37.4767 19.2877 37.4819 19.3109 37.4872 19.334C37.545 19.584 37.5765 19.7416 37.5859 19.791C37.5859 19.791 37.5859 19.7931 37.5859 19.7963H37.5817Z" fill="white"/>
<path d="M33.3872 5.39844C33.6278 5.6506 33.8621 5.90802 34.087 6.16964C33.8611 5.90802 33.6278 5.6506 33.3872 5.39844Z" fill="white"/>
<path d="M39.0654 14.9478C39.0013 14.7734 38.9351 14.5958 38.8657 14.4141C38.9361 14.5958 39.0023 14.7734 39.0654 14.9478Z" fill="white"/>
<path d="M20.9388 6.84896V6.85106C20.798 6.72603 20.654 6.60415 20.509 6.48438C20.5973 6.55687 20.6855 6.62937 20.7717 6.70397C20.7917 6.72078 20.8116 6.73864 20.8316 6.7565C20.8673 6.78697 20.902 6.81744 20.9377 6.84896H20.9388Z" fill="#843ACD"/>
<path d="M21.0313 6.93216C21.0009 6.90495 20.9705 6.87878 20.9402 6.85156C20.9496 6.85889 20.958 6.86622 20.9674 6.87459C20.9894 6.89343 21.0103 6.91332 21.0313 6.93216Z" fill="#843ACD"/>
<path d="M21.2592 7.13592C21.2592 7.13592 21.2505 7.12937 21.2461 7.125C21.2483 7.12609 21.2505 7.12718 21.2526 7.12937H21.2537C21.2537 7.12937 21.257 7.13374 21.2592 7.13592Z" fill="#843ACD"/>
<path d="M21.5391 7.40701C21.515 7.38284 21.4908 7.35868 21.4656 7.33556C21.4393 7.3093 21.412 7.28408 21.3857 7.25781C21.411 7.28198 21.4372 7.30614 21.4624 7.33136C21.4635 7.33136 21.4645 7.33346 21.4656 7.33451H21.4666C21.4908 7.35868 21.515 7.38284 21.5391 7.40701Z" fill="#843ACD"/>
<path d="M22.5295 8.49101C22.4465 8.39015 22.3656 8.29559 22.2847 8.20312C22.2878 8.20628 22.291 8.20943 22.2952 8.21363C22.2983 8.21889 22.3036 8.22414 22.3088 8.22939C22.3225 8.24515 22.3362 8.26196 22.3498 8.27772C22.3624 8.29243 22.3761 8.30819 22.3897 8.32395C22.4013 8.33761 22.4129 8.35127 22.4255 8.36493C22.4255 8.36493 22.4318 8.37334 22.4349 8.37649C22.4748 8.42482 22.5148 8.4721 22.5557 8.52043C22.5642 8.53199 22.5736 8.5425 22.582 8.55405C22.5883 8.56141 22.5936 8.56876 22.5999 8.57612C22.5999 8.57612 22.6006 8.57682 22.602 8.57822C22.6261 8.60764 22.6493 8.63706 22.6734 8.66753C22.6251 8.60764 22.5768 8.54985 22.5274 8.49101H22.5295Z" fill="#843ACD"/>
<path d="M23.8202 10.3188C23.7993 10.2832 23.7783 10.2465 23.7563 10.2109C23.7679 10.2287 23.7783 10.2465 23.7888 10.2643C23.7993 10.2821 23.8097 10.2999 23.8202 10.3188Z" fill="#843ACD"/>
<path d="M23.8344 10.3332C23.8344 10.3332 23.8366 10.3365 23.8366 10.3387C23.8311 10.33 23.8267 10.3212 23.8213 10.3125C23.8246 10.319 23.8289 10.3245 23.8333 10.331C23.8333 10.331 23.8344 10.331 23.8344 10.3332Z" fill="#843ACD"/>
<path d="M23.9395 10.5171C23.9153 10.4761 23.889 10.4341 23.8628 10.3942C23.8533 10.3774 23.8449 10.3606 23.8354 10.3438C23.8376 10.3459 23.8386 10.348 23.8386 10.349C23.8586 10.3805 23.8775 10.412 23.8964 10.4436C23.8964 10.4446 23.8964 10.4446 23.8964 10.4457C23.8985 10.4488 23.8995 10.4509 23.9016 10.4541C23.9143 10.4751 23.9269 10.4961 23.9384 10.5171H23.9395Z" fill="#843ACD"/>
<path d="M24.2751 11.1238C24.2383 11.0555 24.2016 10.9872 24.1648 10.9189C24.1406 10.8727 24.1165 10.8264 24.0923 10.7812C24.1028 10.8002 24.1133 10.818 24.1228 10.8369C24.1238 10.839 24.1259 10.8422 24.127 10.8443C24.1322 10.8537 24.1375 10.8632 24.1427 10.8737C24.1501 10.8884 24.1585 10.9031 24.1658 10.9178C24.1721 10.9294 24.1774 10.9399 24.1847 10.9515C24.1984 10.9788 24.2131 11.0061 24.2278 11.0324C24.231 11.0376 24.2331 11.0429 24.2362 11.0481C24.2488 11.0733 24.2614 11.0986 24.2751 11.1238Z" fill="#843ACD"/>
<path d="M37.5805 19.7963L26.0503 23.2299C26.0955 22.8096 26.1312 22.3988 26.1564 21.9954C26.1648 21.8609 26.1733 21.7274 26.1817 21.594C26.189 21.4616 26.1953 21.3292 26.2006 21.1989C26.2048 21.0687 26.2111 20.9384 26.2142 20.8091C26.2216 20.5517 26.2247 20.2974 26.2247 20.0463C26.2247 19.6387 26.2163 19.2405 26.1974 18.8528C26.1922 18.755 26.1869 18.6573 26.1806 18.5596C26.1775 18.5113 26.1743 18.463 26.1712 18.4146C26.1691 18.3663 26.1648 18.318 26.1617 18.2707C26.1543 18.1772 26.148 18.0837 26.1407 17.9901C26.1354 17.9145 26.1291 17.8409 26.1207 17.7663C26.0808 17.3219 26.0272 16.8901 25.961 16.4709C25.9589 16.4519 25.9558 16.433 25.9526 16.4141L25.94 16.3385C25.9379 16.3154 25.9337 16.2912 25.9305 16.2681C25.9242 16.2197 25.9158 16.1714 25.9074 16.1231C25.9043 16.0989 25.9001 16.0747 25.8938 16.0506C25.8917 16.0254 25.8875 16.0001 25.8822 15.976C25.8791 15.9571 25.8749 15.9382 25.8707 15.9203C25.8707 15.9119 25.8675 15.9035 25.8654 15.8951C25.8622 15.8699 25.858 15.8457 25.8528 15.8215C25.8507 15.81 25.8496 15.7984 25.8475 15.7869C25.8444 15.7711 25.8412 15.7553 25.8381 15.7406C25.8307 15.6965 25.8223 15.6524 25.8118 15.6082C25.8003 15.5452 25.7866 15.4832 25.774 15.4212C25.7687 15.3992 25.7635 15.376 25.7593 15.354C25.7404 15.2605 25.7194 15.168 25.6983 15.0755C25.6889 15.0293 25.6773 14.982 25.6668 14.9358C25.6668 14.9306 25.6647 14.9242 25.6626 14.919C25.6511 14.8675 25.6395 14.815 25.6248 14.7645C25.6122 14.7162 25.6006 14.6668 25.588 14.6185C25.5765 14.5702 25.5639 14.5218 25.5502 14.4735L25.525 14.3789C25.5187 14.3579 25.5134 14.3369 25.5082 14.3159C25.5061 14.3054 25.5029 14.2949 25.4998 14.2833C25.4935 14.2613 25.4872 14.2392 25.4809 14.2171C25.4703 14.1762 25.4588 14.1362 25.4472 14.0963C25.4262 14.0238 25.4052 13.9513 25.3831 13.8799C25.3831 13.8746 25.381 13.8694 25.3789 13.8652C25.3716 13.8347 25.3621 13.8032 25.3516 13.7727C25.3495 13.7632 25.3464 13.7527 25.3411 13.7422C25.339 13.7349 25.3359 13.7265 25.3338 13.7181C25.3169 13.6603 25.298 13.6025 25.2791 13.5457C25.2739 13.5321 25.2697 13.5184 25.2655 13.5048C25.255 13.468 25.2423 13.4302 25.2297 13.3934C25.2234 13.3755 25.2171 13.3566 25.2108 13.3388C25.2045 13.3209 25.1982 13.302 25.1919 13.2841C25.1877 13.2705 25.1825 13.2568 25.1783 13.2432C25.1478 13.1507 25.1152 13.0593 25.0816 12.9689C25.0648 12.9227 25.0469 12.8775 25.0301 12.8323C25.0196 12.804 25.0101 12.7745 24.9965 12.7462C24.9954 12.742 24.9933 12.7388 24.9923 12.7346C24.9797 12.702 24.9671 12.6684 24.9545 12.6369C24.9461 12.6148 24.9376 12.5928 24.9282 12.5707C24.9208 12.555 24.9156 12.5381 24.9093 12.5224C24.8988 12.494 24.8862 12.4667 24.8757 12.4394C24.8378 12.3396 24.7969 12.2408 24.7527 12.1441C24.7443 12.1242 24.7359 12.1053 24.7275 12.0853C24.7275 12.0842 24.7265 12.0832 24.7265 12.0821C24.7212 12.0664 24.7139 12.0517 24.7075 12.037C24.696 12.0044 24.6813 11.9718 24.6655 11.9393C24.6655 11.935 24.6634 11.9319 24.6603 11.9277C24.6603 11.9256 24.6582 11.9224 24.6571 11.9203C24.6561 11.9182 24.6561 11.9151 24.655 11.913C24.6529 11.9098 24.6529 11.9077 24.6498 11.9046C24.6487 11.9035 24.6487 11.9025 24.6487 11.9014C24.6487 11.9014 24.6484 11.9004 24.6477 11.8983C24.6477 11.8983 24.6477 11.8972 24.6477 11.8962C24.6456 11.8909 24.6435 11.8857 24.6414 11.8804C24.6329 11.8647 24.6277 11.8489 24.6203 11.8331C24.613 11.8174 24.6046 11.8016 24.5983 11.7859C24.5647 11.7113 24.531 11.6377 24.4943 11.5652C24.4922 11.5579 24.489 11.5505 24.4848 11.5431C24.4764 11.5253 24.468 11.5074 24.4585 11.4896C24.4564 11.4843 24.4543 11.4791 24.4512 11.4748C24.4407 11.4517 24.4302 11.4286 24.4186 11.4066C24.4123 11.3929 24.406 11.3803 24.3986 11.3677C24.3913 11.3551 24.386 11.3425 24.3797 11.3299C24.3776 11.3267 24.3755 11.3225 24.3745 11.3193C24.3661 11.3036 24.3587 11.2868 24.3514 11.271C24.3272 11.2227 24.303 11.1744 24.2778 11.126C24.2642 11.1008 24.2516 11.0766 24.2379 11.0514C24.2347 11.0462 24.2326 11.0409 24.2295 11.0357C24.2158 11.0083 24.2022 10.981 24.1864 10.9548C24.1738 10.9285 24.1591 10.9022 24.1444 10.877C24.1391 10.8665 24.1339 10.857 24.1286 10.8476C24.1276 10.8455 24.1255 10.8423 24.1244 10.8402C24.1202 10.8297 24.115 10.8213 24.1097 10.8119C24.1055 10.8024 24.1003 10.793 24.095 10.7835C24.0456 10.6921 23.9952 10.6017 23.9426 10.5124C23.9332 10.4956 23.9227 10.4788 23.9122 10.462C23.9101 10.4578 23.908 10.4546 23.9048 10.4504C23.9027 10.4473 23.9017 10.4452 23.8996 10.442C23.8996 10.441 23.8996 10.441 23.8996 10.4399C23.8807 10.4042 23.8596 10.3695 23.8365 10.3349C23.8365 10.3338 23.8355 10.3338 23.8355 10.3328C23.8334 10.3296 23.8313 10.3264 23.8302 10.3233C23.8302 10.3201 23.8271 10.317 23.825 10.3138C23.8208 10.3065 23.8166 10.3002 23.8124 10.2928C23.804 10.2781 23.7956 10.2634 23.7861 10.2476C23.7777 10.234 23.7693 10.2203 23.7598 10.2067C23.7283 10.151 23.6947 10.0974 23.659 10.0438C23.6327 10.0007 23.6043 9.95871 23.5781 9.91563C23.5182 9.81897 23.4562 9.72336 23.39 9.62985C23.3679 9.59727 23.3459 9.56575 23.3248 9.53423C23.3133 9.51742 23.3028 9.50166 23.2912 9.4859C23.2912 9.4859 23.2905 9.4852 23.2891 9.4838C23.2849 9.47539 23.2797 9.46489 23.2723 9.45648C23.2681 9.45123 23.2639 9.44387 23.2587 9.43862C23.2587 9.43757 23.2576 9.43757 23.2576 9.43652C23.245 9.41761 23.2313 9.39974 23.2187 9.38083C23.1967 9.34931 23.1746 9.31779 23.1525 9.28627C23.121 9.24109 23.0895 9.19696 23.0559 9.15388C23.0107 9.08979 22.9634 9.02675 22.9151 8.96476C22.9098 8.95951 22.9056 8.95321 22.9014 8.9469C22.8752 8.91118 22.8478 8.87545 22.8195 8.83973C22.7974 8.81136 22.7743 8.78089 22.7501 8.75252C22.7501 8.75147 22.7491 8.75147 22.7491 8.75147C22.726 8.721 22.7018 8.69158 22.6787 8.66216C22.6598 8.63905 22.6419 8.61698 22.624 8.59492C22.6177 8.58757 22.6114 8.58021 22.6062 8.57391C22.6062 8.57391 22.6055 8.57321 22.6041 8.57181C22.6041 8.57181 22.5999 8.5655 22.5988 8.5634C22.5862 8.54764 22.5747 8.53293 22.5599 8.51717C22.5515 8.50561 22.5421 8.49405 22.5326 8.4825C22.5022 8.44572 22.4706 8.40895 22.4402 8.37218H22.4391C22.4391 8.37218 22.4339 8.36482 22.4286 8.36167C22.4202 8.35116 22.4118 8.34171 22.4044 8.33225C22.4002 8.32805 22.3971 8.32384 22.3939 8.31964C22.3845 8.30598 22.3719 8.29232 22.3593 8.27867C22.3435 8.2608 22.3288 8.24294 22.313 8.22508H22.312C22.312 8.22508 22.3067 8.21878 22.3036 8.21562C22.3015 8.21352 22.3004 8.21247 22.3004 8.21142C22.2962 8.20722 22.292 8.20196 22.2878 8.19776C22.2868 8.19671 22.2857 8.19461 22.2847 8.19356L22.2805 8.18831C22.2805 8.18831 22.2794 8.18725 22.2784 8.1862C22.2773 8.1841 22.2742 8.182 22.2731 8.1799C22.2489 8.15048 22.2237 8.11896 22.1964 8.09059C22.1775 8.06958 22.1586 8.04856 22.1386 8.02755C22.1187 8.00654 22.1008 7.98552 22.0819 7.96556C22.0315 7.90882 21.9789 7.85314 21.9285 7.7985C21.8959 7.76278 21.8612 7.72706 21.8276 7.69238C21.8161 7.68083 21.8056 7.66927 21.795 7.65876C21.7866 7.6493 21.7782 7.63985 21.7667 7.63039C21.7562 7.61883 21.7457 7.60728 21.7352 7.59677C21.7257 7.58626 21.7152 7.57681 21.7057 7.5663C21.7047 7.56525 21.7036 7.5642 21.7026 7.5642L21.6564 7.51797C21.6185 7.48014 21.5807 7.44232 21.5429 7.40555H21.5418C21.524 7.38663 21.5061 7.36877 21.4883 7.35196C21.4819 7.34566 21.4756 7.3404 21.4693 7.3341C21.4683 7.332 21.4672 7.33095 21.4662 7.3299H21.4651C21.4399 7.30468 21.4147 7.28157 21.3895 7.25635C21.358 7.22588 21.3254 7.19646 21.2939 7.16599C21.2876 7.15863 21.2802 7.15128 21.2718 7.14498C21.2697 7.14182 21.2655 7.13867 21.2624 7.13447C21.2624 7.13447 21.2624 7.13342 21.2603 7.13237C21.2592 7.13027 21.2571 7.12816 21.256 7.12816V7.12711C21.256 7.12711 21.2553 7.12676 21.2539 7.12606C21.2539 7.12606 21.2529 7.12501 21.2518 7.12396H21.2508C21.2508 7.12396 21.2487 7.12081 21.2476 7.11976C21.2424 7.11346 21.2371 7.10925 21.2319 7.104H21.2308C21.2224 7.09559 21.2172 7.09034 21.2088 7.08299C21.1951 7.07143 21.1836 7.05882 21.1688 7.04726C21.1489 7.0273 21.1279 7.00839 21.1069 6.98947C21.1005 6.98317 21.0932 6.97687 21.0858 6.97056C21.0701 6.95585 21.0543 6.94114 21.0365 6.92748C21.0154 6.90857 20.9934 6.88966 20.9724 6.87075C20.9629 6.86234 20.9545 6.85499 20.945 6.84763V6.84553C20.9314 6.83397 20.9198 6.82242 20.9072 6.81191C20.8641 6.77408 20.8211 6.73626 20.778 6.69949C20.7349 6.66271 20.6918 6.62594 20.6477 6.58916C20.6246 6.5692 20.6004 6.54924 20.5763 6.52927C20.5563 6.51351 20.5363 6.4967 20.5164 6.47989C20.3514 6.34435 20.1843 6.21302 20.0152 6.08694C19.95 6.0365 19.8828 5.98712 19.8166 5.93879C19.7788 5.91147 19.742 5.8852 19.7052 5.85894C19.639 5.81061 19.5729 5.76438 19.5056 5.71815C19.2482 5.53953 18.9876 5.37037 18.7249 5.21066C18.6146 5.14132 18.5022 5.07408 18.3908 5.00998C18.333 4.97636 18.2763 4.94379 18.2206 4.91227C18.1471 4.87024 18.0714 4.82927 17.9989 4.78829C17.9958 4.78829 17.9958 4.78409 17.9905 4.78409C17.6984 4.62333 17.4053 4.47624 17.1153 4.33755C16.9798 4.27135 16.8442 4.20831 16.7087 4.15052C16.4397 4.02549 16.1686 3.91202 15.9018 3.80905C15.7652 3.75442 15.6338 3.70293 15.5014 3.6546C15.3691 3.60312 15.2377 3.55584 15.1053 3.51171C14.3867 3.25849 13.6901 3.06096 13.0365 2.90651C13.0124 2.90126 12.9882 2.89496 12.964 2.8897C12.9388 2.88445 12.9147 2.8792 12.8905 2.87289C12.8611 2.86449 12.8317 2.85818 12.8033 2.85188C12.7844 2.84767 12.7665 2.84347 12.7508 2.84032C12.5091 2.78568 12.2779 2.7384 12.0489 2.69427C11.9838 2.67956 11.9176 2.66801 11.8524 2.6575C11.7936 2.64594 11.7358 2.63439 11.6801 2.62493C11.6328 2.61652 11.5855 2.60812 11.5404 2.60181C11.1295 2.53247 10.7555 2.47783 10.4245 2.44106C10.3825 2.43581 10.3415 2.43055 10.3027 2.42635C10.2627 2.42215 10.2239 2.41794 10.1839 2.41479C10.1367 2.40744 10.0883 2.40429 10.041 2.40008C9.96434 2.38958 9.89079 2.38537 9.82145 2.37802C9.58294 2.357 9.37596 2.34545 9.21835 2.33809C9.15321 2.33494 9.09542 2.33074 9.04709 2.32759C8.89999 2.32338 8.81909 2.32338 8.81909 2.32338L9.16267 2.26454L12.7045 1.652H12.7066L17.8865 0.759964H17.8928C18.1208 0.756812 18.3457 0.756812 18.5673 0.762065C18.8048 0.765217 19.0391 0.774673 19.2713 0.788332H19.2829C19.5161 0.801991 19.7462 0.819853 19.9732 0.840866C20.0877 0.851373 20.2022 0.863982 20.3146 0.87659C20.3997 0.886046 20.4838 0.896553 20.5679 0.90706C20.736 0.928073 20.902 0.952239 21.0669 0.978506C21.1489 0.992165 21.2308 1.00582 21.3128 1.01948C21.6395 1.07517 21.959 1.14031 22.2731 1.21491C22.375 1.23803 22.4759 1.26324 22.5768 1.28846C22.5841 1.29056 22.5915 1.29161 22.5999 1.29371C22.6986 1.31998 22.7964 1.34625 22.8941 1.37251C23.0989 1.4282 23.2996 1.48809 23.4982 1.55113C23.597 1.5837 23.6957 1.61522 23.7945 1.64884C23.8922 1.68246 23.9899 1.71609 24.0866 1.75076C24.1591 1.77703 24.2316 1.80329 24.303 1.83061C24.5184 1.91151 24.7307 1.99662 24.9397 2.08593C25.0333 2.12585 25.1247 2.16683 25.2171 2.20781C25.3054 2.24773 25.3936 2.28766 25.4809 2.32864C25.484 2.33074 25.4872 2.33179 25.4893 2.33284C25.6647 2.41584 25.8381 2.50095 26.0093 2.58921C26.1018 2.63754 26.1943 2.68587 26.2857 2.73525C26.3508 2.77097 26.4149 2.80565 26.479 2.84137C26.6082 2.91282 26.7354 2.98636 26.8604 3.06096C26.9234 3.09879 26.9865 3.13661 27.0485 3.17444C27.1315 3.22487 27.2134 3.27635 27.2954 3.32784C27.3679 3.37407 27.4404 3.42135 27.5118 3.46758C27.5213 3.47388 27.5297 3.48019 27.5381 3.48544C27.619 3.53903 27.6988 3.59261 27.7776 3.64725C27.848 3.69453 27.9174 3.74286 27.9867 3.79224C28.0792 3.85633 28.1696 3.92253 28.2599 3.98872C28.407 4.09694 28.551 4.20726 28.6938 4.31863C28.7705 4.37852 28.8472 4.43946 28.9229 4.50145C28.9964 4.56134 29.0689 4.62123 29.1414 4.68112C29.2276 4.75362 29.3127 4.82611 29.3978 4.89966C29.4545 4.9501 29.5123 4.99948 29.568 5.04991C29.6384 5.1119 29.7078 5.17494 29.7761 5.23798C29.9137 5.36407 30.0492 5.49225 30.1827 5.62148C30.2499 5.68663 30.3161 5.75177 30.3812 5.81691C30.4464 5.8831 30.5115 5.94825 30.5756 6.01444C30.6366 6.07643 30.6965 6.13947 30.7563 6.20146C30.7595 6.20566 30.7637 6.20987 30.7679 6.21407C30.8309 6.28131 30.894 6.34856 30.956 6.4158C31.018 6.4841 31.08 6.55134 31.1409 6.61963C31.1934 6.67742 31.2449 6.73626 31.2964 6.79405C31.3678 6.87495 31.4382 6.9569 31.5086 7.03886C31.5664 7.1061 31.6221 7.17334 31.6778 7.24059C31.7356 7.30993 31.7934 7.38033 31.8501 7.45073C31.9068 7.52007 31.9636 7.59047 32.0193 7.66191C32.0749 7.73231 32.1306 7.8027 32.1863 7.87415C32.241 7.9456 32.2956 8.01599 32.3492 8.08744C32.511 8.30178 32.6675 8.51822 32.8209 8.73466C32.8714 8.80716 32.9218 8.87966 32.9722 8.95215C33.0216 9.02465 33.071 9.09715 33.1204 9.16965C33.1687 9.24319 33.217 9.31569 33.2654 9.38819C33.3137 9.46174 33.361 9.53423 33.4083 9.60778C33.4555 9.68028 33.5018 9.75383 33.548 9.82632C33.6394 9.97237 33.7298 10.1195 33.818 10.2655C33.8622 10.3391 33.9063 10.4116 33.9494 10.4851C34.0355 10.6311 34.1206 10.7772 34.2036 10.9232C34.2078 10.9316 34.2131 10.94 34.2183 10.9485C34.3371 11.1596 34.4527 11.3698 34.564 11.5789C34.6029 11.6514 34.6407 11.7239 34.6785 11.7964C34.7174 11.872 34.7563 11.9466 34.7952 12.0212C34.8677 12.163 34.9381 12.3038 35.0074 12.4436C35.0778 12.5865 35.1461 12.7294 35.2133 12.8702C35.2806 13.012 35.3457 13.1528 35.4098 13.2925C35.4161 13.3062 35.4224 13.3209 35.4298 13.3356C35.4802 13.4459 35.5296 13.5552 35.5769 13.6645L35.5958 13.7086C35.6263 13.7769 35.6557 13.8452 35.6851 13.9135C35.7145 13.9818 35.7439 14.0501 35.7723 14.1173C35.8301 14.2529 35.8847 14.3863 35.9394 14.5197C35.993 14.6521 36.0455 14.7835 36.097 14.9127C36.1001 14.9211 36.1033 14.9295 36.1075 14.9379C36.1295 14.9946 36.1506 15.0503 36.1726 15.106C36.1968 15.1701 36.222 15.2342 36.2451 15.2972C36.2693 15.3613 36.2934 15.4233 36.3166 15.4864C36.3628 15.6114 36.408 15.7343 36.4521 15.8552C36.4731 15.9161 36.4952 15.976 36.5162 16.0359C36.5257 16.0642 36.5362 16.0916 36.5456 16.1189C36.595 16.2576 36.6412 16.3942 36.6854 16.5276C36.7663 16.7661 36.8398 16.9951 36.9081 17.2137C36.9239 17.2652 36.9407 17.3167 36.9564 17.3681C36.9617 17.3871 36.968 17.407 36.9743 17.4259C36.9753 17.4301 36.9764 17.4343 36.9785 17.4385C36.9795 17.4427 36.9806 17.4469 36.9827 17.4511C36.9953 17.4932 37.0079 17.5341 37.0195 17.5741C37.0562 17.696 37.0909 17.8136 37.1235 17.9282C37.134 17.966 37.1445 18.0028 37.155 18.0395C37.1655 18.0763 37.175 18.1131 37.1855 18.1488C37.216 18.257 37.2443 18.36 37.2706 18.4588C37.2916 18.5397 37.3126 18.6164 37.3315 18.691C37.3431 18.7382 37.3557 18.7845 37.3672 18.8286C37.4082 18.9925 37.4429 19.1375 37.4723 19.2625C37.4786 19.2877 37.4839 19.3109 37.4891 19.334C37.5469 19.584 37.5784 19.7416 37.5879 19.791C37.5879 19.791 37.5879 19.7931 37.5879 19.7963H37.5805Z" fill="#9538E1"/>
<path d="M8.77322 24.9058C13.6185 24.9058 17.5464 20.9779 17.5464 16.1326C17.5464 11.2873 13.6185 7.35938 8.77322 7.35938C3.9279 7.35938 0 11.2873 0 16.1326C0 20.9779 3.9279 24.9058 8.77322 24.9058Z" fill="#9538E1"/>
<path d="M37.987 26.9001H17.5133C20.6444 24.3574 22.6438 20.4773 22.6438 16.1306C22.6438 9.87585 18.5031 4.58775 12.8115 2.85938C12.8357 2.86463 12.8588 2.86988 12.884 2.87514C12.9082 2.88144 12.9324 2.88669 12.9576 2.89195C12.9817 2.8972 13.0059 2.9035 13.0301 2.90876C13.6836 3.06321 14.3802 3.26074 15.0989 3.51395C15.2313 3.55808 15.3626 3.60536 15.495 3.65684C15.6274 3.70518 15.7587 3.75666 15.8953 3.8113C16.1622 3.91426 16.4332 4.02774 16.7022 4.15277C16.8377 4.21056 16.9733 4.2736 17.1088 4.33979C17.3988 4.47848 17.692 4.62558 17.984 4.78633C17.9893 4.78633 17.9893 4.79053 17.9925 4.79053C18.0649 4.83151 18.1406 4.87249 18.2141 4.91451C18.2698 4.94603 18.3266 4.97861 18.3844 5.01223C18.4957 5.07632 18.6082 5.14356 18.7185 5.21291C18.9811 5.37261 19.2417 5.54177 19.4991 5.72039C19.5664 5.76662 19.6326 5.8139 19.6988 5.86118C19.7355 5.88745 19.7723 5.91372 19.8101 5.94103C19.8763 5.98936 19.9436 6.03875 20.0087 6.08918C20.1779 6.21526 20.3449 6.3466 20.5099 6.48214C20.5299 6.49895 20.5498 6.51576 20.5698 6.53152C20.5939 6.55148 20.6181 6.57144 20.6412 6.59141C20.6854 6.62818 20.7284 6.66496 20.7715 6.70173C20.6854 6.62818 20.5971 6.55568 20.5088 6.48319C20.6538 6.60296 20.7978 6.72484 20.9396 6.84988C20.9701 6.87719 21.0006 6.90346 21.031 6.93078C21.01 6.91187 20.989 6.8919 20.9669 6.87299C20.988 6.8919 21.01 6.91082 21.031 6.92973C21.0489 6.94339 21.0647 6.9581 21.0804 6.97281C21.0878 6.97911 21.0951 6.98541 21.1014 6.99172C21.1224 7.01063 21.1435 7.02954 21.1634 7.04951C21.1781 7.06106 21.1897 7.07367 21.2033 7.08523C21.2118 7.09258 21.217 7.09784 21.2254 7.10624H21.2265C21.2317 7.1115 21.237 7.1157 21.2422 7.122C21.2422 7.12305 21.2443 7.1241 21.2454 7.12621H21.2464C21.2464 7.12621 21.2464 7.12726 21.2485 7.12831C21.2485 7.12936 21.2506 7.13041 21.2517 7.13146C21.2496 7.12936 21.2475 7.12831 21.2454 7.12726C21.2496 7.13146 21.2538 7.13566 21.258 7.13776C21.2559 7.13566 21.2548 7.13461 21.2527 7.13251C21.2527 7.13356 21.2548 7.13356 21.2559 7.13461C21.2569 7.13566 21.2569 7.13566 21.258 7.13671C21.258 7.13671 21.2653 7.14407 21.2674 7.14722C21.2758 7.15352 21.2832 7.16088 21.2895 7.16823C21.321 7.1987 21.3536 7.22812 21.3851 7.25859C21.4103 7.28381 21.4355 7.30692 21.4608 7.33214C21.4355 7.30797 21.4093 7.28381 21.3841 7.25964C21.4103 7.28591 21.4376 7.31113 21.4639 7.33739C21.4891 7.36051 21.5133 7.38467 21.5375 7.40884C21.5133 7.38467 21.4891 7.36051 21.465 7.33634C21.4713 7.34265 21.4776 7.3479 21.4839 7.35421C21.5017 7.37102 21.5196 7.38888 21.5375 7.40779H21.5385C21.5763 7.44456 21.6142 7.48239 21.652 7.52021L21.6982 7.56644C21.7087 7.57695 21.7192 7.58746 21.7308 7.59901C21.7413 7.60952 21.7518 7.62108 21.7623 7.63264L21.7907 7.661C21.8012 7.67151 21.8117 7.68307 21.8232 7.69463C21.8569 7.7293 21.8915 7.76502 21.9241 7.80075C21.9745 7.85538 22.0271 7.91107 22.0775 7.9678C22.0964 7.98777 22.1143 8.00878 22.1342 8.0298C22.171 8.07182 22.2088 8.1149 22.2467 8.15693C22.254 8.16533 22.2614 8.17374 22.2687 8.18214C22.2698 8.18425 22.2729 8.18635 22.274 8.18845C22.274 8.1895 22.2761 8.1895 22.2761 8.19055L22.2803 8.1958C22.2803 8.1958 22.2824 8.19896 22.2834 8.20001C22.2866 8.20421 22.2898 8.20736 22.2929 8.21156C22.2887 8.20736 22.2855 8.20421 22.2824 8.20106C22.3633 8.29352 22.4442 8.38808 22.5272 8.48789C22.5766 8.54778 22.6249 8.60557 22.6733 8.66546C22.6491 8.63499 22.626 8.60557 22.6018 8.57615C22.6071 8.58246 22.6134 8.58981 22.6197 8.59716C22.6375 8.61923 22.6554 8.64129 22.6743 8.66441C22.6974 8.69383 22.7205 8.7222 22.7426 8.75162C22.7436 8.75162 22.7436 8.75162 22.7447 8.75372C22.7447 8.75372 22.7457 8.75372 22.7457 8.75477C22.7699 8.78524 22.793 8.81571 22.8161 8.84723C22.8393 8.8756 22.8613 8.90291 22.8823 8.93128C22.8876 8.93654 22.8928 8.94284 22.897 8.94914C22.9013 8.95545 22.9055 8.96175 22.9107 8.96701C22.959 9.029 23.0063 9.09204 23.0515 9.15613C23.0851 9.19921 23.1166 9.24334 23.1482 9.28852C23.1702 9.32004 23.1923 9.35156 23.2144 9.38308C23.227 9.40199 23.2406 9.41985 23.2532 9.43876C23.2532 9.43981 23.2543 9.43981 23.2543 9.44086C23.2585 9.44822 23.2648 9.45557 23.269 9.46293C23.2753 9.47133 23.2795 9.47869 23.2848 9.48604C23.2848 9.48604 23.2855 9.48674 23.2869 9.48815C23.2984 9.50391 23.3089 9.51967 23.3205 9.53648C23.3415 9.568 23.3636 9.59952 23.3856 9.63209C23.4424 9.71615 23.497 9.80125 23.5527 9.88741C23.56 9.89686 23.5674 9.90737 23.5737 9.91787C23.6 9.96095 23.6283 10.003 23.6546 10.0461C23.6903 10.0996 23.7239 10.1532 23.7555 10.2079C23.7775 10.2446 23.7985 10.2814 23.8195 10.3171C23.8248 10.3255 23.829 10.3339 23.8343 10.3424C23.8437 10.3592 23.8521 10.376 23.8616 10.3928C23.8878 10.4327 23.9141 10.4747 23.9383 10.5157C23.9267 10.4947 23.9141 10.4737 23.9015 10.4527C23.9047 10.4569 23.9068 10.46 23.9089 10.4642C23.9194 10.481 23.9299 10.4979 23.9393 10.5147C23.9919 10.604 24.0423 10.6943 24.0917 10.7857C24.0969 10.7952 24.1022 10.8047 24.1064 10.8141C24.1116 10.8236 24.1169 10.832 24.1211 10.8425C24.1116 10.8236 24.1011 10.8057 24.0906 10.7868C24.1148 10.832 24.139 10.8782 24.1631 10.9244C24.1999 10.9927 24.2367 11.061 24.2734 11.1293C24.2598 11.1041 24.2472 11.0789 24.2346 11.0537C24.2482 11.0789 24.2608 11.103 24.2745 11.1283C24.2997 11.1766 24.3239 11.2249 24.348 11.2733C24.3554 11.289 24.3628 11.3058 24.3712 11.3216C24.3722 11.3247 24.3743 11.3289 24.3764 11.3321C24.3827 11.3447 24.388 11.3573 24.3953 11.3699C24.3985 11.3773 24.4016 11.3857 24.4058 11.393C24.4205 11.4204 24.4342 11.4487 24.4479 11.4771C24.451 11.4813 24.4531 11.4865 24.4552 11.4918C24.4647 11.5097 24.4731 11.5275 24.4815 11.5454C24.4857 11.5527 24.4888 11.5601 24.4909 11.5675C24.5183 11.6252 24.5445 11.683 24.5697 11.7408C24.5739 11.7492 24.5781 11.7566 24.5823 11.7639C24.5844 11.7671 24.5855 11.7702 24.5865 11.7723C24.5897 11.7776 24.5929 11.7828 24.595 11.7881C24.6013 11.8039 24.6097 11.8196 24.617 11.8354C24.6244 11.8511 24.6296 11.8669 24.638 11.8827C24.6401 11.8879 24.6422 11.8932 24.6443 11.8984C24.6443 11.8995 24.6443 11.8995 24.6443 11.9005C24.6443 11.9016 24.6443 11.9016 24.6454 11.9037C24.6454 11.9037 24.6454 11.9058 24.6464 11.9068C24.6485 11.911 24.6506 11.9152 24.6517 11.9194C24.6517 11.9205 24.6517 11.9215 24.6538 11.9226C24.6538 11.9247 24.6559 11.9278 24.6569 11.9299C24.6601 11.9341 24.6622 11.9373 24.6622 11.9415C24.6696 11.9573 24.6759 11.9741 24.6822 11.9898C24.6958 12.0213 24.7084 12.0529 24.7231 12.0844C24.7231 12.0854 24.7242 12.0865 24.7242 12.0875C24.7326 12.1075 24.741 12.1264 24.7494 12.1464C24.7788 12.2168 24.8093 12.2872 24.8377 12.3586C24.8492 12.3859 24.8597 12.4133 24.8723 12.4416C24.8828 12.4689 24.8955 12.4963 24.906 12.5246C24.9123 12.5404 24.9175 12.5572 24.9249 12.573C24.9312 12.5898 24.9364 12.6055 24.9427 12.6213C24.9448 12.6276 24.948 12.6328 24.9511 12.6391C24.9637 12.6707 24.9764 12.7043 24.989 12.7369C24.989 12.7411 24.9921 12.7442 24.9932 12.7484C25.0016 12.7726 25.011 12.7957 25.0205 12.8199C25.0226 12.8251 25.0236 12.8293 25.0257 12.8346C25.0331 12.8545 25.0404 12.8735 25.0467 12.8934C25.0657 12.9428 25.0835 12.9922 25.1024 13.0416C25.1087 13.0584 25.114 13.0741 25.1203 13.0909C25.1266 13.1078 25.1329 13.1256 25.1382 13.1424C25.1508 13.1771 25.1634 13.2107 25.1749 13.2454C25.1791 13.2591 25.1844 13.2727 25.1886 13.2864C25.2012 13.3242 25.2138 13.3631 25.2254 13.403C25.238 13.4366 25.2495 13.4713 25.2621 13.507C25.2663 13.5207 25.2705 13.5343 25.2758 13.548C25.2884 13.5879 25.301 13.6278 25.3126 13.6678C25.3157 13.6772 25.3189 13.6867 25.322 13.6961C25.3252 13.7035 25.3273 13.7119 25.3304 13.7203C25.3325 13.7287 25.3357 13.7371 25.3378 13.7445C25.343 13.755 25.3462 13.7655 25.3483 13.7749C25.3567 13.8054 25.3672 13.8369 25.3756 13.8674C25.3777 13.8716 25.3798 13.8769 25.3798 13.8821C25.3809 13.8874 25.3819 13.8926 25.383 13.8979C25.3872 13.9136 25.3903 13.9294 25.3945 13.9452C25.4134 14.0019 25.4302 14.0597 25.4471 14.1175C25.4639 14.1763 25.4807 14.2351 25.4975 14.294C25.4996 14.3024 25.5017 14.3097 25.5048 14.3181C25.5101 14.3392 25.5154 14.3602 25.5217 14.3812L25.5469 14.4757C25.5626 14.5367 25.5784 14.5987 25.5931 14.6607C25.6036 14.6953 25.6131 14.7311 25.6215 14.7668C25.6351 14.8183 25.6477 14.8698 25.6593 14.9212C25.6614 14.9265 25.6624 14.9328 25.6635 14.938C25.674 14.9843 25.6856 15.0316 25.695 15.0778C25.7003 15.103 25.7055 15.1282 25.7108 15.1545C25.7171 15.1818 25.7223 15.2091 25.7286 15.2364C25.736 15.2669 25.7434 15.2984 25.7497 15.33C25.7497 15.3331 25.7497 15.3373 25.7518 15.3405C25.7528 15.3457 25.7539 15.351 25.756 15.3562C25.7602 15.3783 25.7654 15.4014 25.7707 15.4235C25.7833 15.4855 25.7969 15.5474 25.8085 15.6105C25.819 15.6546 25.8274 15.6987 25.8348 15.7429C25.8379 15.7576 25.8411 15.7733 25.8442 15.7891C25.8463 15.8007 25.8474 15.8122 25.8495 15.8238C25.8547 15.8479 25.8589 15.8721 25.8621 15.8973C25.8642 15.9057 25.8663 15.9141 25.8673 15.9225C25.8715 15.9404 25.8757 15.9593 25.8789 15.9782C25.8841 16.0024 25.8883 16.0276 25.8904 16.0528C25.8968 16.077 25.901 16.1012 25.9041 16.1253C25.9125 16.1726 25.9199 16.222 25.9272 16.2703C25.9304 16.2934 25.9346 16.3176 25.9367 16.3407L25.9493 16.4164C25.9524 16.4353 25.9556 16.4542 25.9577 16.4731C25.9861 16.658 26.0123 16.8461 26.0365 17.0373C26.0523 17.1571 26.0659 17.2769 26.0796 17.3988C26.0922 17.5217 26.1058 17.6446 26.1174 17.7686C26.1227 17.8432 26.1311 17.9178 26.1374 17.9924C26.1447 18.0859 26.151 18.1794 26.1584 18.2729C26.1615 18.3202 26.1657 18.3685 26.1678 18.4169C26.171 18.4652 26.1741 18.5135 26.1773 18.5619C26.1836 18.6596 26.1888 18.7573 26.1941 18.855C26.213 19.2427 26.2214 19.6409 26.2214 20.0486C26.2214 20.2997 26.2183 20.554 26.2109 20.8114C26.2078 20.9406 26.2015 21.0709 26.1973 21.2012C26.192 21.3315 26.1857 21.4639 26.1783 21.5962C26.1699 21.7297 26.1615 21.8631 26.1531 21.9976C26.1279 22.4011 26.0922 22.8119 26.047 23.2322L37.5772 19.7985C37.6035 19.9246 38.1919 22.752 37.9828 26.9001H37.987Z" fill="#8038C5"/>
<path d="M20.9388 6.84896V6.85106C20.798 6.72603 20.654 6.60415 20.509 6.48438C20.5973 6.55687 20.6855 6.62937 20.7717 6.70397C20.7917 6.72078 20.8116 6.73864 20.8316 6.7565C20.8673 6.78697 20.902 6.81744 20.9377 6.84896H20.9388Z" fill="#7C3DC3"/>
<path d="M20.9674 6.87459C20.9894 6.89343 21.0103 6.91332 21.0313 6.93216C21.0009 6.90495 20.9705 6.87878 20.9402 6.85156C20.9496 6.85889 20.958 6.86622 20.9674 6.87459Z" fill="#7C3DC3"/>
<path d="M21.2537 7.13046C21.2537 7.13046 21.257 7.13374 21.2592 7.13592C21.2548 7.13374 21.2505 7.12937 21.2461 7.125C21.2483 7.12609 21.2505 7.12718 21.2526 7.12937H21.2537V7.13046Z" fill="#7C3DC3"/>
<path d="M21.4666 7.33451C21.4908 7.35868 21.515 7.38284 21.5391 7.40701C21.515 7.38284 21.4908 7.35868 21.4656 7.33556C21.4393 7.3093 21.412 7.28408 21.3857 7.25781C21.411 7.28198 21.4372 7.30614 21.4624 7.33136C21.4635 7.33136 21.4645 7.33346 21.4656 7.33451H21.4666Z" fill="#7C3DC3"/>
<path d="M22.5295 8.48996C22.4465 8.39015 22.3656 8.29559 22.2847 8.20312C22.2878 8.20628 22.291 8.20943 22.2952 8.21363C22.2952 8.21363 22.2962 8.21468 22.2973 8.21573C22.2973 8.21678 22.2983 8.21783 22.3004 8.21994C22.3036 8.22309 22.3057 8.22624 22.3088 8.22939C22.3225 8.24515 22.3362 8.26196 22.3498 8.27772C22.3624 8.29243 22.3761 8.30819 22.3897 8.32395C22.3897 8.32395 22.396 8.33236 22.4002 8.33656C22.4076 8.34602 22.416 8.35547 22.4244 8.36493C22.4244 8.36493 22.4307 8.37334 22.4339 8.37649C22.4643 8.41431 22.4948 8.45214 22.5263 8.48996H22.5295Z" fill="#7C3DC3"/>
<path d="M22.6039 8.57158C22.6281 8.601 22.6512 8.63042 22.6753 8.66089C22.627 8.601 22.5787 8.54321 22.5293 8.48438C22.5482 8.50539 22.5661 8.5264 22.5839 8.54742C22.5902 8.55477 22.5955 8.56108 22.6018 8.56843C22.6018 8.56843 22.6018 8.57053 22.6039 8.57158Z" fill="#7C3DC3"/>
<path d="M23.8328 10.3386C23.8328 10.3386 23.8349 10.3418 23.8349 10.3439C23.8296 10.3355 23.8254 10.3271 23.8202 10.3188C23.7993 10.2832 23.7783 10.2465 23.7563 10.2109C23.7658 10.2245 23.7741 10.2382 23.7825 10.2518C23.7919 10.2675 23.8003 10.2821 23.8087 10.2968C23.8129 10.3041 23.8171 10.3104 23.8212 10.3177C23.8233 10.3208 23.8254 10.324 23.8265 10.3271C23.8265 10.3303 23.8296 10.3334 23.8317 10.3365C23.8317 10.3365 23.8328 10.3365 23.8328 10.3386Z" fill="#7C3DC3"/>
<path d="M23.9027 10.4541C23.9153 10.4751 23.9279 10.4961 23.9395 10.5171C23.9153 10.4761 23.889 10.4341 23.8628 10.3942C23.8533 10.3774 23.8449 10.3606 23.8354 10.3438C23.8376 10.3459 23.8386 10.348 23.8386 10.349C23.8481 10.3637 23.8565 10.3784 23.8638 10.3931C23.8754 10.4089 23.8859 10.4268 23.8964 10.4436C23.8964 10.4446 23.8964 10.4446 23.8964 10.4457C23.8985 10.4488 23.8995 10.4509 23.9016 10.4541H23.9027Z" fill="#7C3DC3"/>
<path d="M24.2751 11.1238C24.2383 11.0555 24.2016 10.9872 24.1648 10.9189C24.1406 10.8727 24.1165 10.8264 24.0923 10.7812C24.1028 10.8002 24.1133 10.818 24.1228 10.8369C24.1238 10.839 24.1259 10.8422 24.127 10.8443C24.1322 10.8537 24.1375 10.8632 24.1427 10.8737C24.1501 10.8884 24.1585 10.9031 24.1658 10.9178C24.1721 10.9294 24.1774 10.9399 24.1847 10.9515C24.1984 10.9788 24.2131 11.0061 24.2278 11.0324C24.231 11.0376 24.2331 11.0429 24.2362 11.0481C24.2488 11.0733 24.2614 11.0986 24.2751 11.1238Z" fill="#7C3DC3"/>
<path d="M34.087 6.16964C33.8611 5.90802 33.6278 5.6506 33.3872 5.39844C33.6278 5.6506 33.8621 5.90802 34.087 6.16964Z" fill="url(#paint0_linear_2172_11329)"/>
<path d="M37.1152 17.9322C37.0816 17.8187 37.047 17.7 37.0112 17.5781C37.048 17.7 37.0827 17.8177 37.1152 17.9322Z" fill="url(#paint1_linear_2172_11329)"/>
<path d="M37.2624 18.4584C37.235 18.3596 37.2067 18.2567 37.1772 18.1484C37.2077 18.2567 37.2361 18.3596 37.2624 18.4584Z" fill="url(#paint2_linear_2172_11329)"/>
<path d="M34.087 6.16964C33.8611 5.90802 33.6278 5.6506 33.3872 5.39844C33.6278 5.6506 33.8621 5.90802 34.087 6.16964Z" fill="#9538E1"/>
<path d="M43.2889 18.097L41.2947 18.6917L40.7211 18.8619L40.2451 19.0037V18.9985C40.2409 18.9764 40.2335 18.9428 40.2241 18.8955C40.2241 18.8903 40.222 18.885 40.2209 18.8798C40.1957 18.76 40.1537 18.5656 40.0917 18.3103C40.078 18.2535 40.0633 18.1926 40.0476 18.1296C40.0339 18.077 40.0203 18.0213 40.0055 17.9646C39.9415 17.7156 39.8637 17.4277 39.7712 17.1062C39.746 17.02 39.7198 16.9307 39.6924 16.8404C39.6651 16.7469 39.6357 16.6502 39.6052 16.5514C39.5832 16.4789 39.5601 16.4054 39.5359 16.3297C39.5243 16.2919 39.5128 16.2551 39.5002 16.2163C39.4571 16.0828 39.4119 15.9462 39.3657 15.8055C39.3499 15.7592 39.3342 15.7109 39.3174 15.6636C39.2764 15.5407 39.2333 15.4156 39.1881 15.2885C39.1492 15.1761 39.1083 15.0616 39.0652 14.9449C39.0021 14.7705 38.936 14.593 38.8656 14.4112C38.6806 13.9279 38.4737 13.4214 38.2436 12.8993C38.2005 12.8015 38.1563 12.7028 38.1112 12.604C38.067 12.5042 38.0208 12.4054 37.9746 12.3056C37.9283 12.2058 37.8811 12.1049 37.8327 12.0041C37.8096 11.9547 37.7855 11.9043 37.7602 11.8549C37.7067 11.7425 37.651 11.629 37.5932 11.5155C37.4555 11.2371 37.3105 10.9565 37.1582 10.676C37.1267 10.6172 37.0941 10.5573 37.0615 10.4974C36.9418 10.281 36.8199 10.0635 36.6927 9.84597C36.2882 9.15252 35.8427 8.45801 35.3521 7.77507C35.2911 7.68996 35.2291 7.60486 35.1661 7.51975C35.1041 7.43465 35.0411 7.35059 34.9759 7.26549C34.9129 7.18143 34.8477 7.09738 34.7815 7.01332C34.7164 6.92927 34.6502 6.84521 34.583 6.76221C34.4222 6.56153 34.2573 6.364 34.0881 6.16752C33.8632 5.9059 33.6289 5.64848 33.3883 5.39632C33.1372 5.13365 32.8788 4.87518 32.6098 4.62512C32.5646 4.58099 32.5194 4.53896 32.4732 4.49693C32.4122 4.44125 32.3513 4.38451 32.2883 4.32987C32.221 4.26788 32.1527 4.20799 32.0834 4.14916C32.0151 4.08822 31.9457 4.02938 31.8764 3.97054C31.7367 3.85286 31.5948 3.73624 31.4509 3.62276C31.308 3.50824 31.1619 3.39581 31.0127 3.28549C30.8656 3.17517 30.7143 3.06695 30.562 2.96083C30.4128 2.85681 30.2615 2.7549 30.1081 2.65613C29.9547 2.55632 29.7992 2.45965 29.6416 2.36404C29.5628 2.31676 29.4829 2.26948 29.4031 2.22325C29.2434 2.13079 29.0805 2.04043 28.9166 1.95217C28.7517 1.86392 28.5857 1.77881 28.4165 1.69581C28.2473 1.6128 28.0761 1.5319 27.9027 1.4552C27.8166 1.41632 27.7293 1.37745 27.6411 1.34067C27.4656 1.26502 27.287 1.19253 27.1073 1.12318C27.017 1.08851 26.9256 1.05489 26.8352 1.02127C26.6524 0.955073 26.4675 0.890981 26.2794 0.831092C26.1859 0.800622 26.0913 0.771203 25.9968 0.742834C25.9022 0.713415 25.8066 0.686097 25.7099 0.65878C25.6385 0.637766 25.5649 0.617803 25.4924 0.59889C25.4494 0.587333 25.4052 0.575775 25.3622 0.564218C25.0701 0.488568 24.7738 0.420274 24.4712 0.359334C24.3892 0.343574 24.3073 0.326763 24.2243 0.312053C23.929 0.257418 23.6285 0.210137 23.3228 0.170211C23.3018 0.167059 23.2797 0.163907 23.2576 0.161805C23.162 0.149197 23.0654 0.13764 22.9687 0.127133C22.9624 0.126082 22.955 0.126082 22.9487 0.125032C23.6212 0.0441288 24.2978 0 24.9745 0C25.2319 0 25.4903 0.00630411 25.7488 0.019963C41.5353 0.840548 43.29 18.097 43.29 18.097H43.2889Z" fill="#9538E1"/>
<path d="M40.2468 19.0027L38.6592 19.4765L37.5823 19.797V19.7928C37.5728 19.7423 37.5413 19.5847 37.4835 19.3347C37.4783 19.3116 37.473 19.2884 37.4667 19.2632C37.4373 19.1382 37.4026 18.9932 37.3616 18.8293C37.3501 18.7852 37.3375 18.7389 37.3259 18.6916C37.307 18.6171 37.286 18.5404 37.265 18.4594C37.2387 18.3607 37.2103 18.2577 37.1799 18.1495C37.1694 18.1138 37.1599 18.077 37.1494 18.0402C37.1389 18.0035 37.1284 17.9667 37.1179 17.9289C37.0853 17.8143 37.0506 17.6967 37.0139 17.5748C37.0023 17.5348 36.9897 17.4939 36.9771 17.4518C36.975 17.4476 36.9739 17.4434 36.9729 17.4392C36.9708 17.435 36.9697 17.4308 36.9687 17.4266C36.9624 17.4077 36.9561 17.3878 36.9508 17.3688C36.9351 17.3174 36.9183 17.2659 36.9025 17.2144C36.8342 16.9958 36.7607 16.7668 36.6798 16.5283C36.6356 16.3949 36.5894 16.2583 36.54 16.1196C36.5306 16.0923 36.52 16.0649 36.5106 16.0366C36.4896 15.9767 36.4675 15.9168 36.4465 15.8559C36.4024 15.735 36.3572 15.6121 36.311 15.4871C36.2878 15.424 36.2637 15.362 36.2395 15.2979C36.2164 15.2349 36.1912 15.1708 36.167 15.1067C36.145 15.051 36.1239 14.9953 36.1019 14.9386C36.0977 14.9302 36.0945 14.9218 36.0914 14.9134C36.0399 14.7842 35.9874 14.6528 35.9338 14.5204C35.8791 14.387 35.8245 14.2536 35.7667 14.118C35.7383 14.0508 35.7089 13.9825 35.6795 13.9142C35.6501 13.8459 35.6207 13.7776 35.5902 13.7093L35.5713 13.6652C35.524 13.5559 35.4746 13.4466 35.4242 13.3363C35.4168 13.3216 35.4105 13.3069 35.4042 13.2932C35.3401 13.1535 35.275 13.0127 35.2077 12.8709C35.1405 12.7301 35.0722 12.5872 35.0018 12.4443C34.9325 12.3045 34.8621 12.1637 34.7896 12.0219C34.7507 11.9473 34.7118 11.8727 34.6729 11.7971C34.6351 11.7246 34.5973 11.6521 34.5584 11.5796C34.447 11.3705 34.3315 11.1603 34.2127 10.9492C34.2075 10.9407 34.2022 10.9323 34.198 10.9239C34.115 10.7779 34.0299 10.6318 33.9438 10.4858C33.9007 10.4123 33.8566 10.3398 33.8124 10.2662C33.7242 10.1202 33.6338 9.97307 33.5424 9.82702C33.4962 9.75453 33.4499 9.68098 33.4027 9.60848C33.3554 9.53493 33.3081 9.46243 33.2598 9.38889C33.2114 9.31639 33.1631 9.24389 33.1148 9.17034C33.0654 9.09785 33.016 9.02535 32.9666 8.95285C32.9162 8.88036 32.8658 8.80786 32.8153 8.73536C32.6619 8.51892 32.5054 8.30248 32.3436 8.08814C32.29 8.01669 32.2354 7.9463 32.1807 7.87485C32.125 7.8034 32.0693 7.73301 32.0137 7.66261C31.958 7.59117 31.9012 7.52077 31.8445 7.45142C31.7878 7.38103 31.73 7.31063 31.6722 7.24129C31.6165 7.17404 31.5608 7.1068 31.503 7.03956C31.4326 6.9576 31.3622 6.87565 31.2908 6.79475C31.2393 6.73696 31.1878 6.67812 31.1353 6.62033C31.0744 6.55204 31.0124 6.4848 30.9504 6.4165C30.8884 6.34926 30.8253 6.28201 30.7623 6.21477C30.7581 6.21057 30.7539 6.20636 30.7507 6.20216C30.6908 6.14017 30.631 6.07713 30.57 6.01514C30.5059 5.94895 30.4408 5.8838 30.3756 5.81761C30.3105 5.75247 30.2443 5.68733 30.1771 5.62218C30.0436 5.49295 29.9081 5.36477 29.7705 5.23868C29.7022 5.17564 29.6328 5.1126 29.5624 5.05061C29.5067 5.00018 29.4489 4.9508 29.3922 4.90036C29.3071 4.82681 29.222 4.75432 29.1358 4.68182C29.0633 4.62193 28.9908 4.56204 28.9173 4.50215C28.8416 4.44016 28.7649 4.37922 28.6882 4.31933C28.5454 4.20796 28.4014 4.09764 28.2543 3.98942C28.164 3.92323 28.0736 3.85703 27.9811 3.79294C27.9118 3.74356 27.8424 3.69523 27.772 3.64795C27.6932 3.59331 27.6134 3.53973 27.5325 3.48614C27.5241 3.48089 27.5157 3.47458 27.5062 3.46828C27.4348 3.42205 27.3623 3.37477 27.2898 3.32854C27.2078 3.27705 27.1259 3.22557 27.0429 3.17514C26.9809 3.13731 26.9178 3.09949 26.8548 3.06166C26.7298 2.98707 26.6026 2.91352 26.4734 2.84207C26.4093 2.80635 26.3452 2.77167 26.2801 2.73595C26.1887 2.68657 26.0962 2.63824 26.0037 2.58991C25.8325 2.50165 25.6591 2.41654 25.4837 2.33354C25.4816 2.33249 25.4784 2.33144 25.4753 2.32934C25.388 2.28836 25.2998 2.24843 25.2115 2.20851C25.1191 2.16753 25.0277 2.12655 24.9341 2.08663C24.7251 1.99732 24.5128 1.91221 24.2974 1.83131C24.226 1.80399 24.1535 1.77773 24.081 1.75146C23.9843 1.71679 23.8866 1.68317 23.7889 1.64954C23.6901 1.61592 23.5914 1.5844 23.4926 1.55183C23.294 1.48879 23.0934 1.4289 22.8885 1.37321C22.7908 1.34695 22.693 1.32068 22.5943 1.29441C22.5859 1.29231 22.5785 1.29126 22.5712 1.28916C22.4703 1.26394 22.3694 1.23873 22.2675 1.21561C21.9534 1.14101 21.6339 1.07587 21.3072 1.02018C21.2252 1.00652 21.1433 0.992866 21.0613 0.979207C20.8964 0.95294 20.7304 0.928774 20.5622 0.90776C20.4782 0.897253 20.3941 0.886746 20.309 0.87729C20.1966 0.864682 20.0821 0.852074 19.9676 0.841567C19.7406 0.820553 19.5105 0.802692 19.2773 0.789033H19.2657C19.0335 0.775374 18.7992 0.765918 18.5617 0.762766C18.3401 0.757512 18.1152 0.757512 17.8872 0.760664L18.4178 0.669255L22.9505 0.125C22.9568 0.126051 22.9641 0.126051 22.9704 0.127101C23.0671 0.137608 23.1637 0.149166 23.2594 0.161774C23.2814 0.163875 23.3035 0.167027 23.3245 0.170179C23.6302 0.210105 23.9307 0.257386 24.226 0.312022C24.309 0.326731 24.3909 0.343542 24.4729 0.359303C24.7755 0.420242 25.0718 0.488537 25.3639 0.564186C25.407 0.575744 25.4511 0.587301 25.4942 0.598859C25.5667 0.617771 25.6402 0.637734 25.7117 0.658748C25.8083 0.686066 25.9039 0.713383 25.9985 0.742803C26.0931 0.771171 26.1876 0.80059 26.2811 0.83106C26.4692 0.892 26.6541 0.955041 26.8369 1.02123C26.9273 1.05486 27.0187 1.08848 27.1091 1.12315C27.2887 1.19355 27.4674 1.26499 27.6428 1.34064C27.7311 1.37742 27.8183 1.41629 27.9044 1.45517C28.0778 1.53292 28.2491 1.61277 28.4182 1.69577C28.5874 1.77878 28.7534 1.86388 28.9183 1.95214C29.0823 2.0404 29.2451 2.13076 29.4048 2.22322C29.4847 2.26945 29.5645 2.31673 29.6433 2.36401C29.8009 2.45962 29.9564 2.55628 30.1098 2.6561C30.2632 2.75591 30.4145 2.85678 30.5637 2.9608C30.7161 3.06692 30.8674 3.17514 31.0145 3.28546C31.1637 3.39578 31.3097 3.5082 31.4526 3.62273C31.5965 3.7362 31.7384 3.85283 31.8781 3.97051C31.9475 4.02934 32.0168 4.08923 32.0851 4.14912C32.1545 4.20901 32.2227 4.2689 32.29 4.32984C32.353 4.38448 32.414 4.44121 32.4749 4.4969C32.5211 4.53893 32.5663 4.58201 32.6115 4.62508C32.8805 4.87515 33.1389 5.13361 33.3901 5.39629C33.6307 5.64845 33.8639 5.90587 34.0898 6.16749C34.259 6.36397 34.4239 6.56149 34.5847 6.76218C34.6519 6.84518 34.7181 6.92923 34.7833 7.01329C34.8495 7.09629 34.9136 7.1814 34.9776 7.26545C35.0417 7.34951 35.1058 7.43461 35.1678 7.51972C35.2309 7.60482 35.2928 7.68993 35.3538 7.77504C35.8445 8.45798 36.2899 9.15248 36.6945 9.84593C36.8216 10.0634 36.9435 10.2809 37.0633 10.4974C37.0958 10.5572 37.1284 10.6171 37.1599 10.676C37.3123 10.9565 37.4573 11.237 37.5949 11.5155C37.6527 11.6289 37.7084 11.7424 37.762 11.8548C37.7872 11.9042 37.8113 11.9547 37.8345 12.004C37.8828 12.1049 37.9301 12.2058 37.9763 12.3056C38.0225 12.4054 38.0688 12.5042 38.1129 12.604C38.1581 12.7027 38.2022 12.8015 38.2453 12.8992C38.4754 13.4214 38.6824 13.9278 38.8673 14.4112C38.9366 14.5929 39.0028 14.7705 39.0669 14.9449C39.1089 15.0615 39.1499 15.1761 39.1898 15.2885C39.235 15.4156 39.2781 15.5406 39.3191 15.6636C39.3359 15.7109 39.3516 15.7592 39.3674 15.8054C39.4136 15.9462 39.4588 16.0828 39.5019 16.2162C39.5145 16.2551 39.5261 16.2919 39.5376 16.3297C39.5607 16.4054 39.5838 16.4789 39.607 16.5514C39.6374 16.6502 39.6668 16.7468 39.6942 16.8403C39.7215 16.9307 39.7478 17.02 39.773 17.1062C39.8654 17.4277 39.9432 17.7156 40.0073 17.9646C40.022 18.0213 40.0356 18.077 40.0493 18.1295C40.0651 18.1926 40.0798 18.2535 40.0934 18.3103C40.1554 18.5656 40.1974 18.7599 40.2227 18.8797C40.2237 18.885 40.2248 18.8902 40.2258 18.8955C40.2353 18.9428 40.2426 18.9764 40.2468 18.9985V19.0027Z" fill="white"/>
<path d="M67.2249 3.2623L67.361 3.29478V7.04722L67.1367 6.9838C65.8792 6.63269 64.5428 6.45481 63.16 6.45481C60.7409 6.45481 58.9049 7.01628 57.7061 8.12222C56.5105 9.22351 55.9057 10.9095 55.9057 13.1322C55.9057 15.5498 56.512 17.3842 57.7108 18.5814C58.9095 19.7817 60.744 20.388 63.16 20.388C64.5459 20.388 65.8839 20.2102 67.1352 19.8606L67.361 19.7972V23.5481L67.2249 23.5821C65.8947 23.9007 64.4299 24.0616 62.8723 24.0616C55.3798 24.0616 51.5825 20.3849 51.5825 13.1322C51.5825 6.26456 55.3798 2.78125 62.8723 2.78125C64.4253 2.78125 65.8901 2.94366 67.2249 3.2623Z" fill="white"/>
<path d="M77.4682 8.40625H77.6445V11.8493H77.4682C76.121 11.8493 74.8944 12.4093 73.8209 13.5183V23.9141H69.6416V8.40625H72.9145L73.3523 10.1819C74.6469 9.0033 76.0282 8.40625 77.4682 8.40625Z" fill="white"/>
<path d="M85.4345 8.40625C80.5962 8.40625 78.1431 10.9569 78.1431 15.9869C78.1431 21.017 80.9752 23.9141 86.5605 23.9141C88.4754 23.9141 90.1289 23.7671 91.4746 23.4779L91.6154 23.447V20.0595L91.405 20.0998C89.8923 20.3844 88.3594 20.5298 86.8482 20.5298C83.8924 20.5298 82.4106 19.5971 82.3255 17.6791H92.3578L92.3795 17.526C92.4661 16.8933 92.5109 16.2545 92.5109 15.6265C92.5109 10.8362 90.1289 8.40625 85.4345 8.40625ZM82.3394 14.6706C82.5513 12.714 83.5645 11.7627 85.4345 11.7627C87.4314 11.7627 88.412 12.714 88.4321 14.6706H82.3394Z" fill="white"/>
<path d="M104.034 2.92969V9.04249C103.032 8.62486 102.039 8.41296 101.08 8.41296C96.1922 8.41296 93.7158 10.9203 93.7158 15.8637C93.7158 21.2093 96.2463 23.9208 101.239 23.9208C103.457 23.9208 105.759 23.613 108.081 23.0051L108.212 22.9711V2.92969H104.034ZM104.034 19.9611C103.207 20.2086 102.316 20.3338 101.383 20.3338C99.0057 20.3338 97.8503 18.8381 97.8503 15.7632C97.8503 13.1924 98.9593 11.9427 101.239 11.9427C102.351 11.9427 103.292 12.1778 104.034 12.6418V19.9611Z" fill="white"/>
<path d="M117.834 8.19531C112.623 8.19531 109.981 10.8743 109.981 16.1642C110.002 21.4402 112.645 24.1161 117.834 24.1161C123.024 24.1161 125.689 21.4402 125.689 16.1611C125.689 10.882 123.045 8.19531 117.834 8.19531ZM117.834 20.8525C115.381 20.8525 114.155 19.2717 114.155 16.1055C114.155 12.9392 115.381 11.4714 117.834 11.4714C120.288 11.4714 121.516 13.0166 121.516 16.1055C121.516 19.1943 120.289 20.8525 117.834 20.8525Z" fill="white"/>
<path d="M130.966 8.40629H134.813V11.7906H131.421V18.5855C131.421 19.8941 131.962 20.5298 133.077 20.5298H134.813V23.9141H131.229C128.584 23.9141 127.241 22.4803 127.241 19.6528V5.95312H130.387L130.966 8.40629Z" fill="white"/>
<path d="M140.754 21.9771C140.754 23.0505 139.883 23.9214 138.809 23.9214H138.52C137.445 23.9214 136.574 23.0505 136.574 21.9771C136.574 21.4388 136.792 20.9531 137.143 20.6005C137.496 20.2493 137.983 20.0312 138.52 20.0312H138.809C139.883 20.0312 140.754 20.9021 140.754 21.9771Z" fill="white"/>
<path d="M140.754 21.9771C140.754 23.0505 139.883 23.9214 138.809 23.9214H138.52C137.445 23.9214 136.574 23.0505 136.574 21.9771C136.574 21.4388 136.792 20.9531 137.143 20.6005C137.496 20.2493 137.983 20.0312 138.52 20.0312H138.809C139.883 20.0312 140.754 20.9021 140.754 21.9771Z" fill="#9538E1"/>
<path d="M55.9057 13.1322C55.9057 15.5498 56.512 17.3842 57.7108 18.5814C58.9095 19.7817 60.744 20.388 63.16 20.388C64.5459 20.388 65.8839 20.2102 67.1352 19.8606L67.361 19.7972V23.5481L67.2249 23.5821C65.8947 23.9007 64.4299 24.0616 62.8723 24.0616C55.3798 24.0616 51.5825 20.3849 51.5825 13.1322C51.5825 6.26456 55.3798 2.78125 62.8723 2.78125C64.4253 2.78125 65.8901 2.94366 67.2249 3.2623L67.361 3.29478V7.04722L67.1367 6.9838C65.8792 6.63269 64.5428 6.45481 63.16 6.45481C60.7409 6.45481 58.9049 7.01628 57.7061 8.12222C56.5105 9.22351 55.9057 10.9095 55.9057 13.1322Z" fill="#9538E1"/>
<path d="M77.6445 8.40625V11.8493H77.4682C76.121 11.8493 74.8944 12.4093 73.8209 13.5183V23.9141H69.6416V8.40625H72.9145L73.3523 10.1819C74.6469 9.0033 76.0282 8.40625 77.4682 8.40625H77.6445Z" fill="#9538E1"/>
<path d="M85.4345 8.40625C80.5962 8.40625 78.1431 10.9569 78.1431 15.9869C78.1431 21.017 80.9752 23.9141 86.5605 23.9141C88.4754 23.9141 90.1289 23.7671 91.4746 23.4779L91.6154 23.447V20.0595L91.405 20.0998C89.8923 20.3844 88.3594 20.5298 86.8482 20.5298C83.8924 20.5298 82.4106 19.5971 82.3255 17.6791H92.3578L92.3795 17.526C92.4661 16.8933 92.5109 16.2545 92.5109 15.6265C92.5109 10.8362 90.1289 8.40625 85.4345 8.40625ZM82.3394 14.6706C82.5513 12.714 83.5645 11.7627 85.4345 11.7627C87.4314 11.7627 88.412 12.714 88.4321 14.6706H82.3394Z" fill="#9538E1"/>
<path d="M104.034 2.92969V9.04249C103.032 8.62486 102.039 8.41296 101.08 8.41296C96.1922 8.41296 93.7158 10.9203 93.7158 15.8637C93.7158 21.2093 96.2463 23.9208 101.239 23.9208C103.457 23.9208 105.759 23.613 108.081 23.0051L108.212 22.9711V2.92969H104.034ZM104.034 19.9611C103.207 20.2086 102.316 20.3338 101.383 20.3338C99.0057 20.3338 97.8503 18.8381 97.8503 15.7632C97.8503 13.1924 98.9593 11.9427 101.239 11.9427C102.351 11.9427 103.292 12.1778 104.034 12.6418V19.9611Z" fill="#9538E1"/>
<path d="M117.834 8.19531C112.623 8.19531 109.981 10.8743 109.981 16.1642C110.002 21.4402 112.645 24.1161 117.834 24.1161C123.024 24.1161 125.689 21.4402 125.689 16.1611C125.689 10.882 123.045 8.19531 117.834 8.19531ZM117.834 20.8525C115.381 20.8525 114.155 19.2717 114.155 16.1055C114.155 12.9392 115.381 11.4714 117.834 11.4714C120.288 11.4714 121.516 13.0166 121.516 16.1055C121.516 19.1943 120.289 20.8525 117.834 20.8525Z" fill="#9538E1"/>
<path d="M131.421 11.7906V18.5855C131.421 19.8941 131.962 20.5298 133.077 20.5298H134.813V23.9141H131.229C128.584 23.9141 127.241 22.4803 127.241 19.6528V5.95312H130.387L130.966 8.40629H134.813V11.7906H131.421Z" fill="#9538E1"/>
<defs>
<linearGradient id="paint0_linear_2172_11329" x1="33.3872" y1="5.78404" x2="34.087" y2="5.78404" gradientUnits="userSpaceOnUse">
<stop stop-color="#E5E5E5"/>
<stop offset="1" stop-color="white"/>
</linearGradient>
<linearGradient id="paint1_linear_2172_11329" x1="37.0112" y1="17.7546" x2="37.1152" y2="17.7546" gradientUnits="userSpaceOnUse">
<stop stop-color="#E5E5E5"/>
<stop offset="1" stop-color="white"/>
</linearGradient>
<linearGradient id="paint2_linear_2172_11329" x1="37.1772" y1="18.3029" x2="37.2624" y2="18.3029" gradientUnits="userSpaceOnUse">
<stop stop-color="#E5E5E5"/>
<stop offset="1" stop-color="white"/>
</linearGradient>
</defs>
</svg>
