<svg width="23" height="15" viewBox="0 0 23 15" fill="none" xmlns="http://www.w3.org/2000/svg">
<path d="M4.66127 13.2301C7.23562 13.2301 9.32254 11.1433 9.32254 8.56914C9.32254 5.99498 7.23562 3.9082 4.66127 3.9082C2.08692 3.9082 0 5.99498 0 8.56914C0 11.1433 2.08692 13.2301 4.66127 13.2301Z" fill="white"/>
<path d="M19.9703 10.5188L13.8442 12.343C13.8682 12.1197 13.8872 11.9015 13.9006 11.6871C13.9051 11.6157 13.9096 11.5448 13.914 11.4739C13.9179 11.4036 13.9213 11.3333 13.9241 11.264C13.9263 11.1948 13.9297 11.1256 13.9313 11.0569C13.9352 10.9202 13.9369 10.7851 13.9369 10.6517C13.9369 10.4351 13.9324 10.2236 13.9224 10.0176C13.9196 9.96567 13.9168 9.91376 13.9135 9.86184C13.9118 9.83617 13.9101 9.81049 13.9084 9.78481C13.9073 9.75914 13.9051 9.73346 13.9034 9.70834C13.8995 9.65866 13.8962 9.60898 13.8923 9.5593C13.8895 9.51911 13.8861 9.48004 13.8816 9.44041C13.8738 9.35165 13.8638 9.26513 13.8537 9.17805C13.8487 9.13563 13.8442 9.09377 13.8387 9.0519C13.8258 8.95031 13.8119 8.85039 13.7968 8.75215C13.7957 8.7421 13.794 8.73205 13.7923 8.72201L13.7856 8.68182C13.7845 8.66954 13.7823 8.6567 13.7806 8.64442C13.7773 8.61874 13.7728 8.59306 13.7683 8.56739C13.7666 8.55455 13.7644 8.54171 13.7611 8.52887C13.7599 8.51547 13.7577 8.50208 13.7549 8.48924C13.7532 8.47919 13.751 8.46914 13.7488 8.45965C13.7488 8.45519 13.7471 8.45072 13.746 8.44626C13.7443 8.43286 13.7421 8.42002 13.7393 8.40718C13.7382 8.40104 13.7376 8.3949 13.7365 8.38876C13.7348 8.38039 13.7332 8.37202 13.7315 8.3642C13.7276 8.34076 13.7231 8.31731 13.7175 8.29387C13.7114 8.26038 13.7041 8.22745 13.6974 8.19451C13.6946 8.18279 13.6918 8.17051 13.6896 8.15879C13.6885 8.156 13.6879 8.15321 13.6874 8.15041C13.6874 8.14874 13.6874 8.14651 13.6863 8.14483C13.6829 8.12809 13.679 8.11134 13.6751 8.09515C13.6717 8.08064 13.669 8.06613 13.6656 8.05161C13.6628 8.03766 13.66 8.02426 13.6572 8.01087C13.6522 7.9863 13.6461 7.96119 13.6405 7.93663C13.6405 7.93383 13.6394 7.93048 13.6383 7.92769C13.6321 7.90034 13.6254 7.87299 13.6182 7.84564C13.6137 7.82666 13.6087 7.80768 13.6031 7.78926C13.5953 7.75633 13.5869 7.72339 13.5785 7.69102L13.5651 7.64078C13.5618 7.62962 13.559 7.61845 13.5562 7.60729C13.5545 7.60282 13.5534 7.59892 13.5523 7.59445C13.5434 7.56319 13.5344 7.53193 13.5255 7.50067C13.5166 7.46997 13.5076 7.43927 13.4976 7.40913C13.4953 7.40076 13.4937 7.39238 13.4914 7.38401C13.4914 7.38122 13.4903 7.37843 13.4898 7.37564C13.4898 7.37285 13.4886 7.37006 13.4875 7.36782C13.4836 7.35163 13.4786 7.33489 13.473 7.3187C13.4719 7.31368 13.4702 7.3081 13.4674 7.30251C13.4663 7.29861 13.4646 7.29414 13.4635 7.28968C13.4619 7.28521 13.4607 7.28074 13.4591 7.27684C13.4574 7.27181 13.4557 7.26679 13.454 7.26177C13.4479 7.24055 13.4412 7.21934 13.4345 7.19813C13.4317 7.19087 13.4295 7.18362 13.4272 7.17636C13.4205 7.15738 13.4144 7.13896 13.4077 7.1211C13.4016 7.09989 13.3949 7.07924 13.3882 7.05914C13.3859 7.05188 13.3831 7.04463 13.3809 7.03737C13.3748 7.01895 13.3681 7.00109 13.3614 6.98267C13.3586 6.97374 13.3552 6.96425 13.3519 6.95532C13.3485 6.94638 13.3457 6.93801 13.3424 6.92908C13.3323 6.90284 13.3229 6.87661 13.3128 6.85037C13.3095 6.83977 13.3055 6.82972 13.3016 6.81912C13.3005 6.81632 13.3 6.81409 13.2988 6.8113C13.2938 6.79846 13.2888 6.78618 13.2843 6.77334C13.2838 6.77111 13.2827 6.76944 13.2821 6.7672C13.2754 6.7499 13.2687 6.73204 13.262 6.71529C13.2603 6.71194 13.2587 6.70915 13.2575 6.7058C13.2542 6.69743 13.2514 6.68906 13.248 6.68012C13.2441 6.67175 13.2413 6.66282 13.238 6.65445C13.2324 6.63938 13.2257 6.62486 13.2201 6.61035C13.2134 6.59528 13.2079 6.58077 13.2017 6.56625C13.1866 6.5283 13.1705 6.4909 13.1548 6.4535C13.1504 6.44289 13.1459 6.43284 13.1414 6.42224C13.1414 6.42168 13.1409 6.42112 13.1409 6.42056C13.133 6.40382 13.1264 6.38707 13.1191 6.37033C13.1157 6.36195 13.1124 6.35302 13.1085 6.34465C13.1085 6.34242 13.1074 6.34074 13.1057 6.33851C13.1057 6.33739 13.1046 6.33572 13.104 6.3346C13.1035 6.33404 13.1035 6.33348 13.1029 6.33293C13.1023 6.33069 13.1012 6.32846 13.1001 6.32623C13.0996 6.32567 13.0996 6.32511 13.0996 6.32455C13.0996 6.32455 13.0994 6.324 13.099 6.32288C13.099 6.32288 13.099 6.32232 13.099 6.32176C13.0979 6.31897 13.0968 6.31618 13.0956 6.31339C13.0912 6.30502 13.0884 6.29664 13.0845 6.28827C13.0806 6.2799 13.0761 6.27152 13.0728 6.26315C13.0716 6.26036 13.07 6.25757 13.0683 6.25478C13.0677 6.25366 13.0672 6.25199 13.0661 6.25031C13.0638 6.24641 13.0616 6.2425 13.0594 6.23803C13.046 6.20733 13.032 6.17663 13.0175 6.14593C13.0164 6.14202 13.0147 6.13812 13.0125 6.13421C13.008 6.12472 13.0035 6.11523 12.9985 6.10574C12.9974 6.10295 12.9963 6.10016 12.9946 6.09793C12.9874 6.08285 12.9801 6.06778 12.9723 6.05327C12.97 6.04936 12.9684 6.0449 12.9667 6.04099C12.9628 6.03429 12.96 6.02759 12.9566 6.02089C12.9555 6.01922 12.9544 6.01699 12.9539 6.01531C12.9494 6.00694 12.9455 5.99801 12.9416 5.98964C12.9287 5.96396 12.9159 5.93828 12.9025 5.9126C12.8952 5.89921 12.8885 5.88637 12.8813 5.87297C12.888 5.88637 12.8947 5.89977 12.9019 5.91316C12.8824 5.87688 12.8629 5.8406 12.8433 5.80431C12.8305 5.77975 12.8176 5.75519 12.8048 5.73119C12.8104 5.74124 12.816 5.75073 12.821 5.76078C12.8188 5.75519 12.816 5.75073 12.8132 5.7457C12.8109 5.74068 12.8082 5.73566 12.8054 5.73063C12.7791 5.68207 12.7523 5.63406 12.7244 5.58662C12.7194 5.57769 12.7138 5.56876 12.7082 5.55982C12.7071 5.55759 12.706 5.55592 12.7043 5.55368C12.711 5.56485 12.7177 5.57601 12.7239 5.58718C12.711 5.56541 12.6971 5.54308 12.6831 5.52187C12.6781 5.51294 12.6736 5.504 12.6686 5.49507C12.6658 5.49061 12.6636 5.48614 12.6608 5.48168C12.6496 5.4627 12.6385 5.44316 12.6267 5.42418C12.61 5.3946 12.5921 5.36613 12.5731 5.33766C12.5592 5.31478 12.5441 5.29245 12.5302 5.26956C12.5268 5.26398 12.5229 5.2584 12.519 5.25337C12.4894 5.2076 12.4604 5.16239 12.4302 5.11773C12.4185 5.10043 12.4068 5.08368 12.3956 5.06694C12.3895 5.05801 12.3839 5.04963 12.3778 5.04126C12.3778 5.04126 12.3774 5.04089 12.3766 5.04014C12.3738 5.03624 12.3716 5.03233 12.3683 5.02786C12.366 5.02396 12.3627 5.02005 12.3605 5.01614C12.3605 5.01558 12.3599 5.01558 12.3599 5.01503C12.3532 5.00498 12.3459 4.99549 12.3392 4.98544C12.3275 4.96869 12.3158 4.95195 12.3041 4.9352C12.2873 4.9112 12.2706 4.88776 12.2527 4.86487C12.2287 4.83082 12.2036 4.79733 12.1779 4.76439C12.1751 4.7616 12.1729 4.75826 12.1707 4.75491C12.1684 4.75156 12.1656 4.74821 12.1628 4.74542C12.1517 4.73034 12.1399 4.71583 12.1277 4.70076C12.1154 4.68401 12.1031 4.66783 12.0903 4.65164C12.0903 4.65108 12.0897 4.65108 12.0897 4.65108C12.0897 4.65052 12.0897 4.64996 12.0886 4.64996C12.0769 4.63434 12.0646 4.61926 12.0523 4.60363C12.0423 4.59135 12.0328 4.57963 12.0233 4.56791C12.0199 4.564 12.0166 4.56009 12.0138 4.55675C12.0266 4.57238 12.0389 4.588 12.0517 4.60419C12.0261 4.57238 12.0004 4.54167 11.9742 4.51042C11.9301 4.45683 11.8871 4.40659 11.8441 4.35747C11.8458 4.35914 11.8474 4.36082 11.8497 4.36305C11.848 4.36082 11.8463 4.35914 11.8446 4.35691C11.8441 4.35635 11.8435 4.35524 11.843 4.35468L11.8407 4.35189C11.8407 4.35189 11.8402 4.35133 11.8396 4.35077C11.8391 4.34965 11.8374 4.34854 11.8368 4.34742C11.8329 4.34296 11.829 4.33849 11.8251 4.33403C11.805 4.3117 11.7849 4.28881 11.7654 4.26648C11.7548 4.25532 11.7453 4.24416 11.7352 4.23355C11.7084 4.20341 11.6805 4.17382 11.6537 4.1448C11.6364 4.12582 11.618 4.10684 11.6001 4.08842C11.594 4.08228 11.5884 4.07614 11.5828 4.07056L11.5678 4.05549C11.5622 4.04935 11.5566 4.04321 11.551 4.03762C11.5449 4.03148 11.5393 4.0259 11.5337 4.02032L11.5091 3.99576C11.489 3.97566 11.4689 3.95557 11.4489 3.93603H11.4483C11.4388 3.92598 11.4293 3.9165 11.4198 3.90756C11.4165 3.90421 11.4131 3.90142 11.4098 3.89807C11.4226 3.91091 11.4355 3.92375 11.4483 3.93659C11.4355 3.92375 11.4226 3.91091 11.4092 3.89863C11.3953 3.88468 11.3807 3.87128 11.3668 3.85733C11.3802 3.87016 11.3941 3.883 11.4075 3.8964C11.3941 3.88244 11.3807 3.87016 11.3674 3.85677C11.3506 3.84058 11.3333 3.82495 11.3166 3.80876C11.3132 3.80486 11.3093 3.80095 11.3048 3.7976C11.3037 3.79592 11.3015 3.79425 11.2998 3.79202C11.2998 3.79202 11.2998 3.79146 11.2987 3.7909C11.2976 3.79034 11.2976 3.79034 11.297 3.78978C11.2981 3.7909 11.2987 3.79146 11.2998 3.79258C11.2976 3.79146 11.2953 3.78923 11.2931 3.78699C11.2942 3.78755 11.2953 3.78811 11.2965 3.78923C11.2965 3.78923 11.2953 3.78811 11.2948 3.78755C11.2948 3.78755 11.2944 3.78718 11.2937 3.78643H11.2931C11.2931 3.78643 11.292 3.78476 11.2914 3.7842C11.2886 3.78085 11.2858 3.77862 11.2831 3.77583H11.2825C11.278 3.77136 11.2752 3.76857 11.2708 3.76467C11.2635 3.75853 11.2574 3.75183 11.2496 3.74569C11.239 3.73508 11.2278 3.72503 11.2166 3.71499C11.2133 3.71164 11.2094 3.70829 11.2055 3.70494C11.1971 3.69712 11.1887 3.68931 11.1792 3.68205C11.1681 3.672 11.1563 3.66196 11.1452 3.65191C11.1569 3.66196 11.1681 3.67256 11.1792 3.68261C11.163 3.6681 11.1468 3.65414 11.1307 3.63963C11.0553 3.5732 10.9788 3.50845 10.9018 3.44482C10.9487 3.48333 10.9956 3.52185 11.0413 3.56148C11.0185 3.54139 10.9956 3.52185 10.9721 3.50231C10.9598 3.49171 10.947 3.4811 10.9342 3.4705C10.9236 3.46212 10.9129 3.45319 10.9023 3.44426C10.8147 3.37225 10.7259 3.30248 10.6361 3.2355C10.6015 3.2087 10.5657 3.18247 10.5306 3.15679C10.5105 3.14228 10.4909 3.12832 10.4714 3.11437C10.4362 3.08925 10.401 3.06413 10.3653 3.03957C10.2285 2.94467 10.0901 2.85481 9.95055 2.76996C9.89193 2.73312 9.8322 2.69739 9.77303 2.66334C9.74233 2.64548 9.71218 2.62818 9.68259 2.61143C9.64352 2.5891 9.60333 2.56733 9.56481 2.54556C9.56313 2.54556 9.56313 2.54333 9.56034 2.54333C9.40515 2.45793 9.2494 2.37978 9.09533 2.3061C9.02332 2.27093 8.9513 2.23744 8.87929 2.20674C8.73638 2.14031 8.59236 2.08003 8.45057 2.02533C8.378 1.9963 8.30822 1.96895 8.23788 1.94327C8.16754 1.91592 8.09776 1.8908 8.02743 1.86736C7.64559 1.73283 7.27548 1.62789 6.92826 1.54583C6.91542 1.54304 6.90258 1.53969 6.88974 1.5369C6.87634 1.53411 6.8635 1.53132 6.85066 1.52797C6.83503 1.52351 6.8194 1.52016 6.80433 1.51681C6.79428 1.51458 6.78479 1.51234 6.77642 1.51067C6.64802 1.48164 6.52521 1.45652 6.40352 1.43308C6.36891 1.42526 6.33374 1.41912 6.29913 1.41354C6.26787 1.4074 6.23716 1.40126 6.20758 1.39624C6.18246 1.39177 6.15734 1.38731 6.13333 1.38396C5.91506 1.34712 5.71633 1.31809 5.54048 1.29855C5.51815 1.29576 5.49638 1.29297 5.47573 1.29074C5.45452 1.28851 5.43386 1.28627 5.41265 1.2846C5.38753 1.28069 5.36185 1.27902 5.33673 1.27678C5.29598 1.2712 5.2569 1.26897 5.22006 1.26506C5.09334 1.2539 4.98337 1.24776 4.89963 1.24385C4.86502 1.24218 4.83432 1.23994 4.80864 1.23827C4.73048 1.23604 4.6875 1.23604 4.6875 1.23604L4.87004 1.20478L6.75186 0.879348H6.75297L9.50508 0.40544H9.50842C9.62956 0.403765 9.74902 0.403765 9.86681 0.406556C9.99297 0.408231 10.1175 0.413254 10.2408 0.420511H10.247C10.3709 0.427768 10.4932 0.437257 10.6137 0.448421C10.6746 0.454003 10.7354 0.460701 10.7952 0.4674C10.8404 0.472423 10.885 0.478005 10.9297 0.483587C11.019 0.494751 11.1072 0.50759 11.1949 0.521545C11.2384 0.528801 11.2819 0.536058 11.3255 0.543314C11.4991 0.572899 11.6688 0.607507 11.8357 0.647139C11.8899 0.659419 11.9434 0.672816 11.997 0.686213C12.0009 0.687329 12.0049 0.687887 12.0093 0.689003C12.0618 0.702958 12.1137 0.716913 12.1656 0.730868C12.2745 0.760453 12.3811 0.79227 12.4866 0.825762C12.5391 0.843066 12.5916 0.859812 12.644 0.877674C12.696 0.895536 12.7479 0.913398 12.7992 0.931819C12.8377 0.945774 12.8763 0.959729 12.9142 0.974242C13.0287 1.01722 13.1414 1.06244 13.2525 1.10988C13.3022 1.13109 13.3508 1.15286 13.3999 1.17463C13.4468 1.19585 13.4937 1.21706 13.54 1.23883C13.5417 1.23994 13.5434 1.2405 13.5445 1.24106C13.6377 1.28516 13.7298 1.33037 13.8208 1.37726C13.8699 1.40294 13.919 1.42861 13.9676 1.45485C14.0022 1.47383 14.0363 1.49225 14.0703 1.51123C14.139 1.54918 14.2065 1.58826 14.273 1.62789C14.3065 1.64798 14.34 1.66808 14.3729 1.68817C14.417 1.71497 14.4605 1.74232 14.5041 1.76967C14.5426 1.79423 14.5811 1.81935 14.6191 1.84391C14.6241 1.84726 14.6286 1.85061 14.633 1.8534C14.676 1.88187 14.7184 1.91034 14.7603 1.93936C14.7977 1.96448 14.8346 1.99016 14.8714 2.01639C14.9205 2.05044 14.9685 2.08561 15.0165 2.12078C15.0947 2.17827 15.1712 2.23688 15.2471 2.29605C15.2878 2.32787 15.3286 2.36024 15.3688 2.39318C15.4079 2.42499 15.4464 2.45681 15.4849 2.48863C15.5307 2.52714 15.5759 2.56566 15.6211 2.60473C15.6513 2.63153 15.682 2.65776 15.7115 2.68456C15.7489 2.71749 15.7858 2.75098 15.8221 2.78447C15.8952 2.85146 15.9672 2.91956 16.0381 2.98821C16.0738 3.02282 16.109 3.05743 16.1436 3.09204C16.1782 3.12721 16.2128 3.16181 16.2469 3.19698C16.2793 3.22991 16.3111 3.26341 16.3429 3.29634C16.3446 3.29857 16.3468 3.3008 16.349 3.30304C16.3825 3.33876 16.416 3.37449 16.449 3.41021C16.4819 3.44649 16.5148 3.48222 16.5472 3.5185C16.5751 3.5492 16.6025 3.58046 16.6298 3.61116C16.6678 3.65414 16.7052 3.69768 16.7426 3.74122C16.7733 3.77695 16.8029 3.81267 16.8325 3.84839C16.8632 3.88524 16.8939 3.92263 16.924 3.96003C16.9542 3.99688 16.9843 4.03427 17.0139 4.07223C17.0435 4.10963 17.0731 4.14703 17.1027 4.18499C17.1317 4.22294 17.1607 4.26034 17.1892 4.2983C17.2752 4.41217 17.3583 4.52716 17.4398 4.64215C17.4666 4.68067 17.4934 4.71918 17.5202 4.7577C17.5465 4.79621 17.5727 4.83473 17.5989 4.87324C17.6246 4.91232 17.6503 4.95083 17.676 4.98935C17.7017 5.02842 17.7268 5.06694 17.7519 5.10601C17.777 5.14453 17.8016 5.1836 17.8261 5.22212C17.8747 5.29971 17.9227 5.37785 17.9696 5.45544C17.9931 5.49452 18.0165 5.53303 18.0394 5.5721C18.0852 5.64969 18.1304 5.72728 18.1745 5.80487C18.1767 5.80934 18.1795 5.8138 18.1823 5.81827C18.2454 5.93047 18.3068 6.04211 18.366 6.15319C18.3866 6.1917 18.4067 6.23022 18.4268 6.26873C18.4475 6.30892 18.4681 6.34856 18.4888 6.38819C18.5273 6.46354 18.5647 6.53834 18.6015 6.61258C18.6389 6.6885 18.6752 6.76441 18.7109 6.83921C18.7467 6.91457 18.7813 6.98937 18.8153 7.06361C18.8187 7.07086 18.822 7.07868 18.8259 7.08649C18.8527 7.1451 18.879 7.20315 18.9041 7.26121L18.9141 7.28465C18.9303 7.32093 18.946 7.35722 18.9616 7.3935C18.9772 7.42978 18.9929 7.46606 19.0079 7.50179C19.0386 7.5738 19.0677 7.64469 19.0967 7.71558C19.1252 7.78591 19.1531 7.85569 19.1804 7.92434C19.1821 7.92881 19.1838 7.93328 19.186 7.93774C19.1977 7.96788 19.2089 7.99747 19.2206 8.02705C19.2335 8.0611 19.2468 8.09515 19.2591 8.12864C19.272 8.16269 19.2848 8.19563 19.2971 8.22912C19.3217 8.29554 19.3457 8.36085 19.3691 8.42505C19.3803 8.45742 19.392 8.48924 19.4032 8.52106C19.4082 8.53613 19.4138 8.55064 19.4188 8.56515C19.445 8.63884 19.4696 8.7114 19.493 8.78229C19.536 8.909 19.5751 9.03069 19.6114 9.14679C19.6198 9.17415 19.6287 9.2015 19.6371 9.22885C19.6398 9.2389 19.6432 9.2495 19.6465 9.25955C19.6471 9.26178 19.6477 9.26402 19.6488 9.26625C19.6493 9.26848 19.6499 9.27071 19.651 9.27295C19.6577 9.29527 19.6644 9.31704 19.6705 9.33826C19.6901 9.40301 19.7085 9.46552 19.7258 9.52637C19.7314 9.54646 19.737 9.566 19.7426 9.58554C19.7481 9.60507 19.7532 9.62461 19.7588 9.64359C19.7749 9.70108 19.79 9.75579 19.804 9.80826C19.8151 9.85124 19.8263 9.89199 19.8363 9.93162C19.8425 9.95674 19.8492 9.9813 19.8553 10.0047C19.8771 10.0918 19.8955 10.1689 19.9111 10.2353C19.9145 10.2487 19.9173 10.261 19.9201 10.2732C19.9508 10.4061 19.9675 10.4898 19.9726 10.516C19.9726 10.516 19.9726 10.5172 19.9726 10.5188H19.9703Z" fill="white"/>
<path d="M17.7422 2.86719C17.87 3.00115 17.9945 3.13791 18.114 3.2769C17.994 3.13791 17.87 3.00115 17.7422 2.86719Z" fill="white"/>
<path d="M20.7545 7.94274C20.7205 7.85008 20.6853 7.75575 20.6484 7.65918C20.6858 7.75575 20.721 7.85008 20.7545 7.94274Z" fill="white"/>
<path d="M11.1268 3.63803V3.63915C11.052 3.57272 10.9755 3.50797 10.8984 3.44434C10.9453 3.48285 10.9922 3.52137 11.038 3.561C11.0486 3.56993 11.0592 3.57942 11.0698 3.58891C11.0888 3.6051 11.1072 3.62128 11.1262 3.63803H11.1268Z" fill="#843ACD"/>
<path d="M11.1734 3.68149C11.1573 3.66703 11.1411 3.65313 11.125 3.63867C11.13 3.64256 11.1345 3.64646 11.1395 3.65091C11.1511 3.66092 11.1623 3.67148 11.1734 3.68149Z" fill="#843ACD"/>
<path d="M11.2963 3.79414C11.2963 3.79414 11.2915 3.79051 11.2891 3.78809C11.2903 3.78869 11.2915 3.7893 11.2927 3.79051H11.2933C11.2933 3.79051 11.2951 3.79293 11.2963 3.79414Z" fill="#843ACD"/>
<path d="M11.4409 3.93473C11.428 3.92189 11.4152 3.90906 11.4018 3.89678C11.3878 3.88282 11.3733 3.86942 11.3594 3.85547C11.3728 3.86831 11.3867 3.88115 11.4001 3.89454C11.4007 3.89454 11.4012 3.89566 11.4018 3.89622H11.4024C11.4152 3.90906 11.428 3.92189 11.4409 3.93473Z" fill="#843ACD"/>
<path d="M11.966 4.51037C11.9219 4.45678 11.8789 4.40654 11.8359 4.35742C11.8376 4.3591 11.8393 4.36077 11.8415 4.363C11.8432 4.36579 11.846 4.36859 11.8488 4.37138C11.856 4.37975 11.8633 4.38868 11.8705 4.39705C11.8772 4.40487 11.8845 4.41324 11.8918 4.42161C11.8979 4.42887 11.904 4.43613 11.9107 4.44338C11.9107 4.44338 11.9141 4.44785 11.9158 4.44952C11.937 4.4752 11.9582 4.50032 11.98 4.526C11.9844 4.53214 11.9895 4.53772 11.9939 4.54386C11.9973 4.54777 12.0001 4.55167 12.0034 4.55558C12.0034 4.55558 12.0038 4.55595 12.0045 4.5567C12.0174 4.57233 12.0296 4.58796 12.0425 4.60414C12.0168 4.57233 11.9911 4.54163 11.9649 4.51037H11.966Z" fill="#843ACD"/>
<path d="M12.6589 5.48501C12.6478 5.46611 12.6367 5.44664 12.625 5.42773C12.6311 5.43719 12.6367 5.44664 12.6422 5.4561C12.6478 5.46555 12.6534 5.475 12.6589 5.48501Z" fill="#843ACD"/>
<path d="M12.6635 5.49196C12.6635 5.49196 12.6647 5.49377 12.6647 5.49498C12.6617 5.49014 12.6593 5.48531 12.6562 5.48047C12.6581 5.4841 12.6605 5.48712 12.6629 5.49075C12.6629 5.49075 12.6635 5.49075 12.6635 5.49196Z" fill="#843ACD"/>
<path d="M12.7193 5.58722C12.7065 5.56545 12.6925 5.54312 12.6786 5.52191C12.6736 5.51298 12.6691 5.50405 12.6641 5.49512C12.6652 5.49623 12.6657 5.49735 12.6657 5.49791C12.6763 5.51465 12.6864 5.5314 12.6964 5.54815C12.6964 5.5487 12.6964 5.5487 12.6964 5.54926C12.6976 5.55094 12.6981 5.55205 12.6992 5.55373C12.7059 5.56489 12.7126 5.57606 12.7188 5.58722H12.7193Z" fill="#843ACD"/>
<path d="M12.894 5.90951C12.8745 5.87323 12.8549 5.83695 12.8354 5.80066C12.8226 5.7761 12.8097 5.75154 12.7969 5.72754C12.8025 5.73759 12.808 5.74708 12.8131 5.75712C12.8136 5.75824 12.8147 5.75991 12.8153 5.76103C12.8181 5.76605 12.8209 5.77108 12.8237 5.77666C12.8276 5.78447 12.832 5.79229 12.836 5.8001C12.8393 5.80624 12.8421 5.81183 12.846 5.81797C12.8533 5.83248 12.8611 5.84699 12.8689 5.86095C12.8706 5.86374 12.8717 5.86653 12.8734 5.86932C12.8801 5.88272 12.8868 5.89611 12.894 5.90951Z" fill="#843ACD"/>
<path d="M19.9686 10.5188L13.8426 12.343C13.8666 12.1197 13.8856 11.9015 13.8989 11.6871C13.9034 11.6157 13.9079 11.5448 13.9123 11.4739C13.9163 11.4036 13.9196 11.3333 13.9224 11.264C13.9246 11.1948 13.928 11.1256 13.9297 11.0569C13.9336 10.9202 13.9352 10.7851 13.9352 10.6517C13.9352 10.4351 13.9308 10.2236 13.9207 10.0176C13.9179 9.96567 13.9151 9.91376 13.9118 9.86184C13.9101 9.83617 13.9084 9.81049 13.9068 9.78481C13.9056 9.75914 13.9034 9.73346 13.9017 9.70834C13.8978 9.65866 13.8945 9.60898 13.8906 9.5593C13.8878 9.51911 13.8844 9.48004 13.88 9.44041C13.8588 9.20429 13.8303 8.97487 13.7951 8.75215C13.794 8.7421 13.7923 8.73205 13.7907 8.72201L13.784 8.68182C13.7828 8.66954 13.7806 8.6567 13.7789 8.64442C13.7756 8.61874 13.7711 8.59306 13.7666 8.56739C13.765 8.55455 13.7627 8.54171 13.7594 8.52887C13.7583 8.51547 13.756 8.50208 13.7532 8.48924C13.7516 8.47919 13.7493 8.46914 13.7471 8.45965C13.7471 8.45519 13.7454 8.45072 13.7443 8.44626C13.7426 8.43286 13.7404 8.42002 13.7376 8.40718C13.7365 8.40104 13.7359 8.3949 13.7348 8.38876C13.7332 8.38039 13.7315 8.37202 13.7298 8.3642C13.7259 8.34076 13.7214 8.31731 13.7158 8.29387C13.7097 8.26038 13.7024 8.22745 13.6958 8.19451C13.693 8.18279 13.6902 8.17051 13.6879 8.15879C13.6779 8.10911 13.6667 8.05999 13.6556 8.01087C13.6505 7.9863 13.6444 7.96119 13.6388 7.93663C13.6388 7.93383 13.6377 7.93048 13.6366 7.92769C13.6304 7.90034 13.6243 7.87243 13.6165 7.84564C13.6098 7.81996 13.6036 7.79373 13.5969 7.76805C13.5908 7.74237 13.5841 7.71669 13.5768 7.69102L13.5634 7.64078C13.5601 7.62962 13.5573 7.61845 13.5545 7.60729C13.5534 7.60171 13.5517 7.59612 13.5501 7.58998C13.5467 7.57826 13.5434 7.56654 13.54 7.55482C13.5344 7.53305 13.5283 7.51184 13.5221 7.49063C13.511 7.45211 13.4998 7.41359 13.4881 7.37564C13.4881 7.37285 13.487 7.37006 13.4859 7.36782C13.4819 7.35163 13.4769 7.33489 13.4713 7.3187C13.4702 7.31368 13.4685 7.3081 13.4658 7.30251C13.4646 7.29861 13.463 7.29414 13.4619 7.28968C13.4529 7.25897 13.4429 7.22827 13.4328 7.19813C13.43 7.19087 13.4278 7.18362 13.4256 7.17636C13.42 7.15682 13.4133 7.13673 13.4066 7.11719C13.4032 7.1077 13.3999 7.09766 13.3965 7.08817C13.3932 7.07868 13.3898 7.06863 13.3865 7.05914C13.3843 7.05188 13.3815 7.04463 13.3792 7.03737C13.363 6.98825 13.3457 6.93969 13.3279 6.89168C13.3189 6.86712 13.3095 6.84312 13.3005 6.81912C13.2949 6.80404 13.2899 6.78841 13.2827 6.77334C13.2821 6.77111 13.281 6.76944 13.2804 6.7672C13.2737 6.7499 13.267 6.73204 13.2603 6.71529C13.2559 6.70357 13.2514 6.69185 13.2464 6.68012C13.2425 6.67175 13.2397 6.66282 13.2363 6.65445C13.2307 6.63938 13.224 6.62486 13.2185 6.61035C13.1984 6.55732 13.1766 6.50485 13.1531 6.4535C13.1487 6.44289 13.1442 6.43284 13.1397 6.42224C13.1397 6.42168 13.1392 6.42112 13.1392 6.42056C13.1364 6.41219 13.1325 6.40438 13.1291 6.39656C13.123 6.37926 13.1152 6.36195 13.1068 6.34465C13.1068 6.34242 13.1057 6.34074 13.104 6.33851C13.104 6.33739 13.1029 6.33572 13.1023 6.3346C13.1018 6.33348 13.1018 6.33181 13.1012 6.33069C13.1001 6.32902 13.1001 6.3279 13.0984 6.32623C13.0979 6.32567 13.0979 6.32511 13.0979 6.32455C13.0979 6.32455 13.0977 6.324 13.0973 6.32288C13.0973 6.32288 13.0973 6.32232 13.0973 6.32176C13.0962 6.31897 13.0951 6.31618 13.094 6.31339C13.0895 6.30502 13.0867 6.29664 13.0828 6.28827C13.0789 6.2799 13.0744 6.27152 13.0711 6.26315C13.0532 6.22352 13.0354 6.18445 13.0158 6.14593C13.0147 6.14202 13.013 6.13812 13.0108 6.13421C13.0063 6.12472 13.0019 6.11523 12.9968 6.10574C12.9957 6.10295 12.9946 6.10016 12.9929 6.09793C12.9874 6.08565 12.9818 6.07337 12.9756 6.06164C12.9723 6.05439 12.9689 6.04769 12.965 6.04099C12.9611 6.03429 12.9583 6.02759 12.955 6.02089C12.9539 6.01922 12.9527 6.01699 12.9522 6.01531C12.9477 6.00694 12.9438 5.99801 12.9399 5.98964C12.9271 5.96396 12.9142 5.93828 12.9008 5.9126C12.8936 5.89921 12.8869 5.88637 12.8796 5.87297C12.8779 5.87018 12.8768 5.86739 12.8751 5.8646C12.8679 5.85009 12.8606 5.83557 12.8523 5.82162C12.8456 5.80766 12.8377 5.79371 12.8299 5.78031C12.8271 5.77473 12.8243 5.76971 12.8216 5.76468C12.821 5.76357 12.8199 5.76189 12.8193 5.76078C12.8171 5.75519 12.8143 5.75073 12.8115 5.7457C12.8093 5.74068 12.8065 5.73566 12.8037 5.73063C12.7775 5.68207 12.7507 5.63406 12.7227 5.58662C12.7177 5.57769 12.7121 5.56876 12.7066 5.55982C12.7054 5.55759 12.7043 5.55592 12.7027 5.55368C12.7015 5.55201 12.701 5.55089 12.6999 5.54922C12.6999 5.54866 12.6999 5.54866 12.6999 5.5481C12.6898 5.52912 12.6786 5.5107 12.6664 5.49228C12.6664 5.49172 12.6658 5.49172 12.6658 5.49117C12.6647 5.48949 12.6636 5.48782 12.663 5.48614C12.663 5.48447 12.6613 5.48279 12.6602 5.48112C12.658 5.47721 12.6558 5.47386 12.6535 5.46995C12.6491 5.46214 12.6446 5.45433 12.6396 5.44595C12.6351 5.4387 12.6306 5.43144 12.6256 5.42418C12.6089 5.3946 12.591 5.36613 12.572 5.33766C12.5581 5.31478 12.543 5.29245 12.529 5.26956C12.4972 5.21821 12.4643 5.16741 12.4291 5.11773C12.4174 5.10043 12.4057 5.08368 12.3945 5.06694C12.3884 5.05801 12.3828 5.04963 12.3766 5.04126C12.3766 5.04126 12.3763 5.04089 12.3755 5.04014C12.3733 5.03568 12.3705 5.0301 12.3666 5.02563C12.3644 5.02284 12.3621 5.01893 12.3593 5.01614C12.3593 5.01558 12.3588 5.01558 12.3588 5.01503C12.3521 5.00498 12.3448 4.99549 12.3381 4.98544C12.3264 4.96869 12.3147 4.95195 12.303 4.9352C12.2862 4.9112 12.2695 4.88776 12.2516 4.86487C12.2276 4.83082 12.2025 4.79733 12.1768 4.76439C12.174 4.7616 12.1718 4.75826 12.1695 4.75491C12.1556 4.73593 12.1411 4.71695 12.126 4.69797C12.1143 4.6829 12.102 4.66671 12.0891 4.65164C12.0891 4.65108 12.0886 4.65108 12.0886 4.65108C12.0763 4.63489 12.0635 4.61926 12.0512 4.60363C12.0411 4.59135 12.0317 4.57963 12.0222 4.56791C12.0188 4.564 12.0155 4.56009 12.0127 4.55675C12.0127 4.55675 12.0123 4.55637 12.0116 4.55563C12.0116 4.55563 12.0093 4.55228 12.0088 4.55116C12.0021 4.54279 11.9959 4.53498 11.9881 4.5266C11.9836 4.52046 11.9786 4.51432 11.9736 4.50818C11.9574 4.48865 11.9407 4.46911 11.9245 4.44957H11.9239C11.9239 4.44957 11.9211 4.44566 11.9183 4.44399C11.9139 4.43841 11.9094 4.43338 11.9055 4.42836C11.9033 4.42613 11.9016 4.4239 11.8999 4.42166C11.8949 4.41441 11.8882 4.40715 11.8815 4.39989C11.8731 4.3904 11.8653 4.38091 11.8569 4.37142H11.8564C11.8564 4.37142 11.8536 4.36808 11.8519 4.3664C11.8508 4.36528 11.8502 4.36473 11.8502 4.36417C11.848 4.36194 11.8458 4.35914 11.8435 4.35691C11.843 4.35635 11.8424 4.35524 11.8419 4.35468L11.8396 4.35189C11.8396 4.35189 11.8391 4.35133 11.8385 4.35077C11.8379 4.34965 11.8363 4.34854 11.8357 4.34742C11.8229 4.33179 11.8095 4.31505 11.795 4.29998C11.7849 4.28881 11.7749 4.27765 11.7643 4.26648C11.7537 4.25532 11.7442 4.24416 11.7341 4.23355C11.7073 4.20341 11.6794 4.17382 11.6526 4.1448C11.6353 4.12582 11.6169 4.10684 11.599 4.08842C11.5929 4.08228 11.5873 4.07614 11.5817 4.07056C11.5772 4.06553 11.5728 4.06051 11.5666 4.05549C11.5611 4.04935 11.5555 4.04321 11.5499 4.03762C11.5449 4.03204 11.5393 4.02702 11.5343 4.02144C11.5337 4.02088 11.5331 4.02032 11.5326 4.02032L11.508 3.99576C11.4879 3.97566 11.4678 3.95557 11.4477 3.93603H11.4472C11.4377 3.92598 11.4282 3.9165 11.4187 3.90756C11.4154 3.90421 11.412 3.90142 11.4087 3.89807C11.4081 3.89696 11.4075 3.8964 11.407 3.89584H11.4064C11.393 3.88244 11.3796 3.87016 11.3662 3.85677C11.3495 3.84058 11.3322 3.82495 11.3154 3.80876C11.3121 3.80486 11.3082 3.80095 11.3037 3.7976C11.3026 3.79592 11.3004 3.79425 11.2987 3.79202C11.2987 3.79202 11.2987 3.79146 11.2976 3.7909C11.297 3.78978 11.2959 3.78867 11.2953 3.78867V3.78811C11.2953 3.78811 11.295 3.78792 11.2942 3.78755C11.2942 3.78755 11.2937 3.78699 11.2931 3.78643H11.2925C11.2925 3.78643 11.2914 3.78476 11.2909 3.7842C11.2881 3.78085 11.2853 3.77862 11.2825 3.77583H11.2819C11.2775 3.77136 11.2747 3.76857 11.2702 3.76467C11.263 3.75853 11.2568 3.75183 11.249 3.74569C11.2384 3.73508 11.2272 3.72503 11.2161 3.71499C11.2127 3.71164 11.2088 3.70829 11.2049 3.70494C11.1965 3.69712 11.1882 3.68931 11.1787 3.68205C11.1675 3.672 11.1558 3.66196 11.1446 3.65191C11.1396 3.64744 11.1351 3.64354 11.1301 3.63963V3.63851C11.1228 3.63237 11.1167 3.62623 11.11 3.62065C11.0871 3.60056 11.0642 3.58046 11.0413 3.56092C11.0185 3.54139 10.9956 3.52185 10.9721 3.50231C10.9598 3.49171 10.947 3.4811 10.9342 3.4705C10.9236 3.46212 10.9129 3.45319 10.9023 3.44426C10.8147 3.37225 10.7259 3.30248 10.6361 3.2355C10.6015 3.2087 10.5657 3.18247 10.5306 3.15679C10.5105 3.14228 10.4909 3.12832 10.4714 3.11437C10.4362 3.08869 10.401 3.06413 10.3653 3.03957C10.2285 2.94467 10.0901 2.85481 9.95055 2.76996C9.89193 2.73312 9.8322 2.69739 9.77303 2.66334C9.74233 2.64548 9.71218 2.62818 9.68259 2.61143C9.64352 2.5891 9.60333 2.56733 9.56481 2.54556C9.56313 2.54556 9.56313 2.54333 9.56034 2.54333C9.40515 2.45793 9.2494 2.37978 9.09533 2.3061C9.02332 2.27093 8.95131 2.23744 8.87929 2.20674C8.73639 2.14031 8.59236 2.08003 8.45057 2.02533C8.378 1.9963 8.30822 1.96895 8.23788 1.94327C8.16754 1.91592 8.09776 1.8908 8.02743 1.86736C7.64559 1.73283 7.27548 1.62789 6.92826 1.54583C6.91542 1.54304 6.90258 1.53969 6.88974 1.5369C6.87634 1.53411 6.8635 1.53132 6.85066 1.52797C6.83503 1.52351 6.8194 1.52016 6.80433 1.51681C6.79428 1.51458 6.78479 1.51234 6.77642 1.51067C6.64802 1.48164 6.52521 1.45652 6.40352 1.43308C6.36891 1.42526 6.33374 1.41912 6.29913 1.41354C6.26787 1.4074 6.23716 1.40126 6.20758 1.39624C6.18246 1.39177 6.15734 1.38731 6.13333 1.38396C5.91506 1.34712 5.71633 1.31809 5.54048 1.29855C5.51815 1.29576 5.49638 1.29297 5.47573 1.29074C5.45452 1.28851 5.43386 1.28627 5.41265 1.2846C5.38753 1.28069 5.36185 1.27902 5.33673 1.27678C5.29598 1.2712 5.2569 1.26897 5.22006 1.26506C5.09334 1.2539 4.98337 1.24776 4.89963 1.24385C4.86502 1.24218 4.83432 1.23994 4.80864 1.23827C4.73048 1.23604 4.6875 1.23604 4.6875 1.23604L4.87004 1.20478L6.75186 0.879348H6.75297L9.50508 0.40544H9.50842C9.62956 0.403765 9.74902 0.403765 9.86681 0.406556C9.99297 0.408231 10.1175 0.413254 10.2408 0.420511H10.247C10.3709 0.427768 10.4932 0.437257 10.6137 0.448421C10.6746 0.454003 10.7354 0.460701 10.7952 0.4674C10.8404 0.472423 10.885 0.478005 10.9297 0.483587C11.019 0.494751 11.1072 0.50759 11.1949 0.521545C11.2384 0.528801 11.2819 0.536058 11.3255 0.543314C11.4991 0.572899 11.6688 0.607507 11.8357 0.647139C11.8899 0.659419 11.9434 0.672816 11.997 0.686213C12.0009 0.687329 12.0049 0.687887 12.0093 0.689003C12.0618 0.702958 12.1137 0.716913 12.1656 0.730868C12.2745 0.760453 12.3811 0.79227 12.4866 0.825762C12.5391 0.843066 12.5916 0.859812 12.644 0.877674C12.696 0.895536 12.7479 0.913398 12.7992 0.931819C12.8377 0.945774 12.8763 0.959729 12.9142 0.974242C13.0287 1.01722 13.1414 1.06244 13.2525 1.10988C13.3022 1.13109 13.3508 1.15286 13.3999 1.17463C13.4468 1.19585 13.4937 1.21706 13.54 1.23883C13.5417 1.23994 13.5434 1.2405 13.5445 1.24106C13.6377 1.28516 13.7298 1.33037 13.8208 1.37726C13.8699 1.40294 13.919 1.42861 13.9676 1.45485C14.0022 1.47383 14.0363 1.49225 14.0703 1.51123C14.139 1.54918 14.2065 1.58826 14.273 1.62789C14.3065 1.64798 14.34 1.66808 14.3729 1.68817C14.417 1.71497 14.4605 1.74232 14.5041 1.76967C14.5426 1.79423 14.5811 1.81935 14.6191 1.84391C14.6241 1.84726 14.6286 1.85061 14.633 1.8534C14.676 1.88187 14.7184 1.91034 14.7603 1.93936C14.7977 1.96448 14.8346 1.99016 14.8714 2.01639C14.9205 2.05044 14.9685 2.08561 15.0165 2.12078C15.0947 2.17827 15.1712 2.23688 15.2471 2.29605C15.2878 2.32787 15.3286 2.36024 15.3688 2.39318C15.4079 2.42499 15.4464 2.45681 15.4849 2.48863C15.5307 2.52714 15.5759 2.56566 15.6211 2.60473C15.6513 2.63153 15.682 2.65776 15.7115 2.68456C15.7489 2.71749 15.7858 2.75098 15.8221 2.78447C15.8952 2.85146 15.9672 2.91956 16.0381 2.98821C16.0738 3.02282 16.109 3.05743 16.1436 3.09204C16.1782 3.12721 16.2128 3.16181 16.2469 3.19698C16.2793 3.22991 16.3111 3.26341 16.3429 3.29634C16.3446 3.29857 16.3468 3.3008 16.349 3.30304C16.3825 3.33876 16.416 3.37449 16.449 3.41021C16.4819 3.44649 16.5148 3.48222 16.5472 3.5185C16.5751 3.5492 16.6025 3.58046 16.6298 3.61116C16.6678 3.65414 16.7052 3.69768 16.7426 3.74122C16.7733 3.77695 16.8029 3.81267 16.8325 3.84839C16.8632 3.88524 16.8939 3.92263 16.924 3.96003C16.9542 3.99688 16.9843 4.03427 17.0139 4.07223C17.0435 4.10963 17.0731 4.14703 17.1027 4.18499C17.1317 4.22294 17.1607 4.26034 17.1892 4.2983C17.2752 4.41217 17.3583 4.52716 17.4398 4.64215C17.4666 4.68067 17.4934 4.71918 17.5202 4.7577C17.5465 4.79621 17.5727 4.83473 17.5989 4.87324C17.6246 4.91232 17.6503 4.95083 17.676 4.98935C17.7017 5.02842 17.7268 5.06694 17.7519 5.10601C17.777 5.14453 17.8016 5.1836 17.8261 5.22212C17.8747 5.29971 17.9227 5.37785 17.9696 5.45544C17.9931 5.49452 18.0165 5.53303 18.0394 5.5721C18.0852 5.64969 18.1304 5.72728 18.1745 5.80487C18.1767 5.80934 18.1795 5.8138 18.1823 5.81827C18.2454 5.93047 18.3068 6.04211 18.366 6.15319C18.3866 6.1917 18.4067 6.23022 18.4268 6.26873C18.4475 6.30892 18.4681 6.34856 18.4888 6.38819C18.5273 6.46354 18.5647 6.53834 18.6015 6.61258C18.6389 6.6885 18.6752 6.76441 18.7109 6.83921C18.7467 6.91457 18.7813 6.98937 18.8153 7.06361C18.8187 7.07086 18.822 7.07868 18.8259 7.08649C18.8527 7.1451 18.879 7.20315 18.9041 7.26121L18.9141 7.28465C18.9303 7.32093 18.946 7.35722 18.9616 7.3935C18.9772 7.42978 18.9929 7.46606 19.0079 7.50179C19.0386 7.5738 19.0677 7.64469 19.0967 7.71558C19.1252 7.78591 19.1531 7.85569 19.1804 7.92434C19.1821 7.92881 19.1838 7.93328 19.186 7.93774C19.1977 7.96788 19.2089 7.99747 19.2206 8.02705C19.2335 8.0611 19.2468 8.09515 19.2591 8.12864C19.272 8.16269 19.2848 8.19563 19.2971 8.22912C19.3217 8.29554 19.3457 8.36085 19.3691 8.42505C19.3803 8.45742 19.392 8.48924 19.4032 8.52106C19.4082 8.53613 19.4138 8.55064 19.4188 8.56515C19.445 8.63884 19.4696 8.7114 19.493 8.78229C19.536 8.909 19.5751 9.03069 19.6114 9.14679C19.6198 9.17415 19.6287 9.2015 19.6371 9.22885C19.6398 9.2389 19.6432 9.2495 19.6465 9.25955C19.6471 9.26178 19.6477 9.26402 19.6488 9.26625C19.6493 9.26848 19.6499 9.27071 19.651 9.27295C19.6577 9.29527 19.6644 9.31704 19.6705 9.33826C19.6901 9.40301 19.7085 9.46552 19.7258 9.52637C19.7314 9.54646 19.737 9.566 19.7426 9.58554C19.7481 9.60507 19.7532 9.62461 19.7588 9.64359C19.7749 9.70108 19.79 9.75579 19.804 9.80826C19.8151 9.85124 19.8263 9.89199 19.8363 9.93162C19.8425 9.95674 19.8492 9.9813 19.8553 10.0047C19.8771 10.0918 19.8955 10.1689 19.9111 10.2353C19.9145 10.2487 19.9173 10.261 19.9201 10.2732C19.9508 10.4061 19.9675 10.4898 19.9726 10.516C19.9726 10.516 19.9726 10.5172 19.9726 10.5188H19.9686Z" fill="#9538E1"/>
<path d="M4.66127 13.2301C7.23562 13.2301 9.32254 11.1433 9.32254 8.56914C9.32254 5.99498 7.23562 3.9082 4.66127 3.9082C2.08692 3.9082 0 5.99498 0 8.56914C0 11.1433 2.08692 13.2301 4.66127 13.2301Z" fill="#9538E1"/>
<path d="M20.1806 14.2916H9.30279C10.9663 12.9408 12.0287 10.8794 12.0287 8.57011C12.0287 5.24717 9.82865 2.43776 6.80469 1.51953C6.81753 1.52232 6.82981 1.52511 6.84321 1.5279C6.85605 1.53125 6.86888 1.53404 6.88228 1.53684C6.89512 1.53963 6.90796 1.54298 6.9208 1.54577C7.26802 1.62782 7.63813 1.73276 8.01997 1.86729C8.0903 1.89073 8.16008 1.91585 8.23042 1.9432C8.30076 1.96888 8.37054 1.99623 8.44311 2.02526C8.5849 2.07996 8.72893 2.14025 8.87183 2.20667C8.94385 2.23737 9.01586 2.27086 9.08787 2.30603C9.24195 2.37971 9.39769 2.45786 9.55288 2.54326C9.55567 2.54326 9.55567 2.5455 9.55735 2.5455C9.59587 2.56727 9.63606 2.58904 9.67514 2.61136C9.70472 2.62811 9.73487 2.64541 9.76557 2.66328C9.82474 2.69733 9.88447 2.73305 9.94309 2.76989C10.0826 2.85474 10.2211 2.94461 10.3579 3.0395C10.3936 3.06406 10.4288 3.08918 10.4639 3.1143C10.4835 3.12825 10.503 3.14221 10.5231 3.15672C10.5583 3.1824 10.594 3.20863 10.6286 3.23543C10.7185 3.30241 10.8072 3.37218 10.8949 3.44419C10.9055 3.45312 10.9161 3.46205 10.9267 3.47043C10.9395 3.48103 10.9524 3.49164 10.9647 3.50224C10.9881 3.52178 11.011 3.54132 11.0339 3.56085C10.9881 3.52178 10.9412 3.48327 10.8943 3.44475C10.9714 3.50838 11.0478 3.57314 11.1232 3.63956C11.1394 3.65407 11.1556 3.66803 11.1718 3.68254C11.1606 3.67249 11.1494 3.66189 11.1377 3.65184C11.1489 3.66189 11.1606 3.67194 11.1718 3.68198C11.1813 3.68924 11.1896 3.69705 11.198 3.70487C11.2019 3.70822 11.2058 3.71157 11.2092 3.71492C11.2203 3.72496 11.2315 3.73501 11.2421 3.74562C11.2499 3.75176 11.2561 3.75846 11.2633 3.7646C11.2678 3.7685 11.2706 3.7713 11.275 3.77576H11.2756C11.2784 3.77855 11.2812 3.78078 11.284 3.78413C11.284 3.78469 11.2851 3.78525 11.2856 3.78637H11.2862C11.2862 3.78637 11.2862 3.78692 11.2873 3.78748C11.2873 3.78804 11.2884 3.7886 11.289 3.78916C11.2879 3.78804 11.2868 3.78748 11.2856 3.78692C11.2879 3.78916 11.2901 3.79139 11.2923 3.79251C11.2912 3.79139 11.2907 3.79083 11.2896 3.78972C11.2896 3.79027 11.2907 3.79027 11.2912 3.79083C11.2918 3.79139 11.2918 3.79139 11.2923 3.79195C11.2923 3.79195 11.2963 3.79586 11.2974 3.79753C11.3018 3.80088 11.3057 3.80479 11.3091 3.80869C11.3258 3.82488 11.3431 3.84051 11.3599 3.8567C11.3733 3.8701 11.3867 3.88238 11.4001 3.89577C11.3867 3.88293 11.3727 3.8701 11.3593 3.85726C11.3733 3.87121 11.3878 3.88461 11.4018 3.89856C11.4152 3.91084 11.428 3.92368 11.4408 3.93652C11.428 3.92368 11.4152 3.91084 11.4023 3.89801C11.4057 3.90135 11.409 3.90415 11.4124 3.9075C11.4219 3.91643 11.4313 3.92592 11.4408 3.93596H11.4414C11.4615 3.9555 11.4816 3.97559 11.5017 3.99569L11.5262 4.02025C11.5318 4.02583 11.5374 4.03141 11.5436 4.03755C11.5491 4.04314 11.5547 4.04928 11.5603 4.05542L11.5754 4.07049C11.581 4.07607 11.5865 4.08221 11.5927 4.08835C11.6105 4.10677 11.629 4.12575 11.6463 4.14473C11.6731 4.17375 11.701 4.20334 11.7278 4.23348C11.7378 4.24409 11.7473 4.25525 11.7579 4.26642C11.7775 4.28874 11.7975 4.31163 11.8176 4.33396C11.8216 4.33842 11.8255 4.34289 11.8294 4.34735C11.8299 4.34847 11.8316 4.34959 11.8322 4.3507C11.8322 4.35126 11.8333 4.35126 11.8333 4.35182L11.8355 4.35461C11.8355 4.35461 11.8366 4.35628 11.8372 4.35684C11.8389 4.35908 11.8405 4.36075 11.8422 4.36298C11.84 4.36075 11.8383 4.35908 11.8366 4.3574C11.8796 4.40652 11.9226 4.45676 11.9667 4.50979C11.9929 4.54161 12.0186 4.57231 12.0443 4.60412C12.0314 4.58794 12.0192 4.57231 12.0063 4.55668C12.0091 4.56003 12.0125 4.56393 12.0158 4.56784C12.0253 4.57956 12.0348 4.59128 12.0448 4.60357C12.0571 4.61919 12.0694 4.63427 12.0811 4.6499C12.0817 4.6499 12.0817 4.6499 12.0822 4.65101C12.0822 4.65101 12.0828 4.65101 12.0828 4.65157C12.0956 4.66776 12.1079 4.68395 12.1202 4.70069C12.1325 4.71576 12.1442 4.73028 12.1554 4.74535C12.1582 4.74814 12.161 4.75149 12.1632 4.75484C12.1654 4.75819 12.1677 4.76154 12.1705 4.76433C12.1961 4.79726 12.2213 4.83075 12.2453 4.8648C12.2631 4.88769 12.2799 4.91113 12.2966 4.93513C12.3083 4.95188 12.3201 4.96863 12.3318 4.98537C12.3385 4.99542 12.3457 5.00491 12.3524 5.01496C12.3524 5.01551 12.353 5.01551 12.353 5.01607C12.3552 5.01998 12.3586 5.02389 12.3608 5.02779C12.3642 5.03226 12.3664 5.03617 12.3692 5.04007C12.3692 5.04007 12.3696 5.04045 12.3703 5.04119C12.3764 5.04956 12.382 5.05794 12.3882 5.06687C12.3993 5.08361 12.4111 5.10036 12.4228 5.11766C12.4529 5.16232 12.4819 5.20753 12.5115 5.25331C12.5154 5.25833 12.5193 5.26391 12.5227 5.26949C12.5367 5.29238 12.5517 5.31471 12.5657 5.33759C12.5847 5.36606 12.6025 5.39453 12.6193 5.42356C12.631 5.44309 12.6422 5.46263 12.6533 5.48161C12.6561 5.48607 12.6583 5.49054 12.6611 5.49501C12.6662 5.50394 12.6706 5.51287 12.6757 5.5218C12.6896 5.54301 12.7036 5.56534 12.7164 5.58711C12.7103 5.57594 12.7036 5.56478 12.6969 5.55362C12.6985 5.55585 12.6997 5.55752 12.7008 5.55976C12.7064 5.56869 12.7119 5.57762 12.717 5.58655C12.7449 5.634 12.7717 5.682 12.7979 5.73056C12.8007 5.73559 12.8035 5.74061 12.8057 5.74564C12.8085 5.75066 12.8113 5.75512 12.8135 5.76071C12.8085 5.75066 12.8029 5.74117 12.7973 5.73112C12.8102 5.75512 12.823 5.77969 12.8359 5.80425C12.8554 5.84053 12.8749 5.87681 12.8945 5.91309C12.8872 5.8997 12.8805 5.8863 12.8738 5.8729C12.8811 5.8863 12.8878 5.89914 12.895 5.91254C12.9084 5.93821 12.9213 5.96389 12.9341 5.98957C12.938 5.99794 12.9419 6.00687 12.9464 6.01524C12.947 6.01692 12.9481 6.01915 12.9492 6.02083C12.9525 6.02752 12.9553 6.03422 12.9592 6.04092C12.9609 6.04483 12.9626 6.04929 12.9648 6.0532C12.9726 6.06771 12.9799 6.08279 12.9871 6.09786C12.9888 6.10009 12.9899 6.10288 12.9911 6.10567C12.9961 6.11516 13.0005 6.12465 13.005 6.13414C13.0072 6.13805 13.0089 6.14195 13.01 6.14586C13.0246 6.17656 13.0385 6.20726 13.0519 6.23796C13.0541 6.24243 13.0564 6.24634 13.0586 6.25024C13.0597 6.25192 13.0603 6.25359 13.0608 6.25471C13.0625 6.2575 13.0642 6.26029 13.0653 6.26308C13.0687 6.27146 13.0731 6.27983 13.077 6.2882C13.0809 6.29657 13.0837 6.30495 13.0882 6.31332C13.0893 6.31611 13.0904 6.3189 13.0915 6.32169C13.0915 6.32225 13.0915 6.32225 13.0915 6.32281C13.0915 6.32337 13.0915 6.32337 13.0921 6.32448C13.0921 6.32448 13.0921 6.3256 13.0927 6.32616C13.0938 6.32839 13.0949 6.33062 13.0954 6.33286C13.0954 6.33342 13.0954 6.33397 13.0966 6.33453C13.0966 6.33565 13.0977 6.33732 13.0982 6.33844C13.0999 6.34067 13.101 6.34235 13.101 6.34458C13.1049 6.35295 13.1083 6.36188 13.1116 6.37026C13.1189 6.387 13.1256 6.40375 13.1334 6.42049C13.1334 6.42105 13.134 6.42161 13.134 6.42217C13.1384 6.43278 13.1429 6.44282 13.1474 6.45343C13.163 6.49083 13.1792 6.52823 13.1943 6.56618C13.2004 6.5807 13.206 6.59521 13.2127 6.61028C13.2183 6.62479 13.225 6.63931 13.2305 6.65438C13.2339 6.66275 13.2367 6.67168 13.2406 6.68006C13.2439 6.68899 13.2467 6.69736 13.2501 6.70573C13.2512 6.70908 13.2529 6.71187 13.2545 6.71522C13.2612 6.73197 13.2679 6.74983 13.2746 6.76713C13.2746 6.76937 13.2763 6.77104 13.2769 6.77327C13.2813 6.78611 13.2864 6.79839 13.2914 6.81123C13.2925 6.81402 13.2931 6.81626 13.2942 6.81905C13.2981 6.82965 13.302 6.8397 13.3053 6.85031C13.3154 6.87654 13.3249 6.90278 13.3349 6.92901C13.3383 6.93794 13.3411 6.94632 13.3444 6.95525C13.3478 6.96418 13.3511 6.97367 13.3539 6.9826C13.3606 7.00102 13.3673 7.01888 13.3734 7.0373C13.3757 7.04456 13.3785 7.05181 13.3807 7.05907C13.3874 7.07917 13.3941 7.09982 13.4002 7.12103C13.4069 7.13889 13.4131 7.15731 13.4198 7.17629C13.422 7.18355 13.4242 7.1908 13.427 7.19806C13.4337 7.21927 13.4404 7.24049 13.4466 7.2617C13.4483 7.26672 13.4499 7.27174 13.4516 7.27677C13.4533 7.28067 13.4544 7.28514 13.4561 7.28961C13.4572 7.29407 13.4589 7.29854 13.46 7.30244C13.4628 7.30803 13.4644 7.31361 13.4656 7.31863C13.47 7.33482 13.4756 7.35157 13.4801 7.36775C13.4812 7.36999 13.4823 7.37278 13.4823 7.37557C13.4829 7.37836 13.4834 7.38115 13.484 7.38394C13.4862 7.39231 13.4879 7.40069 13.4901 7.40906C13.5002 7.4392 13.5091 7.4699 13.518 7.5006C13.527 7.53186 13.5359 7.56312 13.5448 7.59438C13.5459 7.59885 13.5471 7.60275 13.5487 7.60722C13.5515 7.61838 13.5543 7.62955 13.5577 7.64071L13.5711 7.69095C13.5794 7.72332 13.5878 7.75626 13.5956 7.78919C13.6012 7.80761 13.6062 7.82659 13.6107 7.84557C13.618 7.87292 13.6247 7.90027 13.6308 7.92762C13.6319 7.93042 13.6325 7.93376 13.633 7.93656C13.6386 7.96112 13.6448 7.98624 13.6498 8.0108C13.6526 8.02419 13.6554 8.03759 13.6581 8.05154C13.6615 8.06606 13.6643 8.08057 13.6676 8.09508C13.6715 8.11127 13.6755 8.12802 13.6788 8.14476C13.6788 8.14644 13.6788 8.14867 13.6799 8.15035C13.6805 8.15314 13.681 8.15593 13.6822 8.15872C13.6844 8.17044 13.6872 8.18272 13.69 8.19444C13.6967 8.22738 13.7039 8.26031 13.7101 8.2938C13.7156 8.31725 13.7201 8.34069 13.724 8.36413C13.7257 8.37195 13.7274 8.38032 13.729 8.38869C13.7302 8.39483 13.7307 8.40097 13.7318 8.40711C13.7346 8.41995 13.7369 8.43279 13.7385 8.44619C13.7397 8.45065 13.7408 8.45512 13.7413 8.45959C13.7436 8.46907 13.7458 8.47912 13.7475 8.48917C13.7503 8.50201 13.7525 8.51541 13.7536 8.5288C13.757 8.54164 13.7592 8.55448 13.7609 8.56732C13.7653 8.59244 13.7692 8.61867 13.7731 8.64435C13.7748 8.65663 13.7771 8.66947 13.7782 8.68175L13.7849 8.72194C13.7865 8.73199 13.7882 8.74203 13.7893 8.75208C13.8044 8.85032 13.8184 8.95024 13.8312 9.05183C13.8396 9.11547 13.8468 9.1791 13.8541 9.24385C13.8608 9.30916 13.868 9.37447 13.8742 9.44034C13.877 9.47997 13.8814 9.5196 13.8848 9.55923C13.8887 9.60891 13.8921 9.65859 13.896 9.70827C13.8976 9.73339 13.8999 9.75907 13.901 9.78474C13.9027 9.81042 13.9043 9.8361 13.906 9.86177C13.9094 9.91369 13.9121 9.9656 13.9149 10.0175C13.925 10.2235 13.9295 10.435 13.9295 10.6516C13.9295 10.785 13.9278 10.9201 13.9239 11.0569C13.9222 11.1255 13.9188 11.1947 13.9166 11.264C13.9138 11.3332 13.9105 11.4035 13.9066 11.4738C13.9021 11.5447 13.8976 11.6156 13.8932 11.6871C13.8798 11.9014 13.8608 12.1197 13.8368 12.343L19.9629 10.5188C19.9768 10.5858 20.2894 12.0879 20.1783 14.2916H20.1806Z" fill="#8038C5"/>
<path d="M11.1268 3.63803V3.63915C11.052 3.57272 10.9755 3.50797 10.8984 3.44434C10.9453 3.48285 10.9922 3.52137 11.038 3.561C11.0486 3.56993 11.0592 3.57942 11.0698 3.58891C11.0888 3.6051 11.1072 3.62128 11.1262 3.63803H11.1268Z" fill="#7C3DC3"/>
<path d="M11.1395 3.65091C11.1511 3.66092 11.1623 3.67148 11.1734 3.68149C11.1573 3.66703 11.1411 3.65313 11.125 3.63867C11.13 3.64256 11.1345 3.64646 11.1395 3.65091Z" fill="#7C3DC3"/>
<path d="M11.2933 3.79111C11.2933 3.79111 11.2951 3.79293 11.2963 3.79414C11.2939 3.79293 11.2915 3.79051 11.2891 3.78809C11.2903 3.78869 11.2915 3.7893 11.2927 3.79051H11.2933V3.79111Z" fill="#7C3DC3"/>
<path d="M11.4024 3.89622C11.4152 3.90906 11.428 3.92189 11.4409 3.93473C11.428 3.92189 11.4152 3.90906 11.4018 3.89678C11.3878 3.88282 11.3733 3.86942 11.3594 3.85547C11.3728 3.86831 11.3867 3.88115 11.4001 3.89454C11.4007 3.89454 11.4012 3.89566 11.4018 3.89622H11.4024Z" fill="#7C3DC3"/>
<path d="M11.966 4.50981C11.9219 4.45678 11.8789 4.40654 11.8359 4.35742C11.8376 4.3591 11.8393 4.36077 11.8415 4.363C11.8415 4.363 11.8421 4.36356 11.8426 4.36412C11.8426 4.36468 11.8432 4.36524 11.8443 4.36635C11.846 4.36803 11.8471 4.3697 11.8488 4.37138C11.856 4.37975 11.8633 4.38868 11.8705 4.39705C11.8772 4.40487 11.8845 4.41324 11.8918 4.42161C11.8918 4.42161 11.8951 4.42608 11.8973 4.42831C11.9013 4.43334 11.9057 4.43836 11.9102 4.44338C11.9102 4.44338 11.9135 4.44785 11.9152 4.44952C11.9314 4.46962 11.9476 4.48971 11.9643 4.50981H11.966Z" fill="#7C3DC3"/>
<path d="M12.0084 4.55317C12.0212 4.5688 12.0335 4.58443 12.0463 4.60061C12.0207 4.5688 11.995 4.53809 11.9688 4.50684C11.9788 4.518 11.9883 4.52916 11.9978 4.54033C12.0011 4.54424 12.0039 4.54758 12.0073 4.55149C12.0073 4.55149 12.0073 4.55261 12.0084 4.55317Z" fill="#7C3DC3"/>
<path d="M12.6656 5.49558C12.6656 5.49558 12.6667 5.49725 12.6667 5.49836C12.6639 5.49391 12.6617 5.48946 12.6589 5.48501C12.6478 5.46611 12.6367 5.44664 12.625 5.42773C12.63 5.43496 12.6345 5.44219 12.6389 5.44942C12.6439 5.45776 12.6484 5.46555 12.6528 5.47333C12.655 5.47723 12.6573 5.48056 12.6595 5.48446C12.6606 5.48612 12.6617 5.48779 12.6623 5.48946C12.6623 5.49113 12.6639 5.4928 12.665 5.49447C12.665 5.49447 12.6656 5.49447 12.6656 5.49558Z" fill="#7C3DC3"/>
<path d="M12.6998 5.55373C12.7065 5.56489 12.7132 5.57606 12.7193 5.58722C12.7065 5.56545 12.6925 5.54312 12.6786 5.52191C12.6736 5.51298 12.6691 5.50405 12.6641 5.49512C12.6652 5.49623 12.6657 5.49735 12.6657 5.49791C12.6708 5.50572 12.6752 5.51354 12.6791 5.52135C12.6853 5.52973 12.6909 5.53921 12.6964 5.54815C12.6964 5.5487 12.6964 5.5487 12.6964 5.54926C12.6976 5.55094 12.6981 5.55205 12.6992 5.55373H12.6998Z" fill="#7C3DC3"/>
<path d="M12.894 5.90951C12.8745 5.87323 12.8549 5.83695 12.8354 5.80066C12.8226 5.7761 12.8097 5.75154 12.7969 5.72754C12.8025 5.73759 12.808 5.74708 12.8131 5.75712C12.8136 5.75824 12.8147 5.75991 12.8153 5.76103C12.8181 5.76605 12.8209 5.77108 12.8237 5.77666C12.8276 5.78447 12.832 5.79229 12.836 5.8001C12.8393 5.80624 12.8421 5.81183 12.846 5.81797C12.8533 5.83248 12.8611 5.84699 12.8689 5.86095C12.8706 5.86374 12.8717 5.86653 12.8734 5.86932C12.8801 5.88272 12.8868 5.89611 12.894 5.90951Z" fill="#7C3DC3"/>
<path d="M18.114 3.2769C17.994 3.13791 17.87 3.00115 17.7422 2.86719C17.87 3.00115 17.9945 3.13791 18.114 3.2769Z" fill="url(#paint0_linear_2260_18569)"/>
<path d="M19.7193 9.52405C19.7015 9.46376 19.683 9.40069 19.6641 9.33594C19.6836 9.40069 19.702 9.46321 19.7193 9.52405Z" fill="url(#paint1_linear_2260_18569)"/>
<path d="M19.7952 9.80822C19.7807 9.75575 19.7656 9.70105 19.75 9.64355C19.7662 9.70105 19.7813 9.75575 19.7952 9.80822Z" fill="url(#paint2_linear_2260_18569)"/>
<path d="M18.114 3.2769C17.994 3.13791 17.87 3.00115 17.7422 2.86719C17.87 3.00115 17.9945 3.13791 18.114 3.2769Z" fill="#9538E1"/>
<path d="M23.0022 9.61437L21.9427 9.93031L21.6379 10.0207L21.385 10.0961V10.0933C21.3828 10.0816 21.3788 10.0637 21.3738 10.0386C21.3738 10.0358 21.3727 10.033 21.3722 10.0302C21.3588 9.9666 21.3364 9.86333 21.3035 9.72769C21.2962 9.69755 21.2884 9.66517 21.28 9.63168C21.2728 9.60377 21.2655 9.57418 21.2577 9.54404C21.2237 9.41175 21.1824 9.2588 21.1332 9.08799C21.1198 9.04222 21.1059 8.99478 21.0914 8.94677C21.0768 8.89709 21.0612 8.84574 21.045 8.79327C21.0333 8.75475 21.021 8.71568 21.0082 8.67549C21.002 8.65539 20.9959 8.63586 20.9892 8.6152C20.9663 8.54431 20.9423 8.47175 20.9177 8.39695C20.9094 8.37239 20.901 8.34671 20.8921 8.32159C20.8703 8.25628 20.8474 8.18986 20.8234 8.12231C20.8028 8.06259 20.781 8.00175 20.7581 7.93979C20.7246 7.84712 20.6894 7.75279 20.652 7.65622C20.5538 7.39945 20.4438 7.1304 20.3216 6.85298C20.2987 6.80106 20.2752 6.74859 20.2512 6.69612C20.2278 6.64309 20.2032 6.59062 20.1786 6.5376C20.1541 6.48457 20.129 6.43098 20.1033 6.37739C20.091 6.35116 20.0782 6.32436 20.0648 6.29813C20.0363 6.2384 20.0067 6.17812 19.976 6.11783C19.9029 5.96991 19.8258 5.82087 19.7449 5.67183C19.7281 5.64057 19.7108 5.60876 19.6935 5.57694C19.6299 5.46195 19.5651 5.3464 19.4976 5.23086C19.2827 4.86245 19.046 4.49348 18.7853 4.13065C18.7529 4.08544 18.72 4.04023 18.6865 3.99501C18.6535 3.9498 18.62 3.90514 18.5854 3.85993C18.5519 3.81527 18.5173 3.77062 18.4822 3.72596C18.4476 3.6813 18.4124 3.63665 18.3767 3.59255C18.2912 3.48594 18.2036 3.381 18.1137 3.27661C17.9943 3.13762 17.8698 3.00086 17.7419 2.8669C17.6085 2.72735 17.4712 2.59003 17.3283 2.45718C17.3043 2.43374 17.2803 2.41141 17.2557 2.38908C17.2233 2.3595 17.191 2.32935 17.1575 2.30033C17.1217 2.26739 17.0855 2.23558 17.0486 2.20432C17.0123 2.17194 16.9755 2.14068 16.9386 2.10942C16.8644 2.04691 16.789 1.98495 16.7126 1.92466C16.6366 1.86382 16.559 1.80409 16.4798 1.74548C16.4016 1.68687 16.3212 1.62938 16.2403 1.573C16.161 1.51774 16.0806 1.46359 15.9991 1.41112C15.9176 1.35809 15.835 1.30674 15.7513 1.25594C15.7094 1.23082 15.667 1.2057 15.6246 1.18114C15.5397 1.13202 15.4532 1.08402 15.3661 1.03713C15.2784 0.99024 15.1902 0.945026 15.1004 0.900929C15.0105 0.856831 14.9195 0.81385 14.8274 0.773102C14.7816 0.752449 14.7353 0.731795 14.6884 0.712259C14.5952 0.672068 14.5003 0.633553 14.4048 0.596712C14.3568 0.578291 14.3082 0.560429 14.2602 0.542567C14.1631 0.507401 14.0648 0.47335 13.9649 0.441533C13.9152 0.425346 13.865 0.409716 13.8148 0.394645C13.7645 0.379015 13.7137 0.364502 13.6624 0.349989C13.6244 0.338825 13.5853 0.328219 13.5468 0.318172C13.5239 0.312032 13.5005 0.305892 13.4776 0.299751C13.3224 0.259561 13.165 0.223279 13.0042 0.190903C12.9607 0.18253 12.9171 0.173599 12.873 0.165784C12.7161 0.136758 12.5565 0.111639 12.394 0.0904278C12.3829 0.0887532 12.3712 0.0870786 12.3594 0.0859622C12.3086 0.0792639 12.2573 0.0731237 12.2059 0.0675418C12.2026 0.0669836 12.1987 0.0669836 12.1953 0.0664254C12.5526 0.0234443 12.9121 0 13.2716 0C13.4084 0 13.5457 0.00334918 13.683 0.0106057C22.0705 0.446557 23.0028 9.61437 23.0028 9.61437H23.0022Z" fill="#9538E1"/>
<path d="M21.3798 10.0965L20.5363 10.3482L19.9641 10.5185V10.5163C19.9591 10.4895 19.9424 10.4057 19.9117 10.2729C19.9089 10.2606 19.9061 10.2483 19.9027 10.2349C19.8871 10.1685 19.8687 10.0915 19.8469 10.0044C19.8408 9.98095 19.8341 9.95639 19.8279 9.93127C19.8179 9.89164 19.8067 9.85089 19.7955 9.80791C19.7816 9.75544 19.7665 9.70073 19.7503 9.64324C19.7447 9.62426 19.7397 9.60472 19.7341 9.58519C19.7286 9.56565 19.723 9.54611 19.7174 9.52602C19.7001 9.46517 19.6817 9.40266 19.6621 9.33791C19.656 9.31669 19.6493 9.29492 19.6426 9.2726C19.6415 9.27036 19.6409 9.26813 19.6404 9.2659C19.6392 9.26367 19.6387 9.26143 19.6381 9.2592C19.6348 9.24915 19.6314 9.23855 19.6286 9.2285C19.6203 9.20115 19.6113 9.1738 19.603 9.14644C19.5667 9.03034 19.5276 8.90865 19.4846 8.78194C19.4612 8.71105 19.4366 8.63849 19.4104 8.5648C19.4053 8.55029 19.3998 8.53578 19.3947 8.52071C19.3836 8.48889 19.3718 8.45707 19.3607 8.4247C19.3372 8.3605 19.3132 8.29519 19.2887 8.22877C19.2764 8.19528 19.2635 8.16234 19.2507 8.12829C19.2384 8.0948 19.225 8.06075 19.2122 8.0267C19.2005 7.99712 19.1893 7.96753 19.1776 7.93739C19.1753 7.93293 19.1737 7.92846 19.172 7.92399C19.1446 7.85534 19.1167 7.78556 19.0883 7.71523C19.0592 7.64434 19.0302 7.57345 18.9995 7.50144C18.9844 7.46572 18.9688 7.42943 18.9532 7.39315C18.9375 7.35687 18.9219 7.32058 18.9057 7.2843L18.8957 7.26086C18.8705 7.20281 18.8443 7.14475 18.8175 7.08614C18.8136 7.07833 18.8103 7.07051 18.8069 7.06326C18.7729 6.98902 18.7382 6.91422 18.7025 6.83886C18.6668 6.76406 18.6305 6.68815 18.5931 6.61223C18.5563 6.53799 18.5189 6.46319 18.4803 6.38784C18.4597 6.34821 18.439 6.30857 18.4184 6.26838C18.3983 6.22987 18.3782 6.19135 18.3575 6.15284C18.2984 6.04176 18.2369 5.93012 18.1739 5.81792C18.1711 5.81345 18.1683 5.80899 18.1661 5.80452C18.122 5.72693 18.0767 5.64935 18.031 5.57176C18.0081 5.53268 17.9846 5.49417 17.9612 5.45509C17.9143 5.3775 17.8663 5.29936 17.8177 5.22177C17.7931 5.18325 17.7686 5.14418 17.7435 5.10566C17.7183 5.06659 17.6932 5.02807 17.6675 4.989C17.6419 4.95048 17.6162 4.91197 17.5905 4.87289C17.5643 4.83438 17.538 4.79586 17.5118 4.75735C17.485 4.71883 17.4582 4.68032 17.4314 4.6418C17.3499 4.52681 17.2667 4.41182 17.1808 4.29795C17.1523 4.25999 17.1233 4.2226 17.0942 4.18464C17.0647 4.14668 17.0351 4.10928 17.0055 4.07188C16.9759 4.03393 16.9457 3.99653 16.9156 3.95968C16.8855 3.92229 16.8548 3.88489 16.8241 3.84805C16.7945 3.81232 16.7649 3.7766 16.7342 3.74087C16.6968 3.69733 16.6594 3.65379 16.6214 3.61081C16.5941 3.58011 16.5667 3.54885 16.5388 3.51815C16.5064 3.48187 16.4735 3.44614 16.4405 3.40986C16.4076 3.37414 16.3741 3.33841 16.3406 3.30269C16.3384 3.30046 16.3362 3.29822 16.3345 3.29599C16.3027 3.26306 16.2708 3.22956 16.2385 3.19663C16.2044 3.16146 16.1698 3.12686 16.1352 3.09169C16.1006 3.05708 16.0654 3.02247 16.0297 2.98787C15.9588 2.91921 15.8868 2.85111 15.8136 2.78412C15.7774 2.75063 15.7405 2.71714 15.7031 2.68421C15.6735 2.65741 15.6428 2.63118 15.6127 2.60438C15.5675 2.56531 15.5222 2.5268 15.4765 2.48828C15.438 2.45646 15.3994 2.42465 15.3604 2.39283C15.3202 2.35989 15.2794 2.32752 15.2387 2.2957C15.1627 2.23653 15.0863 2.17792 15.0081 2.12043C14.9601 2.08526 14.9121 2.0501 14.863 2.01605C14.8261 1.98981 14.7893 1.96413 14.7519 1.93901C14.71 1.90999 14.6676 1.88152 14.6246 1.85305C14.6201 1.85026 14.6157 1.84691 14.6106 1.84356C14.5727 1.819 14.5342 1.79388 14.4957 1.76932C14.4521 1.74197 14.4086 1.71462 14.3645 1.68783C14.3315 1.66773 14.298 1.64764 14.2645 1.62754C14.1981 1.58791 14.1306 1.54884 14.0619 1.51088C14.0279 1.4919 13.9938 1.47348 13.9592 1.4545C13.9106 1.42827 13.8615 1.40259 13.8124 1.37691C13.7214 1.33002 13.6293 1.28481 13.536 1.24071C13.5349 1.24015 13.5333 1.23959 13.5316 1.23848C13.4852 1.21671 13.4384 1.1955 13.3915 1.17429C13.3423 1.15252 13.2938 1.13075 13.2441 1.10954C13.133 1.06209 13.0202 1.01687 12.9058 0.973893C12.8678 0.95938 12.8293 0.945425 12.7908 0.931471C12.7394 0.91305 12.6875 0.895188 12.6356 0.877326C12.5831 0.859463 12.5307 0.842717 12.4782 0.825413C12.3727 0.791921 12.2661 0.760104 12.1572 0.73052C12.1053 0.716565 12.0534 0.70261 12.0009 0.688655C11.9964 0.687539 11.9925 0.686981 11.9886 0.685864C11.935 0.672468 11.8814 0.659071 11.8273 0.64679C11.6604 0.607159 11.4907 0.57255 11.3171 0.542966C11.2735 0.535709 11.23 0.528453 11.1864 0.521196C11.0988 0.507241 11.0106 0.494403 10.9213 0.483239C10.8766 0.477657 10.8319 0.472075 10.7867 0.467051C10.727 0.460353 10.6662 0.453655 10.6053 0.448073C10.4847 0.436909 10.3625 0.427419 10.2385 0.420163H10.2324C10.109 0.412906 9.98455 0.407883 9.85839 0.406208C9.7406 0.403417 9.62114 0.403417 9.5 0.405092L9.78191 0.356528L12.1901 0.0673828C12.1935 0.067941 12.1974 0.067941 12.2007 0.0684992C12.2521 0.0740812 12.3035 0.0802213 12.3543 0.0869197C12.366 0.0880361 12.3777 0.0897107 12.3889 0.0913852C12.5513 0.112597 12.711 0.137716 12.8678 0.166742C12.9119 0.174556 12.9555 0.183488 12.999 0.191861C13.1598 0.224236 13.3172 0.260519 13.4724 0.300709C13.4953 0.306849 13.5187 0.312989 13.5416 0.319129C13.5801 0.329177 13.6192 0.339783 13.6572 0.350946C13.7085 0.36546 13.7593 0.379973 13.8096 0.395602C13.8598 0.410673 13.9101 0.426303 13.9597 0.442491C14.0597 0.474866 14.1579 0.508358 14.2551 0.543524C14.3031 0.561387 14.3516 0.579249 14.3996 0.597669C14.4951 0.635068 14.59 0.673026 14.6832 0.713216C14.7301 0.732753 14.7764 0.753406 14.8222 0.774059C14.9143 0.815366 15.0053 0.857789 15.0952 0.901886C15.1851 0.945984 15.2733 0.991198 15.3609 1.03809C15.448 1.08497 15.5345 1.13298 15.6194 1.1821C15.6618 1.20666 15.7042 1.23178 15.7461 1.2569C15.8298 1.30769 15.9125 1.35905 15.994 1.41208C16.0755 1.46511 16.1558 1.51869 16.2351 1.57395C16.3161 1.63033 16.3964 1.68783 16.4746 1.74644C16.5539 1.80505 16.6315 1.86477 16.7074 1.92562C16.7839 1.9859 16.8592 2.04786 16.9335 2.11038C16.9703 2.14164 17.0072 2.17346 17.0434 2.20527C17.0803 2.23709 17.1166 2.26891 17.1523 2.30128C17.1858 2.33031 17.2182 2.36045 17.2505 2.39004C17.2751 2.41237 17.2991 2.43525 17.3231 2.45814C17.466 2.59099 17.6033 2.7283 17.7368 2.86785C17.8646 3.00182 17.9885 3.13858 18.1086 3.27757C18.1984 3.38195 18.2861 3.48689 18.3715 3.59351C18.4072 3.63761 18.4424 3.68226 18.477 3.72692C18.5122 3.77101 18.5462 3.81623 18.5803 3.86088C18.6143 3.90554 18.6484 3.95075 18.6813 3.99597C18.7148 4.04118 18.7477 4.0864 18.7801 4.13161C19.0408 4.49444 19.2775 4.8634 19.4924 5.23181C19.56 5.34736 19.6247 5.46291 19.6884 5.5779C19.7057 5.60971 19.723 5.64153 19.7397 5.67279C19.8207 5.82183 19.8977 5.97087 19.9708 6.11879C20.0015 6.17907 20.0311 6.23936 20.0596 6.29909C20.073 6.32532 20.0858 6.35211 20.0981 6.37835C20.1238 6.43194 20.1489 6.48552 20.1735 6.53855C20.198 6.59158 20.2226 6.64405 20.246 6.69708C20.27 6.74955 20.2935 6.80202 20.3164 6.85393C20.4386 7.13136 20.5486 7.40041 20.6469 7.65718C20.6837 7.75375 20.7189 7.84808 20.7529 7.94074C20.7752 8.0027 20.797 8.06354 20.8182 8.12327C20.8422 8.19081 20.8651 8.25724 20.8869 8.32255C20.8958 8.34767 20.9042 8.37334 20.9126 8.3979C20.9371 8.4727 20.9611 8.54527 20.984 8.61616C20.9907 8.63681 20.9969 8.65635 21.003 8.67644C21.0153 8.71663 21.0276 8.75571 21.0398 8.79422C21.056 8.84669 21.0717 8.89805 21.0862 8.94773C21.1007 8.99573 21.1147 9.04318 21.128 9.08895C21.1772 9.25976 21.2185 9.4127 21.2525 9.545C21.2604 9.57514 21.2676 9.60472 21.2749 9.63263C21.2832 9.66613 21.2911 9.6985 21.2983 9.72864C21.3312 9.86428 21.3536 9.96755 21.367 10.0312C21.3675 10.034 21.3681 10.0368 21.3686 10.0396C21.3737 10.0647 21.3776 10.0825 21.3798 10.0943V10.0965Z" fill="white"/>
<defs>
<linearGradient id="paint0_linear_2260_18569" x1="17.7422" y1="3.07205" x2="18.114" y2="3.07205" gradientUnits="userSpaceOnUse">
<stop stop-color="#E5E5E5"/>
<stop offset="1" stop-color="white"/>
</linearGradient>
<linearGradient id="paint1_linear_2260_18569" x1="19.6641" y1="9.42971" x2="19.7193" y2="9.42971" gradientUnits="userSpaceOnUse">
<stop stop-color="#E5E5E5"/>
<stop offset="1" stop-color="white"/>
</linearGradient>
<linearGradient id="paint2_linear_2260_18569" x1="19.75" y1="9.72561" x2="19.7952" y2="9.72561" gradientUnits="userSpaceOnUse">
<stop stop-color="#E5E5E5"/>
<stop offset="1" stop-color="white"/>
</linearGradient>
</defs>
</svg>
