<svg width="24" height="24" viewBox="0 0 24 24" fill="none" xmlns="http://www.w3.org/2000/svg">
<path d="M7.0297 24.0003C10.9121 24.0003 14.0594 20.854 14.0594 16.9728C14.0594 13.0916 10.9121 9.94531 7.0297 9.94531C3.1473 9.94531 0 13.0916 0 16.9728C0 20.854 3.1473 24.0003 7.0297 24.0003Z" fill="url(#paint0_linear_3693_39203)"/>
<path d="M16.9711 14.055C20.8535 14.055 24.0008 10.9087 24.0008 7.0275C24.0008 3.14632 20.8535 0 16.9711 0C13.0887 0 9.94141 3.14632 9.94141 7.0275C9.94141 10.9087 13.0887 14.055 16.9711 14.055Z" fill="url(#paint1_linear_3693_39203)"/>
<path d="M7.0297 14.055C10.9121 14.055 14.0594 10.9087 14.0594 7.0275C14.0594 3.14632 10.9121 0 7.0297 0C3.1473 0 0 3.14632 0 7.0275C0 10.9087 3.1473 14.055 7.0297 14.055Z" fill="url(#paint2_linear_3693_39203)"/>
<path d="M16.9711 24.0003C20.8535 24.0003 24.0008 20.854 24.0008 16.9728C24.0008 13.0916 20.8535 9.94531 16.9711 9.94531C13.0887 9.94531 9.94141 13.0916 9.94141 16.9728C9.94141 20.854 13.0887 24.0003 16.9711 24.0003Z" fill="url(#paint3_linear_3693_39203)"/>
<defs>
<linearGradient id="paint0_linear_3693_39203" x1="2.05895" y1="21.942" x2="21.2493" y2="2.74567" gradientUnits="userSpaceOnUse">
<stop stop-color="#FF7500"/>
<stop offset="1" stop-color="#FC5000"/>
</linearGradient>
<linearGradient id="paint1_linear_3693_39203" x1="2.05886" y1="21.9351" x2="21.2492" y2="2.73874" gradientUnits="userSpaceOnUse">
<stop stop-color="#FF7500"/>
<stop offset="1" stop-color="#FC5000"/>
</linearGradient>
<linearGradient id="paint2_linear_3693_39203" x1="21.7485" y1="21.7417" x2="3.02026" y2="3.00761" gradientUnits="userSpaceOnUse">
<stop stop-color="#FF7500"/>
<stop offset="1" stop-color="#FC5000"/>
</linearGradient>
<linearGradient id="paint3_linear_3693_39203" x1="21.7456" y1="21.7458" x2="3.01731" y2="3.01167" gradientUnits="userSpaceOnUse">
<stop stop-color="#FF7500"/>
<stop offset="1" stop-color="#FC5000"/>
</linearGradient>
</defs>
</svg>
