<svg width="107" height="23" viewBox="0 0 107 23" fill="none" xmlns="http://www.w3.org/2000/svg">
<path d="M7.26709 20.626C11.2806 20.626 14.5342 17.3724 14.5342 13.3589C14.5342 9.34539 11.2806 6.0918 7.26709 6.0918C3.25359 6.0918 0 9.34539 0 13.3589C0 17.3724 3.25359 20.626 7.26709 20.626Z" fill="white"/>
<path d="M31.1312 16.397L21.5804 19.2412C21.6178 18.8931 21.6474 18.5528 21.6683 18.2186C21.6753 18.1072 21.6822 17.9967 21.6892 17.8861C21.6953 17.7765 21.7005 17.6668 21.7048 17.5589C21.7083 17.451 21.7136 17.3431 21.7162 17.236C21.7223 17.0228 21.7249 16.8122 21.7249 16.6042C21.7249 16.2665 21.7179 15.9366 21.7022 15.6155C21.6979 15.5345 21.6935 15.4536 21.6883 15.3727C21.6857 15.3326 21.6831 15.2926 21.6805 15.2526C21.6787 15.2125 21.6753 15.1725 21.6726 15.1333C21.6666 15.0559 21.6613 14.9784 21.6552 14.901C21.6509 14.8383 21.6457 14.7774 21.6387 14.7156C21.6265 14.5772 21.6109 14.4423 21.5952 14.3065C21.5874 14.2404 21.5804 14.1751 21.5717 14.1098C21.5517 13.9515 21.5299 13.7957 21.5064 13.6425C21.5047 13.6268 21.5021 13.6112 21.4995 13.5955L21.489 13.5328C21.4873 13.5137 21.4838 13.4937 21.4812 13.4745C21.476 13.4345 21.469 13.3945 21.462 13.3544C21.4594 13.3344 21.4559 13.3144 21.4507 13.2944C21.449 13.2735 21.4455 13.2526 21.4411 13.2326C21.4385 13.2169 21.4351 13.2012 21.4316 13.1865C21.4316 13.1795 21.429 13.1725 21.4272 13.1656C21.4246 13.1447 21.4211 13.1247 21.4168 13.1046C21.415 13.0951 21.4142 13.0855 21.4124 13.0759C21.4098 13.0629 21.4072 13.0498 21.4046 13.0376C21.3985 13.0011 21.3915 12.9645 21.3828 12.928C21.3733 12.8757 21.3619 12.8244 21.3515 12.7731C21.3472 12.7548 21.3428 12.7356 21.3393 12.7174C21.3376 12.713 21.3367 12.7087 21.3358 12.7043C21.3358 12.7017 21.3358 12.6982 21.3341 12.6956C21.3289 12.6695 21.3228 12.6434 21.3167 12.6181C21.3115 12.5955 21.3071 12.5729 21.3019 12.5503C21.2975 12.5285 21.2932 12.5076 21.2888 12.4867C21.281 12.4484 21.2714 12.4093 21.2627 12.371C21.2627 12.3666 21.261 12.3614 21.2593 12.357C21.2497 12.3144 21.2392 12.2718 21.2279 12.2291C21.221 12.1995 21.2131 12.1699 21.2044 12.1412C21.1922 12.0899 21.1792 12.0385 21.1661 11.988L21.1452 11.9097C21.14 11.8923 21.1357 11.8749 21.1313 11.8575C21.1287 11.8505 21.127 11.8444 21.1252 11.8375C21.1113 11.7887 21.0974 11.74 21.0834 11.6913C21.0695 11.6434 21.0556 11.5955 21.0399 11.5485C21.0365 11.5355 21.0338 11.5224 21.0304 11.5094C21.0304 11.505 21.0286 11.5007 21.0277 11.4963C21.0277 11.492 21.026 11.4876 21.0243 11.4841C21.0182 11.4589 21.0103 11.4328 21.0016 11.4075C20.9999 11.3997 20.9973 11.391 20.9929 11.3823C20.9912 11.3762 20.9886 11.3692 20.9868 11.3623C20.9842 11.3553 20.9825 11.3484 20.9799 11.3423C20.9773 11.3344 20.9747 11.3266 20.972 11.3188C20.9625 11.2857 20.952 11.2526 20.9416 11.2195C20.9372 11.2082 20.9338 11.1969 20.9303 11.1856C20.9198 11.156 20.9103 11.1273 20.8998 11.0994C20.8902 11.0664 20.8798 11.0342 20.8694 11.0028C20.8659 10.9915 20.8615 10.9802 20.858 10.9689C20.8485 10.9402 20.838 10.9123 20.8276 10.8836C20.8232 10.8697 20.818 10.8549 20.8128 10.841C20.8076 10.827 20.8032 10.814 20.798 10.8001C20.7823 10.7592 20.7675 10.7182 20.7519 10.6773C20.7466 10.6608 20.7405 10.6451 20.7345 10.6286C20.7327 10.6243 20.7318 10.6208 20.7301 10.6164C20.7223 10.5964 20.7144 10.5773 20.7075 10.5572C20.7066 10.5538 20.7049 10.5511 20.704 10.5477C20.6935 10.5207 20.6831 10.4928 20.6727 10.4667C20.6701 10.4615 20.6674 10.4572 20.6657 10.4519C20.6605 10.4389 20.6561 10.4258 20.6509 10.4119C20.6448 10.3988 20.6405 10.3849 20.6352 10.3719C20.6265 10.3484 20.6161 10.3257 20.6074 10.3031C20.5969 10.2796 20.5882 10.257 20.5787 10.2344C20.5552 10.1752 20.5299 10.1169 20.5056 10.0586C20.4986 10.042 20.4916 10.0264 20.4847 10.0098C20.4847 10.0089 20.4838 10.0081 20.4838 10.0072C20.4716 9.9811 20.4612 9.95499 20.4499 9.92888C20.4446 9.91582 20.4394 9.9019 20.4333 9.88884C20.4333 9.88536 20.4316 9.88275 20.429 9.87927C20.429 9.87753 20.4272 9.87492 20.4264 9.87318C20.4255 9.87231 20.4255 9.87144 20.4246 9.87057C20.4238 9.86708 20.422 9.8636 20.4203 9.86012C20.4194 9.85925 20.4194 9.85838 20.4194 9.85751C20.4194 9.85751 20.4191 9.85664 20.4185 9.8549C20.4185 9.8549 20.4185 9.85403 20.4185 9.85316C20.4168 9.84881 20.415 9.84446 20.4133 9.84011C20.4063 9.82705 20.402 9.814 20.3959 9.80094C20.3898 9.78789 20.3828 9.77483 20.3776 9.76178C20.3759 9.75743 20.3733 9.75307 20.3707 9.74872C20.3698 9.74698 20.3689 9.74437 20.3672 9.74176C20.3637 9.73567 20.3602 9.72958 20.3567 9.72261C20.3359 9.67475 20.3141 9.62688 20.2915 9.57901C20.2897 9.57292 20.2871 9.56683 20.2836 9.56074C20.2767 9.54594 20.2697 9.53115 20.2619 9.51635C20.2601 9.512 20.2584 9.50765 20.2558 9.50417C20.2445 9.48067 20.2332 9.45717 20.221 9.43454C20.2175 9.42845 20.2149 9.42149 20.2123 9.41539C20.2062 9.40495 20.2018 9.39451 20.1966 9.38406C20.1949 9.38145 20.1931 9.37797 20.1923 9.37536C20.1853 9.3623 20.1792 9.34838 20.1731 9.33533C20.1531 9.29529 20.1331 9.25526 20.1122 9.21522C20.1009 9.19433 20.0904 9.17432 20.0791 9.15343C20.0896 9.17432 20.1 9.1952 20.1113 9.21609C20.0808 9.15952 20.0504 9.10295 20.0199 9.04638C19.9999 9.00809 19.9799 8.96979 19.9599 8.93237C19.9686 8.94804 19.9773 8.96283 19.9851 8.9785C19.9816 8.96979 19.9773 8.96283 19.9729 8.955C19.9694 8.94717 19.9651 8.93933 19.9607 8.9315C19.9198 8.85578 19.8781 8.78094 19.8346 8.70696C19.8267 8.69304 19.818 8.67911 19.8093 8.66519C19.8076 8.6617 19.8058 8.65909 19.8032 8.65561C19.8137 8.67302 19.8241 8.69042 19.8337 8.70783C19.8137 8.67389 19.7919 8.63908 19.7702 8.606C19.7623 8.59208 19.7554 8.57815 19.7475 8.56423C19.7432 8.55727 19.7397 8.5503 19.7353 8.54334C19.7179 8.51375 19.7005 8.48329 19.6822 8.4537C19.6561 8.40757 19.6283 8.36319 19.5987 8.3188C19.5769 8.28312 19.5534 8.24831 19.5317 8.21262C19.5265 8.20392 19.5204 8.19522 19.5143 8.18738C19.4682 8.11602 19.4229 8.04552 19.3759 7.9759C19.3576 7.94892 19.3393 7.92281 19.3219 7.8967C19.3124 7.88278 19.3037 7.86972 19.2941 7.85667C19.2941 7.85667 19.2935 7.85609 19.2923 7.85493C19.288 7.84883 19.2845 7.84274 19.2793 7.83578C19.2758 7.82969 19.2706 7.82359 19.2671 7.8175C19.2671 7.81663 19.2662 7.81663 19.2662 7.81576C19.2558 7.8001 19.2445 7.7853 19.234 7.76964C19.2158 7.74353 19.1975 7.71742 19.1792 7.69131C19.1531 7.65388 19.127 7.61733 19.0991 7.58165C19.0617 7.52856 19.0226 7.47634 18.9825 7.42499C18.9782 7.42064 18.9747 7.41542 18.9712 7.4102C18.9677 7.40498 18.9634 7.39975 18.959 7.3954C18.9416 7.3719 18.9233 7.34928 18.9042 7.32578C18.885 7.29967 18.8659 7.27443 18.8459 7.24919C18.8459 7.24832 18.845 7.24832 18.845 7.24832C18.845 7.24745 18.845 7.24658 18.8433 7.24658C18.825 7.22221 18.8058 7.19871 18.7867 7.17434C18.771 7.1552 18.7562 7.13692 18.7414 7.11864C18.7362 7.11255 18.731 7.10646 18.7266 7.10124C18.7467 7.12561 18.7658 7.14997 18.7858 7.17521C18.7458 7.12561 18.7058 7.07774 18.6649 7.029C18.5961 6.94545 18.5291 6.86712 18.4621 6.79054C18.4647 6.79315 18.4673 6.79576 18.4708 6.79924C18.4682 6.79576 18.4656 6.79315 18.4629 6.78967C18.4621 6.78879 18.4612 6.78705 18.4603 6.78618L18.4569 6.78183C18.4569 6.78183 18.456 6.78096 18.4551 6.78009C18.4542 6.77835 18.4516 6.77661 18.4508 6.77487C18.4447 6.76791 18.4386 6.76095 18.4325 6.75398C18.4012 6.71917 18.3698 6.68349 18.3394 6.64868C18.3228 6.63127 18.308 6.61386 18.2924 6.59733C18.2506 6.55033 18.2071 6.5042 18.1653 6.45895C18.1383 6.42936 18.1096 6.39977 18.0817 6.37105C18.0722 6.36147 18.0635 6.3519 18.0548 6.3432L18.0313 6.3197C18.0226 6.31012 18.0139 6.30055 18.0052 6.29185C17.9956 6.28227 17.9869 6.27357 17.9782 6.26487L17.9399 6.22657C17.9086 6.19524 17.8772 6.16391 17.8459 6.13345H17.845C17.8302 6.11779 17.8154 6.10299 17.8006 6.08907C17.7954 6.08384 17.7902 6.07949 17.785 6.07427C17.805 6.09429 17.825 6.1143 17.845 6.13432C17.825 6.1143 17.805 6.09429 17.7841 6.07514C17.7623 6.05338 17.7397 6.0325 17.718 6.01074C17.7388 6.03076 17.7606 6.05077 17.7815 6.07166C17.7606 6.0499 17.7397 6.03075 17.7188 6.00987C17.6927 5.98463 17.6657 5.96026 17.6396 5.93502C17.6344 5.92893 17.6283 5.92284 17.6214 5.91761C17.6196 5.915 17.6161 5.91239 17.6135 5.90891C17.6135 5.90891 17.6135 5.90804 17.6118 5.90717C17.61 5.9063 17.61 5.9063 17.6092 5.90543C17.6109 5.90717 17.6118 5.90804 17.6135 5.90978C17.61 5.90804 17.6066 5.90456 17.6031 5.90108C17.6048 5.90195 17.6066 5.90282 17.6083 5.90456C17.6083 5.90456 17.6066 5.90282 17.6057 5.90195C17.6057 5.90195 17.6051 5.90137 17.6039 5.90021H17.6031C17.6031 5.90021 17.6013 5.8976 17.6005 5.89673C17.5961 5.8915 17.5918 5.88802 17.5874 5.88367H17.5865C17.5796 5.87671 17.5752 5.87236 17.5683 5.86627C17.5569 5.85669 17.5474 5.84625 17.5352 5.83668C17.5187 5.82014 17.5012 5.80447 17.4838 5.78881C17.4786 5.78359 17.4725 5.77836 17.4664 5.77314C17.4534 5.76096 17.4403 5.74877 17.4255 5.73746C17.4081 5.72179 17.3898 5.70613 17.3724 5.69046C17.3907 5.70613 17.4081 5.72266 17.4255 5.73833C17.4003 5.7157 17.3751 5.69394 17.3498 5.67132C17.2323 5.56775 17.1131 5.46679 16.993 5.36758C17.0661 5.42763 17.1392 5.48768 17.2106 5.54947C17.1749 5.51814 17.1392 5.48768 17.1026 5.45722C17.0835 5.44068 17.0635 5.42415 17.0435 5.40761C17.0269 5.39456 17.0104 5.38063 16.9939 5.36671C16.8572 5.25444 16.7188 5.14565 16.5787 5.04121C16.5248 4.99944 16.4691 4.95853 16.4142 4.9185C16.3829 4.89587 16.3524 4.87411 16.322 4.85235C16.2671 4.81319 16.2123 4.77403 16.1566 4.73573C15.9434 4.58778 15.7276 4.44766 15.51 4.31537C15.4186 4.25793 15.3255 4.20223 15.2332 4.14914C15.1854 4.12129 15.1384 4.09431 15.0922 4.0682C15.0313 4.03339 14.9686 3.99945 14.9086 3.96551C14.906 3.96551 14.906 3.96203 14.9016 3.96203C14.6597 3.82887 14.4169 3.70702 14.1767 3.59214C14.0644 3.53731 13.9521 3.4851 13.8399 3.43723C13.6171 3.33366 13.3925 3.23967 13.1715 3.15438C13.0583 3.10912 12.9495 3.06648 12.8399 3.02644C12.7302 2.9838 12.6214 2.94463 12.5118 2.90808C11.9165 2.69833 11.3394 2.53472 10.7981 2.40678C10.7781 2.40243 10.7581 2.39721 10.7381 2.39286C10.7172 2.3885 10.6972 2.38415 10.6771 2.37893C10.6528 2.37197 10.6284 2.36675 10.6049 2.36152C10.5892 2.35804 10.5744 2.35456 10.5614 2.35195C10.3612 2.30669 10.1698 2.26753 9.98002 2.23098C9.92606 2.21879 9.87123 2.20922 9.81728 2.20052C9.76854 2.19094 9.72067 2.18137 9.67454 2.17354C9.63538 2.16657 9.59622 2.15961 9.55879 2.15439C9.2185 2.09695 8.90867 2.05169 8.63452 2.02123C8.59971 2.01688 8.56577 2.01253 8.53357 2.00905C8.5005 2.00557 8.46829 2.00209 8.43522 1.99947C8.39606 1.99338 8.35602 1.99077 8.31686 1.98729C8.25333 1.97859 8.19241 1.97511 8.13496 1.96901C7.9374 1.95161 7.76595 1.94203 7.63541 1.93594C7.58145 1.93333 7.53358 1.92985 7.49354 1.92724C7.3717 1.92376 7.30469 1.92376 7.30469 1.92376L7.58928 1.87502L10.5231 1.36763H10.5248L14.8155 0.628735H14.8207C15.0095 0.626124 15.1958 0.626124 15.3794 0.630476C15.5761 0.633087 15.7702 0.640919 15.9625 0.652233H15.9721C16.1653 0.663547 16.3559 0.678343 16.5439 0.695749C16.6388 0.704452 16.7336 0.714896 16.8268 0.72534C16.8973 0.733172 16.9669 0.741875 17.0365 0.750579C17.1758 0.767985 17.3133 0.788002 17.4499 0.80976C17.5178 0.821074 17.5857 0.832388 17.6536 0.843702C17.9242 0.889828 18.1888 0.943787 18.449 1.00558C18.5334 1.02473 18.617 1.04561 18.7005 1.0665C18.7066 1.06824 18.7127 1.06911 18.7197 1.07085C18.8015 1.09261 18.8824 1.11437 18.9634 1.13613C19.1331 1.18225 19.2993 1.23186 19.4638 1.28408C19.5456 1.31106 19.6274 1.33717 19.7092 1.36502C19.7902 1.39287 19.8711 1.42072 19.9512 1.44944C20.0112 1.4712 20.0713 1.49295 20.1305 1.51558C20.3089 1.5826 20.4847 1.65309 20.6579 1.72707C20.7353 1.76014 20.811 1.79408 20.8876 1.82802C20.9607 1.8611 21.0338 1.89417 21.1061 1.92811C21.1087 1.92985 21.1113 1.93072 21.113 1.93159C21.2584 2.00034 21.402 2.07084 21.5438 2.14395C21.6204 2.18398 21.697 2.22401 21.7727 2.26492C21.8267 2.29451 21.8798 2.32323 21.9329 2.35282C22.0399 2.412 22.1452 2.47292 22.2488 2.53472C22.301 2.56605 22.3532 2.59738 22.4046 2.62871C22.4733 2.67048 22.5412 2.71313 22.6091 2.75577C22.6692 2.79407 22.7292 2.83323 22.7884 2.87153C22.7962 2.87675 22.8032 2.88197 22.8101 2.88632C22.8772 2.93071 22.9433 2.97509 23.0086 3.02035C23.0669 3.05951 23.1243 3.09955 23.1818 3.14045C23.2584 3.19354 23.3332 3.24837 23.408 3.3032C23.5299 3.39284 23.6491 3.48423 23.7675 3.57648C23.831 3.62609 23.8946 3.67656 23.9572 3.72791C24.0181 3.77752 24.0782 3.82713 24.1382 3.87674C24.2096 3.93679 24.2801 3.99684 24.3506 4.05776C24.3976 4.09953 24.4455 4.14044 24.4916 4.18221C24.5499 4.23356 24.6073 4.28578 24.6639 4.338C24.7779 4.44244 24.8902 4.54862 25.0007 4.65566C25.0564 4.70962 25.1112 4.76358 25.1652 4.81754C25.2192 4.87237 25.2731 4.92633 25.3262 4.98116C25.3767 5.03251 25.4263 5.08473 25.4759 5.13608C25.4785 5.13956 25.482 5.14304 25.4855 5.14652C25.5377 5.20222 25.5899 5.25792 25.6413 5.31362C25.6926 5.37019 25.744 5.42589 25.7944 5.48246C25.838 5.53033 25.8806 5.57906 25.9232 5.62693C25.9824 5.69394 26.0407 5.76183 26.0991 5.82971C26.1469 5.88541 26.193 5.94111 26.2392 5.99681C26.287 6.05425 26.3349 6.11256 26.3819 6.17087C26.4289 6.22832 26.4759 6.28663 26.522 6.34581C26.5681 6.40412 26.6143 6.46243 26.6604 6.52161C26.7057 6.58079 26.7509 6.6391 26.7953 6.69828C26.9293 6.87583 27.059 7.05511 27.1861 7.23439C27.2278 7.29445 27.2696 7.3545 27.3114 7.41455C27.3523 7.4746 27.3932 7.53465 27.4341 7.5947C27.4741 7.65562 27.5142 7.71568 27.5542 7.77573C27.5942 7.83665 27.6334 7.8967 27.6726 7.95762C27.7117 8.01767 27.75 8.0786 27.7883 8.13865C27.864 8.25962 27.9389 8.38146 28.012 8.50244C28.0485 8.56336 28.0851 8.62341 28.1208 8.68433C28.1921 8.80531 28.2626 8.92628 28.3314 9.04725C28.3349 9.05421 28.3392 9.06118 28.3436 9.06814C28.4419 9.24307 28.5377 9.41713 28.6299 9.59033C28.6621 9.65038 28.6934 9.71043 28.7248 9.77048C28.757 9.83314 28.7892 9.89493 28.8214 9.95673C28.8814 10.0742 28.9397 10.1908 28.9972 10.3066C29.0555 10.425 29.1121 10.5433 29.1678 10.6599C29.2235 10.7774 29.2774 10.8941 29.3305 11.0098C29.3357 11.0211 29.341 11.0333 29.347 11.0455C29.3888 11.1369 29.4297 11.2274 29.4689 11.3179L29.4846 11.3544C29.5098 11.411 29.5342 11.4676 29.5585 11.5242C29.5829 11.5807 29.6073 11.6373 29.6308 11.693C29.6786 11.8053 29.7239 11.9158 29.7691 12.0263C29.8135 12.136 29.8571 12.2448 29.8997 12.3518C29.9023 12.3588 29.9049 12.3657 29.9084 12.3727C29.9267 12.4197 29.9441 12.4658 29.9624 12.512C29.9824 12.565 30.0033 12.6181 30.0224 12.6704C30.0424 12.7234 30.0624 12.7748 30.0816 12.827C30.1199 12.9306 30.1573 13.0324 30.1939 13.1325C30.2113 13.183 30.2295 13.2326 30.247 13.2822C30.2548 13.3057 30.2635 13.3283 30.2713 13.3509C30.3122 13.4658 30.3505 13.579 30.3871 13.6895C30.4541 13.8871 30.515 14.0768 30.5716 14.2578C30.5846 14.3004 30.5986 14.3431 30.6116 14.3857C30.616 14.4014 30.6212 14.4179 30.6264 14.4336C30.6273 14.4371 30.6281 14.4406 30.6299 14.444C30.6308 14.4475 30.6316 14.451 30.6334 14.4545C30.6438 14.4893 30.6543 14.5232 30.6638 14.5563C30.6943 14.6573 30.723 14.7548 30.75 14.8496C30.7587 14.8809 30.7674 14.9114 30.7761 14.9419C30.7848 14.9723 30.7926 15.0028 30.8013 15.0324C30.8266 15.122 30.8501 15.2073 30.8718 15.2891C30.8892 15.3561 30.9066 15.4197 30.9223 15.4815C30.9319 15.5206 30.9423 15.5589 30.9519 15.5955C30.9858 15.7312 31.0146 15.8513 31.0389 15.9549C31.0442 15.9758 31.0485 15.9949 31.0529 16.0141C31.1007 16.2212 31.1268 16.3518 31.1347 16.3927C31.1347 16.3927 31.1347 16.3944 31.1347 16.397H31.1312Z" fill="white"/>
<path d="M21.7656 0.691406C21.9214 0.741014 22.0746 0.794103 22.226 0.848933C22.0746 0.794103 21.9214 0.741884 21.7656 0.691406Z" fill="white"/>
<path d="M23.1172 1.20312C23.2608 1.26666 23.4027 1.33367 23.5428 1.40243C23.4027 1.33367 23.2608 1.26753 23.1172 1.20312Z" fill="white"/>
<path d="M27.6562 4.4707C27.8556 4.67958 28.0496 4.8928 28.2359 5.10951C28.0488 4.8928 27.8556 4.67958 27.6562 4.4707Z" fill="white"/>
<path d="M32.3607 12.3796C32.3076 12.2351 32.2528 12.0881 32.1953 11.9375C32.2536 12.0881 32.3085 12.2351 32.3607 12.3796Z" fill="white"/>
<path d="M17.3481 5.67114V5.67288C17.2315 5.56931 17.1123 5.46836 16.9922 5.36914C17.0653 5.42919 17.1384 5.48924 17.2098 5.55104C17.2263 5.56496 17.2428 5.57976 17.2594 5.59455C17.289 5.61979 17.3177 5.64503 17.3473 5.67114H17.3481Z" fill="#843ACD"/>
<path d="M17.4195 5.73889C17.3942 5.71626 17.369 5.6945 17.3438 5.67188C17.3516 5.67797 17.3585 5.68406 17.3664 5.69102C17.3847 5.70669 17.4021 5.72322 17.4195 5.73889Z" fill="#843ACD"/>
<path d="M17.6126 5.91156C17.6126 5.91156 17.6052 5.90603 17.6016 5.90234C17.6034 5.90327 17.6052 5.90419 17.6071 5.90603H17.608C17.608 5.90603 17.6108 5.90972 17.6126 5.91156Z" fill="#843ACD"/>
<path d="M17.838 6.13335C17.818 6.11333 17.798 6.09332 17.7771 6.07417C17.7553 6.05241 17.7327 6.03152 17.7109 6.00977C17.7318 6.02978 17.7536 6.0498 17.7745 6.07069C17.7753 6.07069 17.7762 6.07243 17.7771 6.0733H17.778C17.798 6.09332 17.818 6.11333 17.838 6.13335Z" fill="#843ACD"/>
<path d="M18.6559 7.03143C18.5872 6.94788 18.5201 6.86956 18.4531 6.79297C18.4557 6.79558 18.4583 6.79819 18.4618 6.80167C18.4644 6.80602 18.4688 6.81037 18.4731 6.81473C18.4845 6.82778 18.4958 6.84171 18.5071 6.85476C18.5175 6.86695 18.5288 6.88 18.5402 6.89305C18.5497 6.90437 18.5593 6.91568 18.5697 6.927C18.5697 6.927 18.575 6.93396 18.5776 6.93657C18.6107 6.9766 18.6437 7.01577 18.6777 7.0558C18.6846 7.06538 18.6925 7.07408 18.6994 7.08365C18.7046 7.08974 18.709 7.09584 18.7142 7.10193C18.7142 7.10193 18.7148 7.10251 18.716 7.10367C18.736 7.12804 18.7551 7.15241 18.7751 7.17765C18.7351 7.12804 18.6951 7.08017 18.6542 7.03143H18.6559Z" fill="#843ACD"/>
<path d="M19.7328 8.54667C19.7154 8.51708 19.698 8.48662 19.6797 8.45703C19.6893 8.47183 19.698 8.48662 19.7067 8.50142C19.7154 8.51621 19.7241 8.53101 19.7328 8.54667Z" fill="#843ACD"/>
<path d="M19.7446 8.56106C19.7446 8.56106 19.7463 8.5636 19.7463 8.5653C19.742 8.55851 19.7386 8.55172 19.7344 8.54492C19.7369 8.55002 19.7403 8.55426 19.7437 8.55936C19.7437 8.55936 19.7446 8.55936 19.7446 8.56106Z" fill="#843ACD"/>
<path d="M19.8283 8.71001C19.8083 8.67607 19.7866 8.64125 19.7648 8.60818C19.757 8.59426 19.75 8.58033 19.7422 8.56641C19.7439 8.56815 19.7448 8.56989 19.7448 8.57076C19.7613 8.59687 19.777 8.62298 19.7927 8.64909C19.7927 8.64996 19.7927 8.64996 19.7927 8.65083C19.7944 8.65344 19.7953 8.65518 19.797 8.65779C19.8075 8.6752 19.8179 8.6926 19.8275 8.71001H19.8283Z" fill="#843ACD"/>
<path d="M20.1046 9.21732C20.0741 9.16075 20.0436 9.10417 20.0132 9.0476C19.9932 9.00931 19.9731 8.97102 19.9531 8.93359C19.9618 8.94926 19.9705 8.96405 19.9784 8.97972C19.9792 8.98146 19.981 8.98407 19.9818 8.98581C19.9862 8.99365 19.9905 9.00148 19.9949 9.01018C20.001 9.02237 20.008 9.03455 20.014 9.04673C20.0193 9.05631 20.0236 9.06501 20.0297 9.07458C20.041 9.09721 20.0532 9.11984 20.0654 9.1416C20.068 9.14595 20.0697 9.1503 20.0724 9.15465C20.0828 9.17554 20.0932 9.19643 20.1046 9.21732Z" fill="#843ACD"/>
<path d="M31.1286 16.397L21.5778 19.2412C21.6152 18.8931 21.6448 18.5528 21.6657 18.2186C21.6726 18.1072 21.6796 17.9967 21.6866 17.8861C21.6927 17.7765 21.6979 17.6668 21.7022 17.5589C21.7057 17.451 21.7109 17.3431 21.7136 17.236C21.7196 17.0228 21.7223 16.8122 21.7223 16.6042C21.7223 16.2665 21.7153 15.9366 21.6996 15.6155C21.6953 15.5345 21.6909 15.4536 21.6857 15.3727C21.6831 15.3326 21.6805 15.2926 21.6779 15.2526C21.6761 15.2125 21.6726 15.1725 21.67 15.1333C21.6639 15.0559 21.6587 14.9784 21.6526 14.901C21.6483 14.8383 21.6431 14.7774 21.6361 14.7156C21.603 14.3474 21.5586 13.9897 21.5038 13.6425C21.5021 13.6268 21.4995 13.6112 21.4968 13.5955L21.4864 13.5328C21.4847 13.5137 21.4812 13.4937 21.4786 13.4745C21.4733 13.4345 21.4664 13.3945 21.4594 13.3544C21.4568 13.3344 21.4533 13.3144 21.4481 13.2944C21.4464 13.2735 21.4429 13.2526 21.4385 13.2326C21.4359 13.2169 21.4324 13.2012 21.429 13.1865C21.429 13.1795 21.4263 13.1725 21.4246 13.1656C21.422 13.1447 21.4185 13.1247 21.4142 13.1046C21.4124 13.0951 21.4116 13.0855 21.4098 13.0759C21.4072 13.0629 21.4046 13.0498 21.402 13.0376C21.3959 13.0011 21.3889 12.9645 21.3802 12.928C21.3707 12.8757 21.3593 12.8244 21.3489 12.7731C21.3445 12.7548 21.3402 12.7356 21.3367 12.7174C21.321 12.6399 21.3036 12.5633 21.2862 12.4867C21.2784 12.4484 21.2688 12.4093 21.2601 12.371C21.2601 12.3666 21.2584 12.3614 21.2566 12.357C21.2471 12.3144 21.2375 12.2709 21.2253 12.2291C21.2149 12.1891 21.2053 12.1482 21.1948 12.1081C21.1853 12.0681 21.1748 12.0281 21.1635 11.988L21.1426 11.9097C21.1374 11.8923 21.1331 11.8749 21.1287 11.8575C21.127 11.8488 21.1244 11.8401 21.1217 11.8305C21.1165 11.8122 21.1113 11.794 21.1061 11.7757C21.0974 11.7417 21.0878 11.7087 21.0782 11.6756C21.0608 11.6155 21.0434 11.5555 21.0251 11.4963C21.0251 11.492 21.0234 11.4876 21.0217 11.4841C21.0156 11.4589 21.0077 11.4328 20.999 11.4075C20.9973 11.3997 20.9947 11.391 20.9903 11.3823C20.9886 11.3762 20.986 11.3692 20.9842 11.3623C20.9703 11.3144 20.9546 11.2665 20.939 11.2195C20.9346 11.2082 20.9311 11.1969 20.9277 11.1856C20.919 11.1551 20.9085 11.1238 20.8981 11.0934C20.8929 11.0786 20.8876 11.0629 20.8824 11.0481C20.8772 11.0333 20.872 11.0176 20.8667 11.0028C20.8633 10.9915 20.8589 10.9802 20.8554 10.9689C20.8302 10.8923 20.8032 10.8166 20.7754 10.7417C20.7614 10.7035 20.7466 10.666 20.7327 10.6286C20.724 10.6051 20.7162 10.5807 20.7049 10.5572C20.704 10.5538 20.7023 10.5511 20.7014 10.5477C20.6909 10.5207 20.6805 10.4928 20.6701 10.4667C20.6631 10.4485 20.6561 10.4302 20.6483 10.4119C20.6422 10.3988 20.6379 10.3849 20.6326 10.3719C20.6239 10.3484 20.6135 10.3257 20.6048 10.3031C20.5734 10.2204 20.5395 10.1386 20.503 10.0586C20.496 10.042 20.489 10.0264 20.4821 10.0098C20.4821 10.0089 20.4812 10.0081 20.4812 10.0072C20.4768 9.99415 20.4707 9.98197 20.4655 9.96978C20.456 9.9428 20.4438 9.91582 20.4307 9.88884C20.4307 9.88536 20.429 9.88275 20.4264 9.87927C20.4264 9.87753 20.4246 9.87492 20.4238 9.87318C20.4229 9.87144 20.4229 9.86883 20.422 9.86708C20.4203 9.86447 20.4203 9.86273 20.4177 9.86012C20.4168 9.85925 20.4168 9.85838 20.4168 9.85751C20.4168 9.85751 20.4165 9.85664 20.4159 9.8549C20.4159 9.8549 20.4159 9.85403 20.4159 9.85316C20.4142 9.84881 20.4124 9.84446 20.4107 9.84011C20.4037 9.82705 20.3994 9.814 20.3933 9.80094C20.3872 9.78789 20.3802 9.77483 20.375 9.76178C20.3472 9.69999 20.3193 9.63906 20.2889 9.57901C20.2871 9.57292 20.2845 9.56683 20.281 9.56074C20.2741 9.54594 20.2671 9.53115 20.2593 9.51635C20.2575 9.512 20.2558 9.50765 20.2532 9.50417C20.2445 9.48502 20.2358 9.46587 20.2262 9.44759C20.221 9.43628 20.2157 9.42584 20.2097 9.41539C20.2036 9.40495 20.1992 9.39451 20.194 9.38406C20.1923 9.38145 20.1905 9.37797 20.1896 9.37536C20.1827 9.3623 20.1766 9.34838 20.1705 9.33533C20.1505 9.29529 20.1305 9.25526 20.1096 9.21522C20.0983 9.19433 20.0878 9.17432 20.0765 9.15343C20.0739 9.14908 20.0721 9.14473 20.0695 9.14038C20.0582 9.11775 20.0469 9.09512 20.0339 9.07336C20.0234 9.0516 20.0112 9.02985 19.999 9.00896C19.9947 9.00026 19.9903 8.99242 19.986 8.98459C19.9851 8.98285 19.9834 8.98024 19.9825 8.9785C19.979 8.96979 19.9747 8.96283 19.9703 8.955C19.9668 8.94717 19.9625 8.93933 19.9581 8.9315C19.9172 8.85578 19.8755 8.78094 19.8319 8.70696C19.8241 8.69304 19.8154 8.67911 19.8067 8.66519C19.805 8.6617 19.8032 8.65909 19.8006 8.65561C19.7989 8.653 19.798 8.65126 19.7963 8.64865C19.7963 8.64778 19.7963 8.64778 19.7963 8.64691C19.7806 8.61732 19.7632 8.5886 19.744 8.55988C19.744 8.55901 19.7432 8.55901 19.7432 8.55814C19.7414 8.55553 19.7397 8.55292 19.7388 8.5503C19.7388 8.54769 19.7362 8.54508 19.7345 8.54247C19.731 8.53638 19.7275 8.53116 19.724 8.52507C19.7171 8.51288 19.7101 8.5007 19.7023 8.48764C19.6953 8.47633 19.6883 8.46501 19.6805 8.4537C19.6544 8.40757 19.6265 8.36319 19.597 8.3188C19.5752 8.28312 19.5517 8.24831 19.5299 8.21262C19.4803 8.13256 19.429 8.05336 19.3742 7.9759C19.3559 7.94892 19.3376 7.92281 19.3202 7.8967C19.3106 7.88278 19.3019 7.86972 19.2923 7.85667C19.2923 7.85667 19.2918 7.85609 19.2906 7.85493C19.2871 7.84796 19.2828 7.83926 19.2767 7.8323C19.2732 7.82795 19.2697 7.82185 19.2654 7.8175C19.2654 7.81663 19.2645 7.81663 19.2645 7.81576C19.2541 7.8001 19.2427 7.7853 19.2323 7.76964C19.214 7.74353 19.1957 7.71742 19.1775 7.69131C19.1514 7.65388 19.1252 7.61733 19.0974 7.58165C19.06 7.52856 19.0208 7.47634 18.9808 7.42499C18.9764 7.42064 18.9729 7.41542 18.9695 7.4102C18.9477 7.38061 18.9251 7.35102 18.9016 7.32143C18.8833 7.29793 18.8642 7.27269 18.8441 7.24919C18.8441 7.24832 18.8433 7.24832 18.8433 7.24832C18.8241 7.22308 18.8041 7.19871 18.785 7.17434C18.7693 7.1552 18.7545 7.13692 18.7397 7.11864C18.7345 7.11255 18.7293 7.10646 18.7249 7.10124C18.7249 7.10124 18.7243 7.10066 18.7232 7.0995C18.7232 7.0995 18.7197 7.09427 18.7188 7.09253C18.7084 7.07948 18.6988 7.06729 18.6866 7.05424C18.6796 7.04467 18.6718 7.03509 18.664 7.02552C18.6387 6.99506 18.6126 6.9646 18.5874 6.93414H18.5865C18.5865 6.93414 18.5822 6.92804 18.5778 6.92543C18.5709 6.91673 18.5639 6.9089 18.5578 6.90107C18.5543 6.89758 18.5517 6.8941 18.5491 6.89062C18.5413 6.87931 18.5308 6.86799 18.5204 6.85668C18.5073 6.84188 18.4951 6.82709 18.4821 6.81229H18.4812C18.4812 6.81229 18.4769 6.80707 18.4743 6.80446C18.4725 6.80272 18.4716 6.80185 18.4716 6.80098C18.4682 6.7975 18.4647 6.79315 18.4612 6.78967C18.4603 6.78879 18.4595 6.78705 18.4586 6.78618L18.4551 6.78183C18.4551 6.78183 18.4542 6.78096 18.4534 6.78009C18.4525 6.77835 18.4499 6.77661 18.449 6.77487C18.429 6.7505 18.4081 6.72439 18.3855 6.70089C18.3698 6.68349 18.3542 6.66608 18.3376 6.64868C18.3211 6.63127 18.3063 6.61386 18.2906 6.59733C18.2488 6.55033 18.2053 6.5042 18.1636 6.45895C18.1366 6.42936 18.1079 6.39977 18.08 6.37105C18.0704 6.36147 18.0617 6.3519 18.053 6.3432C18.0461 6.33536 18.0391 6.32753 18.0295 6.3197C18.0208 6.31012 18.0121 6.30055 18.0034 6.29185C17.9956 6.28314 17.9869 6.27531 17.979 6.26661C17.9782 6.26574 17.9773 6.26487 17.9764 6.26487L17.9381 6.22657C17.9068 6.19524 17.8755 6.16391 17.8442 6.13345H17.8433C17.8285 6.11779 17.8137 6.10299 17.7989 6.08907C17.7937 6.08384 17.7885 6.07949 17.7832 6.07427C17.7824 6.07253 17.7815 6.07166 17.7806 6.07079H17.7797C17.7589 6.0499 17.738 6.03075 17.7171 6.00987C17.691 5.98463 17.664 5.96026 17.6379 5.93502C17.6327 5.92893 17.6266 5.92284 17.6196 5.91761C17.6179 5.915 17.6144 5.91239 17.6118 5.90891C17.6118 5.90891 17.6118 5.90804 17.61 5.90717C17.6092 5.90543 17.6074 5.90369 17.6066 5.90369V5.90282C17.6066 5.90282 17.606 5.90253 17.6048 5.90195C17.6048 5.90195 17.6039 5.90108 17.6031 5.90021H17.6022C17.6022 5.90021 17.6005 5.8976 17.5996 5.89673C17.5952 5.8915 17.5909 5.88802 17.5865 5.88367H17.5857C17.5787 5.87671 17.5744 5.87236 17.5674 5.86627C17.5561 5.85669 17.5465 5.84625 17.5343 5.83668C17.5178 5.82014 17.5004 5.80447 17.483 5.78881C17.4778 5.78359 17.4717 5.77836 17.4656 5.77314C17.4525 5.76096 17.4395 5.74877 17.4247 5.73746C17.4073 5.72179 17.389 5.70613 17.3716 5.69046C17.3637 5.6835 17.3568 5.67741 17.3489 5.67132V5.66958C17.3376 5.66 17.3281 5.65043 17.3176 5.64173C17.2819 5.61039 17.2462 5.57906 17.2106 5.5486C17.1749 5.51814 17.1392 5.48768 17.1026 5.45722C17.0835 5.44068 17.0635 5.42415 17.0435 5.40761C17.0269 5.39456 17.0104 5.38063 16.9939 5.36671C16.8572 5.25444 16.7188 5.14565 16.5787 5.04121C16.5248 4.99944 16.4691 4.95853 16.4142 4.9185C16.3829 4.89587 16.3524 4.87411 16.322 4.85235C16.2671 4.81232 16.2123 4.77403 16.1566 4.73573C15.9434 4.58778 15.7276 4.44766 15.51 4.31537C15.4186 4.25793 15.3255 4.20223 15.2332 4.14914C15.1854 4.12129 15.1384 4.09431 15.0922 4.0682C15.0313 4.03339 14.9686 3.99945 14.9086 3.96551C14.906 3.96551 14.906 3.96203 14.9016 3.96203C14.6597 3.82887 14.4169 3.70702 14.1767 3.59214C14.0644 3.53731 13.9521 3.4851 13.8399 3.43723C13.6171 3.33366 13.3925 3.23967 13.1715 3.15438C13.0583 3.10912 12.9495 3.06648 12.8399 3.02644C12.7302 2.9838 12.6214 2.94463 12.5118 2.90808C11.9165 2.69833 11.3394 2.53472 10.7981 2.40678C10.7781 2.40243 10.7581 2.39721 10.7381 2.39286C10.7172 2.3885 10.6972 2.38415 10.6771 2.37893C10.6528 2.37197 10.6284 2.36675 10.6049 2.36152C10.5892 2.35804 10.5744 2.35456 10.5614 2.35195C10.3612 2.30669 10.1698 2.26753 9.98002 2.23098C9.92606 2.21879 9.87123 2.20922 9.81728 2.20052C9.76854 2.19094 9.72067 2.18137 9.67454 2.17354C9.63538 2.16657 9.59622 2.15961 9.55879 2.15439C9.2185 2.09695 8.90867 2.05169 8.63452 2.02123C8.59971 2.01688 8.56577 2.01253 8.53357 2.00905C8.5005 2.00557 8.46829 2.00209 8.43522 1.99947C8.39606 1.99338 8.35602 1.99077 8.31686 1.98729C8.25333 1.97859 8.19241 1.97511 8.13496 1.96901C7.9374 1.95161 7.76595 1.94203 7.63541 1.93594C7.58145 1.93333 7.53358 1.92985 7.49354 1.92724C7.3717 1.92376 7.30469 1.92376 7.30469 1.92376L7.58928 1.87502L10.5231 1.36763H10.5248L14.8155 0.628735H14.8207C15.0095 0.626124 15.1958 0.626124 15.3794 0.630476C15.5761 0.633087 15.7702 0.640919 15.9625 0.652233H15.9721C16.1653 0.663547 16.3559 0.678343 16.5439 0.695749C16.6388 0.704452 16.7336 0.714896 16.8268 0.72534C16.8973 0.733172 16.9669 0.741875 17.0365 0.750579C17.1758 0.767985 17.3133 0.788002 17.4499 0.80976C17.5178 0.821074 17.5857 0.832388 17.6536 0.843702C17.9242 0.889828 18.1888 0.943787 18.449 1.00558C18.5334 1.02473 18.617 1.04561 18.7005 1.0665C18.7066 1.06824 18.7127 1.06911 18.7197 1.07085C18.8015 1.09261 18.8824 1.11437 18.9634 1.13613C19.1331 1.18225 19.2993 1.23186 19.4638 1.28408C19.5456 1.31106 19.6274 1.33717 19.7092 1.36502C19.7902 1.39287 19.8711 1.42072 19.9512 1.44944C20.0112 1.4712 20.0713 1.49295 20.1305 1.51558C20.3089 1.5826 20.4847 1.65309 20.6579 1.72707C20.7353 1.76014 20.811 1.79408 20.8876 1.82802C20.9607 1.8611 21.0338 1.89417 21.1061 1.92811C21.1087 1.92985 21.1113 1.93072 21.113 1.93159C21.2584 2.00034 21.402 2.07084 21.5438 2.14395C21.6204 2.18398 21.697 2.22401 21.7727 2.26492C21.8267 2.29451 21.8798 2.32323 21.9329 2.35282C22.0399 2.412 22.1452 2.47292 22.2488 2.53472C22.301 2.56605 22.3532 2.59738 22.4046 2.62871C22.4733 2.67048 22.5412 2.71313 22.6091 2.75577C22.6692 2.79407 22.7292 2.83323 22.7884 2.87153C22.7962 2.87675 22.8032 2.88197 22.8101 2.88632C22.8772 2.93071 22.9433 2.97509 23.0086 3.02035C23.0669 3.05951 23.1243 3.09955 23.1818 3.14045C23.2584 3.19354 23.3332 3.24837 23.408 3.3032C23.5299 3.39284 23.6491 3.48423 23.7675 3.57648C23.831 3.62609 23.8946 3.67656 23.9572 3.72791C24.0181 3.77752 24.0782 3.82713 24.1382 3.87674C24.2096 3.93679 24.2801 3.99684 24.3506 4.05776C24.3976 4.09953 24.4455 4.14044 24.4916 4.18221C24.5499 4.23356 24.6073 4.28578 24.6639 4.338C24.7779 4.44244 24.8902 4.54862 25.0007 4.65566C25.0564 4.70962 25.1112 4.76358 25.1652 4.81754C25.2192 4.87237 25.2731 4.92633 25.3262 4.98116C25.3767 5.03251 25.4263 5.08473 25.4759 5.13608C25.4785 5.13956 25.482 5.14304 25.4855 5.14652C25.5377 5.20222 25.5899 5.25792 25.6413 5.31362C25.6926 5.37019 25.744 5.42589 25.7944 5.48246C25.838 5.53033 25.8806 5.57906 25.9232 5.62693C25.9824 5.69394 26.0407 5.76183 26.0991 5.82971C26.1469 5.88541 26.193 5.94111 26.2392 5.99681C26.287 6.05425 26.3349 6.11256 26.3819 6.17087C26.4289 6.22832 26.4759 6.28663 26.522 6.34581C26.5681 6.40412 26.6143 6.46243 26.6604 6.52161C26.7057 6.58079 26.7509 6.6391 26.7953 6.69828C26.9293 6.87583 27.059 7.05511 27.1861 7.23439C27.2278 7.29445 27.2696 7.3545 27.3114 7.41455C27.3523 7.4746 27.3932 7.53465 27.4341 7.5947C27.4741 7.65562 27.5142 7.71568 27.5542 7.77573C27.5942 7.83665 27.6334 7.8967 27.6726 7.95762C27.7117 8.01767 27.75 8.0786 27.7883 8.13865C27.864 8.25962 27.9389 8.38146 28.012 8.50244C28.0485 8.56336 28.0851 8.62341 28.1208 8.68433C28.1921 8.80531 28.2626 8.92628 28.3314 9.04725C28.3349 9.05421 28.3392 9.06118 28.3436 9.06814C28.4419 9.24307 28.5377 9.41713 28.6299 9.59033C28.6621 9.65038 28.6934 9.71043 28.7248 9.77048C28.757 9.83314 28.7892 9.89493 28.8214 9.95673C28.8814 10.0742 28.9397 10.1908 28.9972 10.3066C29.0555 10.425 29.1121 10.5433 29.1678 10.6599C29.2235 10.7774 29.2774 10.8941 29.3305 11.0098C29.3357 11.0211 29.341 11.0333 29.3471 11.0455C29.3888 11.1369 29.4297 11.2274 29.4689 11.3179L29.4846 11.3544C29.5098 11.411 29.5342 11.4676 29.5585 11.5242C29.5829 11.5807 29.6073 11.6373 29.6308 11.693C29.6786 11.8053 29.7239 11.9158 29.7691 12.0263C29.8135 12.136 29.8571 12.2448 29.8997 12.3518C29.9023 12.3588 29.9049 12.3657 29.9084 12.3727C29.9267 12.4197 29.9441 12.4658 29.9624 12.512C29.9824 12.565 30.0033 12.6181 30.0224 12.6704C30.0424 12.7234 30.0624 12.7748 30.0816 12.827C30.1199 12.9306 30.1573 13.0324 30.1939 13.1325C30.2113 13.183 30.2295 13.2326 30.247 13.2822C30.2548 13.3057 30.2635 13.3283 30.2713 13.3509C30.3122 13.4658 30.3505 13.579 30.3871 13.6895C30.4541 13.8871 30.515 14.0768 30.5716 14.2578C30.5846 14.3004 30.5986 14.3431 30.6116 14.3857C30.616 14.4014 30.6212 14.4179 30.6264 14.4336C30.6273 14.4371 30.6281 14.4406 30.6299 14.444C30.6308 14.4475 30.6316 14.451 30.6334 14.4545C30.6438 14.4893 30.6543 14.5232 30.6638 14.5563C30.6943 14.6573 30.723 14.7548 30.75 14.8496C30.7587 14.8809 30.7674 14.9114 30.7761 14.9419C30.7848 14.9723 30.7926 15.0028 30.8013 15.0324C30.8266 15.122 30.8501 15.2073 30.8718 15.2891C30.8892 15.3561 30.9066 15.4197 30.9223 15.4815C30.9319 15.5206 30.9423 15.5589 30.9519 15.5955C30.9858 15.7312 31.0146 15.8513 31.0389 15.9549C31.0442 15.9758 31.0485 15.9949 31.0529 16.0141C31.1007 16.2212 31.1268 16.3518 31.1347 16.3927C31.1347 16.3927 31.1347 16.3944 31.1347 16.397H31.1286Z" fill="#9538E1"/>
<path d="M7.26709 20.626C11.2806 20.626 14.5342 17.3724 14.5342 13.3589C14.5342 9.34539 11.2806 6.0918 7.26709 6.0918C3.25359 6.0918 0 9.34539 0 13.3589C0 17.3724 3.25359 20.626 7.26709 20.626Z" fill="#9538E1"/>
<path d="M31.4629 22.2808H14.504C17.0975 20.1746 18.7537 16.9606 18.7537 13.3601C18.7537 8.17912 15.3238 3.79885 10.6094 2.36719C10.6294 2.37154 10.6485 2.37589 10.6694 2.38024C10.6894 2.38546 10.7095 2.38982 10.7303 2.39417C10.7504 2.39852 10.7704 2.40374 10.7904 2.40809C11.3317 2.53603 11.9087 2.69965 12.504 2.90939C12.6137 2.94594 12.7225 2.98511 12.8321 3.02775C12.9418 3.06779 13.0506 3.11043 13.1637 3.15569C13.3848 3.24098 13.6093 3.33497 13.8321 3.43854C13.9444 3.48641 14.0567 3.53863 14.1689 3.59346C14.4092 3.70834 14.652 3.83018 14.8939 3.96334C14.8983 3.96334 14.8983 3.96682 14.9009 3.96682C14.9609 4.00076 15.0236 4.0347 15.0845 4.06952C15.1306 4.09562 15.1776 4.1226 15.2255 4.15045C15.3178 4.20354 15.4109 4.25924 15.5023 4.31668C15.7198 4.44897 15.9357 4.58909 16.1489 4.73704C16.2046 4.77534 16.2594 4.8145 16.3143 4.85367C16.3447 4.87542 16.3752 4.89718 16.4065 4.91981C16.4613 4.95984 16.517 5.00075 16.571 5.04252C16.7111 5.14696 16.8495 5.25575 16.9861 5.36802C17.0027 5.38194 17.0192 5.39587 17.0358 5.40892C17.0558 5.42546 17.0758 5.442 17.0949 5.45853C17.1315 5.48899 17.1672 5.51945 17.2028 5.54991C17.1315 5.48899 17.0584 5.42894 16.9853 5.36889C17.1054 5.46811 17.2246 5.56906 17.3421 5.67263C17.3673 5.69526 17.3926 5.71701 17.4178 5.73964C17.4004 5.72398 17.383 5.70744 17.3647 5.69178C17.3821 5.70744 17.4004 5.72311 17.4178 5.73877C17.4326 5.75009 17.4457 5.76227 17.4587 5.77445C17.4648 5.77968 17.4709 5.7849 17.4761 5.79012C17.4935 5.80579 17.5109 5.82145 17.5275 5.83799C17.5397 5.84756 17.5492 5.858 17.5605 5.86758C17.5675 5.87367 17.5719 5.87802 17.5788 5.88498H17.5797C17.584 5.88934 17.5884 5.89282 17.5928 5.89804C17.5928 5.89891 17.5945 5.89978 17.5954 5.90152H17.5962C17.5962 5.90152 17.5962 5.90239 17.598 5.90326C17.598 5.90413 17.5997 5.905 17.6006 5.90587C17.5988 5.90413 17.5971 5.90326 17.5954 5.90239C17.5988 5.90587 17.6023 5.90935 17.6058 5.91109C17.6041 5.90935 17.6032 5.90848 17.6015 5.90674C17.6015 5.90761 17.6032 5.90761 17.6041 5.90848C17.6049 5.90935 17.6049 5.90935 17.6058 5.91022C17.6058 5.91022 17.6119 5.91632 17.6136 5.91893C17.6206 5.92415 17.6267 5.93024 17.6319 5.93633C17.658 5.96157 17.685 5.98594 17.7111 6.01118C17.732 6.03207 17.7529 6.05121 17.7738 6.0721C17.7529 6.05208 17.7311 6.03207 17.7102 6.01205C17.732 6.03381 17.7546 6.05469 17.7764 6.07645C17.7973 6.0956 17.8173 6.11562 17.8373 6.13563C17.8173 6.11562 17.7973 6.0956 17.7773 6.07558C17.7825 6.0808 17.7877 6.08516 17.7929 6.09038C17.8077 6.1043 17.8225 6.1191 17.8373 6.13476H17.8382C17.8695 6.16522 17.9008 6.19656 17.9322 6.22789L17.9705 6.26618C17.9792 6.27488 17.9879 6.28359 17.9974 6.29316C18.0061 6.30186 18.0148 6.31144 18.0236 6.32101L18.0471 6.34451C18.0558 6.35321 18.0645 6.36278 18.074 6.37236C18.1019 6.40108 18.1306 6.43067 18.1576 6.46026C18.1994 6.50552 18.2429 6.55164 18.2846 6.59864C18.3003 6.61517 18.3151 6.63258 18.3316 6.64999C18.3621 6.6848 18.3934 6.72048 18.4248 6.7553C18.4309 6.76226 18.437 6.76922 18.443 6.77618C18.4439 6.77792 18.4465 6.77966 18.4474 6.7814C18.4474 6.78227 18.4491 6.78227 18.4491 6.78314L18.4526 6.7875C18.4526 6.7875 18.4544 6.79011 18.4552 6.79098C18.4578 6.79446 18.4605 6.79707 18.4631 6.80055C18.4596 6.79707 18.457 6.79446 18.4544 6.79185C18.5214 6.86844 18.5884 6.94676 18.6571 7.02944C18.698 7.07905 18.7381 7.12692 18.7781 7.17653C18.7581 7.15129 18.7389 7.12692 18.7189 7.10255C18.7233 7.10777 18.7285 7.11386 18.7337 7.11996C18.7485 7.13823 18.7633 7.15651 18.779 7.17565C18.7981 7.20002 18.8173 7.22352 18.8356 7.24789C18.8364 7.24789 18.8364 7.24789 18.8373 7.24963C18.8373 7.24963 18.8382 7.24963 18.8382 7.2505C18.8582 7.27574 18.8773 7.30098 18.8965 7.32709C18.9156 7.35059 18.9339 7.37322 18.9513 7.39671C18.9557 7.40107 18.96 7.40629 18.9635 7.41151C18.967 7.41673 18.9705 7.42195 18.9748 7.4263C19.0148 7.47765 19.054 7.52987 19.0914 7.58296C19.1193 7.61864 19.1454 7.6552 19.1715 7.69262C19.1898 7.71873 19.208 7.74484 19.2263 7.77095C19.2368 7.78661 19.2481 7.80141 19.2585 7.81707C19.2585 7.81794 19.2594 7.81794 19.2594 7.81881C19.2629 7.82491 19.2681 7.831 19.2716 7.83709C19.2768 7.84405 19.2803 7.85015 19.2846 7.85624C19.2846 7.85624 19.2852 7.85682 19.2864 7.85798C19.2959 7.87103 19.3047 7.88409 19.3142 7.89801C19.3316 7.92412 19.3499 7.95023 19.3682 7.97721C19.4152 8.04684 19.4604 8.11733 19.5066 8.1887C19.5127 8.19653 19.5187 8.20523 19.524 8.21394C19.5457 8.24962 19.5692 8.28443 19.591 8.32011C19.6206 8.3645 19.6484 8.40889 19.6745 8.45414C19.6928 8.4846 19.7102 8.51506 19.7276 8.54465C19.732 8.55162 19.7355 8.55858 19.7398 8.56554C19.7476 8.57947 19.7546 8.59339 19.7624 8.60732C19.7842 8.64039 19.806 8.6752 19.826 8.70914C19.8164 8.69174 19.806 8.67433 19.7955 8.65692C19.7981 8.66041 19.7999 8.66302 19.8016 8.6665C19.8103 8.68042 19.819 8.69435 19.8268 8.70827C19.8704 8.78225 19.9121 8.8571 19.953 8.93281C19.9574 8.94065 19.9617 8.94848 19.9652 8.95631C19.9696 8.96414 19.9739 8.97111 19.9774 8.97981C19.9696 8.96414 19.9609 8.94935 19.9522 8.93368C19.9722 8.97111 19.9922 9.0094 20.0122 9.04769C20.0427 9.10426 20.0731 9.16083 20.1036 9.21741C20.0923 9.19652 20.0818 9.17563 20.0714 9.15474C20.0827 9.17563 20.0932 9.19565 20.1045 9.21653C20.1254 9.25657 20.1454 9.2966 20.1654 9.33664C20.1715 9.34969 20.1776 9.36362 20.1845 9.37667C20.1854 9.37928 20.1871 9.38276 20.1889 9.38537C20.1941 9.39582 20.1985 9.40626 20.2046 9.41671C20.2072 9.4228 20.2098 9.42976 20.2133 9.43585C20.2254 9.45848 20.2368 9.48198 20.2481 9.50548C20.2507 9.50896 20.2524 9.51331 20.2542 9.51766C20.262 9.53246 20.269 9.54725 20.2759 9.56205C20.2794 9.56814 20.282 9.57423 20.2837 9.58032C20.3064 9.62819 20.3281 9.67606 20.349 9.72393C20.3525 9.73089 20.356 9.73698 20.3595 9.74307C20.3612 9.74568 20.3621 9.74829 20.3629 9.75003C20.3656 9.75439 20.3682 9.75874 20.3699 9.76309C20.3751 9.77614 20.3821 9.7892 20.3882 9.80225C20.3943 9.81531 20.3986 9.82836 20.4056 9.84142C20.4073 9.84577 20.4091 9.85012 20.4108 9.85447C20.4108 9.85534 20.4108 9.85534 20.4108 9.85621C20.4108 9.85708 20.4108 9.85708 20.4117 9.85882C20.4117 9.85882 20.4117 9.86056 20.4126 9.86143C20.4143 9.86492 20.416 9.8684 20.4169 9.87188C20.4169 9.87275 20.4169 9.87362 20.4186 9.87449C20.4186 9.87623 20.4204 9.87884 20.4213 9.88058C20.4239 9.88406 20.4256 9.88667 20.4256 9.89015C20.4317 9.90321 20.4369 9.91713 20.4421 9.93019C20.4535 9.9563 20.4639 9.98241 20.4761 10.0085C20.4761 10.0094 20.477 10.0103 20.477 10.0111C20.4839 10.0277 20.4909 10.0433 20.4978 10.0599C20.5222 10.1182 20.5475 10.1765 20.571 10.2357C20.5805 10.2583 20.5892 10.2809 20.5997 10.3044C20.6084 10.3271 20.6188 10.3497 20.6275 10.3732C20.6327 10.3862 20.6371 10.4002 20.6432 10.4132C20.6484 10.4271 20.6528 10.4402 20.658 10.4532C20.6597 10.4585 20.6623 10.4628 20.6649 10.468C20.6754 10.4942 20.6858 10.522 20.6963 10.549C20.6963 10.5525 20.6989 10.5551 20.6998 10.5586C20.7067 10.5786 20.7146 10.5977 20.7224 10.6177C20.7241 10.6221 20.725 10.6256 20.7267 10.6299C20.7328 10.6465 20.7389 10.6621 20.7441 10.6787C20.7598 10.7196 20.7746 10.7605 20.7903 10.8014C20.7955 10.8153 20.7998 10.8284 20.8051 10.8423C20.8103 10.8562 20.8155 10.871 20.8199 10.8849C20.8303 10.9136 20.8407 10.9415 20.8503 10.9702C20.8538 10.9815 20.8582 10.9928 20.8616 11.0042C20.8721 11.0355 20.8825 11.0677 20.8921 11.1008C20.9025 11.1286 20.9121 11.1573 20.9226 11.1869C20.926 11.1982 20.9295 11.2095 20.9339 11.2209C20.9443 11.2539 20.9548 11.287 20.9643 11.3201C20.9669 11.3279 20.9696 11.3357 20.9722 11.3436C20.9748 11.3497 20.9765 11.3566 20.9791 11.3636C20.9809 11.3706 20.9835 11.3775 20.9852 11.3836C20.9896 11.3923 20.9922 11.401 20.9939 11.4088C21.0009 11.4341 21.0096 11.4602 21.0166 11.4854C21.0183 11.4889 21.02 11.4933 21.02 11.4976C21.0209 11.502 21.0218 11.5063 21.0226 11.5107C21.0261 11.5237 21.0287 11.5368 21.0322 11.5498C21.0479 11.5968 21.0618 11.6447 21.0757 11.6926C21.0897 11.7413 21.1036 11.79 21.1175 11.8388C21.1192 11.8457 21.121 11.8518 21.1236 11.8588C21.128 11.8762 21.1323 11.8936 21.1375 11.911L21.1584 11.9893C21.1715 12.0398 21.1845 12.0912 21.1967 12.1425C21.2054 12.1712 21.2132 12.2008 21.2202 12.2304C21.2315 12.2731 21.242 12.3157 21.2515 12.3584C21.2533 12.3627 21.2541 12.3679 21.255 12.3723C21.2637 12.4106 21.2733 12.4497 21.2811 12.488C21.2855 12.5089 21.2898 12.5298 21.2942 12.5516C21.2994 12.5742 21.3038 12.5968 21.309 12.6194C21.3151 12.6447 21.3212 12.6708 21.3264 12.6969C21.3264 12.6995 21.3264 12.703 21.3281 12.7056C21.329 12.71 21.3299 12.7143 21.3316 12.7187C21.3351 12.7369 21.3394 12.7561 21.3438 12.7744C21.3542 12.8257 21.3655 12.8771 21.3751 12.9293C21.3838 12.9658 21.3908 13.0024 21.3969 13.0389C21.3995 13.0511 21.4021 13.0642 21.4047 13.0772C21.4065 13.0868 21.4073 13.0964 21.4091 13.106C21.4134 13.126 21.4169 13.146 21.4195 13.1669C21.4212 13.1738 21.423 13.1808 21.4239 13.1878C21.4273 13.2026 21.4308 13.2182 21.4334 13.2339C21.4378 13.2539 21.4413 13.2748 21.443 13.2957C21.4482 13.3157 21.4517 13.3357 21.4543 13.3557C21.4613 13.3949 21.4674 13.4358 21.4735 13.4758C21.4761 13.495 21.4796 13.515 21.4813 13.5341L21.4917 13.5968C21.4944 13.6125 21.497 13.6281 21.4987 13.6438C21.5222 13.797 21.544 13.9528 21.564 14.1112C21.577 14.2104 21.5883 14.3096 21.5997 14.4106C21.6101 14.5124 21.6214 14.6142 21.631 14.7169C21.6353 14.7787 21.6423 14.8405 21.6475 14.9023C21.6536 14.9797 21.6588 15.0572 21.6649 15.1346C21.6675 15.1738 21.671 15.2138 21.6728 15.2539C21.6754 15.2939 21.678 15.3339 21.6806 15.374C21.6858 15.4549 21.6902 15.5359 21.6945 15.6168C21.7102 15.9379 21.7172 16.2678 21.7172 16.6055C21.7172 16.8135 21.7145 17.0241 21.7085 17.2373C21.7058 17.3444 21.7006 17.4523 21.6971 17.5602C21.6928 17.6681 21.6876 17.7778 21.6815 17.8874C21.6745 17.998 21.6675 18.1085 21.6606 18.2199C21.6397 18.5541 21.6101 18.8944 21.5727 19.2425L31.1235 16.3983C31.1452 16.5028 31.6326 18.8448 31.4594 22.2808H31.4629Z" fill="#8038C5"/>
<path d="M17.3481 5.67114V5.67288C17.2315 5.56931 17.1123 5.46836 16.9922 5.36914C17.0653 5.42919 17.1384 5.48924 17.2098 5.55104C17.2263 5.56496 17.2428 5.57976 17.2594 5.59455C17.289 5.61979 17.3177 5.64503 17.3473 5.67114H17.3481Z" fill="#7C3DC3"/>
<path d="M17.3664 5.69102C17.3847 5.70669 17.4021 5.72322 17.4195 5.73889C17.3942 5.71626 17.369 5.6945 17.3438 5.67188C17.3516 5.67797 17.3585 5.68406 17.3664 5.69102Z" fill="#7C3DC3"/>
<path d="M17.608 5.90695C17.608 5.90695 17.6108 5.90972 17.6126 5.91156C17.6089 5.90972 17.6052 5.90603 17.6016 5.90234C17.6034 5.90327 17.6052 5.90419 17.6071 5.90603H17.608V5.90695Z" fill="#7C3DC3"/>
<path d="M17.778 6.0733C17.798 6.09332 17.818 6.11333 17.838 6.13335C17.818 6.11333 17.798 6.09332 17.7771 6.07417C17.7553 6.05241 17.7327 6.03152 17.7109 6.00977C17.7318 6.02978 17.7536 6.0498 17.7745 6.07069C17.7753 6.07069 17.7762 6.07243 17.7771 6.0733H17.778Z" fill="#7C3DC3"/>
<path d="M18.6559 7.03056C18.5872 6.94788 18.5201 6.86956 18.4531 6.79297C18.4557 6.79558 18.4583 6.79819 18.4618 6.80167C18.4618 6.80167 18.4627 6.80254 18.4636 6.80341C18.4636 6.80428 18.4644 6.80515 18.4662 6.80689C18.4688 6.8095 18.4705 6.81212 18.4731 6.81473C18.4845 6.82778 18.4958 6.84171 18.5071 6.85476C18.5175 6.86695 18.5288 6.88 18.5402 6.89305C18.5402 6.89305 18.5454 6.90002 18.5489 6.9035C18.555 6.91133 18.5619 6.91916 18.5689 6.927C18.5689 6.927 18.5741 6.93396 18.5767 6.93657C18.6019 6.9679 18.6272 6.99923 18.6533 7.03056H18.6559Z" fill="#7C3DC3"/>
<path d="M18.718 7.10349C18.7381 7.12785 18.7572 7.15222 18.7772 7.17746C18.7372 7.12785 18.6972 7.07999 18.6562 7.03125C18.6719 7.04866 18.6867 7.06606 18.7015 7.08347C18.7067 7.08956 18.7111 7.09478 18.7163 7.10088C18.7163 7.10088 18.7163 7.10262 18.718 7.10349Z" fill="#7C3DC3"/>
<path d="M19.7432 8.56321C19.7432 8.56321 19.745 8.56582 19.745 8.56756C19.7406 8.5606 19.7371 8.55364 19.7328 8.54667C19.7154 8.51708 19.698 8.48662 19.6797 8.45703C19.6875 8.46835 19.6945 8.47966 19.7014 8.49097C19.7093 8.50403 19.7162 8.51621 19.7232 8.5284C19.7267 8.53449 19.7302 8.53971 19.7336 8.5458C19.7354 8.54841 19.7371 8.55102 19.738 8.55364C19.738 8.55625 19.7406 8.55886 19.7423 8.56147C19.7423 8.56147 19.7432 8.56147 19.7432 8.56321Z" fill="#7C3DC3"/>
<path d="M19.7979 8.65779C19.8083 8.6752 19.8188 8.6926 19.8283 8.71001C19.8083 8.67607 19.7866 8.64125 19.7648 8.60818C19.757 8.59426 19.75 8.58033 19.7422 8.56641C19.7439 8.56815 19.7448 8.56989 19.7448 8.57076C19.7526 8.58294 19.7596 8.59513 19.7657 8.60731C19.7753 8.62037 19.784 8.63516 19.7927 8.64909C19.7927 8.64996 19.7927 8.64996 19.7927 8.65083C19.7944 8.65344 19.7953 8.65518 19.797 8.65779H19.7979Z" fill="#7C3DC3"/>
<path d="M20.1046 9.21732C20.0741 9.16075 20.0436 9.10417 20.0132 9.0476C19.9932 9.00931 19.9731 8.97102 19.9531 8.93359C19.9618 8.94926 19.9705 8.96405 19.9784 8.97972C19.9792 8.98146 19.981 8.98407 19.9818 8.98581C19.9862 8.99365 19.9905 9.00148 19.9949 9.01018C20.001 9.02237 20.008 9.03455 20.014 9.04673C20.0193 9.05631 20.0236 9.06501 20.0297 9.07458C20.041 9.09721 20.0532 9.11984 20.0654 9.1416C20.068 9.14595 20.0697 9.1503 20.0724 9.15465C20.0828 9.17554 20.0932 9.19643 20.1046 9.21732Z" fill="#7C3DC3"/>
<path d="M15.3686 0.630335C15.1824 0.626853 14.9944 0.626853 14.8047 0.629464H14.8099C14.9988 0.625983 15.185 0.625983 15.3686 0.630335Z" fill="url(#paint0_linear_1842_14260)"/>
<path d="M15.9581 0.65457C15.7658 0.644127 15.5717 0.636294 15.375 0.632812C15.5717 0.635423 15.7658 0.643256 15.9581 0.65457Z" fill="url(#paint1_linear_1842_14260)"/>
<path d="M18.4439 1.00758C18.1837 0.946659 17.9191 0.8927 17.6484 0.845703C17.9191 0.89183 18.1837 0.945789 18.4439 1.00758Z" fill="url(#paint2_linear_1842_14260)"/>
<path d="M19.4536 1.28467C19.2891 1.23245 19.122 1.18372 18.9531 1.13672C19.1228 1.18285 19.2891 1.23245 19.4536 1.28467Z" fill="url(#paint3_linear_1842_14260)"/>
<path d="M28.2359 5.10951C28.0488 4.8928 27.8556 4.67958 27.6562 4.4707C27.8556 4.67958 28.0496 4.8928 28.2359 5.10951Z" fill="url(#paint4_linear_1842_14260)"/>
<path d="M30.7424 14.8499C30.7146 14.7559 30.6858 14.6576 30.6562 14.5566C30.6867 14.6576 30.7154 14.7551 30.7424 14.8499Z" fill="url(#paint5_linear_1842_14260)"/>
<path d="M30.8596 15.2899C30.8369 15.2081 30.8134 15.1228 30.7891 15.0332C30.8143 15.1228 30.8378 15.2081 30.8596 15.2899Z" fill="url(#paint6_linear_1842_14260)"/>
<path d="M28.2359 5.10951C28.0488 4.8928 27.8556 4.67958 27.6562 4.4707C27.8556 4.67958 28.0496 4.8928 28.2359 5.10951Z" fill="#9538E1"/>
<path d="M35.8562 14.9902L34.2043 15.4828L33.7291 15.6238L33.3349 15.7413V15.737C33.3314 15.7187 33.3253 15.6908 33.3175 15.6517C33.3175 15.6473 33.3157 15.643 33.3149 15.6386C33.294 15.5394 33.2592 15.3784 33.2078 15.1669C33.1965 15.1199 33.1843 15.0694 33.1713 15.0172C33.1599 14.9737 33.1486 14.9276 33.1364 14.8806C33.0834 14.6743 33.0189 14.4358 32.9424 14.1695C32.9215 14.0982 32.8997 14.0242 32.8771 13.9493C32.8545 13.8719 32.8301 13.7918 32.8049 13.71C32.7866 13.65 32.7674 13.589 32.7474 13.5264C32.7378 13.495 32.7283 13.4646 32.7178 13.4324C32.6821 13.3218 32.6447 13.2087 32.6064 13.0921C32.5934 13.0538 32.5803 13.0138 32.5664 12.9746C32.5324 12.8728 32.4968 12.7692 32.4593 12.6639C32.4271 12.5708 32.3932 12.4759 32.3575 12.3793C32.3053 12.2348 32.2505 12.0877 32.1922 11.9372C32.039 11.5368 31.8675 11.1174 31.6769 10.6848C31.6412 10.6039 31.6047 10.5221 31.5673 10.4402C31.5307 10.3576 31.4924 10.2758 31.4541 10.1931C31.4158 10.1104 31.3767 10.0269 31.3366 9.9433C31.3175 9.9024 31.2975 9.86062 31.2766 9.81972C31.2322 9.72659 31.1861 9.6326 31.1382 9.53861C31.0242 9.30797 30.9041 9.0756 30.7779 8.84323C30.7518 8.79449 30.7248 8.74488 30.6978 8.69528C30.5986 8.51599 30.4977 8.33584 30.3924 8.15568C30.0573 7.58128 29.6883 7.006 29.2818 6.4403C29.2314 6.36981 29.18 6.29931 29.1278 6.22882C29.0764 6.15832 29.0242 6.0887 28.9703 6.0182C28.918 5.94858 28.8641 5.87895 28.8093 5.80933C28.7553 5.7397 28.7005 5.67008 28.6448 5.60132C28.5116 5.43509 28.375 5.27147 28.2348 5.10873C28.0486 4.89202 27.8545 4.67879 27.6552 4.46992C27.4472 4.25234 27.2331 4.03824 27.0103 3.83111C26.9729 3.79456 26.9355 3.75974 26.8972 3.72493C26.8467 3.6788 26.7962 3.63181 26.744 3.58655C26.6883 3.5352 26.6317 3.4856 26.5743 3.43686C26.5177 3.38638 26.4603 3.33764 26.4028 3.2889C26.2871 3.19143 26.1696 3.09483 26.0504 3.00083C25.932 2.90597 25.811 2.81284 25.6874 2.72146C25.5656 2.63008 25.4403 2.54044 25.3141 2.45254C25.1905 2.36638 25.0652 2.28196 24.9381 2.20015C24.811 2.11747 24.6822 2.0374 24.5517 1.9582C24.4864 1.91904 24.4203 1.87987 24.3541 1.84158C24.2218 1.76499 24.0869 1.69014 23.9512 1.61704C23.8145 1.54393 23.677 1.47344 23.5369 1.40468C23.3968 1.33593 23.2549 1.26891 23.1113 1.20538C23.04 1.17318 22.9677 1.14098 22.8946 1.11052C22.7493 1.04785 22.6013 0.987803 22.4525 0.930362C22.3777 0.901642 22.3019 0.873792 22.2271 0.845942C22.0757 0.791113 21.9225 0.738024 21.7667 0.688416C21.6892 0.663177 21.6109 0.638808 21.5326 0.61531C21.4543 0.590941 21.3751 0.568313 21.295 0.545685C21.2358 0.528279 21.1749 0.511743 21.1148 0.496077C21.0792 0.486504 21.0426 0.47693 21.0069 0.467357C20.765 0.404695 20.5195 0.348124 20.2689 0.297646C20.201 0.284592 20.1331 0.270667 20.0644 0.258482C19.8198 0.213226 19.5709 0.174062 19.3176 0.14099C19.3002 0.138379 19.282 0.135768 19.2637 0.134028C19.1845 0.123584 19.1044 0.114011 19.0243 0.105308C19.0191 0.104437 19.013 0.104437 19.0078 0.103567C19.5648 0.0365531 20.1253 0 20.6858 0C20.899 0 21.1131 0.00522187 21.3272 0.0165359C34.4036 0.696249 35.857 14.9902 35.857 14.9902H35.8562Z" fill="#9538E1"/>
<path d="M33.3336 15.7404L32.0185 16.1329L31.1265 16.3983V16.3949C31.1186 16.3531 31.0925 16.2225 31.0447 16.0154C31.0403 15.9963 31.036 15.9771 31.0307 15.9562C31.0064 15.8527 30.9777 15.7326 30.9437 15.5968C30.9341 15.5602 30.9237 15.5219 30.9141 15.4828C30.8985 15.421 30.881 15.3575 30.8636 15.2904C30.8419 15.2086 30.8184 15.1233 30.7931 15.0337C30.7844 15.0041 30.7766 14.9736 30.7679 14.9432C30.7592 14.9127 30.7505 14.8823 30.7418 14.8509C30.7148 14.7561 30.6861 14.6586 30.6556 14.5576C30.6461 14.5246 30.6356 14.4906 30.6252 14.4558C30.6234 14.4523 30.6226 14.4488 30.6217 14.4454C30.62 14.4419 30.6191 14.4384 30.6182 14.4349C30.613 14.4193 30.6078 14.4027 30.6034 14.3871C30.5904 14.3444 30.5764 14.3018 30.5634 14.2591C30.5068 14.0781 30.4459 13.8884 30.3789 13.6908C30.3423 13.5803 30.304 13.4671 30.2631 13.3523C30.2553 13.3296 30.2466 13.307 30.2388 13.2835C30.2214 13.2339 30.2031 13.1843 30.1857 13.1338C30.1491 13.0337 30.1117 12.9319 30.0734 12.8283C30.0543 12.7761 30.0342 12.7248 30.0142 12.6717C29.9951 12.6195 29.9742 12.5664 29.9542 12.5133C29.9359 12.4672 29.9185 12.421 29.9002 12.374C29.8967 12.3671 29.8941 12.3601 29.8915 12.3531C29.8489 12.2461 29.8053 12.1373 29.761 12.0276C29.7157 11.9171 29.6704 11.8066 29.6226 11.6943C29.5991 11.6386 29.5747 11.582 29.5503 11.5255C29.526 11.4689 29.5016 11.4123 29.4764 11.3558L29.4607 11.3192C29.4215 11.2287 29.3806 11.1382 29.3389 11.0468C29.3328 11.0346 29.3275 11.0224 29.3223 11.0111C29.2692 10.8954 29.2153 10.7787 29.1596 10.6613C29.1039 10.5446 29.0473 10.4263 28.989 10.3079C28.9316 10.1922 28.8732 10.0755 28.8132 9.95805C28.781 9.89625 28.7488 9.83446 28.7166 9.7718C28.6853 9.71175 28.6539 9.6517 28.6217 9.59164C28.5295 9.41845 28.4337 9.24439 28.3354 9.06946C28.331 9.0625 28.3267 9.05553 28.3232 9.04857C28.2544 8.9276 28.184 8.80662 28.1126 8.68565C28.0769 8.62473 28.0404 8.56468 28.0038 8.50376C27.9307 8.38278 27.8558 8.26094 27.7801 8.13997C27.7418 8.07991 27.7035 8.01899 27.6644 7.95894C27.6252 7.89802 27.5861 7.83797 27.546 7.77705C27.506 7.717 27.4659 7.65694 27.4259 7.59602C27.385 7.53597 27.3441 7.47592 27.3032 7.41587C27.2614 7.35582 27.2196 7.29576 27.1779 7.23571C27.0508 7.05643 26.9211 6.87715 26.7871 6.6996C26.7427 6.64042 26.6975 6.58211 26.6522 6.52293C26.6061 6.46375 26.56 6.40544 26.5138 6.34713C26.4677 6.28794 26.4207 6.22963 26.3737 6.17219C26.3267 6.11388 26.2788 6.05557 26.231 5.99813C26.1848 5.94243 26.1387 5.88673 26.0909 5.83103C26.0325 5.76315 25.9742 5.69526 25.9151 5.62825C25.8724 5.58038 25.8298 5.53164 25.7862 5.48378C25.7358 5.42721 25.6844 5.37151 25.6331 5.31494C25.5817 5.25924 25.5295 5.20354 25.4773 5.14784C25.4738 5.14436 25.4703 5.14087 25.4677 5.13739C25.4181 5.08605 25.3685 5.03383 25.318 4.98248C25.2649 4.92765 25.211 4.87369 25.157 4.81886C25.1031 4.7649 25.0482 4.71094 24.9925 4.65698C24.882 4.54993 24.7697 4.44376 24.6557 4.33932C24.5991 4.2871 24.5417 4.23488 24.4834 4.18353C24.4373 4.14176 24.3894 4.10085 24.3424 4.05908C24.2719 3.99816 24.2014 3.93811 24.13 3.87805C24.07 3.82845 24.0099 3.77884 23.949 3.72923C23.8864 3.67788 23.8228 3.6274 23.7593 3.5778C23.6409 3.48554 23.5217 3.39416 23.3999 3.30452C23.325 3.24969 23.2502 3.19486 23.1736 3.14177C23.1161 3.10087 23.0587 3.06083 23.0004 3.02167C22.9351 2.97641 22.869 2.93203 22.802 2.88764C22.795 2.88329 22.788 2.87807 22.7802 2.87284C22.721 2.83455 22.661 2.79539 22.6009 2.75709C22.533 2.71445 22.4651 2.6718 22.3964 2.63003C22.345 2.5987 22.2928 2.56737 22.2406 2.53603C22.137 2.47424 22.0317 2.41332 21.9247 2.35414C21.8716 2.32455 21.8185 2.29583 21.7645 2.26624C21.6888 2.22533 21.6122 2.1853 21.5357 2.14526C21.3938 2.07216 21.2502 2.00166 21.1048 1.93291C21.1031 1.93204 21.1005 1.93117 21.0979 1.92943C21.0256 1.89549 20.9525 1.86241 20.8794 1.82934C20.8028 1.7954 20.7271 1.76146 20.6497 1.72839C20.4765 1.65441 20.3007 1.58391 20.1223 1.5169C20.0631 1.49427 20.003 1.47251 19.943 1.45076C19.8629 1.42204 19.782 1.39419 19.701 1.36634C19.6192 1.33849 19.5374 1.31238 19.4556 1.2854C19.2911 1.23318 19.1249 1.18357 18.9552 1.13744C18.8742 1.11569 18.7933 1.09393 18.7115 1.07217C18.7045 1.07043 18.6984 1.06956 18.6923 1.06782C18.6088 1.04693 18.5252 1.02605 18.4408 1.0069C18.1806 0.945106 17.916 0.891147 17.6454 0.845021C17.5775 0.833706 17.5096 0.822392 17.4417 0.811078C17.3051 0.789321 17.1676 0.769304 17.0283 0.751897C16.9587 0.743194 16.8891 0.734491 16.8186 0.726658C16.7254 0.716215 16.6306 0.705771 16.5357 0.697068C16.3477 0.679661 16.1571 0.664866 15.9639 0.653552H15.9543C15.762 0.642238 15.5679 0.634405 15.3712 0.631794C15.1876 0.627443 15.0014 0.627443 14.8125 0.630054L15.252 0.554337L19.0065 0.103516C19.0117 0.104386 19.0178 0.104386 19.0231 0.105256C19.1031 0.113959 19.1832 0.123533 19.2624 0.133976C19.2807 0.135717 19.299 0.138328 19.3164 0.140939C19.5696 0.174011 19.8185 0.213175 20.0631 0.258431C20.1318 0.270615 20.1997 0.28454 20.2676 0.297595C20.5183 0.348073 20.7637 0.404643 21.0056 0.467306C21.0413 0.476879 21.0779 0.486452 21.1135 0.496026C21.1736 0.511691 21.2345 0.528227 21.2937 0.545634C21.3738 0.568262 21.453 0.59089 21.5313 0.615258C21.6096 0.638757 21.688 0.663126 21.7654 0.688365C21.9212 0.738843 22.0744 0.791061 22.2258 0.845891C22.3007 0.873741 22.3764 0.901591 22.4512 0.930311C22.6 0.988622 22.748 1.0478 22.8933 1.11047C22.9664 1.14093 23.0387 1.17313 23.11 1.20533C23.2536 1.26973 23.3955 1.33588 23.5356 1.40463C23.6757 1.47338 23.8133 1.54388 23.9499 1.61699C24.0857 1.69009 24.2206 1.76494 24.3528 1.84153C24.419 1.87982 24.4851 1.91898 24.5504 1.95815C24.681 2.03735 24.8098 2.11741 24.9368 2.20009C25.0639 2.28277 25.1892 2.36632 25.3128 2.45248C25.439 2.54039 25.5643 2.63003 25.6862 2.72141C25.8097 2.81279 25.9307 2.90592 26.0491 3.00078C26.1683 3.09477 26.2858 3.19138 26.4016 3.28885C26.459 3.33759 26.5164 3.3872 26.573 3.43681C26.6305 3.48641 26.687 3.53602 26.7427 3.5865C26.7949 3.63176 26.8454 3.67875 26.8959 3.72488C26.9342 3.75969 26.9716 3.79537 27.009 3.83106C27.2318 4.03819 27.4459 4.25229 27.6539 4.46987C27.8532 4.67874 28.0464 4.89197 28.2336 5.10867C28.3737 5.27142 28.5103 5.43504 28.6435 5.60127C28.6992 5.67002 28.754 5.73965 28.808 5.80927C28.8628 5.87803 28.9159 5.94852 28.969 6.01815C29.0221 6.08777 29.0752 6.15827 29.1265 6.22876C29.1787 6.29926 29.2301 6.36975 29.2805 6.44025C29.687 7.00595 30.056 7.58123 30.3911 8.15563C30.4964 8.33579 30.5973 8.51594 30.6965 8.69522C30.7235 8.74483 30.7505 8.79444 30.7766 8.84318C30.9028 9.07555 31.0229 9.30792 31.1369 9.53856C31.1848 9.63255 31.2309 9.72654 31.2753 9.81967C31.2962 9.86057 31.3162 9.90235 31.3354 9.94325C31.3754 10.0268 31.4145 10.1104 31.4528 10.193C31.4911 10.2757 31.5294 10.3575 31.566 10.4402C31.6034 10.522 31.64 10.6038 31.6756 10.6848C31.8662 11.1173 32.0377 11.5368 32.1909 11.9371C32.2483 12.0877 32.3031 12.2348 32.3562 12.3793C32.391 12.4759 32.425 12.5707 32.4581 12.6638C32.4955 12.7691 32.5312 12.8727 32.5651 12.9745C32.579 13.0137 32.5921 13.0537 32.6051 13.092C32.6434 13.2087 32.6809 13.3218 32.7165 13.4323C32.727 13.4645 32.7366 13.495 32.7461 13.5263C32.7653 13.589 32.7844 13.6499 32.8036 13.71C32.8288 13.7918 32.8532 13.8718 32.8758 13.9493C32.8984 14.0241 32.9202 14.0981 32.9411 14.1695C33.0177 14.4358 33.0821 14.6743 33.1352 14.8805C33.1473 14.9275 33.1587 14.9736 33.17 15.0172C33.183 15.0694 33.1952 15.1199 33.2065 15.1669C33.2579 15.3783 33.2927 15.5393 33.3136 15.6386C33.3144 15.6429 33.3153 15.6473 33.3162 15.6516C33.324 15.6908 33.3301 15.7186 33.3336 15.7369V15.7404Z" fill="white"/>
<path d="M61.6181 19.421H45.3017C44.5053 19.421 43.8594 18.7751 43.8594 17.9787V17.925C43.8594 17.1286 44.5053 16.4826 45.3017 16.4826H61.6172C62.4289 16.4826 63.0863 17.1401 63.0863 17.9518C63.0863 18.7636 62.4289 19.421 61.6172 19.421H61.6181ZM61.3555 4.65817C61.3555 7.68856 61.3555 10.6269 60.3531 15.3882L56.7083 15.046C57.0955 13.4743 57.3466 12.0616 57.5057 10.763L47.0287 11.2489C46.2898 11.2834 45.6448 10.7525 45.5346 10.0213C45.4072 9.16734 46.0531 8.39297 46.9166 8.36518L57.7338 8.02879C57.7683 7.03782 57.7789 6.10341 57.7789 5.18145H47.4207C46.6243 5.18145 45.9783 4.5355 45.9783 3.73909V3.73142C45.9783 2.93501 46.6243 2.28906 47.4207 2.28906H61.3555V4.65817Z" fill="#9438E0"/>
<path d="M71.1179 11.0153H68.0463V13.8857C69.3276 13.8694 70.5611 13.8119 71.8338 13.6566C72.659 13.556 73.4094 14.1425 73.4995 14.9686C73.5867 15.7679 73.0203 16.4944 72.2239 16.6017C70.1768 16.8768 68.238 16.8921 66.0883 16.8921C65.2325 16.8921 64.5396 16.1982 64.5396 15.3434V9.73877C64.5396 8.88294 65.2335 8.19003 66.0883 8.19003H68.4344V5.43374H65.9513C65.1587 5.43374 64.5156 4.79067 64.5156 3.99809C64.5156 3.20551 65.1587 2.56244 65.9513 2.56244H71.1543C71.5904 2.56244 71.9431 2.91608 71.9431 3.35118V10.1902C71.9431 10.6454 71.5741 11.0144 71.1188 11.0144L71.1179 11.0153ZM76.2596 20.7199C75.3223 20.7199 74.5623 19.9599 74.5623 19.0226V10.4911H72.7395V7.55271H74.5623V2.61994C74.5623 1.68265 75.3223 0.922655 76.2596 0.922655C77.1969 0.922655 77.9569 1.68265 77.9569 2.61994V19.0226C77.9569 19.9599 77.1969 20.7199 76.2596 20.7199ZM80.6336 21.6773C79.6839 21.6773 78.9133 20.9067 78.9133 19.957V2.3238C78.9133 1.37405 79.6839 0.603516 80.6336 0.603516C81.5834 0.603516 82.3539 1.37405 82.3539 2.3238V19.957C82.3539 20.9067 81.5834 21.6773 80.6336 21.6773Z" fill="#9438E0"/>
<path d="M101.051 18.4418C97.5655 17.4604 96.4845 15.4334 96.4845 13.7265V13.4525H92.6787V13.7265C92.6787 15.4143 91.5785 17.4748 88.1236 18.4513C87.4364 18.6449 86.9994 19.2631 86.9994 19.9196C86.9994 20.1438 87.0492 20.3729 87.1594 20.5924C87.4671 21.2086 88.1571 21.5469 88.8309 21.3964C91.6006 20.7783 93.4675 19.4864 94.5696 17.8485C95.6488 19.5104 97.53 20.7994 100.35 21.406C101.016 21.5488 101.696 21.2201 102.009 20.6134L102.013 20.6087C102.457 19.7442 101.987 18.7034 101.051 18.4408V18.4418ZM97.0192 10.5035C96.9521 9.68028 96.2123 9.07075 95.3938 9.18096C93.5461 9.43206 91.5929 9.52502 88.943 9.53461V5.09157H93.8087C94.2073 5.09157 94.5706 4.9296 94.8303 4.66892C95.0929 4.40633 95.2549 4.0431 95.2549 3.64442C95.2549 2.84513 94.606 2.19727 93.8077 2.19727H87.2112C86.1675 2.19727 85.3203 3.04447 85.3203 4.08814V10.5582C85.3203 11.0814 85.5331 11.5539 85.8743 11.8951C86.2183 12.2363 86.6908 12.449 87.2112 12.449C91.0217 12.449 93.478 12.4011 95.803 12.0484C96.5094 11.9382 97.0231 11.3249 97.0231 10.6185C97.0231 10.5802 97.0202 10.5419 97.0183 10.5035H97.0192Z" fill="#9438E0"/>
<path d="M101.948 2.43689V13.0078C101.948 14.0198 101.127 14.8412 100.115 14.8412C99.1026 14.8412 98.2812 14.0198 98.2812 13.0078V2.43689C98.2812 1.42485 99.1026 0.603516 100.115 0.603516C100.621 0.603516 101.079 0.808608 101.411 1.14021C101.743 1.47181 101.948 1.93087 101.948 2.43689Z" fill="#9438E0"/>
<path d="M104.941 9.69531C106.078 9.69531 107 8.77365 107 7.63672C107 6.49979 106.078 5.57812 104.941 5.57812C103.804 5.57812 102.883 6.49979 102.883 7.63672C102.883 8.77365 103.804 9.69531 104.941 9.69531Z" fill="#8038C4"/>
<defs>
<linearGradient id="paint0_linear_1842_14260" x1="14.8047" y1="0.628594" x2="15.3686" y2="0.628594" gradientUnits="userSpaceOnUse">
<stop stop-color="#E5E5E5"/>
<stop offset="1" stop-color="white"/>
</linearGradient>
<linearGradient id="paint1_linear_1842_14260" x1="15.375" y1="0.644127" x2="15.9581" y2="0.644127" gradientUnits="userSpaceOnUse">
<stop stop-color="#E5E5E5"/>
<stop offset="1" stop-color="white"/>
</linearGradient>
<linearGradient id="paint2_linear_1842_14260" x1="17.6484" y1="0.926642" x2="18.4439" y2="0.926642" gradientUnits="userSpaceOnUse">
<stop stop-color="#E5E5E5"/>
<stop offset="1" stop-color="white"/>
</linearGradient>
<linearGradient id="paint3_linear_1842_14260" x1="18.9531" y1="1.2107" x2="19.4536" y2="1.2107" gradientUnits="userSpaceOnUse">
<stop stop-color="#E5E5E5"/>
<stop offset="1" stop-color="white"/>
</linearGradient>
<linearGradient id="paint4_linear_1842_14260" x1="27.6562" y1="4.79011" x2="28.2359" y2="4.79011" gradientUnits="userSpaceOnUse">
<stop stop-color="#E5E5E5"/>
<stop offset="1" stop-color="white"/>
</linearGradient>
<linearGradient id="paint5_linear_1842_14260" x1="30.6562" y1="14.7029" x2="30.7424" y2="14.7029" gradientUnits="userSpaceOnUse">
<stop stop-color="#E5E5E5"/>
<stop offset="1" stop-color="white"/>
</linearGradient>
<linearGradient id="paint6_linear_1842_14260" x1="30.7891" y1="15.1611" x2="30.8596" y2="15.1611" gradientUnits="userSpaceOnUse">
<stop stop-color="#E5E5E5"/>
<stop offset="1" stop-color="white"/>
</linearGradient>
</defs>
</svg>
