<svg width="24" height="24" viewBox="0 0 24 24" fill="none" xmlns="http://www.w3.org/2000/svg">
<g clip-path="url(#clip0_3331_21136)">
<path d="M12 24C18.6274 24 24 18.6274 24 12C24 5.37258 18.6274 0 12 0C5.37258 0 0 5.37258 0 12C0 18.6274 5.37258 24 12 24Z" fill="white"/>
<path d="M19.35 10.53H18.75V10.5H12V13.5H16.245C15.63 15.24 13.965 16.5 12 16.5C9.51 16.5 7.5 14.49 7.5 12C7.5 9.51 9.51 7.5 12 7.5C13.14 7.5 14.19 7.935 14.985 8.64L17.1 6.525C15.765 5.28 13.965 4.5 12 4.5C7.86 4.5 4.5 7.86 4.5 12C4.5 16.14 7.86 19.5 12 19.5C16.14 19.5 19.5 16.14 19.5 12C19.5 11.49 19.455 11.01 19.35 10.53Z" fill="#FFC107"/>
<path d="M5.37012 8.50499L7.83012 10.305C8.49012 8.65498 10.1101 7.48498 12.0001 7.48498C13.1401 7.48498 14.1901 7.91999 14.9851 8.62499L17.1001 6.50999C15.7651 5.26499 13.9651 4.48499 12.0001 4.48499C9.12012 4.48499 6.61512 6.10498 5.37012 8.48998V8.50499Z" fill="#FF3D00"/>
<path d="M12 19.5C13.935 19.5 15.705 18.765 17.025 17.55L14.7 15.585C13.95 16.155 13.005 16.5 12 16.5C10.05 16.5 8.39995 15.255 7.76995 13.515L5.32495 15.405C6.56995 17.835 9.08995 19.5 12 19.5Z" fill="#4CAF50"/>
<path d="M19.35 10.53H18.75V10.5H12V13.5H16.245C15.945 14.34 15.405 15.06 14.715 15.585L17.04 17.55C16.875 17.7 19.515 15.75 19.515 12C19.515 11.49 19.47 11.01 19.365 10.53H19.35Z" fill="#1976D2"/>
</g>
<defs>
<clipPath id="clip0_3331_21136">
<rect width="24" height="24" fill="white"/>
</clipPath>
</defs>
</svg>
