<svg width="16" height="16" viewBox="0 0 16 16" fill="none" xmlns="http://www.w3.org/2000/svg">
<path d="M14.7586 1H1.24139C1.10809 1 1 1.16498 1 1.36844V14.6316C1 14.835 1.10809 15 1.24139 15H14.7586C14.8919 15 15 14.835 15 14.6316V1.36844C15 1.16498 14.8919 1 14.7586 1Z" fill="#464655"/>
<path d="M7.89292 2.09375L8.35671 4.51657L9.71229 2.45567L9.21361 4.87153L11.2547 3.48624L9.86947 5.52738L12.2853 5.02866L10.2244 6.38429L12.6472 6.84803L10.2244 7.31178L12.2853 8.66741L9.86947 8.16869L11.2547 10.2098L9.21361 8.82454L9.71229 11.2404L8.35671 9.1795L7.89292 11.6023L7.42921 9.1795L6.07354 11.2404L6.5723 8.82454L4.53116 10.2098L5.91645 8.16869L3.50059 8.66741L5.56149 7.31178L3.13867 6.84803L5.56149 6.38429L3.50059 5.02866L5.91645 5.52738L4.53116 3.48624L6.5723 4.87153L6.07354 2.45567L7.42921 4.51657L7.89292 2.09375Z" fill="#F8CB32"/>
<path d="M4.1265 10.1556H11.8738L13.9397 7.26172H2.06055L4.1265 10.1556Z" fill="#4173CD"/>
<path d="M4.09766 10.1562L7.9444 15.5306L11.7912 10.1562H4.09766Z" fill="white"/>
<path d="M1 5.17492V14.7344C1 14.8811 1.10809 15 1.24139 15H8L1.06284 5C1.02488 5.0469 1 5.10718 1 5.17492Z" fill="#FF334B"/>
<path d="M8 15H14.7586C14.8919 15 15 14.8811 15 14.7344V5.17495C15 5.10721 14.9751 5.04693 14.9372 5L8 15Z" fill="#FF334B"/>
</svg>
