<svg width="16" height="16" viewBox="0 0 16 16" fill="none" xmlns="http://www.w3.org/2000/svg">
<path d="M15 8H1V1.36844C1 1.16498 1.10809 1 1.24139 1H14.7586C14.8919 1 15 1.16498 15 1.36844L15 8Z" fill="#FF334B"/>
<path d="M1 8H15V14.6316C15 14.835 14.8919 15 14.7586 15H1.24139C1.10809 15 1 14.835 1 14.6316V8Z" fill="#464655"/>
<path d="M7.01159 3.88392L7.32086 4.81111L8.29826 4.81869C8.37399 4.81925 8.4054 4.91594 8.34448 4.96087L7.55819 5.54149L7.85301 6.4734C7.87586 6.54559 7.79362 6.60528 7.73204 6.56132L6.93683 5.99295L6.14163 6.56132C6.07999 6.60539 5.99781 6.54559 6.02066 6.4734L6.31548 5.54149L5.52919 4.96087C5.46832 4.91589 5.49968 4.81925 5.57541 4.81869L6.55281 4.81111L6.86208 3.88392C6.88606 3.81213 6.98766 3.81213 7.01159 3.88392Z" fill="#F8CB32"/>
<path d="M11.1917 11.7551C11.1917 11.7551 5.59629 7.53398 5.4311 7.39523C5.17579 7.1808 4.97878 6.80159 4.96935 6.33984C4.96935 6.33984 4.36593 6.95797 4.48408 7.59782C4.62073 8.33748 5.04477 8.60136 5.59132 8.9594C5.9754 9.21103 9.02868 11.1367 10.8111 12.2601L11.1917 11.7551Z" fill="#F8CB32"/>
<path d="M12.8658 12.9939C12.7928 12.9418 12.2068 12.5086 11.3937 11.9062L11.0986 12.4428C11.6956 12.8189 12.0931 13.0693 12.0931 13.0693C12.0931 13.0693 12.1496 13.8043 12.7433 13.6818C12.9573 13.6376 13.1296 13.1824 12.8658 12.9939Z" fill="#F8CB32"/>
<path d="M8.03463 11.0443C7.61161 11.1932 7.15863 11.2783 6.68473 11.2783C5.48363 11.2783 4.40749 10.7551 3.6624 9.92773L3 10.5239C3.22201 10.7704 3.45909 11.0028 3.72629 11.2011L3.5944 11.4296L4.57365 11.9949L4.70328 11.7703C5.14566 11.9627 5.62125 12.0922 6.11938 12.1486V12.4091H7.25014V12.1486C7.74826 12.0922 8.22385 11.9627 8.66623 11.7703L8.79586 11.9949L9.18501 11.7702C8.80498 11.5306 8.41568 11.285 8.03463 11.0443Z" fill="#F8CB32"/>
<path d="M11.6259 6.64218C11.5695 6.14405 11.44 5.66847 11.2477 5.22614L11.4722 5.09651L10.9069 4.11721L10.6784 4.24909C10.3859 3.85503 10.0375 3.50656 9.64336 3.2141L9.77525 2.98563L8.796 2.42028L8.66637 2.64485C8.29941 2.48525 7.90867 2.37191 7.5021 2.30469L7.35352 3.19642C9.28291 3.51599 10.7557 5.18761 10.7557 7.20759C10.7557 8.29525 10.3265 9.28085 9.63142 10.0111C9.87183 10.1927 10.1104 10.3728 10.3463 10.5509C10.4606 10.4258 10.5771 10.3026 10.6785 10.1661L10.9069 10.298L11.4723 9.31872L11.2477 9.18909C11.4401 8.7467 11.5696 8.27112 11.626 7.77304H11.8864V6.64228H11.6259L11.6259 6.64218Z" fill="#F8CB32"/>
</svg>
