<svg width="16" height="16" viewBox="0 0 16 16" fill="none" xmlns="http://www.w3.org/2000/svg">
<g clip-path="url(#clip0_5367_192938)">
<rect x="2" y="1" width="14" height="14" rx="2" fill="white"/>
<path d="M5.11816 1.00004L7.32507 1.87504L5.11816 2.75004L7.32507 3.62503L5.11816 4.50003L7.32507 5.37503L5.11816 6.25003L7.32507 7.12502L5.11816 8.00002L7.32507 8.87502L5.11816 9.75002L7.32507 10.625L5.11816 11.5L7.32507 12.375L5.11816 13.25L7.32507 14.125L5.11816 15H16.4285C16.5808 15 16.7044 14.835 16.7044 14.6316V1.36845C16.7044 1.16498 16.5808 1 16.4285 1H5.11816V1.00004V1.00004Z" fill="#FF334B"/>
</g>
<defs>
<clipPath id="clip0_5367_192938">
<rect x="2" y="1" width="14" height="14" rx="2" fill="white"/>
</clipPath>
</defs>
</svg>
