<svg width="16" height="16" viewBox="0 0 16 16" fill="none" xmlns="http://www.w3.org/2000/svg">
<g clip-path="url(#clip0_5367_192793)">
<rect x="1" y="0.839844" width="14" height="14" rx="2" fill="#464655"/>
<path d="M1.24139 0.839844H14.7586C14.8919 0.839844 15 1.00482 15 1.20828V5.50651H1V1.20828C1 1.00482 1.10809 0.839844 1.24139 0.839844Z" fill="#FF334B"/>
<path d="M15 5.50586H1V10.1725H15V5.50586Z" fill="#F8CB32"/>
<path d="M7.6435 6.25324C7.6435 6.25324 7.63641 6.26212 7.6231 6.27878C7.612 6.29415 7.59535 6.31778 7.57716 6.34921C7.54138 6.41168 7.50382 6.50853 7.50279 6.62396C7.50241 6.68024 7.51404 6.74859 7.53322 6.80293C7.55404 6.86293 7.58857 6.92031 7.63222 6.97156C7.67594 7.02327 7.73435 7.06315 7.79682 7.09259C7.82778 7.10831 7.86178 7.11734 7.8955 7.12565C7.91222 7.13074 7.93003 7.13099 7.94719 7.13437C7.95582 7.13599 7.96475 7.13527 7.97347 7.13596L7.98666 7.13656L7.99325 7.1369L7.99653 7.13709L7.99819 7.13718L7.999 7.13721C7.99635 7.13731 8.0061 7.13709 7.99325 7.13743C8.01463 7.13618 8.04057 7.13602 8.05819 7.13387C8.07357 7.13027 8.0865 7.1309 8.10413 7.12568C8.13788 7.11737 8.17185 7.10834 8.20282 7.09262C8.26525 7.06318 8.32369 7.02331 8.36741 6.97159C8.41106 6.92034 8.4456 6.86296 8.46641 6.80296C8.48635 6.74193 8.497 6.68353 8.49685 6.62371C8.49588 6.50878 8.45828 6.41159 8.4225 6.34918C8.40444 6.31787 8.38772 6.29409 8.37582 6.27806C8.36344 6.26228 8.35685 6.25381 8.35685 6.25381L8.35519 6.25171C8.34328 6.23653 8.34597 6.21462 8.36116 6.20271C8.37316 6.19334 8.38941 6.19306 8.4015 6.20081C8.4015 6.20081 8.41169 6.20734 8.43078 6.21956C8.44885 6.23312 8.47685 6.25228 8.507 6.28328C8.56753 6.34321 8.6461 6.44996 8.67444 6.60509C8.68847 6.67934 8.69 6.76915 8.67066 6.85743C8.65191 6.94662 8.61388 7.03884 8.55247 7.11952C8.49216 7.20059 8.41113 7.27227 8.31478 7.32062C8.26725 7.34596 8.21553 7.36437 8.16247 7.37718C8.13703 7.38465 8.10475 7.38774 8.076 7.39227C8.04907 7.39524 8.02991 7.39531 8.00644 7.39696L7.99732 7.39699L7.99475 7.39687L7.98963 7.39662L7.97938 7.39609L7.95885 7.39499C7.94519 7.3939 7.93147 7.39409 7.91794 7.39174C7.89097 7.38699 7.86353 7.38477 7.83722 7.37718C7.78416 7.3644 7.73241 7.34596 7.68491 7.32062C7.58857 7.27227 7.50754 7.20056 7.44722 7.11952C7.38585 7.03881 7.34782 6.94659 7.32904 6.85743C7.30897 6.76243 7.31147 6.68256 7.32529 6.60481C7.35357 6.45015 7.43219 6.34303 7.49269 6.28321C7.52272 6.25234 7.55082 6.23299 7.56966 6.21881C7.58779 6.20743 7.59747 6.20134 7.59747 6.20134C7.61391 6.19103 7.6356 6.19596 7.64591 6.2124C7.65404 6.22546 7.65257 6.24187 7.6435 6.25324Z" fill="#73AF00"/>
<path d="M7.93065 9V9.43659C7.93065 9.48016 7.87799 9.50197 7.84721 9.47119L7.82318 9.44716C7.80321 9.42719 7.79199 9.40012 7.79199 9.37191V9H7.93065Z" fill="#FF334B"/>
<path d="M7.72266 8.93164V9.24855C7.72266 9.26758 7.73024 9.28586 7.74374 9.29933L7.79215 9.34761V8.93164H7.72266V8.93164Z" fill="#F8CB32"/>
<path d="M7.65332 8.93164V9.1017C7.65332 9.12598 7.663 9.14927 7.68017 9.16642L7.72281 9.20895V8.93164H7.65332Z" fill="#73AF00"/>
<path d="M8.06934 9V9.43659C8.06934 9.48016 8.12199 9.50197 8.15277 9.47119L8.17681 9.44716C8.19677 9.42719 8.20799 9.40012 8.20799 9.37191V9H8.06934Z" fill="#FF334B"/>
<path d="M8.2775 8.93164V9.24855C8.2775 9.26758 8.26992 9.28586 8.25641 9.29933L8.20801 9.34761V8.93164H8.2775V8.93164Z" fill="#F8CB32"/>
<path d="M8.34684 8.93164V9.1017C8.34684 9.12598 8.33715 9.14927 8.31998 9.16642L8.27734 9.20895V8.93164H8.34684Z" fill="#73AF00"/>
<path d="M8.34659 7.68353L9.10918 7.12891V8.26947C9.10918 8.59678 8.84383 8.86209 8.51655 8.86209C8.40549 8.86209 8.29665 8.83087 8.20246 8.77203L7.79199 8.51547V7.67391L8.34659 7.68353Z" fill="#FF334B"/>
<path d="M8.8319 7.33008V8.1303C8.8319 8.45761 8.56655 8.72292 8.23927 8.72292C8.19005 8.72292 8.14155 8.71583 8.09427 8.70386L7.79199 8.51492V7.67336L8.34662 7.68298L8.8319 7.33008Z" fill="#F8CB32"/>
<path d="M8.62393 7.48242V7.99901C8.62393 8.32633 8.35859 8.59164 8.0313 8.59164C7.98209 8.59164 7.93355 8.58454 7.8863 8.57258L7.79199 8.51364V7.67448L8.34662 7.68411L8.62393 7.48242Z" fill="#73AF00"/>
<path d="M9.15097 7.00406L9.45603 6.85156L9.23416 7.12884H9.10938L9.15097 7.00406Z" fill="white"/>
<path d="M8.7626 8.02923L9.52519 7.47461V8.61517C9.52519 8.94248 9.25985 9.20779 8.93257 9.20779C8.82151 9.20779 8.71266 9.17657 8.61848 9.11773L8.20801 8.86117V8.01964L8.7626 8.02923Z" fill="#FF334B"/>
<path d="M9.03994 7.82812V8.34472C9.03994 8.67203 8.7746 8.93734 8.44732 8.93734C8.3981 8.93734 8.3496 8.93025 8.30232 8.91828L8.20801 8.85934V8.02019L8.76263 8.02981L9.03994 7.82812Z" fill="#73AF00"/>
<path d="M9.56698 7.3498L9.87205 7.19727L9.65017 7.47458H9.52539L9.56698 7.3498Z" fill="white"/>
<path d="M8.55459 7.89056L9.31718 7.33594V8.4765C9.31718 8.80381 9.05184 9.06912 8.72456 9.06912C8.6135 9.06912 8.50466 9.0379 8.41047 8.97906L8 8.7225V7.88094L8.55459 7.89056Z" fill="#FF334B"/>
<path d="M9.03994 7.53906V8.33928C9.03994 8.66659 8.77459 8.9319 8.44731 8.9319C8.39809 8.9319 8.34959 8.92481 8.30231 8.91284L8 8.72394V7.88237L8.55462 7.892L9.03994 7.53906Z" fill="#F8CB32"/>
<path d="M8.83194 7.68945V8.20605C8.83194 8.53336 8.56659 8.79867 8.23931 8.79867C8.19009 8.79867 8.14159 8.79157 8.09431 8.77961L8 8.7207V7.88155L8.55462 7.89117L8.83194 7.68945Z" fill="#73AF00"/>
<path d="M9.35898 7.21112L9.66401 7.05859L9.44213 7.33591H9.31738L9.35898 7.21112Z" fill="white"/>
<path d="M7.65322 7.68353L6.89062 7.12891V8.26947C6.89062 8.59678 7.15597 8.86209 7.48325 8.86209C7.59431 8.86209 7.70316 8.83087 7.79734 8.77203L8.20781 8.51547V7.67391L7.65322 7.68353Z" fill="#FF334B"/>
<path d="M7.16797 7.33008V8.1303C7.16797 8.45761 7.43331 8.72292 7.76059 8.72292C7.80981 8.72292 7.85831 8.71583 7.90559 8.70386L8.20787 8.51492V7.67336L7.65325 7.68298L7.16797 7.33008Z" fill="#F8CB32"/>
<path d="M7.37598 7.48242V7.99901C7.37598 8.32633 7.64132 8.59164 7.9686 8.59164C8.01782 8.59164 8.06635 8.58454 8.1136 8.57258L8.20791 8.51364V7.67448L7.65329 7.68411L7.37598 7.48242Z" fill="#73AF00"/>
<path d="M6.84898 7.00406L6.54395 6.85156L6.76582 7.12884H6.89057L6.84898 7.00406Z" fill="white"/>
<path d="M7.2372 8.02923L6.47461 7.47461V8.61517C6.47461 8.94248 6.73995 9.20779 7.06723 9.20779C7.1783 9.20779 7.28714 9.17657 7.38133 9.11773L7.79179 8.86117V8.01964L7.2372 8.02923Z" fill="#FF334B"/>
<path d="M6.95996 7.82812V8.34472C6.95996 8.67203 7.2253 8.93734 7.55258 8.93734C7.6018 8.93734 7.6503 8.93025 7.69758 8.91828L7.7919 8.85934V8.02019L7.23727 8.02981L6.95996 7.82812Z" fill="#73AF00"/>
<path d="M6.43296 7.3498L6.12793 7.19727L6.3498 7.47458H6.47455L6.43296 7.3498Z" fill="white"/>
<path d="M7.44521 7.89056L6.68262 7.33594V8.4765C6.68262 8.80381 6.94796 9.06912 7.27524 9.06912C7.3863 9.06912 7.49515 9.0379 7.58933 8.97906L7.9998 8.7225V7.88094L7.44521 7.89056Z" fill="#FF334B"/>
<path d="M6.95996 7.53906V8.33928C6.95996 8.66659 7.2253 8.9319 7.55258 8.9319C7.6018 8.9319 7.6503 8.92481 7.69758 8.91284L7.99987 8.7239V7.88234L7.44524 7.89197L6.95996 7.53906Z" fill="#F8CB32"/>
<path d="M7.16797 7.68945V8.20605C7.16797 8.53336 7.43331 8.79867 7.76059 8.79867C7.80981 8.79867 7.85831 8.79157 7.90559 8.77961L7.99991 8.72067V7.88151L7.44528 7.89114L7.16797 7.68945Z" fill="#73AF00"/>
<path d="M7.09198 8.92145L7.00057 8.83004C6.94516 8.77464 6.94663 8.6843 7.00388 8.63073L8.51691 7.20898L8.713 7.40508L7.29126 8.91811C7.23773 8.97539 7.14741 8.97692 7.09198 8.92145Z" fill="#FFBE5A"/>
<path d="M7.04685 8.94527C7.08513 8.94527 7.11616 8.91423 7.11616 8.87595C7.11616 8.83767 7.08513 8.80664 7.04685 8.80664C7.00857 8.80664 6.97754 8.83767 6.97754 8.87595C6.97754 8.91423 7.00857 8.94527 7.04685 8.94527Z" fill="#FFBE5A"/>
<path d="M8.66406 7.25904C8.60993 7.2049 8.5441 7.18296 8.51703 7.21002C8.48996 7.23709 8.51191 7.30292 8.56604 7.35706C8.62018 7.41119 8.68601 7.43314 8.71307 7.40607C8.74014 7.379 8.7182 7.31317 8.66406 7.25904Z" fill="white"/>
<path d="M8.90814 8.92145L8.99954 8.83004C9.05495 8.77464 9.05348 8.6843 8.99623 8.63073L7.4832 7.20898L7.28711 7.40508L8.70886 8.91811C8.76242 8.97539 8.85273 8.97692 8.90814 8.92145Z" fill="#FFBE5A"/>
<path d="M8.95408 8.94527C8.99236 8.94527 9.02339 8.91423 9.02339 8.87595C9.02339 8.83767 8.99236 8.80664 8.95408 8.80664C8.9158 8.80664 8.88477 8.83767 8.88477 8.87595C8.88477 8.91423 8.9158 8.94527 8.95408 8.94527Z" fill="#FFBE5A"/>
<path d="M7.43432 7.35742C7.48846 7.30329 7.5104 7.23746 7.48334 7.21039C7.45627 7.18332 7.39044 7.20526 7.3363 7.2594C7.28217 7.31354 7.26022 7.37936 7.28729 7.40643C7.31436 7.4335 7.38019 7.41156 7.43432 7.35742Z" fill="white"/>
<path d="M7.99972 8.86212C8.33827 8.86212 8.61272 8.53621 8.61272 8.13419C8.61272 7.73216 8.33827 7.40625 7.99972 7.40625C7.66117 7.40625 7.38672 7.73216 7.38672 8.13419C7.38672 8.53621 7.66117 8.86212 7.99972 8.86212Z" fill="#FFBE5A"/>
<path d="M7.99991 7.47461L8.03247 7.61586L8.10707 7.49158L8.09435 7.63595L8.20369 7.54083L8.14701 7.6742L8.28038 7.61752L8.18522 7.72686L8.3296 7.71414L8.20535 7.78873L8.34657 7.82126L8.20535 7.8538L8.3296 7.92839L8.18522 7.9157L8.28038 8.02498L8.14701 7.96833L8.20369 8.1017L8.09435 8.00658L8.10707 8.15092L8.03247 8.02667L7.99991 8.16789L7.96741 8.02667L7.89282 8.15092L7.90551 8.00658L7.79619 8.1017L7.85285 7.96833L7.71951 8.02498L7.81463 7.9157L7.67029 7.92839L7.79451 7.8538L7.65332 7.82126L7.79451 7.78873L7.67029 7.71414L7.81463 7.72686L7.71951 7.61752L7.85285 7.6742L7.79619 7.54083L7.90551 7.63595L7.89282 7.49158L7.96741 7.61586L7.99991 7.47461Z" fill="#FF334B"/>
<path d="M8.76654 8.12006C8.76654 8.12006 8.53689 8.18071 8.38742 8.05506C8.22129 7.9154 8.09673 7.84946 8.04336 7.82471C8.02508 7.81625 8.00464 7.81625 7.98633 7.82468C7.94808 7.84234 7.8777 7.87893 7.81545 7.93375C7.72445 8.01393 7.44498 8.17206 7.38867 8.17206V8.51671L7.82845 8.89784L8.34842 8.88265L8.76654 8.12006Z" fill="#73AF00"/>
<path d="M7.99943 9.03492C7.5598 9.03492 7.20215 8.63061 7.20215 8.13367C7.20215 7.63673 7.55977 7.23242 7.99943 7.23242C8.43908 7.23242 8.79671 7.63673 8.79671 8.13367C8.79671 8.63061 8.43905 9.03492 7.99943 9.03492ZM7.99943 7.44039C7.67449 7.44039 7.41015 7.75142 7.41015 8.13367C7.41015 8.51592 7.67449 8.82695 7.99943 8.82695C8.32437 8.82695 8.58871 8.51592 8.58871 8.13367C8.58871 7.75142 8.32437 7.44039 7.99943 7.44039Z" fill="#3CC8FF"/>
<path d="M7.88117 8.84625L7.89645 8.89203L7.94473 8.89241C7.95098 8.89244 7.95354 8.90044 7.94854 8.90413L7.90973 8.93281L7.92429 8.97884C7.9262 8.98481 7.91939 8.98975 7.91429 8.98609L7.87501 8.95803L7.83573 8.98609C7.83067 8.98972 7.82386 8.98478 7.82573 8.97884L7.8403 8.93281L7.80148 8.90413C7.79645 8.90041 7.79905 8.89244 7.8053 8.89241L7.85358 8.89203L7.86886 8.84625C7.87083 8.84031 7.8792 8.84031 7.88117 8.84625Z" fill="#FFBE5A"/>
<path d="M7.66437 8.7525L7.67965 8.79828L7.72794 8.79866C7.73419 8.79869 7.73675 8.80669 7.73175 8.81037L7.69294 8.83906L7.7075 8.88509C7.7094 8.89106 7.70259 8.896 7.6975 8.89234L7.65822 8.86428L7.61894 8.89234C7.61387 8.89597 7.60706 8.89103 7.60894 8.88509L7.6235 8.83906L7.58469 8.81037C7.57965 8.80666 7.58225 8.79869 7.5885 8.79866L7.63678 8.79828L7.65206 8.7525C7.65403 8.74656 7.6624 8.74656 7.66437 8.7525Z" fill="#FFBE5A"/>
<path d="M7.48957 8.5943L7.50485 8.64008L7.55313 8.64045C7.55938 8.64048 7.56194 8.64848 7.55694 8.65217L7.51813 8.68086L7.53269 8.72689C7.5346 8.73286 7.52779 8.7378 7.52269 8.73414L7.48341 8.70608L7.44413 8.73414C7.43907 8.73777 7.43226 8.73283 7.43413 8.72689L7.44869 8.68086L7.40988 8.65217C7.40485 8.64845 7.40744 8.64048 7.41369 8.64045L7.46197 8.64008L7.47726 8.5943C7.47923 8.58836 7.4876 8.58836 7.48957 8.5943Z" fill="#FFBE5A"/>
<path d="M7.3714 8.38336L7.38669 8.42914L7.43497 8.42952C7.44122 8.42955 7.44378 8.43755 7.43878 8.44124L7.39997 8.46992L7.41453 8.51595C7.41644 8.52192 7.40962 8.52686 7.40453 8.5232L7.36525 8.49514L7.32597 8.5232C7.3209 8.52683 7.31409 8.52189 7.31597 8.51595L7.33053 8.46992L7.29172 8.44124C7.28669 8.43752 7.28928 8.42955 7.29553 8.42952L7.34381 8.42914L7.35909 8.38336C7.36106 8.37742 7.36944 8.37742 7.3714 8.38336Z" fill="#FFBE5A"/>
<path d="M7.31867 8.13922L7.33395 8.185L7.38223 8.18538C7.38848 8.18541 7.39104 8.19341 7.38604 8.19709L7.34723 8.22578L7.36179 8.27181C7.3637 8.27778 7.35689 8.28272 7.3518 8.27906L7.31251 8.251L7.27323 8.27906C7.26817 8.28269 7.26136 8.27775 7.26323 8.27181L7.2778 8.22578L7.23898 8.19709C7.23395 8.19338 7.23655 8.18541 7.2428 8.18538L7.29108 8.185L7.30636 8.13922C7.30829 8.13328 7.3167 8.13328 7.31867 8.13922Z" fill="#FFBE5A"/>
<path d="M8.11983 8.84625L8.10455 8.89203L8.05627 8.89241C8.05002 8.89244 8.04743 8.90044 8.05246 8.90413L8.09127 8.93281L8.07671 8.97884C8.0748 8.98481 8.08162 8.98975 8.08671 8.98609L8.12599 8.95803L8.16527 8.98609C8.17033 8.98972 8.17715 8.98478 8.17527 8.97884L8.16071 8.93281L8.19952 8.90413C8.20455 8.90041 8.20196 8.89244 8.19571 8.89241L8.14743 8.89203L8.13215 8.84625C8.13018 8.84031 8.1218 8.84031 8.11983 8.84625Z" fill="#FFBE5A"/>
<path d="M8.33564 8.7525L8.32036 8.79828L8.27208 8.79866C8.26583 8.79869 8.26327 8.80669 8.26827 8.81037L8.30708 8.83906L8.29252 8.88509C8.29061 8.89106 8.29742 8.896 8.30252 8.89234L8.3418 8.86428L8.38108 8.89234C8.38614 8.89597 8.39295 8.89103 8.39108 8.88509L8.37652 8.83906L8.41533 8.81037C8.42036 8.80666 8.41776 8.79869 8.41151 8.79866L8.36323 8.79828L8.34795 8.7525C8.34598 8.74656 8.33761 8.74656 8.33564 8.7525Z" fill="#FFBE5A"/>
<path d="M8.51045 8.5943L8.49516 8.64008L8.44688 8.64045C8.44063 8.64048 8.43807 8.64848 8.44307 8.65217L8.48188 8.68086L8.46732 8.72689C8.46541 8.73286 8.47223 8.7378 8.47732 8.73414L8.5166 8.70608L8.55588 8.73414C8.56095 8.73777 8.56776 8.73283 8.56588 8.72689L8.55132 8.68086L8.59013 8.65217C8.59516 8.64845 8.59257 8.64048 8.58632 8.64045L8.53804 8.64008L8.52276 8.5943C8.52082 8.58836 8.51241 8.58836 8.51045 8.5943Z" fill="#FFBE5A"/>
<path d="M8.62861 8.38336L8.61333 8.42914L8.56505 8.42952C8.5588 8.42955 8.55623 8.43755 8.56123 8.44124L8.60005 8.46992L8.58548 8.51595C8.58358 8.52192 8.59039 8.52686 8.59548 8.5232L8.63477 8.49514L8.67405 8.5232C8.67911 8.52683 8.68592 8.52189 8.68405 8.51595L8.66948 8.46992L8.7083 8.44124C8.71333 8.43752 8.71073 8.42955 8.70448 8.42952L8.6562 8.42914L8.64092 8.38336C8.63895 8.37742 8.63058 8.37742 8.62861 8.38336Z" fill="#FFBE5A"/>
<path d="M8.68134 8.13922L8.66606 8.185L8.61778 8.18538C8.61153 8.18541 8.60897 8.19341 8.61397 8.19709L8.65278 8.22578L8.63822 8.27181C8.63631 8.27778 8.64313 8.28272 8.64822 8.27906L8.6875 8.251L8.72678 8.27906C8.73184 8.28269 8.73865 8.27775 8.73678 8.27181L8.72222 8.22578L8.76103 8.19709C8.76606 8.19338 8.76347 8.18541 8.75722 8.18538L8.70894 8.185L8.69366 8.13922C8.69172 8.13328 8.68334 8.13328 8.68134 8.13922Z" fill="#FFBE5A"/>
<path d="M7.69837 8.57884L7.72141 8.68903H7.73134V8.61384C7.73134 8.61384 7.74772 8.66628 7.77091 8.68903H7.78966C7.78069 8.6775 7.76456 8.65359 7.76456 8.62881C7.76456 8.59472 7.79169 8.59006 7.79169 8.55359H7.81494V8.689H7.82853L7.85372 8.56834C7.85372 8.56834 7.87447 8.64381 7.91353 8.689H7.93091C7.91837 8.67059 7.89234 8.62309 7.89712 8.55128C7.89712 8.55128 7.93434 8.53266 7.93434 8.48228V8.41059C7.93434 8.39719 7.94525 8.38628 7.95866 8.38628H7.97537C7.97537 8.38628 7.9505 8.33803 7.92391 8.33103V8.30078L7.90387 8.33106C7.88475 8.33519 7.87347 8.35287 7.87347 8.37181V8.41547C7.87347 8.42887 7.86259 8.43978 7.84916 8.43978H7.76225C7.73653 8.43978 7.69531 8.4655 7.69531 8.49847C7.69531 8.53144 7.72003 8.55306 7.72003 8.55306L7.69837 8.57884Z" fill="white"/>
<path d="M8.0876 8.46875H8.07963C8.01663 8.47219 7.98145 8.51362 7.98145 8.51362L8.04535 8.57753V8.69778H8.12182V8.57753L8.18573 8.51362C8.18576 8.51359 8.1506 8.47219 8.0876 8.46875Z" fill="#FFBE5A"/>
<path d="M8.24581 8.27148H8.22266V8.69755H8.24581V8.27148Z" fill="white"/>
<path d="M8.23442 8.26853L8.10983 8.41913C8.10983 8.41913 8.09358 8.34653 8.16617 8.27506L8.00586 8.30431C8.00586 8.30431 8.05461 8.21331 8.18242 8.22306L8.05136 8.11366C8.05136 8.11366 8.16402 8.10719 8.22142 8.19166C8.22142 8.19166 8.25389 8.09419 8.34489 8.08984L8.2698 8.20394C8.2698 8.20394 8.34489 8.16566 8.44889 8.19925L8.29398 8.24044C8.29398 8.24044 8.38064 8.24909 8.41639 8.37584L8.28208 8.28378C8.28208 8.28378 8.32327 8.33253 8.30808 8.42784L8.23442 8.26853Z" fill="white"/>
<path d="M6.641 7.21112L6.33594 7.05859L6.55781 7.33591H6.68259L6.641 7.21112Z" fill="white"/>
<path d="M8.21674 7.0354L9.03977 6.78216L8.60286 6.61834C8.52505 6.58913 8.44258 6.57422 8.35946 6.57422H8.27718C8.2389 6.57422 8.20786 6.60525 8.20786 6.64353V6.71284H7.99983H7.79187V6.64353C7.79187 6.60525 7.76083 6.57422 7.72255 6.57422H7.64027C7.55715 6.57422 7.47468 6.58919 7.39687 6.61834L6.95996 6.78216L7.78299 7.0354C7.82393 7.048 7.84374 7.09434 7.82462 7.13269L7.72255 7.33678H8.27718L8.17511 7.13269C8.15596 7.09437 8.17577 7.04803 8.21674 7.0354Z" fill="#825546"/>
<path d="M7.99995 6.91983C8.07651 6.91983 8.13858 6.85776 8.13858 6.7812C8.13858 6.70464 8.07651 6.64258 7.99995 6.64258C7.92339 6.64258 7.86133 6.70464 7.86133 6.7812C7.86133 6.85776 7.92339 6.91983 7.99995 6.91983Z" fill="white"/>
<path d="M8.06928 6.78223C8.06928 6.82051 8.03825 6.85155 7.99997 6.85155H7.72266L7.841 6.7332C7.854 6.7202 7.87162 6.71289 7.89003 6.71289H7.99994C8.03825 6.71292 8.06928 6.74395 8.06928 6.78223Z" fill="#FFBE5A"/>
<path d="M1 10.1738H15V14.4721C15 14.6755 14.8919 14.8405 14.7586 14.8405H1.24139C1.10809 14.8405 1 14.6755 1 14.4721V10.1738Z" fill="#73AF00"/>
</g>
<defs>
<clipPath id="clip0_5367_192793">
<rect x="1" y="0.839844" width="14" height="14" rx="2" fill="white"/>
</clipPath>
</defs>
</svg>
