<svg width="16" height="16" viewBox="0 0 16 16" fill="none" xmlns="http://www.w3.org/2000/svg">
<g clip-path="url(#clip0_5367_192732)">
<rect width="14" height="14" rx="2" transform="matrix(-1 0 0 1 14.8047 0.839844)" fill="#F8CB32"/>
<path d="M14.7151 0.839844C14.7686 0.907846 14.8047 1.00638 14.8047 1.12097V14.469C14.8047 14.6738 14.6959 14.8398 14.5618 14.8398H0.957994C0.898938 14.8398 0.846791 14.8037 0.804688 14.7502L14.7151 0.839844Z" fill="#FF6E55"/>
<path d="M7.77971 5.34144C7.64108 5.37112 7.4233 5.29688 7.4233 5.29688C7.46818 5.37416 7.58818 5.42619 7.6964 5.45894C7.60902 5.46766 7.50937 5.47259 7.39852 5.47016C6.95299 5.46022 6.74512 5.75231 6.74512 5.75231C6.90352 5.65328 7.06687 5.65328 7.30943 5.68797C7.55199 5.72262 8.0668 5.56919 8.0668 5.56919L8.11136 5.37119C8.11136 5.37116 7.91833 5.31175 7.77971 5.34144Z" fill="#FFF5DC"/>
<path d="M8.23735 4.41406C8.23735 4.41406 8.46769 4.46287 8.70147 4.59703C8.68741 4.60441 8.67394 4.61344 8.66113 4.62403C8.58557 4.58647 8.49429 4.55606 8.37591 4.544C8.37591 4.544 8.49844 4.57587 8.61616 4.66806C8.58569 4.70397 8.56057 4.74481 8.54123 4.78112C8.28226 4.50344 8.0022 4.68878 8.0022 4.68878C8.3496 4.66237 8.43157 4.88559 8.45113 4.99341C8.38385 4.94844 8.32048 4.91137 8.26104 4.88122C8.26976 4.87469 8.27416 4.86881 8.28438 4.86209C8.28438 4.86209 8.26263 4.86297 8.23244 4.86747C7.78907 4.65437 7.57154 4.82247 7.57154 4.82247C7.76845 4.79841 7.95041 4.84959 8.09479 4.91334C8.03135 4.94987 7.98838 5.01422 8.02382 5.12359C7.77516 5.05594 7.46267 4.98928 7.30917 5.03037C7.03195 5.10462 7.12107 5.36203 7.12107 5.36203C7.12107 5.36203 7.12604 5.18878 7.31413 5.14916C7.45495 5.1195 8.15563 5.34222 8.15563 5.34222L8.38332 5.23331L8.28929 5.15409C8.28929 5.15409 8.10854 5.08153 8.18604 4.95684C8.31563 5.02594 8.39816 5.09466 8.39816 5.09466L8.45388 5.01325C8.4566 5.03431 8.45757 5.05012 8.45757 5.05012L8.61598 4.98084L8.65063 4.93131C8.66451 4.85619 8.68744 4.80275 8.71385 4.76275C8.75966 4.82034 8.79757 4.89147 8.81647 4.97953L8.96004 4.99441C8.96004 4.99441 8.93672 4.82847 8.7761 4.6965C8.79035 4.68637 8.80441 4.67797 8.81826 4.67237C8.92404 4.74828 9.02269 4.84319 9.09119 4.96225L9.356 4.95853C9.35607 4.95859 8.92044 4.47347 8.23735 4.41406Z" fill="#FFF5DC"/>
<path d="M10.7643 7.08519C10.9474 7.08519 11.0959 6.9367 11.0959 6.75353C11.0959 6.57036 10.9474 6.42188 10.7643 6.42188C10.5811 6.42188 10.4326 6.57036 10.4326 6.75353C10.4326 6.9367 10.5811 7.08519 10.7643 7.08519Z" fill="#FFF5DC"/>
<path d="M9.98986 9.98948C10.2356 9.98948 10.4348 9.79028 10.4348 9.54455C10.4348 9.29881 10.2356 9.09961 9.98986 9.09961C9.74413 9.09961 9.54492 9.29881 9.54492 9.54455C9.54492 9.79028 9.74413 9.98948 9.98986 9.98948Z" fill="#FFF5DC"/>
<path d="M6.59875 9.68187C6.79352 9.68187 6.95141 9.52398 6.95141 9.32922C6.95141 9.13445 6.79352 8.97656 6.59875 8.97656C6.40398 8.97656 6.24609 9.13445 6.24609 9.32922C6.24609 9.52398 6.40398 9.68187 6.59875 9.68187Z" fill="#FFF5DC"/>
<path d="M5.78707 11.4101C6.01195 11.4101 6.19426 11.2278 6.19426 11.0029C6.19426 10.778 6.01195 10.5957 5.78707 10.5957C5.56219 10.5957 5.37988 10.778 5.37988 11.0029C5.37988 11.2278 5.56219 11.4101 5.78707 11.4101Z" fill="#FFF5DC"/>
<path d="M9.66528 5.88659C9.66528 5.88659 10.4278 6.15834 10.612 6.25041C10.8719 6.38034 11.2802 6.00166 11.5661 6.29497C11.5661 6.29497 11.5166 6.09944 11.279 6.08459C11.279 6.08459 11.284 5.89153 11.0612 5.90147C11.0612 5.90147 11.2246 6.02025 11.1305 6.10444C11.1305 6.10444 11.0662 5.96087 10.883 5.98566C10.883 5.98566 11.0216 6.04009 10.987 6.12425C10.987 6.12425 10.7667 6.23066 10.6677 6.16137C10.5687 6.09206 9.78659 5.67006 9.53906 5.66016L9.66528 5.88659Z" fill="#FFF5DC"/>
<path d="M9.46973 6.12428C9.46973 6.12428 9.63307 6.17256 9.87069 6.42128C9.98079 6.53656 10.2642 6.54381 10.2197 6.32103C10.1751 6.09828 9.62566 5.96094 9.56626 5.96094C9.50688 5.96094 9.46973 6.12428 9.46973 6.12428Z" fill="white"/>
<path d="M10.6603 5.63281L10.3484 5.73678C10.3484 5.73678 10.383 5.94841 10.2048 6.04122C10.0951 6.09841 10.0217 6.24662 10.0266 6.35553C10.0266 6.35553 10.1306 6.21197 10.279 6.13278C10.314 6.11412 10.3463 6.09778 10.3756 6.08119C10.3697 6.1554 10.3682 6.23331 10.3781 6.30109C10.4078 6.50403 10.3434 6.57334 10.3434 6.57334C10.3434 6.57334 10.5167 6.43969 10.4968 6.2219C10.4892 6.13822 10.5029 6.07894 10.5243 6.03394C10.5396 6.18559 10.6206 6.25659 10.6206 6.25659C10.5612 6.13781 10.6849 6.00906 10.7344 5.90512C10.784 5.80109 10.6603 5.63281 10.6603 5.63281Z" fill="#FFF5DC"/>
<path d="M11.4479 5.20291C11.3251 5.16116 11.2066 5.23631 11.136 5.29944C11.106 5.32631 11.0268 5.33997 10.9459 5.34731C10.9999 5.30906 11.0575 5.26391 11.0878 5.22522C11.1546 5.13985 11.2771 5.12497 11.3811 5.09156C11.485 5.05816 11.5296 4.9245 11.5296 4.9245C11.5296 4.9245 11.4739 5.00619 11.318 4.99875C11.162 4.99131 11.1101 4.98388 11.0061 5.09528C10.9741 5.12953 10.9294 5.156 10.883 5.17728C10.884 5.12863 10.8882 5.06672 10.9021 5.02475C10.9281 4.94678 11.0469 4.88369 11.0543 4.72775C11.0617 4.57181 11.0692 4.58669 11.1583 4.49385C11.2474 4.40103 11.2734 4.22653 11.2474 4.28222C11.2214 4.33791 11.1026 4.40475 11.0024 4.49757C10.9021 4.59038 10.9727 4.69431 10.9207 4.776C10.8687 4.85769 10.7462 4.87625 10.7388 5.02844C10.7313 5.18066 10.6237 5.26975 10.6237 5.26975C10.6237 5.26975 10.3601 5.41453 10.6756 5.52966C10.9912 5.64475 11.2465 5.32456 11.4033 5.33291C11.7522 5.35147 11.8451 5.23638 11.8451 5.23638C11.7857 5.23635 11.6335 5.26603 11.4479 5.20291Z" fill="#FFF5DC"/>
<path d="M7.62098 7.64761C7.6012 7.63273 7.25963 7.25655 7.14576 7.20208L7.17051 7.29614C7.17051 7.29614 7.09626 7.29117 6.9626 7.12783C6.82895 6.96448 6.72995 6.91992 6.72995 6.91992C6.72995 6.91992 6.82401 7.06845 6.81904 7.16248C6.81904 7.16248 6.61607 7.14761 6.39829 7.25158C6.39829 7.25158 6.29929 7.05852 6.21517 7.02389C6.21517 7.02389 6.24486 7.22686 6.17557 7.27633C6.10626 7.32586 6.82898 7.66739 6.92798 7.6773C7.02698 7.6872 7.62098 7.64761 7.62098 7.64761Z" fill="#FFF5DC"/>
<path d="M8.07142 6.9108C8.06439 6.90905 8.02786 6.93474 7.98073 6.9684C7.95992 6.84818 7.91798 6.60515 7.91798 6.59399C7.91798 6.57912 7.58136 6.1089 7.57145 6.08908C7.57126 6.08874 7.57017 6.08871 7.56992 6.0884C7.60261 6.00934 7.63783 5.87471 7.4378 5.98018C7.16552 6.12377 7.05664 6.4554 7.05664 6.4554C7.1187 6.39065 7.22701 6.34121 7.31345 6.30908C7.31523 6.34946 7.31555 6.3974 7.25958 6.48015C7.1457 6.64843 7.21005 6.7128 7.21005 6.7128C7.29914 6.55937 7.49714 6.54449 7.49714 6.54449C7.46745 6.72765 7.57139 6.83158 7.57139 6.83158L7.65551 6.73258C7.64514 6.8743 7.72098 7.02636 7.76814 7.10627C7.74951 7.11527 7.73251 7.12218 7.71989 7.12361C7.6357 7.13355 7.50211 7.19786 7.50211 7.19786C7.50211 7.19786 7.61042 7.17477 7.67192 7.22227C7.73339 7.2698 7.83126 7.30614 7.88436 7.29496C7.88436 7.29496 7.85917 7.42355 7.88714 7.47105C7.88714 7.47105 7.81723 7.45143 7.73617 7.45427C7.65511 7.45708 7.59611 7.40083 7.59611 7.40083C7.59611 7.40083 7.74464 7.61364 7.85351 7.65821C7.96239 7.70277 8.15051 7.53943 8.15051 7.53943C8.15051 7.53943 8.09123 6.91571 8.07142 6.9108Z" fill="#FFF5DC"/>
<path d="M5.51193 10.0138C5.51193 10.0138 5.41787 10.0237 5.3288 10.1574L5.28921 10.0188C5.28921 10.0188 5.1803 10.098 5.06152 10.0485C5.06152 10.0485 5.17043 10.0237 5.19021 9.92473C5.20999 9.82573 5.24962 9.81582 5.24962 9.81582C5.24962 9.81582 5.17537 9.7366 5.09618 9.74157C5.09618 9.74157 5.31396 9.62769 5.4328 9.7366C5.55149 9.84551 5.51193 10.0138 5.51193 10.0138Z" fill="#FFF5DC"/>
<path d="M8.13009 8.9201C8.13009 8.9201 8.03603 8.93001 7.94697 9.06366L7.90738 8.92504C7.90738 8.92504 7.79847 9.00426 7.67969 8.95473C7.67969 8.95473 7.78859 8.92997 7.80838 8.83097C7.82816 8.73197 7.86778 8.72207 7.86778 8.72207C7.86778 8.72207 7.79353 8.64285 7.71434 8.64782C7.71434 8.64782 7.93213 8.53394 8.05097 8.64285C8.16972 8.75179 8.13009 8.9201 8.13009 8.9201Z" fill="#FFF5DC"/>
<path d="M9.73613 7.51246C9.73613 7.51246 9.69019 7.59514 9.74844 7.74483L9.61223 7.69761C9.61223 7.69761 9.61451 7.83227 9.50576 7.90105C9.50576 7.90105 9.54804 7.79771 9.47838 7.72461C9.40873 7.65152 9.42335 7.61342 9.42335 7.61342C9.42335 7.61342 9.31588 7.62871 9.27441 7.69639C9.27441 7.69639 9.30632 7.45271 9.4637 7.41802C9.6211 7.38336 9.73613 7.51246 9.73613 7.51246Z" fill="#FFF5DC"/>
<path d="M10.2129 9.18555L10.3087 9.24267C10.2808 9.2187 10.2477 9.20073 10.2129 9.18555Z" fill="#FF6E55"/>
<path d="M4.80957 9.66231C4.80957 9.66231 4.36901 10.2811 3.86411 10.4147L4.04232 10.187C4.04232 10.187 3.8047 10.3949 3.53742 10.4395L3.85917 10.0682C3.85917 10.0682 3.14142 10.7365 2.2207 10.8751C2.2207 10.8751 2.93351 10.4246 3.07708 10.2662C3.07708 10.2662 2.73055 10.4048 2.4187 10.4098C2.4187 10.4098 3.31467 10.0632 3.46317 9.92468C3.46317 9.92468 3.10676 10.0039 2.88401 9.92965C2.88401 9.92965 3.65623 9.7069 3.76511 9.73659C3.76511 9.73659 3.31958 9.55837 3.0523 9.57818C3.0523 9.57818 3.5077 9.46928 4.03736 9.57818L3.92348 9.45443C3.92348 9.45443 4.22545 9.37521 4.52245 9.35543C4.81945 9.33565 4.67098 9.31087 4.67098 9.31087L4.70564 9.21187C4.70564 9.21187 4.51257 9.23662 4.3542 9.21187C4.3542 9.21187 4.82942 8.94456 4.96307 8.82578C5.09673 8.707 5.00764 8.76143 5.00764 8.76143C5.00764 8.76143 4.7601 8.84556 4.67101 8.86043C4.67101 8.86043 4.89376 8.60303 4.96307 8.43472C4.96307 8.43472 4.7601 8.51393 4.58685 8.43472C4.58685 8.43472 4.79476 8.37531 4.89873 8.27137C5.0027 8.1674 5.15614 7.90878 5.15614 7.90878L4.97792 7.98675C4.97792 7.98675 5.13385 7.71944 5.27123 7.65262C5.27123 7.65262 5.03732 7.67119 4.9631 7.6155C4.9631 7.6155 5.21185 7.55609 5.2861 7.49672C5.36035 7.43731 5.52373 7.28137 5.69076 7.34078C5.69076 7.34078 5.92467 7.12544 5.8467 6.98438C5.8467 6.98438 5.99891 6.9955 6.07688 7.08834C6.15485 7.18116 6.27735 7.25912 6.27735 7.25912L5.64126 7.75659L5.15617 9.33071L4.80957 9.66231Z" fill="#FFF5DC"/>
<path d="M11.0423 6.69205C11.2254 6.98904 10.9977 7.01876 10.9977 7.01876C10.963 6.73661 10.7254 6.77129 10.7254 6.77129L10.7898 6.9792C10.3938 7.02873 10.4235 6.63267 10.4235 6.63267C10.3641 6.6822 10.2651 6.88511 10.2651 6.88511C10.2651 6.88511 9.19585 7.24151 8.47314 6.1822C8.47314 6.1822 8.45336 5.99408 8.51276 5.90495L8.06723 5.56836L7.49301 5.64758C7.49301 5.64758 7.26533 6.16236 7.54254 6.4792C7.81976 6.79598 8.14645 7.24151 8.08704 7.44942C8.05182 7.57267 7.94704 7.62282 7.80157 7.61236C7.70161 7.60514 7.58248 7.56929 7.45348 7.50882C7.13667 7.36029 6.36445 7.04354 5.81005 7.30092C5.25564 7.55832 5.19549 8.00373 5.08733 8.35035C4.99158 8.65717 4.77911 9.44048 3.26549 10.1551C3.19318 10.1893 3.22996 10.2992 3.30755 10.2799C3.96368 10.1168 4.85821 9.84495 5.13433 9.52354L5.35708 9.53095L5.27539 9.87251C5.27539 9.87251 5.56499 9.9616 5.60952 10.3849C5.60952 10.3849 5.10214 10.5234 5.38924 10.9591C5.38924 10.9591 5.4338 10.6423 5.78524 10.6274C5.78524 10.6274 5.86445 10.7314 6.03767 10.7462C6.03767 10.7462 6.12677 10.8898 6.08224 11.0086C6.08224 11.0086 6.43367 10.8997 6.13667 10.4789C6.13667 10.4789 6.46833 10.3997 6.51289 10.8155C6.51289 10.8155 6.72577 10.1423 5.96592 10.1918C5.96592 10.1918 5.96592 10.073 5.76545 9.85767C5.76545 9.85767 5.71599 9.73635 5.76545 9.56807C5.78036 9.51742 5.79383 9.46485 5.80508 9.41129C5.84636 9.4342 5.90983 9.46126 5.99314 9.46417C5.99314 9.46417 6.11689 9.6671 6.4832 9.63245C6.4832 9.63245 6.21589 9.50873 6.24064 9.2711C6.26539 9.03348 6.57727 8.90479 6.71092 8.99882C6.71092 8.99882 6.67627 8.68695 6.19117 8.88992C6.19117 8.88992 6.19117 8.65726 6.44858 8.64245C6.44858 8.64245 6.0328 8.32564 5.9387 8.92954L5.76664 8.97254C5.68258 8.73951 5.57608 8.19845 6.04761 8.00139C6.54508 7.79348 7.06486 8.26129 7.98557 8.30582C7.98557 8.30582 7.89648 8.84785 8.19348 8.98151C8.49048 9.11517 9.21814 9.24142 9.21814 9.24142C9.21073 10.0235 9.77995 9.91954 9.77995 9.91954C9.50367 9.75398 9.50367 9.4381 9.6742 9.2536C9.9066 9.00217 10.3096 9.24135 10.3096 9.24135C10.3039 8.86067 9.77004 8.91957 9.77004 8.91957C9.85417 8.6721 10.1858 8.6077 10.1858 8.6077C9.72548 8.43942 9.34432 8.93692 9.34432 8.93692L8.56467 8.71417C8.56467 8.71417 8.53498 8.55823 8.72061 8.35035C8.90623 8.14248 9.06217 7.79345 9.0102 7.42223C9.0102 7.42223 9.22554 7.27123 9.49282 7.41976C9.76013 7.56829 10.3343 7.24154 10.3343 7.24154C10.5819 7.55833 11.1709 7.49895 11.2501 7.11783C11.3294 6.73661 11.0423 6.69205 11.0423 6.69205Z" fill="white"/>
<path d="M10.2256 5.7813C10.0784 5.69539 9.81475 5.62289 9.72566 5.82089C9.63657 6.01889 9.53757 6.21689 9.23066 6.20699C8.92376 6.19708 8.78513 6.45942 8.57229 6.3852C8.57229 6.3852 8.77029 6.32086 8.80991 6.2268C8.84951 6.13274 9.00791 5.95949 9.00791 5.95949L8.98813 5.78127C8.98813 5.78127 8.62182 5.80102 8.51291 5.90499C8.40401 6.00895 7.99316 5.81592 7.99316 5.81592L8.04269 5.38527C8.04269 5.38527 8.35948 4.90018 8.80007 4.93483C9.24063 4.96949 9.31488 4.85561 9.52772 4.87049C9.7406 4.88536 9.84947 5.10314 10.0772 5.15264C10.3048 5.20218 10.7603 5.10808 10.8197 5.24671C10.8791 5.3853 10.7058 5.43977 10.6613 5.6328C10.6167 5.82583 10.5226 5.95458 10.2256 5.7813Z" fill="white"/>
<path d="M8.93815 5.6582C8.93815 5.6582 8.72528 5.80176 8.54709 5.74233C8.36887 5.68292 8.21047 5.70273 8.02734 5.76211C8.02734 5.76211 8.36397 5.72252 8.50256 5.8512C8.64116 5.97989 8.99262 5.89576 9.01737 5.8413L8.93815 5.6582Z" fill="#FFF5DC"/>
<path d="M9.04713 5.98845C9.04713 5.98845 8.83923 6.13698 8.63135 6.09736C8.42344 6.05776 8.23535 6.14192 8.23535 6.14192C8.23535 6.14192 8.38879 5.97361 8.59669 6.00333C8.8046 6.03302 8.87882 5.83008 8.87882 5.83008L9.01744 5.83998L9.04713 5.98845Z" fill="#FFF5DC"/>
<path d="M9.21573 6.0838C9.36885 6.0838 9.49297 5.95967 9.49297 5.80655C9.49297 5.65343 9.36885 5.5293 9.21573 5.5293C9.0626 5.5293 8.93848 5.65343 8.93848 5.80655C8.93848 5.95967 9.0626 6.0838 9.21573 6.0838Z" fill="#FFF5DC"/>
<path d="M9.05176 5.59744C9.05176 5.59744 8.94286 5.45884 8.67061 5.51331C8.39836 5.56775 8.33398 5.46875 8.33398 5.46875C8.33398 5.46875 8.46267 5.66675 8.66564 5.642C8.86861 5.61725 8.95273 5.75588 8.95273 5.75588L9.05176 5.59744Z" fill="#FFF5DC"/>
<path d="M9.96746 5.2515C9.99193 5.21778 10.0227 5.18563 10.0648 5.16116C10.0896 5.14672 10.1151 5.13759 10.1404 5.13009C10.146 5.0925 10.1405 5.05197 10.1191 5.01516C10.0723 4.93485 9.97499 4.90434 9.90174 4.94703C9.82853 4.98969 9.80709 5.08938 9.85387 5.16969C9.88015 5.21475 9.92252 5.24191 9.96746 5.2515Z" fill="#FFF5DC"/>
<path d="M9.72447 5.57058C9.73841 5.5313 9.75881 5.4918 9.79222 5.45636C9.81194 5.43549 9.83385 5.41955 9.85594 5.40518C9.85069 5.36755 9.83394 5.33021 9.80294 5.30096C9.73535 5.23718 9.63338 5.23543 9.57522 5.29705C9.51703 5.35868 9.52469 5.46036 9.59232 5.52414C9.63035 5.56008 9.67866 5.57414 9.72447 5.57058Z" fill="#FFF5DC"/>
</g>
<defs>
<clipPath id="clip0_5367_192732">
<rect width="14" height="14" rx="2" transform="matrix(-1 0 0 1 14.8047 0.839844)" fill="white"/>
</clipPath>
</defs>
</svg>
