<svg width="16" height="16" viewBox="0 0 16 16" fill="none" xmlns="http://www.w3.org/2000/svg">
<g clip-path="url(#clip0_5367_192494)">
<rect x="1" y="1" width="14" height="14" rx="2" fill="#FF334B"/>
<path d="M15 8L1 8L1 1.55266C1 1.24747 1.10809 0.999999 1.24139 0.999999L14.7586 1C14.8919 1 15 1.24747 15 1.55266L15 8Z" fill="white"/>
<path d="M1 1.36844V8H7.63157V1H1.36844C1.16498 1 1 1.16498 1 1.36844Z" fill="#41479B"/>
<path d="M4.64199 2.92843L4.99323 3.98157L6.10338 3.99017C6.24712 3.99125 6.30671 4.17472 6.19107 4.26007L5.29802 4.91952L5.63286 5.978C5.67618 6.11506 5.52018 6.22837 5.40323 6.14482L4.50009 5.4993L3.5969 6.14486C3.47996 6.22845 3.32396 6.11506 3.36728 5.97804L3.70212 4.91956L2.80907 4.26011C2.69342 4.17472 2.75302 3.99129 2.89676 3.99021L4.00691 3.98161L4.35815 2.92847C4.40364 2.79208 4.59654 2.79208 4.64199 2.92843Z" fill="white"/>
</g>
<defs>
<clipPath id="clip0_5367_192494">
<rect x="1" y="1" width="14" height="14" rx="2" fill="white"/>
</clipPath>
</defs>
</svg>
