<svg width="16" height="16" viewBox="0 0 16 16" fill="none" xmlns="http://www.w3.org/2000/svg">
<g clip-path="url(#clip0_5367_192334)">
<rect x="15" y="0.826172" width="14" height="14" rx="2" transform="rotate(90 15 0.826172)" fill="#82AFFF"/>
<path d="M14.7586 14.8262L1.24139 14.8262C1.10809 14.8262 1 14.5787 1 14.2735L1 7.82617L15 7.82617L15 14.2735C15 14.5787 14.8919 14.8262 14.7586 14.8262Z" fill="#73AF00"/>
<path d="M0.10175 14.8262L8 7.82617L0.10175 0.826172C0.0409687 0.894612 0 0.993784 0 1.10911V14.5432C0 14.6586 0.0409687 14.7577 0.10175 14.8262Z" fill="white"/>
<path d="M3.52515 6.28761L3.15686 7.39191L1.99278 7.40097C1.92897 7.40147 1.90252 7.48295 1.95381 7.52086L2.89028 8.21241L2.53917 9.32232C2.51993 9.3832 2.58922 9.4335 2.64113 9.39639L3.58818 8.71949L4.53524 9.39639C4.58714 9.43346 4.65644 9.38316 4.6372 9.32232L4.28608 8.21241L5.22243 7.52081C5.27376 7.48291 5.24731 7.40143 5.18346 7.40093L4.01938 7.39187L3.65109 6.28757C3.63098 6.22705 3.54534 6.22705 3.52515 6.28761Z" fill="#FF334B"/>
</g>
<defs>
<clipPath id="clip0_5367_192334">
<rect x="15" y="0.826172" width="14" height="14" rx="2" transform="rotate(90 15 0.826172)" fill="white"/>
</clipPath>
</defs>
</svg>
