<svg width="16" height="16" viewBox="0 0 16 16" fill="none" xmlns="http://www.w3.org/2000/svg">
<g clip-path="url(#clip0_5367_192232)">
<rect x="1" y="1" width="14" height="14" rx="2" fill="#73AF00"/>
<path d="M15 1.24139L15 14.7586C15 14.8919 14.7525 15 14.4473 15L8 15L8 1L14.4473 1C14.7525 1 15 1.10809 15 1.24139Z" fill="white"/>
<path d="M10.7426 6.13136L9.85137 7.29716L8.45988 6.83139C8.38209 6.80536 8.31588 6.89334 8.36246 6.96083L9.19583 8.16867L8.32281 9.34815C8.27396 9.41406 8.33719 9.5042 8.41586 9.48074L9.82208 9.06137L10.6741 10.2562C10.7217 10.323 10.827 10.2907 10.829 10.2087L10.8647 8.7417L12.2642 8.30061C12.3424 8.27593 12.3443 8.16587 12.2669 8.13862L10.8828 7.65131L10.8958 6.18388C10.8965 6.1019 10.7923 6.0662 10.7426 6.13136Z" fill="#FF334B"/>
<path d="M9.18602 11.5307C7.23775 11.5307 5.65737 9.95028 5.65737 8.00026C5.65737 6.05379 7.23775 4.46985 9.18602 4.46985C9.91085 4.46985 10.5793 4.69281 11.1364 5.07007C11.2217 5.12784 11.3191 5.01581 11.2476 4.94151C10.4151 4.07588 9.23668 3.54786 7.93026 3.59246C5.68566 3.66903 3.82753 5.46871 3.68411 7.70999C3.51979 10.2772 5.55261 12.4107 8.08352 12.4107C9.3302 12.4107 10.4506 11.8895 11.2508 11.0562C11.3214 10.9825 11.2239 10.8722 11.1394 10.9294C10.5817 11.3075 9.91213 11.5307 9.18602 11.5307Z" fill="#FF334B"/>
</g>
<defs>
<clipPath id="clip0_5367_192232">
<rect x="1" y="1" width="14" height="14" rx="2" fill="white"/>
</clipPath>
</defs>
</svg>
