<svg width="16" height="16" viewBox="0 0 16 16" fill="none" xmlns="http://www.w3.org/2000/svg">
<rect x="1" y="1" width="14" height="14" rx="2" fill="#F8CB32"/>
<path d="M15 11.5H1V15H15V11.5Z" fill="#FF334B"/>
<rect x="1" y="8" width="14" height="3.5" fill="#41479B"/>
<path d="M7.71191 8.15486L9.72691 6.42773V8.92732C9.72691 9.3486 9.38538 9.69007 8.96416 9.69007C8.77572 9.69007 8.59394 9.62032 8.45388 9.49429L7.71191 8.82654V8.15486Z" fill="#F8CB32"/>
<path d="M8.77453 9.13856L8.19141 8.61375V7.74453L9.24687 6.83984V7.47175V8.92822C9.24687 9.08425 9.1199 9.21121 8.96387 9.21121C8.89384 9.21121 8.82659 9.1854 8.77453 9.13856Z" fill="#FF334B"/>
<path d="M8.47925 7.49778V8.48581L8.959 8.919V7.46572V7.08659L9.24687 6.83984V7.47175V8.92821C9.24687 9.08425 9.1199 9.21121 8.96387 9.21121C8.89384 9.21121 8.82659 9.18543 8.77453 9.13856L8.19141 8.61375V7.74453L8.47925 7.49778Z" fill="#41479B"/>
<path d="M8.28746 8.15486L6.27246 6.42773V8.92732C6.27246 9.3486 6.61399 9.69007 7.03521 9.69007C7.22365 9.69007 7.40543 9.62032 7.54549 9.49429L8.28746 8.82654V8.15486Z" fill="#F8CB32"/>
<path d="M7.22527 9.13856L7.8084 8.61375V7.74453L6.75293 6.83984V7.47175V8.92822C6.75293 9.08425 6.8799 9.21121 7.03593 9.21121C7.10596 9.21121 7.17321 9.1854 7.22527 9.13856Z" fill="#FF334B"/>
<path d="M7.51958 7.49778V8.48581L7.03983 8.919V7.46572V7.08659L6.75195 6.83984V7.47175V8.92822C6.75195 9.08425 6.87892 9.21121 7.03495 9.21121C7.10498 9.21121 7.17223 9.18543 7.2243 9.13856L7.80742 8.61375V7.74453L7.51958 7.49778Z" fill="#41479B"/>
<path d="M9.79516 6.4375H9.65723V7.26403H9.79516V6.4375Z" fill="#41479B"/>
<path d="M6.34106 6.4375H6.20312V7.26403H6.34106V6.4375Z" fill="#41479B"/>
<path d="M7.712 6.04469C7.712 6.04469 7.9039 5.13313 7.23225 5.25306C6.56059 5.373 6.56059 5.56488 5.79297 5.94872C5.79297 5.94872 6.65653 6.14062 7.04034 6.04469C7.04034 6.04469 7.32822 6.42847 7.61606 6.52444H7.90393L7.712 6.04469Z" fill="#5A4646"/>
<path d="M8.28764 6.04469C8.28764 6.04469 8.09573 5.13313 8.76739 5.25306C9.43904 5.373 9.43904 5.56488 10.2067 5.94872C10.2067 5.94872 9.34311 6.14062 8.95929 6.04469C8.95929 6.04469 8.67142 6.42847 8.38358 6.52444H8.0957L8.28764 6.04469Z" fill="#5A4646"/>
<path d="M8.28763 6.52348H7.71191V6.04017C7.71191 5.88314 7.83919 5.75586 7.99623 5.75586H8.00332C8.16035 5.75586 8.28763 5.88314 8.28763 6.04017V6.52348Z" fill="#5A4646"/>
<path d="M7.99952 6.23733C8.10551 6.23733 8.19143 6.15141 8.19143 6.04542C8.19143 5.93943 8.10551 5.85352 7.99952 5.85352C7.89354 5.85352 7.80762 5.93943 7.80762 6.04542C7.80762 6.15141 7.89354 6.23733 7.99952 6.23733Z" fill="#E6E1CD"/>
<path d="M7.58789 5.9198L7.9487 6.11248C7.97898 6.12867 8.01627 6.12311 8.04048 6.09883C8.07092 6.06839 8.07092 6.01908 8.04048 5.98861L7.80773 5.75586H7.75177C7.66127 5.75586 7.58789 5.82923 7.58789 5.9198Z" fill="#FFD0AF"/>
<path d="M7.71286 5.94969H7.42383L7.5503 5.80162C7.57405 5.77384 7.60877 5.75781 7.64536 5.75781H7.80761V5.85494C7.80761 5.90725 7.76517 5.94969 7.71286 5.94969Z" fill="#FFAF94"/>
<path d="M8.81812 6.52497C8.75337 6.44816 8.73956 6.34631 8.77112 6.25806C8.86343 6.24194 8.96147 6.27278 9.02618 6.34966C9.0815 6.41531 9.09753 6.49878 9.08193 6.57691C9.10112 6.60947 9.12456 6.65134 9.15034 6.70078C9.15162 6.69375 9.15134 6.68678 9.15334 6.67975C9.17596 6.60019 9.23906 6.54387 9.31381 6.52481C9.36734 6.58037 9.3914 6.66147 9.36878 6.741C9.34934 6.80944 9.29915 6.85903 9.23815 6.88415C9.26225 6.93944 9.28609 6.99906 9.30837 7.06197C9.30965 7.05828 9.30975 7.05453 9.31125 7.05087C9.3425 6.97428 9.41143 6.92528 9.48781 6.91456C9.53487 6.97565 9.54987 7.0589 9.51865 7.1355C9.49131 7.2025 9.43459 7.24669 9.36978 7.26428C9.40315 7.39593 9.42525 7.53562 9.42525 7.67625H9.32928C9.32928 7.55368 9.31047 7.43093 9.28206 7.3135C9.22284 7.33262 9.15668 7.32853 9.0994 7.29347C9.02953 7.25065 8.99265 7.1754 8.99437 7.099C9.06168 7.06275 9.14547 7.0614 9.21534 7.10425C9.21787 7.10578 9.21956 7.10803 9.222 7.10965C9.20143 7.05059 9.17956 6.99456 9.15709 6.942C9.0995 6.96922 9.03172 6.9734 8.96953 6.94422C8.89534 6.90934 8.85043 6.83862 8.84372 6.7625C8.9064 6.71919 8.98925 6.70872 9.06318 6.74312C9.03678 6.69234 9.01293 6.64981 8.99425 6.61806C8.92815 6.61044 8.8645 6.58 8.81812 6.52497Z" fill="#8CB400"/>
<path d="M7.18177 6.52497C7.24652 6.44816 7.26034 6.34631 7.22877 6.25806C7.13646 6.24194 7.03843 6.27278 6.97371 6.34966C6.9184 6.41531 6.90237 6.49878 6.91796 6.57691C6.89877 6.60947 6.87534 6.65134 6.84956 6.70078C6.84827 6.69375 6.84856 6.68678 6.84656 6.67975C6.82393 6.60019 6.76084 6.54387 6.68609 6.52481C6.63256 6.58037 6.60849 6.66147 6.63112 6.741C6.65056 6.80944 6.70074 6.85903 6.76174 6.88416C6.73765 6.93944 6.71381 6.99906 6.69152 7.06197C6.69024 7.05828 6.69015 7.05453 6.68865 7.05087C6.6574 6.97428 6.58846 6.92528 6.51209 6.91456C6.46502 6.97565 6.45002 7.0589 6.48127 7.1355C6.50862 7.2025 6.56534 7.24669 6.63015 7.26428C6.59677 7.39594 6.57468 7.53562 6.57468 7.67625H6.67065C6.67065 7.55368 6.68946 7.43094 6.71787 7.3135C6.77709 7.33262 6.84324 7.32853 6.90052 7.29347C6.97043 7.25065 7.00727 7.1754 7.00556 7.099C6.93824 7.06275 6.85446 7.0614 6.78459 7.10425C6.78206 7.10578 6.78037 7.10803 6.77793 7.10965C6.79849 7.05059 6.82037 6.99456 6.84284 6.942C6.90043 6.96922 6.96821 6.9734 7.0304 6.94422C7.10459 6.90934 7.14949 6.83862 7.15621 6.7625C7.09352 6.71919 7.01068 6.70872 6.93674 6.74312C6.96315 6.69234 6.98699 6.64981 7.00568 6.61806C7.07174 6.61044 7.1354 6.58 7.18177 6.52497Z" fill="#8CB400"/>
<path d="M8.00035 8.63533L5.98535 6.9082V9.40779C5.98535 9.82907 6.32688 10.1705 6.7481 10.1705C6.93654 10.1705 7.11832 10.1008 7.25838 9.97476L8.00035 9.30701V8.63533Z" fill="#F8CB32"/>
<path d="M6.93719 9.61903L7.52031 9.09422V8.225L6.46484 7.32031V7.95222V9.40868C6.46484 9.56471 6.59181 9.69168 6.74784 9.69168C6.81791 9.69168 6.88512 9.6659 6.93719 9.61903Z" fill="#FF334B"/>
<path d="M7.23247 7.97825V8.96628L6.75272 9.39946V7.94619V7.56706L6.46484 7.32031V7.95222V9.40868C6.46484 9.56471 6.59181 9.69168 6.74784 9.69168C6.81787 9.69168 6.88512 9.6659 6.93719 9.61903L7.52031 9.09421V8.225L7.23247 7.97825Z" fill="#41479B"/>
<path d="M8 8.63533L10.015 6.9082V9.40779C10.015 9.82907 9.67347 10.1705 9.25225 10.1705C9.06381 10.1705 8.88203 10.1008 8.74197 9.97476L8 9.30701V8.63533Z" fill="#F8CB32"/>
<path d="M9.06262 9.61903L8.47949 9.09422V8.225L9.53496 7.32031V7.95222V9.40868C9.53496 9.56471 9.40799 9.69168 9.25196 9.69168C9.18187 9.69168 9.11468 9.6659 9.06262 9.61903Z" fill="#FF334B"/>
<path d="M8.76734 7.97825V8.96628L9.24708 9.39946V7.94619V7.56706L9.53496 7.32031V7.95222V9.40868C9.53496 9.56471 9.40799 9.69168 9.25196 9.69168C9.18193 9.69168 9.11468 9.6659 9.06262 9.61903L8.47949 9.09421V8.225L8.76734 7.97825Z" fill="#41479B"/>
<path d="M7.99957 9.40218C8.5295 9.40218 8.9591 8.75775 8.9591 7.96281C8.9591 7.16787 8.5295 6.52344 7.99957 6.52344C7.46964 6.52344 7.04004 7.16787 7.04004 7.96281C7.04004 8.75775 7.46964 9.40218 7.99957 9.40218Z" fill="#69C3FF"/>
<path d="M7.13672 8.3479H8.86384L8.95981 7.96412L8.52253 8.03703C8.43481 8.05166 8.34509 8.02666 8.27756 7.96878L7.78119 7.54331C7.73684 7.50528 7.68031 7.48438 7.62191 7.48438C7.557 7.48438 7.49472 7.51016 7.44884 7.55606L7.13672 7.86819V8.3479Z" fill="#009B64"/>
<path d="M7.90931 7.89969L8.07412 7.79437L7.78119 7.54331C7.73684 7.50528 7.68031 7.48438 7.62191 7.48438C7.557 7.48438 7.49472 7.51016 7.44884 7.55606L7.13672 7.86819V7.96416L7.61647 7.86819L7.70128 7.91059C7.76778 7.94384 7.84675 7.93966 7.90931 7.89969Z" fill="white"/>
<path d="M7.13672 8.34766L7.23266 8.92334L7.71241 9.40312H8.00028L8.38406 9.30719L8.7679 8.92334L8.86384 8.34766H7.13672Z" fill="#5AA0E6"/>
<path d="M7.9998 9.49823C7.4178 9.49823 6.94434 8.80951 6.94434 7.96298C6.94434 7.11645 7.4178 6.42773 7.9998 6.42773C8.5818 6.42773 9.05527 7.11645 9.05527 7.96298C9.05527 8.80951 8.5818 9.49823 7.9998 9.49823ZM7.9998 6.6197C7.52368 6.6197 7.13624 7.22233 7.13624 7.96304C7.13624 8.70376 7.52365 9.30639 7.9998 9.30639C8.47596 9.30639 8.86336 8.70376 8.86336 7.96304C8.86336 7.22233 8.47593 6.6197 7.9998 6.6197Z" fill="#FFC88C"/>
<path d="M7.32299 9.39422C7.24255 9.28316 7.1228 9.21094 6.98718 9.21094C6.85155 9.21094 6.7318 9.28316 6.65137 9.39422C6.78855 9.43225 6.9008 9.54362 6.95396 9.69044C6.97537 9.74956 6.98721 9.81444 6.98721 9.88262C6.98718 9.64525 7.13058 9.44756 7.32299 9.39422Z" fill="#E1E1E1"/>
<path d="M7.063 9.69756C7.063 9.69756 7.05553 9.8255 6.98991 9.88547L6.98716 9.88322C6.92156 9.82325 6.91406 9.69531 6.91406 9.69531L7.063 9.69756Z" fill="#E1E1E1"/>
<path d="M9.2003 9.73852H6.8003C6.77412 9.73852 6.75293 9.7173 6.75293 9.69114V9.68995C6.75293 9.66377 6.77415 9.64258 6.8003 9.64258H9.2003C9.22649 9.64258 9.24768 9.6638 9.24768 9.68995V9.69114C9.24768 9.7173 9.22649 9.73852 9.2003 9.73852Z" fill="#966446"/>
<path d="M8.48194 9.88189H7.51769C7.413 9.88189 7.32812 9.79701 7.32812 9.69233V9.68761C7.32812 9.58292 7.413 9.49805 7.51769 9.49805H8.48194C8.58662 9.49805 8.6715 9.58292 8.6715 9.68761V9.69233C8.67147 9.79701 8.58659 9.88189 8.48194 9.88189Z" fill="#BE915A"/>
<path d="M7.13671 9.64258H6.8009C6.77443 9.64258 6.75293 9.66405 6.75293 9.69055C6.75293 9.71705 6.7744 9.73852 6.8009 9.73852H7.13671V9.64258Z" fill="#B9B9B9"/>
<path d="M7.99999 9.88281V10.7595L7.61621 10.6504L7.80809 9.88281H7.99999Z" fill="#FF334B"/>
<path d="M7.90381 9.88281L7.71191 10.5545L7.32812 10.4585L7.616 9.88281H7.90381Z" fill="#41479B"/>
<path d="M7.5203 9.88281L7.23242 10.2666L7.5203 10.3626L7.71217 9.88281H7.5203Z" fill="#F8CB32"/>
<path d="M8 9.88281V10.7595L8.38378 10.6504L8.19191 9.88281H8Z" fill="#FF334B"/>
<path d="M8.0957 9.88281L8.28761 10.5545L8.67139 10.4585L8.38351 9.88281H8.0957Z" fill="#41479B"/>
<path d="M8.47996 9.88281L8.76784 10.2666L8.47996 10.3626L8.28809 9.88281H8.47996Z" fill="#F8CB32"/>
<path d="M6.05395 7.73467L5.91602 7.59567V6.9082H6.05395V7.73467Z" fill="#41479B"/>
<path d="M10.0833 7.59567L9.94531 7.73467V6.9082H10.0833V7.59567Z" fill="#41479B"/>
</svg>
