<svg width="16" height="16" viewBox="0 0 16 16" fill="none" xmlns="http://www.w3.org/2000/svg">
<g clip-path="url(#clip0_5367_192118)">
<rect x="14.6406" y="0.974609" width="14" height="14" rx="2" transform="rotate(90 14.6406 0.974609)" fill="#41479B"/>
<path d="M0.742375 14.9746L8.64062 7.97461L0.742375 0.974609C0.681594 1.04305 0.640625 1.14222 0.640625 1.25754V14.6916C0.640625 14.807 0.681594 14.9062 0.742375 14.9746Z" fill="white"/>
<path d="M3.53768 8.8693C4.03283 8.8693 4.43424 8.46789 4.43424 7.97273C4.43424 7.47758 4.03283 7.07617 3.53768 7.07617C3.04252 7.07617 2.64111 7.47758 2.64111 7.97273C2.64111 8.46789 3.04252 8.8693 3.53768 8.8693Z" fill="#F8CB32"/>
<path d="M3.53788 7.97278L3.20166 6.62797L3.53788 6.17969L3.87407 6.62797L3.53788 7.97278Z" fill="#F8CB32"/>
<path d="M3.53788 7.97266L3.87407 9.31747L3.53788 9.76575L3.20166 9.31747L3.53788 7.97266Z" fill="#F8CB32"/>
<path d="M3.53775 7.97294L2.19291 8.30916L1.74463 7.97294L2.19291 7.63672L3.53775 7.97294Z" fill="#F8CB32"/>
<path d="M3.5376 7.97294L4.88241 7.63672L5.33069 7.97294L4.88241 8.30916L3.5376 7.97294Z" fill="#F8CB32"/>
<path d="M3.5376 7.97302L4.25079 6.78436L4.8055 6.70508L4.72625 7.2598L3.5376 7.97302Z" fill="#F8CB32"/>
<path d="M3.53796 7.97266L2.82474 9.16131L2.27002 9.24059L2.3493 8.68587L3.53796 7.97266Z" fill="#F8CB32"/>
<path d="M3.53796 7.97302L2.3493 7.2598L2.27002 6.70508L2.82474 6.78436L3.53796 7.97302Z" fill="#F8CB32"/>
<path d="M3.5376 7.97266L4.72625 8.68587L4.8055 9.24059L4.25079 9.16131L3.5376 7.97266Z" fill="#F8CB32"/>
<path d="M1.38032 4.08904L1.42707 4.43779L1.1122 4.59491C1.07145 4.61526 1.08001 4.67579 1.12485 4.68397L1.47098 4.74729L1.5231 5.09529C1.52985 5.14035 1.59007 5.15088 1.61173 5.11076L1.77892 4.80113L2.12598 4.85907C2.17092 4.8666 2.19954 4.81254 2.1681 4.7796L1.92529 4.52491L2.08763 4.21272C2.10867 4.17232 2.0661 4.12838 2.02504 4.1481L1.70779 4.30035L1.46107 4.04944C1.4292 4.017 1.37429 4.04391 1.38032 4.08904Z" fill="#F8CB32"/>
<path d="M1.51945 10.8774L1.46039 11.2243L1.11308 11.2807C1.06811 11.288 1.05833 11.3484 1.09867 11.3695L1.41033 11.5328L1.35667 11.8806C1.34973 11.9256 1.40408 11.9535 1.43667 11.9217L1.68833 11.6758L2.00251 11.8343C2.0432 11.8548 2.08658 11.8117 2.06639 11.7709L1.91026 11.4556L2.15808 11.2058C2.19014 11.1735 2.16264 11.1189 2.11751 11.1255L1.76933 11.1765L1.60833 10.8636C1.58748 10.8231 1.52704 10.8325 1.51945 10.8774Z" fill="#F8CB32"/>
<path d="M6.97672 7.45967L6.77419 7.74742L6.43638 7.64898C6.39266 7.63623 6.35785 7.68652 6.38516 7.72295L6.59625 8.00448L6.39822 8.29536C6.3726 8.33301 6.40963 8.38164 6.45275 8.36692L6.78572 8.25317L7.00116 8.53139C7.02907 8.56742 7.08675 8.54717 7.08606 8.50164L7.08075 8.14983L7.41194 8.03089C7.45481 8.01548 7.45341 7.95436 7.40988 7.94095L7.0736 7.83727L7.06285 7.48555C7.06153 7.43995 7.00294 7.42239 6.97672 7.45967Z" fill="#F8CB32"/>
<path d="M14.6406 0.974609H0.640625V5.64128H14.6406V0.974609Z" fill="#464655"/>
<path d="M14.6406 5.64062H0.640625V10.3073H14.6406V5.64062Z" fill="white"/>
<path d="M14.6406 10.3086H0.640625V14.9753H14.6406V10.3086Z" fill="#73AF00"/>
<path d="M0.742375 14.9746L8.64062 7.97461L0.742375 0.974609C0.681594 1.04305 0.640625 1.14222 0.640625 1.25754V14.6916C0.640625 14.807 0.681594 14.9062 0.742375 14.9746Z" fill="#FF334B"/>
<path d="M10.121 7.9749C10.121 7.34565 10.5319 6.81259 11.1 6.62902C11.1327 6.61846 11.1284 6.57068 11.0943 6.56734C10.9852 6.55662 10.8725 6.55831 10.7575 6.57443C10.0902 6.66809 9.57535 7.2324 9.54316 7.90546C9.50435 8.71811 10.1517 9.38921 10.9558 9.38921C11.0024 9.38921 11.0483 9.38689 11.0937 9.38249C11.1279 9.37914 11.1324 9.33121 11.0996 9.32061C10.5318 9.13693 10.121 8.60396 10.121 7.9749Z" fill="#FF334B"/>
<path d="M11.3216 7.04628L11.1358 7.60347L10.5484 7.60803C10.4724 7.60862 10.4408 7.70565 10.502 7.75081L10.9745 8.09972L10.7973 8.65971C10.7743 8.73225 10.8569 8.79218 10.9188 8.74796L11.3966 8.4064L11.8744 8.74796C11.9363 8.79218 12.0188 8.73221 11.9958 8.65971L11.8187 8.09972L12.2911 7.75081C12.3523 7.70562 12.3208 7.60859 12.2447 7.60803L11.6574 7.60347L11.4716 7.04628C11.4477 6.97416 11.3457 6.97416 11.3216 7.04628Z" fill="#FF334B"/>
</g>
<defs>
<clipPath id="clip0_5367_192118">
<rect x="14.6406" y="0.974609" width="14" height="14" rx="2" transform="rotate(90 14.6406 0.974609)" fill="white"/>
</clipPath>
</defs>
</svg>
