<svg width="16" height="16" viewBox="0 0 16 16" fill="none" xmlns="http://www.w3.org/2000/svg">
<g clip-path="url(#clip0_5367_192006)">
<rect x="1" y="1" width="14" height="14" rx="2" fill="#82AFFF"/>
<path d="M9.50098 8.45703V11.4838C9.50098 12.7114 11.2253 13.3422 11.4354 13.4145C11.6453 13.3422 13.3698 12.7103 13.3698 11.4838V8.45703H9.50098Z" fill="white"/>
<path d="M13.438 9.8452V8.38867H9.43262V9.8452H11.1622V11.2107H9.43262V11.7569H11.1622V13.3954L11.4353 13.4864L11.7084 13.3954V11.7569H13.438V11.2107H11.7084V9.8452H13.438Z" fill="#FF334B"/>
<path d="M9.88123 9.50464C10.0071 9.50464 10.1091 9.4026 10.1091 9.27673C10.1091 9.15087 10.0071 9.04883 9.88123 9.04883C9.75536 9.04883 9.65332 9.15087 9.65332 9.27673C9.65332 9.4026 9.75536 9.50464 9.88123 9.50464Z" fill="white"/>
<path d="M10.3198 8.96939C10.2469 8.9293 10.1156 8.82171 10.0627 8.83996C10.0099 8.85821 9.99804 8.89558 9.92407 8.90127C9.85201 8.90683 9.7382 8.97714 9.78564 9.05508C9.84729 9.15652 10.0403 9.07764 10.053 9.03021C10.053 9.03021 10.1004 9.0378 10.1403 9.0283C10.1403 9.0283 10.2196 9.13892 10.318 9.13164C10.4164 9.12433 10.462 9.00221 10.4402 9.00221C10.4184 9.00221 10.3198 8.96939 10.3198 8.96939Z" fill="#F8CB32"/>
<path d="M10.6224 9.45239C10.606 9.48245 10.4811 9.58927 10.2723 9.63836C10.2258 9.6493 10.234 9.70398 10.1875 9.67664C10.1411 9.6493 10.0125 9.62739 9.89763 9.62195C9.78276 9.61648 9.77135 9.51005 9.79097 9.47155C9.81588 9.42264 9.99926 9.39283 10.0321 9.45298C10.0649 9.51317 10.0895 9.50061 10.1711 9.51802C10.2217 9.52883 10.2231 9.55358 10.2231 9.55358C10.2231 9.55358 10.3161 9.46058 10.3954 9.43323C10.4747 9.40589 10.5431 9.3457 10.5568 9.3457C10.5704 9.3457 10.6415 9.36483 10.6415 9.36483L10.6224 9.45239Z" fill="#F8CB32"/>
<path d="M10.9258 9.1298C11.0462 9.17355 11.4017 9.15986 11.7818 9.0368C12.1619 8.91373 12.2714 8.89186 12.4574 8.9602C12.6433 9.02855 12.7238 8.81255 12.6017 8.77601C12.4099 8.71861 11.8166 9.06333 11.387 8.86989C11.387 8.86989 11.3743 8.92192 11.388 8.94651C11.388 8.94651 11.0762 8.95745 11.15 8.63477C11.15 8.63477 11.1713 8.75258 11.3187 8.73905C11.5975 8.71345 11.6373 8.90973 12.2276 8.72773C12.5553 8.6267 12.8099 8.6763 12.8122 8.83573C12.8149 9.0277 12.5503 9.07233 12.5503 9.07233C12.5503 9.07233 12.6533 9.28292 12.8612 9.18992C13.069 9.09692 13.0799 9.25736 13.0982 9.31211C13.1164 9.36683 13.1511 9.4197 13.1966 9.42514C13.1966 9.42514 13.2294 9.52358 13.2167 9.53636C13.2039 9.54911 13.1183 9.6567 13.0326 9.6567C12.9469 9.6567 12.7609 9.6567 12.7609 9.6567C12.7609 9.6567 12.7117 9.53451 12.8065 9.53273C12.9013 9.53092 13.0162 9.52364 13.0016 9.47254C12.987 9.42151 12.9123 9.39779 12.9141 9.34126C12.9141 9.34126 12.6934 9.5017 12.5567 9.31208L12.5531 9.40142C12.5531 9.40142 12.3871 9.37042 12.327 9.23733C12.327 9.23733 12.3434 9.38686 12.2012 9.36495C12.2012 9.36495 12.2304 9.4087 12.2796 9.4397C12.3289 9.4707 12.2778 9.53814 12.183 9.59467C12.0882 9.6512 11.7965 9.81529 11.6634 9.64754C11.5303 9.47983 11.6926 9.38317 11.7327 9.39411C11.7728 9.40504 11.8876 9.58189 11.966 9.5582C12.0444 9.53451 12.0827 9.45426 12.0171 9.40508C11.9514 9.35589 11.9023 9.30933 11.9437 9.25964C12.0006 9.19136 12.2104 9.21183 12.203 9.16626C12.1958 9.12067 12.0007 9.13345 11.873 9.26104C11.7454 9.38867 11.1911 9.68223 10.9705 9.49626C10.7499 9.31029 10.9258 9.1298 10.9258 9.1298Z" fill="#F8CB32"/>
<path d="M10.8548 9.04731C10.8548 9.04731 11.0216 9.21141 11.3033 9.26337C11.3033 9.26337 11.2513 9.34269 11.1009 9.32081C11.1009 9.32081 11.1611 9.37278 11.2021 9.46028C11.2021 9.46028 11.1064 9.48216 11.0216 9.43566C11.0216 9.43566 11.0325 9.50675 11.0736 9.56422C11.0736 9.56422 10.9615 9.56422 10.8657 9.47944L10.8274 9.58881C10.8274 9.58881 10.7618 9.54506 10.7208 9.46025C10.7208 9.46025 10.6442 9.52044 10.5676 9.52044C10.5676 9.52044 10.595 9.43841 10.595 9.39187C10.595 9.39187 10.4856 9.4575 10.3953 9.43291C10.3953 9.43291 10.398 9.31803 10.4281 9.28522C10.4281 9.28522 10.357 9.29344 10.3105 9.26881C10.3105 9.26881 10.3379 9.20591 10.3516 9.16487C10.3516 9.16487 10.275 9.16759 10.2285 9.12384C10.2285 9.12384 10.3762 9.06641 10.409 9.01172L10.8548 9.04731Z" fill="#FFD25A"/>
<path d="M10.5855 8.58789C10.6183 8.60614 10.6712 8.64623 10.6931 8.71367C10.6931 8.71367 10.7533 8.62614 10.8572 8.60973C10.8572 8.60973 10.9028 8.66077 10.89 8.79386C10.89 8.79386 11.0049 8.76105 11.0669 8.8212C11.0669 8.8212 10.9447 8.84855 10.8882 8.95064C10.8882 8.95064 10.8662 9.05495 10.9046 9.11695C10.9046 9.11695 10.8619 9.12264 10.8189 9.10383C10.8189 9.10383 10.797 9.20776 10.8189 9.24058C10.8189 9.24058 10.7587 9.23326 10.7259 9.16948C10.7259 9.16948 10.6766 9.24423 10.6803 9.28983C10.6803 9.28983 10.6147 9.25155 10.611 9.19505C10.611 9.19505 10.5654 9.28073 10.5162 9.28805C10.5162 9.28805 10.5108 9.1677 10.4889 9.12211C10.4889 9.12211 10.447 9.1677 10.3923 9.16586C10.3923 9.16586 10.3923 9.07286 10.4379 9.02911C10.4379 9.02911 10.3613 9.0528 10.3193 8.96892C10.3193 8.96892 10.4451 9.00536 10.4761 8.92883C10.5071 8.85223 10.5162 8.82855 10.56 8.78661C10.6037 8.7447 10.5855 8.58789 10.5855 8.58789Z" fill="#FFBE5A"/>
<path d="M10.8542 8.94062C10.8542 8.94062 10.6983 9.23872 10.5561 9.1485C10.4003 9.04959 10.5943 8.81756 10.619 8.79297C10.6189 8.79294 10.7338 8.82303 10.8542 8.94062Z" fill="#F8CB32"/>
<path d="M10.2921 10.4667C10.2921 10.4667 10.2758 10.2526 10.1597 10.1908C10.0506 10.1328 9.98613 10.1037 9.97363 10.0293C9.97363 10.0293 10.0684 10.0729 10.1687 10.1001C10.2592 10.1247 10.3476 10.278 10.3208 10.4504L10.2921 10.4667Z" fill="#5ABEA0"/>
<path d="M9.92578 10.644L9.94053 10.6712L9.95125 10.7297L9.92978 10.7991C9.92978 10.7991 10.0151 10.833 10.0345 10.9488C10.0478 11.0283 10.0828 11.0455 10.1042 11.0292C10.1257 11.0128 10.1387 10.9935 10.1163 10.9066C10.0877 10.7957 10.0103 10.6902 10.0103 10.6902L9.94991 10.5977L9.92578 10.644Z" fill="#B46446"/>
<path d="M10.0105 10.6878C9.9327 10.5871 9.7206 10.3775 9.68038 10.6633C9.68038 10.6633 9.59726 10.4225 9.75285 10.4319C9.93266 10.4428 10.0105 10.6878 10.0105 10.6878Z" fill="#5ABEA0"/>
<path d="M9.94103 10.6701C9.87394 10.5966 9.85244 10.5422 9.81756 10.4061C9.78266 10.27 9.77194 10.2291 9.73166 10.2318C9.69137 10.2346 9.66725 10.2781 9.66725 10.3652C9.66725 10.3652 9.54916 10.259 9.62966 10.1746C9.71019 10.0903 9.89 10.1366 9.90075 10.2863C9.91147 10.436 9.90881 10.5367 9.96247 10.662L9.94103 10.6701Z" fill="#5ABEA0"/>
<path d="M9.95961 10.6043C9.95961 10.6043 9.81737 10.2912 10.2173 10.1224C10.2173 10.1224 9.86299 10.0271 9.90596 10.5308L9.95961 10.6043Z" fill="#5ABEA0"/>
<path d="M10.0059 10.7167C10.0059 10.7167 9.70532 10.6023 9.73217 10.88C9.73217 10.88 9.78317 10.7493 9.93079 10.7984L10.0059 10.7167Z" fill="#5ABEA0"/>
<path d="M10.3456 10.6066C10.3456 10.6878 10.3775 10.9235 10.3322 10.9533C10.3094 10.9682 10.2449 10.956 10.2503 10.8988C10.2557 10.8417 10.2812 10.564 10.2812 10.4959C10.2812 10.4279 10.3456 10.6066 10.3456 10.6066Z" fill="#B46446"/>
<path d="M10.1546 10.7946C10.2065 10.742 10.2226 10.6222 10.2047 10.4625C10.2047 10.4625 10.3121 10.5369 10.3461 10.6059C10.3461 10.6059 10.3801 10.448 10.2691 10.4062C10.1582 10.3645 10.0991 10.3881 10.0795 10.4389C10.0598 10.4897 10.1134 10.5465 10.1367 10.6294C10.1582 10.7057 10.1546 10.7946 10.1546 10.7946Z" fill="#5ABEA0"/>
<path d="M10.3392 10.5638C10.3392 10.5638 10.3572 10.4803 10.4162 10.4458C10.4162 10.4458 10.5379 10.5311 10.5289 10.6455C10.5289 10.6455 10.5611 10.4894 10.4949 10.4277C10.4287 10.366 10.3535 10.3497 10.316 10.4041C10.2784 10.4585 10.3392 10.5638 10.3392 10.5638Z" fill="#5ABEA0"/>
<path d="M10.3673 10.4049C10.3673 10.4049 10.4049 10.1816 10.4997 10.1326C10.5946 10.0836 10.77 10.0382 10.7807 10.0273C10.7807 10.0273 10.5713 10.0382 10.5373 10.0382C10.5033 10.0382 10.3154 10.1743 10.3154 10.3758C10.3154 10.5773 10.3333 10.4394 10.3387 10.4375C10.3441 10.4357 10.3673 10.4049 10.3673 10.4049Z" fill="#5ABEA0"/>
<path d="M10.4551 10.995C10.4765 11.04 10.5275 11.0508 10.5383 11.0277C10.549 11.0045 10.5973 10.8276 10.5973 10.8276L10.5289 10.7949L10.4551 10.995Z" fill="#B46446"/>
<path d="M10.8557 10.2525C10.9398 10.2035 10.9953 10.3487 10.9953 10.3487C10.9953 10.1777 10.9416 10.1237 10.8074 10.189C10.767 10.2087 10.7374 10.2499 10.7156 10.2977C10.6477 10.1025 10.4979 10.1055 10.4979 10.1055L10.4639 10.1291C10.5866 10.1527 10.6568 10.2997 10.6866 10.3799C10.6705 10.4384 10.6628 10.4952 10.6595 10.5276C10.5791 10.611 10.5283 10.7951 10.5283 10.7951C10.5283 10.7951 10.586 10.8291 10.5967 10.8278C10.5967 10.8278 10.6343 10.7121 10.6813 10.7148C10.7282 10.7175 10.7833 10.7924 10.7846 10.84C10.7846 10.84 10.8544 10.6985 10.7712 10.644C10.74 10.6236 10.715 10.6158 10.6948 10.6154L10.7565 10.546C10.8571 10.5651 10.9269 10.6604 10.9269 10.6604C10.9289 10.4903 10.8538 10.457 10.7746 10.4713C10.7887 10.4028 10.8199 10.2733 10.8557 10.2525Z" fill="#5ABEA0"/>
<path d="M12.5133 10.4883C12.5133 10.631 12.5133 10.9474 12.5133 10.9707C12.5133 10.9941 12.4111 11.0849 12.4111 11.0849H12.6828C12.6828 11.0849 12.5955 10.9837 12.5955 10.9707C12.5955 10.9578 12.6155 10.5246 12.6155 10.5246L12.5133 10.4883Z" fill="#B46446"/>
<path d="M12.5305 10.5381C12.4658 10.5329 12.2863 10.6808 12.234 10.9064C12.234 10.9064 12.0744 10.647 12.4732 10.4317C12.4732 10.4317 12.2963 10.3798 12.0271 10.66C12.0126 10.6751 11.9997 10.2372 12.4832 10.3539C12.4832 10.3539 12.2988 10.0867 11.9199 10.2968C11.9199 10.2968 12.1716 9.84545 12.543 10.2501C12.543 10.2501 12.5455 9.89992 12.548 9.93623C12.5505 9.97255 12.5779 10.1334 12.5779 10.1334L12.6502 10.0063L12.5929 10.2657C12.5929 10.2657 12.9244 9.82467 13.206 10.2839C13.206 10.2839 12.8421 10.1334 12.6677 10.302C12.6677 10.302 13.0415 10.2008 13.0116 10.634C13.0116 10.634 12.8646 10.3772 12.6253 10.411C12.6253 10.411 12.907 10.5406 12.8172 10.8909C12.8172 10.8909 12.6475 10.5474 12.5305 10.5381Z" fill="#5ABEA0"/>
<path d="M10.1505 12.0967C10.1366 12.0779 10.1172 12.0689 10.0981 12.0665C10.1055 12.0412 10.1104 12.0297 10.1084 12.0112C10.1142 12.0127 10.1198 12.0153 10.1258 12.016L10.1283 11.9952C10.1062 11.9925 10.0821 11.9826 10.0573 11.9675C10.0726 11.9544 10.0836 11.9342 10.0836 11.9096C10.0836 11.8828 10.0714 11.8604 10.0539 11.8477C10.0364 11.8604 10.0241 11.8828 10.0241 11.9096C10.0241 11.9297 10.0324 11.9458 10.0432 11.9587C10.034 11.9523 10.0247 11.945 10.0153 11.937C10.0129 11.9206 10.0066 11.904 9.99198 11.8907C9.9722 11.8726 9.94735 11.8666 9.92617 11.8709C9.92382 11.8924 9.93214 11.9166 9.95192 11.9346C9.9672 11.9486 9.9852 11.9533 10.0025 11.9537C10.0064 11.957 10.0105 11.9604 10.0149 11.9638C10.003 11.9623 9.99023 11.9636 9.97745 11.9682C9.95226 11.9774 9.93542 11.9966 9.92942 12.0173C9.94739 12.0294 9.97264 12.0333 9.99779 12.0241C10.0198 12.0161 10.0339 12 10.0415 11.9824C10.0562 11.9918 10.0724 11.9996 10.0891 12.0059L10.0864 12.0063C10.0859 12.0213 10.0869 12.0276 10.0794 12.0556C10.0625 12.0447 10.0401 12.0397 10.0164 12.0467C9.99076 12.0543 9.97273 12.0724 9.96542 12.0927C9.98261 12.1058 10.0075 12.1113 10.0333 12.1037C10.0526 12.0981 10.0657 12.0857 10.075 12.0716C10.0715 12.0822 10.067 12.0932 10.0621 12.1044C10.047 12.1114 10.0328 12.1222 10.0242 12.14C10.0124 12.164 10.0137 12.1896 10.0238 12.2087C10.0451 12.2049 10.0659 12.1901 10.0777 12.166C10.0867 12.1474 10.0863 12.1288 10.0817 12.1121C10.0838 12.1074 10.0858 12.1025 10.0879 12.0974C10.0899 12.1092 10.0946 12.1211 10.1027 12.132C10.1186 12.1536 10.1418 12.1643 10.1634 12.1642C10.1698 12.1436 10.1664 12.1183 10.1505 12.0967Z" fill="#5ABEA0"/>
<path d="M10.0273 12.03C10.1183 12.03 10.2373 12.0266 10.2338 12.1175C10.2303 12.2085 10.1288 12.5164 10.3632 12.6109C10.5977 12.7054 10.6257 12.6914 10.6257 12.6914L10.7307 12.9328L10.9861 12.8418L10.7411 12.6459C10.7411 12.6459 10.7201 12.5129 10.6607 12.4219C10.6607 12.4219 10.8111 12.3449 10.8636 12.2784L10.7587 12.2714C10.7587 12.2714 10.8951 12.184 10.9581 12.086L10.8846 12.093C10.8846 12.093 10.9686 12.009 10.9896 11.911C10.9896 11.911 10.8531 12.0475 10.7132 12.065C10.7132 12.065 10.7726 11.911 10.7866 11.8516C10.7866 11.8516 10.6817 11.918 10.6082 11.946C10.5347 11.974 10.4192 11.9775 10.4717 12.2155C10.4717 12.2155 10.4087 12.163 10.3702 12.051C10.3318 11.939 10.3178 11.897 10.2653 11.897C10.1796 11.897 10.1463 11.974 10.1463 11.974L10.0273 12.03Z" fill="#FFECDE"/>
<path d="M12.6096 12.0755C12.6411 12.0336 12.704 11.9024 12.7591 11.9365C12.8142 11.9706 12.8877 12.0545 12.9323 12.0152C12.9768 11.9758 12.9795 11.926 12.9113 11.9024C12.843 11.8788 12.767 11.8394 12.7198 11.8552C12.6726 11.8709 12.5283 12.0205 12.5283 12.0205L12.6096 12.0755Z" fill="#B46446"/>
<path d="M12.2032 12.188C12.2006 12.1277 12.2413 11.8657 12.4052 11.8995C12.4944 11.9178 12.5383 12.0124 12.6545 12.0568C12.7777 12.1041 12.8565 12.1329 12.8328 12.2142C12.8092 12.2955 12.7646 12.3926 12.6623 12.4162C12.56 12.4399 12.2032 12.188 12.2032 12.188Z" fill="#F8CB32"/>
<path d="M12.0959 12.4043C12.0609 12.4113 11.9315 12.6002 12.0854 12.7925C12.0854 12.7925 12.2743 12.8695 12.4247 12.7506C12.5751 12.6317 12.4632 12.5722 12.4632 12.5722L12.0959 12.4043Z" fill="#5ABEA0"/>
<path d="M12.109 12.4444C12.0932 12.4208 12.0959 12.4033 12.0959 12.4033C12.0959 12.4033 12.088 12.1323 12.2008 12.127C12.3136 12.1218 12.7202 12.3893 12.7202 12.4339C12.7202 12.4785 12.589 12.6071 12.4788 12.6333C12.3687 12.6595 12.109 12.4444 12.109 12.4444Z" fill="#5ABEA0"/>
<path d="M11.8311 13.1002C11.8311 13.1002 12.1894 12.9392 12.122 12.8082C12.0734 12.7138 11.9642 12.7743 11.9469 12.8465C11.9253 12.9365 11.8553 13.062 11.8311 13.1002Z" fill="#B46446"/>
<path d="M11.4353 13.558L11.4145 13.5514C11.3938 13.5448 10.8991 13.3855 10.3963 13.0541C9.72116 12.6091 9.36426 12.066 9.36426 11.4837V8.32031H13.5062V11.4837C13.5062 12.0661 13.1493 12.6091 12.4742 13.0541C11.9714 13.3855 11.4768 13.5448 11.4559 13.5514L11.4353 13.558ZM9.50082 8.45687V11.4837C9.50082 12.7112 11.2251 13.3421 11.4353 13.4144C11.6452 13.3421 13.3697 12.7102 13.3697 11.4837V8.45687H9.50082Z" fill="#464655"/>
<g clip-path="url(#clip1_5367_192006)">
<rect width="9.61523" height="6.28688" transform="translate(0.869141 0.839844)" fill="#41479B"/>
<path d="M10.332 0.714844H9.733L6.53885 2.8033V0.714844H4.8147V2.8033L1.62055 0.714844H1.0216C0.831172 0.714844 0.676758 0.868945 0.676758 1.05899V1.33195L3.4172 3.12375H0.676758V4.8444H3.4172L0.676758 6.63624V6.90916C0.676758 7.0992 0.831172 7.25331 1.0216 7.25331H1.62055L4.8147 5.16484V7.25331H6.53885V5.16484L9.73296 7.25331H10.3319C10.5223 7.25331 10.6768 7.0992 10.6768 6.90916V6.6362L7.93636 4.8444H10.6768V3.12375H7.93632L10.6768 1.33195V1.05899C10.6768 0.868945 10.5224 0.714844 10.332 0.714844Z" fill="white"/>
<path d="M10.6768 3.46789H6.19401V0.714844H5.15951V3.46789H0.676758V4.50025H5.15951V7.25331H6.19401V4.50025H10.6768V3.46789Z" fill="#FF334B"/>
<path d="M4.81738 3.11059L0.856151 0.714844C0.750741 0.777021 0.676758 0.881431 0.676758 1.0063V1.0245L4.12599 3.11059H4.81738Z" fill="#FF334B"/>
<path d="M7.17608 3.11059L10.6428 0.886481C10.5826 0.785716 10.4763 0.714844 10.3492 0.714844H10.2743L6.54004 3.11059H7.17608Z" fill="#FF334B"/>
<path d="M4.18202 4.84961L0.725586 7.07591C0.785188 7.17942 0.893029 7.25233 1.0218 7.25233H1.08704L4.81738 4.84961H4.18202Z" fill="#FF334B"/>
<path d="M10.6772 6.93504L7.4617 4.84961H6.83105L10.4825 7.21777C10.5919 7.16706 10.6669 7.06076 10.6772 6.93504Z" fill="#FF334B"/>
</g>
</g>
<defs>
<clipPath id="clip0_5367_192006">
<rect x="1" y="1" width="14" height="14" rx="2" fill="white"/>
</clipPath>
<clipPath id="clip1_5367_192006">
<rect width="9.61523" height="6.28688" fill="white" transform="translate(0.869141 0.839844)"/>
</clipPath>
</defs>
</svg>
