<svg width="16" height="16" viewBox="0 0 16 16" fill="none" xmlns="http://www.w3.org/2000/svg">
<g clip-path="url(#clip0_5367_191913)">
<rect x="1" y="1" width="14" height="14" rx="2" fill="white"/>
<path d="M15 7.05145H8.9019V0.951172H7.24674V7.05145H0.875V8.70664H7.24674V15.0762H8.9019V8.70664H15V7.05145Z" fill="#FF334B"/>
<path d="M5.18926 3.77722C4.91601 3.80469 4.64833 3.83222 4.38026 3.85978C4.40783 3.59169 4.43533 3.324 4.46286 3.05078C4.21226 3.08319 3.95942 3.08319 3.70883 3.05078C3.7363 3.324 3.76383 3.59172 3.79142 3.85978C3.52333 3.83225 3.25561 3.80472 2.98242 3.77722C3.01483 4.02778 3.01483 4.28065 2.98242 4.53122C3.25567 4.50375 3.52336 4.47622 3.79142 4.44865C3.76386 4.71675 3.73633 4.98443 3.70883 5.25765C3.95942 5.22525 4.21226 5.22525 4.46286 5.25765C4.43539 4.98443 4.40783 4.71672 4.38026 4.44865C4.64836 4.47619 4.91604 4.50372 5.18926 4.53122C5.15689 4.28065 5.15689 4.02775 5.18926 3.77722Z" fill="#FF334B"/>
<path d="M13.1893 3.77722C12.916 3.80469 12.6483 3.83222 12.3803 3.85978C12.4078 3.59169 12.4353 3.324 12.4629 3.05078C12.2123 3.08319 11.9594 3.08319 11.7088 3.05078C11.7363 3.324 11.7638 3.59172 11.7914 3.85978C11.5233 3.83225 11.2556 3.80472 10.9824 3.77722C11.0148 4.02778 11.0148 4.28065 10.9824 4.53122C11.2557 4.50375 11.5234 4.47622 11.7914 4.44865C11.7639 4.71675 11.7363 4.98443 11.7088 5.25765C11.9594 5.22525 12.2123 5.22525 12.4629 5.25765C12.4354 4.98443 12.4078 4.71672 12.3803 4.44865C12.6484 4.47619 12.916 4.50372 13.1893 4.53122C13.1569 4.28065 13.1569 4.02775 13.1893 3.77722Z" fill="#FF334B"/>
<path d="M5.18926 11.0897C4.91601 11.1172 4.64833 11.1447 4.38026 11.1723C4.40783 10.9042 4.43533 10.6365 4.46286 10.3633C4.21226 10.3957 3.95942 10.3957 3.70883 10.3633C3.7363 10.6365 3.76383 10.9042 3.79142 11.1723C3.52333 11.1447 3.25561 11.1172 2.98242 11.0897C3.01483 11.3403 3.01483 11.5932 2.98242 11.8437C3.25567 11.8162 3.52336 11.7887 3.79142 11.7612C3.76386 12.0292 3.73633 12.2969 3.70883 12.5702C3.95942 12.5377 4.21226 12.5377 4.46286 12.5702C4.43539 12.2969 4.40783 12.0292 4.38026 11.7612C4.64836 11.7887 4.91604 11.8162 5.18926 11.8437C5.15689 11.5932 5.15689 11.3402 5.18926 11.0897Z" fill="#FF334B"/>
<path d="M13.1893 11.0897C12.916 11.1172 12.6483 11.1447 12.3803 11.1723C12.4078 10.9042 12.4353 10.6365 12.4629 10.3633C12.2123 10.3957 11.9594 10.3957 11.7088 10.3633C11.7363 10.6365 11.7638 10.9042 11.7914 11.1723C11.5233 11.1447 11.2556 11.1172 10.9824 11.0897C11.0148 11.3403 11.0148 11.5932 10.9824 11.8437C11.2557 11.8162 11.5234 11.7887 11.7914 11.7612C11.7639 12.0292 11.7363 12.2969 11.7088 12.5702C11.9594 12.5377 12.2123 12.5377 12.4629 12.5702C12.4354 12.2969 12.4078 12.0292 12.3803 11.7612C12.6484 11.7887 12.916 11.8162 13.1893 11.8437C13.1569 11.5932 13.1569 11.3402 13.1893 11.0897Z" fill="#FF334B"/>
</g>
<defs>
<clipPath id="clip0_5367_191913">
<rect x="1" y="1" width="14" height="14" rx="2" fill="white"/>
</clipPath>
</defs>
</svg>
