<svg width="16" height="16" viewBox="0 0 16 16" fill="none" xmlns="http://www.w3.org/2000/svg">
<rect x="1" y="14.8398" width="14" height="14" rx="2" transform="rotate(-90 1 14.8398)" fill="#FF334B"/>
<path d="M8.05146 8.0051L7.95399 8.06139C7.78511 7.81821 7.79436 7.22341 7.79436 7.21663C7.79612 7.19901 7.78555 7.1831 7.76969 7.17609L7.03906 6.85632L7.04325 6.78133C7.42425 6.82527 7.86473 7.00251 7.87083 7.00554C7.88582 7.01499 7.90475 7.01264 7.91815 7.00159L8.52443 6.49609L8.65491 6.6127C8.46587 6.84488 8.00593 7.1656 7.99999 7.16891C7.98373 7.17597 7.97496 7.19287 7.97651 7.21017L8.05146 8.0051Z" fill="#F8CB32"/>
<path d="M10.7022 4.40432C10.7171 4.41193 10.735 4.41046 10.7484 4.40049L10.9069 4.2832L10.8566 4.42943C10.8509 4.44606 10.8558 4.46463 10.8689 4.47667L10.9435 4.54333C10.9213 4.58076 10.9125 4.62681 10.9117 4.67485L10.8011 4.73098C10.7917 4.73576 10.7844 4.74373 10.7803 4.75346L10.6979 4.95307L10.6527 4.78755C10.6469 4.76574 10.6261 4.75243 10.6042 4.75542L10.4053 4.7826L10.5668 4.5997C10.5754 4.58989 10.5792 4.57682 10.5773 4.56402L10.5413 4.32247L10.7022 4.40432Z" fill="#F8CB32"/>
<path d="M8.89955 10.9218C8.88568 10.9311 8.87826 10.9474 8.88041 10.964L8.90605 11.1594L8.80264 11.0445C8.79084 11.0314 8.77226 11.0267 8.75536 11.0323L8.66087 11.0651C8.63891 11.0276 8.60291 10.9976 8.56133 10.9735L8.56591 10.8497C8.56627 10.8391 8.56288 10.8288 8.55638 10.8206L8.42188 10.6516L8.58852 10.6924C8.61036 10.6979 8.63213 10.6862 8.6401 10.6656L8.71286 10.4785L8.79442 10.7085C8.79881 10.7208 8.80838 10.7304 8.8205 10.735L9.04917 10.8208L8.89955 10.9218Z" fill="#F8CB32"/>
<path d="M4.0613 6.33934C4.05919 6.32279 4.04782 6.30884 4.032 6.30334L3.8457 6.23899L3.9948 6.19785C4.01171 6.19311 4.02426 6.1786 4.02677 6.16098L4.03957 6.06179C4.08295 6.05892 4.12592 6.0401 4.16603 6.01367L4.27482 6.07315C4.28407 6.07818 4.29479 6.07977 4.30512 6.07758L4.51641 6.03277L4.40542 6.16361C4.39071 6.18071 4.39147 6.20535 4.40634 6.22173L4.54125 6.37047L4.2991 6.34069C4.2861 6.3391 4.27323 6.34336 4.2637 6.35217L4.08478 6.51842L4.0613 6.33934Z" fill="#F8CB32"/>
<path d="M7.93646 12.3223C7.82887 12.5392 7.59609 12.7191 7.53784 12.7297C7.52724 12.7315 7.51843 12.7279 7.50966 12.7191C7.48319 12.6891 7.47087 12.608 7.50615 12.5004C7.50966 12.4898 7.51325 12.4757 7.51851 12.4598L7.93646 12.3223Z" fill="white"/>
<path d="M8.01446 12.0977C8.00035 12.14 7.98799 12.1823 7.97918 12.2141L7.54883 12.3569C7.56119 12.3182 7.57351 12.2758 7.58586 12.2299L8.01446 12.0977Z" fill="white"/>
<path d="M8.10894 11.8555C8.08777 11.9031 8.06839 11.949 8.05073 11.993L7.61328 12.1271C7.62564 12.0795 7.63975 12.0301 7.65207 11.9807L8.10894 11.8555Z" fill="#F8CB32"/>
<path d="M8.19627 11.68C8.18391 11.7029 8.1716 11.7259 8.15924 11.7505L7.67773 11.8811C7.6989 11.7982 7.71652 11.717 7.73064 11.6465L8.19627 11.68Z" fill="white"/>
<path d="M8.33144 11.4968C8.30326 11.5232 8.27675 11.5567 8.25032 11.5955L7.74414 11.5585C7.7512 11.5126 7.75646 11.472 7.75646 11.4421C7.75646 11.4191 7.75471 11.398 7.75295 11.375C7.77237 11.3768 7.79349 11.3768 7.81116 11.3768C7.93817 11.3768 8.02811 11.3538 8.09337 11.3203C8.16564 11.4262 8.25913 11.4738 8.33144 11.4968Z" fill="white"/>
<path d="M8.43365 11.4252C8.40188 11.4217 8.26083 11.4076 8.16551 11.27C8.21315 11.2295 8.23607 11.1854 8.24664 11.1554C8.29954 11.0073 7.93094 10.7762 7.70518 10.6527C7.59933 10.5945 7.51645 10.4799 7.44238 10.3476C7.45119 10.3493 7.45825 10.3493 7.46706 10.3493C7.57992 10.3493 7.6699 10.2964 7.7175 10.2559C7.75984 10.3264 7.79863 10.3916 7.83391 10.4481C7.99441 10.7197 8.06852 10.8432 8.23958 10.9631C8.24484 10.9666 8.2519 10.9702 8.259 10.9702C8.34188 10.9808 8.58175 11.0336 8.59587 11.1395C8.61532 11.2841 8.56238 11.3759 8.43365 11.4252Z" fill="white"/>
<path d="M8.16388 11.1262C8.14446 11.1826 8.06338 11.3096 7.74234 11.2885C7.71411 11.1051 7.63298 10.9745 7.50422 10.9146C7.33666 10.8352 6.71048 10.3872 6.4248 10.1208C6.48125 9.94093 6.6294 9.79458 6.83929 9.71692C6.86931 9.70456 6.89574 9.694 6.91866 9.68164C6.97512 9.72753 7.02626 9.77863 7.0686 9.83684C7.1339 9.92857 7.19031 10.0449 7.25027 10.1684C7.36138 10.3942 7.47603 10.6288 7.663 10.7311C8.00868 10.9216 8.17975 11.0856 8.16388 11.1262Z" fill="white"/>
<path d="M7.67041 10.1804C7.63688 10.214 7.52577 10.2898 7.39174 10.251C7.37057 10.2105 7.3512 10.1699 7.33003 10.1293C7.26832 10.0023 7.21011 9.88241 7.13955 9.78537C7.09901 9.72717 7.04782 9.67602 6.99316 9.63017C7.07254 9.56137 7.0849 9.48729 7.0884 9.42383C7.22773 9.54374 7.3583 9.69368 7.47821 9.87886C7.55396 9.99347 7.61571 10.0922 7.67041 10.1804Z" fill="white"/>
<path d="M7.00555 9.35793C7.00379 9.37205 7.00204 9.38795 7.00204 9.40382C6.99853 9.46378 6.99323 9.52202 6.92267 9.57488C6.77452 9.46904 6.60342 9.39672 6.45703 9.34912C6.52409 9.28031 6.56814 9.21155 6.58931 9.14453C6.58931 9.14453 6.58931 9.14453 6.59106 9.14453C6.73565 9.18504 6.87503 9.25739 7.00555 9.35793Z" fill="white"/>
<path d="M6.83607 9.62081C6.82726 9.62431 6.8202 9.62962 6.8096 9.63313C6.58914 9.71425 6.42685 9.86419 6.35457 10.0494C6.26814 9.96298 6.20643 9.88536 6.15699 9.82364C6.1023 9.75308 6.05649 9.69839 6 9.6596C6.15871 9.57847 6.28572 9.4973 6.38275 9.41797C6.38451 9.41797 6.38451 9.41797 6.38626 9.41797C6.52388 9.46031 6.69144 9.52377 6.83607 9.62081Z" fill="white"/>
<path d="M6.29994 9.36964C6.2082 9.44196 6.07948 9.52309 5.89777 9.61127C5.85543 9.60067 5.81313 9.59186 5.77785 9.58484C5.69142 9.56897 5.63497 9.55661 5.59088 9.50722C5.56441 9.47899 5.51326 9.39962 5.46387 9.29912C5.47096 9.30263 5.47798 9.30618 5.48504 9.30793C5.53618 9.32029 5.60846 9.29733 5.69844 9.26559C5.80954 9.22856 5.94537 9.18267 6.06883 9.19854C6.17994 9.21265 6.20996 9.25674 6.2452 9.30614C6.26115 9.32731 6.27701 9.35023 6.29994 9.36964Z" fill="white"/>
<path d="M6.50958 9.10742C6.49547 9.16212 6.45668 9.23089 6.36846 9.31377C6.34729 9.29966 6.33318 9.28024 6.31731 9.25732C6.27852 9.20262 6.22913 9.13385 6.08094 9.11444C5.93806 9.09502 5.78992 9.14446 5.67 9.185C5.60295 9.20792 5.53239 9.23264 5.5042 9.22554C5.47418 9.21845 5.43539 9.17085 5.43364 9.12321C5.43189 9.06851 5.48128 9.04384 5.52182 9.03148C5.61355 9.00329 5.72466 9.02442 5.83401 9.04384C5.94512 9.065 6.05096 9.08438 6.1356 9.05089C6.1938 9.02797 6.26086 8.95565 6.34195 8.85156C6.3984 8.86388 6.446 8.88334 6.47422 8.92388C6.51489 8.98216 6.52549 9.04396 6.50958 9.10742Z" fill="#F8CB32"/>
<path d="M6.23958 8.8371C6.18488 8.90415 6.13724 8.95351 6.10204 8.96762C6.04208 8.9923 5.9486 8.97468 5.84981 8.95526C5.73695 8.93409 5.60818 8.91117 5.49703 8.94466C5.42998 8.96407 5.39298 8.99756 5.37177 9.02929C5.35236 8.9323 5.35236 8.83881 5.39645 8.76474C5.44054 8.68712 5.49875 8.62186 5.55875 8.55664C5.63812 8.56724 5.69628 8.58311 5.89737 8.75948C5.96618 8.81944 6.07728 8.82653 6.18488 8.8318C6.2025 8.83355 6.22192 8.83534 6.23958 8.8371Z" fill="white"/>
<path d="M7.87846 8.10946C7.68088 8.23998 6.8008 8.81848 6.61734 8.89434C6.60853 8.89785 6.60147 8.90495 6.59617 8.91196C6.59091 8.92077 6.58736 8.92783 6.58206 8.93664C6.57325 8.91372 6.56089 8.89255 6.54678 8.87142C6.5115 8.82027 6.45859 8.79205 6.40039 8.77443C6.42686 8.7409 6.45329 8.70562 6.48152 8.66683C6.60853 8.49221 6.75492 8.29643 6.92247 8.12182C7.20999 7.82199 7.59445 7.62441 7.72322 7.56445C7.74268 7.75142 7.78497 7.97192 7.87846 8.10946Z" fill="white"/>
<path d="M7.71398 7.47011C7.62224 7.51065 7.18663 7.71704 6.85853 8.05921C6.68571 8.23912 6.53223 8.44547 6.41052 8.61303C6.37348 8.66242 6.3382 8.71002 6.30467 8.75415C6.26588 8.75064 6.22709 8.7471 6.19002 8.74534C6.09303 8.73829 6.00129 8.73298 5.95541 8.69244C5.7861 8.5443 5.70668 8.50021 5.63086 8.48079C5.63796 8.47374 5.64322 8.46668 5.65027 8.45962C5.76138 8.34676 5.87779 8.2286 5.96952 8.06455C6.12823 7.78059 6.65916 7.16147 7.00488 6.9375L7.70513 7.24443C7.70513 7.28669 7.70696 7.36961 7.71398 7.47011Z" fill="white"/>
<path d="M3.23989 4.85234C3.0939 4.65915 3.03701 4.37048 3.05355 4.31367C3.0567 4.30343 3.0638 4.29709 3.07564 4.29318C3.11431 4.28294 3.19241 4.30813 3.2729 4.38774C3.28079 4.39564 3.29179 4.40509 3.30363 4.41693L3.23989 4.85234Z" fill="white"/>
<path d="M3.40577 5.02264C3.37423 4.99111 3.34186 4.96113 3.31738 4.93904L3.38193 4.49023C3.41115 4.51862 3.44348 4.54856 3.47896 4.58009L3.40577 5.02264Z" fill="white"/>
<path d="M3.57946 5.21513C3.54629 5.17491 3.51396 5.13707 3.48242 5.10159L3.55801 4.65039C3.59508 4.68272 3.63296 4.71745 3.67163 4.75049L3.57946 5.21513Z" fill="#F8CB32"/>
<path d="M3.69691 5.37014C3.68192 5.34885 3.6669 5.32757 3.65039 5.30548L3.74878 4.81641C3.81348 4.87238 3.87818 4.9244 3.93499 4.96857L3.69691 5.37014Z" fill="white"/>
<path d="M3.80019 5.57447C3.78915 5.53739 3.77097 5.49876 3.74805 5.45778L4.00737 5.02148C4.04525 5.04827 4.07917 5.07116 4.106 5.08455C4.12649 5.0948 4.14627 5.10269 4.16756 5.11134C4.15731 5.12793 4.14786 5.14682 4.13997 5.16265C4.08324 5.27627 4.06351 5.367 4.06434 5.44036C3.93737 5.4577 3.85301 5.52005 3.80019 5.57447Z" fill="white"/>
<path d="M3.81924 5.69813C3.83658 5.6713 3.91225 5.55138 4.07789 5.52766C4.09288 5.58842 4.1221 5.6286 4.14419 5.65148C4.25306 5.76502 4.62453 5.5385 4.83586 5.39172C4.93525 5.32307 5.07482 5.30014 5.22627 5.29297C5.22077 5.30006 5.21762 5.3064 5.21363 5.31426C5.16316 5.4152 5.17034 5.51933 5.18533 5.58008C5.10328 5.58642 5.02758 5.59196 4.96132 5.5983C4.64662 5.62051 4.50302 5.63159 4.31928 5.73106C4.31374 5.73421 4.30744 5.73895 4.30433 5.74525C4.25785 5.81465 4.10329 6.00561 4.00231 5.97097C3.86429 5.92369 3.80589 5.83539 3.81924 5.69813Z" fill="white"/>
<path d="M4.20783 5.59089C4.16601 5.54832 4.08867 5.41899 4.25104 5.14129C4.42777 5.19798 4.58073 5.18374 4.69196 5.09536C4.83783 4.98095 5.51846 4.62096 5.88435 4.48438C6.02005 4.61525 6.08479 4.81323 6.06044 5.03564C6.05812 5.06797 6.05573 5.0964 6.05653 5.12239C5.99027 5.15241 5.92166 5.17529 5.85066 5.18713C5.73944 5.20451 5.61007 5.203 5.47281 5.20148C5.22118 5.19997 4.9601 5.19774 4.78504 5.31929C4.46018 5.54349 4.23697 5.62323 4.20783 5.59089Z" fill="white"/>
<path d="M5.27482 5.57089C5.25983 5.52592 5.24161 5.39265 5.33622 5.29007C5.38198 5.28923 5.42691 5.29003 5.47268 5.28923C5.61388 5.29079 5.7472 5.29226 5.86552 5.27253C5.93572 5.26224 6.00429 5.23936 6.06979 5.21094C6.09586 5.31268 6.15662 5.35681 6.21183 5.38834C6.04224 5.45938 5.84985 5.50917 5.63055 5.53369C5.49409 5.55032 5.37816 5.5614 5.27482 5.57089Z" fill="white"/>
<path d="M6.30746 5.34423C6.29562 5.33633 6.28223 5.32768 6.268 5.32054C6.21593 5.29061 6.16622 5.25983 6.15039 5.17308C6.31125 5.08785 6.45242 4.96709 6.56045 4.85742C6.59203 4.94812 6.63388 5.01828 6.68435 5.0672C6.68435 5.0672 6.68435 5.0672 6.68356 5.06879C6.58274 5.18006 6.45572 5.27239 6.30746 5.34423Z" fill="white"/>
<path d="M6.14777 5.07386C6.14856 5.06441 6.14697 5.05572 6.14856 5.04468C6.17452 4.81118 6.11288 4.59902 5.97949 4.45155C6.09546 4.41284 6.19246 4.39231 6.26976 4.37573C6.3573 4.35835 6.42671 4.34176 6.48663 4.30859C6.4883 4.48683 6.50409 4.63673 6.53176 4.75896C6.53096 4.76055 6.53096 4.76055 6.53016 4.76211C6.43081 4.86632 6.29918 4.98783 6.14777 5.07386Z" fill="white"/>
<path d="M6.61092 4.70663C6.5872 4.59225 6.57217 4.44084 6.57445 4.23888C6.60283 4.20575 6.62966 4.17178 6.65171 4.14344C6.70453 4.07324 6.74077 4.02823 6.80467 4.01084C6.84175 3.9998 6.93559 3.98952 7.04762 3.99027C7.04132 3.99502 7.03498 3.99972 7.03027 4.00526C6.99635 4.04553 6.98459 4.12044 6.97279 4.21508C6.95628 4.33105 6.93659 4.47305 6.86722 4.57638C6.80495 4.66947 6.75209 4.67661 6.69213 4.68609C6.66614 4.69084 6.63855 4.69479 6.61092 4.70663Z" fill="white"/>
<path d="M6.75436 5.01427C6.71175 4.97724 6.66758 4.91178 6.63281 4.79581C6.6549 4.78317 6.67858 4.77923 6.70613 4.77528C6.77238 4.76499 6.85598 4.75156 6.93954 4.62769C7.02075 4.50858 7.04279 4.35394 7.06006 4.22852C7.0695 4.15831 7.07891 4.08412 7.09785 4.06208C7.11754 4.0384 7.1775 4.02496 7.22088 4.04466C7.27059 4.06754 7.27059 4.12275 7.26349 4.16453C7.24774 4.25921 7.17918 4.34915 7.11292 4.43829C7.04435 4.52827 6.97969 4.61426 6.97183 4.70495C6.96633 4.76731 7.00109 4.85956 7.0579 4.97863C7.02166 5.0236 6.983 5.05757 6.93412 5.06467C6.86404 5.07495 6.80408 5.05685 6.75436 5.01427Z" fill="#F8CB32"/>
<path d="M7.11417 4.89156C7.07861 4.8127 7.05577 4.748 7.05888 4.71013C7.06358 4.64543 7.12115 4.56972 7.18262 4.48999C7.25199 4.3985 7.33004 4.29353 7.34974 4.17915C7.36234 4.11054 7.3489 4.06239 7.32992 4.0293C7.42536 4.05529 7.509 4.09707 7.55557 4.16963C7.60528 4.24374 7.63765 4.32498 7.66922 4.40778C7.62426 4.47408 7.58407 4.51905 7.33642 4.62007C7.25207 4.65483 7.19606 4.75107 7.14327 4.84496C7.13386 4.85999 7.12362 4.87657 7.11417 4.89156Z" fill="white"/>
<path d="M7.03379 6.68194C7.00532 6.44689 6.88106 5.401 6.89517 5.20303C6.89597 5.19358 6.89278 5.18413 6.88883 5.1762C6.88329 5.16755 6.87859 5.16125 6.87305 5.15252C6.89752 5.15491 6.92196 5.15332 6.9472 5.15013C7.00875 5.14144 7.05763 5.10671 7.09941 5.0625C7.11758 5.10117 7.13728 5.1406 7.1594 5.18317C7.25887 5.37481 7.36858 5.59324 7.44991 5.82119C7.58968 6.21239 7.59454 6.64462 7.59067 6.78658C7.41793 6.74867 7.21785 6.70594 7.03379 6.68194Z" fill="white"/>
<path d="M7.67807 6.82104C7.68278 6.72085 7.69286 6.23891 7.53336 5.79249C7.44964 5.55744 7.33363 5.32798 7.23811 5.14419C7.21049 5.08898 7.18366 5.03616 7.15918 4.98644C7.17967 4.95332 7.20016 4.92015 7.2183 4.88782C7.26797 4.80418 7.31366 4.72448 7.37047 4.7016C7.57869 4.61637 7.6536 4.56502 7.70482 4.50586C7.70797 4.51531 7.71196 4.5232 7.71507 4.53269C7.76642 4.68251 7.82008 4.83946 7.92584 4.99486C8.10898 5.26375 8.42552 6.01534 8.47145 6.42469L7.88402 6.91396C7.84611 6.89511 7.77116 6.85967 7.67807 6.82104Z" fill="white"/>
<path d="M12.3926 4.56716C12.6345 4.55596 12.9047 4.67221 12.9423 4.71798C12.949 4.72639 12.9502 4.73579 12.9467 4.74779C12.9334 4.78551 12.8684 4.83566 12.7572 4.85703C12.7462 4.8591 12.7322 4.86285 12.7158 4.86592L12.3926 4.56716Z" fill="white"/>
<path d="M12.1592 4.60766C12.203 4.59949 12.246 4.58973 12.2781 4.58203L12.6119 4.889C12.572 4.89705 12.529 4.90678 12.4829 4.91826L12.1592 4.60766Z" fill="white"/>
<path d="M11.9014 4.64282C11.9533 4.6382 12.0027 4.63293 12.0499 4.62695L12.3794 4.94433C12.3317 4.95664 12.2817 4.96825 12.2325 4.98144L11.9014 4.64282Z" fill="#F8CB32"/>
<path d="M11.707 4.65222C11.7331 4.65187 11.7591 4.65155 11.7867 4.65039L12.1345 5.00803C12.0517 5.02976 11.9722 5.05372 11.9037 5.0756L11.707 4.65222Z" fill="white"/>
<path d="M11.481 4.62109C11.5178 4.63293 11.5599 4.63979 11.6067 4.6441L11.82 5.10467C11.7765 5.12077 11.7385 5.1358 11.7123 5.15035C11.6922 5.16148 11.6746 5.17328 11.6554 5.18595C11.6475 5.16813 11.6372 5.14964 11.6287 5.13421C11.567 5.02318 11.5033 4.95565 11.4424 4.91487C11.4997 4.80029 11.496 4.69544 11.481 4.62109Z" fill="white"/>
<path d="M11.3682 4.56754C11.3805 4.597 11.4367 4.72724 11.3626 4.87726C11.304 4.85529 11.2544 4.85669 11.223 4.86195C11.0678 4.88759 11.0447 5.32205 11.0463 5.57934C11.0468 5.70009 10.9868 5.82822 10.9071 5.95723C10.9044 5.94866 10.9009 5.94248 10.8966 5.93478C10.8419 5.83612 10.7519 5.78309 10.6934 5.76117C10.7345 5.68989 10.7727 5.62431 10.8049 5.56606C10.9645 5.2939 11.0366 5.16924 11.0584 4.96142C11.0589 4.95508 11.0585 4.94723 11.0551 4.94105C11.0241 4.86347 10.954 4.62802 11.0397 4.56431C11.1567 4.47713 11.2626 4.47896 11.3682 4.56754Z" fill="white"/>
<path d="M11.2368 4.94977C11.2956 4.93933 11.446 4.94862 11.5833 5.2396C11.4366 5.3533 11.3618 5.48757 11.3719 5.62925C11.3839 5.81427 11.2961 6.57917 11.2018 6.95822C11.0172 6.99617 10.8172 6.93769 10.6475 6.79186C10.6221 6.77161 10.6001 6.75363 10.5781 6.7396C10.5908 6.668 10.6107 6.59843 10.6411 6.53321C10.6896 6.43163 10.764 6.32579 10.8428 6.21344C10.9862 6.00674 11.1357 5.79262 11.1345 5.5795C11.1333 5.18478 11.1937 4.95559 11.2368 4.94977Z" fill="white"/>
<path d="M10.6496 5.83984C10.6952 5.85288 10.8154 5.91324 10.8465 6.04922C10.8213 6.08741 10.7953 6.12405 10.7701 6.16228C10.689 6.27789 10.6124 6.38696 10.5618 6.49576C10.5306 6.55946 10.5107 6.62899 10.4971 6.69907C10.3985 6.66304 10.3278 6.68819 10.2705 6.71598C10.3078 6.53594 10.3755 6.34905 10.4792 6.15431C10.5426 6.03236 10.599 5.93046 10.6496 5.83984Z" fill="white"/>
<path d="M10.2538 6.82073C10.267 6.81538 10.2818 6.80925 10.2956 6.80155C10.3497 6.77556 10.4032 6.75188 10.4837 6.78792C10.463 6.96879 10.4828 7.15353 10.5123 7.30462C10.4196 7.27942 10.338 7.27424 10.2692 7.28827C10.2692 7.28827 10.2692 7.28827 10.2683 7.28672C10.2336 7.14057 10.2292 6.98366 10.2538 6.82073Z" fill="white"/>
<path d="M10.5657 6.83984C10.5731 6.84582 10.5811 6.84945 10.5894 6.85699C10.7673 7.01039 10.9772 7.07948 11.1742 7.05285C11.1406 7.17033 11.1027 7.26202 11.0726 7.33514C11.0375 7.41718 11.0119 7.48384 11.0054 7.55201C10.8574 7.45258 10.7249 7.38094 10.6084 7.33466C10.6076 7.3331 10.6076 7.33311 10.6067 7.33159C10.5769 7.1907 10.5511 7.01338 10.5657 6.83984Z" fill="white"/>
<path d="M10.6069 7.43164C10.7146 7.47673 10.8481 7.54992 11.0134 7.66597C11.0247 7.70811 11.0375 7.74941 11.0484 7.7837C11.0765 7.86698 11.093 7.92231 11.0713 7.98482C11.0594 8.02166 11.0149 8.10486 10.9509 8.19687C10.9506 8.18897 10.9502 8.18112 10.9484 8.17406C10.9343 8.12336 10.8792 8.07125 10.8078 8.00802C10.7215 7.92885 10.6155 7.83237 10.5694 7.71668C10.5278 7.61267 10.5518 7.56503 10.5779 7.51026C10.5888 7.4861 10.6011 7.46106 10.6069 7.43164Z" fill="white"/>
<path d="M10.2745 7.37579C10.3291 7.3616 10.4081 7.36216 10.5234 7.39904C10.5213 7.42439 10.5112 7.44616 10.4988 7.47115C10.4698 7.53159 10.4337 7.60817 10.4886 7.74715C10.541 7.88149 10.6561 7.98702 10.7497 8.07221C10.8023 8.11969 10.8581 8.16941 10.8657 8.19751C10.8741 8.22717 10.8513 8.28418 10.8105 8.30886C10.7636 8.33692 10.718 8.30575 10.6875 8.27625C10.6183 8.20975 10.5829 8.10231 10.5468 7.9973C10.5114 7.88987 10.477 7.78797 10.4066 7.7302C10.3583 7.69042 10.2625 7.66694 10.1322 7.64648C10.1156 7.59115 10.1095 7.54012 10.1312 7.49571C10.1624 7.43192 10.2112 7.3927 10.2745 7.37579Z" fill="#F8CB32"/>
<path d="M10.1699 7.74023C10.255 7.7555 10.3213 7.77316 10.3508 7.79716C10.4015 7.83763 10.4314 7.92788 10.4624 8.02368C10.4987 8.13264 10.5411 8.25634 10.6243 8.33723C10.6738 8.38642 10.7211 8.40253 10.7591 8.40564C10.6837 8.4697 10.602 8.51503 10.5158 8.51244C10.4265 8.51156 10.3413 8.49235 10.2551 8.47158C10.2258 8.39707 10.2114 8.33846 10.2681 8.07702C10.2872 7.98776 10.2394 7.88722 10.1918 7.79055C10.1848 7.77436 10.1769 7.75654 10.1699 7.74023Z" fill="white"/>
<path d="M8.73813 6.66211C8.94814 6.77146 9.88108 7.26026 10.0364 7.3838C10.0437 7.38978 10.0533 7.39257 10.0621 7.39373C10.0724 7.39409 10.0803 7.39373 10.0905 7.39409C10.0748 7.4129 10.0622 7.43399 10.0506 7.4566C10.023 7.51229 10.024 7.57225 10.0368 7.63169C9.9947 7.62483 9.95101 7.61881 9.90337 7.61295C9.68905 7.58664 9.44682 7.55371 9.21285 7.49192C8.81116 7.38608 8.45181 7.14576 8.33691 7.06228C8.46373 6.94894 8.63144 6.802 8.73813 6.66211Z" fill="white"/>
<path d="M8.2596 7.11523C8.33957 7.17571 8.73145 7.45653 9.18979 7.57728C9.43098 7.64111 9.68588 7.67511 9.89143 7.70019C9.95258 7.7086 10.0113 7.71633 10.0662 7.72427C10.0819 7.75991 10.0977 7.79555 10.1141 7.82879C10.155 7.91706 10.1949 7.99978 10.1817 8.05958C10.1343 8.27952 10.1343 8.37033 10.1541 8.44608C10.1445 8.44329 10.1358 8.44213 10.1262 8.43938C9.97355 8.397 9.81373 8.35259 9.6258 8.35196C9.30046 8.351 8.50154 8.18727 8.13789 7.99372L8.06641 7.23256C8.10352 7.21195 8.17512 7.17017 8.2596 7.11523Z" fill="white"/>
<path d="M13.023 4.6817C13.0187 4.674 13.0153 4.66782 13.0103 4.66252C12.9419 4.57944 12.5422 4.42612 12.2586 4.49676C11.9524 4.5739 11.5356 4.59343 11.4323 4.50553C11.3 4.38848 11.153 4.38386 11.0078 4.48293L10.9491 4.43054L11.0361 4.17771C11.0402 4.16555 11.0388 4.15264 11.0329 4.14195C11.0299 4.13653 11.0257 4.13167 11.0204 4.1278C11.0048 4.11636 10.9836 4.1164 10.9681 4.12788L10.7174 4.31338L10.5047 4.20526C10.4899 4.19776 10.4723 4.19912 10.459 4.20877C10.4456 4.21837 10.4387 4.23472 10.4412 4.25098L10.4867 4.55676L10.2603 4.81317C10.2481 4.82705 10.2458 4.84694 10.2545 4.86321C10.2633 4.87381 10.2811 4.88856 10.2993 4.88609L10.5774 4.84806L10.6464 5.10097C10.6515 5.11966 10.6674 5.13226 10.6862 5.13338C10.7049 5.13457 10.7224 5.12369 10.7297 5.10623L10.8553 4.80229L10.919 4.76996C10.932 4.85468 10.9585 4.93182 10.9697 4.96199C10.9484 5.1453 10.8778 5.26518 10.7302 5.52259C10.6442 5.66922 10.5391 5.85057 10.4019 6.11233C10.1736 6.5477 10.1001 6.94959 10.1834 7.30683C10.1582 7.3087 10.1204 7.3095 10.0808 7.30731C9.87027 7.1498 8.78333 6.58713 8.73728 6.56229C8.73473 6.56098 8.55793 6.40917 8.55793 6.40917C8.50893 5.98053 8.18924 5.22734 8.0002 4.94593C7.89998 4.79922 7.84867 4.64941 7.79892 4.50425C7.75156 4.37018 7.70886 4.24241 7.63076 4.12254C7.45715 3.8544 6.91369 3.89247 6.78273 3.92568C6.68965 3.9502 6.63918 4.01566 6.58165 4.0914C6.55877 4.12142 6.53277 4.15375 6.50044 4.19083C6.44682 4.25079 6.37191 4.26661 6.2512 4.29113C6.15656 4.31086 6.03744 4.33618 5.88208 4.39064C5.51771 4.52008 4.79219 4.9069 4.63759 5.02686C4.48538 5.14602 4.26372 5.06485 4.1454 5.00573C3.97816 4.92221 3.47314 4.46092 3.33584 4.32533C3.24032 4.23229 3.13229 4.18816 3.05263 4.20952C3.01871 4.21818 2.99188 4.2403 2.97773 4.26869C2.97378 4.27658 2.97063 4.28288 2.96908 4.28997C2.93914 4.39331 3.03868 4.80975 3.25727 5.00369C3.49399 5.21263 3.74574 5.54539 3.73155 5.6803C3.70978 5.85559 3.78908 5.97949 3.95297 6.04336L3.94292 6.12134L3.68523 6.19246C3.67291 6.19593 3.66302 6.20438 3.65756 6.2153C3.65477 6.22084 3.65314 6.22706 3.65294 6.2336C3.65234 6.25297 3.66434 6.27036 3.68264 6.27669L3.97733 6.37859L4.00842 6.61528C4.01053 6.63162 4.02166 6.64545 4.03716 6.651C4.05263 6.65662 4.07001 6.65307 4.08209 6.64183L4.30861 6.43141L4.64807 6.47315C4.66641 6.47539 4.68415 6.46602 4.69264 6.44971C4.69647 6.43648 4.69854 6.41347 4.68618 6.3998L4.49754 6.1919L4.66717 5.99205C4.67968 5.97722 4.68112 5.95705 4.67143 5.94094C4.66178 5.92476 4.64293 5.91647 4.62447 5.92037L4.30271 5.98858L4.24008 5.9543C4.30263 5.89566 4.35123 5.83028 4.36981 5.80388C4.53306 5.71785 4.67187 5.70832 4.96768 5.68452C5.13727 5.67264 5.34628 5.65678 5.6397 5.62198C6.12793 5.56421 6.50096 5.39761 6.74857 5.127C6.76436 5.14669 6.78644 5.17747 6.80693 5.21136C6.79597 5.47403 6.94634 6.68867 6.95188 6.74077C6.95224 6.74348 6.94929 6.87201 6.94929 6.87201C6.58783 7.10846 6.05933 7.72742 5.89241 8.02167C5.80598 8.17687 5.69483 8.28973 5.58723 8.39912C5.48848 8.50145 5.39324 8.59669 5.32093 8.72012C5.15863 8.99527 5.43558 9.46442 5.52377 9.56675C5.58723 9.63907 5.6684 9.65494 5.76189 9.6726C5.79892 9.67965 5.8395 9.68846 5.88714 9.70078C5.96472 9.72195 6.0124 9.78191 6.08823 9.87894C6.14819 9.95477 6.22401 10.05 6.34221 10.1647C6.62088 10.4328 7.2911 10.909 7.46751 10.9936C7.64212 11.0766 7.6686 11.3111 7.6686 11.4434C7.6686 11.6304 7.48162 12.2883 7.42167 12.4717C7.38112 12.5987 7.38989 12.715 7.44459 12.7768C7.46751 12.8033 7.49928 12.8173 7.53102 12.8173C7.53983 12.8173 7.54688 12.8173 7.55394 12.8156C7.65978 12.7962 7.9878 12.521 8.06371 12.2388C8.14483 11.9337 8.33001 11.5598 8.45702 11.5122C8.62358 11.4533 8.69897 11.327 8.68287 11.1519L8.75714 11.126L8.93589 11.3248C8.9445 11.3343 8.95646 11.3394 8.9687 11.3394C8.97492 11.3394 8.98118 11.3381 8.98712 11.3353C9.00466 11.3272 9.01491 11.3087 9.01248 11.2895L8.97193 10.9803L9.16975 10.8468C9.18342 10.8376 9.19088 10.8214 9.18888 10.8051C9.18701 10.7887 9.17605 10.7748 9.16066 10.769L8.87119 10.6604L8.75682 10.338C8.7506 10.3207 8.73433 10.3089 8.71591 10.3087C8.7024 10.3112 8.68087 10.3196 8.67413 10.3367L8.57236 10.5985L8.31777 10.5361C8.29892 10.5315 8.28022 10.5392 8.27013 10.5551C8.25997 10.5709 8.261 10.5915 8.27272 10.6064L8.47756 10.8637L8.47492 10.9351C8.39451 10.9053 8.31426 10.891 8.28237 10.8862C8.13244 10.7786 8.06191 10.6587 7.90847 10.4047C7.82204 10.2583 7.71444 10.0784 7.55219 9.8315C7.28229 9.42056 6.96659 9.16128 6.61382 9.06069C6.62443 9.03777 6.64205 9.00424 6.66322 8.97072C6.90309 8.86312 7.92258 8.18584 7.96663 8.15761C7.96723 8.15721 7.96715 8.15621 7.96775 8.15578L8.10565 8.07612C8.48792 8.27737 9.28703 8.43874 9.6253 8.44189C9.80294 8.44217 9.95559 8.48451 10.1034 8.52553C10.2407 8.56221 10.3703 8.59929 10.5133 8.60259C10.8326 8.61093 11.1085 8.14111 11.1551 8.01437C11.1875 7.92376 11.162 7.8451 11.1321 7.75484C11.1203 7.71904 11.1083 7.67926 11.096 7.63162C11.0768 7.55348 11.1061 7.48276 11.1541 7.36934C11.1914 7.28012 11.2378 7.16754 11.2807 7.00863C11.3798 6.63485 11.4709 5.81772 11.4594 5.62241C11.4471 5.4295 11.6394 5.29252 11.755 5.22834C11.9185 5.1376 12.5845 4.98177 12.7739 4.94517C12.9046 4.91898 13.0021 4.85484 13.0296 4.77706C13.0415 4.74409 13.0384 4.70948 13.023 4.6817ZM10.9113 4.675L10.8007 4.73113C10.7913 4.73591 10.784 4.74389 10.7799 4.75361L10.6975 4.95322L10.6523 4.7877C10.6465 4.76589 10.6257 4.75258 10.6038 4.75557L10.4049 4.78276L10.5664 4.59985C10.575 4.59005 10.5788 4.57697 10.5769 4.56417L10.5409 4.32262L10.7018 4.40439C10.7167 4.412 10.7346 4.41053 10.748 4.4006L10.9065 4.28332L10.8562 4.42954C10.8505 4.44617 10.8554 4.46475 10.8685 4.47679L10.9431 4.54344C10.9209 4.58088 10.9122 4.62696 10.9113 4.675ZM10.8047 5.56608C10.9643 5.29392 11.0363 5.16926 11.0581 4.96144C11.0586 4.9551 11.0583 4.94724 11.0548 4.94102C11.0239 4.86341 10.9537 4.628 11.0394 4.56429C11.1565 4.4771 11.2623 4.4789 11.368 4.56752C11.3803 4.59698 11.4364 4.72722 11.3624 4.87724C11.3038 4.85527 11.2541 4.85667 11.2228 4.86193C11.0676 4.88756 11.0445 5.32202 11.0461 5.57932C11.0466 5.70011 10.9866 5.8282 10.9069 5.95721C10.9042 5.94864 10.9007 5.94246 10.8964 5.93476C10.8416 5.8361 10.7517 5.78307 10.6931 5.76115C10.7342 5.68991 10.7724 5.62433 10.8047 5.56608ZM10.4795 6.15411C10.5429 6.03216 10.5993 5.93026 10.6499 5.8396C10.6955 5.85264 10.8157 5.913 10.8468 6.04906C10.8216 6.08725 10.7956 6.12393 10.7704 6.16212C10.6893 6.27773 10.6127 6.3868 10.5621 6.4956C10.5309 6.5593 10.511 6.62883 10.4974 6.69891C10.3987 6.66288 10.328 6.68803 10.2708 6.71582C10.308 6.5357 10.3757 6.34885 10.4795 6.15411ZM10.2539 6.81991C10.2671 6.81465 10.2819 6.80843 10.2957 6.80073C10.3499 6.77474 10.4033 6.75106 10.4838 6.7871C10.4632 6.96797 10.483 7.15271 10.5124 7.3038C10.4197 7.27861 10.3382 7.27342 10.2693 7.28746C10.2693 7.28746 10.2693 7.28746 10.2684 7.2859C10.2338 7.13975 10.2294 6.98284 10.2539 6.81991ZM10.0623 7.39422C10.0726 7.39458 10.0805 7.39422 10.0908 7.39458C10.075 7.41339 10.0625 7.43448 10.0509 7.45709C10.0233 7.51274 10.0242 7.57274 10.0371 7.63218C9.99497 7.62532 9.95128 7.6193 9.90364 7.61344C9.68932 7.58713 9.4471 7.5542 9.21312 7.49241C8.81139 7.38656 8.45208 7.14625 8.33719 7.06277C8.44766 6.95749 8.60752 6.8335 8.73836 6.66256C8.94837 6.77191 9.88132 7.26071 10.0366 7.38425C10.044 7.39031 10.0537 7.39302 10.0623 7.39422ZM8.05079 8.00592L7.95332 8.06221C7.78445 7.81903 7.79369 7.22423 7.79369 7.21745C7.79545 7.19983 7.78488 7.18392 7.76902 7.17691L7.03839 6.85714L7.04258 6.78215C7.42358 6.82609 7.86406 7.00333 7.87016 7.00636C7.88515 7.01581 7.90408 7.01346 7.91748 7.00241L8.52376 6.49691L8.65424 6.61352C8.4652 6.8457 8.00526 7.16642 7.99932 7.16973C7.98306 7.17679 7.97429 7.19369 7.97584 7.21099L8.05079 8.00592ZM7.70503 4.50676C7.70818 4.51621 7.71217 4.52415 7.71528 4.53356C7.76663 4.68341 7.82028 4.8404 7.92605 4.99572C8.10915 5.26462 8.42573 6.01621 8.47161 6.42555L7.88419 6.91483C7.84632 6.89593 7.77137 6.86045 7.67828 6.82182C7.68299 6.72164 7.69307 6.2397 7.53357 5.79328C7.44985 5.55823 7.3338 5.32876 7.23832 5.14498C7.21069 5.08976 7.18387 5.03694 7.15939 4.98723C7.17988 4.9541 7.20037 4.92093 7.21851 4.8886C7.26818 4.80496 7.31387 4.72527 7.37068 4.70239C7.57886 4.61727 7.65377 4.56593 7.70503 4.50676ZM7.55581 4.17002C7.60553 4.24413 7.6379 4.32537 7.66947 4.40818C7.62454 4.47447 7.58436 4.51944 7.33667 4.62046C7.25231 4.65523 7.1963 4.75146 7.14352 4.84535C7.13407 4.86034 7.12383 4.87692 7.11434 4.89187C7.07878 4.81302 7.05594 4.74831 7.05904 4.71044C7.06375 4.64574 7.12132 4.57003 7.18283 4.4903C7.2522 4.39881 7.33025 4.29384 7.34995 4.17947C7.36258 4.11086 7.34911 4.0627 7.33013 4.02961C7.42557 4.05568 7.50921 4.0975 7.55581 4.17002ZM6.65185 4.14434C6.70468 4.07414 6.74091 4.02913 6.80482 4.01175C6.84189 4.00071 6.93574 3.99042 7.04776 3.99118C7.04146 3.99592 7.03513 4.00063 7.03042 4.00617C6.99649 4.04643 6.98473 4.12134 6.97293 4.21598C6.95639 4.33195 6.93674 4.47396 6.86737 4.57733C6.8051 4.67041 6.75224 4.67755 6.69228 4.68704C6.66624 4.69178 6.63866 4.69569 6.61103 4.70757C6.58731 4.59319 6.57228 4.44178 6.57455 4.23982C6.60294 4.20665 6.62977 4.17277 6.65185 4.14434ZM6.26934 4.37716C6.35689 4.35978 6.42629 4.34315 6.48625 4.31003C6.48788 4.48827 6.50371 4.63816 6.53138 4.76039C6.53058 4.76199 6.53058 4.76199 6.52978 4.76354C6.43044 4.86771 6.29876 4.98922 6.14735 5.07525C6.14815 5.06581 6.14655 5.05707 6.14815 5.04607C6.1741 4.81258 6.11247 4.60041 5.97915 4.45295C6.09501 4.41432 6.19208 4.39375 6.26934 4.37716ZM4.69204 5.09555C4.83791 4.98113 5.51854 4.62114 5.88443 4.48456C6.02014 4.61544 6.08488 4.81337 6.06052 5.03583C6.05821 5.06816 6.05582 5.09658 6.05661 5.12257C5.99036 5.15259 5.92175 5.17548 5.85075 5.18732C5.73952 5.2047 5.61016 5.20318 5.4729 5.20167C5.22126 5.20015 4.96018 5.19792 4.78513 5.31943C4.46022 5.54356 4.23705 5.62333 4.20783 5.591C4.16601 5.54842 4.08867 5.4191 4.25108 5.14139C4.42785 5.1982 4.5809 5.18393 4.69204 5.09555ZM3.23981 4.85316C3.09382 4.65997 3.03693 4.3713 3.05347 4.31449C3.05662 4.30425 3.06372 4.29795 3.07556 4.294C3.11423 4.28375 3.19232 4.30895 3.27281 4.38856C3.28071 4.39646 3.29171 4.4059 3.30355 4.41774L3.23981 4.85316ZM3.40553 5.02267C3.37395 4.99114 3.34162 4.96116 3.31714 4.93907L3.38169 4.49026C3.41087 4.51865 3.44324 4.54858 3.47872 4.58012L3.40553 5.02267ZM3.48207 5.10228L3.55766 4.65108C3.59473 4.68341 3.6326 4.71813 3.67127 4.75118L3.57914 5.21582C3.54598 5.17564 3.51364 5.1378 3.48207 5.10228ZM3.69667 5.37122C3.68168 5.34993 3.66665 5.32864 3.65015 5.30656L3.74853 4.81748C3.81324 4.87349 3.87794 4.92548 3.93475 4.96965L3.69667 5.37122ZM3.74802 5.45797L4.00738 5.02167C4.04526 5.04846 4.07918 5.07135 4.10601 5.08474C4.1265 5.09499 4.14628 5.10288 4.16757 5.11153C4.15732 5.12808 4.14787 5.14701 4.13998 5.16284C4.08325 5.27646 4.06352 5.36719 4.06435 5.44051C3.93734 5.45789 3.85298 5.52028 3.80016 5.57469C3.78908 5.53762 3.7709 5.49895 3.74802 5.45797ZM4.27469 6.07394C4.28393 6.07896 4.2947 6.08059 4.30498 6.07836L4.51627 6.03355L4.40529 6.16439C4.39058 6.18149 4.39133 6.20613 4.4062 6.22252L4.54111 6.37126L4.29896 6.34148C4.28597 6.33988 4.27309 6.34415 4.2636 6.35296L4.08468 6.5192L4.06116 6.34024C4.05905 6.3237 4.04769 6.30974 4.03186 6.30424L3.84557 6.2399L3.99467 6.19872C4.01157 6.19397 4.02413 6.17946 4.02664 6.16184L4.03944 6.06265C4.08281 6.05978 4.12579 6.04097 4.16589 6.01454L4.27469 6.07394ZM5.21349 5.31465C5.16302 5.41559 5.17019 5.51972 5.18518 5.58048C5.10314 5.58681 5.02744 5.59235 4.96118 5.59869C4.64648 5.6209 4.50288 5.63198 4.31914 5.73145C4.31359 5.73456 4.3073 5.73934 4.30419 5.74564C4.2577 5.81505 4.10314 6.006 4.00216 5.97136C3.86407 5.92408 3.8057 5.83574 3.81906 5.69848C3.8364 5.67165 3.91206 5.55173 4.07771 5.52801C4.0927 5.58877 4.12192 5.62895 4.14401 5.65184C4.25288 5.76537 4.62435 5.53885 4.83568 5.39207C4.93507 5.32342 5.07464 5.3005 5.22609 5.29332C5.22063 5.30042 5.21748 5.30672 5.21349 5.31465ZM5.63009 5.53455C5.49363 5.55117 5.37766 5.56226 5.27432 5.57178C5.25934 5.52682 5.24116 5.39354 5.33572 5.29097C5.38148 5.29013 5.42641 5.29093 5.47218 5.29013C5.61338 5.29169 5.7467 5.2932 5.86502 5.27343C5.93522 5.26318 6.00383 5.24026 6.06929 5.21183C6.09536 5.31357 6.15612 5.3577 6.21133 5.38924C6.04178 5.46024 5.84935 5.50999 5.63009 5.53455ZM6.68295 5.0688C6.58205 5.18006 6.45507 5.27239 6.30677 5.34423C6.29493 5.33634 6.28154 5.32769 6.26731 5.32055C6.21524 5.29061 6.16553 5.25983 6.1497 5.17308C6.31056 5.08785 6.45173 4.96714 6.55972 4.85743C6.5913 4.94812 6.63316 5.01829 6.68363 5.0672C6.68375 5.0672 6.68375 5.0672 6.68295 5.0688ZM6.75391 5.01354C6.71133 4.97647 6.66712 4.91105 6.63236 4.79508C6.65444 4.78244 6.67812 4.77849 6.70567 4.77454C6.77193 4.76426 6.85553 4.75082 6.93909 4.62696C7.02029 4.50784 7.04234 4.3532 7.0596 4.22778C7.06905 4.15758 7.07846 4.08339 7.0974 4.06134C7.11709 4.03766 7.17705 4.02423 7.22042 4.04392C7.27013 4.0668 7.27013 4.12202 7.26304 4.1638C7.24729 4.25848 7.17872 4.34842 7.1125 4.43756C7.04394 4.52754 6.97927 4.61353 6.97142 4.70422C6.96592 4.76657 7.00068 4.85882 7.05749 4.97794C7.02125 5.02291 6.98258 5.05688 6.93371 5.06397C6.86358 5.07422 6.80362 5.05612 6.75391 5.01354ZM6.89516 5.20434C6.89595 5.19489 6.89276 5.18544 6.88882 5.17751C6.88328 5.16886 6.87857 5.16256 6.87303 5.15383C6.89751 5.15622 6.92195 5.15463 6.94714 5.15144C7.00869 5.14275 7.05757 5.10802 7.09935 5.06381C7.11753 5.10248 7.13722 5.14191 7.15935 5.18449C7.25881 5.37616 7.36852 5.59455 7.44985 5.8225C7.58962 6.21371 7.59448 6.64593 7.59062 6.78794C7.41963 6.75082 7.24602 6.71223 7.03369 6.68325C7.00531 6.44824 6.88108 5.40235 6.89516 5.20434ZM5.65062 8.46095C5.76173 8.34809 5.87813 8.22993 5.96987 8.06588C6.12857 7.78191 6.65951 7.1628 7.00523 6.93883L7.70547 7.24576C7.70547 7.28809 7.70723 7.37102 7.71428 7.47152C7.62255 7.51206 7.18693 7.71845 6.85884 8.06062C6.68602 8.24053 6.53253 8.44688 6.41082 8.61443C6.37379 8.66383 6.33851 8.71143 6.30498 8.75556C6.26619 8.75205 6.2274 8.7485 6.19033 8.74675C6.09333 8.73969 6.0016 8.73439 5.95571 8.69385C5.7864 8.54571 5.70699 8.50161 5.63117 8.4822C5.63826 8.47506 5.64356 8.46801 5.65062 8.46095ZM5.37196 9.03068C5.35254 8.93368 5.35254 8.84019 5.39663 8.76612C5.44073 8.68854 5.49893 8.62324 5.55893 8.55802C5.6383 8.56863 5.69647 8.5845 5.89755 8.76086C5.96636 8.82082 6.07746 8.82792 6.18506 8.83318C6.20268 8.83493 6.2221 8.83669 6.23976 8.83844C6.18506 8.9055 6.13742 8.95485 6.10222 8.96896C6.04226 8.99364 5.94878 8.97602 5.84999 8.9566C5.73713 8.93544 5.60836 8.91251 5.49722 8.946C5.43016 8.96537 5.39313 8.9989 5.37196 9.03068ZM5.52189 9.03068C5.61362 9.00249 5.72473 9.02362 5.83408 9.04303C5.94519 9.0642 6.05103 9.08358 6.13567 9.05009C6.19387 9.02717 6.26093 8.95485 6.34202 8.85076C6.39847 8.86308 6.44607 8.88253 6.47429 8.92308C6.51483 8.98128 6.52544 9.04299 6.50957 9.1065C6.49546 9.1612 6.45667 9.22997 6.36845 9.31285C6.34728 9.29873 6.33317 9.27932 6.3173 9.2564C6.27851 9.2017 6.22911 9.13293 6.08093 9.11352C5.93805 9.0941 5.78991 9.14354 5.66999 9.18408C5.60294 9.207 5.53238 9.23172 5.50419 9.22462C5.47417 9.21753 5.43538 9.16993 5.43363 9.12229C5.43192 9.06771 5.48131 9.04303 5.52189 9.03068ZM5.89755 9.61268C5.85521 9.60207 5.81291 9.59326 5.77763 9.58625C5.6912 9.57038 5.63475 9.55802 5.59066 9.50863C5.56419 9.4804 5.51304 9.40103 5.46365 9.30053C5.47074 9.30404 5.47776 9.30758 5.48482 9.30934C5.53597 9.3217 5.60824 9.29873 5.69822 9.267C5.80933 9.22997 5.94515 9.18408 6.06861 9.19995C6.17972 9.21406 6.20974 9.25815 6.24498 9.30754C6.26085 9.32871 6.27675 9.35164 6.29968 9.37101C6.20799 9.44337 6.07922 9.52449 5.89755 9.61268ZM6.15684 9.82437C6.10214 9.7538 6.05634 9.69911 5.99985 9.66032C6.15855 9.57919 6.28557 9.49802 6.3826 9.41869C6.38435 9.41869 6.38435 9.41869 6.38611 9.41869C6.52364 9.46103 6.69124 9.52453 6.83587 9.62153C6.82706 9.62504 6.82001 9.63034 6.8094 9.63385C6.58894 9.71497 6.42665 9.86491 6.35437 10.0501C6.26794 9.9637 6.20623 9.88608 6.15684 9.82437ZM7.50439 10.9143C7.33683 10.835 6.71066 10.387 6.42498 10.1206C6.48143 9.9407 6.62957 9.79435 6.83946 9.71669C6.86948 9.70433 6.89591 9.69377 6.91884 9.68141C6.97529 9.72729 7.02643 9.7784 7.06877 9.83661C7.13407 9.92834 7.19048 10.0447 7.25044 10.1682C7.36155 10.394 7.4762 10.6286 7.66317 10.7308C8.00889 10.9213 8.17996 11.0854 8.16409 11.1259C8.14467 11.1824 8.06359 11.3093 7.74255 11.2882C7.71424 11.1049 7.63315 10.9743 7.50439 10.9143ZM7.53783 12.7293C7.52723 12.731 7.51842 12.7275 7.50965 12.7187C7.48318 12.6887 7.47086 12.6076 7.50614 12.5C7.50965 12.4894 7.51324 12.4753 7.5185 12.4594L7.93653 12.3218C7.8289 12.5388 7.59608 12.7188 7.53783 12.7293ZM7.97879 12.2143L7.54844 12.3571C7.5608 12.3183 7.57312 12.276 7.58547 12.2301L8.01407 12.0978C7.99996 12.1402 7.98764 12.1826 7.97879 12.2143ZM8.05111 11.9938L7.61366 12.1278C7.62602 12.0802 7.64013 12.0308 7.65245 11.9814L8.10923 11.8562C8.08818 11.9039 8.06877 11.9497 8.05111 11.9938ZM8.15875 11.7521L7.67725 11.8826C7.69841 11.7998 7.71604 11.7186 7.73015 11.6481L8.19578 11.6816C8.18342 11.7046 8.17111 11.7274 8.15875 11.7521ZM8.25044 11.5969L7.74426 11.5599C7.75132 11.514 7.75658 11.4735 7.75658 11.4435C7.75658 11.4206 7.75483 11.3994 7.75307 11.3764C7.77249 11.3782 7.79361 11.3782 7.81128 11.3782C7.93829 11.3782 8.02823 11.3553 8.09349 11.3217C8.1658 11.4276 8.25929 11.4752 8.33161 11.4981C8.30338 11.5246 8.27687 11.5581 8.25044 11.5969ZM8.4221 10.6524L8.58874 10.6932C8.61059 10.6987 8.63235 10.687 8.64033 10.6665L8.71308 10.4793L8.79465 10.7093C8.79903 10.7216 8.8086 10.7312 8.82072 10.7358L9.04939 10.8216L8.89978 10.9226C8.8859 10.9319 8.87849 10.9482 8.88064 10.9649L8.90627 11.1603L8.80286 11.0453C8.79106 11.0323 8.77248 11.0276 8.75558 11.0331L8.6611 11.066C8.63913 11.0285 8.60313 10.9984 8.56155 10.9744L8.56614 10.8505C8.5665 10.84 8.56311 10.8297 8.55661 10.8214L8.4221 10.6524ZM7.83416 10.4487C7.99466 10.7204 8.06877 10.8438 8.23983 10.9637C8.2451 10.9672 8.25215 10.9708 8.25925 10.9708C8.34213 10.9814 8.582 11.0343 8.59612 11.1401C8.61553 11.2847 8.56259 11.3765 8.43382 11.4258C8.40205 11.4223 8.261 11.4082 8.16572 11.2706C8.21336 11.2301 8.23629 11.186 8.24685 11.156C8.29975 11.0078 7.93115 10.7768 7.70539 10.6533C7.59955 10.5951 7.51667 10.4805 7.44259 10.3482C7.45141 10.3499 7.45846 10.3499 7.46727 10.3499C7.58013 10.3499 7.67011 10.297 7.71771 10.2564C7.76009 10.327 7.79892 10.3923 7.83416 10.4487ZM7.47788 9.87906C7.5537 9.99372 7.61541 10.0925 7.67011 10.1806C7.63658 10.2142 7.52548 10.29 7.39145 10.2512C7.37028 10.2107 7.3509 10.1701 7.32973 10.1295C7.26802 10.0025 7.20982 9.88261 7.13925 9.78558C7.09871 9.72737 7.04752 9.67622 6.99287 9.63038C7.07224 9.56157 7.0846 9.4875 7.08811 9.42403C7.22748 9.54395 7.35796 9.69385 7.47788 9.87906ZM7.00523 9.35873C7.00347 9.37284 7.00172 9.38875 7.00172 9.40462C6.99821 9.46458 6.99291 9.52282 6.92234 9.57568C6.7742 9.46984 6.6031 9.39752 6.45671 9.34992C6.52376 9.28111 6.56782 9.21234 6.58899 9.14533C6.58899 9.14533 6.58898 9.14533 6.59074 9.14533C6.73533 9.18583 6.8747 9.25819 7.00523 9.35873ZM6.61717 8.89485C6.60836 8.89836 6.6013 8.90546 6.596 8.91247C6.59074 8.92128 6.58719 8.92834 6.58189 8.93715C6.57308 8.91423 6.56072 8.89306 6.54661 8.87193C6.51133 8.82078 6.45842 8.79256 6.40022 8.77493C6.42669 8.74141 6.45312 8.70613 6.48135 8.66734C6.60836 8.49272 6.75475 8.29694 6.9223 8.12233C7.20982 7.8225 7.59428 7.62492 7.72305 7.56496C7.74247 7.75193 7.78476 7.97239 7.87825 8.10997C7.68071 8.24045 6.80063 8.81899 6.61717 8.89485ZM10.1819 8.06018C10.1345 8.28012 10.1344 8.37093 10.1543 8.44664C10.1447 8.44393 10.136 8.44269 10.1264 8.43994C9.97372 8.39756 9.8139 8.35315 9.62597 8.35251C9.30067 8.35156 8.50171 8.18783 8.13806 7.99428L8.06658 7.23312C8.10357 7.21259 8.17517 7.17077 8.25969 7.11583C8.33966 7.17631 8.73154 7.45713 9.18992 7.57788C9.43111 7.6417 9.68601 7.67571 9.89156 7.70079C9.95272 7.70924 10.0115 7.71693 10.0663 7.72487C10.082 7.76051 10.0978 7.79615 10.1143 7.82939C10.1552 7.91762 10.1951 8.00042 10.1819 8.06018ZM10.5165 8.51393C10.4272 8.51306 10.3419 8.49384 10.2557 8.47307C10.2265 8.39856 10.2121 8.33996 10.2688 8.07852C10.2878 7.98926 10.24 7.88871 10.1925 7.79204C10.1854 7.77577 10.1776 7.75795 10.1706 7.74169C10.2557 7.757 10.322 7.77462 10.3515 7.79866C10.4022 7.83908 10.4321 7.92938 10.463 8.02518C10.4993 8.13413 10.5418 8.25783 10.625 8.33872C10.6745 8.38792 10.7218 8.40402 10.7598 8.40713C10.6844 8.4712 10.6026 8.51656 10.5165 8.51393ZM10.81 8.30866C10.763 8.33673 10.7174 8.30555 10.687 8.27605C10.6178 8.20956 10.5824 8.10212 10.5462 7.99711C10.5108 7.88967 10.4764 7.78773 10.406 7.73001C10.3577 7.69022 10.262 7.66674 10.1316 7.64629C10.115 7.59096 10.1089 7.53989 10.1307 7.49552C10.1619 7.43181 10.2107 7.39258 10.2739 7.37564C10.3285 7.36145 10.4075 7.36201 10.5228 7.39888C10.5208 7.42424 10.5106 7.446 10.4983 7.471C10.4693 7.53144 10.4332 7.60802 10.4881 7.74699C10.5405 7.88134 10.6556 7.98686 10.7492 8.07206C10.8018 8.11954 10.8576 8.16925 10.8652 8.19736C10.8736 8.22698 10.8508 8.28403 10.81 8.30866ZM11.0715 7.98391C11.0597 8.02075 11.0151 8.10399 10.9512 8.196C10.9508 8.18811 10.9505 8.18021 10.9486 8.1732C10.9346 8.12249 10.8795 8.07038 10.808 8.00716C10.7217 7.92798 10.6157 7.83151 10.5696 7.71582C10.5281 7.61181 10.5521 7.56417 10.5781 7.50939C10.5889 7.48523 10.6012 7.4602 10.6071 7.43077C10.7148 7.47586 10.8482 7.54906 11.0135 7.66511C11.0248 7.70724 11.0376 7.74855 11.0486 7.78283C11.0767 7.86607 11.0933 7.9214 11.0715 7.98391ZM11.0728 7.33569C11.0376 7.41774 11.0121 7.48439 11.0055 7.55256C10.8576 7.45314 10.725 7.3815 10.6085 7.33522C10.6077 7.33366 10.6077 7.33366 10.6068 7.33215C10.5771 7.19134 10.5512 7.01402 10.5659 6.84048C10.5732 6.84646 10.5813 6.85009 10.5895 6.85762C10.7675 7.01103 10.9773 7.08011 11.1743 7.05348C11.1407 7.17089 11.1028 7.26258 11.0728 7.33569ZM11.3719 5.62851C11.3838 5.81353 11.296 6.57844 11.2018 6.95749C11.0171 6.99544 10.8172 6.93695 10.6474 6.79112C10.6221 6.77087 10.6 6.75289 10.5781 6.73886C10.5908 6.66726 10.6107 6.59769 10.641 6.53247C10.6895 6.4309 10.7639 6.32505 10.8427 6.21271C10.9862 6.006 11.1357 5.79188 11.1344 5.57876C11.1331 5.18405 11.1935 4.95486 11.2367 4.94904C11.2955 4.93859 11.4459 4.94788 11.5832 5.23886C11.4366 5.35252 11.3618 5.48683 11.3719 5.62851ZM11.7121 5.15116C11.6921 5.16228 11.6744 5.17408 11.6552 5.18676C11.6473 5.16894 11.6371 5.15044 11.6285 5.13501C11.5669 5.02399 11.5032 4.95645 11.4422 4.91567C11.4997 4.8011 11.4959 4.69625 11.4809 4.6219C11.5177 4.63374 11.5599 4.6406 11.6066 4.6449L11.82 5.10547C11.7763 5.12154 11.7383 5.13661 11.7121 5.15116ZM11.9038 5.07497L11.7071 4.65156C11.7332 4.6512 11.7592 4.65088 11.7868 4.64972L12.1346 5.00736C12.0519 5.02913 11.9724 5.05313 11.9038 5.07497ZM12.233 4.98105L11.9018 4.64243C11.9537 4.6378 12.0032 4.63254 12.0503 4.62656L12.3798 4.94394C12.3322 4.95625 12.2821 4.96789 12.233 4.98105ZM12.4829 4.91898L12.1592 4.60846C12.2031 4.60029 12.2461 4.59052 12.2781 4.58283L12.6119 4.8898C12.572 4.89773 12.529 4.9075 12.4829 4.91898ZM12.7574 4.85743C12.7464 4.85946 12.7324 4.86325 12.7159 4.86632L12.3928 4.56756C12.6347 4.55636 12.905 4.67261 12.9425 4.71837C12.9492 4.72679 12.9504 4.73619 12.9469 4.74819C12.9335 4.78587 12.8686 4.83602 12.7574 4.85743Z" fill="#464655"/>
</svg>
