<svg width="16" height="16" viewBox="0 0 16 16" fill="none" xmlns="http://www.w3.org/2000/svg">
<g clip-path="url(#clip0_5367_191008)">
<rect x="1" y="14.8398" width="14" height="14" rx="2" transform="rotate(-90 1 14.8398)" fill="#73AF00"/>
<path d="M16.999 2.25367C16.999 2.08231 16.8601 1.94336 16.6887 1.94336H15.3002L8.00048 6.72601L0.700741 1.94339H-0.687738C-0.859097 1.94339 -0.998047 2.08231 -0.998047 2.25367V3.05636L6.30169 7.83898L-0.998047 12.6216V13.4243C-0.998047 13.5956 -0.859097 13.7346 -0.687738 13.7346H0.700741L8.00048 8.95195L15.3002 13.7346H16.6887C16.8601 13.7346 16.999 13.5956 16.999 13.4243V12.6216L9.69927 7.83898L16.999 3.05636V2.25367Z" fill="#F8CB32"/>
<path d="M16.999 3.05664V12.6219L9.69922 7.83925L16.999 3.05664Z" fill="#464655"/>
<path d="M-0.998047 12.6219V3.05664L6.30169 7.83925L-0.998047 12.6219Z" fill="#464655"/>
</g>
<defs>
<clipPath id="clip0_5367_191008">
<rect x="1" y="14.8398" width="14" height="14" rx="2" transform="rotate(-90 1 14.8398)" fill="white"/>
</clipPath>
</defs>
</svg>
