<svg width="16" height="16" viewBox="0 0 16 16" fill="none" xmlns="http://www.w3.org/2000/svg">
<g clip-path="url(#clip0_5367_190924)">
<rect x="1" y="1" width="14" height="14" rx="2" fill="#FF334B"/>
<path d="M9.71477 9.28264C9.63715 9.21587 9.54909 9.16726 9.46073 9.13173C9.96025 9.03324 10.362 8.61116 10.362 8.61116C10.1191 8.71769 10.0063 8.73926 9.61975 8.61224C9.52251 8.58027 9.42256 8.56904 9.32733 8.57005C9.7511 8.28785 9.96077 7.74427 9.96077 7.74427C9.77721 7.9356 9.68114 7.99876 9.27546 8.0293C9.17337 8.037 9.07675 8.06487 8.98911 8.10224C9.27269 7.6794 9.25834 7.09685 9.25834 7.09685C9.16196 7.34389 9.09741 7.43898 8.73427 7.62241C8.64289 7.66859 8.56426 7.73137 8.49763 7.79939C8.59775 7.30021 8.36159 6.76758 8.36159 6.76758C8.36711 7.03268 8.34381 7.14525 8.07857 7.45372C8.0118 7.53134 7.9632 7.61939 7.92766 7.70776C7.82917 7.20824 7.40709 6.80651 7.40709 6.80651C7.51363 7.04936 7.53519 7.16223 7.40817 7.54874C7.37621 7.64598 7.36497 7.74593 7.36598 7.84116C7.08379 7.41739 6.5402 7.20772 6.5402 7.20772C6.73153 7.39128 6.79469 7.48734 6.82523 7.89302C6.83293 7.99512 6.8608 8.09174 6.89814 8.17934C6.47523 7.8958 5.89278 7.91015 5.89278 7.91015C6.13982 8.00653 6.23492 8.07108 6.41834 8.43422C6.46452 8.5256 6.5273 8.60419 6.59535 8.67086C6.09614 8.5707 5.56348 8.80689 5.56348 8.80689C5.82861 8.80138 5.94114 8.82468 6.24965 9.08992C6.32727 9.15669 6.41533 9.20526 6.50369 9.24083C6.00417 9.33932 5.60244 9.76139 5.60244 9.76139C5.84529 9.65486 5.95817 9.6333 6.34467 9.76032C6.44195 9.79228 6.5419 9.80352 6.63713 9.80251C6.21335 10.0847 6.00365 10.6283 6.00365 10.6283C6.18721 10.437 6.28328 10.3738 6.68896 10.3433C6.79105 10.3356 6.88767 10.3077 6.97528 10.2704C6.69173 10.6933 6.70608 11.2757 6.70608 11.2757C6.80246 11.0287 6.86701 10.9336 7.23015 10.7501C7.32153 10.704 7.40013 10.6412 7.46679 10.5732C7.36664 11.0724 7.60283 11.605 7.60283 11.605C7.59731 11.3399 7.62061 11.2273 7.88585 10.9188C7.95262 10.8412 8.00123 10.7532 8.03676 10.6648C8.13525 11.1643 8.55733 11.566 8.55733 11.566C8.45079 11.3232 8.42923 11.2103 8.55625 10.8238C8.58822 10.7266 8.59945 10.6266 8.59844 10.5314C8.88064 10.9552 9.42422 11.1648 9.42422 11.1648C9.23289 10.9813 9.16973 10.8852 9.13919 10.4795C9.13149 10.3775 9.10362 10.2808 9.06628 10.1932C9.48912 10.4768 10.0716 10.4624 10.0716 10.4624C9.8246 10.366 9.7295 10.3015 9.54604 9.93834C9.49987 9.84695 9.43708 9.76833 9.36907 9.7017C9.86828 9.80182 10.4009 9.56566 10.4009 9.56566C10.1358 9.57117 10.0232 9.54798 9.71477 9.28264Z" fill="#F8CB32"/>
<path d="M9.22741 9.42868L10.4482 9.18451L9.22741 8.94035L10.2619 8.24762L9.04056 8.48919L9.73117 7.45332L8.6953 8.14393L8.9369 6.92263L8.24418 7.95704L7.99998 6.73633L7.75585 7.95711L7.06312 6.9227L7.30472 8.144L6.26886 7.45339L6.95947 8.48926L5.73816 8.24769L6.77261 8.94042L5.55176 9.18455L6.77254 9.42871L5.7381 10.1214L6.9594 9.87984L6.26879 10.9157L7.30465 10.2251L7.06305 11.4464L7.75578 10.412L7.99998 11.6327L8.24414 10.412L8.93687 11.4464L8.69527 10.2251L9.73113 10.9157L9.04052 9.87981L10.2618 10.1214L9.22741 9.42868Z" fill="#FFD25A"/>
<path d="M8.00048 10.4092C8.67653 10.4092 9.22459 9.8611 9.22459 9.18505C9.22459 8.50899 8.67653 7.96094 8.00048 7.96094C7.32442 7.96094 6.77637 8.50899 6.77637 9.18505C6.77637 9.8611 7.32442 10.4092 8.00048 10.4092Z" fill="#F8CB32"/>
<path d="M2.67027 12.8576C3.55811 12.8576 3.55811 13.1636 4.44598 13.1636C5.33447 13.1636 5.33447 12.8576 6.22289 12.8576C7.11132 12.8576 7.11139 13.1636 7.99981 13.1636C8.88629 13.1636 8.88629 12.8576 9.77281 12.8576C10.6598 12.8576 10.6598 13.1636 11.5467 13.1636C12.4341 13.1636 12.4341 12.8576 13.3214 12.8576C14.2087 12.8576 14.2087 13.1636 15.096 13.1636C15.9834 13.1636 15.9834 12.8576 16.8707 12.8576C16.8721 12.8576 16.8733 12.8576 16.8747 12.8576V11.9395C16.8733 11.9395 16.8721 11.9395 16.8707 11.9395C15.9834 11.9395 15.9834 12.2455 15.096 12.2455C14.2087 12.2455 14.2087 11.9395 13.3214 11.9395C12.434 11.9395 12.434 12.2455 11.5467 12.2455C10.6597 12.2455 10.6597 11.9395 9.77281 11.9395C8.88633 11.9395 8.88633 12.2455 7.99981 12.2455C7.11132 12.2455 7.11132 11.9395 6.22289 11.9395C5.33447 11.9395 5.3344 12.2455 4.44598 12.2455C3.55811 12.2455 3.55811 11.9395 2.67027 11.9395C1.7832 11.9395 1.7832 12.2455 0.896093 12.2455C0.00995737 12.2455 0.00829331 11.9405 -0.875 11.9396V12.8577C0.00832796 12.8587 0.00995737 13.1636 0.896093 13.1636C1.7832 13.1636 1.7832 12.8576 2.67027 12.8576Z" fill="#41479B"/>
<path d="M-0.875 11.0218C0.00832796 11.0227 0.00995737 11.3277 0.896093 11.3277C1.7832 11.3277 1.7832 11.0216 2.67027 11.0216C3.55811 11.0216 3.55811 11.3277 4.44598 11.3277C5.33447 11.3277 5.33447 11.0216 6.22289 11.0216C7.11132 11.0216 7.11139 11.3277 7.99981 11.3277C8.88629 11.3277 8.88629 11.0216 9.77281 11.0216C10.6598 11.0216 10.6598 11.3277 11.5467 11.3277C12.4341 11.3277 12.4341 11.0216 13.3214 11.0216C14.2087 11.0216 14.2087 11.3277 15.096 11.3277C15.9834 11.3277 15.9834 11.0216 16.8707 11.0216C16.8721 11.0216 16.8733 11.0217 16.8747 11.0217V10.1036C16.8733 10.1036 16.8721 10.1035 16.8707 10.1035C15.9834 10.1035 15.9834 10.4096 15.096 10.4096C14.2087 10.4096 14.2087 10.1035 13.3214 10.1035C12.434 10.1035 12.434 10.4096 11.5467 10.4096C10.6597 10.4096 10.6597 10.1035 9.77281 10.1035C8.88633 10.1035 8.88633 10.4096 7.99981 10.4096C7.11132 10.4096 7.11132 10.1035 6.22289 10.1035C5.33447 10.1035 5.3344 10.4096 4.44598 10.4096C3.55811 10.4096 3.55811 10.1035 2.67027 10.1035C1.7832 10.1035 1.7832 10.4096 0.896093 10.4096C0.00995737 10.4096 0.00829331 10.1046 -0.875 10.1036L-0.875 11.0218Z" fill="#41479B"/>
<path d="M-0.875 13.7757C0.00832796 13.7766 0.00995737 14.0816 0.896093 14.0816C1.7832 14.0816 1.7832 13.7755 2.67027 13.7755C3.55811 13.7755 3.55811 14.0816 4.44598 14.0816C5.33447 14.0816 5.33447 13.7755 6.22289 13.7755C7.11132 13.7755 7.11139 14.0816 7.99981 14.0816C8.88629 14.0816 8.88629 13.7755 9.77281 13.7755C10.6598 13.7755 10.6598 14.0816 11.5467 14.0816C12.4341 14.0816 12.4341 13.7755 13.3214 13.7755C14.2087 13.7755 14.2087 14.0816 15.096 14.0816C15.9834 14.0816 15.9834 13.7755 16.8707 13.7755C16.8721 13.7755 16.8733 13.7756 16.8747 13.7756V12.8575C16.8733 12.8575 16.8721 12.8574 16.8707 12.8574C15.9834 12.8574 15.9834 13.1635 15.096 13.1635C14.2087 13.1635 14.2087 12.8574 13.3214 12.8574C12.434 12.8574 12.434 13.1635 11.5467 13.1635C10.6597 13.1635 10.6597 12.8574 9.77281 12.8574C8.88633 12.8574 8.88633 13.1635 7.99981 13.1635C7.11132 13.1635 7.11132 12.8574 6.22289 12.8574C5.33447 12.8574 5.3344 13.1635 4.44598 13.1635C3.55811 13.1635 3.55811 12.8574 2.67027 12.8574C1.7832 12.8574 1.7832 13.1635 0.896093 13.1635C0.00995737 13.1635 0.00829331 12.8585 -0.875 12.8575L-0.875 13.7757Z" fill="white"/>
<path d="M-0.875 11.9397C0.00832796 11.9407 0.00995737 12.2456 0.896093 12.2456C1.7832 12.2456 1.7832 11.9396 2.67027 11.9396C3.55811 11.9396 3.55811 12.2456 4.44598 12.2456C5.33447 12.2456 5.33447 11.9396 6.22289 11.9396C7.11132 11.9396 7.11139 12.2456 7.99981 12.2456C8.88629 12.2456 8.88629 11.9396 9.77281 11.9396C10.6598 11.9396 10.6598 12.2456 11.5467 12.2456C12.4341 12.2456 12.4341 11.9396 13.3214 11.9396C14.2087 11.9396 14.2087 12.2456 15.096 12.2456C15.9834 12.2456 15.9834 11.9396 16.8707 11.9396C16.8721 11.9396 16.8733 11.9397 16.8747 11.9397V11.0216C16.8733 11.0216 16.8721 11.0215 16.8707 11.0215C15.9834 11.0215 15.9834 11.3275 15.096 11.3275C14.2087 11.3275 14.2087 11.0215 13.3214 11.0215C12.434 11.0215 12.434 11.3275 11.5467 11.3275C10.6597 11.3275 10.6597 11.0215 9.77281 11.0215C8.88633 11.0215 8.88633 11.3275 7.99981 11.3275C7.11132 11.3275 7.11132 11.0215 6.22289 11.0215C5.33447 11.0215 5.3344 11.3275 4.44598 11.3275C3.55811 11.3275 3.55811 11.0215 2.67027 11.0215C1.7832 11.0215 1.7832 11.3275 0.896093 11.3275C0.00995737 11.3275 0.00829331 11.0226 -0.875 11.0216L-0.875 11.9397Z" fill="white"/>
<path d="M-0.875 10.1038C0.00832796 10.1048 0.00995737 10.4097 0.896093 10.4097C1.7832 10.4097 1.7832 10.1036 2.67027 10.1036C3.55811 10.1036 3.55811 10.4097 4.44598 10.4097C5.33447 10.4097 5.33447 10.1036 6.22289 10.1036C7.11132 10.1036 7.11139 10.4097 7.99981 10.4097C8.88629 10.4097 8.88629 10.1036 9.77281 10.1036C10.6598 10.1036 10.6598 10.4097 11.5467 10.4097C12.4341 10.4097 12.4341 10.1036 13.3214 10.1036C14.2087 10.1036 14.2087 10.4097 15.096 10.4097C15.9834 10.4097 15.9834 10.1036 16.8707 10.1036C16.8721 10.1036 16.8733 10.1037 16.8747 10.1037V9.18562C16.8733 9.18562 16.8721 9.18555 16.8707 9.18555C15.9834 9.18555 15.9834 9.49159 15.096 9.49159C14.2087 9.49159 14.2087 9.18555 13.3214 9.18555C12.434 9.18555 12.434 9.49159 11.5467 9.49159C10.6597 9.49159 10.6597 9.18555 9.77281 9.18555C8.88633 9.18555 8.88633 9.49159 7.99981 9.49159C7.11132 9.49159 7.11132 9.18555 6.22289 9.18555C5.33447 9.18555 5.3344 9.49159 4.44598 9.49159C3.55811 9.49159 3.55811 9.18555 2.67027 9.18555C1.7832 9.18555 1.7832 9.49159 0.896093 9.49159C0.00995737 9.49159 0.00829331 9.18662 -0.875 9.18565L-0.875 10.1038Z" fill="white"/>
<path d="M15.096 14.0814C14.2087 14.0814 14.2087 13.7754 13.3213 13.7754C12.434 13.7754 12.434 14.0814 11.5467 14.0814C10.6597 14.0814 10.6597 13.7754 9.77278 13.7754C8.88629 13.7754 8.88629 14.0814 7.99981 14.0814C7.11132 14.0814 7.11132 13.7754 6.22289 13.7754C5.33447 13.7754 5.3344 14.0814 4.44598 14.0814C3.55811 14.0814 3.55811 13.7754 2.67027 13.7754C1.7832 13.7754 1.7832 14.0814 0.896093 14.0814C0.00995737 14.0814 0.00829331 13.7765 -0.875 13.7755V14.6935C-0.875 14.8625 -0.737959 14.9995 -0.568955 14.9995H16.5688C16.7356 14.9995 16.8701 14.8656 16.8735 14.6996C16.8739 14.1611 16.8743 13.7755 16.8748 13.7755C16.8733 13.7755 16.8722 13.7755 16.8707 13.7755C15.9833 13.7754 15.9833 14.0814 15.096 14.0814Z" fill="#41479B"/>
<path d="M8.63712 4.99614C10.1253 4.93859 10.8817 4.28906 10.8817 4.28906C10.7748 4.33014 9.10579 4.46992 8.62891 4.51104C8.32775 4.53697 7.95206 4.88035 7.71545 5.13037C7.65173 4.95724 7.52717 4.77767 7.28051 4.74127C6.77898 4.66729 5.44702 4.58509 5.11816 4.42881C5.11816 4.42881 5.33043 4.75694 6.42752 4.90569C6.95315 4.97697 7.24297 5.15724 7.38098 5.27996L7.25587 5.27566C7.25587 5.27566 7.25587 5.27566 7.04211 5.16875C6.82835 5.06187 6.61455 5.24273 6.61455 5.24273H6.27405C6.23141 5.24273 6.20707 5.29144 6.23266 5.32552L6.26542 5.3692C6.29884 5.41381 6.35136 5.44006 6.4071 5.44006H6.7543C6.87764 5.65382 7.34628 5.87583 7.73272 5.87583C8.11912 5.87583 9.30312 5.34965 9.41822 5.34965L8.3472 5.313L8.63712 4.99614Z" fill="#F8CB32"/>
</g>
<defs>
<clipPath id="clip0_5367_190924">
<rect x="1" y="1" width="14" height="14" rx="2" fill="white"/>
</clipPath>
</defs>
</svg>
