<svg width="16" height="16" viewBox="0 0 16 16" fill="none" xmlns="http://www.w3.org/2000/svg">
<rect x="1" y="1" width="14" height="14" rx="2" fill="white"/>
<path fill-rule="evenodd" clip-rule="evenodd" d="M7.88092 11C9.53777 11 10.8809 9.65685 10.8809 8C10.8809 6.34315 9.53777 5 7.88092 5C6.22407 5 4.88092 6.34315 4.88092 8C4.88092 9.65685 6.22407 11 7.88092 11Z" fill="#3D58DB"/>
<mask id="mask0_1066_14735" style="mask-type:luminance" maskUnits="userSpaceOnUse" x="4" y="5" width="7" height="6">
<path fill-rule="evenodd" clip-rule="evenodd" d="M7.88092 11C9.53777 11 10.8809 9.65685 10.8809 8C10.8809 6.34315 9.53777 5 7.88092 5C6.22407 5 4.88092 6.34315 4.88092 8C4.88092 9.65685 6.22407 11 7.88092 11Z" fill="white"/>
</mask>
<g mask="url(#mask0_1066_14735)">
<path fill-rule="evenodd" clip-rule="evenodd" d="M10.9859 8.22975C10.9859 8.22975 10.8175 6.81516 9.57043 6.73836C8.32332 6.66157 7.98706 7.77575 7.9151 8.07093C7.84313 8.36612 7.66099 9.15356 6.34794 9.15356C5.03489 9.15356 4.91644 7.15126 4.91644 7.15126V4.79022H10.9859V8.22975Z" fill="#E31D1C"/>
</g>
<path fill-rule="evenodd" clip-rule="evenodd" d="M3.81721 2.50214L4.27469 2.90474L2.15456 5.31392L1.69708 4.91132L3.81721 2.50214ZM4.57172 3.15371L5.0292 3.55631L2.98507 5.93059L2.52759 5.52799L4.57172 3.15371ZM5.78018 4.21589L5.3227 3.81328L3.27289 6.20558L3.73037 6.60818L5.78018 4.21589Z" fill="#272727"/>
<path fill-rule="evenodd" clip-rule="evenodd" d="M11.8602 2.33331L11.4026 2.73441L12.1964 3.64071L12.6539 3.23961L11.8602 2.33331ZM13.2711 4.00047L12.8135 4.40157L13.6072 5.30787L14.0648 4.90677L13.2711 4.00047ZM9.8924 4.03985L10.35 3.63875L11.1437 4.54505L10.6861 4.94614L9.8924 4.03985ZM11.7607 5.30586L11.3032 5.70696L12.0969 6.61326L12.5544 6.21216L11.7607 5.30586ZM10.6761 3.36771L11.1337 2.96661L13.343 5.58449L12.8854 5.98558L10.6761 3.36771Z" fill="#272727"/>
<path fill-rule="evenodd" clip-rule="evenodd" d="M12.6075 9.4333L12.146 9.03064L11.3456 9.94047L11.8071 10.3431L12.6075 9.4333ZM11.2618 11.0344L10.8004 10.6318L10 11.5416L10.4614 11.9442L11.2618 11.0344ZM13.6033 10.304L14.0647 10.7067L13.2643 11.6165L12.8029 11.2139L13.6033 10.304ZM12.7848 12.3449L12.3234 11.9422L11.523 12.8521L11.9844 13.2547L12.7848 12.3449ZM11.5633 11.2504L12.0247 11.653L11.1892 12.6246L10.7278 12.2219L11.5633 11.2504ZM13.3954 10.0342L12.934 9.6315L12.0985 10.603L12.5599 11.0057L13.3954 10.0342Z" fill="#272727"/>
<path fill-rule="evenodd" clip-rule="evenodd" d="M3.20329 9.74785L3.66089 9.34631L5.70319 11.6234L5.24558 12.0249L3.20329 9.74785ZM3.67962 11.7396L4.13722 11.338L4.99988 12.2602L4.54227 12.6618L3.67962 11.7396ZM2.15468 10.6241L1.69708 11.0256L3.74998 13.3333L4.20758 12.9318L2.15468 10.6241ZM2.48035 10.3621L2.93796 9.96054L3.68579 10.8138L3.22819 11.2154L2.48035 10.3621Z" fill="#272727"/>
</svg>
