<svg width="16" height="16" viewBox="0 0 16 16" fill="none" xmlns="http://www.w3.org/2000/svg">
<rect x="1" y="1" width="14" height="14" rx="2" fill="#41479B"/>
<path d="M8.38803 6.21819C8.21205 6.18488 7.998 5.96135 8.07411 5.83768C8.15022 5.71402 8.00752 5.43813 7.83626 5.53325C7.66501 5.62839 7.55086 5.74254 7.38913 5.78057C7.22739 5.81861 7.09421 5.94231 7.21787 6.05646C7.34154 6.1706 7.53179 6.39893 7.35105 6.63678C7.17032 6.87462 7.22739 6.71289 7.00858 6.81752C6.78977 6.92214 6.63755 7.13144 6.70414 7.25513C6.77073 7.3788 6.82781 7.42639 6.63755 7.51198C6.4473 7.59757 6.36167 7.54054 6.20945 7.57857C6.05723 7.61661 5.68624 7.8069 5.57206 7.9686C5.45791 8.13034 5.21055 7.97812 5.10592 7.95908C5.00129 7.94005 4.792 8.01616 4.74441 8.13982C4.69685 8.26349 4.78245 8.37767 4.96322 8.43474C5.14396 8.49181 5.22007 8.50133 5.13447 8.65355C5.04888 8.80577 5.10592 9.10069 5.24862 9.18628C5.39132 9.27191 5.6672 9.53827 5.6672 9.71901C5.6672 9.89975 5.62917 10.1661 5.89553 10.2042C6.1619 10.2422 6.57096 10.3564 6.71366 10.6037C6.85636 10.8511 6.8944 10.9938 6.92295 11.146C6.95151 11.2982 6.98003 11.4219 7.06565 11.5931C7.15128 11.7644 7.20835 12.0593 7.12273 12.1258C7.0371 12.1924 6.97051 12.24 7.0371 12.3684C7.10369 12.4968 7.11797 12.5444 7.24163 12.473C7.3653 12.4017 7.3653 12.4778 7.43189 12.4635C7.49848 12.4493 7.80292 12.3399 7.74581 12.1924C7.68873 12.0449 7.56507 11.7072 7.74105 11.5313C7.91703 11.3553 8.15487 11.3267 8.30709 11.2078C8.45931 11.0889 8.7114 11.0699 8.90641 10.8796C9.10143 10.6894 9.31072 10.8035 9.34403 10.9367C9.37735 11.0699 9.42966 11.3267 9.58188 11.322C9.7341 11.3172 9.76737 11.3172 9.79593 11.1317C9.82448 10.9462 10.0623 10.5324 10.1574 10.5847C10.2526 10.637 10.3382 10.5942 10.3429 10.5133C10.3477 10.4325 10.5284 10.3611 10.6045 10.4753C10.6807 10.5895 10.8471 10.6798 10.8424 10.5371C10.8376 10.3944 10.6426 10.4135 10.6379 10.2565C10.6331 10.0995 10.7948 9.99965 10.9375 9.93306C11.0802 9.86647 10.9946 9.69522 11.0374 9.60011C11.0802 9.50496 11.3133 9.38606 11.3228 9.29091C11.3324 9.19576 11.2658 9.15773 11.3656 9.13393C11.4655 9.11014 11.5892 9.06734 11.5179 8.95795C11.4465 8.84857 11.4703 8.7677 11.5464 8.71538C11.6225 8.66307 11.6582 8.41474 11.5472 8.38246C11.4362 8.35022 11.2356 8.44336 11.1855 8.50423C11.1353 8.56513 10.9312 8.30366 10.8345 8.23918C10.7378 8.17472 10.1146 8.2141 10.129 8.10668C10.1433 7.99926 10.4048 7.60709 10.2907 7.54526C10.1765 7.48343 9.99577 7.39304 9.84831 7.34549C9.70085 7.29793 9.73417 7.45963 9.6533 7.33121C9.57243 7.20279 9.54391 6.74613 9.45352 6.74613C9.36314 6.74613 9.29655 6.93639 9.25851 6.86504C9.22047 6.79369 9.27279 6.29899 9.06349 6.28948C8.8542 6.27996 8.84944 6.40362 8.73054 6.31327C8.6116 6.22295 8.62863 6.26368 8.38803 6.21819Z" fill="#FF9B55"/>
<path d="M7.09503 3.51359L6.93699 3.98742L6.4375 3.99132C6.41012 3.99156 6.39877 4.02649 6.42081 4.04273L6.8226 4.33945L6.67193 4.81569C6.66369 4.84179 6.69338 4.86342 6.7157 4.84745L7.12204 4.55698L7.52841 4.84745C7.55069 4.86335 7.58042 4.84179 7.57217 4.81569L7.42151 4.33945L7.8233 4.04273C7.84533 4.02649 7.83399 3.99152 7.8066 3.99132L7.30712 3.98742L7.14907 3.51359C7.14045 3.48766 7.10369 3.48766 7.09503 3.51359Z" fill="white"/>
<path d="M8.8548 3.51359L8.69675 3.98742L8.19727 3.99132C8.16989 3.99156 8.15854 4.02649 8.18058 4.04273L8.58236 4.33945L8.4317 4.81569C8.42346 4.84179 8.45315 4.86342 8.47546 4.84745L8.88184 4.55698L9.28821 4.84745C9.31049 4.86335 9.34022 4.84179 9.33197 4.81569L9.18131 4.33945L9.5831 4.04273C9.60513 4.02649 9.59375 3.99152 9.5664 3.99132L9.06692 3.98742L8.90887 3.51359C8.90018 3.48766 8.86342 3.48766 8.8548 3.51359Z" fill="white"/>
<path d="M5.35871 3.80463L5.20066 4.27846L4.70117 4.28236C4.67379 4.2826 4.66245 4.31753 4.68448 4.33378L5.08627 4.63049L4.93561 5.10673C4.92736 5.13284 4.95706 5.15446 4.97937 5.13849L5.38574 4.84802L5.79212 5.13849C5.8144 5.15439 5.84412 5.13284 5.83588 5.10673L5.68521 4.63049L6.087 4.33378C6.10904 4.31753 6.09769 4.28257 6.07031 4.28236L5.57083 4.27846L5.41278 3.80463C5.40412 3.77866 5.36736 3.77866 5.35871 3.80463Z" fill="white"/>
<path d="M3.71613 4.40031L3.55808 4.87414L3.0586 4.87803C3.03121 4.87828 3.01987 4.91321 3.0419 4.92945L3.44369 5.22616L3.29303 5.70241C3.28478 5.72851 3.31448 5.75013 3.33679 5.73417L3.74316 5.4437L4.14954 5.73417C4.17182 5.75007 4.20154 5.72851 4.1933 5.70241L4.04264 5.22616L4.44442 4.92945C4.46646 4.91321 4.45512 4.87824 4.42773 4.87803L3.92825 4.87414L3.7702 4.40031C3.76155 4.37438 3.72478 4.37438 3.71613 4.40031Z" fill="white"/>
<path d="M10.6403 3.80463L10.7984 4.27846L11.2978 4.28236C11.3252 4.2826 11.3366 4.31753 11.3145 4.33378L10.9128 4.63049L11.0634 5.10673C11.0717 5.13284 11.042 5.15446 11.0197 5.13849L10.6133 4.84802L10.2069 5.13849C10.1846 5.15439 10.1549 5.13284 10.1631 5.10673L10.3138 4.63049L9.91202 4.33378C9.88999 4.31753 9.90133 4.28257 9.92871 4.28236L10.4282 4.27846L10.5862 3.80463C10.5949 3.77866 10.6317 3.77866 10.6403 3.80463Z" fill="white"/>
<path d="M12.2829 4.40031L12.4409 4.87414L12.9404 4.87803C12.9678 4.87828 12.9791 4.91321 12.9571 4.92945L12.5553 5.22616L12.706 5.70241C12.7142 5.72851 12.6845 5.75013 12.6622 5.73417L12.2559 5.4437L11.8495 5.73417C11.8272 5.75007 11.7975 5.72851 11.8057 5.70241L11.9564 5.22616L11.5546 4.92945C11.5326 4.91321 11.5439 4.87824 11.5713 4.87803L12.0708 4.87414L12.2288 4.40031C12.2375 4.37438 12.2742 4.37438 12.2829 4.40031Z" fill="white"/>
</svg>
