<svg width="16" height="16" viewBox="0 0 16 16" fill="none" xmlns="http://www.w3.org/2000/svg">
<rect x="1" y="1" width="14" height="14" rx="2" fill="#41479B"/>
<path d="M11.8569 8.3445C11.8569 8.3445 11.7416 7.88306 11.3955 7.65234C11.3955 7.65234 11.7416 8.22912 11.7416 8.69059L11.8569 8.3445Z" fill="#F8CB32"/>
<path d="M11.3232 7.84375C11.3232 7.84375 11.5648 7.99153 11.6946 8.23309L11.59 8.47466C11.5901 8.47466 11.5035 8.13219 11.3232 7.84375Z" fill="#F8CB32"/>
<path d="M11.0566 7.89844C11.0566 7.89844 11.4748 8.02822 11.6731 8.29859L11.5541 8.47884C11.5541 8.47884 11.3955 8.17244 11.0566 7.89844Z" fill="#F8CB32"/>
<path d="M10.9951 8.10742C10.9951 8.10742 11.4349 8.17589 11.6332 8.38502L11.5827 8.5833C11.5827 8.58327 11.3412 8.29486 10.9951 8.10742Z" fill="#F8CB32"/>
<path d="M11.0098 8.25C11.0098 8.25 11.4351 8.29328 11.6298 8.51675C11.8245 8.74028 11.5577 8.67175 11.5577 8.67175C11.5577 8.67175 11.3342 8.41584 11.0098 8.25Z" fill="#F8CB32"/>
<path d="M11.8564 8.3445C11.8564 8.3445 11.9718 7.88306 12.3179 7.65234C12.3179 7.65234 11.9718 8.22912 11.9718 8.69059L11.8564 8.3445Z" fill="#F8CB32"/>
<path d="M12.3899 7.84375C12.3899 7.84375 12.1483 7.99153 12.0186 8.23309L12.1231 8.47466C12.1231 8.47466 12.2096 8.13219 12.3899 7.84375Z" fill="#F8CB32"/>
<path d="M12.6575 7.89844C12.6575 7.89844 12.2393 8.02822 12.041 8.29859L12.16 8.47884C12.16 8.47884 12.3186 8.17244 12.6575 7.89844Z" fill="#F8CB32"/>
<path d="M12.7182 8.10742C12.7182 8.10742 12.2784 8.17589 12.0801 8.38502L12.1305 8.5833C12.1305 8.58327 12.3721 8.29486 12.7182 8.10742Z" fill="#F8CB32"/>
<path d="M12.7039 8.25C12.7039 8.25 12.2785 8.29328 12.0838 8.51675C11.8891 8.74028 12.1559 8.67175 12.1559 8.67175C12.1559 8.67175 12.3794 8.41584 12.7039 8.25Z" fill="#F8CB32"/>
<path d="M11.8568 7.65234C11.8568 7.65234 11.7417 7.89506 11.8568 8.01644C11.9719 7.89509 11.8568 7.65234 11.8568 7.65234Z" fill="#F8CB32"/>
<path d="M11.7417 7.71289C11.7417 7.71289 11.7262 7.9812 11.8787 8.0502C11.9399 7.89433 11.7417 7.71289 11.7417 7.71289Z" fill="#F8CB32"/>
<path d="M11.972 7.71289C11.972 7.71289 11.9875 7.9812 11.835 8.0502C11.7738 7.89433 11.972 7.71289 11.972 7.71289Z" fill="#F8CB32"/>
<path d="M12.0093 7.86719C12.0093 7.86719 11.9086 8.11641 11.7412 8.11356C11.7525 7.9465 12.0093 7.86719 12.0093 7.86719Z" fill="#F8CB32"/>
<path d="M11.7041 7.86719C11.7041 7.86719 11.8048 8.11641 11.9722 8.11356C11.9609 7.9465 11.7041 7.86719 11.7041 7.86719Z" fill="#F8CB32"/>
<path d="M11.856 8.92092C12.0472 8.92092 12.2023 8.71433 12.2023 8.45948C12.2023 8.20464 12.0472 7.99805 11.856 7.99805C11.6648 7.99805 11.5098 8.20464 11.5098 8.45948C11.5098 8.71433 11.6648 8.92092 11.856 8.92092Z" fill="#FFD255"/>
<path d="M11.0656 8.9308L10.9863 8.80821C10.9863 8.80821 10.7555 8.86349 10.7003 8.69046L10.6113 8.68324C10.6113 8.68324 10.6233 8.56549 10.7267 8.54865C10.7267 8.54865 10.7891 8.47174 10.8997 8.48618C11.0103 8.50059 11.068 8.5943 11.1316 8.61837C11.1953 8.6424 11.2025 8.72171 11.2025 8.72171L11.688 9.21918C11.688 9.21918 11.5486 9.39705 11.4236 9.45471C11.2986 9.51233 10.8396 9.23121 11.0656 8.9308Z" fill="#73AF00"/>
<path d="M12.6425 9.02148C12.6425 9.02148 12.8445 9.15848 12.8516 9.53701H12.5164C12.5164 9.53701 12.52 9.28105 12.4551 9.14408L12.6425 9.02148Z" fill="#73AF00"/>
<path d="M12.5986 9.03614C12.5986 9.03614 12.851 9.11908 13.006 8.9208L12.7428 8.88477L12.5986 9.03614Z" fill="#73AF00"/>
<path d="M12.5234 8.75922L12.7796 8.84559C12.8119 8.8565 12.8233 8.8965 12.8007 8.922C12.7035 9.03153 12.4133 9.29397 11.9454 9.29397C11.3361 9.29397 11.1787 8.91062 11.1715 8.88181C11.1643 8.853 11.1318 8.61866 11.1318 8.61866L11.3914 8.58984L12.5234 8.75922Z" fill="#73AF00"/>
<path d="M10.0319 12.2891H10.7029L10.3568 12.9594L10.0107 12.4979L10.0319 12.2891Z" fill="#FF334B"/>
<path d="M13.6808 12.2891H13.0098L13.3558 12.9594L13.7019 12.4979L13.6808 12.2891Z" fill="#FF334B"/>
<path d="M10.029 13.4201C9.69802 13.4201 9.4447 13.2424 9.43164 13.2332L9.69839 12.8565C9.70061 12.858 9.92411 13.0098 10.152 12.9408C10.3826 12.8712 10.534 12.599 10.6205 12.3828L11.0489 12.5542C10.8672 13.0087 10.6079 13.288 10.2786 13.3845C10.1925 13.4098 10.1085 13.4201 10.029 13.4201Z" fill="#FFD25A"/>
<path d="M13.6839 13.4201C14.015 13.4201 14.2683 13.2424 14.2813 13.2332L14.0146 12.8565C14.0124 12.858 13.7889 13.0098 13.561 12.9408C13.3303 12.8712 13.1789 12.599 13.0925 12.3828L12.6641 12.5542C12.8458 13.0087 13.1051 13.288 13.4344 13.3845C13.5205 13.4098 13.6045 13.4201 13.6839 13.4201Z" fill="#FFD25A"/>
<path d="M13.3558 10.9976H10.3564V9.88916C10.3564 9.73681 10.48 9.61328 10.6323 9.61328H13.08C13.2323 9.61328 13.3558 9.73681 13.3558 9.88916V10.9976H13.3558Z" fill="#FF334B"/>
<path d="M11.1761 10.4206L11.1401 10.1898C10.9706 10.1826 10.8733 9.98438 10.8733 9.98438L10.7363 10.0601C10.8805 10.4062 11.1761 10.4206 11.1761 10.4206Z" fill="#F8CB32"/>
<path d="M12.9816 10.183C13.032 10.1445 13.1426 10.1301 13.1426 10.1301C13.0633 10.0484 12.9768 10.1061 12.9768 10.1061C13.0489 10.0388 13.008 9.94267 13.008 9.94267C13.008 9.97392 12.9576 9.99555 12.9576 9.99555C12.96 9.93308 12.8951 9.87295 12.8951 9.87295L12.8615 9.92823C12.8398 9.87536 12.7629 9.83452 12.7629 9.83452L12.7317 9.9643C12.6596 9.90183 12.5322 9.90661 12.5322 9.90661L12.5562 9.9667C12.4793 9.96908 12.2702 10.0124 12.1476 10.0268C12.025 10.0412 11.9266 10.0075 11.9266 9.9523C11.9266 9.90598 12.0337 9.90027 12.08 9.89958C12.1128 9.90689 12.154 9.9187 12.212 9.93611C12.3201 9.96855 12.3834 9.92155 12.3834 9.92155C12.3455 9.90714 12.3414 9.8903 12.3414 9.8903C12.4225 9.84342 12.4985 9.85498 12.4985 9.85498C12.4715 9.79552 12.3543 9.79911 12.3543 9.79911C12.385 9.78289 12.4084 9.73242 12.4084 9.73242C12.4012 9.73964 12.3346 9.75598 12.2436 9.76817C12.1752 9.77739 12.1109 9.82942 12.0844 9.85348C12.0122 9.84795 11.8237 9.84567 11.8568 9.97639C11.8977 10.1374 12.2221 10.0797 12.4216 10.0485C12.6211 10.0172 12.7244 10.0437 12.7677 10.0701C12.811 10.0965 12.7493 10.1861 12.5466 10.1494C12.3714 10.1177 12.275 10.1168 12.222 10.1224C12.1633 10.1261 12.1132 10.142 12.0779 10.1494C11.9986 10.1662 11.6934 10.2744 11.6357 10.1182C11.578 9.96192 11.2968 10.3729 11.2968 10.3729L11.3188 10.399L11.244 10.3813C11.143 10.5165 10.8402 10.558 10.8402 10.558C10.8402 10.558 10.7951 10.4769 10.7573 10.466C10.7194 10.4552 10.7032 10.5147 10.7032 10.5147C10.7032 10.5147 10.6581 10.5165 10.6546 10.558C10.6509 10.5994 10.687 10.603 10.687 10.603C10.687 10.603 10.6437 10.6661 10.7158 10.6841C10.7158 10.6841 10.7104 10.7725 10.8167 10.7112C11.1327 10.751 11.3631 10.5888 11.4628 10.5003C11.528 10.5045 11.6296 10.5024 11.7078 10.4618C11.8327 10.3969 11.9769 10.3152 12.061 10.3465C12.061 10.3465 12.1284 10.5532 11.864 10.558C11.864 10.558 11.8249 10.5085 11.7856 10.5085C11.7686 10.5085 11.7509 10.5289 11.7564 10.5472C11.7564 10.5472 11.7102 10.5445 11.7021 10.5716C11.6954 10.5938 11.7116 10.6191 11.7455 10.615C11.7455 10.615 11.7224 10.649 11.7455 10.6693C11.7686 10.6897 11.7971 10.6693 11.7971 10.6693C11.7971 10.6693 11.7849 10.7114 11.8134 10.7155C11.8377 10.7189 11.87 10.6791 11.8793 10.667C11.9216 10.6736 12.2102 10.7069 12.2726 10.4041C12.2726 10.4041 12.4168 10.4666 12.5586 10.4546C12.7004 10.4426 12.8398 10.4642 12.8278 10.5339C12.812 10.5844 12.781 10.5811 12.781 10.5811C12.7471 10.5675 12.6901 10.5689 12.682 10.6177C12.6739 10.6666 12.7403 10.668 12.7403 10.668C12.7593 10.7127 12.8136 10.6937 12.8136 10.6937C12.8611 10.7277 12.8923 10.691 12.8923 10.691C12.9127 10.7087 12.9337 10.712 12.9534 10.6951C12.9724 10.6788 12.9617 10.5702 12.9599 10.5315C12.9569 10.467 12.9479 10.2984 12.8542 10.2959C12.7605 10.2935 12.6403 10.3488 12.4745 10.2094C12.4658 10.2021 12.4574 10.1975 12.4488 10.1913C12.5273 10.1986 12.5835 10.2199 12.6379 10.2286C12.7124 10.2407 12.9311 10.2215 12.9816 10.183Z" fill="#F8CB32"/>
<path d="M10.7361 10.0606C10.7361 10.0606 10.6901 10.0619 10.6676 10.0552C10.629 10.0439 10.6243 9.98315 10.6658 9.9723C10.6658 9.9723 10.6159 9.93839 10.6388 9.90021C10.6571 9.86964 10.7038 9.86974 10.72 9.88777C10.72 9.88777 10.7048 9.83749 10.7488 9.82089C10.7838 9.80768 10.8119 9.84793 10.8119 9.90021C10.8119 9.90021 10.8642 9.85764 10.8912 9.8858C10.91 9.90543 10.9046 9.93121 10.8732 9.98493C10.841 10.0397 10.7361 10.0606 10.7361 10.0606Z" fill="#F8CB32"/>
<path d="M10.6778 10.0386C10.6778 10.0386 10.6534 10.0807 10.583 10.0549C10.583 10.0549 10.6439 10.0264 10.652 10.002L10.6778 10.0386Z" fill="#41479B"/>
<path d="M10.6521 9.91636C10.6521 9.91636 10.6142 9.89195 10.5723 9.89329C10.5723 9.89329 10.6345 9.84717 10.6873 9.88789L10.6521 9.91636Z" fill="#41479B"/>
<path d="M10.7407 9.85047C10.7407 9.85047 10.7529 9.80569 10.7285 9.78125C10.7285 9.78125 10.7786 9.80297 10.7854 9.84366L10.7407 9.85047Z" fill="#41479B"/>
<path d="M10.8516 9.89647C10.8516 9.89647 10.8759 9.84219 10.8543 9.81641C10.8543 9.81641 10.9192 9.85441 10.8922 9.91684L10.8516 9.89647Z" fill="#41479B"/>
<path d="M10.7247 10.5001C10.7247 10.5001 10.6986 10.4466 10.665 10.4468C10.665 10.4468 10.7357 10.4211 10.7663 10.4818L10.7247 10.5001Z" fill="#41479B"/>
<path d="M10.6676 10.5679C10.6676 10.5679 10.6211 10.5308 10.5908 10.5455C10.5908 10.5455 10.6436 10.4917 10.6972 10.5334L10.6676 10.5679Z" fill="#41479B"/>
<path d="M10.7003 10.6646C10.7003 10.6646 10.6409 10.6639 10.626 10.6941C10.626 10.6941 10.6347 10.6192 10.7026 10.6191L10.7003 10.6646Z" fill="#41479B"/>
<path d="M10.7539 10.7261C10.7539 10.7261 10.7296 10.7682 10.6592 10.7424C10.6592 10.7424 10.7201 10.7139 10.7282 10.6895L10.7539 10.7261Z" fill="#41479B"/>
<path d="M11.8276 10.7051C11.8276 10.7051 11.8077 10.7395 11.75 10.7184C11.75 10.7184 11.7968 10.7017 11.8035 10.6816L11.8276 10.7051Z" fill="#41479B"/>
<path d="M11.2167 9.95944C11.2167 9.95944 11.0869 10.1805 11.1181 10.5002C11.1181 10.5002 11.5008 10.4443 11.6667 10.0622C11.6667 10.0622 11.7071 10.0458 11.7229 10.0066C11.7363 9.97322 11.7352 9.91825 11.6709 9.91856C11.6709 9.91856 11.6902 9.88012 11.7136 9.87109C11.7136 9.87109 11.6721 9.85487 11.6234 9.86569C11.6234 9.86569 11.6613 9.82781 11.6613 9.77916C11.6613 9.77916 11.6036 9.81703 11.5676 9.82059C11.5676 9.82059 11.564 9.76112 11.5784 9.75391C11.5784 9.75391 11.5027 9.76112 11.4648 9.80078C11.4648 9.80078 11.4396 9.76653 11.4414 9.73047C11.4414 9.73047 11.3711 9.76112 11.3441 9.80616C11.3441 9.80616 11.3224 9.78272 11.3243 9.75928C11.3243 9.75928 11.2738 9.82056 11.263 9.853C11.263 9.853 11.2154 9.83994 11.1945 9.87825C11.1793 9.90594 11.1828 9.93634 11.2167 9.95944Z" fill="#FFD255"/>
<path d="M11.7694 10.5425C11.7694 10.5425 11.754 10.5136 11.708 10.5073C11.708 10.5073 11.7667 10.4801 11.8037 10.519L11.7694 10.5425Z" fill="#41479B"/>
<path d="M12.7243 10.6524C12.7243 10.6524 12.6906 10.6631 12.6749 10.7108C12.6749 10.7108 12.6576 10.643 12.7061 10.6113L12.7243 10.6524Z" fill="#41479B"/>
<path d="M12.7944 10.6771C12.7944 10.6771 12.7625 10.7082 12.764 10.7584C12.764 10.7584 12.7247 10.7007 12.7594 10.6543L12.7944 10.6771Z" fill="#41479B"/>
<path d="M12.9472 10.6738C12.9472 10.6738 12.9376 10.7067 12.9667 10.7417C12.9667 10.7417 12.9064 10.7225 12.9053 10.6699L12.9472 10.6738Z" fill="#41479B"/>
<path d="M12.8755 10.6874C12.8755 10.6874 12.8499 10.7118 12.8567 10.7616C12.8567 10.7616 12.8092 10.7197 12.8388 10.6699L12.8755 10.6874Z" fill="#41479B"/>
<path d="M11.7204 10.6013C11.7204 10.6013 11.6896 10.5902 11.6514 10.6166C11.6514 10.6166 11.6765 10.5569 11.73 10.5607L11.7204 10.6013Z" fill="#41479B"/>
<path d="M11.7628 10.668C11.7628 10.668 11.7312 10.6597 11.6953 10.6893C11.6953 10.6893 11.7008 10.6317 11.7544 10.6309L11.7628 10.668Z" fill="#41479B"/>
<path d="M13.3558 11.1842C13.1057 11.1842 13.1057 11.4099 12.8555 11.4099C12.6053 11.4099 12.6053 11.1842 12.3551 11.1842C12.1051 11.1842 12.1051 11.4099 11.8551 11.4099C11.6053 11.4099 11.6053 11.1842 11.3556 11.1842C11.1058 11.1842 11.1058 11.4099 10.8561 11.4099C10.6063 11.4099 10.6063 11.1842 10.3564 11.1842V10.7676C10.6063 10.7676 10.6063 10.9932 10.8561 10.9932C11.1058 10.9932 11.1058 10.7676 11.3556 10.7676C11.6053 10.7676 11.6053 10.9932 11.8551 10.9932C12.1051 10.9932 12.1051 10.7676 12.3551 10.7676C12.6053 10.7676 12.6053 10.9932 12.8555 10.9932C13.1057 10.9932 13.1057 10.7676 13.3558 10.7676V11.1842Z" fill="white"/>
<path d="M12.856 11.4092C12.6059 11.4092 12.6059 11.1836 12.3557 11.1836C12.1057 11.1836 12.1057 11.4092 11.8557 11.4092C11.6059 11.4092 11.6059 11.1836 11.3561 11.1836C11.1063 11.1836 11.1064 11.4092 10.8566 11.4092C10.6073 11.4092 10.6066 11.1847 10.3584 11.1837C10.3618 11.2835 10.3733 11.4315 10.4025 11.6055C10.6055 11.6324 10.6239 11.8258 10.8566 11.8258C11.1064 11.8258 11.1064 11.6002 11.3561 11.6002C11.6059 11.6002 11.6059 11.8258 11.8556 11.8258C12.1056 11.8258 12.1056 11.6002 12.3556 11.6002C12.6058 11.6002 12.6058 11.8258 12.856 11.8258C13.089 11.8258 13.1075 11.6323 13.3108 11.6055C13.34 11.4315 13.3515 11.2835 13.3549 11.1837C13.1064 11.1847 13.1057 11.4092 12.856 11.4092Z" fill="#41479B"/>
<path d="M12.8558 11.8272C12.6057 11.8272 12.6057 11.6016 12.3555 11.6016C12.1055 11.6016 12.1055 11.8272 11.8555 11.8272C11.6057 11.8272 11.6057 11.6016 11.3559 11.6016C11.1061 11.6016 11.1062 11.8272 10.8564 11.8272C10.6237 11.8272 10.6052 11.6338 10.4023 11.6069C10.4255 11.7448 10.4601 11.8985 10.5111 12.0575C10.6235 12.122 10.6725 12.2439 10.8564 12.2439C11.1062 12.2439 11.1062 12.0182 11.3559 12.0182C11.6057 12.0182 11.6057 12.2439 11.8555 12.2439C12.1055 12.2439 12.1055 12.0182 12.3555 12.0182C12.6056 12.0182 12.6056 12.2439 12.8558 12.2439C13.0402 12.2439 13.0891 12.1218 13.2019 12.0573C13.2529 11.8984 13.2874 11.7447 13.3106 11.6069C13.1074 11.6338 13.0888 11.8272 12.8558 11.8272Z" fill="white"/>
<path d="M12.8555 12.2432C12.6053 12.2432 12.6053 12.0176 12.3551 12.0176C12.1051 12.0176 12.1051 12.2432 11.8551 12.2432C11.6054 12.2432 11.6054 12.0176 11.3556 12.0176C11.1058 12.0176 11.1058 12.2432 10.8561 12.2432C10.6722 12.2432 10.6232 12.1214 10.5107 12.0568C10.5742 12.2549 10.6634 12.4603 10.7878 12.6519C10.8088 12.6562 10.8304 12.6599 10.8561 12.6599C11.1059 12.6599 11.1059 12.4342 11.3556 12.4342C11.6054 12.4342 11.6054 12.6599 11.8551 12.6599C12.1051 12.6599 12.1051 12.4342 12.3551 12.4342C12.6053 12.4342 12.6053 12.6599 12.8555 12.6599C12.8815 12.6599 12.9034 12.6562 12.9245 12.6518C13.049 12.4602 13.1381 12.2547 13.2016 12.0567C13.0888 12.1211 13.0398 12.2432 12.8555 12.2432Z" fill="#41479B"/>
<path d="M12.8558 12.6593C12.6056 12.6593 12.6056 12.4336 12.3554 12.4336C12.1054 12.4336 12.1054 12.6593 11.8554 12.6593C11.6056 12.6593 11.6056 12.4336 11.3559 12.4336C11.1061 12.4336 11.1061 12.6593 10.8564 12.6593C10.8307 12.6593 10.8091 12.6556 10.7881 12.6513C10.8671 12.773 10.9608 12.8887 11.071 12.9935C11.1474 12.929 11.2081 12.8502 11.3559 12.8502C11.6057 12.8502 11.6057 13.0759 11.8555 13.0759C12.1055 13.0759 12.1055 12.8502 12.3555 12.8502C12.5039 12.8502 12.5646 12.9293 12.6414 12.994C12.7518 12.8891 12.8456 12.7732 12.9248 12.6512C12.9037 12.6556 12.8818 12.6593 12.8558 12.6593Z" fill="white"/>
<path d="M12.6416 12.9953C12.5648 12.9307 12.5042 12.8516 12.3557 12.8516C12.1057 12.8516 12.1057 13.0772 11.8557 13.0772C11.6059 13.0772 11.6059 12.8516 11.3562 12.8516C11.2084 12.8516 11.1477 12.9303 11.0713 12.9948C11.2722 13.1858 11.5284 13.3397 11.8567 13.4217C12.1847 13.3397 12.4408 13.1861 12.6416 12.9953Z" fill="#41479B"/>
<path d="M12.3551 10.7676C12.1051 10.7676 12.1051 10.9932 11.8551 10.9932C11.6053 10.9932 11.6053 10.7676 11.3556 10.7676C11.1058 10.7676 11.1058 10.9932 10.8561 10.9932C10.6063 10.9932 10.6063 10.7676 10.3564 10.7676C10.3564 10.9099 10.3564 11.0335 10.3564 11.1136C10.3564 11.1332 10.3569 11.1572 10.3578 11.1843C10.6061 11.1853 10.6068 11.4099 10.8561 11.4099C11.1058 11.4099 11.1058 11.1842 11.3555 11.1842C11.6053 11.1842 11.6053 11.4099 11.8551 11.4099C12.1051 11.4099 12.1051 11.1842 12.3551 11.1842C12.6053 11.1842 12.6053 11.4099 12.8554 11.4099C13.1051 11.4099 13.1058 11.1853 13.3544 11.1843C13.3553 11.1572 13.3558 11.1331 13.3558 11.1136C13.3558 11.0335 13.3558 10.9099 13.3558 10.7676C13.1056 10.7676 13.1056 10.9932 12.8554 10.9932C12.6053 10.9932 12.6053 10.7676 12.3551 10.7676Z" fill="white"/>
<path d="M13.2411 9.61384C13.3048 9.61384 13.3564 9.6655 13.3564 9.72919V10.7674V10.9982C13.3564 11.0419 13.3564 11.0818 13.3564 11.1135C13.3564 11.133 13.356 11.1571 13.355 11.1842C13.3516 11.2839 13.3401 11.432 13.3109 11.606C13.2877 11.7437 13.2532 11.8974 13.2022 12.0563C13.1388 12.2544 13.0496 12.4599 12.9252 12.6515C12.8459 12.7734 12.7521 12.8894 12.6417 12.9942C12.4408 13.1849 12.1848 13.3386 11.8568 13.4206C11.5285 13.3386 11.2723 13.1847 11.0714 12.9937C10.9611 12.889 10.8675 12.7733 10.7884 12.6515C10.664 12.4599 10.5749 12.2546 10.5114 12.0565C10.4604 11.8975 10.4258 11.7438 10.4027 11.6059C10.3734 11.432 10.362 11.2839 10.3585 11.1842C10.3576 11.157 10.3572 11.133 10.3572 11.1135C10.3572 11.0818 10.3572 11.0418 10.3572 10.9981V10.7674V9.72916C10.3572 9.66544 10.4088 9.61381 10.4725 9.61381H13.2411L13.2411 9.61384ZM13.2411 9.52734H10.4724C10.3611 9.52734 10.2705 9.61791 10.2705 9.72925V10.7675V10.9982V11.1136C10.2705 11.1339 10.2709 11.159 10.2719 11.1872C10.2752 11.2814 10.2857 11.433 10.3172 11.6204C10.344 11.7799 10.3816 11.9356 10.4289 12.083C10.502 12.3111 10.5985 12.5183 10.7158 12.6987C10.8021 12.8316 10.9017 12.9521 11.0117 13.0566C11.2411 13.2746 11.5184 13.4253 11.8357 13.5047L11.8567 13.5099L11.8777 13.5047C12.1948 13.4254 12.4718 13.2748 12.7012 13.057C12.8114 12.9524 12.9112 12.8318 12.9977 12.6987C13.1149 12.5181 13.2114 12.3109 13.2846 12.0827C13.3318 11.9354 13.3693 11.7798 13.3962 11.6203C13.4277 11.4329 13.4382 11.2813 13.4415 11.1872C13.4424 11.1589 13.4429 11.1339 13.4429 11.1135V10.9982V10.7675V9.72922C13.4429 9.61791 13.3524 9.52734 13.2411 9.52734Z" fill="white"/>
<path d="M11.8569 12.7227L11.5403 12.943L11.652 12.5738L11.3447 12.3409L11.7302 12.3331L11.8569 11.9688L11.9835 12.3331L12.369 12.3409L12.0618 12.5738L12.1735 12.943L11.8569 12.7227Z" fill="#73AF00"/>
<path d="M11.8562 12.0408L11.9661 12.3569L12.3007 12.3637L12.034 12.5659L12.131 12.8862L11.8562 12.6951L11.5815 12.8862L11.6785 12.5659L11.4118 12.3637L11.7464 12.3569L11.8562 12.0408ZM11.8562 11.8984L11.8121 12.0254L11.7129 12.3108L11.4108 12.317L11.2764 12.3197L11.3835 12.401L11.6242 12.5836L11.5368 12.8728L11.4978 13.0015L11.6082 12.9247L11.8562 12.7521L12.1042 12.9247L12.2146 13.0015L12.1756 12.8728L12.0882 12.5836L12.3289 12.401L12.4361 12.3197L12.3016 12.317L11.9996 12.3108L11.9003 12.0254L11.8562 11.8984Z" fill="#F8CB32"/>
<path d="M11.1616 11.8243L10.845 12.0445L10.9567 11.6754L10.6494 11.4424L11.035 11.4346L11.1616 11.0703L11.2882 11.4346L11.6738 11.4424L11.3665 11.6754L11.4782 12.0445L11.1616 11.8243Z" fill="#73AF00"/>
<path d="M11.1609 11.1404L11.2708 11.4565L11.6054 11.4633L11.3387 11.6655L11.4357 11.9858L11.161 11.7946L10.8862 11.9858L10.9832 11.6655L10.7165 11.4633L11.0511 11.4565L11.1609 11.1404ZM11.1609 10.998L11.1168 11.125L11.0176 11.4105L10.7155 11.4166L10.5811 11.4194L10.6882 11.5006L10.9289 11.6832L10.8415 11.9724L10.8025 12.1011L10.9129 12.0243L11.1609 11.8517L11.4089 12.0243L11.5193 12.1011L11.4803 11.9724L11.3929 11.6832L11.6336 11.5006L11.7407 11.4194L11.6063 11.4166L11.3042 11.4105L11.205 11.125L11.1609 10.998Z" fill="#F8CB32"/>
<path d="M12.5454 11.8243L12.2288 12.0445L12.3405 11.6754L12.0332 11.4424L12.4187 11.4346L12.5454 11.0703L12.672 11.4346L13.0575 11.4424L12.7503 11.6754L12.8619 12.0445L12.5454 11.8243Z" fill="#73AF00"/>
<path d="M12.5457 11.1404L12.6556 11.4565L12.9902 11.4633L12.7235 11.6655L12.8204 11.9858L12.5457 11.7946L12.271 11.9858L12.3679 11.6655L12.1012 11.4633L12.4359 11.4565L12.5457 11.1404ZM12.5457 10.998L12.5015 11.125L12.4023 11.4105L12.1002 11.4166L11.9658 11.4194L12.0729 11.5006L12.3137 11.6832L12.2262 11.9724L12.1873 12.1011L12.2977 12.0243L12.5457 11.8517L12.7937 12.0243L12.904 12.1011L12.8651 11.9724L12.7776 11.6832L13.0184 11.5006L13.1255 11.4194L12.9911 11.4166L12.689 11.4105L12.5898 11.125L12.5457 10.998Z" fill="#F8CB32"/>
<path d="M13.6811 12.2891C13.3948 13.018 12.6858 13.5362 11.8565 13.5362C11.0272 13.5362 10.3181 13.018 10.0319 12.2891L9.60254 12.457C9.95619 13.3575 10.832 13.9977 11.8565 13.9977C12.8809 13.9977 13.7568 13.3575 14.1104 12.457L13.6811 12.2891Z" fill="#F8CB32"/>
<path d="M12.0874 9.61364H11.7414L11.626 9.26758H11.9721L12.0874 9.61364Z" fill="white"/>
<path d="M12.6641 9.61353H12.4334L12.3564 9.38281H12.4618C12.5367 9.38281 12.6031 9.43075 12.6268 9.50178L12.6641 9.61353Z" fill="white"/>
<path d="M11.3949 9.61353H11.1642L11.1378 9.53462C11.1129 9.45994 11.1685 9.38281 11.2473 9.38281H11.3179L11.3949 9.61353Z" fill="white"/>
<path d="M12.4331 9.61364H12.087L11.9717 9.26758H12.2346C12.2843 9.26758 12.3283 9.29933 12.3441 9.34648L12.4331 9.61364Z" fill="#41479B"/>
<path d="M11.7409 9.61364H11.3949L11.3169 9.37989C11.2985 9.32464 11.3397 9.26758 11.3979 9.26758H11.6256L11.7409 9.61364Z" fill="#41479B"/>
<path d="M12.7035 8.8132C12.6133 8.94298 12.361 9.09798 11.95 9.09798C11.6114 9.09798 11.3936 8.89351 11.3209 8.81289C11.3032 8.79326 11.2939 8.76817 11.2939 8.7417V8.66302C11.2939 8.62914 11.3115 8.59833 11.3408 8.58133C11.414 8.5387 11.5833 8.4707 11.9176 8.4707C12.3322 8.4707 12.7035 8.8132 12.7035 8.8132Z" fill="#509664"/>
<path d="M10.2837 1H9.70779L6.63654 3.0081V1H4.97873V3.0081L1.90748 1H1.33158C1.14847 1 1 1.14817 1 1.3309V1.59336L3.635 3.31622H1V4.97067H3.635L1 6.69356V6.95598C1 7.13871 1.14847 7.28688 1.33158 7.28688H1.90748L4.97873 5.27878V7.28688H6.63654V5.27878L9.70776 7.28688H10.2837C10.4668 7.28688 10.6152 7.13871 10.6152 6.95598V6.69352L7.98027 4.97067H10.6152V3.31622H7.98024L10.6152 1.59336V1.3309C10.6152 1.14817 10.4668 1 10.2837 1Z" fill="white"/>
<path d="M10.6152 3.64712H6.30496V1H5.31027V3.64712H1V4.63976H5.31027V7.28688H6.30496V4.63976H10.6152V3.64712Z" fill="#FF334B"/>
<path d="M4.98131 3.30356L1.17249 1C1.07114 1.05978 1 1.16018 1 1.28024V1.29774L4.31652 3.30356H4.98131Z" fill="#FF334B"/>
<path d="M7.24927 3.30356L10.5826 1.16503C10.5247 1.06815 10.4225 1 10.3003 1H10.2283L6.6377 3.30356H7.24927Z" fill="#FF334B"/>
<path d="M4.37031 4.97656L1.04688 7.1172C1.10418 7.21673 1.20788 7.28683 1.33169 7.28683H1.39442L4.98123 4.97656H4.37031Z" fill="#FF334B"/>
<path d="M10.6152 6.98175L7.52337 4.97656H6.91699L10.4279 7.25361C10.5331 7.20484 10.6052 7.10264 10.6152 6.98175Z" fill="#FF334B"/>
</svg>
