<svg width="16" height="16" viewBox="0 0 16 16" fill="none" xmlns="http://www.w3.org/2000/svg">
<g clip-path="url(#clip0_5367_190632)">
<rect x="15" y="1" width="14" height="14" rx="2" transform="rotate(90 15 1)" fill="#41479B"/>
<path d="M14.7586 15L1.24139 15C1.10809 15 1 14.7525 1 14.4473L1 8L15 8L15 14.4473C15 14.7525 14.8919 15 14.7586 15Z" fill="#FF334B"/>
<path d="M7.52887 5.28638C7.52407 5.27221 7.51324 5.26067 7.49928 5.25507C7.49786 5.25453 7.46889 5.24349 7.42242 5.23041C7.44286 5.20274 7.45728 5.17031 7.45728 5.13336C7.45728 5.10168 7.44603 5.07372 7.43061 5.04847C7.48168 5.01993 7.51767 4.96739 7.51767 4.9049C7.51767 4.85538 7.49493 4.81207 7.46049 4.78152C7.50179 4.75118 7.53038 4.70458 7.53038 4.64957C7.53038 4.58817 7.49544 4.53664 7.44582 4.50772C7.47186 4.47829 7.489 4.44067 7.489 4.39838C7.489 4.32477 7.44022 4.26413 7.37385 4.24214C7.38898 4.21707 7.40006 4.18927 7.40006 4.15788C7.40006 4.06743 7.32737 3.99433 7.23739 3.99203C7.24111 3.97816 7.24595 3.96466 7.24595 3.94961C7.24595 3.8577 7.17118 3.78293 7.07923 3.78293C7.06372 3.78293 7.04976 3.78782 7.03551 3.79179C7.03576 3.78811 7.03764 3.78498 7.03764 3.78117C7.03764 3.68926 6.96287 3.61449 6.87096 3.61449C6.83936 3.61449 6.81153 3.62565 6.78628 3.64095C6.76685 3.57048 6.7049 3.51748 6.62838 3.51748C6.58244 3.51748 6.54081 3.53616 6.51064 3.56634C6.48242 3.51426 6.42913 3.47752 6.36585 3.47752C6.30809 3.47752 6.25965 3.50883 6.22972 3.55351C6.1993 3.52116 6.15687 3.50039 6.10906 3.50039C6.04737 3.50039 5.99554 3.53562 5.96674 3.58553C5.93623 3.55134 5.89306 3.52885 5.8437 3.52885C5.78267 3.52885 5.73151 3.56337 5.70247 3.61236C5.67409 3.59004 5.63994 3.57458 5.60115 3.57458C5.5311 3.57458 5.47154 3.61829 5.44692 3.67969C5.41692 3.65069 5.37641 3.63238 5.33144 3.63238C5.26787 3.63238 5.21433 3.66941 5.18624 3.72186C5.17395 3.71426 5.16142 3.70824 5.14733 3.70402C5.18248 3.65211 5.203 3.5895 5.203 3.5222C5.203 3.39159 5.12518 3.27949 5.01388 3.22771L5.0606 3.13421C5.06783 3.11979 5.06783 3.10266 5.0606 3.08819L5.00435 2.97568C5.00844 2.97196 5.01233 2.96807 5.01605 2.96398L5.12869 3.02023C5.13592 3.02383 5.14374 3.02558 5.15159 3.02558C5.15945 3.02558 5.16731 3.0237 5.1745 3.02011L5.44843 2.88314C5.4659 2.87441 5.47685 2.85669 5.47685 2.83725C5.47685 2.81781 5.46586 2.80009 5.44843 2.79136L5.1745 2.65439C5.16008 2.64716 5.14302 2.64716 5.12861 2.65439L5.01609 2.71065C5.01233 2.70651 5.0084 2.70258 5.0043 2.69878L5.06056 2.58626C5.06779 2.57184 5.06779 2.55471 5.06056 2.54025L4.9236 2.26632C4.90621 2.23154 4.84907 2.23154 4.83169 2.26632L4.69472 2.54025C4.68749 2.55467 4.68749 2.57184 4.69472 2.58626L4.75098 2.69878C4.74688 2.7025 4.74299 2.70639 4.73927 2.71048L4.62663 2.65422C4.61221 2.64699 4.59516 2.64712 4.58074 2.65435L4.30681 2.79132C4.28934 2.80005 4.27839 2.81777 4.27839 2.83721C4.27839 2.85664 4.28938 2.87436 4.30681 2.8831L4.58074 3.02007C4.58797 3.02366 4.59579 3.02554 4.60365 3.02554C4.61155 3.02554 4.61936 3.02366 4.62655 3.02007L4.73907 2.96381C4.74283 2.96795 4.74676 2.97187 4.75085 2.97568L4.69459 3.08819C4.68736 3.10261 4.68736 3.11979 4.69459 3.13421L4.74132 3.22771C4.63002 3.27945 4.5522 3.39159 4.5522 3.5222C4.5522 3.58812 4.57222 3.64931 4.60603 3.70059C4.58567 3.70448 4.56724 3.71129 4.55019 3.72191C4.5221 3.66945 4.46856 3.63242 4.40499 3.63242C4.36006 3.63242 4.31952 3.65069 4.28951 3.67973C4.26493 3.61834 4.20537 3.57462 4.13528 3.57462C4.09645 3.57462 4.06226 3.59008 4.03397 3.6124C4.00492 3.56342 3.95372 3.52889 3.89274 3.52889C3.84338 3.52889 3.8002 3.55138 3.76969 3.58557C3.74085 3.53562 3.68906 3.50043 3.62737 3.50043C3.5796 3.50043 3.53714 3.52124 3.50671 3.55355C3.47678 3.50887 3.4283 3.47757 3.37058 3.47757C3.3073 3.47757 3.25405 3.51431 3.2258 3.56638C3.19562 3.53621 3.15399 3.51752 3.10806 3.51752C3.03149 3.51752 2.96954 3.57052 2.95015 3.64099C2.92499 3.62569 2.89707 3.61453 2.86547 3.61453C2.77356 3.61453 2.69879 3.68931 2.69879 3.78122C2.69879 3.78494 2.70067 3.78815 2.70092 3.79183C2.68667 3.78786 2.67271 3.78297 2.6572 3.78297C2.56525 3.78297 2.49048 3.85774 2.49048 3.94965C2.49048 3.9647 2.49533 3.9782 2.49905 3.99208C2.40906 3.99438 2.33637 4.06748 2.33637 4.15792C2.33637 4.18931 2.34745 4.21711 2.36258 4.24218C2.29621 4.26417 2.24743 4.32477 2.24743 4.39842C2.24743 4.44072 2.26453 4.47833 2.29061 4.50776C2.24104 4.53668 2.20605 4.58817 2.20605 4.64961C2.20605 4.7047 2.23464 4.75122 2.27594 4.78156C2.2415 4.81216 2.21876 4.85542 2.21876 4.90495C2.21876 4.96743 2.25479 5.01997 2.30582 5.04852C2.2904 5.0738 2.27916 5.10172 2.27916 5.1334C2.27916 5.17231 2.29466 5.20659 2.31707 5.23497C2.27995 5.24596 2.25717 5.25461 2.25592 5.25511C2.24196 5.26076 2.23109 5.27221 2.22633 5.28642C2.22152 5.30071 2.22323 5.31639 2.23092 5.32934C2.23498 5.33603 2.63885 6.01421 2.77256 6.68262C2.77586 6.69917 2.78786 6.70983 2.80198 6.71651C2.90468 6.85524 3.79447 6.96365 4.87758 6.96365C5.96068 6.96365 6.85044 6.85524 6.95317 6.71651C6.9673 6.70979 6.97934 6.69917 6.9826 6.68262C7.11618 6.01472 7.52014 5.33603 7.52423 5.32934C7.53197 5.31639 7.53368 5.30071 7.52887 5.28638Z" fill="#F8CB32"/>
<path d="M7.52887 5.28638C7.52407 5.27221 7.51324 5.26067 7.49928 5.25507C7.49786 5.25453 7.46889 5.24349 7.42242 5.23041C7.44286 5.20274 7.45728 5.17031 7.45728 5.13336C7.45728 5.10168 7.44603 5.07372 7.43061 5.04847C7.48168 5.01993 7.51767 4.96739 7.51767 4.9049C7.51767 4.85538 7.49493 4.81207 7.46049 4.78152C7.50179 4.75118 7.53038 4.70458 7.53038 4.64957C7.53038 4.58817 7.49544 4.53664 7.44582 4.50772C7.47186 4.47829 7.489 4.44067 7.489 4.39838C7.489 4.32477 7.44022 4.26413 7.37385 4.24214C7.38898 4.21707 7.40006 4.18927 7.40006 4.15788C7.40006 4.06743 7.32737 3.99433 7.23739 3.99203C7.24111 3.97816 7.24595 3.96466 7.24595 3.94961C7.24595 3.8577 7.17118 3.78293 7.07923 3.78293C7.06372 3.78293 7.04976 3.78782 7.03551 3.79179C7.03576 3.78811 7.03764 3.78498 7.03764 3.78117C7.03764 3.68926 6.96287 3.61449 6.87096 3.61449C6.83936 3.61449 6.81153 3.62565 6.78628 3.64095C6.76685 3.57048 6.7049 3.51748 6.62838 3.51748C6.58244 3.51748 6.54081 3.53616 6.51064 3.56634C6.48242 3.51426 6.42913 3.47752 6.36585 3.47752C6.30809 3.47752 6.25965 3.50883 6.22972 3.55351C6.1993 3.52116 6.15687 3.50039 6.10906 3.50039C6.04737 3.50039 5.99554 3.53562 5.96674 3.58553C5.93623 3.55134 5.89306 3.52885 5.8437 3.52885C5.78267 3.52885 5.73151 3.56337 5.70247 3.61236C5.67409 3.59004 5.63994 3.57458 5.60115 3.57458C5.5311 3.57458 5.47154 3.61829 5.44692 3.67969C5.41692 3.65069 5.37641 3.63238 5.33144 3.63238C5.26787 3.63238 5.21433 3.66941 5.18624 3.72186C5.17395 3.71426 5.16142 3.70824 5.14733 3.70402C5.18248 3.65211 5.203 3.5895 5.203 3.5222C5.203 3.39159 5.12518 3.27949 5.01388 3.22771L5.0606 3.13421C5.06783 3.11979 5.06783 3.10266 5.0606 3.08819L5.00435 2.97568C5.00844 2.97196 5.01233 2.96807 5.01605 2.96398L5.12869 3.02023C5.13592 3.02383 5.14374 3.02558 5.15159 3.02558C5.15945 3.02558 5.16731 3.0237 5.1745 3.02011L5.44843 2.88314C5.4659 2.87441 5.47685 2.85669 5.47685 2.83725C5.47685 2.81781 5.46586 2.80009 5.44843 2.79136L5.1745 2.65439C5.16008 2.64716 5.14302 2.64716 5.12861 2.65439L5.01609 2.71065C5.01233 2.70651 5.0084 2.70258 5.0043 2.69878L5.06056 2.58626C5.06779 2.57184 5.06779 2.55471 5.06056 2.54025L4.9236 2.26632C4.90621 2.23154 4.84907 2.23154 4.83169 2.26632L4.69472 2.54025C4.68749 2.55467 4.68749 2.57184 4.69472 2.58626L4.75098 2.69878C4.74688 2.7025 4.74299 2.70639 4.73927 2.71048L4.62663 2.65422C4.61221 2.64699 4.59516 2.64712 4.58074 2.65435L4.30681 2.79132C4.28934 2.80005 4.27839 2.81777 4.27839 2.83721C4.27839 2.85664 4.28938 2.87436 4.30681 2.8831L4.58074 3.02007C4.58797 3.02366 4.59579 3.02554 4.60365 3.02554C4.61155 3.02554 4.61936 3.02366 4.62655 3.02007L4.73907 2.96381C4.74283 2.96795 4.74676 2.97187 4.75085 2.97568L4.69459 3.08819C4.68736 3.10261 4.68736 3.11979 4.69459 3.13421L4.74132 3.22771C4.63002 3.27945 4.5522 3.39159 4.5522 3.5222C4.5522 3.58812 4.57222 3.64931 4.60603 3.70059C4.58567 3.70448 4.56724 3.71129 4.55019 3.72191C4.5221 3.66945 4.46856 3.63242 4.40499 3.63242C4.36006 3.63242 4.31952 3.65069 4.28951 3.67973C4.26493 3.61834 4.20537 3.57462 4.13528 3.57462C4.09645 3.57462 4.06226 3.59008 4.03397 3.6124C4.00492 3.56342 3.95372 3.52889 3.89274 3.52889C3.84338 3.52889 3.8002 3.55138 3.76969 3.58557C3.74085 3.53562 3.68906 3.50043 3.62737 3.50043C3.5796 3.50043 3.53714 3.52124 3.50671 3.55355C3.47678 3.50887 3.4283 3.47757 3.37058 3.47757C3.3073 3.47757 3.25405 3.51431 3.2258 3.56638C3.19562 3.53621 3.15399 3.51752 3.10806 3.51752C3.03149 3.51752 2.96954 3.57052 2.95015 3.64099C2.92499 3.62569 2.89707 3.61453 2.86547 3.61453C2.77356 3.61453 2.69879 3.68931 2.69879 3.78122C2.69879 3.78494 2.70067 3.78815 2.70092 3.79183C2.68667 3.78786 2.67271 3.78297 2.6572 3.78297C2.56525 3.78297 2.49048 3.85774 2.49048 3.94965C2.49048 3.9647 2.49533 3.9782 2.49905 3.99208C2.40906 3.99438 2.33637 4.06748 2.33637 4.15792C2.33637 4.18931 2.34745 4.21711 2.36258 4.24218C2.29621 4.26417 2.24743 4.32477 2.24743 4.39842C2.24743 4.44072 2.26453 4.47833 2.29061 4.50776C2.24104 4.53668 2.20605 4.58817 2.20605 4.64961C2.20605 4.7047 2.23464 4.75122 2.27594 4.78156C2.2415 4.81216 2.21876 4.85542 2.21876 4.90495C2.21876 4.96743 2.25479 5.01997 2.30582 5.04852C2.2904 5.0738 2.27916 5.10172 2.27916 5.1334C2.27916 5.17231 2.29466 5.20659 2.31707 5.23497C2.27995 5.24596 2.25717 5.25461 2.25592 5.25511C2.24196 5.26076 2.23109 5.27221 2.22633 5.28642C2.22152 5.30071 2.22323 5.31639 2.23092 5.32934C2.23498 5.33603 2.63885 6.01421 2.77256 6.68262C2.77586 6.69917 2.78786 6.70983 2.80198 6.71651C2.90468 6.85524 3.79447 6.96365 4.87758 6.96365C5.96068 6.96365 6.85044 6.85524 6.95317 6.71651C6.9673 6.70979 6.97934 6.69917 6.9826 6.68262C7.11618 6.01472 7.52014 5.33603 7.52423 5.32934C7.53197 5.31639 7.53368 5.30071 7.52887 5.28638ZM6.07679 4.95552V4.15165C6.14195 4.14601 6.20532 4.14421 6.26625 4.14635V4.98143C6.20958 4.95406 6.14559 4.94607 6.07679 4.95552ZM5.48554 3.86063C5.48697 3.86201 5.48897 3.86259 5.49043 3.86393C5.48826 3.86439 5.48609 3.86485 5.48387 3.86535C5.48458 3.86376 5.48496 3.86217 5.48554 3.86063ZM7.29055 5.06941C7.32579 5.06941 7.35446 5.09804 7.35446 5.13332C7.35446 5.16864 7.32579 5.19723 7.29055 5.19723C7.25532 5.19723 7.22664 5.1686 7.22664 5.13332C7.22664 5.09804 7.25532 5.06941 7.29055 5.06941ZM7.35086 4.96881C7.31563 4.96881 7.28696 4.94018 7.28696 4.9049C7.28696 4.86959 7.31563 4.841 7.35086 4.841C7.38618 4.841 7.41489 4.86963 7.41489 4.9049C7.41489 4.94022 7.38622 4.96881 7.35086 4.96881ZM7.29975 4.64953C7.29975 4.61421 7.32842 4.58562 7.36365 4.58562C7.39889 4.58562 7.42756 4.61425 7.42756 4.64953C7.42756 4.68485 7.39889 4.71344 7.36365 4.71344C7.32842 4.71344 7.29975 4.68485 7.29975 4.64953ZM5.38962 5.28638C5.32827 5.05311 5.24864 4.70198 5.21504 4.35098C5.25036 4.33861 5.31105 4.31834 5.38962 4.29456V5.28638ZM4.53339 4.35516C4.49723 4.72869 4.409 5.10285 4.34685 5.33319V4.29447C4.43496 4.32114 4.50104 4.34367 4.53339 4.35516ZM4.94157 3.9331C4.94157 3.96842 4.9129 3.99701 4.87766 3.99701C4.84243 3.99701 4.81376 3.96838 4.81376 3.9331C4.81376 3.89778 4.84243 3.8692 4.87766 3.8692C4.9129 3.86911 4.94157 3.89778 4.94157 3.9331ZM4.25097 3.86096L4.25055 3.86088C4.25055 3.86088 4.2508 3.86075 4.25089 3.86063C4.25093 3.86075 4.25093 3.86088 4.25097 3.86096ZM2.37278 4.58562C2.40801 4.58562 2.43669 4.61425 2.43669 4.64953C2.43669 4.68485 2.40801 4.71344 2.37278 4.71344C2.33755 4.71344 2.30887 4.68481 2.30887 4.64953C2.30883 4.61421 2.33755 4.58562 2.37278 4.58562ZM2.44948 4.9049C2.44948 4.94022 2.4208 4.96881 2.38557 4.96881C2.35025 4.96881 2.32154 4.94018 2.32154 4.9049C2.32154 4.86959 2.35021 4.841 2.38557 4.841C2.4208 4.84096 2.44948 4.86954 2.44948 4.9049ZM2.44588 5.06941C2.48111 5.06941 2.50979 5.09804 2.50979 5.13332C2.50979 5.16864 2.48111 5.19723 2.44588 5.19723C2.41065 5.19723 2.38197 5.1686 2.38197 5.13332C2.38193 5.09804 2.41065 5.06941 2.44588 5.06941ZM2.70966 4.20398C2.81022 4.04131 3.00649 3.84746 3.37087 3.84746C3.72664 3.84746 4.22861 3.95617 4.55011 4.03609C4.55023 4.1058 4.54705 4.17728 4.54212 4.24916C4.32278 4.1728 3.45037 3.89356 3.0793 4.14752C2.65938 4.43549 2.79208 4.98482 2.87053 5.21231C2.80374 5.19422 2.7362 5.18602 2.67154 5.18473C2.51986 4.88041 2.53507 4.48648 2.70966 4.20398ZM2.99901 5.26213C2.9629 5.17817 2.73198 4.59737 3.07525 4.28327V5.30803C3.05059 5.29039 3.02501 5.27547 2.99901 5.26213ZM3.17798 4.21092C3.23223 4.18279 3.29618 4.16457 3.36744 4.15487V5.06895C3.26442 5.1734 3.21861 5.31714 3.19842 5.42522C3.1919 5.41703 3.18471 5.41043 3.17794 5.40278V4.21092H3.17798ZM3.47022 4.14626C3.53116 4.14413 3.59452 4.14593 3.65968 4.15157V4.9546C3.64848 4.9536 3.63678 4.95071 3.62583 4.95071C3.57534 4.95071 3.52794 4.96129 3.48489 4.98294C3.47958 4.98557 3.47528 4.98916 3.47018 4.99197V4.14622H3.47022V4.14626ZM3.76242 4.1626C3.82607 4.17105 3.8896 4.18212 3.95188 4.19458V5.07384C3.88668 5.02887 3.82323 4.99635 3.76242 4.9765V4.1626ZM4.05465 4.21665C4.12199 4.23215 4.18556 4.24841 4.24412 4.26475V5.35195C4.18748 5.28027 4.12224 5.21248 4.05465 5.15351V4.21665ZM4.65238 4.06204C4.72962 4.08211 4.79056 4.09878 4.82629 4.10886V4.98005C4.68707 4.99414 4.5807 5.06523 4.49953 5.15263C4.57184 4.85145 4.64971 4.44042 4.65238 4.06204ZM4.92899 4.10886C4.9638 4.09907 5.02223 4.08303 5.09655 4.06372C5.09939 4.43825 5.17575 4.84434 5.24739 5.1444C5.16723 5.06097 5.06365 4.99372 4.92903 4.98014V4.1089H4.92899V4.10886V4.10886ZM5.49236 4.26484C5.55095 4.24854 5.61449 4.23224 5.68182 4.21673V5.16157C5.68182 5.16396 5.68286 5.16605 5.6832 5.16839C5.61403 5.23087 5.54853 5.30255 5.49236 5.37691V4.26484ZM5.78455 4.19466C5.84687 4.18221 5.91036 4.17113 5.97402 4.16269V4.98131C5.91308 5.00367 5.8495 5.03915 5.78455 5.08609V4.19466ZM6.36899 4.15496C6.44029 4.16465 6.5042 4.18279 6.55845 4.21096V5.41419C6.55845 5.41686 6.55954 5.4192 6.55995 5.42175C6.55895 5.42305 6.55778 5.42401 6.55678 5.42526C6.53546 5.31108 6.48472 5.15785 6.36899 5.05249V4.15496ZM6.66119 4.28335C7.02895 4.62006 6.736 5.26577 6.73282 5.27263C6.73249 5.27334 6.73257 5.27405 6.73232 5.27476C6.70791 5.28863 6.6843 5.30493 6.66119 5.32286V4.28335ZM6.65709 4.14752C6.29338 3.89841 5.44609 4.16256 5.20639 4.24498C5.20167 4.17506 5.19861 4.10559 5.19874 4.03772C5.5199 3.95759 6.02622 3.84746 6.38433 3.84746C6.74871 3.84746 6.94502 4.04131 7.04554 4.20398C7.22012 4.48652 7.23538 4.88041 7.0837 5.18477C7.01223 5.18619 6.93733 5.19626 6.86377 5.21862C6.94189 4.99497 7.08082 4.43808 6.65709 4.14752ZM7.32227 4.46228C7.28704 4.46228 7.25837 4.43365 7.25837 4.39838C7.25837 4.36306 7.28704 4.33447 7.32227 4.33447C7.35759 4.33447 7.38631 4.3631 7.38631 4.39838C7.38631 4.43365 7.35755 4.46228 7.32227 4.46228ZM7.29732 4.1578C7.29732 4.19312 7.26865 4.22187 7.23329 4.22187C7.19806 4.22187 7.16938 4.19307 7.16938 4.1578C7.16938 4.12248 7.19806 4.09389 7.23329 4.09389C7.26865 4.09389 7.29732 4.12248 7.29732 4.1578ZM7.14326 3.94953C7.14326 3.98485 7.11459 4.01343 7.07923 4.01343C7.044 4.01343 7.01532 3.9848 7.01532 3.94953C7.01532 3.91421 7.044 3.88562 7.07923 3.88562C7.11451 3.88558 7.14326 3.91425 7.14326 3.94953ZM6.87096 3.71718C6.90619 3.71718 6.93487 3.74581 6.93487 3.78109C6.93487 3.81641 6.90619 3.84516 6.87096 3.84516C6.83564 3.84516 6.80693 3.81637 6.80693 3.78109C6.80693 3.74581 6.83564 3.71718 6.87096 3.71718ZM6.62838 3.62018C6.66361 3.62018 6.69228 3.64881 6.69228 3.68408C6.69228 3.7194 6.66361 3.74799 6.62838 3.74799C6.59314 3.74799 6.56447 3.71936 6.56447 3.68408C6.56443 3.64881 6.59314 3.62018 6.62838 3.62018ZM6.36585 3.58018C6.40109 3.58018 6.42976 3.60881 6.42976 3.64408C6.42976 3.6794 6.40109 3.70816 6.36585 3.70816C6.33054 3.70816 6.30182 3.67936 6.30182 3.64408C6.30182 3.60885 6.33054 3.58018 6.36585 3.58018ZM6.10902 3.60308C6.14425 3.60308 6.17292 3.63171 6.17292 3.66699C6.17292 3.70226 6.14425 3.73089 6.10902 3.73089C6.0737 3.73089 6.04498 3.70226 6.04498 3.66699C6.04498 3.63171 6.0737 3.60308 6.10902 3.60308ZM5.84365 3.63159C5.87889 3.63159 5.90756 3.66022 5.90756 3.69549C5.90756 3.73081 5.87889 3.75956 5.84365 3.75956C5.80834 3.75956 5.77962 3.73077 5.77962 3.69549C5.77962 3.66022 5.80829 3.63159 5.84365 3.63159ZM5.60103 3.67731C5.63626 3.67731 5.66493 3.70594 5.66493 3.74122C5.66493 3.77649 5.63626 3.80512 5.60103 3.80512C5.56579 3.80512 5.53712 3.77649 5.53712 3.74122C5.53712 3.70594 5.56579 3.67731 5.60103 3.67731ZM5.3314 3.73511C5.36663 3.73511 5.39531 3.76374 5.39531 3.79902C5.39531 3.8343 5.36663 3.86293 5.3314 3.86293C5.29617 3.86293 5.26749 3.8343 5.26749 3.79902C5.26749 3.76374 5.29608 3.73511 5.3314 3.73511ZM5.10023 3.92504C5.06499 3.92504 5.03632 3.89641 5.03632 3.86113C5.03632 3.82581 5.06499 3.79722 5.10023 3.79722C5.13546 3.79722 5.16413 3.82585 5.16413 3.86113C5.16413 3.89645 5.13546 3.92504 5.10023 3.92504ZM4.79202 2.83725C4.79202 2.79002 4.83039 2.75165 4.87762 2.75165C4.92485 2.75165 4.96322 2.79002 4.96322 2.83725C4.96322 2.88448 4.92485 2.92285 4.87762 2.92285C4.83043 2.92289 4.79202 2.88448 4.79202 2.83725ZM5.15155 2.75767L5.31067 2.83729L5.15155 2.91691L5.0624 2.87232C5.06457 2.86091 5.06595 2.84929 5.06595 2.83729C5.06595 2.8253 5.06457 2.81364 5.0624 2.80222L5.15155 2.75767ZM4.79808 2.56328L4.87758 2.4042L4.95707 2.56328L4.91248 2.65243C4.90115 2.65025 4.88949 2.64887 4.87754 2.64887C4.86554 2.64887 4.85392 2.65025 4.84259 2.65243L4.79808 2.56328ZM4.60365 2.91683L4.44453 2.83721L4.60365 2.75759L4.6928 2.80218C4.69062 2.81359 4.68924 2.82521 4.68924 2.83721C4.68924 2.8492 4.69062 2.86086 4.6928 2.87227L4.60365 2.91683ZM4.79808 3.11118L4.84268 3.02203C4.85401 3.0242 4.86567 3.02558 4.87762 3.02558C4.88957 3.02558 4.90123 3.0242 4.91256 3.02203L4.95716 3.11118L4.9126 3.20033C4.90098 3.19908 4.88962 3.19678 4.87766 3.19678C4.86567 3.19678 4.85434 3.19904 4.84272 3.20033L4.79808 3.11118ZM4.87762 3.29956C5.00033 3.29956 5.10018 3.39937 5.10018 3.52212C5.10018 3.64492 5.00033 3.74469 4.87762 3.74469C4.75491 3.74469 4.65506 3.64488 4.65506 3.52212C4.65506 3.39937 4.75486 3.29956 4.87762 3.29956ZM4.63625 3.79718C4.67148 3.79718 4.70015 3.82581 4.70015 3.86109C4.70015 3.89641 4.67148 3.92499 4.63625 3.92499C4.60101 3.92499 4.57234 3.89636 4.57234 3.86109C4.5723 3.82577 4.60097 3.79718 4.63625 3.79718ZM4.40511 3.73511C4.44035 3.73511 4.46902 3.76374 4.46902 3.79902C4.46902 3.8343 4.44035 3.86293 4.40511 3.86293C4.36988 3.86293 4.34121 3.8343 4.34121 3.79902C4.34121 3.76374 4.36984 3.73511 4.40511 3.73511ZM4.1354 3.67731C4.17064 3.67731 4.19931 3.70594 4.19931 3.74122C4.19931 3.77649 4.17064 3.80512 4.1354 3.80512C4.10017 3.80512 4.0715 3.77649 4.0715 3.74122C4.0715 3.70594 4.10017 3.67731 4.1354 3.67731ZM3.89286 3.63159C3.92818 3.63159 3.95689 3.66022 3.95689 3.69549C3.95689 3.73081 3.92822 3.75956 3.89286 3.75956C3.85763 3.75956 3.82896 3.73077 3.82896 3.69549C3.82887 3.66022 3.85759 3.63159 3.89286 3.63159ZM3.62746 3.60308C3.66277 3.60308 3.69149 3.63171 3.69149 3.66699C3.69149 3.70226 3.66282 3.73089 3.62746 3.73089C3.59222 3.73089 3.56355 3.70226 3.56355 3.66699C3.56355 3.63171 3.59222 3.60308 3.62746 3.60308ZM3.37058 3.58018C3.4059 3.58018 3.43461 3.60881 3.43461 3.64408C3.43461 3.6794 3.40594 3.70816 3.37058 3.70816C3.33534 3.70816 3.30667 3.67936 3.30667 3.64408C3.30667 3.60885 3.33534 3.58018 3.37058 3.58018ZM3.1081 3.62018C3.14333 3.62018 3.172 3.64881 3.172 3.68408C3.172 3.7194 3.14333 3.74799 3.1081 3.74799C3.07286 3.74799 3.04419 3.71936 3.04419 3.68408C3.04415 3.64881 3.07286 3.62018 3.1081 3.62018ZM2.86551 3.71718C2.90083 3.71718 2.92955 3.74581 2.92955 3.78109C2.92955 3.81641 2.90087 3.84516 2.86551 3.84516C2.83028 3.84516 2.80161 3.81637 2.80161 3.78109C2.80157 3.74581 2.83024 3.71718 2.86551 3.71718ZM2.65724 3.88558C2.69248 3.88558 2.72115 3.91421 2.72115 3.94949C2.72115 3.9848 2.69248 4.01339 2.65724 4.01339C2.62193 4.01339 2.59321 3.98476 2.59321 3.94949C2.59325 3.91425 2.62193 3.88558 2.65724 3.88558ZM2.50314 4.09389C2.53838 4.09389 2.56705 4.12252 2.56705 4.1578C2.56705 4.19312 2.53838 4.22187 2.50314 4.22187C2.46782 4.22187 2.43911 4.19307 2.43911 4.1578C2.43911 4.12248 2.46787 4.09389 2.50314 4.09389ZM2.41416 4.33439C2.44939 4.33439 2.47806 4.36302 2.47806 4.39829C2.47806 4.43361 2.44939 4.4622 2.41416 4.4622C2.37884 4.4622 2.35013 4.43357 2.35013 4.39829C2.35021 4.36298 2.37888 4.33439 2.41416 4.33439ZM6.89144 6.61934C6.65458 6.50218 5.84403 6.41575 4.87766 6.41575C3.91129 6.41575 3.1007 6.50218 2.86384 6.61934C2.74134 6.05221 2.44843 5.50351 2.35079 5.33106C2.51347 5.28115 2.97916 5.18218 3.18797 5.59981C3.19867 5.62108 3.2227 5.63232 3.24573 5.62685C3.26893 5.62137 3.28536 5.60064 3.28536 5.57682C3.28536 5.5731 3.28816 5.19622 3.53091 5.0748C3.77128 4.95523 4.16015 5.35221 4.28386 5.59985C4.28386 5.59985 4.28399 5.59993 4.28399 5.60001C4.28804 5.60808 4.29481 5.61431 4.30263 5.61932C4.30426 5.62033 4.30577 5.62125 4.30752 5.62204C4.30974 5.62313 4.31149 5.62484 4.31392 5.62564C4.31922 5.62739 4.32457 5.62819 4.3298 5.62819C4.33076 5.62819 4.33155 5.62735 4.33252 5.62731C4.33352 5.62731 4.33431 5.62793 4.33536 5.62789C4.34021 5.62735 4.34376 5.62405 4.34811 5.62225C4.3527 5.62041 4.35734 5.61953 4.36123 5.61648C4.36599 5.61276 4.3685 5.60737 4.37176 5.60215C4.37389 5.59868 4.37745 5.59663 4.37878 5.59262C4.38029 5.58789 4.38668 5.56796 4.39613 5.53686C4.44102 5.40708 4.58325 5.08032 4.87779 5.08032C5.12777 5.08032 5.268 5.31576 5.33224 5.46639C5.35318 5.53874 5.36793 5.58509 5.3704 5.59262C5.3775 5.61443 5.39761 5.62819 5.4193 5.62819C5.42452 5.62819 5.42987 5.62739 5.43518 5.62564C5.4361 5.6253 5.43677 5.62459 5.43769 5.62426C5.45198 5.62062 5.4649 5.61347 5.47171 5.59985C5.59551 5.35208 5.98472 4.95602 6.22467 5.0748C6.2408 5.08287 6.25572 5.09223 6.26976 5.10239C6.28368 5.11414 6.29309 5.12283 6.30897 5.13558C6.46717 5.28997 6.47022 5.57352 6.47022 5.57682C6.47026 5.6006 6.48669 5.62137 6.50984 5.62685C6.53316 5.6322 6.55695 5.62108 6.5676 5.59981C6.776 5.1831 7.24177 5.28144 7.40474 5.33122C7.30677 5.5038 7.01394 6.05237 6.89144 6.61934Z" fill="#464655"/>
<path d="M5.08041 5.49036C5.07376 5.49584 5.06728 5.50165 5.06085 5.50767C5.01103 5.55456 4.92906 5.51774 4.92906 5.44928V5.44004C4.92906 5.41166 4.90603 5.38867 4.8777 5.38867C4.84936 5.38867 4.82633 5.4117 4.82633 5.44004V5.44928C4.82633 5.51774 4.74441 5.55456 4.69454 5.50767C4.68819 5.50169 4.68163 5.49592 4.67498 5.49036C4.65317 5.47243 4.62073 5.47511 4.60268 5.49717C4.58454 5.51899 4.58755 5.55138 4.60941 5.56952C4.74976 5.68576 4.82624 5.96065 4.82624 6.06928V6.12495C4.82624 6.15333 4.84927 6.17632 4.87761 6.17632C4.90595 6.17632 4.92898 6.15329 4.92898 6.12495V6.06928C4.92898 5.96065 5.00551 5.6858 5.14582 5.56952C5.16768 5.55134 5.17069 5.51899 5.15255 5.49717C5.13462 5.47531 5.10222 5.47247 5.08041 5.49036Z" fill="#464655"/>
<path d="M6.24501 5.70673C6.23895 5.70627 6.23298 5.7061 6.22692 5.70627C6.17881 5.70957 6.13183 5.64128 6.15515 5.58828C6.15611 5.58607 6.15712 5.58381 6.15812 5.58155C6.16711 5.56107 6.16025 5.52755 6.14312 5.50578C6.12602 5.48404 6.10383 5.48521 6.09321 5.50929C6.09212 5.51188 6.09095 5.51439 6.08978 5.51702C6.06554 5.57211 5.9957 5.55564 5.98471 5.47468C5.98333 5.46427 5.98191 5.4537 5.98028 5.44317C5.97489 5.40893 5.9552 5.38519 5.93422 5.39468C5.91336 5.40379 5.89928 5.4422 5.90429 5.47698C5.93401 5.70661 5.89995 5.94877 5.86103 6.03684C5.85422 6.05239 5.84732 6.06793 5.84051 6.08352C5.82994 6.10751 5.84344 6.12607 5.87098 6.12407C5.89857 6.12198 5.92853 6.10304 5.93756 6.0826C5.94354 6.06906 5.94952 6.05548 5.95545 6.04189C5.99232 5.95788 6.14675 5.7716 6.27327 5.78125C6.29362 5.78113 6.30228 5.76788 6.29417 5.74798C6.2861 5.72826 6.26466 5.7084 6.24501 5.70673Z" fill="#464655"/>
<path d="M7.00684 5.86605C7.00182 5.86605 6.99685 5.86634 6.99179 5.86693C6.95142 5.87366 6.91719 5.811 6.94051 5.75801C6.94147 5.75579 6.94247 5.75354 6.94348 5.75128C6.95246 5.7308 6.9492 5.69882 6.9365 5.67905C6.92383 5.65929 6.90523 5.662 6.89462 5.68612C6.89353 5.68871 6.89236 5.69122 6.89119 5.69381C6.86695 5.7489 6.8099 5.73803 6.80659 5.6605C6.80622 5.65051 6.80576 5.64039 6.80521 5.63032C6.80325 5.59759 6.78854 5.57603 6.77031 5.58677C6.75222 5.59713 6.73771 5.63534 6.73939 5.66861C6.74741 5.88875 6.70135 6.1256 6.66244 6.21367C6.65563 6.22922 6.64873 6.24476 6.64192 6.26035C6.63134 6.28435 6.64129 6.30132 6.6644 6.29739C6.6876 6.29333 6.71397 6.27285 6.72296 6.25237C6.72894 6.23883 6.73491 6.22525 6.74085 6.21166C6.77771 6.12765 6.92015 5.9361 7.02498 5.93623C7.04199 5.9346 7.05014 5.92118 7.04487 5.9025C7.03961 5.8839 7.02314 5.86618 7.00684 5.86605Z" fill="#464655"/>
<path d="M3.89424 6.03684C3.85533 5.94881 3.82127 5.70661 3.85098 5.47698C3.856 5.44225 3.84191 5.40388 3.82106 5.39468C3.80008 5.38519 3.78035 5.40893 3.775 5.44317C3.77337 5.4537 3.77195 5.46419 3.77057 5.47468C3.75953 5.55564 3.68973 5.57202 3.66549 5.51702C3.66432 5.51443 3.66324 5.51184 3.66207 5.50929C3.65145 5.48517 3.62934 5.48404 3.61216 5.50578C3.59507 5.52755 3.58817 5.56103 3.59716 5.58155C3.59812 5.58381 3.59912 5.58607 3.60012 5.58828C3.62345 5.64128 3.57642 5.70957 3.52836 5.70627C3.5223 5.7061 3.51632 5.70627 3.51026 5.70673C3.49062 5.7084 3.46913 5.72822 3.46103 5.74803C3.45292 5.76792 3.46157 5.78113 3.48192 5.7813C3.60844 5.7716 3.76288 5.95788 3.79974 6.04194C3.80568 6.05548 3.8117 6.06906 3.81763 6.08265C3.82662 6.10313 3.85658 6.12202 3.88421 6.12411C3.9118 6.12616 3.92526 6.1076 3.91468 6.08357C3.90791 6.06793 3.9011 6.05239 3.89424 6.03684Z" fill="#464655"/>
<path d="M3.09208 6.21367C3.05321 6.12565 3.00711 5.88875 3.01514 5.66861C3.01681 5.63534 3.00222 5.59718 2.98421 5.58677C2.96598 5.57603 2.95127 5.59759 2.94931 5.63032C2.94872 5.64039 2.9483 5.65047 2.94793 5.6605C2.94467 5.73803 2.88762 5.74885 2.86333 5.69381C2.86216 5.69122 2.86108 5.68863 2.85991 5.68612C2.84929 5.662 2.83073 5.65929 2.81803 5.67905C2.80536 5.69882 2.80202 5.7308 2.81105 5.75128C2.81201 5.75354 2.81301 5.75579 2.81401 5.75801C2.83734 5.811 2.80306 5.87366 2.76273 5.86693C2.75767 5.86634 2.75266 5.86605 2.74768 5.86605C2.73138 5.86618 2.71496 5.88386 2.70961 5.90245C2.7043 5.9211 2.71253 5.93455 2.7295 5.93618C2.83433 5.93606 2.97681 6.12757 3.01363 6.21162C3.01957 6.22516 3.02558 6.23875 3.03152 6.25233C3.04051 6.27281 3.06692 6.29329 3.09008 6.29734C3.11323 6.30131 3.12314 6.28435 3.11256 6.26031C3.10579 6.24481 3.09894 6.22922 3.09208 6.21367Z" fill="#464655"/>
</g>
<defs>
<clipPath id="clip0_5367_190632">
<rect x="15" y="1" width="14" height="14" rx="2" transform="rotate(90 15 1)" fill="white"/>
</clipPath>
</defs>
</svg>
