<svg width="16" height="16" viewBox="0 0 16 16" fill="none" xmlns="http://www.w3.org/2000/svg">
<g clip-path="url(#clip0_5367_190513)">
<rect x="15" y="0.572266" width="14" height="14" rx="2" transform="rotate(90 15 0.572266)" fill="#F8CB32"/>
<path d="M15 0.813656L15 14.3309C15 14.4642 14.835 14.5723 14.6316 14.5723L10.3333 14.5723L10.3333 0.572265L14.6316 0.572266C14.835 0.572266 15 0.680355 15 0.813656Z" fill="#FF334B"/>
<path d="M5.66699 0.572266L5.66699 14.5723L1.36876 14.5723C1.1653 14.5723 1.00032 14.4642 1.00032 14.3309L1.00033 0.813656C1.00033 0.680355 1.1653 0.572265 1.36876 0.572265L5.66699 0.572266Z" fill="#41479B"/>
<path d="M9.00047 9.35798L9.1377 9.24609L8.51235 8.47913L8.37513 8.59102L9.00047 9.35798Z" fill="#F4B60D"/>
<path d="M8.58099 8.98533L8.85547 8.76172L8.58039 8.42405L8.30591 8.64766L8.58099 8.98533Z" fill="#FFBE5A"/>
<path d="M7.74757 8.5904L7.61035 8.47852L6.98501 9.24548L7.12223 9.35736L7.74757 8.5904Z" fill="#F4B60D"/>
<path d="M7.81647 8.64743L7.54199 8.42383L7.26691 8.7615L7.54139 8.9851L7.81647 8.64743Z" fill="#FFBE5A"/>
<path d="M7.84005 8.76758L7.39746 9.6528L8.01709 10.0954V8.85611L7.84005 8.76758Z" fill="#F8CB32"/>
<path d="M8.19366 8.76758L8.63626 9.6528L8.0166 10.0954V8.85611L8.19366 8.76758Z" fill="#F4B60D"/>
<path d="M6.77734 8.76641V6.46484H7.04291C7.04291 6.46484 7.04291 7.96972 7.04291 8.23525C7.04291 8.50084 6.77734 8.76641 6.77734 8.76641Z" fill="#FFBE5A"/>
<path d="M6.60059 9.20903V6.46484H6.86615C6.86615 6.46484 6.86615 8.41231 6.86615 8.67788C6.86612 8.94344 6.60059 9.20903 6.60059 9.20903Z" fill="#F4B60D"/>
<path d="M6.42383 9.56309V6.46484H6.68939C6.68939 6.46484 6.68939 8.76641 6.68939 9.03197C6.68939 9.2975 6.42383 9.56309 6.42383 9.56309Z" fill="#F8CB32"/>
<path d="M7.04297 6.55273C7.04297 6.55273 7.04297 7.81414 7.04297 8.23464C7.04297 8.67727 7.68475 8.61823 8.01669 8.9428C8.34866 8.6182 8.99041 8.67723 8.99041 8.23464C8.99041 7.81417 8.99041 6.55273 8.99041 6.55273H7.04297Z" fill="#FF334B"/>
<path d="M7.04297 7.52738C7.04297 7.80763 7.04297 8.0795 7.04297 8.23556C7.04297 8.67819 7.68475 8.61916 8.01669 8.94372C8.34866 8.61913 8.99041 8.67816 8.99041 8.23553C8.99041 8.0795 8.99041 7.80759 8.99041 7.52734L7.04297 7.52738Z" fill="#41479B"/>
<path d="M8.01681 8.67806L7.75125 8.50103V8.4125L7.83978 8.324V7.79284L7.57422 7.61581L7.83978 7.26172H7.92828L8.01681 7.35028L8.10534 7.26172H8.19388L8.45944 7.61581L8.19388 7.79284V8.324L8.28238 8.4125V8.50103L8.01681 8.67806Z" fill="#F8CB32"/>
<path d="M7.66266 6.64258C7.66266 6.64258 7.30859 6.73111 7.30859 7.0852C7.30859 7.4393 7.66266 7.61633 7.66266 7.61633L7.83969 7.35077C7.30856 7.1737 7.66266 6.64258 7.66266 6.64258Z" fill="#F8CB32"/>
<path d="M8.37137 6.64258C8.37137 6.64258 8.72543 6.73111 8.72543 7.0852C8.72543 7.4393 8.37137 7.61633 8.37137 7.61633L8.19434 7.35077C8.72543 7.1737 8.37137 6.64258 8.37137 6.64258Z" fill="#F8CB32"/>
<path d="M7.13184 7.52798L7.30887 7.61648L7.48593 7.52798L7.30887 7.43945L7.13184 7.52798Z" fill="#F8CB32"/>
<path d="M8.54785 7.52798L8.72488 7.61648L8.90194 7.52798L8.72488 7.43945L8.54785 7.52798Z" fill="#F8CB32"/>
<path d="M8.01718 6.6875L8.08155 6.75344L8.17365 6.75231L8.17259 6.84444L8.23849 6.90881L8.17259 6.97316L8.17365 7.06528L8.08155 7.06419L8.01718 7.13013L7.95284 7.06419L7.86068 7.06528L7.8618 6.97316L7.7959 6.90881L7.8618 6.84444L7.86068 6.75231L7.95284 6.75344L8.01718 6.6875Z" fill="#F8CB32"/>
<path d="M7.41592 7.91391L7.47973 7.98491L7.56848 7.94973C7.61445 7.93151 7.65757 7.98148 7.63282 8.02429L7.58504 8.10694L7.64595 8.18051C7.67748 8.21857 7.64326 8.27507 7.59492 8.26476L7.50154 8.24482L7.45042 8.32548C7.42395 8.36723 7.35967 8.35213 7.35451 8.30294L7.34457 8.20798L7.2521 8.18429C7.2042 8.17201 7.1987 8.10623 7.24385 8.08616L7.3311 8.04741L7.32507 7.95213C7.32204 7.90269 7.38289 7.87713 7.41592 7.91391Z" fill="#F8CB32"/>
<path d="M8.5951 8.11722C8.61464 8.01653 8.6977 7.94525 8.79454 7.9345C8.77467 7.92381 8.75354 7.91497 8.73026 7.91047C8.60626 7.88644 8.48626 7.96747 8.46223 8.09144C8.4382 8.21544 8.5192 8.33544 8.6432 8.35947C8.66651 8.364 8.68942 8.36372 8.71179 8.36122C8.62601 8.31506 8.5756 8.21791 8.5951 8.11722Z" fill="#F8CB32"/>
<path d="M7.66336 6.55441L7.84039 5.66919L7.48633 5.40362L7.57486 5.31509H7.75189C7.75189 5.31509 7.84042 5.22656 8.01745 5.22656C8.19448 5.22656 8.37152 5.31509 8.37152 5.58062C8.37152 5.84616 8.46005 6.55434 8.46005 6.55434H7.66336V6.55441V6.55441Z" fill="#F8CB32"/>
<path d="M7.04352 6.19922C6.84795 6.19922 6.68945 6.35775 6.68945 6.55328H7.39764C7.39761 6.35775 7.23905 6.19922 7.04352 6.19922Z" fill="#FFAA5A"/>
<path d="M6.95495 6.5545H6.42383V5.96528C6.42383 5.85069 6.51673 5.75781 6.6313 5.75781H6.74748C6.86208 5.75781 6.95495 5.85072 6.95495 5.96528V6.5545Z" fill="#FFBE5A"/>
<path d="M9.25677 8.76836V6.4668H8.99121C8.99121 6.4668 8.99121 7.97167 8.99121 8.2372C8.99121 8.5028 9.25677 8.76836 9.25677 8.76836Z" fill="#FFBE5A"/>
<path d="M9.43353 9.20903V6.46484H9.16797C9.16797 6.46484 9.16797 8.41231 9.16797 8.67788C9.16797 8.94344 9.43353 9.20903 9.43353 9.20903Z" fill="#F4B60D"/>
<path d="M9.61029 9.56309V6.46484H9.34473C9.34473 6.46484 9.34473 8.76641 9.34473 9.03197C9.3447 9.2975 9.61029 9.56309 9.61029 9.56309Z" fill="#F8CB32"/>
<path d="M8.99084 6.19922C9.18641 6.19922 9.34491 6.35775 9.34491 6.55328H8.63672C8.63675 6.35775 8.79528 6.19922 8.99084 6.19922Z" fill="#FFAA5A"/>
<path d="M9.0791 6.5545H9.61023V5.96528C9.61023 5.85069 9.51732 5.75781 9.40276 5.75781H9.2866C9.17201 5.75781 9.07913 5.85072 9.07913 5.96528L9.0791 6.5545Z" fill="#FFBE5A"/>
<path d="M10.1046 7.56125L9.99121 7.49219L8.75159 9.52788L8.86499 9.59694L10.1046 7.56125Z" fill="#FFAA5A"/>
<path d="M9.02304 9.47971L9.24414 9.20312L9.02785 9.03023L8.80675 9.30681L9.02304 9.47971Z" fill="#F8CB32"/>
<path d="M10.1412 7.58576L9.95215 7.4707L9.68661 7.90699L9.87565 8.02205L10.1412 7.58576Z" fill="#F4B60D"/>
<path d="M7.34327 9.52661L6.09375 7.59375L6.0194 7.64181L7.26892 9.57467L7.34327 9.52661Z" fill="#73AF00"/>
<path d="M6.87966 8.50977C6.84791 8.54577 6.82685 8.60036 6.82154 8.6633C6.77788 8.61923 6.72776 8.59117 6.68107 8.58364C6.66876 8.6293 6.67376 8.68655 6.69604 8.74442C6.63645 8.72342 6.57807 8.7202 6.53223 8.73439C6.54513 8.79964 6.59829 8.87045 6.67976 8.91905C6.7612 8.96767 6.84879 8.9808 6.91232 8.96117L6.93051 8.94942C6.97448 8.89952 6.99845 8.8143 6.98757 8.72008C6.9766 8.62586 6.93382 8.54833 6.87966 8.50977Z" fill="#73AF00"/>
<path d="M6.92154 9.04425C6.97043 9.04425 7.01007 9.00461 7.01007 8.95572C7.01007 8.90682 6.97043 8.86719 6.92154 8.86719C6.87264 8.86719 6.83301 8.90682 6.83301 8.95572C6.83301 9.00461 6.87264 9.04425 6.92154 9.04425Z" fill="#FF334B"/>
<path d="M6.54373 7.99023C6.51198 8.02623 6.49091 8.08083 6.4856 8.14377C6.44195 8.0997 6.39182 8.07164 6.34513 8.06411C6.33282 8.10977 6.33782 8.16702 6.3601 8.22489C6.30051 8.20389 6.24213 8.20067 6.19629 8.21486C6.2092 8.28011 6.26235 8.35092 6.34382 8.39952C6.42526 8.44814 6.51285 8.46127 6.57638 8.44164L6.59457 8.42989C6.63854 8.37998 6.66251 8.29477 6.65163 8.20055C6.6407 8.1063 6.59791 8.02877 6.54373 7.99023Z" fill="#73AF00"/>
<path d="M6.5856 8.52472C6.6345 8.52472 6.67413 8.48508 6.67413 8.43619C6.67413 8.38729 6.6345 8.34766 6.5856 8.34766C6.53671 8.34766 6.49707 8.38729 6.49707 8.43619C6.49707 8.48508 6.53671 8.52472 6.5856 8.52472Z" fill="#FF334B"/>
<path d="M6.20681 7.46875C6.17506 7.50475 6.154 7.55934 6.14869 7.62228C6.10503 7.57822 6.05491 7.55016 6.00822 7.54262C5.99591 7.58828 6.00091 7.64553 6.02319 7.70341C5.96359 7.68241 5.90522 7.67919 5.85938 7.69337C5.87228 7.75862 5.92544 7.82944 6.00691 7.87803C6.08834 7.92666 6.17594 7.93978 6.23947 7.92016L6.25766 7.90841C6.30163 7.8585 6.32559 7.77328 6.31472 7.67906C6.30372 7.58481 6.26097 7.50728 6.20681 7.46875Z" fill="#73AF00"/>
<path d="M6.24869 8.00323C6.29758 8.00323 6.33722 7.9636 6.33722 7.9147C6.33722 7.86581 6.29758 7.82617 6.24869 7.82617C6.19979 7.82617 6.16016 7.86581 6.16016 7.9147C6.16016 7.9636 6.19979 8.00323 6.24869 8.00323Z" fill="#FF334B"/>
<path d="M7.31485 9.30783L7.09375 9.03125L6.87746 9.20415L7.09856 9.48073L7.31485 9.30783Z" fill="#F8CB32"/>
<path d="M7.57411 5.04883H7.48535V5.66848H7.57411V5.04883Z" fill="#F8CB32"/>
<path d="M7.66205 5.13672H7.39648V5.22525H7.66205V5.13672Z" fill="#F8CB32"/>
<path d="M7.48633 5.40295L7.75189 5.60214V5.31445H7.57486L7.48633 5.40295Z" fill="#FF875A"/>
<path d="M7.57432 5.0488V5.13733H7.66285V5.22586H7.57432V5.31439H7.75135C7.75135 5.31439 7.83988 5.22586 8.01692 5.22586C8.19395 5.22586 8.37098 5.31439 8.37098 5.57992C8.37098 5.84548 8.45951 6.55364 8.45951 6.55364H8.63654C8.63654 6.35808 8.79507 6.19958 8.9906 6.19958C9.02135 6.19958 9.05066 6.2047 9.07913 6.21211V6.02255C9.07913 5.87589 9.19804 5.75698 9.3447 5.75698C9.49135 5.75698 9.61026 5.87589 9.61026 6.02255V6.46517V6.5537V8.11702L9.72457 7.92923L9.68679 7.90623L9.95235 7.46992L9.99013 7.49292L10.0469 7.52748L10.1414 7.58502L9.87582 8.02133L9.83801 7.99833L9.61026 8.37252V9.56355C9.61026 9.56355 9.39888 9.35158 9.35363 9.11708C9.32129 9.07552 9.28404 9.02251 9.25126 8.96233L9.14995 9.12877L9.24413 9.20405L9.02304 9.48064L8.96432 9.4337L8.86426 9.59811L8.75085 9.52905L8.85976 9.35011L8.80688 9.30783L8.88217 9.21361L8.64988 8.92873L8.58123 8.98467L8.3747 8.73123C8.31973 8.75333 8.26538 8.77761 8.2131 8.80536L8.63645 9.65208L8.01679 10.0947L7.39713 9.65208L7.82048 8.80536C7.78923 8.78877 7.75748 8.77305 7.72501 8.75873L7.54092 8.98467L7.47226 8.92873L7.23998 9.21361L7.31526 9.30783L7.24007 9.36792L7.34282 9.52686L7.26848 9.57492L7.17057 9.42348L7.0991 9.48061L6.87801 9.20402L6.97735 9.12461L6.9247 9.04314C6.92345 9.04317 6.92223 9.0432 6.92098 9.0432C6.89204 9.0432 6.8637 9.0303 6.84685 9.0042C6.83967 8.99311 6.83579 8.98098 6.83407 8.96873C6.81742 8.96773 6.80054 8.96536 6.78298 8.96117C6.75007 9.02183 6.71257 9.07523 6.68004 9.11708C6.63482 9.35161 6.42342 9.56355 6.42342 9.56355V8.43433C6.39667 8.42592 6.3697 8.41523 6.34317 8.39939C6.26173 8.35077 6.20854 8.27995 6.19563 8.21473C6.21426 8.20898 6.23492 8.20611 6.25692 8.20611C6.2891 8.20611 6.3241 8.21233 6.35948 8.22477C6.34795 8.19477 6.34123 8.16508 6.33901 8.13695L6.25195 8.00227C6.2507 8.0023 6.24948 8.00233 6.24823 8.00233C6.21929 8.00233 6.19095 7.98942 6.1741 7.96333C6.16692 7.95223 6.16304 7.94011 6.16129 7.92786C6.11229 7.92492 6.0586 7.90992 6.00682 7.87905C5.92538 7.83042 5.8722 7.75961 5.85929 7.69439C5.87792 7.68864 5.8986 7.68577 5.92057 7.68577C5.95276 7.68577 5.98776 7.69195 6.02313 7.70442C6.00085 7.64652 5.99585 7.5893 6.00817 7.54364C6.05485 7.55117 6.10498 7.57923 6.14863 7.6233C6.15395 7.56036 6.17501 7.50577 6.20673 7.46977C6.26092 7.50833 6.30367 7.58586 6.31454 7.68011C6.32148 7.74005 6.3131 7.79514 6.29563 7.84105C6.3061 7.8477 6.31557 7.85617 6.32273 7.8673C6.34032 7.89452 6.3397 7.92723 6.32626 7.95427L6.41332 8.08895C6.4167 8.09083 6.42001 8.09308 6.42338 8.09517V6.5538V6.46527V6.02264C6.42338 5.87598 6.54229 5.75708 6.68895 5.75708C6.8356 5.75708 6.95451 5.87598 6.95451 6.02264V6.2122C6.98295 6.20483 7.01226 6.19967 7.04304 6.19967C7.2386 6.19967 7.3971 6.3582 7.3971 6.55373H7.66267L7.8397 5.66852L7.75117 5.60214L7.57413 5.46936V5.66855H7.4856V5.22592H7.39707V5.13739H7.4856V5.04886H7.57448L7.57432 5.0488ZM8.99532 9.07202L9.02801 9.03111L9.04542 9.04502L9.1881 8.81061C9.17566 8.76727 9.1677 8.7228 9.1677 8.6782C9.1677 8.67386 9.1677 8.66789 9.1677 8.66264C9.09045 8.56102 8.99066 8.39842 8.99066 8.23558C8.99066 8.42202 8.87623 8.51914 8.7196 8.59377L8.85585 8.76098L8.78726 8.81686L8.99532 9.07202ZM7.04704 9.06889L7.09435 9.03108L7.12704 9.07198L7.3351 8.81677L7.26651 8.76089L7.37917 8.62264C7.19007 8.54367 7.04317 8.44692 7.04317 8.23555C7.04317 8.35408 6.99026 8.47236 6.9317 8.5673C6.95951 8.60811 6.98048 8.6603 6.98748 8.72073C6.99442 8.78067 6.98604 8.83577 6.96857 8.88167C6.97904 8.88833 6.98851 8.8968 6.99567 8.90792C7.01326 8.93514 7.01263 8.96783 6.9992 8.99489L7.04704 9.06889ZM7.57432 4.98242H7.48579C7.44913 4.98242 7.41942 5.01214 7.41942 5.0488V5.07092H7.39729C7.36063 5.07092 7.33092 5.10064 7.33092 5.1373V5.22583C7.33092 5.26248 7.36063 5.2922 7.39729 5.2922H7.41942V5.66842C7.41942 5.70508 7.44913 5.7348 7.48579 5.7348H7.57432C7.61098 5.7348 7.6407 5.70508 7.6407 5.66842V5.60205L7.71151 5.65514L7.76654 5.69642L7.60835 6.48723H7.45838C7.42645 6.28683 7.25242 6.13317 7.04313 6.13317C7.03579 6.13317 7.02845 6.13342 7.02101 6.13386V6.02252C7.02101 5.83948 6.87207 5.69055 6.68904 5.69055C6.50601 5.69055 6.35707 5.83948 6.35707 6.02252V6.46514V6.55367V7.57173C6.3331 7.50564 6.29413 7.45033 6.24529 7.41555C6.23367 7.40727 6.2202 7.40323 6.20685 7.40323C6.18838 7.40323 6.17007 7.41092 6.15704 7.4257C6.1366 7.44892 6.11979 7.47717 6.10726 7.50905C6.0782 7.4933 6.04829 7.48267 6.01879 7.47792C6.01523 7.47733 6.0117 7.47705 6.0082 7.47705C5.97867 7.47705 5.9521 7.4968 5.94417 7.52614C5.93638 7.55495 5.93379 7.58658 5.93623 7.61955C5.93101 7.6193 5.92582 7.61917 5.92067 7.61917C5.89192 7.61917 5.8647 7.62308 5.83979 7.63077C5.80732 7.6408 5.78767 7.67373 5.79423 7.70708C5.81142 7.79383 5.87817 7.87939 5.97285 7.93586C6.01654 7.96192 6.06398 7.9798 6.11213 7.98852C6.11407 7.99217 6.11617 7.99573 6.11842 7.9992C6.1402 8.03292 6.17438 8.05611 6.21348 8.06477L6.26185 8.13961C6.26023 8.13958 6.25863 8.13958 6.25704 8.13958C6.22829 8.13958 6.20107 8.14348 6.17617 8.15117C6.1437 8.1612 6.12404 8.19414 6.1306 8.22748C6.14779 8.31423 6.21454 8.3998 6.30923 8.45627C6.32435 8.4653 6.3401 8.4733 6.3571 8.48052V9.56327C6.3571 9.59014 6.37332 9.61436 6.39813 9.62461C6.40635 9.62798 6.41495 9.62964 6.42348 9.62964C6.44079 9.62964 6.45779 9.62289 6.47051 9.61011C6.47954 9.60108 6.68776 9.39005 6.74204 9.14514C6.76435 9.1158 6.78498 9.0862 6.80373 9.05658C6.8251 9.08127 6.85401 9.0983 6.88632 9.10548L6.8892 9.10989L6.83676 9.15183C6.82301 9.16283 6.81417 9.17883 6.81223 9.19636C6.81026 9.21383 6.81535 9.23142 6.82635 9.24517L7.04745 9.52177C7.05845 9.53552 7.07445 9.54436 7.09198 9.5463C7.09442 9.54658 7.09688 9.5467 7.09932 9.5467C7.11432 9.5467 7.12895 9.54164 7.14076 9.53217L7.15488 9.52089L7.21292 9.61067C7.22248 9.62545 7.23751 9.63586 7.25473 9.63955C7.25935 9.64055 7.26401 9.64102 7.26867 9.64102C7.28135 9.64102 7.29392 9.63739 7.3047 9.63036L7.34763 9.60261L7.33792 9.62208C7.32329 9.6513 7.33213 9.6868 7.3587 9.7058L7.97835 10.1484C7.98992 10.1567 8.00342 10.1608 8.01695 10.1608C8.03048 10.1608 8.04398 10.1567 8.05554 10.1484L8.6752 9.7058C8.70179 9.6868 8.7106 9.65133 8.69598 9.62208L8.30232 8.83473C8.31901 8.82686 8.33642 8.81905 8.35463 8.8112L8.52992 9.0263C8.54304 9.04239 8.56216 9.05073 8.58145 9.05073C8.5962 9.05073 8.61104 9.04583 8.62335 9.0358L8.64057 9.0218L8.79701 9.21367L8.7552 9.26598C8.7442 9.27973 8.73913 9.2973 8.74107 9.3148C8.74304 9.33233 8.75185 9.34833 8.7656 9.35933L8.77285 9.36511L8.69429 9.49414C8.67523 9.52545 8.68517 9.56627 8.71648 9.58536L8.82988 9.65442C8.84035 9.6608 8.85232 9.66411 8.86445 9.66411C8.8697 9.66411 8.87498 9.66348 8.88013 9.6622C8.89723 9.65802 8.91201 9.64727 8.92116 9.6322L8.98201 9.53223C8.99423 9.54189 9.00873 9.54658 9.0232 9.54658C9.04267 9.54658 9.06198 9.53802 9.0751 9.52164L9.2962 9.24505C9.30432 9.23486 9.30898 9.22301 9.31032 9.21098C9.38245 9.4267 9.55526 9.6018 9.56345 9.61002C9.57613 9.62273 9.59317 9.62955 9.61048 9.62955C9.61904 9.62955 9.6276 9.62789 9.63582 9.62451C9.66063 9.61423 9.67685 9.59005 9.67685 9.56317V8.39077L9.86238 8.08602C9.86691 8.08695 9.87145 8.08742 9.87598 8.08742C9.89838 8.08742 9.92026 8.07608 9.93276 8.05552L10.1983 7.6192C10.2075 7.60417 10.2103 7.58611 10.2061 7.56898C10.2019 7.55189 10.1911 7.53711 10.1761 7.52795L10.0816 7.47042L10.0249 7.43589L9.98701 7.41286C9.97626 7.4063 9.96432 7.4032 9.9526 7.4032C9.9302 7.4032 9.90832 7.41455 9.89585 7.43511L9.67688 7.79486V6.55345V6.46492V6.02245C9.67688 5.83942 9.52795 5.69048 9.34491 5.69048C9.16188 5.69048 9.01295 5.83942 9.01295 6.02245V6.1338C9.00554 6.13336 8.99817 6.13311 8.99082 6.13311C8.78154 6.13311 8.60751 6.28677 8.57557 6.48717H8.51848C8.49754 6.31289 8.43754 5.79427 8.43754 5.57983C8.43754 5.26983 8.22032 5.15936 8.01707 5.15936C7.86654 5.15936 7.76942 5.21673 7.72776 5.24789H7.72557C7.72801 5.24095 7.72935 5.23352 7.72935 5.22577V5.13723C7.72935 5.10058 7.69963 5.07086 7.66298 5.07086H7.64085V5.04873C7.6407 5.01214 7.61098 4.98242 7.57432 4.98242ZM7.00895 8.5672C7.02595 8.5373 7.04076 8.5078 7.05351 8.47873C7.10885 8.55302 7.18848 8.60583 7.27323 8.64764L7.2151 8.71898C7.20398 8.73264 7.19873 8.75014 7.20051 8.76767C7.20229 8.7852 7.21095 8.8013 7.2246 8.81239L7.24167 8.82633L7.12338 8.97139C7.11663 8.96808 7.10929 8.96595 7.10167 8.96508C7.09923 8.9648 7.09673 8.96467 7.09432 8.96467C7.0877 8.96467 7.0812 8.96567 7.07492 8.96758C7.07795 8.9342 7.07004 8.9007 7.05145 8.87189C7.0492 8.86842 7.04679 8.86502 7.04426 8.86177C7.05607 8.8143 7.05926 8.7637 7.05345 8.71314C7.04745 8.66123 7.03223 8.61155 7.00895 8.5672ZM8.82235 8.6148C8.88082 8.5807 8.9376 8.53752 8.98066 8.47948C9.01457 8.55689 9.05913 8.6273 9.10132 8.68477C9.10185 8.72173 9.10692 8.7598 9.11667 8.8002L9.01588 8.9658C9.01007 8.96686 9.00432 8.96873 8.99892 8.97139L8.88063 8.82633L8.8977 8.81239C8.91135 8.80127 8.92001 8.78517 8.92179 8.76767C8.92357 8.75017 8.91835 8.73264 8.9072 8.71898L8.82235 8.6148ZM7.54101 9.05092C7.56029 9.05092 7.57938 9.04258 7.59254 9.02648L7.70451 8.88911L7.40148 9.49517C7.40067 9.49364 7.39976 9.49214 7.39879 9.49064L7.32867 9.38211L7.35695 9.35948C7.3707 9.34848 7.37954 9.33248 7.38148 9.31495C7.38345 9.29748 7.37835 9.27989 7.36735 9.26617L7.32554 9.21386L7.48198 9.02195L7.4992 9.03595C7.51142 9.04608 7.52626 9.05092 7.54101 9.05092ZM9.23707 9.1132L9.25151 9.08945C9.2642 9.10814 9.27763 9.12677 9.29176 9.14533C9.29301 9.15092 9.29432 9.15645 9.29573 9.16202C9.29279 9.15839 9.28941 9.15505 9.28563 9.15202L9.23707 9.1132Z" fill="#FFAA5A"/>
</g>
<defs>
<clipPath id="clip0_5367_190513">
<rect x="15" y="0.572266" width="14" height="14" rx="2" transform="rotate(90 15 0.572266)" fill="white"/>
</clipPath>
</defs>
</svg>
