<svg width="16" height="16" viewBox="0 0 16 16" fill="none" xmlns="http://www.w3.org/2000/svg">
<rect x="15" y="1" width="14" height="14" rx="2" transform="rotate(90 15 1)" fill="#E6B432"/>
<path d="M2 3C2 2.44772 2.44772 2 3 2H13C13.5523 2 14 2.44772 14 3V13C14 13.5523 13.5523 14 13 14H3C2.44772 14 2 13.5523 2 13V3Z" fill="#C8414B"/>
<path d="M10.2635 10.1931C10.4954 10.1931 10.6833 10.0051 10.6833 9.7733C10.6833 9.54146 10.4954 9.35352 10.2635 9.35352C10.0317 9.35352 9.84375 9.54146 9.84375 9.7733C9.84375 10.0051 10.0317 10.1931 10.2635 10.1931Z" fill="#41479B"/>
<path d="M11.0004 7.36304C10.6915 7.62276 10.4837 7.6337 10.4837 7.6337C11.0333 7.40951 10.9758 6.98301 10.9758 6.98301C10.7161 7.32476 10.4509 7.42045 10.4509 7.42045C11.0032 7.04589 10.9157 6.54283 10.9157 6.54283C10.7352 6.94201 10.507 7.09783 10.507 7.09783C10.9663 6.48676 10.7407 6.09308 10.7407 6.09308C10.5603 6.65901 10.4085 6.82308 10.4085 6.82308C10.7612 5.87983 10.4591 5.6078 10.4591 5.6078C10.4591 6.11358 10.2705 6.40339 10.2705 6.40339C10.4673 5.7363 10.1584 5.35352 10.1584 5.35352C10.1584 5.35352 10.1555 5.89739 10.0507 6.18226C10.0256 6.14408 10.0107 6.14914 10.0107 6.14914C9.95745 6.49848 9.7697 6.74442 9.68864 6.83695C9.67064 6.74989 9.61652 6.72323 9.61652 6.72323C9.61652 6.72323 9.60677 6.8087 9.53008 6.93476C9.47983 7.01736 9.24245 7.20995 9.20417 7.37945C9.17349 7.51536 9.30808 7.62823 9.3518 7.65557C9.39555 7.68292 9.44202 7.73214 9.42286 7.81139C9.40374 7.89067 9.26155 7.88245 9.16039 7.87973C9.05924 7.87701 9.04558 8.04376 8.93345 8.03832L8.91446 8.1627L8.87055 8.17229C8.87055 8.17229 8.41124 9.08757 8.37214 9.39901L8.03393 9.4436L7.69571 9.39901C7.65661 9.08757 7.1973 8.17229 7.1973 8.17229L7.1534 8.1627L7.1344 8.03832C7.0223 8.04379 7.00865 7.87701 6.90746 7.87973C6.80627 7.88245 6.66411 7.89067 6.64499 7.81139C6.62586 7.73211 6.67233 7.68286 6.71605 7.65557C6.7598 7.62823 6.8944 7.51532 6.86368 7.37945C6.8254 7.20992 6.58802 7.01736 6.53777 6.93476C6.46108 6.80873 6.45133 6.72323 6.45133 6.72323C6.45133 6.72323 6.39721 6.74989 6.37921 6.83695C6.29818 6.74436 6.11043 6.49848 6.05718 6.14914C6.05718 6.14914 6.0423 6.14411 6.01718 6.18226C5.91243 5.89736 5.90952 5.35352 5.90952 5.35352C5.90952 5.35352 5.60059 5.73627 5.79743 6.40339C5.79743 6.40339 5.60877 6.11361 5.60877 5.6078C5.60877 5.6078 5.30668 5.87983 5.65937 6.82308C5.65937 6.82308 5.50765 6.65904 5.32718 6.09308C5.32718 6.09308 5.10162 6.48676 5.56093 7.09783C5.56093 7.09783 5.33265 6.94201 5.15221 6.54283C5.15221 6.54283 5.06474 7.04589 5.61699 7.42045C5.61699 7.42045 5.35177 7.32476 5.09205 6.98301C5.09205 6.98301 5.03465 7.40954 5.58418 7.6337C5.58418 7.6337 5.3764 7.62276 5.06746 7.36304C5.06746 7.36304 5.01277 7.74035 5.72909 7.93445C5.72909 7.93445 5.43652 7.92898 5.13852 7.72939C5.13852 7.72939 5.1303 8.1012 5.74274 8.17504C5.74274 8.17504 5.54043 8.2051 5.31349 8.1231C5.31349 8.1231 5.32171 8.42382 5.85483 8.4621C5.85483 8.4621 5.6443 8.47851 5.50762 8.4457C5.50762 8.4457 5.52127 8.75463 5.94233 8.7027C5.94233 8.7027 5.80015 8.74917 5.75368 8.76282C5.75368 8.76282 5.7619 9.01504 6.20068 8.92482C6.20068 8.92482 6.12274 8.97335 6.01612 8.98976C6.01612 8.98976 6.10633 9.20029 6.47271 9.10732L6.39752 9.18935C6.39752 9.18935 6.68049 9.35338 6.89783 9.12782L6.8199 9.26726C6.8199 9.26726 7.00446 9.33698 7.11927 9.15654C7.11927 9.15654 7.08783 9.4272 6.70505 9.47645C6.70505 9.47645 6.71871 9.53385 6.73511 9.55573C6.73511 9.55573 6.71049 9.6022 6.48905 9.64048C6.48905 9.64048 6.53552 9.71154 6.58474 9.73345C6.58474 9.73345 6.48905 9.81548 6.43712 9.83185C6.43712 9.83185 6.51915 9.87285 6.57108 9.88107C6.57108 9.88107 6.45627 9.99316 6.31408 9.99588C6.1719 9.9986 5.91768 9.98219 5.91768 9.98219C5.91768 9.98219 5.91496 9.84551 5.84933 9.72791C5.78371 9.61035 5.76187 9.60148 5.76187 9.60148C5.76187 9.60148 5.77621 9.50716 5.73521 9.4682C5.69421 9.42923 5.67165 9.41079 5.67165 9.41079C5.67165 9.41079 5.69352 9.22213 5.63337 9.10457C5.57324 8.98701 5.35996 8.73001 5.34902 8.53863C5.33809 8.34726 5.3463 8.27617 5.3463 8.27617L5.28068 8.29257L5.23693 8.20235L5.31074 8.19414L5.28068 8.05745L5.17949 8.09573L5.1658 7.97817L5.04552 8.02739L5.10565 8.13401L4.99902 8.16407L5.06193 8.28982L5.14396 8.23789L5.16584 8.34723C5.16584 8.34723 5.11662 8.35817 5.08927 8.40192C5.08927 8.40192 5.22455 8.4917 5.26424 8.59879C5.32715 8.76832 5.30799 9.15107 5.39821 9.26588C5.48843 9.3807 5.55952 9.45998 5.55952 9.45998C5.55952 9.45998 5.53424 9.53791 5.56293 9.58095C5.59165 9.62401 5.63265 9.63632 5.63265 9.63632C5.63265 9.63632 5.60802 9.81063 5.67162 9.92545C5.73518 10.0403 5.77208 10.069 5.77208 10.069C5.77208 10.069 5.54037 10.2105 5.70443 10.3745C5.70443 10.3745 5.68255 10.5235 5.8384 10.5591C5.8384 10.5591 5.84662 10.6767 5.98058 10.663C5.98058 10.663 6.04621 10.6439 6.06262 10.6767C6.07902 10.7095 6.06262 10.8981 6.06262 10.8981C6.06262 10.8981 6.12274 10.8927 6.16102 10.8653L6.2813 10.9255L6.28402 10.7915L6.4344 10.7314C6.4344 10.7314 6.36877 10.7423 6.2348 10.6166C6.2348 10.6166 6.25668 10.6029 6.27308 10.4963C6.27308 10.4963 6.37971 10.4115 6.40162 10.3432C6.42349 10.2748 6.57386 10.1244 6.74883 10.0752L6.77277 10.1819C6.77277 10.1819 7.02296 9.96041 7.12749 9.9481L7.21361 10.0615C7.21361 10.0615 7.53624 9.5831 7.67839 9.49832C7.66746 9.5366 7.74674 9.54207 7.57039 9.73891C7.39405 9.93579 7.50339 10.0916 7.50339 10.0916C7.39405 10.1818 7.41593 10.2639 7.40221 10.3568C7.38855 10.4498 7.0249 10.6904 7.0249 10.6904C7.13971 10.8353 7.26824 10.8025 7.26824 10.8025C7.19715 10.8489 7.21902 11.0048 7.21902 11.0048C7.32293 11.0321 7.4268 10.9857 7.4268 10.9857C7.39124 11.0841 7.44593 11.1524 7.44593 11.1524C7.51155 11.1114 7.66193 11.0868 7.66193 11.0868C7.6428 11.2563 7.75214 11.3465 7.75214 11.3465L7.84783 11.2426C7.86424 11.434 8.03377 11.5433 8.03377 11.5433C8.03377 11.5433 8.2033 11.434 8.21971 11.2426L8.31539 11.3465C8.31539 11.3465 8.42477 11.2563 8.40561 11.0868C8.40561 11.0868 8.55599 11.1114 8.62161 11.1524C8.62161 11.1524 8.6763 11.0841 8.64074 10.9857C8.64074 10.9857 8.74464 11.0321 8.84852 11.0048C8.84852 11.0048 8.87039 10.8489 8.7993 10.8025C8.7993 10.8025 8.92783 10.8353 9.04264 10.6904C9.04264 10.6904 8.67902 10.4498 8.66533 10.3568C8.65167 10.2639 8.67355 10.1819 8.56414 10.0916C8.56414 10.0916 8.67349 9.93576 8.49714 9.73891C8.3208 9.54204 8.40008 9.53657 8.38914 9.49832C8.53133 9.58307 8.85392 10.0615 8.85392 10.0615L8.94005 9.9481C9.04464 9.96041 9.29477 10.1819 9.29477 10.1819L9.3187 10.0752L9.32324 10.0703C9.45367 10.1405 9.66911 10.2355 9.75617 10.3021C9.84914 10.3732 9.9257 10.3787 10.1499 10.3021C10.3741 10.2255 10.7912 10.1078 10.7295 9.96854C10.7261 9.96095 10.7223 9.95585 10.7186 9.94991C10.7284 9.91394 10.7324 9.85116 10.6666 9.79629C10.6666 9.79629 10.6674 9.81157 10.6668 9.83119L10.4531 9.75154C10.446 9.73263 10.4355 9.7141 10.4151 9.69788C10.4151 9.69788 10.4154 9.71429 10.4125 9.73641L10.3576 9.71598L10.467 9.4082C10.4588 9.40357 10.4495 9.40098 10.4409 9.39691C10.4431 9.36904 10.4483 9.33051 10.4565 9.29023C10.4832 9.29957 10.5076 9.3111 10.5253 9.32557L10.5562 9.21288C10.5562 9.21288 10.523 9.2107 10.4792 9.20251C10.4902 9.16851 10.5034 9.13798 10.519 9.11826L10.374 9.07451C10.374 9.07451 10.3778 9.11841 10.3752 9.1732C10.3476 9.16198 10.3212 9.14773 10.2999 9.12948L10.2659 9.25454C10.2776 9.25523 10.3171 9.25863 10.363 9.26682C10.3547 9.30354 10.3401 9.3361 10.3192 9.36054C10.314 9.35985 10.3093 9.35798 10.304 9.35748L10.1978 9.65638L9.90964 9.54901C9.8973 9.56845 9.88777 9.58963 9.87886 9.61107C9.88039 9.60794 9.88177 9.60307 9.88339 9.6011C9.88339 9.6011 9.77192 9.65941 9.77345 9.74507C9.75292 9.75285 9.73492 9.76826 9.72477 9.79498C9.69199 9.8811 9.89289 10.0739 9.8437 10.0984C9.79539 10.1226 9.54299 9.9147 9.50252 9.87979C9.55455 9.8697 9.63045 9.83188 9.63045 9.83188C9.57849 9.81548 9.48283 9.73348 9.48283 9.73348C9.53205 9.7116 9.57852 9.64051 9.57852 9.64051C9.35708 9.60223 9.33245 9.55576 9.33245 9.55576C9.34886 9.53388 9.36252 9.47648 9.36252 9.47648C8.97977 9.42726 8.9483 9.15657 8.9483 9.15657C9.06311 9.33701 9.24767 9.26729 9.24767 9.26729L9.16974 9.12785C9.38708 9.35341 9.67005 9.18938 9.67005 9.18938L9.59486 9.10735C9.9612 9.20032 10.0515 8.98979 10.0515 8.98979C9.94483 8.97338 9.86689 8.92485 9.86689 8.92485C10.3057 9.01507 10.3139 8.76285 10.3139 8.76285C10.2674 8.74917 10.1252 8.70273 10.1252 8.70273C10.5463 8.7547 10.56 8.44573 10.56 8.44573C10.4233 8.47851 10.2127 8.46213 10.2127 8.46213C10.7459 8.42385 10.7541 8.12314 10.7541 8.12314C10.5271 8.20517 10.3248 8.17507 10.3248 8.17507C10.9372 8.10126 10.929 7.72942 10.929 7.72942C10.631 7.92901 10.3385 7.93448 10.3385 7.93448C11.0551 7.74032 11.0004 7.36304 11.0004 7.36304ZM10.3791 10.0677C10.3499 10.0202 10.4195 9.97779 10.4509 9.93263L10.572 9.97776C10.5309 10.0269 10.4092 10.1166 10.3791 10.0677ZM10.2981 9.87573C10.2588 9.93663 10.2315 10.0049 10.1105 10.0082C9.95877 10.0123 9.93414 9.87695 9.90136 9.80313C9.8918 9.7816 9.8753 9.76535 9.85636 9.7542C9.8563 9.74095 9.85698 9.72641 9.85814 9.71173L10.2981 9.87573Z" fill="#E6B432"/>
<path d="M7.98882 6.98678C7.98882 6.98678 7.79404 6.82069 7.7366 6.73047C7.7366 6.73047 7.80222 6.70381 7.835 6.66281C7.835 6.66281 7.65866 6.5685 7.56435 6.47212C7.56435 6.47212 7.62588 6.46187 7.67304 6.42291C7.67304 6.42291 7.51466 6.39428 7.43435 6.26459C7.61744 6.20206 7.55616 6.03125 7.55616 6.03125C7.51925 6.08047 7.36751 6.14197 7.20347 6.07225C7.03944 6.00253 6.85901 6.05172 6.85901 6.14197C6.85901 6.14197 6.48991 6.03534 6.58219 6.39216C6.58219 6.39216 6.64163 6.25887 6.77288 6.30809C6.90413 6.35731 7.03741 6.52544 7.03741 6.52544C7.03741 6.52544 6.95538 6.57053 6.80366 6.52134C6.80366 6.52134 6.86519 6.75712 7.14201 6.63822C7.14201 6.63822 7.25135 6.697 7.25682 6.86925C7.25682 6.86925 7.30329 6.84462 7.33338 6.78997C7.33338 6.78997 7.37713 6.95672 7.31972 7.09344C7.31972 7.09344 7.39629 7.07978 7.42091 7.05515C7.42091 7.05515 7.44279 7.20006 7.3471 7.31762C7.3471 7.31762 7.76744 7.5179 8.03404 7.2985C8.03404 7.2985 7.93357 7.18369 7.90075 7.07706C7.90063 7.077 7.95597 7.05444 7.98882 6.98678Z" fill="#E6B432"/>
<path d="M9.20908 6.14197C9.20908 6.05175 9.02865 6.00253 8.86462 6.07225C8.70058 6.14197 8.54884 6.08047 8.51193 6.03125C8.51193 6.03125 8.45062 6.20206 8.63374 6.26459C8.55343 6.39428 8.39505 6.42291 8.39505 6.42291C8.44224 6.46187 8.50374 6.47212 8.50374 6.47212C8.40943 6.5685 8.23309 6.66281 8.23309 6.66281C8.26587 6.70381 8.33149 6.73047 8.33149 6.73047C8.27409 6.82069 8.07927 6.98678 8.07927 6.98678C8.11206 7.05444 8.16746 7.077 8.16746 7.077C8.13468 7.18362 8.03418 7.29844 8.03418 7.29844C8.30074 7.51784 8.72112 7.31756 8.72112 7.31756C8.62543 7.2 8.6473 7.05509 8.6473 7.05509C8.67193 7.07972 8.74849 7.09337 8.74849 7.09337C8.69108 6.95669 8.73483 6.78991 8.73483 6.78991C8.7649 6.84459 8.8114 6.86919 8.8114 6.86919C8.81687 6.69694 8.92621 6.63816 8.92621 6.63816C9.20302 6.75709 9.26455 6.52128 9.26455 6.52128C9.11283 6.5705 9.0308 6.52537 9.0308 6.52537C9.0308 6.52537 9.16408 6.35725 9.29533 6.30803C9.42658 6.25881 9.48602 6.39209 9.48602 6.39209C9.57815 6.03534 9.20908 6.14197 9.20908 6.14197Z" fill="#E6B432"/>
<path d="M9.04208 8.32122C9.00608 8.11165 8.97504 7.93066 9.06545 7.72328L9.08232 7.68456L8.72429 7.27344L8.68198 7.28753C8.67833 7.28878 8.30411 7.41113 8.0642 7.29113L8.03426 7.27616L8.00433 7.29113C7.76555 7.41078 7.39033 7.28878 7.38645 7.28747L7.34414 7.2735L6.98617 7.68456L7.00305 7.72328C7.09345 7.93066 7.06242 8.11165 7.02642 8.32122C6.99252 8.51909 6.95405 8.7434 7.02173 9.01693C7.0952 9.31387 7.34261 9.4194 7.5608 9.51265C7.72901 9.58443 7.88786 9.65225 7.97767 9.79459L8.03423 9.88428L8.09079 9.79459C8.18061 9.65225 8.33945 9.58446 8.50767 9.51265C8.72592 9.41943 8.97326 9.3139 9.04673 9.01693C9.11445 8.74337 9.07595 8.51906 9.04208 8.32122ZM7.14186 7.70947L7.38758 7.42737C7.49889 7.45797 7.79976 7.52416 8.03423 7.42462C8.26867 7.52419 8.56954 7.45794 8.68089 7.42737L8.92661 7.70947C8.84033 7.93672 8.87429 8.13481 8.91017 8.34384C8.93701 8.50047 8.96373 8.66181 8.94129 8.84762H7.12717C7.10477 8.66181 7.13148 8.50047 7.1583 8.34384C7.19417 8.13481 7.22814 7.93669 7.14186 7.70947ZM8.45517 9.38959C8.30311 9.45453 8.14664 9.52128 8.03423 9.648C7.92183 9.52128 7.76536 9.45453 7.6133 9.38959C7.39992 9.2985 7.21583 9.21887 7.15511 8.99528H8.91329C8.85264 9.21887 8.66854 9.29853 8.45517 9.38959Z" fill="#E6B432"/>
<path d="M7.14123 7.70867L7.38695 7.42658C7.49826 7.45717 7.79913 7.52336 8.0336 7.42383C8.26804 7.52339 8.56891 7.45714 8.68026 7.42658L8.92598 7.70867C8.83969 7.93592 8.87366 8.13401 8.90954 8.34305C8.93638 8.49967 8.9631 8.66101 8.94066 8.84683H7.12654C7.10413 8.66101 7.13085 8.49967 7.15767 8.34305C7.19354 8.13401 7.22751 7.93589 7.14123 7.70867Z" fill="#41479B"/>
<path d="M7.14551 8.95508C7.1476 8.96467 7.14895 8.97389 7.15138 8.98364C7.20885 9.21586 7.3962 9.29583 7.61313 9.38842C7.76519 9.45336 7.92166 9.52011 8.03407 9.64683C8.14647 9.52011 8.30294 9.45336 8.45501 9.38842C8.67194 9.2958 8.85929 9.21583 8.91675 8.98364C8.91916 8.97392 8.9205 8.96467 8.92263 8.95508H7.14551Z" fill="#73AF00"/>
<path d="M8.83618 8.17956C8.83618 8.05859 8.72122 8.03953 8.61672 8.04159C8.51218 8.04369 8.35931 8.02459 8.35543 7.94334C8.35303 7.89269 8.43803 7.88797 8.4934 7.90572C8.52553 7.91603 8.7254 7.95172 8.78812 7.81794C8.78812 7.81794 8.71503 7.82028 8.63787 7.80297C8.57843 7.78962 8.33453 7.82 8.29062 7.91406C8.24672 8.00812 8.38828 8.102 8.55131 8.102C8.71434 8.102 8.73672 8.13462 8.73543 8.17437C8.73375 8.22662 8.60447 8.2414 8.53015 8.24072C8.41318 8.19825 8.14025 8.2315 8.13894 8.22634C8.13737 8.22003 8.07597 8.11462 8.07597 8.11462C8.07597 8.11462 8.18772 8.10675 8.20187 8.08628C8.21603 8.06584 8.11709 7.98725 8.11709 7.98725C8.11709 7.98725 8.20031 7.95406 8.20347 7.93047C8.2069 7.9045 8.1359 7.84303 8.1359 7.84303C8.1359 7.84303 8.16334 7.816 8.18397 7.76984C8.19872 7.73687 8.08156 7.72806 8.08156 7.72806C8.08784 7.703 8.08544 7.67866 8.05437 7.66744C8.03037 7.65878 7.9415 7.6925 7.8809 7.6925C7.82031 7.6925 7.79728 7.73641 7.79728 7.73641C7.79728 7.73641 7.69069 7.74897 7.67603 7.76147C7.66141 7.77403 7.68022 7.85553 7.68022 7.85553C7.62587 7.84719 7.60081 7.79909 7.60081 7.79909C7.57362 7.9224 7.70116 7.93497 7.70116 7.93497L7.72206 8.00187C7.72206 8.00187 7.72206 8.00187 7.77431 8.00815C7.82656 8.01444 7.8015 8.06459 7.71997 8.06459C7.63844 8.06459 7.60384 8.16184 7.60384 8.16184C7.54719 8.16344 7.51572 8.11778 7.50312 8.05953C7.48925 7.99544 7.49744 7.89694 7.50784 7.8345C7.52044 7.75894 7.48266 7.73691 7.48266 7.73691L7.45747 7.79987C7.45591 7.73534 7.39922 7.72906 7.39922 7.72906L7.38978 7.80775C7.36144 7.75581 7.31269 7.7794 7.31269 7.7794C7.31269 7.7794 7.35991 7.94937 7.35834 7.95881C7.35675 7.96825 7.34103 7.97612 7.319 7.9525C7.29697 7.92887 7.28125 7.94462 7.28125 7.94462C7.30487 8.11459 7.396 8.08965 7.396 8.08965C7.396 8.08965 7.40006 8.1429 7.42759 8.251C7.45697 8.3664 7.57784 8.34468 7.57784 8.34468C7.57784 8.38231 7.60712 8.43665 7.61547 8.56206C7.62381 8.68747 7.50887 8.77528 7.50887 8.77528C7.40434 8.77318 7.41481 8.87562 7.41481 8.87562H7.70325C7.70325 8.6089 7.8179 8.56318 7.8179 8.56318C7.98787 8.57106 8.15156 8.50022 8.15156 8.50022C8.12637 8.60253 8.17047 8.645 8.17047 8.645C8.23972 8.63556 8.20509 8.77247 8.18462 8.77247C8.16419 8.77247 8.12165 8.77247 8.0965 8.77247C8.07134 8.77247 7.9989 8.85115 7.9989 8.85115H8.29794C8.29794 8.85115 8.34359 8.78506 8.35931 8.75203C8.37503 8.71896 8.32469 8.67334 8.32156 8.63872C8.31844 8.60409 8.3735 8.58206 8.3735 8.58206C8.43175 8.66387 8.5655 8.66862 8.5655 8.66862L8.56237 8.60725C8.56237 8.60725 8.63162 8.63087 8.64737 8.65131C8.66309 8.67175 8.65997 8.76621 8.57656 8.77721C8.49315 8.78821 8.48684 8.84803 8.48684 8.84803C8.48684 8.84803 8.67728 8.84803 8.71506 8.84803C8.75284 8.84803 8.78272 8.77721 8.78272 8.75043C8.78272 8.72368 8.78272 8.549 8.78272 8.51118C8.78272 8.47343 8.75125 8.47815 8.67728 8.47025C8.61009 8.46312 8.61653 8.38959 8.58884 8.30425C8.68597 8.301 8.83618 8.27975 8.83618 8.17956Z" fill="#E6B432"/>
<path d="M8.81904 5.32047C8.80032 5.15544 8.66876 4.94528 8.16767 4.84678C8.16601 4.79353 8.13326 4.74841 8.08642 4.72941V4.63744H8.16845V4.53903H8.08642V4.45703H7.98801V4.53906H7.90598V4.63747H7.98801V4.72944C7.94123 4.74844 7.90842 4.79356 7.90676 4.84681C7.40567 4.94534 7.27411 5.15547 7.25539 5.3205C7.23204 5.52628 7.37942 5.7214 7.51229 5.79619V5.90059H8.56216V5.79619C8.69501 5.7214 8.84235 5.52625 8.81904 5.32047ZM8.26942 5.63812H8.12248V5.03284C8.2436 5.08756 8.31854 5.17147 8.34035 5.28672C8.36751 5.43022 8.31013 5.57653 8.26942 5.63812ZM7.73404 5.28662C7.75585 5.17137 7.83076 5.0875 7.95192 5.03281V5.63809H7.80495C7.76417 5.57653 7.70682 5.43015 7.73404 5.28662ZM7.61257 5.12044C7.58845 5.16878 7.57304 5.21712 7.5652 5.26153C7.54145 5.39597 7.56867 5.53259 7.61367 5.63812H7.5792C7.50557 5.58744 7.41098 5.46275 7.42495 5.33972C7.43467 5.25362 7.49995 5.17978 7.61257 5.12044ZM8.49523 5.63812H8.46066C8.50566 5.53265 8.53291 5.39603 8.5092 5.26159C8.50132 5.21719 8.48595 5.16878 8.46179 5.12041C8.57445 5.17975 8.63973 5.25365 8.64944 5.33969C8.66341 5.46275 8.56882 5.58744 8.49523 5.63812Z" fill="#E6B432"/>
</svg>
