<svg width="16" height="16" viewBox="0 0 16 16" fill="none" xmlns="http://www.w3.org/2000/svg">
<g clip-path="url(#clip0_5367_190495)">
<rect x="15" y="1" width="14" height="14" rx="2" transform="rotate(90 15 1)" fill="#FF334B"/>
<path d="M14.7586 15L1.24139 15C1.10809 15 1 14.7525 1 14.4473L1 8L15 8L15 14.4473C15 14.7525 14.8919 15 14.7586 15Z" fill="#73AF00"/>
<path d="M-1 14.7586L-1 1.24139C-1 1.10809 -0.752532 1 -0.447343 1L6 1L6 15L-0.447342 15C-0.752531 15 -1 14.8919 -1 14.7586Z" fill="white"/>
</g>
<defs>
<clipPath id="clip0_5367_190495">
<rect x="15" y="1" width="14" height="14" rx="2" transform="rotate(90 15 1)" fill="white"/>
</clipPath>
</defs>
</svg>
