<svg width="16" height="16" viewBox="0 0 16 16" fill="none" xmlns="http://www.w3.org/2000/svg">
<g clip-path="url(#clip0_5367_190454)">
<rect x="15" y="1" width="14" height="14" rx="2" transform="rotate(90 15 1)" fill="#41479B"/>
<path d="M15 1.24139L15 14.7586C15 14.8919 14.835 15 14.6316 15L10.3333 15L10.3333 1L14.6316 1C14.835 1 15 1.10809 15 1.24139Z" fill="#FF334B"/>
<path d="M5.66699 1L5.66699 15L1.36876 15C1.1653 15 1.00032 14.8919 1.00032 14.7586L1.00033 1.24139C1.00033 1.10809 1.1653 1 1.36876 1L5.66699 1Z" fill="#FF334B"/>
<path d="M3.3337 6.92833C2.9168 6.92833 2.55945 6.67714 2.40202 6.31836C2.40192 6.32383 2.40039 6.32892 2.40039 6.33439C2.40039 6.84983 2.81827 7.2677 3.3337 7.2677C3.84914 7.2677 4.26698 6.84983 4.26698 6.33439C4.26698 6.32892 4.26545 6.32383 4.26536 6.31839C4.10792 6.67714 3.75058 6.92833 3.3337 6.92833Z" fill="#F9CF02"/>
<path d="M3.33305 6.75789C3.70791 6.75789 4.0118 6.454 4.0118 6.07914C4.0118 5.70428 3.70791 5.40039 3.33305 5.40039C2.95818 5.40039 2.6543 5.70428 2.6543 6.07914C2.6543 6.454 2.95818 6.75789 3.33305 6.75789Z" fill="#F9CF02"/>
<path d="M2.90918 4.80636C2.90918 5.04064 3.09912 5.23058 3.3334 5.23058C3.56768 5.23058 3.75762 5.04064 3.75762 4.80636C3.75762 4.63667 3.65155 4.61545 3.65155 4.55183C3.65155 4.4882 3.71518 4.40336 3.58793 4.2973C3.65155 4.40336 3.54552 4.42458 3.54552 4.53061C3.54552 4.63664 3.58793 4.63667 3.58793 4.72152C3.58793 4.76839 3.54993 4.80633 3.50312 4.80633C3.45624 4.80633 3.4183 4.76833 3.4183 4.72152C3.4183 4.6367 3.50312 4.55183 3.50312 4.42455C3.50312 4.29727 3.4819 4.25486 3.4183 4.1488C3.35468 4.04273 3.24862 3.95789 3.33349 3.87305C3.20621 3.91545 3.26987 4.08514 3.26987 4.19123C3.26987 4.2973 3.18505 4.36092 3.18505 4.4882C3.18505 4.61548 3.24868 4.63667 3.24868 4.72152C3.24868 4.76839 3.21068 4.80633 3.16387 4.80633C3.11705 4.80633 3.07905 4.76833 3.07905 4.72152C3.07905 4.6367 3.12146 4.6367 3.12146 4.53061C3.12146 4.42452 3.0154 4.40333 3.07905 4.2973C2.95177 4.40336 3.01543 4.4882 3.01543 4.55183C3.01524 4.61545 2.90918 4.63664 2.90918 4.80636Z" fill="#F9CF02"/>
<path d="M1.4668 7.50753V11.44C1.4668 11.4787 1.49817 11.51 1.53683 11.51H2.24517C2.28386 11.51 2.3152 11.4786 2.3152 11.44V7.50753C2.3152 7.46884 2.28383 7.4375 2.24517 7.4375H1.53683C1.49817 7.43747 1.4668 7.46884 1.4668 7.50753Z" fill="#F9CF02"/>
<path d="M4.35156 7.50753V11.44C4.35156 11.4787 4.38294 11.51 4.42159 11.51H5.12994C5.16863 11.51 5.19997 11.4786 5.19997 11.44V7.50753C5.19997 7.46884 5.16859 7.4375 5.12994 7.4375H4.42159C4.38291 7.43747 4.35156 7.46884 4.35156 7.50753Z" fill="#F9CF02"/>
<path d="M2.48535 8.18527V8.38455C2.48535 8.42324 2.51673 8.45458 2.55538 8.45458H4.11216C4.15085 8.45458 4.1822 8.4232 4.1822 8.38455V8.18527C4.1822 8.14658 4.15082 8.11523 4.11216 8.11523H2.55538C2.5167 8.11523 2.48535 8.14661 2.48535 8.18527Z" fill="#F9CF02"/>
<path d="M2.48535 10.5603V10.7595C2.48535 10.7982 2.51673 10.8296 2.55538 10.8296H4.11216C4.15085 10.8296 4.1822 10.7982 4.1822 10.7595V10.5603C4.1822 10.5216 4.15082 10.4902 4.11216 10.4902H2.55538C2.5167 10.4902 2.48535 10.5216 2.48535 10.5603Z" fill="#F9CF02"/>
<path d="M2.61124 7.43555H4.05524C4.09077 7.43555 4.10371 7.48233 4.07327 7.50061L3.38733 7.9122C3.35405 7.93217 3.31246 7.93217 3.27924 7.9122L2.59324 7.50061C2.56277 7.48233 2.57574 7.43555 2.61124 7.43555Z" fill="#F9CF02"/>
<path d="M2.61125 11H4.05525C4.09078 11 4.10372 11.0468 4.07328 11.0651L3.38728 11.4766C3.354 11.4966 3.3124 11.4966 3.27919 11.4766L2.59322 11.065C2.56278 11.0468 2.57575 11 2.61125 11Z" fill="#F9CF02"/>
<path d="M3.41648 8.63114C3.38973 8.62858 3.36383 8.62305 3.33642 8.62305C2.86983 8.62305 2.49023 9.00264 2.49023 9.46923C2.49023 9.74617 2.62552 9.98992 2.8322 10.1437C2.85598 10.1614 2.88742 10.1358 2.87586 10.1085C2.85108 10.0498 2.83714 9.98542 2.83714 9.91767C2.83714 9.64189 3.06192 9.41761 3.33795 9.41845C3.48305 9.41889 3.62214 9.34723 3.68636 9.21711C3.8192 8.94802 3.65711 8.68055 3.41648 8.63114ZM3.33642 9.18998C3.24298 9.18998 3.16717 9.11423 3.16717 9.02073C3.16717 8.9273 3.24295 8.85151 3.33642 8.85151C3.42986 8.85151 3.50564 8.92727 3.50564 9.02073C3.50561 9.11423 3.42986 9.18998 3.33642 9.18998Z" fill="#F9CF02"/>
<path d="M3.84031 8.7949C3.81653 8.77722 3.7851 8.80281 3.79666 8.83012C3.82147 8.88884 3.83538 8.95318 3.83538 9.0209C3.83538 9.29672 3.61056 9.521 3.33456 9.52015C3.18947 9.51972 3.05035 9.59137 2.98616 9.7215C2.85338 9.99062 3.01547 10.2581 3.2561 10.3075C3.28285 10.31 3.30875 10.3156 3.33616 10.3156C3.80272 10.3156 4.18235 9.93597 4.18235 9.46937C4.18228 9.19247 4.047 8.94872 3.84031 8.7949ZM3.33616 10.0871C3.24272 10.0871 3.16691 10.0113 3.16691 9.91784C3.16691 9.8244 3.24269 9.74862 3.33616 9.74862C3.4296 9.74862 3.50538 9.82437 3.50538 9.91784C3.50535 10.0113 3.4296 10.0871 3.33616 10.0871Z" fill="#F9CF02"/>
</g>
<defs>
<clipPath id="clip0_5367_190454">
<rect x="15" y="1" width="14" height="14" rx="2" transform="rotate(90 15 1)" fill="white"/>
</clipPath>
</defs>
</svg>
