<svg width="16" height="16" viewBox="0 0 16 16" fill="none" xmlns="http://www.w3.org/2000/svg">
<g clip-path="url(#clip0_5367_190351)">
<rect x="1" y="1" width="14" height="14" rx="2" fill="white"/>
<path d="M15 1.24139L15 14.7586C15 14.8919 14.7525 15 14.4473 15L8 15L8 1L14.4473 1C14.7525 1 15 1.10809 15 1.24139Z" fill="#FF334B"/>
<path d="M4.45672 2.24635V3.23598C4.51123 3.23811 4.57202 3.26283 4.62255 3.31336C4.67308 3.36389 4.69788 3.42468 4.69993 3.47919H5.68956V4.46546H4.69989C4.69775 4.51997 4.67304 4.58077 4.62251 4.6313C4.57198 4.68182 4.51118 4.70654 4.45668 4.70868V5.6983H3.4704V4.70868C3.41589 4.70654 3.3551 4.68182 3.30457 4.6313C3.25404 4.58077 3.22932 4.51997 3.22719 4.46546H2.23756V3.47923H3.22719C3.22932 3.42473 3.25404 3.36393 3.30457 3.3134C3.3551 3.26287 3.41589 3.23815 3.4704 3.23602V2.24639H4.45672V2.24635ZM4.57994 2.12305H4.45663H3.47036H3.3471V2.24635V3.1389C3.30005 3.15817 3.25589 3.18771 3.21738 3.22617C3.17888 3.26468 3.14938 3.30884 3.13007 3.35589H2.23756H2.11426V3.47919V4.46546V4.58877H2.23756H3.13011C3.14942 4.63582 3.17892 4.68002 3.21742 4.71848C3.25589 4.75695 3.30005 4.78648 3.3471 4.80576V5.6983V5.82157H3.4704H4.45668H4.57998V5.69826V4.80572C4.62703 4.78644 4.67119 4.75691 4.7097 4.7184C4.74816 4.67994 4.7777 4.63578 4.79697 4.58873H5.68952H5.81278V4.46542V3.47915V3.35585H5.68947H4.79701C4.77774 3.30879 4.7482 3.26463 4.7097 3.22613C4.67123 3.18767 4.62707 3.15813 4.57998 3.13886V2.24635L4.57994 2.12305Z" fill="#FF334B"/>
<path d="M5.68926 3.47889H4.45646V2.24609H3.47015V3.47889H2.2373V4.46521H3.47015V5.69805H4.45646V4.46521H5.68926V3.47889Z" fill="#CDCDCD"/>
<path d="M3.96286 4.46479C4.23521 4.46479 4.456 4.244 4.456 3.97165C4.456 3.6993 4.23521 3.47852 3.96286 3.47852C3.69051 3.47852 3.46973 3.6993 3.46973 3.97165C3.46973 4.244 3.69051 4.46479 3.96286 4.46479Z" fill="#B4A08C"/>
<path d="M3.52103 4.4146C3.4353 4.32887 3.31716 4.308 3.25716 4.368C3.19716 4.428 3.21802 4.54614 3.30375 4.63188C3.38948 4.71761 3.50762 4.73847 3.56762 4.67847C3.62762 4.61847 3.60676 4.50033 3.52103 4.4146Z" fill="#B4A08C"/>
<path d="M4.62251 4.6304C4.70824 4.54467 4.72911 4.42653 4.66911 4.36653C4.60911 4.30653 4.49097 4.32739 4.40523 4.41313C4.3195 4.49886 4.29864 4.617 4.35864 4.677C4.41864 4.737 4.53678 4.71614 4.62251 4.6304Z" fill="#B4A08C"/>
<path d="M4.40475 3.53071C4.49048 3.61645 4.60862 3.63731 4.66862 3.57731C4.72862 3.51731 4.70776 3.39917 4.62203 3.31344C4.5363 3.2277 4.41816 3.20684 4.35816 3.26684C4.29816 3.32684 4.31902 3.44498 4.40475 3.53071Z" fill="#B4A08C"/>
<path d="M3.30327 3.31295C3.21754 3.39869 3.19668 3.51683 3.25668 3.57683C3.31668 3.63683 3.43482 3.61597 3.52055 3.53023C3.60628 3.4445 3.62714 3.32636 3.56714 3.26636C3.50714 3.20636 3.389 3.22722 3.30327 3.31295Z" fill="#B4A08C"/>
<path d="M3.96318 4.64707C3.59092 4.64707 3.28809 4.34432 3.28809 3.97197C3.28809 3.59963 3.59092 3.29688 3.96318 3.29688C4.33545 3.29688 4.63828 3.59971 4.63828 3.97197C4.63828 4.34423 4.33545 4.64707 3.96318 4.64707ZM3.96318 3.35855C3.62499 3.35855 3.34976 3.63377 3.34976 3.97197C3.34976 4.31017 3.62499 4.5854 3.96318 4.5854C4.30138 4.5854 4.57661 4.31017 4.57661 3.97197C4.57661 3.63377 4.30138 3.35855 3.96318 3.35855Z" fill="#B4A08C"/>
</g>
<defs>
<clipPath id="clip0_5367_190351">
<rect x="1" y="1" width="14" height="14" rx="2" fill="white"/>
</clipPath>
</defs>
</svg>
