<svg width="16" height="16" viewBox="0 0 16 16" fill="none" xmlns="http://www.w3.org/2000/svg">
<g clip-path="url(#clip0_5367_190218)">
<rect x="15" y="1" width="14" height="14" rx="2" transform="rotate(90 15 1)" fill="white"/>
<path d="M15 1.24139L15 14.7586C15 14.8919 14.835 15 14.6316 15L10.3333 15L10.3333 1L14.6316 1C14.835 1 15 1.10809 15 1.24139Z" fill="#73AF00"/>
<path d="M5.66699 1L5.66699 15L1.36876 15C1.1653 15 1.00032 14.8919 1.00032 14.7586L1.00033 1.24139C1.00033 1.10809 1.1653 1 1.36876 1L5.66699 1Z" fill="#73AF00"/>
</g>
<defs>
<clipPath id="clip0_5367_190218">
<rect x="15" y="1" width="14" height="14" rx="2" transform="rotate(90 15 1)" fill="white"/>
</clipPath>
</defs>
</svg>
