<svg width="16" height="16" viewBox="0 0 16 16" fill="none" xmlns="http://www.w3.org/2000/svg">
<rect x="1" y="1" width="14" height="14" rx="2" fill="#D9D9D9"/>
<path fill-rule="evenodd" clip-rule="evenodd" d="M12.1425 8C12.6723 7.46996 13.0001 6.73781 13.0001 5.92911C13.0001 4.31141 11.6887 3 10.071 3C9.26224 3 8.53008 3.32774 8.00003 3.85765C7.46999 3.32774 6.73783 3 5.92911 3C4.31141 3 3 4.31141 3 5.92911C3 6.73781 3.32772 7.46996 3.85761 8C3.32772 8.53004 3 9.26219 3 10.0709C3 11.6886 4.31141 13 5.92911 13C6.73783 13 7.46999 12.6723 8.00004 12.1423C8.53008 12.6723 9.26224 13 10.071 13C11.6887 13 13.0001 11.6886 13.0001 10.0709C13.0001 9.26219 12.6723 8.53004 12.1425 8Z" fill="#A8A8A8"/>
</svg>
