<svg width="16" height="16" viewBox="0 0 16 16" fill="none" xmlns="http://www.w3.org/2000/svg">
<rect x="1" y="1.10352" width="14" height="14" rx="2" fill="white"/>
<path d="M2.04612 3.53236L7.76136 7.70888H4.16075H3.35756L3.89368 8.30691L8.05671 12.9502H2.04612V3.53236ZM1.78378 2.89648C1.72587 2.94708 1.6875 3.01908 1.6875 3.10195V13.033C1.6875 13.1853 1.81103 13.3088 1.96337 13.3088H8.85992L4.16075 8.06748H8.85992L1.78378 2.89648Z" fill="#41479B"/>
<path d="M2.0459 3.5332L7.76114 7.7097H4.16052H3.35733L3.89352 8.30769L8.05651 12.9511H2.0459V3.5332Z" fill="#FF334B"/>
<path d="M3.79267 9.33146L4.01348 9.78718L4.43257 9.50293C4.45104 9.49037 4.47589 9.50471 4.47426 9.527L4.43767 10.0321L4.94273 9.99546C4.96501 9.99384 4.97935 10.0187 4.96679 10.0372L4.68254 10.4562L5.13826 10.6771C5.15835 10.6868 5.15835 10.7154 5.13826 10.7252L4.68254 10.946L4.96679 11.3651C4.97935 11.3836 4.96501 11.4084 4.94273 11.4068L4.43767 11.3702L4.47426 11.8752C4.47589 11.8975 4.45104 11.9119 4.43257 11.8993L4.01348 11.6151L3.79267 12.0708C3.78292 12.0909 3.75429 12.0909 3.74454 12.0708L3.52373 11.6151L3.10464 11.8993C3.08617 11.9119 3.06133 11.8975 3.06295 11.8752L3.09955 11.3702L2.59448 11.4068C2.5722 11.4084 2.55786 11.3836 2.57042 11.3651L2.85467 10.946L2.39886 10.7253C2.37877 10.7155 2.37877 10.6869 2.39886 10.6771L2.85458 10.4563L2.57033 10.0372C2.55777 10.0188 2.57211 9.99393 2.59439 9.99556L3.09945 10.0322L3.06286 9.52709C3.06123 9.50481 3.08608 9.49046 3.10455 9.50303L3.52364 9.78728L3.74445 9.33156C3.75426 9.31137 3.78292 9.31137 3.79267 9.33146Z" fill="white"/>
<path d="M4.36587 6.69514L4.17415 6.56417L4.34293 6.38726L4.1024 6.34336L4.18465 6.11314L3.94706 6.17086L3.92853 5.92711L3.73497 6.07645L3.61893 5.86133L3.50287 6.07652L3.30931 5.92717L3.29078 6.17092L3.05319 6.1132L3.13544 6.34342L2.89491 6.38733L3.06369 6.56423L2.87197 6.6952C2.63006 6.58226 2.41737 6.41723 2.25 6.21311C2.36244 6.86814 2.93172 7.36714 3.61887 7.36714C4.30603 7.36714 4.87528 6.86814 4.98774 6.21311C4.82046 6.4172 4.60775 6.5822 4.36587 6.69514Z" fill="white"/>
</svg>
