<svg width="16" height="16" viewBox="0 0 16 16" fill="none" xmlns="http://www.w3.org/2000/svg">
<g clip-path="url(#clip0_5367_190084)">
<rect x="1" y="1" width="14" height="14" rx="2" fill="#FF334B"/>
<path d="M15 5.66602L1 5.66601L1 1.36779C1 1.16433 1.10809 0.999348 1.24139 0.999348L14.7586 0.999349C14.8919 0.999349 15 1.16433 15 1.36779L15 5.66602Z" fill="white"/>
<path d="M1 10.334L15 10.334V14.6322C15 14.8357 14.8919 15.0007 14.7586 15.0007L1.24139 15.0007C1.10809 15.0007 1 14.8357 1 14.6322L1 10.334Z" fill="#73AF00"/>
<path d="M5.6665 1L5.6665 15L1.36828 15C1.16482 15 0.999837 14.8919 0.999837 14.7586L0.999837 1.24139C0.999837 1.10809 1.16482 1 1.36828 1L5.6665 1Z" fill="#FF334B"/>
<path d="M2.37116 3.57227C2.35569 3.57402 2.34074 3.57589 2.32617 3.57783V3.7743C2.34083 3.77801 2.35578 3.7817 2.37116 3.78533V3.57227Z" fill="white"/>
<path d="M3.05064 3.94648C3.00967 3.9432 2.94673 3.93689 2.87161 3.92773L2.40039 4.34683C2.46142 4.35614 2.53458 4.36851 2.56511 4.37823C2.6862 4.2723 2.84851 4.12795 3.05064 3.94648Z" fill="white"/>
<path d="M3.75983 3.28058V3.25995V3.24023H2.92383V3.25995V3.28058V3.30033H3.75983V3.28058Z" fill="white"/>
<path d="M3.14062 2.08516C3.14062 2.14403 3.22934 2.19375 3.33437 2.19375C3.43941 2.19375 3.52812 2.14403 3.52812 2.08516C3.52812 2.02628 3.43941 1.97656 3.33437 1.97656C3.22934 1.97656 3.14062 2.02631 3.14062 2.08516Z" fill="white"/>
<path d="M2.95974 3.54696C2.77102 3.54602 2.58268 3.55296 2.42871 3.56752V3.79946C2.60962 3.83827 2.82037 3.86802 2.95974 3.88283C2.95974 3.8828 2.95974 3.54696 2.95974 3.54696Z" fill="white"/>
<path d="M1.9873 4.69058C2.0619 4.68898 2.22574 4.65951 2.33668 4.57286C2.37105 4.54598 2.42977 4.49655 2.5123 4.42486C2.45634 4.41339 2.36243 4.39945 2.31237 4.39258L1.9873 4.69058Z" fill="white"/>
<path d="M3.06699 3.18398V3.07855C3.05286 3.05748 3.03827 3.03577 3.02336 3.01367L2.89502 3.10702C2.92058 3.15092 2.93696 3.17883 2.93999 3.18395L3.06699 3.18398Z" fill="white"/>
<path d="M2.0799 3.66005C2.07949 3.66177 2.07849 3.66577 2.08493 3.67405C2.10874 3.70458 2.17765 3.73373 2.26915 3.76027V3.58789C2.15931 3.60611 2.08737 3.63017 2.0799 3.66005Z" fill="white"/>
<path d="M3.54789 3.5763V3.35742H3.12451V3.89205H3.23217C3.40623 3.89205 3.54789 3.75036 3.54789 3.5763Z" fill="white"/>
<path d="M2.86772 2.78225C2.64103 2.44812 2.39894 2.09694 2.33984 2.02734C2.34831 2.05844 2.36875 2.11687 2.4165 2.22628C2.47809 2.36747 2.62759 2.63806 2.75137 2.85594L2.86772 2.78225Z" fill="white"/>
<path d="M2.7793 2.90614C2.81155 2.96258 2.84108 3.01389 2.86598 3.05689L2.9912 2.96583C2.96142 2.92161 2.93077 2.87627 2.89948 2.83008L2.7793 2.90614Z" fill="white"/>
<path d="M3.06747 3.89166V3.54778C3.05071 3.54744 3.03395 3.54709 3.01709 3.54688V3.88791C3.03648 3.88959 3.05337 3.89087 3.06747 3.89166Z" fill="white"/>
<path d="M3.54792 2.88867H3.12451V2.94877H3.54792V2.88867Z" fill="white"/>
<path d="M4.13623 3.17908V3.18267H4.15776C4.17364 3.18267 4.18645 3.19548 4.18645 3.21136V3.32889C4.18645 3.34477 4.17364 3.35758 4.15776 3.35758H4.13623V3.36117C4.13623 3.37695 4.14911 3.38986 4.16492 3.38986H4.64929C4.6651 3.38986 4.67798 3.37695 4.67798 3.36117V3.17908C4.67798 3.1633 4.6651 3.15039 4.64929 3.15039H4.16495C4.14911 3.15036 4.13623 3.16323 4.13623 3.17908Z" fill="white"/>
<path d="M4.67849 4.68898L4.35521 4.39258C4.30515 4.39948 4.21127 4.41336 4.15527 4.42486C4.2393 4.49777 4.29799 4.5472 4.3309 4.57292C4.44012 4.65817 4.60062 4.68808 4.67849 4.68898Z" fill="white"/>
<path d="M4.01465 3.25995V3.28058V3.30033H4.12979V3.24023H4.01465V3.25995Z" fill="white"/>
<path d="M4.10223 4.37945C4.13276 4.36967 4.20601 4.35726 4.26717 4.34798L3.57298 3.72852C3.55417 3.77077 3.52792 3.80898 3.49561 3.8412L3.51389 3.85752C3.76536 4.08264 3.96195 4.25695 4.10223 4.37945Z" fill="white"/>
<path d="M2.54715 3.36117V3.35758H2.52559C2.50971 3.35758 2.4969 3.34477 2.4969 3.32889V3.21136C2.4969 3.19548 2.50971 3.18267 2.52559 3.18267H2.54712V3.17908C2.54712 3.1633 2.53425 3.15039 2.51843 3.15039H2.03406C2.01825 3.15039 2.00537 3.1633 2.00537 3.17908V3.36117C2.00537 3.37695 2.01825 3.38986 2.03406 3.38986H2.51843C2.53428 3.38986 2.54715 3.37698 2.54715 3.36117Z" fill="white"/>
<path d="M2.66934 3.28058V3.25995V3.24023H2.5542V3.30033H2.66934V3.28058Z" fill="white"/>
<path d="M3.77237 3.10702L3.64403 3.01367C3.63091 3.0332 3.61806 3.0523 3.60547 3.07102V3.18395H3.72741C3.73044 3.17883 3.74681 3.15092 3.77237 3.10702Z" fill="white"/>
<path d="M3.16309 2.71164H3.5098L3.43349 2.62695H3.2394L3.16309 2.71164Z" fill="white"/>
<path d="M3.54792 2.77148H3.12451V2.8298H3.54792V2.77148Z" fill="white"/>
<path d="M3.33431 2.25144C3.3064 2.25144 3.28025 2.24784 3.25537 2.24253V2.567H3.41503V2.24219C3.38965 2.24775 3.36284 2.25144 3.33431 2.25144Z" fill="white"/>
<path d="M3.12451 3.06595H3.54607C3.54601 3.06236 3.54664 3.05886 3.54795 3.05539V3.00586H3.12451V3.06595Z" fill="white"/>
<path d="M3.67627 2.96583L3.80149 3.05689C3.82639 3.01392 3.85593 2.96258 3.88818 2.90614L3.76799 2.83008C3.73668 2.87627 3.70608 2.92161 3.67627 2.96583Z" fill="white"/>
<path d="M3.54792 3.12305H3.12451V3.18314H3.54792V3.12305Z" fill="white"/>
<path d="M3.91618 2.85612C4.03993 2.63831 4.18943 2.36766 4.25105 2.22647C4.29893 2.11681 4.31934 2.05834 4.32777 2.02734C4.26974 2.09544 4.02705 2.44744 3.7998 2.78244L3.91618 2.85612Z" fill="white"/>
<path d="M4.75803 4.68551L4.38369 4.34223C4.37741 4.33648 4.36894 4.33364 4.36044 4.33495C4.35725 4.33535 4.35003 4.33635 4.34044 4.33767C4.33991 4.33714 4.33972 4.33642 4.33912 4.33595L3.59297 3.67011C3.6006 3.64045 3.60503 3.60954 3.60503 3.57758V3.3587H3.78603C3.80934 3.38904 3.84559 3.40895 3.88669 3.40895C3.92781 3.40895 3.96406 3.38904 3.98734 3.3587H4.07866V3.36229C4.07866 3.40976 4.11728 3.44839 4.16475 3.44839H4.64912C4.69659 3.44839 4.73522 3.40976 4.73522 3.36229V3.1802C4.73522 3.13273 4.69659 3.09411 4.64912 3.09411H4.16481C4.11734 3.09411 4.07872 3.13273 4.07872 3.1802V3.18379H3.98741C3.96409 3.15345 3.92784 3.13354 3.88675 3.13354C3.85556 3.13354 3.82738 3.14523 3.80522 3.16386C3.90197 2.99823 4.20594 2.47323 4.30356 2.24951C4.40828 2.00945 4.39984 1.97845 4.37509 1.95855C4.34897 1.93764 4.31591 1.96167 4.30344 1.97083C4.25541 2.00573 3.78969 2.69376 3.60506 2.96801V2.74158C3.60506 2.74095 3.60475 2.74039 3.60472 2.7398C3.60406 2.73008 3.5986 2.72192 3.59066 2.71726L3.47231 2.58601V2.22511C3.54075 2.19573 3.58535 2.14498 3.58535 2.08592C3.58535 1.99286 3.475 1.91992 3.33416 1.91992C3.19331 1.91992 3.08297 1.99286 3.08297 2.08592C3.08297 2.14545 3.12838 2.19648 3.19778 2.2257V2.58808L3.08169 2.71686C3.07297 2.7218 3.06682 2.7308 3.06682 2.74151V2.97545C2.88578 2.70648 2.41185 2.00602 2.36344 1.9708C2.35091 1.96173 2.31782 1.93767 2.29175 1.95852C2.26697 1.97842 2.25854 2.00942 2.36329 2.24948C2.45782 2.46611 2.74572 2.96508 2.85175 3.14695C2.83482 3.13861 2.81603 3.13351 2.79594 3.13351C2.75482 3.13351 2.71857 3.15342 2.69528 3.18376H2.604V3.18017C2.604 3.1327 2.56538 3.09408 2.51791 3.09408H2.03347C1.986 3.09408 1.94738 3.1327 1.94738 3.18017V3.36226C1.94738 3.40973 1.986 3.44836 2.03347 3.44836H2.51785C2.56532 3.44836 2.60394 3.40973 2.60394 3.36226V3.35867H2.69525C2.71857 3.38901 2.75482 3.40892 2.79591 3.40892C2.83703 3.40892 2.87328 3.38901 2.89657 3.35867H3.06682V3.49086C2.80069 3.48517 2.06391 3.48429 2.02354 3.64595C2.01979 3.66092 2.01941 3.68414 2.039 3.7092C2.11666 3.80867 2.51022 3.88126 2.79569 3.91964L2.32769 4.33589C2.3271 4.33642 2.32691 4.33714 2.32635 4.33767C2.31675 4.33632 2.30954 4.33535 2.30635 4.33495C2.29772 4.3337 2.28935 4.33648 2.2831 4.34223L1.90872 4.68551C1.89741 4.69582 1.89625 4.71326 1.9061 4.72504C1.9185 4.73995 1.95004 4.74726 1.99219 4.74726C2.09594 4.74726 2.26429 4.70301 2.3716 4.61923C2.46003 4.55017 2.70503 4.33535 3.09985 3.98079C3.11694 3.96545 3.12825 3.95526 3.13325 3.95079H3.23181C3.31372 3.95079 3.38925 3.92398 3.45088 3.87907L3.47519 3.90079C3.92975 4.30767 4.20556 4.54935 4.29509 4.61923C4.40241 4.7031 4.57069 4.74726 4.67444 4.74726C4.71662 4.74726 4.74812 4.73998 4.76056 4.72504C4.77053 4.71326 4.76931 4.69582 4.75803 4.68551ZM3.12428 3.89332V3.3587H3.54769V3.57758C3.54769 3.75164 3.40603 3.89332 3.23194 3.89332H3.12428ZM2.26854 3.76011C2.1771 3.73354 2.10816 3.70442 2.08432 3.67389C2.07785 3.66557 2.07885 3.66161 2.07929 3.65989C2.08675 3.63001 2.15869 3.60595 2.26854 3.58776V3.76011ZM2.33932 2.02761C2.39838 2.0972 2.6405 2.44833 2.86719 2.78251L2.75082 2.8562C2.62707 2.63833 2.47757 2.36773 2.41594 2.22655C2.36822 2.11717 2.34775 2.05877 2.33932 2.02761ZM3.02325 3.01348C3.03813 3.03554 3.05269 3.05723 3.06688 3.07836V3.18379H2.93988C2.93685 3.17867 2.92047 3.15076 2.89491 3.10686L3.02325 3.01348ZM2.86594 3.05692C2.84103 3.01395 2.8115 2.96261 2.77925 2.90617L2.89944 2.83011C2.93075 2.87633 2.96138 2.92167 2.99116 2.96586L2.86594 3.05692ZM3.06688 3.54845V3.89232C3.05288 3.89154 3.036 3.89026 3.01663 3.88857V3.54754C3.03341 3.54776 3.05013 3.54807 3.06688 3.54845ZM2.42819 3.56761C2.58219 3.55304 2.7705 3.54614 2.95922 3.54704V3.88292C2.81985 3.86814 2.6091 3.83836 2.42819 3.79954V3.56761ZM2.32591 3.5792C2.34044 3.57726 2.35532 3.57542 2.37078 3.57364V3.78667C2.35544 3.78307 2.34054 3.77939 2.32591 3.77564C2.32591 3.77564 2.32591 3.5792 2.32591 3.5792ZM2.87132 3.92932C2.94644 3.93851 3.00938 3.94479 3.05035 3.94807C2.84822 4.12954 2.68591 4.27389 2.56488 4.37982C2.53432 4.37007 2.46119 4.35773 2.40016 4.34842L2.87132 3.92932ZM2.512 4.42592C2.42947 4.4976 2.37075 4.54704 2.33638 4.57392C2.22544 4.6606 2.06163 4.6901 1.987 4.69164L2.31207 4.3936C2.36213 4.40054 2.456 4.41445 2.512 4.42592ZM2.92335 3.30129V3.28158V3.26095V3.24123H3.75938V3.26095V3.28158V3.30129H2.92335ZM3.52794 2.08592C3.52794 2.1448 3.43922 2.19451 3.33419 2.19451C3.22916 2.19451 3.14044 2.1448 3.14044 2.08592C3.14044 2.02705 3.22916 1.97733 3.33419 1.97733C3.43922 1.97733 3.52794 2.02708 3.52794 2.08592ZM3.12428 2.94876V2.88867H3.54769V2.94876H3.12428ZM3.54766 3.00617V3.0557C3.54635 3.05917 3.54572 3.06267 3.54578 3.06626H3.12428V3.00617H3.54766ZM3.12428 2.83123V2.77292H3.54769V2.83123H3.12428ZM3.4331 2.62817L3.50941 2.71283H3.16269L3.239 2.62817H3.4331ZM3.25525 2.56751V2.24305C3.28013 2.24836 3.30628 2.25195 3.33419 2.25195C3.36275 2.25195 3.38953 2.24826 3.41491 2.2427V2.56751H3.25525ZM3.12428 3.12367H3.54769V3.18376H3.12428V3.12367ZM4.25094 2.22655C4.18934 2.36773 4.03984 2.63833 3.91606 2.8562L3.79969 2.78251C4.02694 2.44751 4.26963 2.09552 4.32766 2.02742C4.31922 2.05842 4.29878 2.11689 4.25094 2.22655ZM3.95669 3.26092V3.28154C3.95669 3.32014 3.92531 3.35151 3.88672 3.35151C3.84813 3.35151 3.81675 3.32014 3.81675 3.28154V3.26092C3.81675 3.22233 3.84813 3.19095 3.88672 3.19095C3.92531 3.19095 3.95669 3.22233 3.95669 3.26092ZM3.80094 3.05692L3.67572 2.96586C3.7055 2.92164 3.73613 2.87629 3.76744 2.83011L3.88763 2.90617C3.85538 2.96261 3.82581 3.01392 3.80094 3.05692ZM3.60506 3.07083C3.61766 3.05208 3.63047 3.03301 3.64363 3.01348L3.77197 3.10683C3.74641 3.15073 3.73003 3.17864 3.727 3.18379H3.60506V3.07083ZM3.57269 3.72892L4.26688 4.34839C4.20578 4.35773 4.13247 4.3701 4.10194 4.37985C3.96163 4.25732 3.76506 4.08307 3.51356 3.85789L3.49528 3.84157C3.52763 3.80942 3.55388 3.77117 3.57269 3.72892ZM4.35481 4.39364L4.67809 4.69004C4.60019 4.68914 4.43972 4.65926 4.3305 4.57398C4.29759 4.54826 4.23891 4.49879 4.15488 4.42592C4.21088 4.41445 4.30475 4.40054 4.35481 4.39364ZM4.67794 3.1802V3.36229C4.67794 3.37808 4.66506 3.39098 4.64925 3.39098H4.16481C4.149 3.39098 4.13613 3.37808 4.13613 3.36229V3.3587H4.15766C4.17353 3.3587 4.18634 3.34589 4.18634 3.33001V3.21248C4.18634 3.19661 4.17353 3.18379 4.15766 3.18379H4.13613V3.1802C4.13613 3.16442 4.149 3.15151 4.16481 3.15151H4.64919C4.66503 3.15148 4.67794 3.16436 4.67794 3.1802ZM4.12894 3.30129H4.01413V3.28158V3.26095V3.24123H4.12894V3.30129ZM2.00475 3.36229V3.1802C2.00475 3.16442 2.01763 3.15151 2.03344 3.15151H2.51782C2.53363 3.15151 2.5465 3.16442 2.5465 3.1802V3.18379H2.52503C2.50916 3.18379 2.49635 3.19661 2.49635 3.21248V3.33001C2.49635 3.34589 2.50916 3.3587 2.52503 3.3587H2.54657V3.36229C2.54657 3.37808 2.53369 3.39098 2.51788 3.39098H2.0335C2.01766 3.39098 2.00475 3.37811 2.00475 3.36229ZM2.55375 3.2412H2.66857V3.26092V3.28154V3.30126H2.55375V3.2412ZM2.86594 3.28154C2.86594 3.32014 2.83457 3.35151 2.79597 3.35151C2.75738 3.35151 2.726 3.32014 2.726 3.28154V3.26092C2.726 3.22233 2.75738 3.19095 2.79597 3.19095C2.83457 3.19095 2.86594 3.22233 2.86594 3.26092V3.28154Z" fill="#D23741"/>
</g>
<defs>
<clipPath id="clip0_5367_190084">
<rect x="1" y="1" width="14" height="14" rx="2" fill="white"/>
</clipPath>
</defs>
</svg>
