<svg width="16" height="16" viewBox="0 0 16 16" fill="none" xmlns="http://www.w3.org/2000/svg">
<g clip-path="url(#clip0_5367_190015)">
<rect x="1" y="1" width="14" height="14" rx="2" fill="white"/>
<path d="M15.5481 13.0003H3.96191V2.51758H15.5481C15.7005 2.51758 15.824 2.64111 15.824 2.79345V12.7245C15.824 12.8768 15.7004 13.0003 15.5481 13.0003Z" fill="#73AF00"/>
<path d="M3.96264 13.0003H0.100581C-0.051762 13.0003 -0.175293 12.8768 -0.175293 12.7245V2.79345C-0.175293 2.64111 -0.051762 2.51758 0.100581 2.51758H3.96264V13.0003Z" fill="white"/>
<path d="M12.7013 9.20192C11.4315 10.333 9.48774 10.2168 8.3589 8.94482C7.23222 7.67517 7.34625 5.72577 8.61596 4.59471C8.61784 4.59305 8.61965 4.59143 8.62153 4.5898C8.65153 4.56343 8.62253 4.51552 8.58528 4.53002C7.33309 5.01764 6.44531 6.23561 6.44531 7.6617C6.44531 9.51932 7.94753 11.0238 9.80071 11.0238C11.0827 11.0238 12.1936 10.3024 12.758 9.24351C12.7768 9.20817 12.7327 9.17379 12.7028 9.20048C12.7023 9.20095 12.7018 9.20145 12.7013 9.20192Z" fill="white"/>
<path d="M11.0677 5.15319L11.509 5.64822L12.1202 5.39097C12.1994 5.35765 12.2754 5.44425 12.232 5.51837L11.8976 6.09103L12.3311 6.59284C12.3872 6.65781 12.3284 6.75684 12.2445 6.73856L11.5965 6.59743L11.2532 7.16481C11.2088 7.23824 11.0964 7.21287 11.0878 7.12743L11.0218 6.46756L10.3761 6.31637C10.2925 6.29678 10.2819 6.18209 10.3606 6.14756L10.9678 5.8809L10.912 5.22012C10.9048 5.13459 11.0106 5.08912 11.0677 5.15319Z" fill="white"/>
</g>
<defs>
<clipPath id="clip0_5367_190015">
<rect x="1" y="1" width="14" height="14" rx="2" fill="white"/>
</clipPath>
</defs>
</svg>
