<svg width="16" height="16" viewBox="0 0 16 16" fill="none" xmlns="http://www.w3.org/2000/svg">
<rect x="1" y="1" width="14" height="14" rx="2" fill="#41479B"/>
<path d="M10.9862 7.96125C10.98 7.96125 10.9737 7.95928 10.9682 7.95521C10.9639 7.9519 10.5358 7.61825 10.788 7.05275C10.7947 7.03775 10.8122 7.03112 10.8273 7.03769C10.8423 7.04444 10.849 7.06197 10.8424 7.07703C10.6098 7.5985 10.9881 7.89546 11.0043 7.90784C11.0173 7.91778 11.0199 7.93643 11.0099 7.9495C11.004 7.95718 10.9952 7.96125 10.9862 7.96125Z" fill="#73AF00"/>
<path d="M10.7398 7.47296C10.7386 7.47296 10.7374 7.4729 10.7363 7.47277C10.7199 7.47084 10.7083 7.45609 10.7102 7.43978C10.7225 7.33284 10.7628 7.25821 10.8298 7.21803C10.9376 7.15324 11.0723 7.20499 11.0779 7.20728C11.0932 7.21328 11.1007 7.23046 11.0947 7.24574C11.0887 7.26106 11.0714 7.26865 11.0563 7.26265C11.0551 7.26221 10.9426 7.21946 10.8601 7.26918C10.81 7.29946 10.7794 7.35915 10.7693 7.44665C10.7675 7.46181 10.7546 7.47296 10.7398 7.47296Z" fill="#73AF00"/>
<path d="M10.8208 7.0889C10.8182 7.08234 10.7539 6.92959 10.463 6.99459C10.1337 7.06837 10.1299 7.50283 10.1299 7.50718C10.1299 7.52212 10.141 7.5348 10.1559 7.53671C10.1571 7.5369 10.1584 7.53696 10.1596 7.53696C10.173 7.53696 10.185 7.52796 10.1884 7.51474C10.3111 7.04718 10.7683 7.12571 10.7877 7.12912C10.7987 7.13108 10.8093 7.12702 10.816 7.11877C10.8229 7.1104 10.8248 7.09893 10.8208 7.0889Z" fill="#73AF00"/>
<path d="M10.7519 7.33037C10.7519 7.33037 10.5535 7.20393 10.4717 7.36509C10.3899 7.52627 10.4519 7.69984 10.4841 7.76924C10.4841 7.76924 10.6024 7.63852 10.7147 7.62046C10.8536 7.59815 10.8883 7.42456 10.7916 7.33777C10.676 7.23412 10.7519 7.33037 10.7519 7.33037Z" fill="#73AF00"/>
<path d="M10.9688 7.03516C10.966 7.20872 11.0627 7.23147 11.0627 7.23147C11.1252 7.07212 10.9688 7.03516 10.9688 7.03516Z" fill="#73AF00"/>
<path d="M10.9385 7.40002C10.9398 7.23533 11.0515 7.2168 11.0515 7.2168C11.1192 7.36989 10.9385 7.40002 10.9385 7.40002Z" fill="#73AF00"/>
<path d="M11.5827 7.26598C11.5827 7.26598 11.4248 7.24264 11.3642 7.21401C11.3138 7.19023 11.248 7.1328 11.1628 7.14401C11.0977 7.14401 11.0449 7.19676 11.0449 7.26189C11.0449 7.32701 11.0896 7.40498 11.3236 7.38767C11.437 7.37926 11.5336 7.43108 11.5336 7.43108C11.5188 7.36911 11.5827 7.26598 11.5827 7.26598Z" fill="#FF334B"/>
<path d="M11.4187 7.31751C11.4187 7.31751 11.1764 7.3343 11.1232 7.29511C11.0741 7.25892 11.0869 7.2013 11.1372 7.1957C11.2128 7.1873 11.4187 7.31751 11.4187 7.31751Z" fill="#F8CB32"/>
<path d="M11.8898 7.59191L11.3542 7.92666L11.2928 7.86712L11.5866 7.58256L11.6554 7.61047L11.7224 7.52119L11.5624 7.4375C11.5624 7.4375 11.1384 7.83731 10.7777 7.87081C10.6563 7.88209 10.5326 7.87416 10.4361 7.83444L10.2197 8.14606L10.6735 8.53287L11.3393 8.50684L11.8897 7.75922L11.9864 7.80384L12.0682 7.70716L11.8898 7.59191Z" fill="#B49B91"/>
<path d="M10.3972 8.49356C10.2482 8.49356 10.127 8.37231 10.127 8.22337C10.127 8.07437 10.2482 7.95312 10.3972 7.95312C10.5462 7.95312 10.6674 8.07437 10.6674 8.22337C10.6674 8.37234 10.5462 8.49356 10.3972 8.49356ZM10.3972 8.04241C10.2974 8.04241 10.2162 8.12359 10.2162 8.22337C10.2162 8.32316 10.2974 8.40431 10.3972 8.40431C10.497 8.40431 10.5781 8.32319 10.5781 8.22337C10.5781 8.12356 10.497 8.04241 10.3972 8.04241Z" fill="#9B8278"/>
<path d="M11.5231 8.74528C11.5231 8.74528 11.5727 8.71303 11.6223 8.56181L11.5206 8.57669C11.5206 8.57669 11.5404 8.49237 11.5181 8.43037L11.4041 8.51966C11.4041 8.51966 11.352 8.41056 11.3297 8.39569C11.3297 8.39569 11.2504 8.50728 11.2057 8.52212C11.2057 8.52212 11.1611 8.36094 11.1165 8.32872L11.0396 8.43781L10.9255 8.34853C10.9255 8.34853 10.9255 8.42541 10.923 8.44278C10.9206 8.46012 10.7743 8.28906 10.7743 8.28906C10.7743 8.28906 10.7098 8.31634 10.623 8.45519L10.5139 8.34359L10.4693 8.48991L10.3181 8.45022L10.3428 8.537L10.2114 8.52706C10.2114 8.52706 10.2337 8.656 10.2982 8.70066L11.5231 8.74528Z" fill="#73AF00"/>
<path d="M10.2091 9.29688C10.2091 9.29688 9.80002 9.81759 9.02637 9.75809L9.86696 9.87341L10.2984 9.46428L10.2091 9.29688Z" fill="#73AF00"/>
<path d="M8.87354 9.68057C8.95535 9.7401 9.46122 9.88516 9.82569 9.71032C9.82569 9.71032 9.83313 9.79588 9.79222 9.84422C9.79222 9.84422 10.06 9.73635 10.2051 9.53551C10.3502 9.33463 9.90381 9.96694 9.90381 9.96694L9.21944 10.0934L8.94047 9.86276L8.87354 9.68057Z" fill="#F8CB32"/>
<path d="M8.81996 7.8047C8.72908 7.81233 8.6308 7.86705 8.58052 7.93352C8.55314 7.92189 8.4923 7.91674 8.44189 7.9503C8.37477 7.99505 8.25071 8.15667 8.14658 8.11392C8.14658 8.11392 8.13727 8.26639 8.29905 8.26086C8.29905 8.26086 8.25811 8.32411 8.26558 8.42452C8.27302 8.52492 8.20049 8.59189 8.20049 8.59189C8.20049 8.59189 8.5278 8.63836 8.54083 8.38361C8.54243 8.35248 8.54402 8.32505 8.54552 8.30058C8.71633 8.39283 8.78355 8.26261 8.78355 8.26261C8.78355 8.26261 8.68089 8.16564 8.78536 8.02761C8.88983 7.88955 9.17702 8.21498 9.17702 8.21498C9.18264 8.08477 9.17096 7.7752 8.81996 7.8047Z" fill="#F8CB32"/>
<path d="M10.0853 8.66312C10.0853 8.66312 9.99109 8.72759 9.6985 8.66809C9.6985 8.66809 9.76296 8.52428 9.73321 8.43997C9.73321 8.43997 9.65387 8.51434 9.46047 8.58875C9.26706 8.66316 9.02903 8.90119 8.95956 9.0549C8.95956 9.0549 9.39456 8.05216 9.04512 7.95022C8.92525 7.91525 8.82215 7.97194 8.78569 8.02753C8.80331 8.04834 8.82025 8.078 8.82197 8.11759C8.82569 8.20316 8.74015 8.77966 8.61369 9.17762C8.61369 9.17762 8.57647 9.04 8.517 8.97303C8.45753 8.90606 8.41287 8.79822 8.41287 8.79822C8.41287 8.79822 8.31247 8.86519 8.32731 8.9879C8.32731 8.9879 8.27153 8.94328 8.16366 8.97303C8.05578 9.00278 8.01487 8.93209 8.01487 8.93209C8.01487 8.93209 7.92559 9.17012 8.18969 9.29287C8.18969 9.29287 8.11903 9.32634 8.08556 9.3524C8.05209 9.37844 8 9.37844 8 9.37844C8 9.37844 8.093 9.54953 8.29009 9.56812C8.48722 9.58672 8.57781 9.6429 8.63972 9.74415C8.84059 10.0727 9.22494 10.3219 9.85228 9.93756C9.85228 9.93756 8.95962 10.2153 8.91994 9.64497C8.88522 9.14606 9.43072 9.0449 9.48528 9.154C9.53984 9.26309 9.48031 9.35734 9.48031 9.35734C9.48031 9.35734 9.77787 9.28794 9.63403 9.01512C9.63403 9.01525 9.92662 9.0599 10.0853 8.66312Z" fill="#73AF00"/>
<path d="M12.9507 9.67974C12.8689 9.73927 12.3519 9.96243 11.9948 9.60537C11.6377 9.2483 11.4985 8.71221 11.5187 8.77221H11.1616L11.2807 9.84343L12.6048 10.0926L12.8837 9.86202L12.9507 9.67974Z" fill="#73AF00"/>
<path d="M13.0044 7.8047C13.0953 7.81233 13.1936 7.86705 13.2439 7.93352C13.2712 7.92189 13.3321 7.91674 13.3825 7.9503C13.4496 7.99505 13.5737 8.15667 13.6778 8.11392C13.6778 8.11392 13.6871 8.26639 13.5253 8.26086C13.5253 8.26086 13.5663 8.32411 13.5588 8.42452C13.5514 8.52492 13.6239 8.59189 13.6239 8.59189C13.6239 8.59189 13.2966 8.63836 13.2836 8.38361C13.282 8.35248 13.2804 8.32505 13.2789 8.30058C13.1081 8.39283 13.0408 8.26261 13.0408 8.26261C13.0408 8.26261 13.1435 8.16564 13.039 8.02761C12.9345 7.88955 12.6473 8.21498 12.6473 8.21498C12.6417 8.08477 12.6534 7.7752 13.0044 7.8047Z" fill="#73AF00"/>
<path d="M11.7388 8.66312C11.7388 8.66312 11.833 8.72759 12.1256 8.66809C12.1256 8.66809 12.0611 8.52428 12.0909 8.43997C12.0909 8.43997 12.1702 8.51434 12.3636 8.58875C12.557 8.66316 12.795 8.90119 12.8645 9.0549C12.8645 9.0549 12.4295 8.05216 12.779 7.95022C12.8988 7.91525 13.0019 7.97194 13.0384 8.02753C13.0208 8.04834 13.0038 8.078 13.0021 8.11759C12.9984 8.20316 13.0839 8.77966 13.2104 9.17762C13.2104 9.17762 13.2476 9.04 13.3071 8.97303C13.3665 8.90606 13.4112 8.79822 13.4112 8.79822C13.4112 8.79822 13.5116 8.86519 13.4968 8.9879C13.4968 8.9879 13.5525 8.94328 13.6604 8.97303C13.7683 9.00278 13.8092 8.93209 13.8092 8.93209C13.8092 8.93209 13.8985 9.17012 13.6344 9.29287C13.6344 9.29287 13.705 9.32634 13.7385 9.3524C13.772 9.37844 13.8241 9.37844 13.8241 9.37844C13.8241 9.37844 13.7311 9.54953 13.534 9.56812C13.3369 9.58672 13.2463 9.6429 13.1844 9.74415C12.9835 10.0727 12.5991 10.3219 11.9718 9.93756C11.9718 9.93756 12.8645 10.2153 12.9041 9.64497C12.9389 9.14606 12.3934 9.0449 12.3388 9.154C12.2842 9.26309 12.3438 9.35734 12.3438 9.35734C12.3438 9.35734 12.0462 9.28794 12.19 9.01512C12.1901 9.01525 11.8975 9.0599 11.7388 8.66312Z" fill="#F8CB32"/>
<path d="M11.4861 9.49609C11.6324 9.70934 11.8357 9.90275 12.4259 10.0862C13.016 10.2697 13.1738 10.297 13.483 10.5471C13.483 10.5471 13.5418 10.6092 13.5643 10.7086C13.5907 10.8254 13.4106 11.1623 13.4106 11.1623C13.4106 11.1623 13.4279 11.083 13.3188 10.9293C13.2097 10.7756 12.565 10.4978 12.2278 10.4135C11.8905 10.3292 11.3078 9.93806 11.469 9.64484L11.4861 9.49609Z" fill="#73AF00"/>
<path d="M13.4829 10.5472C13.4832 10.5475 13.4833 10.5478 13.4836 10.5482C13.4832 10.5477 13.4828 10.5473 13.4824 10.5469L13.4829 10.5472Z" fill="#73AF00"/>
<path d="M13.467 11.2712C13.467 11.2712 13.4819 11.3791 13.3926 11.4721C13.3034 11.5651 13.2402 11.632 13.2439 11.7101C13.2439 11.7101 13.11 11.6134 13.1323 11.3977C13.1323 11.3977 12.9575 11.5427 12.6934 11.4014C12.6934 11.4014 12.7194 11.1373 13.0616 11.1038C13.0616 11.1038 12.9277 10.9997 13.1025 10.8397C13.1025 10.8397 13.1229 10.9113 13.2811 10.9476C13.4187 10.9792 13.6635 10.8067 13.4825 10.5469C13.7943 10.8992 13.6344 11.141 13.467 11.2712Z" fill="#F8CB32"/>
<path d="M11.3579 9.30078C11.3579 9.30078 11.4333 9.42406 11.6294 9.54378C11.865 9.68759 11.8861 9.75453 11.8861 9.75453L11.7262 9.75081C11.7262 9.75081 11.9308 9.86241 11.9865 10.0037C11.9865 10.0037 11.901 10.0186 11.8043 9.99256C11.8043 9.99256 11.8824 10.0632 11.8452 10.2901H11.4472L11.3579 9.30078Z" fill="#F8CB32"/>
<path d="M10.5662 10.3193V9.36719C10.5662 9.36719 10.243 9.92009 9.96387 10.3193H10.5662Z" fill="#73AF00"/>
<path d="M10.288 9.34694C10.2086 9.49075 9.96066 9.96438 9.3705 10.1479C8.78035 10.3313 8.67247 10.2967 8.36319 10.5468C8.36319 10.5468 8.30444 10.6088 8.28194 10.7083C8.25553 10.8251 8.43566 11.162 8.43566 11.162C8.43566 11.162 8.41831 11.0827 8.52741 10.9289C8.6365 10.7752 9.27756 10.4813 9.61844 10.4132C10.0898 10.3189 10.5163 9.81313 10.4469 9.48582C10.3775 9.15851 10.288 9.34694 10.288 9.34694Z" fill="#F8CB32"/>
<path d="M8.36392 10.5452C8.36365 10.5456 8.36355 10.5459 8.36328 10.5462C8.36368 10.5458 8.36402 10.5454 8.36442 10.5449L8.36392 10.5452Z" fill="#73AF00"/>
<path d="M8.37869 11.2712C8.37869 11.2712 8.36381 11.3791 8.45306 11.4721C8.54234 11.5651 8.60553 11.632 8.60184 11.7101C8.60184 11.7101 8.73575 11.6134 8.71344 11.3977C8.71344 11.3977 8.88825 11.5427 9.15234 11.4014C9.15234 11.4014 9.12631 11.1373 8.78409 11.1038C8.78409 11.1038 8.918 10.9997 8.74319 10.8397C8.74319 10.8397 8.72287 10.9113 8.56465 10.9476C8.42703 10.9792 8.18219 10.8067 8.36325 10.5469C8.05137 10.8992 8.21131 11.141 8.37869 11.2712Z" fill="#73AF00"/>
<path d="M9.20215 12.858C9.20215 12.858 9.28646 13.2374 9.29143 13.6292C9.29143 13.6292 9.6609 13.6416 9.83943 13.3639C9.83943 13.3639 9.48237 13.1779 9.29143 12.8184L9.20215 12.858Z" fill="#F8CB32"/>
<path d="M9.12285 12.02C9.10798 11.8415 9.18732 11.3902 9.54932 11.0629L9.5582 10.6621C9.5582 10.6621 9.45035 10.6733 9.35473 10.757L9.15014 11.0741L8.96045 11.792L9.12285 12.02Z" fill="#73AF00"/>
<path d="M9.13253 12.1498C9.13253 12.1498 9.13252 12.5317 9.29121 12.8193L9.20193 12.8589C9.20193 12.8589 8.88206 12.6072 8.81512 12.0902C8.81512 12.0902 8.52871 12.2799 8.42334 11.8919C8.42334 11.8919 8.73081 12.0159 8.82999 11.7332C8.91946 11.4781 9.00993 11.0138 9.35446 10.7578C9.19068 11.0095 8.94406 11.6538 9.13499 11.882C9.18556 11.9424 9.3309 11.9936 9.48996 11.9256C9.47962 12.0525 9.41909 12.2464 9.13253 12.1498Z" fill="#F8CB32"/>
<path d="M9.17902 12.9256L9.12677 12.8296C9.11765 12.8128 9.12383 12.7917 9.14065 12.7826L9.23599 12.7308C9.25277 12.7216 9.27377 12.7278 9.28293 12.7446L9.33518 12.8406C9.3443 12.8574 9.33811 12.8785 9.3213 12.8876L9.22596 12.9394C9.20918 12.9486 9.18818 12.9424 9.17902 12.9256Z" fill="#FFCE5A"/>
<path d="M12.4058 12.858C12.4058 12.858 12.3215 13.2374 12.3166 13.6292C12.3166 13.6292 11.9471 13.6416 11.7686 13.3639C11.7686 13.3639 12.1256 13.1779 12.3166 12.8184L12.4058 12.858Z" fill="#F8CB32"/>
<path d="M12.4851 12.02C12.5 11.8415 12.4207 11.3902 12.0587 11.0629L12.0498 10.6621C12.0498 10.6621 12.1576 10.6733 12.2533 10.757L12.4579 11.0741L12.6476 11.792L12.4851 12.02Z" fill="#F8CB32"/>
<path d="M12.1182 11.9256C12.2772 11.9936 12.4226 11.9424 12.4731 11.882C12.6641 11.6538 12.4174 11.0095 12.2537 10.7578C12.5982 11.0138 12.6886 11.4781 12.7781 11.7332C12.8773 12.0159 13.1848 11.8919 13.1848 11.8919C13.0794 12.2799 12.793 12.0902 12.793 12.0902C12.726 12.6072 12.4062 12.8589 12.4062 12.8589L12.3169 12.8193C12.4756 12.5316 12.4756 12.1497 12.4756 12.1497C12.189 12.2464 12.1285 12.0525 12.1182 11.9256Z" fill="#73AF00"/>
<path d="M12.4289 12.9256L12.4812 12.8296C12.4903 12.8128 12.4841 12.7917 12.4673 12.7826L12.372 12.7308C12.3552 12.7216 12.3342 12.7278 12.325 12.7446L12.2728 12.8406C12.2636 12.8574 12.2698 12.8785 12.2866 12.8876L12.382 12.9394C12.3988 12.9486 12.4198 12.9424 12.4289 12.9256Z" fill="#FFCE5A"/>
<path d="M9.61415 10.1992C9.54843 10.1992 9.49512 10.2525 9.49512 10.3182V11.6275C9.49512 11.9846 9.61415 13.2938 10.8044 13.7699C11.9946 13.2938 12.1136 11.9846 12.1136 11.6275V10.3182C12.1136 10.2525 12.0603 10.1992 11.9946 10.1992H9.61415Z" fill="#4173CD"/>
<path d="M10.7318 10.1992L9.60303 12.3627C9.63128 12.4627 9.6665 12.5663 9.71071 12.6709L10.804 10.5755L11.8972 12.6709C11.9414 12.5663 11.9766 12.4627 12.0049 12.3627L10.8761 10.1992H10.7318V10.1992Z" fill="#F8CB32"/>
<path d="M11.8974 12.6716L10.8042 10.5762L9.71094 12.6716C9.891 13.0978 10.2168 13.5356 10.8042 13.7705C11.3916 13.5356 11.7174 13.0978 11.8974 12.6716Z" fill="#73AF00"/>
<path d="M11.2466 12.8072L11.3186 12.8417C11.2884 12.8864 11.2256 12.9585 11.1054 13.024C11.0146 13.0734 10.9269 13.1318 10.8635 13.1766V12.1943L11.1611 12.1637V12.0447L10.8635 12.0141V11.8662C10.8635 11.8333 10.8368 11.8066 10.804 11.8066C10.7759 11.8066 10.7535 11.8264 10.7472 11.8525C10.7274 11.8384 10.7045 11.8283 10.6784 11.8283C10.6118 11.8283 10.5576 11.8825 10.5576 11.9491C10.5576 11.9804 10.5703 12.0085 10.59 12.03L10.4469 12.0447V12.1637L10.7445 12.1943V13.1766C10.6812 13.1318 10.5934 13.0733 10.5026 13.024C10.3824 12.9586 10.3196 12.8864 10.2894 12.8417L10.3614 12.8072L10.0898 12.4613V12.9374L10.1814 12.8935C10.2176 12.9518 10.2941 13.046 10.4457 13.1285C10.5726 13.1975 10.6957 13.2872 10.7445 13.3239L10.804 13.37L10.8635 13.3239C10.9123 13.2872 11.0354 13.1975 11.1622 13.1285C11.3139 13.046 11.3904 12.9518 11.4266 12.8935L11.5182 12.9374V12.4613L11.2466 12.8072ZM10.6784 12.0105C10.6446 12.0105 10.6171 11.983 10.6171 11.9491C10.6171 11.9153 10.6446 11.8878 10.6784 11.8878C10.7122 11.8878 10.7397 11.9153 10.7397 11.9491C10.7397 11.983 10.7122 12.0105 10.6784 12.0105Z" fill="#F8CB32"/>
<path d="M10.896 11.7476H10.7121C10.6643 11.7476 10.6255 11.7089 10.6255 11.661V11.3581C10.6255 11.3103 10.6642 11.2715 10.7121 11.2715H10.896C10.9438 11.2715 10.9826 11.3102 10.9826 11.3581V11.661C10.9826 11.7089 10.9438 11.7476 10.896 11.7476Z" fill="white"/>
<path d="M11.6369 10.1997C11.3988 9.84259 11.3988 9.12844 11.3988 9.12844C11.3988 9.12844 11.3988 8.65234 10.8037 8.65234C10.5023 8.65234 10.3538 8.77453 10.2804 8.89506C9.99481 9.00981 9.85156 9.24744 9.85156 9.24744C9.97331 9.30834 10.0809 9.33734 10.1785 9.34478C10.3726 9.57569 10.4371 9.79865 10.4543 9.95903C10.3425 10.0732 10.2806 10.3484 10.4467 10.5567C10.4467 10.5567 10.7988 10.4749 11.096 10.1996H11.6368V10.1997H11.6369V10.1997Z" fill="#B49B91"/>
<path d="M11.0967 10.2004H11.5409C11.5186 9.981 11.3028 10.0163 11.0967 10.2004Z" fill="#9B8278"/>
<path d="M11.5298 9.9757C11.3997 9.60639 11.3995 9.1292 11.3995 9.1292C11.3995 9.1292 11.3995 9.12145 11.3983 9.10811C11.2433 9.08708 11.0847 9.09849 10.7747 9.21849C10.4446 9.34624 10.283 9.34989 10.1792 9.34558C10.3732 9.57648 10.4378 9.79945 10.4549 9.95983L10.4597 10.2128C10.4597 10.2128 10.6457 10.2401 11.0548 10.0045C11.2589 9.88702 11.4319 9.87695 11.5298 9.9757Z" fill="#9B8278"/>
<path d="M10.896 9.07637C11.1374 9.01603 11.2915 9.02225 11.3907 9.05747C11.3641 8.92487 11.2548 8.65234 10.8043 8.65234C10.5028 8.65234 10.3544 8.77453 10.281 8.89506L10.1001 9.14828C10.1001 9.14828 10.3263 9.21878 10.896 9.07637Z" fill="#9B8278"/>
<path d="M10.4107 8.59974C10.4342 8.62311 10.5041 8.79174 10.4897 8.8168C10.4804 8.83289 10.2942 8.87921 10.264 8.85558C10.237 8.83452 10.2055 8.65289 10.2236 8.63193C10.2399 8.61299 10.3912 8.58024 10.4107 8.59974Z" fill="#F8CB32"/>
<path d="M10.6503 8.59222C10.6719 8.61701 10.7209 8.78185 10.7015 8.80288C10.689 8.81641 10.4814 8.83279 10.4526 8.80685C10.4269 8.78372 10.4212 8.61226 10.4439 8.59557C10.4644 8.58041 10.6322 8.57154 10.6503 8.59222Z" fill="#73AF00"/>
<path d="M10.877 8.58583C10.8994 8.60917 10.9505 8.76417 10.9305 8.78386C10.9176 8.79652 10.7028 8.81142 10.6729 8.78695C10.6463 8.76514 10.64 8.60408 10.6634 8.58842C10.6847 8.57427 10.8583 8.56636 10.877 8.58583Z" fill="#F8CB32"/>
<path d="M11.1076 8.59573C11.1275 8.6212 11.1648 8.78382 11.144 8.8027C11.1307 8.81479 10.9225 8.81536 10.8956 8.78817C10.8716 8.76392 10.8778 8.59817 10.9016 8.58373C10.9231 8.57067 11.0911 8.57445 11.1076 8.59573Z" fill="#73AF00"/>
<path d="M11.5832 8.695C11.5985 8.72341 11.5971 8.87447 11.5734 8.88963C11.5582 8.89935 11.3708 8.86594 11.3487 8.83469C11.329 8.80681 11.3626 8.64438 11.3884 8.63403C11.4117 8.62469 11.5704 8.67125 11.5832 8.695Z" fill="#73AF00"/>
<path d="M11.364 8.63109C11.3828 8.65697 11.3971 8.80862 11.3745 8.82465C11.3599 8.83497 11.1454 8.81734 11.1194 8.78931C11.0962 8.76428 11.1131 8.60797 11.1386 8.59634C11.1616 8.58578 11.3483 8.60953 11.364 8.63109Z" fill="#F8CB32"/>
<path d="M10.3973 8.30445C10.442 8.30445 10.4783 8.26822 10.4783 8.22352C10.4783 8.17881 10.442 8.14258 10.3973 8.14258C10.3526 8.14258 10.3164 8.17881 10.3164 8.22352C10.3164 8.26822 10.3526 8.30445 10.3973 8.30445Z" fill="#9B8278"/>
<path d="M10.2837 1H9.70779L6.63654 3.0081V1H4.97873V3.0081L1.90748 1H1.33158C1.14847 1 1 1.14817 1 1.3309V1.59336L3.635 3.31622H1V4.97067H3.635L1 6.69356V6.95598C1 7.13871 1.14847 7.28688 1.33158 7.28688H1.90748L4.97873 5.27878V7.28688H6.63654V5.27878L9.70776 7.28688H10.2837C10.4668 7.28688 10.6152 7.13871 10.6152 6.95598V6.69352L7.98027 4.97067H10.6152V3.31622H7.98024L10.6152 1.59336V1.3309C10.6152 1.14817 10.4668 1 10.2837 1Z" fill="white"/>
<path d="M10.6152 3.64712H6.30496V1H5.31027V3.64712H1V4.63976H5.31027V7.28688H6.30496V4.63976H10.6152V3.64712Z" fill="#FF334B"/>
<path d="M4.98131 3.30356L1.17249 1C1.07114 1.05978 1 1.16018 1 1.28024V1.29774L4.31652 3.30356H4.98131Z" fill="#FF334B"/>
<path d="M7.24878 3.30356L10.5821 1.16503C10.5242 1.06815 10.422 1 10.2998 1H10.2278L6.63721 3.30356H7.24878Z" fill="#FF334B"/>
<path d="M4.37031 4.97656L1.04688 7.1172C1.10418 7.21673 1.20788 7.28683 1.33169 7.28683H1.39442L4.98123 4.97656H4.37031Z" fill="#FF334B"/>
<path d="M10.6152 6.98175L7.52337 4.97656H6.91699L10.4279 7.25361C10.5331 7.20484 10.6052 7.10264 10.6152 6.98175Z" fill="#FF334B"/>
</svg>
