<svg width="16" height="16" viewBox="0 0 16 16" fill="none" xmlns="http://www.w3.org/2000/svg">
<g clip-path="url(#clip0_5367_189878)">
<rect x="1" y="1" width="14" height="14" rx="2" fill="white"/>
<path d="M4.11816 1.00004L6.32507 1.87504L4.11816 2.75004L6.32507 3.62503L4.11816 4.50003L6.32507 5.37503L4.11816 6.25003L6.32507 7.12502L4.11816 8.00002L6.32507 8.87502L4.11816 9.75002L6.32507 10.625L4.11816 11.5L6.32507 12.375L4.11816 13.25L6.32507 14.125L4.11816 15H15.4285C15.5808 15 15.7044 14.835 15.7044 14.6316V1.36845C15.7044 1.16498 15.5808 1 15.4285 1H4.11816V1.00004V1.00004Z" fill="#873250"/>
</g>
<defs>
<clipPath id="clip0_5367_189878">
<rect x="1" y="1" width="14" height="14" rx="2" fill="white"/>
</clipPath>
</defs>
</svg>
