<svg width="16" height="16" viewBox="0 0 16 16" fill="none" xmlns="http://www.w3.org/2000/svg">
<g clip-path="url(#clip0_5367_189830)">
<rect x="1" y="0.974609" width="14" height="14" rx="2" fill="#FF334B"/>
<path d="M1.24139 0.974609H14.7586C14.8919 0.974609 15 1.13959 15 1.34305V5.64128H1V1.34305C1 1.13959 1.10809 0.974609 1.24139 0.974609Z" fill="#FF334B"/>
<path d="M15 5.64062H1V10.3073H15V5.64062Z" fill="#41479B"/>
<path d="M1 10.3086H15V14.6068C15 14.8103 14.8919 14.9753 14.7586 14.9753H1.24139C1.10809 14.9753 1 14.8103 1 14.6068V10.3086Z" fill="white"/>
<path d="M6.15695 6.20065H3.79189L3.69336 5.60938H6.25548L6.15695 6.20065Z" fill="#F8CB32"/>
<path d="M3.76709 6.05273L3.79172 6.20057H6.15678L6.18141 6.05273H3.76709Z" fill="#FFD350"/>
<path d="M5.02357 4.23047H4.92529V4.62464H5.02357V4.23047Z" fill="#F8CB32"/>
<path d="M5.1223 4.32812H4.82666V4.42666H5.1223V4.32812Z" fill="#F8CB32"/>
<path d="M6.16485 5.80758C6.15369 5.80758 6.14237 5.80565 6.13125 5.8017C6.08008 5.78314 6.05363 5.72665 6.0722 5.67545L6.28095 5.0994C6.29129 5.07082 6.28883 5.03937 6.27425 5.0131C6.26647 4.99915 6.24839 4.97459 6.21382 4.96719C5.95934 4.91312 5.46604 4.82218 5.02223 4.82218H4.92704C4.48324 4.82218 3.98994 4.91312 3.73534 4.9673C3.70089 4.97459 3.68273 4.99915 3.67499 5.0131C3.6604 5.03937 3.65795 5.07082 3.66833 5.0994L3.877 5.67545C3.89557 5.72665 3.86912 5.78314 3.81795 5.8017C3.76682 5.81997 3.71023 5.7937 3.69173 5.74261L3.48298 5.16656C3.45322 5.08436 3.46032 4.99361 3.50256 4.91747C3.54338 4.84387 3.61318 4.7917 3.69415 4.77447C3.95637 4.71866 4.46508 4.625 4.92697 4.625H5.02215C5.48405 4.625 5.99275 4.71862 6.25486 4.77432C6.33594 4.79166 6.40575 4.8438 6.44657 4.91744C6.4888 4.99357 6.49591 5.08429 6.46618 5.16652L6.25739 5.74258C6.24299 5.78269 6.20511 5.80758 6.16485 5.80758Z" fill="#F8CB32"/>
<path d="M4.975 5.72038C4.9206 5.72038 4.87646 5.67632 4.87646 5.62185V4.82119C4.87646 4.76671 4.9206 4.72266 4.975 4.72266C5.0294 4.72266 5.07353 4.76671 5.07353 4.82119V5.62185C5.07357 5.67628 5.02944 5.72038 4.975 5.72038Z" fill="#F8CB32"/>
<path d="M5.65627 5.80755C5.64961 5.80755 5.64287 5.80688 5.63614 5.80554C5.58285 5.79445 5.54858 5.74232 5.55967 5.68899L5.67919 5.11294C5.69474 5.03789 5.67041 4.97214 5.65656 4.9606C5.51993 4.91048 5.2458 4.8221 5.00188 4.8221H4.94737C4.70349 4.8221 4.42937 4.91048 4.28763 4.96317C4.27889 4.97214 4.25455 5.03785 4.27007 5.1129L4.38959 5.68896C4.40068 5.74224 4.36644 5.79445 4.31312 5.8055C4.25976 5.81581 4.20759 5.78232 4.19665 5.729L4.07713 5.15294C4.04736 5.00935 4.09306 4.82545 4.21883 4.77849C4.40722 4.70846 4.68638 4.625 4.94733 4.625H5.00185C5.26284 4.625 5.54199 4.70843 5.73028 4.77838C5.85616 4.82545 5.90186 5.00935 5.87209 5.15294L5.75257 5.729C5.74297 5.77562 5.70196 5.80755 5.65627 5.80755Z" fill="#F8CB32"/>
<path d="M3.71799 5.75717H6.23085L6.25548 5.60938H3.69336L3.71799 5.75717Z" fill="#FFD350"/>
<path d="M3.10195 6.20117C3.04755 6.20117 3.00342 6.2453 3.00342 6.2997V9.74115C3.00342 10.8338 3.88579 11.7196 4.9743 11.7196C6.06282 11.7196 6.94519 10.8338 6.94519 9.74115V6.2997C6.94519 6.2453 6.90106 6.20117 6.84666 6.20117H3.10195Z" fill="#FF334B"/>
<path d="M5.1715 9.45364L5.36861 8.96094L4.97444 9.05947L4.58027 8.96094L4.77737 9.45364L4.28467 11.1289C4.28467 11.1289 4.5803 11.326 4.97447 11.326C5.36864 11.326 5.66428 11.1289 5.66428 11.1289L5.1715 9.45364Z" fill="white"/>
<path d="M4.26047 9.84997L4.08658 9.89347L4.46907 9.20504L4.29678 9.10938L3.83221 9.94557H3.39748V10.1427H3.60921L3.33594 10.3613L3.45903 10.5153L3.69119 10.3295L3.59961 10.6042L3.78659 10.6665L3.96658 10.1266L4.30828 10.0411L4.26047 9.84997Z" fill="#F8CB32"/>
<path d="M4.28466 7.18785L3.83482 6.96292C3.75222 6.92161 3.70935 6.82844 3.73175 6.73884L3.7572 6.63706C3.77484 6.56644 3.72144 6.49805 3.64862 6.49805C3.61461 6.49805 3.58246 6.51349 3.56125 6.54006C3.32783 6.83182 3.20068 7.19433 3.20068 7.56799V9.65144C3.20068 9.65144 3.61219 9.56917 3.98389 9.02847C4.05213 8.92919 4.16447 8.87043 4.28425 8.86429L4.08756 9.45434L4.48176 9.55291L4.82667 9.14248L4.28466 7.18785Z" fill="white"/>
<path d="M5.68809 9.84997L5.86198 9.89347L5.47949 9.20504L5.65178 9.10938L6.11631 9.94557H6.55108V10.1427H6.33931L6.61262 10.3613L6.48953 10.5153L6.25738 10.3295L6.34895 10.6042L6.16193 10.6665L5.98198 10.1266L5.64028 10.0411L5.68809 9.84997Z" fill="#F8CB32"/>
<path d="M5.66404 7.18785L6.11388 6.96292C6.19648 6.92161 6.23935 6.82844 6.21695 6.73884L6.1915 6.63706C6.17386 6.56644 6.22726 6.49805 6.30008 6.49805C6.33409 6.49805 6.36624 6.51349 6.38745 6.54006C6.62087 6.83182 6.74802 7.19433 6.74802 7.56799V9.65144C6.74802 9.65144 6.33651 9.56917 5.96481 9.02847C5.89657 8.92919 5.78423 8.87043 5.66445 8.86429L5.86114 9.45434L5.46697 9.55287L5.12207 9.14244L5.66404 7.18785Z" fill="white"/>
<path d="M4.38336 6.49805H3.89062L4.03846 6.69515L4.38336 6.79368L4.18626 6.89222H4.4819L4.38336 6.49805Z" fill="#F8CB32"/>
<path d="M5.56582 6.49805H6.05852L5.91072 6.69515L5.56582 6.79368L5.76292 6.89222H5.46729L5.56582 6.49805Z" fill="#F8CB32"/>
<path d="M5.63507 6.41892L5.1715 6.49617L4.97439 6.89034L4.77729 6.49617L4.31372 6.41892C4.26059 6.41006 4.21981 6.46525 4.24392 6.51343L4.48169 6.98891L4.28459 7.18601H4.97439H5.6642L5.4671 6.98891L5.70484 6.51343C5.72895 6.46521 5.6882 6.41003 5.63507 6.41892Z" fill="white"/>
<path d="M4.97446 5.80146C5.05609 5.80146 5.12226 5.73529 5.12226 5.65366C5.12226 5.57203 5.05609 5.50586 4.97446 5.50586C4.89283 5.50586 4.82666 5.57203 4.82666 5.65366C4.82666 5.73529 4.89283 5.80146 4.97446 5.80146Z" fill="#FFBE50"/>
<path d="M4.97227 6.08807C5.03678 6.08807 5.08908 6.05131 5.08908 6.00595C5.08908 5.9606 5.03678 5.92383 4.97227 5.92383C4.90776 5.92383 4.85547 5.9606 4.85547 6.00595C4.85547 6.05131 4.90776 6.08807 4.97227 6.08807Z" fill="#41479B"/>
<path d="M4.38926 6.08807C4.45377 6.08807 4.50607 6.05131 4.50607 6.00595C4.50607 5.9606 4.45377 5.92383 4.38926 5.92383C4.32476 5.92383 4.27246 5.9606 4.27246 6.00595C4.27246 6.05131 4.32476 6.08807 4.38926 6.08807Z" fill="#FF334B"/>
<path d="M3.80626 6.08807C3.87077 6.08807 3.92306 6.05131 3.92306 6.00595C3.92306 5.9606 3.87077 5.92383 3.80626 5.92383C3.74175 5.92383 3.68945 5.9606 3.68945 6.00595C3.68945 6.05131 3.74175 6.08807 3.80626 6.08807Z" fill="#41479B"/>
<path d="M6.13829 6.08808C6.2028 6.08808 6.25509 6.05131 6.25509 6.00595C6.25509 5.9606 6.2028 5.92383 6.13829 5.92383C6.07378 5.92383 6.02148 5.9606 6.02148 6.00595C6.02148 6.05131 6.07378 6.08808 6.13829 6.08808Z" fill="#41479B"/>
<path d="M5.55528 6.08807C5.61979 6.08807 5.67208 6.05131 5.67208 6.00595C5.67208 5.9606 5.61979 5.92383 5.55528 5.92383C5.49077 5.92383 5.43848 5.9606 5.43848 6.00595C5.43848 6.05131 5.49077 6.08807 5.55528 6.08807Z" fill="#FF334B"/>
<path d="M5.65854 5.80146C5.74017 5.80146 5.80634 5.73529 5.80634 5.65366C5.80634 5.57203 5.74017 5.50586 5.65854 5.50586C5.57691 5.50586 5.51074 5.57203 5.51074 5.65366C5.51074 5.73529 5.57691 5.80146 5.65854 5.80146Z" fill="#FFBE50"/>
<path d="M6.19907 5.80146C6.2807 5.80146 6.34687 5.73529 6.34687 5.65366C6.34687 5.57203 6.2807 5.50586 6.19907 5.50586C6.11744 5.50586 6.05127 5.57203 6.05127 5.65366C6.05127 5.73529 6.11744 5.80146 6.19907 5.80146Z" fill="#FFBE50"/>
<path d="M4.2894 5.80146C4.37103 5.80146 4.4372 5.73529 4.4372 5.65366C4.4372 5.57203 4.37103 5.50586 4.2894 5.50586C4.20777 5.50586 4.1416 5.57203 4.1416 5.65366C4.1416 5.73529 4.20777 5.80146 4.2894 5.80146Z" fill="#FFBE50"/>
<path d="M3.74887 5.80146C3.8305 5.80146 3.89667 5.73529 3.89667 5.65366C3.89667 5.57203 3.8305 5.50586 3.74887 5.50586C3.66725 5.50586 3.60107 5.57203 3.60107 5.65366C3.60107 5.73529 3.66725 5.80146 3.74887 5.80146Z" fill="#FFBE50"/>
<path d="M5.1442 4.82103C5.16113 4.79197 5.17155 4.75859 5.17155 4.72249C5.17155 4.61365 5.08333 4.52539 4.97445 4.52539C4.86557 4.52539 4.77734 4.61362 4.77734 4.72249C4.77734 4.75859 4.78773 4.79197 4.80469 4.82103H5.1442Z" fill="#41479B"/>
<path d="M4.97442 9.20614C4.56686 9.20614 4.23535 8.87463 4.23535 8.46706V7.13672H5.7135V8.46706C5.7135 8.87467 5.38199 9.20614 4.97442 9.20614Z" fill="#FF334B"/>
<path d="M5.66414 7.18642V8.4675C5.66414 8.84846 5.3553 9.15731 4.97434 9.15731C4.59338 9.15731 4.28453 8.84846 4.28453 8.4675V7.18642H5.66414V7.18642ZM5.76271 7.08789H5.66418H4.28457H4.18604V7.18642V8.4675C4.18604 8.90219 4.53968 9.25584 4.97437 9.25584C5.40907 9.25584 5.76271 8.90219 5.76271 8.4675V7.18642V7.08789V7.08789Z" fill="#A54B50"/>
<path d="M4.8267 9.14213C4.87436 9.15254 4.9237 9.15839 4.9745 9.15839C5.02529 9.15839 5.07463 9.15251 5.1223 9.14213V7.1875H4.82666C4.8267 7.1875 4.8267 9.14213 4.8267 9.14213Z" fill="white"/>
<path d="M5.66443 8H4.28467V8.29564H5.66443V8Z" fill="white"/>
</g>
<defs>
<clipPath id="clip0_5367_189830">
<rect x="1" y="0.974609" width="14" height="14" rx="2" fill="white"/>
</clipPath>
</defs>
</svg>
