<svg width="16" height="16" viewBox="0 0 16 16" fill="none" xmlns="http://www.w3.org/2000/svg">
<g clip-path="url(#clip0_5367_189780)">
<rect x="15" y="1" width="14" height="14" rx="2" transform="rotate(90 15 1)" fill="#F8CB32"/>
<path d="M13.2813 1H1.29956C1.13414 1 1 1.16494 1 1.3684V14.6316C1 14.7354 1.03553 14.8284 1.09172 14.8954L13.2813 1Z" fill="#41479B"/>
<path d="M2.697 2.23644L2.56064 2.64528L2.12967 2.64863C2.08835 2.64894 2.07121 2.70169 2.10445 2.72624L2.45114 2.98227L2.32115 3.39318C2.30865 3.4326 2.35355 3.46517 2.38719 3.44117L2.73783 3.19057L3.08847 3.44117C3.12209 3.4652 3.16695 3.4326 3.15452 3.39318L3.02453 2.98227L3.37121 2.72624C3.40445 2.70169 3.38731 2.64894 3.34599 2.64863L2.91503 2.64528L2.77866 2.23644C2.76556 2.19723 2.7101 2.19723 2.697 2.23644Z" fill="white"/>
<path d="M5.98021 2.23644L5.84384 2.64528L5.41287 2.64863C5.37155 2.64894 5.35441 2.70169 5.38765 2.72624L5.73434 2.98227L5.60435 3.39318C5.59186 3.4326 5.63675 3.46517 5.6704 3.44117L6.02103 3.19057L6.37167 3.44117C6.40529 3.4652 6.45016 3.4326 6.43772 3.39318L6.30773 2.98227L6.65442 2.72624C6.68766 2.70169 6.67052 2.64894 6.6292 2.64863L6.19823 2.64528L6.06186 2.23644C6.04873 2.19723 5.99328 2.19723 5.98021 2.23644Z" fill="white"/>
<path d="M4.3386 3.69933L4.20224 4.10817L3.77127 4.11152C3.72995 4.11183 3.71281 4.16458 3.74605 4.18913L4.09274 4.44516L3.96275 4.85607C3.95025 4.89549 3.99515 4.92806 4.0288 4.90406L4.37943 4.65346L4.73007 4.90406C4.76369 4.92809 4.80856 4.89549 4.79612 4.85607L4.66613 4.44516L5.01282 4.18913C5.04606 4.16458 5.02892 4.11183 4.9876 4.11152L4.55663 4.10817L4.42026 3.69933C4.40711 3.66012 4.35168 3.66012 4.3386 3.69933Z" fill="white"/>
<path d="M2.697 5.16222L2.56064 5.57106L2.12967 5.57441C2.08835 5.57472 2.07121 5.62747 2.10445 5.65202L2.45114 5.90805L2.32115 6.31896C2.30865 6.35838 2.35355 6.39095 2.38719 6.36695L2.73783 6.11635L3.08847 6.36695C3.12209 6.39098 3.16695 6.35838 3.15452 6.31896L3.02453 5.90805L3.37121 5.65202C3.40445 5.62747 3.38731 5.57472 3.34599 5.57441L2.91503 5.57106L2.77866 5.16222C2.76556 5.12301 2.7101 5.12301 2.697 5.16222Z" fill="white"/>
<path d="M5.98021 5.16222L5.84384 5.57106L5.41287 5.57441C5.37155 5.57472 5.35441 5.62747 5.38765 5.65202L5.73434 5.90805L5.60435 6.31896C5.59186 6.35838 5.63675 6.39095 5.6704 6.36695L6.02103 6.11635L6.37167 6.36695C6.40529 6.39098 6.45016 6.35838 6.43772 6.31896L6.30773 5.90805L6.65442 5.65202C6.68766 5.62747 6.67052 5.57472 6.6292 5.57441L6.19823 5.57106L6.06186 5.16222C6.04873 5.12301 5.99328 5.12301 5.98021 5.16222Z" fill="white"/>
<path d="M14.9085 1.10547L2.75 15.0009H14.7012C14.8662 15.0009 15 14.8359 15 14.6324V1.36928C15 1.2654 14.9645 1.17241 14.9085 1.10547Z" fill="#73AF00"/>
</g>
<defs>
<clipPath id="clip0_5367_189780">
<rect x="15" y="1" width="14" height="14" rx="2" transform="rotate(90 15 1)" fill="white"/>
</clipPath>
</defs>
</svg>
