<svg width="16" height="16" viewBox="0 0 16 16" fill="none" xmlns="http://www.w3.org/2000/svg">
<g clip-path="url(#clip0_5367_189740)">
<rect x="15" y="1" width="14" height="14" rx="2" transform="rotate(90 15 1)" fill="#FF334B"/>
<path d="M14.7586 15L1.24139 15C1.10809 15 1 14.7525 1 14.4473L1 8L15 8L15 14.4473C15 14.7525 14.8919 15 14.7586 15Z" fill="white"/>
<path d="M3.51773 4.38315C3.51773 3.47603 4.18336 2.72406 5.05251 2.58496C5.0997 2.5774 5.10183 2.5125 5.05526 2.50175C4.84008 2.45228 4.61155 2.43818 4.37423 2.4705C3.4368 2.59818 2.71217 3.40943 2.69892 4.35543C2.68383 5.43562 3.55464 6.31518 4.6297 6.31518C4.77605 6.31518 4.91814 6.29808 5.05489 6.26661C5.10142 6.25593 5.09908 6.19086 5.05195 6.1833C4.18314 6.0443 3.51773 5.2938 3.51773 4.38315Z" fill="white"/>
<path d="M5.06719 4.86947L4.98554 5.11434L4.72744 5.11634C4.69404 5.11662 4.68016 5.15925 4.70707 5.17909L4.91469 5.33244L4.83682 5.57853C4.82675 5.6104 4.86304 5.63675 4.89019 5.61731L5.10019 5.46722L5.31019 5.61731C5.33738 5.63675 5.37363 5.61037 5.36357 5.57853L5.28569 5.33244L5.49332 5.17909C5.52022 5.15922 5.50635 5.11662 5.47294 5.11634L5.21485 5.11434L5.13319 4.86947C5.1226 4.83778 5.07775 4.83778 5.06719 4.86947Z" fill="white"/>
<path d="M6.34307 4.86947L6.26141 5.11434L6.00332 5.11634C5.96992 5.11662 5.95604 5.15925 5.98295 5.17909L6.19057 5.33244L6.1127 5.57853C6.10263 5.6104 6.13891 5.63675 6.16607 5.61731L6.37607 5.46722L6.58607 5.61731C6.61326 5.63675 6.64951 5.61037 6.63945 5.57853L6.56157 5.33244L6.7692 5.17909C6.7961 5.15922 6.78223 5.11662 6.74882 5.11634L6.49073 5.11434L6.40907 4.86947C6.39848 4.83778 6.35366 4.83778 6.34307 4.86947Z" fill="white"/>
<path d="M5.71075 2.89877L5.62909 3.14364L5.371 3.14564C5.33759 3.14592 5.32372 3.18855 5.35062 3.20839L5.55825 3.36173L5.48037 3.60783C5.47031 3.6397 5.50659 3.66605 5.53375 3.64661L5.74375 3.49651L5.95375 3.64661C5.98093 3.66605 6.01718 3.63967 6.00712 3.60783L5.92925 3.36173L6.13687 3.20839C6.16378 3.18851 6.1499 3.14592 6.11649 3.14564L5.8584 3.14364L5.77675 2.89877C5.76615 2.86708 5.72131 2.86708 5.71075 2.89877Z" fill="white"/>
<path d="M4.69366 3.65462L4.612 3.8995L4.35391 3.9015C4.3205 3.90178 4.30663 3.94441 4.33353 3.96425L4.54116 4.11759L4.46328 4.36369C4.45322 4.39556 4.4895 4.4219 4.51666 4.40247L4.72666 4.25237L4.93666 4.40247C4.96384 4.4219 5.00009 4.39553 4.99003 4.36369L4.91216 4.11759L5.11978 3.96425C5.14669 3.94437 5.13281 3.90178 5.09941 3.9015L4.84131 3.8995L4.75966 3.65462C4.74906 3.62294 4.70425 3.62294 4.69366 3.65462Z" fill="white"/>
<path d="M6.71954 3.65462L6.63788 3.8995L6.37979 3.9015C6.34638 3.90178 6.33251 3.94441 6.35941 3.96425L6.56704 4.11759L6.48916 4.36369C6.4791 4.39556 6.51538 4.4219 6.54254 4.40247L6.75254 4.25237L6.96253 4.40247C6.98972 4.4219 7.02597 4.39553 7.01591 4.36369L6.93803 4.11759L7.14566 3.96425C7.17257 3.94437 7.15869 3.90178 7.12528 3.9015L6.86719 3.8995L6.78554 3.65462C6.77494 3.62294 6.7301 3.62294 6.71954 3.65462Z" fill="white"/>
</g>
<defs>
<clipPath id="clip0_5367_189740">
<rect x="15" y="1" width="14" height="14" rx="2" transform="rotate(90 15 1)" fill="white"/>
</clipPath>
</defs>
</svg>
