<svg width="16" height="16" viewBox="0 0 16 16" fill="none" xmlns="http://www.w3.org/2000/svg">
<g clip-path="url(#clip0_5367_189638)">
<rect x="15" y="0.974609" width="14" height="14" rx="2" transform="rotate(90 15 0.974609)" fill="white"/>
<path d="M14.7586 14.9746L1.24139 14.9746C1.10809 14.9746 1 14.7271 1 14.422L1 7.97461L15 7.97461L15 14.422C15 14.7271 14.8919 14.9746 14.7586 14.9746Z" fill="#82AFFF"/>
<path d="M7.99829 10.2905C7.95158 10.2885 6.84858 10.2321 6.29502 9.47365C5.97239 9.03172 5.90802 8.4439 6.10367 7.72656L6.1827 7.74813C5.99402 8.44009 6.05395 9.00422 6.36095 9.42506C6.89089 10.1516 7.99076 10.2082 8.00189 10.2087L7.99829 10.2905Z" fill="#B46446"/>
<path d="M6.10275 7.40805C6.04837 7.5497 6.06078 7.69805 6.12375 7.81048C6.24581 7.76908 6.35428 7.66714 6.40868 7.52548C6.46306 7.38383 6.45065 7.23548 6.38768 7.12305C6.26559 7.16445 6.15712 7.26636 6.10275 7.40805Z" fill="#41AA5A"/>
<path d="M6.79379 9.36719C6.73342 9.46678 6.71757 9.60031 6.76232 9.72994C6.80407 9.85106 6.89026 9.94041 6.99014 9.9855C6.89311 9.93462 6.7697 9.92191 6.64857 9.96369C6.51895 10.0084 6.42357 10.1032 6.38232 10.2121C6.48192 10.2724 6.61542 10.2883 6.74507 10.2435C6.8747 10.1988 6.97007 10.1041 7.01132 9.99516L7.0112 9.99509C7.07107 9.89562 7.08676 9.76262 7.0422 9.63344C6.99748 9.50381 6.90273 9.40841 6.79379 9.36719Z" fill="#41AA5A"/>
<path d="M6.55762 9.00586C6.4645 9.07577 6.4 9.19377 6.39315 9.3307C6.38675 9.45867 6.4334 9.5737 6.50925 9.65276C6.43815 9.56939 6.32837 9.51155 6.2005 9.50514C6.06356 9.49826 5.93971 9.55067 5.86084 9.63636C5.93075 9.72948 6.04875 9.79398 6.18565 9.80083C6.32259 9.8077 6.44643 9.7553 6.52531 9.66961C6.52528 9.66958 6.52525 9.66954 6.52525 9.66954C6.61784 9.59951 6.68196 9.48195 6.68884 9.34548C6.69568 9.20855 6.64331 9.08467 6.55762 9.00586Z" fill="#41AA5A"/>
<path d="M6.45548 8.59766C6.34286 8.62725 6.23858 8.71219 6.18058 8.83637C6.12633 8.95247 6.12614 9.07659 6.16655 9.17844C6.13217 9.07441 6.05236 8.97941 5.9363 8.92519C5.81205 8.86716 5.67761 8.86891 5.57227 8.9185C5.60186 9.03112 5.6868 9.13541 5.81098 9.19341C5.93523 9.25144 6.06967 9.24969 6.17501 9.20009C6.17501 9.20009 6.17498 9.2 6.17495 9.19997C6.28717 9.17009 6.39092 9.08544 6.44873 8.96166C6.50683 8.83753 6.50511 8.703 6.45548 8.59766Z" fill="#41AA5A"/>
<path d="M6.51332 8.19379C6.39741 8.18226 6.2701 8.22557 6.17244 8.32179C6.08116 8.41173 6.03769 8.52801 6.0401 8.63754C6.04413 8.52807 6.00241 8.4112 5.9125 8.31995C5.81625 8.22226 5.68963 8.17707 5.5736 8.18685C5.56207 8.30276 5.60535 8.43001 5.7016 8.52773C5.79785 8.62545 5.92447 8.6706 6.0405 8.66082C6.0405 8.66082 6.0405 8.66073 6.0405 8.66063C6.1561 8.67173 6.28285 8.62857 6.38019 8.53267C6.47791 8.43648 6.5231 8.30982 6.51332 8.19379Z" fill="#41AA5A"/>
<path d="M6.59511 7.8088C6.48273 7.77823 6.35001 7.79989 6.23776 7.87861C6.13286 7.9522 6.07076 8.05967 6.05501 8.16814C6.07711 8.06083 6.0553 7.9387 5.98176 7.83383C5.90305 7.72158 5.78564 7.65605 5.66955 7.64648C5.63898 7.75886 5.66064 7.89158 5.73936 8.00383C5.81808 8.11608 5.93548 8.18161 6.05158 8.19117C6.05158 8.19111 6.05158 8.19108 6.05158 8.19108C6.1637 8.22111 6.29589 8.19948 6.40776 8.12102C6.52001 8.04227 6.58554 7.92486 6.59511 7.8088Z" fill="#41AA5A"/>
<path d="M6.62782 10.0164C6.67496 10.0164 6.71317 9.97818 6.71317 9.93105C6.71317 9.88391 6.67496 9.8457 6.62782 9.8457C6.58069 9.8457 6.54248 9.88391 6.54248 9.93105C6.54248 9.97818 6.58069 10.0164 6.62782 10.0164Z" fill="#F8CB32"/>
<path d="M7.01991 10.0652C7.06705 10.0652 7.10526 10.027 7.10526 9.97988C7.10526 9.93274 7.06705 9.89453 7.01991 9.89453C6.97278 9.89453 6.93457 9.93274 6.93457 9.97988C6.93457 10.027 6.97278 10.0652 7.01991 10.0652Z" fill="#F8CB32"/>
<path d="M6.40273 9.37186C6.44986 9.37186 6.48807 9.33365 6.48807 9.28652C6.48807 9.23938 6.44986 9.20117 6.40273 9.20117C6.35559 9.20117 6.31738 9.23938 6.31738 9.28652C6.31738 9.33365 6.35559 9.37186 6.40273 9.37186Z" fill="#F8CB32"/>
<path d="M5.85976 8.73123C5.90689 8.73123 5.9451 8.69302 5.9451 8.64589C5.9451 8.59876 5.90689 8.56055 5.85976 8.56055C5.81262 8.56055 5.77441 8.59876 5.77441 8.64589C5.77441 8.69302 5.81262 8.73123 5.85976 8.73123Z" fill="#F8CB32"/>
<path d="M6.23866 8.29569C6.2858 8.29569 6.32401 8.25748 6.32401 8.21034C6.32401 8.16321 6.2858 8.125 6.23866 8.125C6.19153 8.125 6.15332 8.16321 6.15332 8.21034C6.15332 8.25748 6.19153 8.29569 6.23866 8.29569Z" fill="#F8CB32"/>
<path d="M6.09511 7.85038C6.14224 7.85038 6.18045 7.81217 6.18045 7.76503C6.18045 7.7179 6.14224 7.67969 6.09511 7.67969C6.04798 7.67969 6.00977 7.7179 6.00977 7.76503C6.00977 7.81217 6.04798 7.85038 6.09511 7.85038Z" fill="#F8CB32"/>
<path d="M8.00164 10.2906L7.99805 10.2087C8.00914 10.2082 9.10905 10.1516 9.63898 9.42506C9.94598 9.00428 10.0059 8.44009 9.81723 7.74813L9.89626 7.72656C10.0919 8.4439 10.0275 9.03175 9.70492 9.47365C9.15139 10.2322 8.04839 10.2886 8.00164 10.2906Z" fill="#B46446"/>
<path d="M9.89648 7.40805C9.95085 7.5497 9.93845 7.69805 9.87548 7.81048C9.75342 7.76908 9.64495 7.66714 9.59054 7.52548C9.53617 7.38383 9.54857 7.23548 9.61154 7.12305C9.7336 7.16445 9.84207 7.26636 9.89648 7.40805Z" fill="#41AA5A"/>
<path d="M9.2056 9.36719C9.26597 9.46678 9.28181 9.60031 9.23706 9.72994C9.19531 9.85106 9.10913 9.94041 9.00925 9.9855C9.10628 9.93462 9.22969 9.92191 9.35081 9.96369C9.48044 10.0084 9.57581 10.1032 9.61706 10.2121C9.51747 10.2724 9.38397 10.2883 9.25431 10.2435C9.12469 10.1988 9.02931 10.1041 8.98806 9.99516C8.9881 9.99512 8.98816 9.99512 8.98816 9.99512C8.92838 9.89559 8.91269 9.76259 8.95722 9.63344C9.00191 9.50381 9.09669 9.40841 9.2056 9.36719Z" fill="#41AA5A"/>
<path d="M9.44191 9.00586C9.53503 9.07577 9.59953 9.19377 9.60638 9.3307C9.61278 9.45867 9.56613 9.5737 9.49028 9.65276C9.56138 9.56939 9.67116 9.51155 9.79903 9.50514C9.93597 9.49826 10.0598 9.55067 10.1387 9.63636C10.0688 9.72948 9.95078 9.79398 9.81384 9.80083C9.67691 9.8077 9.55306 9.7553 9.47419 9.66961C9.47422 9.66958 9.47425 9.66954 9.47425 9.66954C9.38166 9.59951 9.3175 9.48195 9.31066 9.34548C9.30381 9.20855 9.35622 9.08467 9.44191 9.00586Z" fill="#41AA5A"/>
<path d="M9.54389 8.59766C9.65651 8.62725 9.7608 8.71219 9.8188 8.83637C9.87305 8.95247 9.87323 9.07659 9.83283 9.17844C9.8672 9.07441 9.94701 8.97941 10.0631 8.92519C10.1873 8.86716 10.3218 8.86891 10.4271 8.9185C10.3975 9.03112 10.3126 9.13541 10.1884 9.19341C10.0641 9.25144 9.9297 9.24969 9.82436 9.20009C9.82436 9.20009 9.82439 9.2 9.82442 9.19997C9.7122 9.17009 9.60845 9.08544 9.55064 8.96166C9.49251 8.83753 9.49426 8.703 9.54389 8.59766Z" fill="#41AA5A"/>
<path d="M9.48617 8.19379C9.60208 8.18226 9.72939 8.22557 9.82704 8.32179C9.91833 8.41173 9.96179 8.52801 9.95939 8.63754C9.95536 8.52807 9.99708 8.4112 10.087 8.31995C10.1832 8.22226 10.3099 8.17707 10.4259 8.18685C10.4374 8.30276 10.3941 8.43001 10.2979 8.52773C10.2016 8.62545 10.075 8.6706 9.95898 8.66082C9.95898 8.66082 9.95898 8.66073 9.95898 8.66063C9.84339 8.67173 9.71664 8.62857 9.61929 8.53267C9.52158 8.43648 9.47639 8.30982 9.48617 8.19379Z" fill="#41AA5A"/>
<path d="M9.4043 7.8088C9.51667 7.77823 9.64939 7.79989 9.76164 7.87861C9.86655 7.9522 9.92864 8.05967 9.94439 8.16814C9.9223 8.06083 9.94411 7.9387 10.0176 7.83383C10.0964 7.72158 10.2138 7.65605 10.3299 7.64648C10.3604 7.75886 10.3388 7.89158 10.26 8.00383C10.1813 8.11608 10.0639 8.18161 9.94783 8.19117C9.94783 8.19111 9.94783 8.19108 9.94783 8.19108C9.8357 8.22111 9.70351 8.19948 9.59164 8.12102C9.47939 8.04227 9.41386 7.92486 9.4043 7.8088Z" fill="#41AA5A"/>
<path d="M9.37245 10.0164C9.41959 10.0164 9.4578 9.97818 9.4578 9.93105C9.4578 9.88391 9.41959 9.8457 9.37245 9.8457C9.32532 9.8457 9.28711 9.88391 9.28711 9.93105C9.28711 9.97818 9.32532 10.0164 9.37245 10.0164Z" fill="#F8CB32"/>
<path d="M8.97939 10.0652C9.02652 10.0652 9.06473 10.027 9.06473 9.97988C9.06473 9.93274 9.02652 9.89453 8.97939 9.89453C8.93225 9.89453 8.89404 9.93274 8.89404 9.97988C8.89404 10.027 8.93225 10.0652 8.97939 10.0652Z" fill="#F8CB32"/>
<path d="M9.59706 9.37186C9.6442 9.37186 9.68241 9.33365 9.68241 9.28652C9.68241 9.23938 9.6442 9.20117 9.59706 9.20117C9.54993 9.20117 9.51172 9.23938 9.51172 9.28652C9.51172 9.33365 9.54993 9.37186 9.59706 9.37186Z" fill="#F8CB32"/>
<path d="M10.14 8.73123C10.1872 8.73123 10.2254 8.69302 10.2254 8.64589C10.2254 8.59876 10.1872 8.56055 10.14 8.56055C10.0929 8.56055 10.0547 8.59876 10.0547 8.64589C10.0547 8.69302 10.0929 8.73123 10.14 8.73123Z" fill="#F8CB32"/>
<path d="M9.76112 8.29569C9.80826 8.29569 9.84647 8.25748 9.84647 8.21034C9.84647 8.16321 9.80826 8.125 9.76112 8.125C9.71399 8.125 9.67578 8.16321 9.67578 8.21034C9.67578 8.25748 9.71399 8.29569 9.76112 8.29569Z" fill="#F8CB32"/>
<path d="M9.90517 7.85038C9.9523 7.85038 9.99051 7.81217 9.99051 7.76503C9.99051 7.7179 9.9523 7.67969 9.90517 7.67969C9.85803 7.67969 9.81982 7.7179 9.81982 7.76503C9.81982 7.81217 9.85803 7.85038 9.90517 7.85038Z" fill="#F8CB32"/>
<path d="M8.48082 7.42383H7.50191C7.19719 7.42383 6.9502 7.67083 6.9502 7.97555V8.83789C6.9502 9.14264 7.19719 9.3896 7.50191 9.3896H8.48082C8.7855 9.3896 9.03254 9.14264 9.03254 8.83789V7.97555C9.03254 7.67083 8.78554 7.42383 8.48082 7.42383Z" fill="#8CD7FF"/>
<path d="M8.15258 8.17383V8.28308H8.04339V8.17383H7.95927V8.28308H7.85005V8.17383H7.78174V8.3923L7.83636 8.46148V9.26611H8.16402V8.46148L8.21861 8.3923V8.17383H8.15258Z" fill="white"/>
<path d="M8.01619 7.82708C8.07022 7.8009 8.08447 7.9113 8.08447 7.9113C8.19826 7.8544 8.16857 7.76205 8.14138 7.7179C8.10497 7.65871 7.95935 7.63596 7.89791 7.75886C7.83647 7.88177 8.0026 8.12524 8.0026 8.12524C8.01163 8.05011 7.94563 7.86124 8.01619 7.82708Z" fill="white"/>
<path d="M8.71417 8.37695V8.4862H8.60492V8.37695H8.52082V8.4862H8.41157V8.37695H8.34326V8.59545L8.39789 8.66461V9.46923H8.72557V8.66461L8.78017 8.59545V8.37695H8.71417Z" fill="white"/>
<path d="M8.57771 8.03021C8.63175 8.00402 8.646 8.11443 8.646 8.11443C8.75978 8.05752 8.73009 7.96518 8.7029 7.92102C8.6665 7.86183 8.52087 7.83908 8.45943 7.96199C8.398 8.08489 8.56412 8.32836 8.56412 8.32836C8.57318 8.25324 8.50722 8.06436 8.57771 8.03021Z" fill="white"/>
<path d="M7.59112 8.37695V8.4862H7.48187V8.37695H7.39778V8.4862H7.28856V8.37695H7.22021V8.59545L7.27484 8.66461V9.46923H7.60253V8.66461L7.65715 8.59545V8.37695H7.59112Z" fill="white"/>
<path d="M7.45467 8.03021C7.5087 8.00402 7.52295 8.11443 7.52295 8.11443C7.63673 8.05752 7.60704 7.96518 7.57985 7.92102C7.54345 7.86183 7.39782 7.83908 7.33639 7.96199C7.27495 8.08489 7.44107 8.32836 7.44107 8.32836C7.45017 8.25324 7.38417 8.06436 7.45467 8.03021Z" fill="white"/>
<path d="M8.89638 9.32372C8.82344 9.28766 8.74244 9.26547 8.65556 9.26547C8.56247 9.26547 8.47616 9.29094 8.39944 9.33203C8.29972 9.22456 8.15841 9.15625 8.00019 9.15625C7.84197 9.15625 7.70072 9.22456 7.60094 9.33203C7.52422 9.29094 7.43791 9.26547 7.34482 9.26547C7.25791 9.26547 7.17691 9.28766 7.104 9.32372C7.25994 9.60972 7.55857 10.0719 8.00019 10.2485C8.44181 10.0719 8.74044 9.60972 8.89638 9.32372Z" fill="#6EC86E"/>
<path d="M7.99609 5.66467L8.00127 5.66211C8.00127 5.66211 7.99953 5.66254 7.99609 5.66467Z" fill="#F8CB32"/>
<path d="M8.00098 5.66211L8.00615 5.66467C8.00268 5.66254 8.00098 5.66211 8.00098 5.66211Z" fill="#F8CB32"/>
<path d="M9.04888 6.12886C9.01816 5.95139 8.78948 5.92064 8.52663 5.90358C8.26382 5.88651 8.15117 5.73633 8.15117 5.73633H7.85079C7.85079 5.73633 7.73813 5.88651 7.47532 5.90358C7.21251 5.92064 6.98379 5.95136 6.95307 6.12886C6.92236 6.30633 7.14764 6.58623 7.14764 6.58623L7.3456 6.42583C7.3456 6.42583 7.10326 6.19373 7.2227 6.10839C7.34067 6.02411 7.68463 6.08248 7.83782 5.88017C7.83135 5.92245 7.8336 5.97464 7.85982 6.03895C7.90988 6.16186 7.8917 6.31658 7.8917 6.31658H8.00095H8.1102C8.1102 6.31658 8.09198 6.16183 8.14207 6.03895C8.16829 5.97464 8.1706 5.92239 8.16407 5.88017C8.31729 6.08248 8.66126 6.02411 8.7792 6.10839C8.89866 6.19373 8.65629 6.42583 8.65629 6.42583L8.85426 6.58623C8.85432 6.58623 9.0796 6.30633 9.04888 6.12886Z" fill="#F8CB32"/>
<path d="M8.11249 5.12192H8.05558V5.06048C8.05558 5.0303 8.03114 5.00586 8.00096 5.00586C7.97077 5.00586 7.94633 5.0303 7.94633 5.06048V5.12192H7.88714C7.85696 5.12192 7.83252 5.14636 7.83252 5.17655C7.83252 5.20673 7.85696 5.23117 7.88714 5.23117H7.94633V5.38817C7.94633 5.41836 7.97077 5.4428 8.00096 5.4428C8.03114 5.4428 8.05558 5.41836 8.05558 5.38817V5.23117H8.11249C8.14268 5.23117 8.16711 5.20673 8.16711 5.17655C8.16711 5.14636 8.14264 5.12192 8.11249 5.12192Z" fill="#F8CB32"/>
<path d="M7.99988 5.55248C8.06021 5.55248 8.10913 5.50357 8.10913 5.44323C8.10913 5.3829 8.06021 5.33398 7.99988 5.33398C7.93954 5.33398 7.89062 5.3829 7.89062 5.44323C7.89062 5.50357 7.93954 5.55248 7.99988 5.55248Z" fill="#FFF0E1"/>
<path d="M7.21723 7.64181C7.26123 7.66378 7.31261 7.68278 7.36514 7.68278C7.54611 7.68278 7.63479 7.58044 7.63479 7.39947C7.63479 7.2185 7.52561 7.08203 7.34467 7.08203C7.34467 7.08203 7.32426 7.08237 7.29158 7.08737C7.28454 7.0885 7.27758 7.08956 7.2707 7.09112C7.09673 7.12431 6.6668 7.28459 6.58008 8.06506C6.45886 9.15606 7.34467 10.1404 8.00004 10.3588V10.2496C8.00001 10.2496 6.45264 9.06631 7.21723 7.64181Z" fill="#FFC75A"/>
<path d="M7.34473 7.19141L8.0001 7.40987L7.34473 7.62831V7.19141Z" fill="#FFC75A"/>
<path d="M8.65534 7.62831L8 7.40987L8.65534 7.19141V7.62831Z" fill="#F8CB32"/>
<path d="M6.68864 8.07722C6.76689 7.37291 7.13604 7.22809 7.29508 7.19769C7.29854 7.19691 7.30211 7.19637 7.30811 7.19541C7.32811 7.19234 7.34189 7.1915 7.3462 7.19131C7.46595 7.19213 7.54492 7.28234 7.54492 7.39156C7.54492 7.512 7.47436 7.55766 7.40386 7.55994C7.40386 7.55994 7.46076 7.44159 7.34467 7.40975C7.26636 7.38822 7.1672 7.45072 7.1763 7.56447C7.1827 7.64444 7.25861 7.72147 7.34467 7.72147C7.52564 7.72147 7.67236 7.59069 7.67236 7.40972C7.67236 7.22875 7.52564 7.08203 7.34467 7.08203C7.34467 7.08203 7.32426 7.08238 7.29158 7.08738C7.28454 7.0885 7.27758 7.08956 7.2707 7.09112C7.09673 7.12431 6.6668 7.28459 6.58008 8.06506C6.45886 9.15606 7.34467 10.1404 8.00004 10.3588V10.2496C8.00004 10.2496 7.76795 10.1335 7.60926 10.0208C7.11898 9.67256 6.60014 8.87378 6.68864 8.07722Z" fill="#F8CB32"/>
<path d="M8.78281 7.64181C8.73881 7.66378 8.68744 7.68278 8.6349 7.68278C8.45394 7.68278 8.36525 7.58044 8.36525 7.39947C8.36525 7.2185 8.47444 7.08203 8.65537 7.08203C8.65537 7.08203 8.67578 7.08237 8.70847 7.08737C8.7155 7.0885 8.72247 7.08956 8.72934 7.09112C8.90331 7.12431 9.33325 7.28459 9.41997 8.06506C9.54118 9.15606 8.65537 10.1404 8 10.3588V10.2496C8 10.2496 9.54737 9.06631 8.78281 7.64181Z" fill="#FFC75A"/>
<path d="M8.65534 7.19141L8 7.40987L8.65534 7.62831V7.19141Z" fill="#FFC75A"/>
<path d="M9.3114 8.07722C9.23315 7.37291 8.864 7.22809 8.70497 7.19769C8.7015 7.19691 8.69794 7.19637 8.69194 7.19541C8.67194 7.19234 8.65815 7.1915 8.65384 7.19131C8.53409 7.19213 8.45512 7.28234 8.45512 7.39156C8.45512 7.512 8.52569 7.55766 8.59619 7.55994C8.59619 7.55994 8.53928 7.44159 8.65537 7.40975C8.73369 7.38822 8.83284 7.45072 8.82375 7.56447C8.81734 7.64444 8.74144 7.72147 8.65537 7.72147C8.4744 7.72147 8.32769 7.59069 8.32769 7.40972C8.32769 7.22875 8.4744 7.08203 8.65537 7.08203C8.65537 7.08203 8.67578 7.08238 8.70847 7.08738C8.7155 7.0885 8.72247 7.08956 8.72934 7.09112C8.90331 7.12431 9.33325 7.28459 9.41996 8.06506C9.54118 9.15606 8.65537 10.1404 8 10.3588V10.2496C8 10.2496 8.23209 10.1335 8.39078 10.0208C8.88109 9.67256 9.39993 8.87378 9.3114 8.07722Z" fill="#F8CB32"/>
<path d="M7.99988 7.51928C8.06021 7.51928 8.10913 7.47037 8.10913 7.41003C8.10913 7.34969 8.06021 7.30078 7.99988 7.30078C7.93954 7.30078 7.89062 7.34969 7.89062 7.41003C7.89062 7.47037 7.93954 7.51928 7.99988 7.51928Z" fill="#F8CB32"/>
<path d="M8.77981 6.53112C8.80881 6.45603 8.76956 6.35534 8.76956 6.35534C8.66887 6.35194 8.5989 6.42531 8.5989 6.42531C8.60743 6.33487 8.56818 6.25294 8.56818 6.25294C8.43847 6.26828 8.39581 6.34512 8.39581 6.34512C8.389 6.20347 8.30362 6.14544 8.30362 6.14544C8.19097 6.17956 8.15687 6.30244 8.15687 6.30244C8.13981 6.1625 7.99987 6.09766 7.99987 6.09766C7.99987 6.09766 7.85994 6.16253 7.84287 6.30244C7.84287 6.30244 7.80875 6.17953 7.69612 6.14544C7.69612 6.14544 7.61078 6.20347 7.60394 6.34512C7.60394 6.34512 7.56128 6.26834 7.43156 6.25294C7.43156 6.25294 7.39231 6.33487 7.40084 6.42531C7.40084 6.42531 7.33087 6.35194 7.23019 6.35534C7.23019 6.35534 7.19094 6.45603 7.21994 6.53112C7.21994 6.53112 7.10559 6.49531 7.01172 6.54987C7.01172 6.54987 7.18378 6.61644 7.24112 6.69834H8.75865C8.81597 6.61641 8.98806 6.54987 8.98806 6.54987C8.89418 6.49528 8.77981 6.53112 8.77981 6.53112Z" fill="#FFC75A"/>
<path d="M8.75874 6.69831C8.75874 6.74744 8.64393 6.89937 8.64393 6.89937C8.64393 6.89937 8.27162 6.95119 7.99999 6.95119C7.72662 6.95119 7.35346 6.89794 7.35346 6.89794C7.35346 6.89794 7.24121 6.74684 7.24121 6.69825C7.24121 6.55856 7.58093 6.44531 7.99996 6.44531C8.41902 6.44534 8.75874 6.55863 8.75874 6.69831Z" fill="#F8CB32"/>
<path d="M7.99977 7.08141C8.36181 7.08141 8.6553 6.98361 8.6553 6.86297C8.6553 6.74233 8.36181 6.64453 7.99977 6.64453C7.63773 6.64453 7.34424 6.74233 7.34424 6.86297C7.34424 6.98361 7.63773 7.08141 7.99977 7.08141Z" fill="#FFC75A"/>
<path d="M8.16056 5.6518C8.16056 5.58011 8.10709 5.48908 8.00015 5.5528C7.89318 5.48908 7.83975 5.58011 7.83975 5.6518C7.83975 5.72348 7.75781 5.73373 7.74756 5.72689C7.74756 5.72689 7.81584 5.81564 7.89431 5.75761C7.89431 5.75761 7.9364 5.81905 8.00012 5.81905C8.06384 5.81905 8.10596 5.75761 8.10596 5.75761C8.18449 5.81564 8.25271 5.72689 8.25271 5.72689C8.24249 5.7337 8.16056 5.72345 8.16056 5.6518Z" fill="#FFC75A"/>
<path d="M7.78215 10.9446C7.77602 10.9446 7.76977 10.9432 7.7639 10.9402C7.74361 10.9302 7.73543 10.9056 7.74555 10.8853L7.96399 10.4484C7.97411 10.4283 7.99871 10.4199 8.01893 10.4301C8.03921 10.4402 8.04739 10.4648 8.03727 10.4851L7.81883 10.922C7.81161 10.9363 7.79718 10.9446 7.78215 10.9446Z" fill="#B46446"/>
<path d="M8.21894 10.9447C8.2039 10.9447 8.18947 10.9364 8.18225 10.9221L7.96381 10.4852C7.95369 10.4649 7.96188 10.4403 7.98216 10.4302C8.00234 10.4199 8.02694 10.4283 8.03709 10.4485L8.25553 10.8854C8.26565 10.9057 8.25747 10.9303 8.23719 10.9403C8.23128 10.9433 8.22506 10.9447 8.21894 10.9447Z" fill="#B46446"/>
<path d="M8.98318 10.5635C8.33581 10.7082 7.66446 10.7082 7.01709 10.5635C7.01709 10.4543 7.01709 10.2498 7.01709 10.1406C7.66446 10.2853 8.33581 10.2853 8.98318 10.1406C8.98318 10.2499 8.98318 10.4543 8.98318 10.5635Z" fill="white"/>
<path d="M7.55885 10.4043C7.14082 10.485 6.71241 10.5071 6.28613 10.4673C6.29332 10.5236 6.63041 10.691 6.63041 10.691C6.63041 10.691 6.33298 10.8347 6.3396 10.8868C6.74766 10.9249 7.15782 10.9067 7.55885 10.8344V10.4043V10.4043Z" fill="white"/>
<path d="M8.44336 10.4043C8.86139 10.485 9.2898 10.5071 9.71608 10.4673C9.70889 10.5236 9.3718 10.691 9.3718 10.691C9.3718 10.691 9.66923 10.8347 9.66261 10.8868C9.25455 10.9249 8.84439 10.9067 8.44336 10.8344V10.4043V10.4043Z" fill="white"/>
</g>
<defs>
<clipPath id="clip0_5367_189638">
<rect x="15" y="0.974609" width="14" height="14" rx="2" transform="rotate(90 15 0.974609)" fill="white"/>
</clipPath>
</defs>
</svg>
