<svg width="16" height="16" viewBox="0 0 16 16" fill="none" xmlns="http://www.w3.org/2000/svg">
<g clip-path="url(#clip0_5367_189594)">
<rect x="15" y="0.974609" width="14" height="14" rx="2" transform="rotate(90 15 0.974609)" fill="#41479B"/>
<path d="M1.10175 14.9746L9 7.97461L1.10175 0.974609C1.04097 1.04305 1 1.14222 1 1.25754V14.6916C1 14.807 1.04097 14.9062 1.10175 14.9746Z" fill="white"/>
<path d="M3.89705 8.8693C4.39221 8.8693 4.79361 8.46789 4.79361 7.97273C4.79361 7.47758 4.39221 7.07617 3.89705 7.07617C3.40189 7.07617 3.00049 7.47758 3.00049 7.97273C3.00049 8.46789 3.40189 8.8693 3.89705 8.8693Z" fill="#F8CB32"/>
<path d="M3.89725 7.97278L3.56104 6.62797L3.89725 6.17969L4.23344 6.62797L3.89725 7.97278Z" fill="#F8CB32"/>
<path d="M3.89725 7.97266L4.23344 9.31747L3.89725 9.76575L3.56104 9.31747L3.89725 7.97266Z" fill="#F8CB32"/>
<path d="M3.89713 7.97294L2.55229 8.30916L2.104 7.97294L2.55229 7.63672L3.89713 7.97294Z" fill="#F8CB32"/>
<path d="M3.89697 7.97294L5.24179 7.63672L5.69007 7.97294L5.24179 8.30916L3.89697 7.97294Z" fill="#F8CB32"/>
<path d="M3.89697 7.97302L4.61016 6.78436L5.16488 6.70508L5.08563 7.2598L3.89697 7.97302Z" fill="#F8CB32"/>
<path d="M3.89733 7.97266L3.18411 9.16131L2.62939 9.24059L2.70868 8.68587L3.89733 7.97266Z" fill="#F8CB32"/>
<path d="M3.89733 7.97302L2.70868 7.2598L2.62939 6.70508L3.18411 6.78436L3.89733 7.97302Z" fill="#F8CB32"/>
<path d="M3.89697 7.97266L5.08563 8.68587L5.16488 9.24059L4.61016 9.16131L3.89697 7.97266Z" fill="#F8CB32"/>
<path d="M1.7397 4.08904L1.78645 4.43779L1.47157 4.59491C1.43082 4.61526 1.43938 4.67579 1.48423 4.68397L1.83035 4.74729L1.88248 5.09529C1.88923 5.14035 1.94945 5.15088 1.9711 5.11076L2.13829 4.80113L2.48535 4.85907C2.53029 4.8666 2.55892 4.81254 2.52748 4.7796L2.28467 4.52491L2.44701 4.21272C2.46804 4.17232 2.42548 4.12838 2.38442 4.1481L2.06717 4.30035L1.82045 4.04944C1.78857 4.017 1.73367 4.04391 1.7397 4.08904Z" fill="#F8CB32"/>
<path d="M1.87883 10.8774L1.81976 11.2243L1.47245 11.2807C1.42748 11.288 1.4177 11.3484 1.45804 11.3695L1.7697 11.5328L1.71604 11.8806C1.70911 11.9256 1.76345 11.9535 1.79604 11.9217L2.0477 11.6758L2.36189 11.8343C2.40258 11.8548 2.44595 11.8117 2.42576 11.7709L2.26964 11.4556L2.51745 11.2058C2.54951 11.1735 2.52201 11.1189 2.47689 11.1255L2.1287 11.1765L1.9677 10.8636C1.94686 10.8231 1.88642 10.8325 1.87883 10.8774Z" fill="#F8CB32"/>
<path d="M7.3361 7.45967L7.13356 7.74742L6.79575 7.64898C6.75203 7.63623 6.71722 7.68652 6.74453 7.72295L6.95563 8.00448L6.7576 8.29536C6.73197 8.33301 6.769 8.38164 6.81213 8.36692L7.1451 8.25317L7.36053 8.53139C7.38844 8.56742 7.44613 8.54717 7.44544 8.50164L7.44013 8.14983L7.77131 8.03089C7.81419 8.01548 7.81278 7.95436 7.76925 7.94095L7.43297 7.83727L7.42222 7.48555C7.42091 7.43995 7.36231 7.42239 7.3361 7.45967Z" fill="#F8CB32"/>
<path d="M15 0.974609H1V5.64128H15V0.974609Z" fill="#73AF00"/>
<path d="M15 10.3086H1V14.9753H15V10.3086Z" fill="#73AF00"/>
<path d="M15 4.47461H1V11.4746H15V4.47461Z" fill="#F8CB32"/>
<path d="M-0.897762 14.9746L7.00049 7.97461L-0.897762 0.974609C-0.958543 1.04305 -0.999512 1.14222 -0.999512 1.25754V14.6916C-0.999512 14.807 -0.958543 14.9062 -0.897762 14.9746Z" fill="#FF334B"/>
<path d="M9.5112 6.92883L9.74974 7.64405L10.5037 7.6499C10.6013 7.65067 10.6418 7.77523 10.5632 7.83323L9.95674 8.2811L10.1842 8.99994C10.2136 9.09301 10.1077 9.17 10.0283 9.11324L9.41488 8.67481L8.80151 9.11324C8.72212 9.17 8.61612 9.09301 8.64558 8.99994L8.87302 8.2811L8.26653 7.83323C8.18801 7.77525 8.22848 7.65067 8.32609 7.6499L9.08002 7.64405L9.31856 6.92883C9.34933 6.83622 9.48032 6.83622 9.5112 6.92883Z" fill="#464655"/>
<path d="M12.9917 6.92883L13.2302 7.64405L13.9841 7.6499C14.0817 7.65067 14.1222 7.77523 14.0437 7.83323L13.4372 8.2811L13.6647 8.99994C13.6941 9.09301 13.5881 9.17 13.5087 9.11323L12.8953 8.67481L12.282 9.11323C12.2026 9.17 12.0966 9.09301 12.126 8.99994L12.3535 8.2811L11.747 7.83323C11.6685 7.77525 11.7089 7.65067 11.8066 7.6499L12.5605 7.64405L12.799 6.92883C12.8298 6.83622 12.9608 6.83622 12.9917 6.92883Z" fill="#464655"/>
</g>
<defs>
<clipPath id="clip0_5367_189594">
<rect x="15" y="0.974609" width="14" height="14" rx="2" transform="rotate(90 15 0.974609)" fill="white"/>
</clipPath>
</defs>
</svg>
