<svg width="16" height="16" viewBox="0 0 16 16" fill="none" xmlns="http://www.w3.org/2000/svg">
<g clip-path="url(#clip0_5367_189493)">
<rect x="15" y="1" width="14" height="14" rx="2" transform="rotate(90 15 1)" fill="#FF334B"/>
<path d="M14.7586 15L1.24139 15C1.10809 15 1 14.7525 1 14.4473L1 8L15 8L15 14.4473C15 14.7525 14.8919 15 14.7586 15Z" fill="#41479B"/>
<path d="M1.10175 15L9 8L1.10175 1C1.04097 1.06844 1 1.16761 1 1.28293V14.717C1 14.8324 1.04097 14.9316 1.10175 15Z" fill="white"/>
<path d="M4.14063 7.80079C4.61903 7.80079 5.00685 7.41298 5.00685 6.93458C5.00685 6.45618 4.61903 6.06836 4.14063 6.06836C3.66223 6.06836 3.27441 6.45618 3.27441 6.93458C3.27441 7.41298 3.66223 7.80079 4.14063 7.80079Z" fill="#F8CB32"/>
<path d="M5.19941 7.73858C5.20285 7.84367 5.21429 7.95211 5.22532 8.05692C5.2686 8.46826 5.30601 8.82357 4.91095 8.96139C4.81757 8.99395 4.69032 9.0122 4.56732 9.02982C4.39073 9.05514 4.2326 9.07776 4.14063 9.14185C4.04867 9.07779 3.89057 9.05514 3.71395 9.02982C3.59095 9.0122 3.46367 8.99392 3.37032 8.96139C2.97526 8.82357 3.01267 8.46826 3.05595 8.05692C3.06698 7.95211 3.07839 7.84367 3.08186 7.73858C3.09414 7.36614 3.01561 7.0012 2.96045 6.79492C3.05236 6.83264 3.17976 6.86667 3.33598 6.86392C3.40329 6.86258 3.47889 6.85298 3.55889 6.84286C3.74151 6.81958 3.94848 6.79339 4.11413 6.85886L4.1407 6.87067L4.16726 6.85886C4.33288 6.79339 4.53988 6.81958 4.72251 6.84286C4.80251 6.85298 4.8781 6.86258 4.94541 6.86392C5.10163 6.86667 5.22907 6.83261 5.32095 6.79492C5.26563 7.00117 5.18713 7.36614 5.19941 7.73858Z" fill="#8CD7FF"/>
<path d="M5.34369 7.73243C5.32629 7.2045 5.50641 6.67484 5.50826 6.66956L5.39472 6.58984C5.39326 6.59106 5.22251 6.7235 4.94813 6.71822C4.88851 6.71709 4.81666 6.70794 4.74057 6.69825C4.54954 6.67406 4.33404 6.64666 4.1406 6.71344C3.94717 6.64669 3.7317 6.67409 3.54063 6.69825C3.46457 6.70791 3.3927 6.71706 3.33307 6.71822C3.0587 6.7235 2.88798 6.59103 2.88648 6.58984L2.77295 6.66956C2.77473 6.67484 2.95492 7.2045 2.93751 7.73243C2.93423 7.8324 2.92311 7.93815 2.91229 8.04043C2.86889 8.45312 2.81967 8.9209 3.3227 9.0964C3.42929 9.13353 3.56398 9.14996 3.69338 9.1714C4.08192 9.23577 4.14057 9.33502 4.14057 9.33502C4.14057 9.33502 4.19923 9.23574 4.58776 9.1714C4.71716 9.14996 4.85185 9.13353 4.95844 9.0964C5.46151 8.92093 5.41232 8.45312 5.36885 8.04043C5.35813 7.93812 5.34698 7.8324 5.34369 7.73243ZM5.19941 7.73722C5.20285 7.84231 5.21429 7.95075 5.22532 8.05556C5.2686 8.4669 5.30601 8.82221 4.91094 8.96003C4.81757 8.99259 4.69032 9.01084 4.56732 9.02846C4.39073 9.05378 4.2326 9.0764 4.14063 9.14049C4.04867 9.07643 3.89057 9.05378 3.71395 9.02846C3.59095 9.01084 3.46367 8.99256 3.37032 8.96003C2.97526 8.82221 3.01267 8.4669 3.05595 8.05556C3.06698 7.95075 3.07839 7.84231 3.08185 7.73722C3.09414 7.36478 3.0156 6.99984 2.96045 6.79356C3.05235 6.83128 3.17976 6.86531 3.33598 6.86256C3.40329 6.86122 3.47889 6.85162 3.55888 6.8415C3.74151 6.81822 3.94848 6.79203 4.11413 6.8575L4.1407 6.86931L4.16726 6.8575C4.33288 6.79203 4.53988 6.81822 4.72251 6.8415C4.80251 6.85162 4.8781 6.86122 4.94541 6.86256C5.10163 6.86531 5.22907 6.83125 5.32094 6.79356C5.26563 6.99981 5.18713 7.36478 5.19941 7.73722Z" fill="#FF334B"/>
<path d="M4.88542 8.62512V8.30693H4.93995V8.21306H4.80658V7.88628H4.93995L4.33002 7.45419V7.29166H4.41486L4.14099 7.09766L3.86717 7.29166H3.95196V7.45419L3.34202 7.88628H3.47543V8.21306H3.34202V8.30693H3.39658V8.62512H3.31689V8.76246H4.96514V8.62512H4.88542Z" fill="white"/>
<path d="M3.34934 7.32231C3.3299 7.36837 3.33321 7.41719 3.35387 7.45309C3.39406 7.44284 3.43131 7.41119 3.45078 7.36516C3.47021 7.31909 3.4669 7.27028 3.44624 7.23438C3.40609 7.24462 3.36881 7.27628 3.34934 7.32231Z" fill="#41AA5A"/>
<path d="M3.44344 7.3378C3.45613 7.38614 3.48852 7.42277 3.5267 7.43858C3.5522 7.40595 3.56233 7.35811 3.54964 7.30977C3.53695 7.26142 3.50457 7.2248 3.46639 7.20898C3.44092 7.24158 3.43076 7.28945 3.44344 7.3378Z" fill="#41AA5A"/>
<path d="M3.59063 7.25612C3.6375 7.27352 3.6861 7.26812 3.7211 7.24587C3.70913 7.20618 3.67585 7.1703 3.629 7.1529C3.58213 7.13549 3.53354 7.1409 3.49854 7.16315C3.5105 7.2028 3.54375 7.23865 3.59063 7.25612Z" fill="#41AA5A"/>
<path d="M3.63423 7.17519C3.67998 7.15507 3.71114 7.11732 3.72076 7.077C3.68451 7.05688 3.6357 7.05429 3.58995 7.07438C3.5442 7.0945 3.51307 7.13225 3.50342 7.17257C3.53961 7.19272 3.58845 7.19532 3.63423 7.17519Z" fill="#41AA5A"/>
<path d="M3.32693 7.21512C3.36771 7.18618 3.39062 7.143 3.39196 7.10153C3.35243 7.08909 3.30405 7.09637 3.26327 7.12528C3.22249 7.15418 3.19959 7.1974 3.19824 7.23887C3.23777 7.25134 3.28618 7.24406 3.32693 7.21512Z" fill="#41AA5A"/>
<path d="M3.29284 7.15558C3.35559 7.19152 3.4228 7.20127 3.4728 7.18683C3.45993 7.13639 3.41752 7.08336 3.35477 7.04743C3.29202 7.01149 3.2248 7.00174 3.1748 7.01618C3.18768 7.06661 3.23012 7.11964 3.29284 7.15558Z" fill="#41AA5A"/>
<path d="M3.55786 7.22913C3.55786 7.20475 3.53845 7.18513 3.51427 7.18422C3.51336 7.16003 3.4938 7.14062 3.46936 7.14062C3.44492 7.14062 3.42536 7.16003 3.42445 7.18422C3.40027 7.18513 3.38086 7.20469 3.38086 7.22913C3.38086 7.2535 3.40027 7.27309 3.42445 7.27403C3.42536 7.29822 3.44492 7.31763 3.46936 7.31763C3.4938 7.31763 3.51336 7.29822 3.51427 7.27403C3.53845 7.27309 3.55786 7.2535 3.55786 7.22913Z" fill="#F8CB32"/>
<path d="M3.46937 7.25625C3.484 7.25625 3.49586 7.24436 3.49586 7.22969C3.49586 7.21502 3.484 7.20312 3.46937 7.20312C3.45473 7.20312 3.44287 7.21502 3.44287 7.22969C3.44287 7.24436 3.45473 7.25625 3.46937 7.25625Z" fill="white"/>
<path d="M3.41692 7.18405C3.41692 7.16398 3.40095 7.14786 3.38111 7.14714C3.38036 7.12727 3.36423 7.11133 3.3442 7.11133C3.32414 7.11133 3.30802 7.1273 3.3073 7.14714C3.28742 7.14789 3.27148 7.16402 3.27148 7.18405C3.27148 7.20411 3.28745 7.22023 3.3073 7.22095C3.30805 7.24083 3.32417 7.25676 3.3442 7.25676C3.36427 7.25676 3.38039 7.2408 3.38111 7.22095C3.40095 7.2202 3.41692 7.20411 3.41692 7.18405Z" fill="#F8CB32"/>
<path d="M3.34402 7.20573C3.35604 7.20573 3.36578 7.19597 3.36578 7.18392C3.36578 7.17187 3.35604 7.16211 3.34402 7.16211C3.33201 7.16211 3.32227 7.17187 3.32227 7.18392C3.32227 7.19597 3.33201 7.20573 3.34402 7.20573Z" fill="white"/>
<path d="M3.5523 7.12272C3.5523 7.10828 3.5408 7.09666 3.52655 7.09612C3.52599 7.08181 3.51446 7.07031 3.50003 7.07031C3.48559 7.07031 3.47403 7.08184 3.4735 7.09612C3.45922 7.09669 3.44775 7.10825 3.44775 7.12272C3.44775 7.13716 3.45926 7.14878 3.4735 7.14931C3.47406 7.16362 3.48559 7.17512 3.50003 7.17512C3.51446 7.17512 3.52602 7.16359 3.52655 7.14931C3.54083 7.14878 3.5523 7.13719 3.5523 7.12272Z" fill="#F8CB32"/>
<path d="M3.50005 7.13691C3.50871 7.13691 3.51573 7.12987 3.51573 7.12119C3.51573 7.11251 3.50871 7.10547 3.50005 7.10547C3.49139 7.10547 3.48438 7.11251 3.48438 7.12119C3.48438 7.12987 3.49139 7.13691 3.50005 7.13691Z" fill="white"/>
<path d="M3.45269 7.07584C3.45269 7.06141 3.44119 7.04978 3.42694 7.04925C3.42638 7.03494 3.41485 7.02344 3.40042 7.02344C3.38602 7.02344 3.37442 7.03497 3.37389 7.04925C3.35962 7.04981 3.34814 7.06137 3.34814 7.07584C3.34814 7.09031 3.35965 7.10191 3.37389 7.10244C3.37445 7.11675 3.38598 7.12825 3.40042 7.12825C3.41482 7.12825 3.42641 7.11672 3.42694 7.10244C3.44122 7.10191 3.45269 7.09028 3.45269 7.07584Z" fill="#F8CB32"/>
<path d="M3.39996 7.09198C3.40861 7.09198 3.41563 7.08495 3.41563 7.07627C3.41563 7.06758 3.40861 7.06055 3.39996 7.06055C3.3913 7.06055 3.38428 7.06758 3.38428 7.07627C3.38428 7.08495 3.3913 7.09198 3.39996 7.09198Z" fill="white"/>
<path d="M4.60596 7.47322H5.10661C5.07455 7.39981 5.01164 7.343 4.93364 7.31987C4.93933 7.28344 4.94283 7.24297 4.94283 7.19956C4.94283 7.04834 4.90411 6.92578 4.8563 6.92578C4.80849 6.92578 4.76977 7.04838 4.76977 7.19956C4.76977 7.24294 4.77324 7.28344 4.77896 7.31987C4.70093 7.343 4.63799 7.39981 4.60596 7.47322Z" fill="white"/>
<path d="M4.14102 9.93057C3.08621 9.93057 2.22803 9.07245 2.22803 8.01758H2.58896C2.58896 8.87339 3.28521 9.56961 4.14099 9.56961C4.99677 9.56961 5.69302 8.87339 5.69302 8.01758H6.05402C6.05402 9.07245 5.1959 9.93057 4.14102 9.93057Z" fill="#F8CB32"/>
<path d="M4.84971 6.30875H4.53774C4.56905 6.30875 4.59446 6.28338 4.59446 6.25203C4.59446 6.22069 4.56908 6.19531 4.53774 6.19531H4.14071C4.1094 6.19531 4.08399 6.22069 4.08399 6.25203C4.08399 6.28338 4.10937 6.30875 4.14071 6.30875H3.43174C3.38474 6.30875 3.34668 6.34684 3.34668 6.39381C3.34668 6.44078 3.38477 6.47888 3.43174 6.47888H3.68696C3.65565 6.47888 3.63027 6.50425 3.63027 6.53559C3.63027 6.56691 3.65565 6.59231 3.68699 6.59231H4.19746C4.22877 6.59231 4.25418 6.56694 4.25418 6.53559C4.25418 6.50428 4.2288 6.47888 4.19749 6.47888H4.84974C4.89674 6.47888 4.9348 6.44078 4.9348 6.39381C4.9348 6.34684 4.89671 6.30875 4.84971 6.30875Z" fill="#C87878"/>
</g>
<defs>
<clipPath id="clip0_5367_189493">
<rect x="15" y="1" width="14" height="14" rx="2" transform="rotate(90 15 1)" fill="white"/>
</clipPath>
</defs>
</svg>
