<svg width="16" height="16" viewBox="0 0 16 16" fill="none" xmlns="http://www.w3.org/2000/svg">
<g clip-path="url(#clip0_5367_189486)">
<rect x="1" y="1" width="14" height="14" rx="2" fill="#464655"/>
<path d="M1.24139 1H14.7586C14.8919 1 15 1.16498 15 1.36844V5.66667H1V1.36844C1 1.16498 1.10809 1 1.24139 1Z" fill="#FF334B"/>
<path d="M15 5.66602H1V10.3327H15V5.66602Z" fill="white"/>
<path d="M5.22746 6.86666L5.48069 7.62597L6.2811 7.63217C6.3847 7.633 6.42769 7.7652 6.34433 7.82677L5.70044 8.30222L5.94184 9.06539C5.97311 9.16416 5.86059 9.24592 5.77626 9.18563L5.12506 8.72025L4.47386 9.18568C4.38953 9.24596 4.27706 9.16421 4.30828 9.06544L4.54969 8.30227L3.9058 7.82682C3.82243 7.76529 3.86542 7.633 3.96902 7.63222L4.76944 7.62601L5.02266 6.86671C5.05563 6.7684 5.19468 6.7684 5.22746 6.86666Z" fill="#73AF00"/>
<path d="M11.04 6.86666L11.2932 7.62597L12.0936 7.63217C12.1972 7.633 12.2402 7.7652 12.1568 7.82677L11.5129 8.30222L11.7543 9.06539C11.7856 9.16416 11.6731 9.24592 11.5888 9.18563L10.9376 8.72025L10.2864 9.18568C10.202 9.24596 10.0896 9.16421 10.1208 9.06544L10.3622 8.30227L9.7183 7.82682C9.63493 7.76529 9.67792 7.633 9.78152 7.63222L10.5819 7.62601L10.8352 6.86671C10.8681 6.7684 11.0072 6.7684 11.04 6.86666Z" fill="#73AF00"/>
<path d="M1 10.334H15V14.6322C15 14.8357 14.8919 15.0007 14.7586 15.0007H1.24139C1.10809 15.0007 1 14.8357 1 14.6322V10.334Z" fill="#464655"/>
</g>
<defs>
<clipPath id="clip0_5367_189486">
<rect x="1" y="1" width="14" height="14" rx="2" fill="white"/>
</clipPath>
</defs>
</svg>
