<svg width="16" height="16" viewBox="0 0 16 16" fill="none" xmlns="http://www.w3.org/2000/svg">
<rect x="1" y="1" width="14" height="14" rx="2" fill="#4173CD"/>
<path d="M15 3.80078H1V12.2008H15V3.80078Z" fill="#F8CB32"/>
<path d="M15 4.5H1V11.5H15V4.5Z" fill="#FF334B"/>
<path d="M11.5571 7.57009L12.1582 7.3125L12.7592 7.57009L12.1582 7.82769L11.5571 7.57009Z" fill="white"/>
<path d="M11.7046 7.46094H2.88462C2.82403 7.46094 2.7749 7.51003 2.7749 7.57066C2.7749 7.63125 2.824 7.68037 2.88462 7.68037H11.7045C11.7651 7.68037 11.8143 7.63125 11.8143 7.57066C11.8143 7.51006 11.7651 7.46094 11.7046 7.46094Z" fill="#F8CB32"/>
<path d="M12.1816 6.97048L12.7827 6.71289L13.3837 6.97048L12.7827 7.22808L12.1816 6.97048Z" fill="white"/>
<path d="M12.3295 6.85938H3.50962C3.44903 6.85938 3.3999 6.90847 3.3999 6.96909C3.3999 7.02969 3.449 7.07881 3.50962 7.07881H12.3295C12.3901 7.07881 12.4393 7.02969 12.4393 6.96909C12.4393 6.9085 12.3902 6.85938 12.3295 6.85938Z" fill="#F8CB32"/>
<path d="M7.86504 5.85352C6.33979 5.85352 5.0091 6.71723 4.29639 8.00007C5.00907 9.28288 6.33979 10.1466 7.86504 10.1466C9.39028 10.1466 10.721 9.28292 11.4337 8.00007C10.721 6.71723 9.39025 5.85352 7.86504 5.85352Z" fill="white"/>
<path d="M4.29639 7.99998C5.00907 9.28279 6.33979 10.1465 7.86504 10.1465C8.11972 10.1465 8.36835 10.1204 8.61022 10.0743C8.42557 9.66894 7.77613 9.66963 7.73626 9.51688C7.69332 9.35232 8.26572 9.3881 8.36591 9.25213C8.4661 9.1162 7.82213 9.05895 7.79351 8.92301C7.76488 8.78704 8.0511 8.69404 8.10119 8.47938C8.15129 8.26473 8.26576 8.20035 8.3516 8.07157C8.43747 7.94279 8.20851 7.89985 8.15126 7.47054C8.09401 7.04123 7.75769 6.98398 7.59316 6.63342C7.42857 6.28283 7.69335 6.02523 7.86507 5.85352C6.33979 5.85342 5.00907 6.71714 4.29639 7.99998Z" fill="#464655"/>
<path d="M5.80355 7.22656H5.63184V7.91347H5.80355V7.22656Z" fill="white"/>
<path d="M6.1473 7.22656H5.97559V7.91347H6.1473V7.22656Z" fill="white"/>
<path d="M6.49057 7.22656H6.31885V7.91347H6.49057V7.22656Z" fill="white"/>
<path d="M6.83432 7.22656H6.6626V7.91347H6.83432V7.22656Z" fill="white"/>
<path d="M7.17758 7.22656H7.00586V7.91347H7.17758V7.22656Z" fill="white"/>
<path d="M7.52084 7.22656H7.34912V7.91347H7.52084V7.22656Z" fill="white"/>
<path d="M5.80355 8.25781H5.63184V8.94472H5.80355V8.25781Z" fill="white"/>
<path d="M6.1473 8.25781H5.97559V8.94472H6.1473V8.25781Z" fill="white"/>
<path d="M6.49057 8.25781H6.31885V8.94472H6.49057V8.25781Z" fill="white"/>
<path d="M6.83432 8.25781H6.6626V8.94472H6.83432V8.25781Z" fill="white"/>
<path d="M7.17758 8.25781H7.00586V8.94472H7.17758V8.25781Z" fill="white"/>
<path d="M7.52084 8.25781H7.34912V8.94472H7.52084V8.25781Z" fill="white"/>
<path d="M8.37973 7.22656H8.20801V7.91347H8.37973V7.22656Z" fill="#464655"/>
<path d="M8.72299 7.22656H8.55127V7.91347H8.72299V7.22656Z" fill="#464655"/>
<path d="M9.06674 7.22656H8.89502V7.91347H9.06674V7.22656Z" fill="#464655"/>
<path d="M9.41 7.22656H9.23828V7.91347H9.41V7.22656Z" fill="#464655"/>
<path d="M9.75326 7.22656H9.58154V7.91347H9.75326V7.22656Z" fill="#464655"/>
<path d="M10.097 7.22656H9.92529V7.91347H10.097V7.22656Z" fill="#464655"/>
<path d="M8.37973 8.25781H8.20801V8.94472H8.37973V8.25781Z" fill="#464655"/>
<path d="M8.72299 8.25781H8.55127V8.94472H8.72299V8.25781Z" fill="#464655"/>
<path d="M9.06674 8.25781H8.89502V8.94472H9.06674V8.25781Z" fill="#464655"/>
<path d="M9.41 8.25781H9.23828V8.94472H9.41V8.25781Z" fill="#464655"/>
<path d="M9.75326 8.25781H9.58154V8.94472H9.75326V8.25781Z" fill="#464655"/>
<path d="M10.097 8.25781H9.92529V8.94472H10.097V8.25781Z" fill="#464655"/>
<path d="M13.1638 7.88672C13.0262 8.20619 12.6349 8.24378 12.8517 9.05815L12.9628 8.9454C12.9628 8.9454 13.0791 9.25237 13.3595 9.45909C13.3595 9.45909 13.7032 9.1709 13.7297 8.71365L13.8725 8.77631C13.8725 8.77622 13.8037 7.94309 13.1638 7.88672Z" fill="#245DBD"/>
<path d="M13.6715 8.54186C13.6605 8.54186 13.6496 8.53676 13.6413 8.52679C13.5066 8.36433 13.3351 8.31223 13.3334 8.31167C13.3108 8.30501 13.2969 8.27779 13.3025 8.25098C13.3081 8.22436 13.3311 8.2077 13.3536 8.21436C13.3616 8.2167 13.5496 8.27329 13.7016 8.4567C13.718 8.47629 13.7177 8.50817 13.7012 8.52758C13.6929 8.53717 13.6823 8.54186 13.6715 8.54186Z" fill="#FF334B"/>
<path d="M13.5747 8.92113C13.562 8.92113 13.5495 8.91448 13.5411 8.90154C13.4412 8.74766 13.3279 8.66388 13.3267 8.6631C13.3068 8.64863 13.3007 8.6177 13.313 8.59401C13.3253 8.57054 13.3513 8.56329 13.3712 8.57776C13.3765 8.58148 13.499 8.67232 13.6082 8.84048C13.6225 8.86241 13.619 8.89391 13.6005 8.91076C13.5928 8.91779 13.5837 8.92113 13.5747 8.92113Z" fill="#FF334B"/>
<path d="M13.3525 9.34244C13.3501 9.34244 13.3477 9.34222 13.3452 9.34166C13.3223 9.33697 13.3068 9.3111 13.3108 9.28391C13.3274 9.16919 13.3135 8.98107 13.2906 8.88397C13.2844 8.85735 13.2975 8.82972 13.3199 8.8221C13.3426 8.81485 13.3657 8.83032 13.3719 8.85697C13.3977 8.9666 13.4128 9.17119 13.394 9.30075C13.3905 9.32522 13.3726 9.34244 13.3525 9.34244Z" fill="#FF334B"/>
<path d="M13.0545 8.88033C13.0425 8.88033 13.0305 8.87427 13.0222 8.86252C13.0071 8.84139 13.0094 8.80964 13.0272 8.79186C13.0283 8.79089 13.1363 8.68124 13.1645 8.52955C13.1695 8.50255 13.1919 8.48552 13.2149 8.49139C13.2377 8.49727 13.2522 8.52408 13.2471 8.55111C13.2126 8.73671 13.0871 8.86336 13.0817 8.86864C13.0737 8.87642 13.0641 8.88033 13.0545 8.88033Z" fill="#FF334B"/>
<path d="M12.9374 8.55901C12.9232 8.55901 12.9093 8.55061 12.9013 8.53511C12.889 8.51164 12.8953 8.4807 12.9152 8.4662C12.9168 8.46501 13.0702 8.35208 13.1178 8.22877C13.1275 8.20333 13.1528 8.19214 13.1739 8.20389C13.1952 8.21545 13.2045 8.2452 13.1948 8.27027C13.1364 8.42158 12.9666 8.5463 12.9595 8.55158C12.9525 8.55667 12.9449 8.55901 12.9374 8.55901Z" fill="#FF334B"/>
<path d="M2.442 7.99414C2.32703 8.26127 1.99975 8.29273 2.18106 8.97367L2.27393 8.87939C2.27393 8.87939 2.37121 9.13605 2.60562 9.30892C2.60562 9.30892 2.89306 9.06795 2.91518 8.68558L3.03459 8.73795C3.03459 8.73798 2.97712 8.04133 2.442 7.99414Z" fill="#245DBD"/>
<path d="M2.8662 8.54271C2.85698 8.54271 2.84789 8.53846 2.84098 8.53009C2.72836 8.39421 2.58492 8.35068 2.58352 8.35018C2.56458 8.34462 2.55295 8.32187 2.5577 8.29943C2.56239 8.27715 2.58161 8.26324 2.60045 8.2688C2.60708 8.27077 2.76427 8.31809 2.89142 8.47146C2.90511 8.48784 2.90489 8.51449 2.89102 8.53071C2.88411 8.53877 2.87517 8.54271 2.8662 8.54271Z" fill="#FF334B"/>
<path d="M2.78515 8.85976C2.77456 8.85976 2.76409 8.8542 2.75709 8.84339C2.67353 8.71473 2.57881 8.64467 2.57784 8.64401C2.56118 8.63192 2.55609 8.60604 2.56628 8.58623C2.57659 8.56657 2.59834 8.56054 2.61499 8.57264C2.61934 8.57573 2.72181 8.6517 2.81318 8.79232C2.82509 8.81067 2.82218 8.83701 2.80671 8.85107C2.80028 8.85698 2.79265 8.85976 2.78515 8.85976Z" fill="#FF334B"/>
<path d="M2.59941 9.21195C2.59741 9.21195 2.59542 9.21176 2.59336 9.21129C2.57419 9.20735 2.56122 9.18573 2.56453 9.16301C2.57846 9.06707 2.5668 8.90976 2.5477 8.8286C2.54246 8.80632 2.5534 8.78326 2.57216 8.77688C2.59112 8.77082 2.61041 8.78376 2.61565 8.80601C2.63722 8.89766 2.64984 9.06873 2.63413 9.1771C2.63117 9.19751 2.61621 9.21195 2.59941 9.21195Z" fill="#FF334B"/>
<path d="M2.35038 8.82428C2.34028 8.82428 2.33028 8.81922 2.32328 8.80938C2.31069 8.79169 2.31256 8.76516 2.3275 8.75028C2.32841 8.74947 2.41872 8.65782 2.44225 8.53094C2.44647 8.50835 2.46519 8.49413 2.48438 8.499C2.50344 8.50391 2.51556 8.52635 2.51134 8.54894C2.48244 8.70413 2.37747 8.81003 2.373 8.81447C2.36641 8.821 2.35841 8.82428 2.35038 8.82428Z" fill="#FF334B"/>
<path d="M2.25227 8.55672C2.24036 8.55672 2.2288 8.54969 2.22205 8.53675C2.2118 8.51709 2.21702 8.49122 2.23367 8.47912C2.23499 8.47815 2.3633 8.38369 2.40311 8.28056C2.41117 8.25928 2.43236 8.24994 2.45005 8.25978C2.4678 8.26944 2.47561 8.29434 2.46752 8.31525C2.41864 8.44178 2.27674 8.54603 2.27074 8.55047C2.26492 8.55475 2.25855 8.55672 2.25227 8.55672Z" fill="#FF334B"/>
</svg>
