<svg width="16" height="16" viewBox="0 0 16 16" fill="none" xmlns="http://www.w3.org/2000/svg">
<g clip-path="url(#clip0_5367_189313)">
<rect x="15" y="1" width="14" height="14" rx="2" transform="rotate(90 15 1)" fill="#73AF00"/>
<path d="M5.95092 1H2.2666V14.9998H5.95092V1Z" fill="#FF334B"/>
<path d="M5.5821 2.59718L4.84528 3.21122H3.37159L2.63477 2.59718V1.98314L3.37159 1.36914H4.84528L5.5821 1.98314V2.59718Z" fill="white"/>
<path d="M5.58259 7.75343L4.84576 8.36751H3.37208L2.63525 7.75343V7.13943L3.37208 6.52539H4.84576L5.58259 7.13943V7.75343Z" fill="#73AF00"/>
<path d="M5.58259 5.1753L4.84576 5.78934H3.37208L2.63525 5.1753V4.56131L3.37208 3.94727H4.84576L5.58259 4.56131V5.1753Z" fill="#73AF00"/>
<path d="M5.58259 10.3335L4.84576 10.9475H3.37208L2.63525 10.3335V9.71955L3.37208 9.10547H4.84576L5.58259 9.71955V10.3335Z" fill="#73AF00"/>
<path d="M4.84523 4.68359H3.37158V5.05203H4.84523V4.68359Z" fill="#FF334B"/>
<path d="M5.21409 4.25426L4.8457 3.94727V5.78934L5.21409 5.4823V4.25426Z" fill="#FFB400"/>
<path d="M3.00391 5.48226L3.3723 5.7893V3.94727L3.00391 4.25422V5.48226Z" fill="#FFB400"/>
<path d="M4.1089 1.36914H3.37212L2.63525 1.98314V2.29018H4.1089V1.36914Z" fill="#FFB400"/>
<path d="M4.10889 3.21205H4.84575L5.58257 2.59801V2.29102H4.10889V3.21205Z" fill="#FFB400"/>
<path d="M4.1084 2.84158L3.37158 2.29115L4.1084 1.73633L4.84527 2.29115L4.1084 2.84158Z" fill="#FF334B"/>
<path d="M4.1084 2.84167L4.84526 2.29123L4.84238 2.28906H4.1084V2.84167Z" fill="#73AF00"/>
<path d="M4.1089 2.28898V1.73633L3.375 2.28898H4.1089Z" fill="#73AF00"/>
<path d="M4.84523 6.89453H3.37158V7.99979H4.84523V6.89453Z" fill="#FF334B"/>
<path d="M5.21365 7.26367H4.84521V7.6321H5.21365V7.26367Z" fill="#FFB400"/>
<path d="M4.29275 7.26367H3.92432V7.6321H4.29275V7.26367Z" fill="white"/>
<path d="M4.29275 9.47266H3.92432V9.84109H4.29275V9.47266Z" fill="#FF334B"/>
<path d="M4.84548 9.8418H4.47705V10.2102H4.84548V9.8418Z" fill="#FFB400"/>
<path d="M3.74001 9.8418H3.37158V10.2102H3.74001V9.8418Z" fill="#FFB400"/>
<path d="M4.29275 10.2109H3.92432V10.5794H4.29275V10.2109Z" fill="#FF334B"/>
<path d="M3.37185 7.26367H3.00342V7.6321H3.37185V7.26367Z" fill="#FFB400"/>
<path d="M5.5821 12.9116L4.84528 13.5257H3.37159L2.63477 12.9116V12.2977L3.37159 11.6836H4.84528L5.5821 12.2977V12.9116Z" fill="white"/>
<path d="M4.1089 11.6836H3.37212L2.63525 12.2976V12.6046H4.1089V11.6836Z" fill="#FFB400"/>
<path d="M4.10889 13.5265H4.84575L5.58257 12.9125V12.6055H4.10889V13.5265Z" fill="#FFB400"/>
<path d="M4.84527 12.7896L4.1084 13.158L3.37158 12.7896V12.4212L4.1084 12.0527L4.84527 12.4212V12.7896Z" fill="#FF334B"/>
<path d="M11.0048 3.00619C10.9656 2.98691 10.93 3.03795 10.9619 3.06796C11.3788 3.46139 11.6423 4.01391 11.6423 4.63021C11.6423 5.8408 10.6692 6.81205 9.47267 6.81205C9.25181 6.81205 9.03909 6.77761 8.83843 6.71489C8.79686 6.70191 8.76994 6.75767 8.80575 6.78254C9.15557 7.02573 9.57721 7.17109 10.0375 7.17109C11.2498 7.17109 12.2405 6.19972 12.2405 4.97155C12.2405 4.1084 11.7339 3.36465 11.0048 3.00619Z" fill="white"/>
<path d="M8.00675 4.42814L7.91664 4.6831L8.12865 4.85092C8.15611 4.87266 8.14013 4.91681 8.10512 4.9159L7.8348 4.90893L7.74073 5.16242C7.72854 5.19527 7.68159 5.19368 7.67166 5.16013L7.59474 4.90091L7.32455 4.88977C7.28954 4.88835 7.27656 4.84319 7.3054 4.82337L7.52818 4.67012L7.45527 4.4097C7.44583 4.37598 7.48473 4.34964 7.51253 4.37097L7.72713 4.53549L7.95228 4.38566C7.98133 4.36625 8.01839 4.39513 8.00675 4.42814Z" fill="white"/>
<path d="M9.10147 4.98088L9.01137 5.23584L9.22338 5.40365C9.25084 5.42539 9.23485 5.46955 9.19984 5.46863L8.92953 5.46166L8.83546 5.71516C8.82327 5.748 8.77632 5.74642 8.76639 5.71286L8.68947 5.45365L8.41928 5.4425C8.38426 5.44109 8.37128 5.39593 8.40012 5.37611L8.6229 5.22286L8.54999 4.96243C8.54056 4.92871 8.57946 4.90238 8.60725 4.9237L8.82185 5.08822L9.04701 4.93839C9.0761 4.91903 9.11311 4.94791 9.10147 4.98088Z" fill="white"/>
<path d="M9.09073 3.84221L9.00062 4.09716L9.21264 4.26498C9.2401 4.28672 9.22411 4.33088 9.1891 4.32996L8.91878 4.32299L8.82471 4.57648C8.81253 4.60933 8.76558 4.60774 8.75564 4.57419L8.67873 4.31498L8.40854 4.30383C8.37352 4.30241 8.36054 4.25726 8.38938 4.23743L8.61216 4.08418L8.53925 3.82376C8.52982 3.79004 8.56871 3.76371 8.59651 3.78503L8.81111 3.94955L9.03627 3.79972C9.06536 3.78036 9.10242 3.80924 9.09073 3.84221Z" fill="white"/>
<path d="M9.12784 2.7426L9.03773 2.99755L9.24974 3.16537C9.27721 3.18711 9.26122 3.23127 9.22621 3.23035L8.95589 3.22338L8.86182 3.47688C8.84964 3.50972 8.80269 3.50813 8.79275 3.47458L8.71584 3.21537L8.44565 3.20422C8.41063 3.2028 8.39765 3.15765 8.42649 3.13782L8.64927 2.98457L8.57636 2.72415C8.56693 2.69043 8.60582 2.6641 8.63362 2.68542L8.84822 2.84994L9.07337 2.70011C9.10242 2.68071 9.13948 2.70959 9.12784 2.7426Z" fill="white"/>
<path d="M10.2006 3.29533L10.1105 3.55029L10.3225 3.7181C10.35 3.73985 10.334 3.784 10.299 3.78308L10.0286 3.77611L9.93458 4.02961C9.92239 4.06246 9.87544 4.06087 9.86551 4.02732L9.78859 3.7681L9.5184 3.75696C9.48339 3.75554 9.47041 3.71038 9.49924 3.69056L9.72202 3.53731L9.64911 3.27689C9.63968 3.24316 9.67858 3.21683 9.70637 3.23816L9.92097 3.40267L10.1461 3.25285C10.1752 3.23344 10.2122 3.26232 10.2006 3.29533Z" fill="white"/>
</g>
<defs>
<clipPath id="clip0_5367_189313">
<rect x="15" y="1" width="14" height="14" rx="2" transform="rotate(90 15 1)" fill="white"/>
</clipPath>
</defs>
</svg>
