<svg width="16" height="16" viewBox="0 0 16 16" fill="none" xmlns="http://www.w3.org/2000/svg">
<rect x="15" y="0.865234" width="14" height="14" rx="2" transform="rotate(90 15 0.865234)" fill="#FF334B"/>
<path d="M8.0035 3.36133C10.4894 3.36133 12.5042 5.38163 12.5042 7.86565C12.5042 10.3569 10.4894 12.37 8.0035 12.37C5.51229 12.37 3.49561 10.3569 3.49561 7.86565C3.49555 5.38163 5.51229 3.36133 8.0035 3.36133Z" fill="white"/>
<path d="M8.82196 10.3899C7.42758 10.3899 6.29655 9.25892 6.29655 7.86613C6.29655 6.4767 7.42758 5.34572 8.82196 5.34572C9.29624 5.34572 9.73944 5.47859 10.1183 5.70811C10.175 5.7425 10.2347 5.6682 10.1874 5.62162C9.61908 5.06166 8.84089 4.71484 7.98131 4.71484C6.23624 4.71484 4.82324 6.12784 4.82324 7.86623C4.82324 9.60798 6.23619 11.0209 7.98131 11.0209C8.84048 11.0209 9.61836 10.6743 10.1866 10.1145C10.2339 10.0679 10.1742 9.99363 10.1174 10.028C9.73873 10.2573 9.29583 10.3899 8.82196 10.3899Z" fill="#FF334B"/>
<path d="M8.59135 6.09985L9.28754 7.04515L10.4073 6.69246C10.5523 6.6468 10.6719 6.81197 10.5834 6.93545L9.89959 7.88968L10.581 8.84564C10.6693 8.96938 10.5491 9.13424 10.4043 9.08821L9.2854 8.73267L8.58676 9.67613C8.49634 9.79834 8.30244 9.73501 8.30147 9.58301L8.29387 8.40906L7.1807 8.03622C7.03655 7.98795 7.03686 7.784 7.18111 7.73614L8.29525 7.3661L8.30581 6.19216C8.30719 6.04021 8.50124 5.97744 8.59135 6.09985Z" fill="#FF334B"/>
</svg>
