<svg width="16" height="16" viewBox="0 0 16 16" fill="none" xmlns="http://www.w3.org/2000/svg">
<g clip-path="url(#clip0_5367_189293)">
<rect width="14" height="14" rx="2" transform="matrix(-4.37114e-08 -1 -1 4.37114e-08 15 15)" fill="#FF334B"/>
<path d="M15.2759 16.7L14.3071 16.4667L-1.70926 2.59988L-1.54654 1.92398L15.4921 16.6759C15.4255 16.7045 15.3518 16.7182 15.2759 16.7Z" fill="white"/>
<path d="M-0.557617 -0.698061L0.411148 -0.464839L16.4275 13.402L16.2648 14.0779L-0.773818 -0.674004C-0.707222 -0.702646 -0.633533 -0.716337 -0.557617 -0.698061Z" fill="white"/>
<path d="M15.4924 16.6756L-1.54628 1.92365L-0.976767 -0.442002C-0.950104 -0.552757 -0.870786 -0.632732 -0.773647 -0.674514L16.265 14.0774L15.6955 16.4431C15.6688 16.5538 15.5895 16.6338 15.4924 16.6756Z" fill="#464655"/>
</g>
<defs>
<clipPath id="clip0_5367_189293">
<rect width="14" height="14" rx="2" transform="matrix(-4.37114e-08 -1 -1 4.37114e-08 15 15)" fill="white"/>
</clipPath>
</defs>
</svg>
