<svg width="16" height="16" viewBox="0 0 16 16" fill="none" xmlns="http://www.w3.org/2000/svg">
<rect x="1" y="1" width="14" height="14" rx="2" fill="#FF334B"/>
<rect x="1" y="1" width="8" height="5.99561" fill="#41479B"/>
<path d="M4.01235 3.99718C4.01235 3.72462 4.12279 3.47787 4.30135 3.29922L3.47404 3.06256C3.42601 3.04884 3.3916 3.10847 3.42748 3.14319L4.04657 3.74178L3.21113 3.95065C3.1627 3.96275 3.1627 4.03162 3.21113 4.04375L4.04657 4.25262L3.42748 4.85121C3.39157 4.88593 3.42601 4.94556 3.47404 4.93184L4.30135 4.69518C4.12279 4.5165 4.01235 4.26975 4.01235 3.99718Z" fill="white"/>
<path d="M4.30169 3.29845C4.48034 3.11989 4.72709 3.00945 4.99966 3.00945C5.27222 3.00945 5.51897 3.11989 5.69762 3.29845L5.93428 2.47114C5.948 2.42311 5.88837 2.3887 5.85366 2.42458L5.25506 3.04364L5.04619 2.2082C5.03409 2.15977 4.96522 2.15977 4.95309 2.2082L4.74422 3.04364L4.14563 2.42458C4.11091 2.38867 4.05128 2.42311 4.065 2.47114L4.30169 3.29845Z" fill="white"/>
<path d="M5.69759 4.69531C5.51894 4.87387 5.27219 4.98431 4.99962 4.98431C4.72706 4.98431 4.48031 4.87387 4.30166 4.69531L4.065 5.52262C4.05128 5.57065 4.11091 5.60506 4.14563 5.56919L4.74422 4.95012L4.95309 5.78556C4.96519 5.834 5.03406 5.834 5.04619 5.78556L5.25506 4.95012L5.85365 5.56919C5.88837 5.60509 5.948 5.57065 5.93428 5.52262L5.69759 4.69531Z" fill="white"/>
<path d="M6.78849 3.95065L5.95305 3.74178L6.57212 3.14319C6.60802 3.10847 6.57358 3.04884 6.52555 3.06256L5.69824 3.29922C5.8768 3.47787 5.98724 3.72462 5.98724 3.99718C5.98724 4.26975 5.8768 4.5165 5.69824 4.69515L6.52555 4.93181C6.57358 4.94553 6.60799 4.8859 6.57212 4.85118L5.95305 4.25259L6.78849 4.04371C6.83696 4.03165 6.83696 3.96281 6.78849 3.95065Z" fill="white"/>
<path d="M4.99963 4.78343C5.43386 4.78343 5.78588 4.43142 5.78588 3.99719C5.78588 3.56295 5.43386 3.21094 4.99963 3.21094C4.56539 3.21094 4.21338 3.56295 4.21338 3.99719C4.21338 4.43142 4.56539 4.78343 4.99963 4.78343Z" fill="white"/>
</svg>
