<svg width="16" height="16" viewBox="0 0 16 16" fill="none" xmlns="http://www.w3.org/2000/svg">
<g clip-path="url(#clip0_5367_189238)">
<rect x="1" y="1" width="14" height="14" rx="2" fill="#82AFFF"/>
<path d="M15 3.30208H1V1.6442C1 1.2712 1.10809 0.96875 1.24139 0.96875H14.7586C14.8919 0.96875 15 1.2712 15 1.6442L15 3.30208Z" fill="#464655"/>
<path d="M15 5.63607H1V3.97819C1 3.60519 1.10809 3.30273 1.24139 3.30273H14.7586C14.8919 3.30273 15 3.60519 15 3.97819L15 5.63607Z" fill="#F8CB32"/>
<path d="M15 7.9681H1V6.31022C1 5.93722 1.10809 5.63477 1.24139 5.63477H14.7586C14.8919 5.63477 15 5.93722 15 6.31022L15 7.9681Z" fill="#FF334B"/>
<path d="M15 7.96875H1V10.3021H15V7.96875Z" fill="#464655"/>
<path d="M15 10.3027H1V12.6361H15V10.3027Z" fill="#F8CB32"/>
<path d="M14.7586 14.9681H1.24139C1.10809 14.9681 1 14.6656 1 14.2926V12.6348H15V14.2926C15 14.6657 14.8919 14.9681 14.7586 14.9681Z" fill="#FF334B"/>
<path d="M7.99979 10.397C9.32402 10.397 10.3975 9.32354 10.3975 7.9993C10.3975 6.67507 9.32402 5.60156 7.99979 5.60156C6.67556 5.60156 5.60205 6.67507 5.60205 7.9993C5.60205 9.32354 6.67556 10.397 7.99979 10.397Z" fill="white"/>
<path d="M8.14443 6.53937L8.3806 6.44489C8.41482 6.43122 8.43139 6.39193 8.41623 6.35838C8.36326 6.24095 8.22134 5.99795 7.95163 5.99061C7.78083 5.986 7.65312 6.02448 7.58105 6.05422C7.54425 6.06938 7.52944 6.1132 7.54954 6.14756L7.69205 6.39102L8.14443 6.53937Z" fill="#FF334B"/>
<path d="M7.95169 5.99038C7.93205 5.98983 7.91435 5.99097 7.89583 5.99151L7.87012 6.36856L8.00728 6.44452L8.30398 6.17607C8.22589 6.0816 8.11136 5.99468 7.95169 5.99038Z" fill="#F8CB32"/>
<path d="M8.96733 8.75726L7.89951 7.51145C7.89951 7.2536 7.99267 7.04305 8.04419 6.94622C8.19118 6.88058 8.28598 6.71892 8.2465 6.54051C8.21785 6.41073 8.11309 6.30484 7.98353 6.27523C7.75039 6.22195 7.54356 6.39755 7.54356 6.62154C7.54356 6.62996 7.54546 6.63789 7.54605 6.64617C7.31572 6.70692 7.27289 6.78098 7.27289 6.78098C7.27289 6.78098 7.42386 6.74083 7.55487 6.70652C7.5575 6.7172 7.56103 6.72748 7.56456 6.7378L7.30621 6.82553L7.58833 6.79121C7.61965 6.84853 7.6661 6.89615 7.72219 6.92911C7.51132 7.09896 7.18756 7.41815 7.18756 7.77849C7.18756 8.10797 7.4316 8.32752 7.73898 8.47347C7.84645 8.52453 7.94519 8.59185 8.0264 8.67877L8.02943 8.68203L8.05614 9.09104C7.83568 9.09104 7.57289 9.09104 7.45451 9.09104C7.23201 9.09104 7.1709 9.23563 7.1709 9.47478L7.27656 9.32463L7.36551 9.49149L7.37665 9.30235L7.47122 9.42467C7.47122 9.42467 7.47027 9.26487 7.59082 9.24391C7.65474 9.23277 7.87633 9.21888 8.06456 9.21888L8.10445 9.82838C7.84917 9.82721 7.56026 9.94744 7.56026 9.94744C7.64922 9.93074 7.86619 9.96415 7.86619 9.96415L7.83002 10.0698C8.08027 9.93354 8.53917 9.93074 8.53917 9.93074C8.53917 9.93074 8.43908 9.86247 8.20549 9.83576L8.21087 9.21883H8.57805L8.63364 9.07424C8.63364 9.07424 8.44419 8.82286 8.44419 8.68977C8.73795 8.74554 8.96733 8.75726 8.96733 8.75726ZM8.21196 9.09099L8.21382 8.8794C8.32405 8.99755 8.41124 9.09099 8.41124 9.09099C8.41124 9.09099 8.32889 9.09099 8.21196 9.09099Z" fill="#464655"/>
<path d="M8.96757 8.93553C8.87862 8.57958 8.48862 8.47016 8.07771 8.22362C7.63281 7.95667 7.89971 7.51172 7.89971 7.51172C7.89971 7.51172 9.39025 7.94925 9.50148 8.57953C9.58808 9.07043 9.23453 9.38044 9.05657 9.46939L9.12049 9.29139H8.78957C8.78957 9.29139 9.13996 9.01887 9.14553 8.75744L8.96757 8.93553Z" fill="#696E7D"/>
<path d="M9.50184 8.57952C9.42746 8.1581 8.7371 7.8232 8.2873 7.64724C8.14335 7.63121 8.01687 7.87318 8.41175 8.13456C8.94299 8.48622 8.96793 8.93547 8.96793 8.93547L9.14593 8.75747C9.14041 9.01886 8.78998 9.29142 8.78998 9.29142H9.12089L9.05698 9.46942C9.23488 9.38042 9.58844 9.07046 9.50184 8.57952Z" fill="#FFFCFF"/>
<path d="M9.50181 8.57952C9.45251 8.30025 9.1325 8.05928 8.7914 7.87707C8.62712 7.82795 8.48402 7.83425 8.48402 7.83425C8.58411 7.89545 8.62861 8.05113 8.62861 8.05113C8.55631 8.00663 8.39502 8.0289 8.39502 8.0289C8.43988 8.06738 8.48239 8.14579 8.51082 8.20595C8.94581 8.54407 8.9679 8.93552 8.9679 8.93552L9.1459 8.75752C9.14038 9.0189 8.78995 9.29147 8.78995 9.29147H9.12087L9.05695 9.46947C9.23486 9.38042 9.58841 9.07046 9.50181 8.57952Z" fill="#FF334B"/>
<path d="M7.7553 6.64799C7.78816 6.64799 7.8148 6.62142 7.8148 6.58865C7.8148 6.55587 7.78816 6.5293 7.7553 6.5293C7.72244 6.5293 7.6958 6.55587 7.6958 6.58865C7.6958 6.62142 7.72244 6.64799 7.7553 6.64799Z" fill="white"/>
<path d="M7.59941 6.81445C7.59941 6.81445 7.46962 6.96647 7.55491 7.01097C7.6402 7.05547 7.72245 6.92907 7.72245 6.92907L7.59941 6.81445Z" fill="#FF334B"/>
</g>
<defs>
<clipPath id="clip0_5367_189238">
<rect x="1" y="1" width="14" height="14" rx="2" fill="white"/>
</clipPath>
</defs>
</svg>
