<svg width="16" height="16" viewBox="0 0 16 16" fill="none" xmlns="http://www.w3.org/2000/svg">
<g clip-path="url(#clip0_5367_189063)">
<rect x="15" y="1" width="14" height="14" rx="2" transform="rotate(90 15 1)" fill="#F8CB32"/>
<path d="M15 1.24139L15 14.7586C15 14.8919 14.7525 15 14.4473 15L8 15L8 1L14.4473 1C14.7525 1 15 1.10809 15 1.24139Z" fill="white"/>
<path d="M12.2254 5.59869L12.207 5.63534C12.2664 5.66566 12.3003 5.70016 12.3003 5.73691L12.2911 5.55469C12.2787 5.57916 12.2545 5.59672 12.2254 5.59869Z" fill="#EBEBEB"/>
<path d="M10.7935 5.63534L10.7751 5.59869C10.7461 5.59669 10.7219 5.57916 10.7094 5.55469L10.7002 5.73691C10.7002 5.70022 10.7342 5.66566 10.7935 5.63534Z" fill="#EBEBEB"/>
<path d="M10.7798 5.43922C10.824 5.43922 10.8598 5.47503 10.8598 5.51922C10.8598 5.53522 10.8539 5.54928 10.8458 5.56178L10.8669 5.60387C10.9273 5.58266 11.0016 5.56462 11.0865 5.55066L11.0775 5.51466C11.0444 5.50484 11.0198 5.47541 11.0198 5.43919C11.0198 5.395 11.0556 5.35919 11.0998 5.35919C11.144 5.35919 11.1798 5.395 11.1798 5.43919C11.1798 5.46175 11.1704 5.48191 11.1554 5.49647L11.166 5.53919C11.2106 5.53359 11.2574 5.52919 11.3059 5.52587C11.3022 5.51084 11.2998 5.49531 11.2998 5.47919C11.2998 5.36875 11.3894 5.27919 11.4998 5.27919C11.6103 5.27919 11.6998 5.36875 11.6998 5.47919C11.6998 5.49538 11.6974 5.51084 11.6938 5.52587C11.7424 5.52916 11.7891 5.53359 11.8336 5.53919L11.8443 5.49647C11.8293 5.48191 11.8198 5.46175 11.8198 5.43919C11.8198 5.395 11.8556 5.35919 11.8998 5.35919C11.944 5.35919 11.9798 5.395 11.9798 5.43919C11.9798 5.47544 11.9552 5.50484 11.9222 5.51466L11.9132 5.55066C11.998 5.56459 12.0724 5.58262 12.1328 5.60387L12.1538 5.56178C12.1457 5.54925 12.1398 5.53522 12.1398 5.51922C12.1398 5.47503 12.1756 5.43922 12.2198 5.43922C12.2486 5.43922 12.2727 5.45525 12.2868 5.47809L12.2807 5.35609C12.2017 5.26641 11.8824 5.19922 11.4998 5.19922C11.1173 5.19922 10.798 5.26634 10.719 5.35609L10.7129 5.47809C10.727 5.45525 10.751 5.43922 10.7798 5.43922Z" fill="#EBEBEB"/>
<path d="M11.6247 4.49891C11.6464 4.47159 11.6598 4.43753 11.6598 4.4C11.6598 4.32553 11.6087 4.26353 11.5398 4.24566V4.14772C11.5633 4.13378 11.5798 4.10928 11.5798 4.08C11.5798 4.03581 11.544 4 11.4998 4C11.4557 4 11.4198 4.03581 11.4198 4.08C11.4198 4.10928 11.4364 4.13378 11.4598 4.14772V4.24566C11.3909 4.26347 11.3398 4.32553 11.3398 4.4C11.3398 4.43756 11.3533 4.47162 11.3749 4.49891C11.4156 4.48778 11.4571 4.48 11.4998 4.48C11.5426 4.48 11.584 4.48775 11.6247 4.49891Z" fill="#E6B432"/>
<path d="M11.1646 4.90434L11.1575 4.87594C11.1244 4.86612 11.0999 4.83669 11.0999 4.80047C11.0999 4.75628 11.1357 4.72047 11.1799 4.72047C11.224 4.72047 11.2599 4.75628 11.2599 4.80047C11.2599 4.82303 11.2504 4.84319 11.2354 4.85775L11.2444 4.89381C11.3227 4.88525 11.409 4.88047 11.4999 4.88047C11.4336 4.88047 11.3799 4.82675 11.3799 4.76047C11.3799 4.69419 11.4336 4.64047 11.4999 4.64047C11.5661 4.64047 11.6199 4.69419 11.6199 4.76047C11.6199 4.82675 11.5661 4.88047 11.4999 4.88047C11.5907 4.88047 11.677 4.88525 11.7553 4.89381L11.7643 4.85775C11.7493 4.84319 11.7399 4.82303 11.7399 4.80047C11.7399 4.75628 11.7757 4.72047 11.8199 4.72047C11.864 4.72047 11.8999 4.75628 11.8999 4.80047C11.8999 4.83672 11.8753 4.86612 11.8422 4.87594L11.8351 4.90434C11.8758 4.91062 11.9136 4.91791 11.9475 4.92622L12.0065 4.80828C11.9044 4.65019 11.7726 4.53987 11.6247 4.49937C11.584 4.48825 11.5426 4.48047 11.4998 4.48047C11.4571 4.48047 11.4156 4.48822 11.3749 4.49937C11.227 4.53984 11.0952 4.65016 10.9932 4.80828L11.0521 4.92622C11.0861 4.91791 11.1239 4.91062 11.1646 4.90434Z" fill="#EBEBEB"/>
<path d="M11.4207 11.4559V11.2812C11.4207 11.2625 11.4233 11.2445 11.4274 11.227C11.4252 11.2256 11.4229 11.2246 11.4207 11.2234C11.397 11.2096 11.3699 11.2012 11.3407 11.2012C11.3114 11.2012 11.2843 11.2096 11.2607 11.2234C11.213 11.2511 11.1807 11.3021 11.1807 11.3612C11.1807 11.4042 11.1979 11.4431 11.2255 11.4718C11.2598 11.4529 11.2987 11.4412 11.3406 11.4412C11.3689 11.4412 11.3955 11.4469 11.4207 11.4559Z" fill="#E6B432"/>
<path d="M11.581 10.823C11.5334 10.8507 11.501 10.9017 11.501 10.9608C11.501 11.0038 11.5182 11.0427 11.5458 11.0714C11.5801 11.0525 11.619 11.0408 11.661 11.0408C11.7029 11.0408 11.7418 11.0525 11.7762 11.0714C11.8038 11.0427 11.821 11.0038 11.821 10.9608C11.821 10.9017 11.7886 10.8507 11.741 10.823C11.7174 10.8092 11.6903 10.8008 11.661 10.8008C11.6317 10.8008 11.6046 10.8092 11.581 10.823Z" fill="#E6B432"/>
<path d="M11.5444 11.0697C11.4857 11.1021 11.4418 11.1577 11.4263 11.2249C11.4223 11.2423 11.4196 11.2603 11.4196 11.2791V11.4537C11.3945 11.4448 11.3678 11.4391 11.3396 11.4391C11.2976 11.4391 11.2587 11.4508 11.2244 11.4697C11.1504 11.5106 11.0996 11.5885 11.0996 11.6791V11.9991H11.5796V11.6791C11.5796 11.6508 11.5739 11.6242 11.5649 11.5991H11.8996V11.2791C11.8996 11.1885 11.8489 11.1106 11.7748 11.0697C11.7405 11.0508 11.7016 11.0391 11.6596 11.0391C11.6176 11.0391 11.5787 11.0507 11.5444 11.0697Z" fill="#FF4B57"/>
<path d="M11.5796 7.85395L11.7163 7.99067L11.763 7.94392C11.7741 7.93283 11.7879 7.92711 11.8022 7.92389L12.4788 7.24714L12.9122 7.68052L13.195 7.3977L13.0819 7.28458L13.0253 7.34114L12.9121 7.22802L12.9687 7.17145L12.9121 7.11486L13.0253 7.00173L13.0819 7.0583L13.1384 7.00173L13.2516 7.11486L13.195 7.17145L13.3081 7.28458L13.5909 7.00177L13.1575 6.5683L13.4541 6.27158C13.4398 6.2657 13.4263 6.25705 13.4147 6.24545L13.2547 6.08545C13.2428 6.07352 13.2341 6.05967 13.2282 6.04492L11.5615 7.71202C11.5722 7.72561 11.5796 7.74195 11.5796 7.76058L11.5796 7.85395Z" fill="#E6B432"/>
<path d="M11.3964 8.3298L11.1701 8.10352L10.4667 8.80708C10.4043 8.86961 10.4043 8.97089 10.4668 9.03333C10.498 9.06458 10.539 9.0802 10.5799 9.0802C10.6208 9.0802 10.6618 9.06458 10.6931 9.03333L11.2428 8.48342L11.3964 8.3298Z" fill="#E6B432"/>
<path d="M9.21312 9.15997C9.21756 9.14741 9.22047 9.13409 9.22047 9.12C9.22047 9.05372 9.16675 9 9.10047 9C9.03419 9 8.98047 9.05372 8.98047 9.12C8.98047 9.18628 9.03419 9.24 9.10047 9.24C9.11456 9.24 9.12787 9.23713 9.14044 9.23266C9.16312 9.20691 9.18737 9.18266 9.21312 9.15997Z" fill="#D2D2D2"/>
<path d="M9.14044 10.2866C9.12787 10.2822 9.11456 10.2793 9.10047 10.2793C9.03419 10.2793 8.98047 10.333 8.98047 10.3993C8.98047 10.4656 9.03419 10.5193 9.10047 10.5193C9.16675 10.5193 9.22047 10.4656 9.22047 10.3993C9.22047 10.3852 9.21759 10.3719 9.21312 10.3593C9.18737 10.3367 9.16312 10.3124 9.14044 10.2866Z" fill="#D2D2D2"/>
<path d="M10.3408 9.23266C10.3533 9.23709 10.3666 9.24 10.3807 9.24C10.447 9.24 10.5007 9.18628 10.5007 9.12C10.5007 9.05372 10.447 9 10.3807 9C10.3145 9 10.2607 9.05372 10.2607 9.12C10.2607 9.13409 10.2636 9.14741 10.2681 9.15997C10.2939 9.18266 10.3181 9.20691 10.3408 9.23266Z" fill="#D2D2D2"/>
<path d="M10.2607 10.4008C10.2607 10.4671 10.3145 10.5208 10.3807 10.5208C10.4177 10.5208 10.4503 10.5037 10.4724 10.4774C10.3971 10.4502 10.3269 10.4199 10.2621 10.3867C10.2616 10.3914 10.2607 10.396 10.2607 10.4008Z" fill="#D2D2D2"/>
<path d="M10.0934 10.285C10.0766 10.2728 10.0665 10.2551 10.0626 10.2362C10.049 10.2392 10.0349 10.2409 10.0205 10.2409C9.92546 10.2409 9.84605 10.1742 9.82577 10.0852C9.80402 10.1072 9.77384 10.1209 9.74046 10.1209C9.70705 10.1209 9.67687 10.1072 9.65515 10.0852C9.6349 10.1742 9.55549 10.2409 9.46046 10.2409C9.35018 10.2409 9.26046 10.1512 9.26046 10.0409C9.26046 9.94587 9.32721 9.8665 9.41618 9.84622C9.39415 9.82447 9.38046 9.79428 9.38046 9.76091C9.38046 9.7275 9.39415 9.69731 9.41618 9.67559C9.32721 9.65534 9.26046 9.57597 9.26046 9.48091C9.26046 9.37059 9.35018 9.28091 9.46046 9.28091C9.55546 9.28091 9.63487 9.34762 9.65515 9.43662C9.6769 9.41459 9.70709 9.40091 9.74046 9.40091C9.77387 9.40091 9.80405 9.41459 9.82577 9.43662C9.84602 9.34762 9.92543 9.28091 10.0205 9.28091C10.1307 9.28091 10.2205 9.37059 10.2205 9.48091C10.2205 9.57594 10.1537 9.65531 10.0647 9.67559C10.0868 9.69734 10.1005 9.72753 10.1005 9.76091C10.1005 9.79431 10.0868 9.8245 10.0647 9.84622C10.1537 9.86647 10.2205 9.94587 10.2205 10.0409C10.2205 10.0831 10.2072 10.1221 10.1848 10.1544C10.1856 10.155 10.1865 10.155 10.1872 10.1555C10.239 10.193 10.2986 10.2278 10.3649 10.2597C10.3848 10.2348 10.4029 10.2085 10.4198 10.1813C10.4725 10.0964 10.5098 10.0012 10.5276 9.89919C10.5356 9.85419 10.5404 9.80819 10.5404 9.76094C10.5404 9.55887 10.4645 9.37456 10.3405 9.23359C10.3178 9.20784 10.2935 9.18356 10.2678 9.16091C10.1268 9.03687 9.94252 8.96094 9.74043 8.96094C9.53834 8.96094 9.35405 9.03687 9.21309 9.16091C9.18734 9.18359 9.16305 9.20784 9.1404 9.23359C9.01637 9.37456 8.94043 9.55884 8.94043 9.76094C8.94043 9.96303 9.01637 10.1473 9.1404 10.2883C9.16309 10.314 9.18734 10.3383 9.21309 10.361C9.35405 10.485 9.53834 10.5609 9.74043 10.5609C9.93268 10.5609 10.1092 10.4927 10.2473 10.3793C10.1916 10.3499 10.1397 10.3186 10.0934 10.285ZM10.3589 9.59906C10.3725 9.65084 10.3805 9.70491 10.3805 9.76087C10.3805 9.81684 10.3725 9.87091 10.3589 9.92269C10.3363 9.85825 10.2963 9.80272 10.244 9.76087C10.2963 9.71903 10.3363 9.6635 10.3589 9.59906ZM9.9023 9.14244C9.83787 9.16503 9.78234 9.20509 9.74049 9.25741C9.69862 9.20509 9.64312 9.16503 9.57868 9.14244C9.63046 9.12884 9.68449 9.12087 9.74049 9.12087C9.79649 9.12087 9.85049 9.12884 9.9023 9.14244ZM9.12202 9.59906C9.14462 9.6635 9.18468 9.71906 9.23699 9.76087C9.18468 9.80275 9.14462 9.85825 9.12202 9.92269C9.10843 9.87091 9.10046 9.81687 9.10046 9.76087C9.10046 9.70487 9.10843 9.65084 9.12202 9.59906ZM9.57865 10.3793C9.64309 10.3567 9.69862 10.3167 9.74046 10.2644C9.78234 10.3167 9.83784 10.3568 9.90227 10.3793C9.85049 10.3929 9.79646 10.4009 9.74046 10.4009C9.68446 10.4009 9.63043 10.3929 9.57865 10.3793Z" fill="#E6B432"/>
<path d="M9.61988 9.76062C9.61988 9.69434 9.56616 9.64062 9.49988 9.64062C9.46701 9.64062 9.43726 9.65391 9.4156 9.67531C9.39357 9.69706 9.37988 9.72725 9.37988 9.76062C9.37988 9.79403 9.39357 9.82422 9.4156 9.84594C9.43729 9.86734 9.46701 9.88062 9.49988 9.88062C9.56616 9.88062 9.61988 9.82691 9.61988 9.76062Z" fill="#F0C814"/>
<path d="M9.86035 9.76062C9.86035 9.82691 9.91407 9.88062 9.98035 9.88062C10.0132 9.88062 10.043 9.86734 10.0646 9.84594C10.0867 9.82419 10.1004 9.794 10.1004 9.76062C10.1004 9.72722 10.0867 9.69703 10.0646 9.67531C10.0429 9.65391 10.0132 9.64062 9.98035 9.64062C9.91407 9.64063 9.86035 9.69434 9.86035 9.76062Z" fill="#F0C814"/>
<path d="M9.74012 9.64039C9.8064 9.64039 9.86012 9.58667 9.86012 9.52039C9.86012 9.48752 9.84684 9.45777 9.82543 9.43611C9.80368 9.41408 9.77349 9.40039 9.74012 9.40039C9.70671 9.40039 9.67652 9.41408 9.65481 9.43611C9.6334 9.4578 9.62012 9.48752 9.62012 9.52039C9.62012 9.58667 9.67384 9.64039 9.74012 9.64039Z" fill="#F0C814"/>
<path d="M9.74012 9.88086C9.67384 9.88086 9.62012 9.93458 9.62012 10.0009C9.62012 10.0337 9.6334 10.0635 9.65481 10.0851C9.67656 10.1072 9.70674 10.1209 9.74012 10.1209C9.77352 10.1209 9.80371 10.1072 9.82543 10.0851C9.84684 10.0635 9.86012 10.0337 9.86012 10.0009C9.86012 9.93458 9.8064 9.88086 9.74012 9.88086Z" fill="#F0C814"/>
<path d="M13.4158 6.2447C13.4274 6.25633 13.4408 6.26502 13.4552 6.27083C13.4697 6.2768 13.4852 6.27983 13.5006 6.27983C13.5313 6.27983 13.562 6.26811 13.5854 6.24464C13.627 6.20305 13.6295 6.13961 13.5973 6.09286L13.6416 5.91595C13.6479 5.91755 13.6539 5.91977 13.6606 5.91977C13.7048 5.91977 13.7406 5.88395 13.7406 5.83977C13.7406 5.79558 13.7048 5.75977 13.6606 5.75977C13.6164 5.75977 13.5806 5.79558 13.5806 5.83977C13.5806 5.84652 13.5829 5.85252 13.5844 5.8588L13.4075 5.90305C13.3608 5.87083 13.2973 5.87336 13.2557 5.91495C13.2208 5.94989 13.2121 6.00095 13.2292 6.04414C13.2351 6.05886 13.2438 6.07273 13.2557 6.08467L13.4158 6.2447Z" fill="#D2D2D2"/>
<path d="M11.4206 8.12745V8.08058V7.76058C11.4206 7.74195 11.4279 7.72561 11.4386 7.71202L9.77193 6.04492C9.76605 6.05964 9.75734 6.07352 9.7454 6.08545L9.5854 6.24545C9.57377 6.25708 9.56034 6.26577 9.54602 6.27158L9.84265 6.5683L9.40918 7.00177L9.69199 7.28458L9.80512 7.17145L9.74855 7.11486L9.86168 7.00173L9.91824 7.0583L9.97484 7.00173L10.088 7.11486L10.0314 7.17145L10.088 7.22802L9.97484 7.34114L9.91824 7.28458L9.80512 7.3977L10.0879 7.68052L10.5213 7.24714L11.1979 7.92389C11.2122 7.92711 11.226 7.93283 11.2371 7.94392L11.4206 8.12745Z" fill="#D2D2D2"/>
<path d="M11.6045 8.32983L11.7581 8.48342L12.3078 9.03333C12.3391 9.06458 12.38 9.0802 12.421 9.0802C12.4619 9.0802 12.5029 9.06458 12.5341 9.03333C12.5966 8.97092 12.5966 8.86958 12.5341 8.80708L11.8308 8.10352L11.6045 8.32983Z" fill="#D2D2D2"/>
<path d="M11.5801 8.08005V8.12692L11.7168 7.99023L11.5801 7.85352V8.08005Z" fill="#D2D2D2"/>
<path d="M13.8603 9.23266C13.8729 9.23709 13.8862 9.24 13.9003 9.24C13.9666 9.24 14.0203 9.18628 14.0203 9.12C14.0203 9.05372 13.9666 9 13.9003 9C13.834 9 13.7803 9.05372 13.7803 9.12C13.7803 9.13409 13.7831 9.14741 13.7876 9.15997C13.8134 9.18266 13.8376 9.20691 13.8603 9.23266Z" fill="#D2D2D2"/>
<path d="M13.9003 10.2793C13.8862 10.2793 13.8729 10.2822 13.8603 10.2866C13.8376 10.3124 13.8134 10.3367 13.7876 10.3593C13.7832 10.3719 13.7803 10.3852 13.7803 10.3993C13.7803 10.4656 13.834 10.5193 13.9003 10.5193C13.9666 10.5193 14.0203 10.4656 14.0203 10.3993C14.0203 10.333 13.9666 10.2793 13.9003 10.2793Z" fill="#D2D2D2"/>
<path d="M12.7336 9.15997C12.7381 9.14741 12.741 9.13409 12.741 9.12C12.741 9.05372 12.6873 9 12.621 9C12.5547 9 12.501 9.05372 12.501 9.12C12.501 9.18628 12.5547 9.24 12.621 9.24C12.6351 9.24 12.6484 9.23713 12.6609 9.23266C12.6836 9.20691 12.7079 9.18266 12.7336 9.15997Z" fill="#D2D2D2"/>
<path d="M12.6209 10.5208C12.6872 10.5208 12.7409 10.4671 12.7409 10.4008C12.7409 10.396 12.74 10.3914 12.7395 10.3867C12.6748 10.4199 12.6045 10.4503 12.5293 10.4775C12.5513 10.5038 12.5839 10.5208 12.6209 10.5208Z" fill="#D2D2D2"/>
<path d="M13.86 10.2883C13.984 10.1473 14.06 9.96303 14.06 9.76094C14.06 9.55884 13.984 9.37456 13.86 9.23359C13.8373 9.20784 13.8131 9.18356 13.7873 9.16091C13.6463 9.03687 13.4621 8.96094 13.26 8.96094C13.0579 8.96094 12.8736 9.03687 12.7326 9.16091C12.7069 9.18359 12.6826 9.20784 12.6599 9.23359C12.5359 9.37456 12.46 9.55884 12.46 9.76094C12.46 9.80841 12.4649 9.85469 12.4729 9.89994C12.4908 10.0017 12.528 10.0966 12.5806 10.1813C12.5975 10.2085 12.6156 10.2348 12.6355 10.2597C12.7017 10.2279 12.7613 10.1931 12.8131 10.1557C12.8138 10.1551 12.8148 10.155 12.8156 10.1545C12.7932 10.1222 12.78 10.0831 12.78 10.0409C12.78 9.94591 12.8467 9.86653 12.9357 9.84625C12.9136 9.8245 12.9 9.79431 12.9 9.76094C12.9 9.72753 12.9136 9.69734 12.9357 9.67563C12.8467 9.65538 12.78 9.576 12.78 9.48094C12.78 9.37063 12.8697 9.28094 12.98 9.28094C13.075 9.28094 13.1544 9.34766 13.1746 9.43666C13.1964 9.41462 13.2266 9.40094 13.26 9.40094C13.2933 9.40094 13.3236 9.41462 13.3453 9.43666C13.3656 9.34766 13.4449 9.28094 13.54 9.28094C13.6502 9.28094 13.74 9.37063 13.74 9.48094C13.74 9.57597 13.6732 9.65534 13.5842 9.67563C13.6063 9.69738 13.62 9.72756 13.62 9.76094C13.62 9.79434 13.6063 9.82453 13.5842 9.84625C13.6732 9.8665 13.74 9.94591 13.74 10.0409C13.74 10.1513 13.6502 10.2409 13.54 10.2409C13.445 10.2409 13.3656 10.1742 13.3453 10.0852C13.3235 10.1073 13.2933 10.1209 13.26 10.1209C13.2266 10.1209 13.1964 10.1073 13.1746 10.0852C13.1544 10.1742 13.075 10.2409 12.98 10.2409C12.9655 10.2409 12.9514 10.2392 12.9377 10.2363C12.9339 10.2552 12.9237 10.273 12.9068 10.2852C12.8605 10.3188 12.8087 10.35 12.7531 10.3793C12.8911 10.4927 13.0677 10.561 13.2599 10.561C13.462 10.561 13.6463 10.485 13.7873 10.361C13.8131 10.3383 13.8373 10.314 13.86 10.2883ZM12.6415 9.92278C12.6279 9.871 12.62 9.81697 12.62 9.76097C12.62 9.70497 12.6279 9.65094 12.6415 9.59916C12.6641 9.66359 12.7042 9.71916 12.7565 9.76097C12.7042 9.80281 12.6641 9.85831 12.6415 9.92278ZM13.26 9.25747C13.2181 9.20516 13.1626 9.16509 13.0981 9.1425C13.1499 9.12891 13.204 9.12094 13.26 9.12094C13.316 9.12094 13.37 9.12891 13.4218 9.1425C13.3573 9.16509 13.3018 9.20516 13.26 9.25747ZM13.8784 9.59913C13.892 9.65091 13.9 9.70497 13.9 9.76094C13.9 9.81691 13.892 9.87097 13.8784 9.92275C13.8558 9.85831 13.8158 9.80278 13.7635 9.76094C13.8158 9.71909 13.8558 9.66356 13.8784 9.59913ZM13.0981 10.3794C13.1626 10.3568 13.2181 10.3168 13.26 10.2644C13.3018 10.3168 13.3573 10.3568 13.4218 10.3794C13.37 10.393 13.316 10.401 13.26 10.401C13.204 10.401 13.1499 10.393 13.0981 10.3794Z" fill="#E6B432"/>
<path d="M13.3799 9.76062C13.3799 9.82691 13.4336 9.88062 13.4999 9.88062C13.5328 9.88062 13.5625 9.86734 13.5842 9.84594C13.6062 9.82419 13.6199 9.794 13.6199 9.76062C13.6199 9.72722 13.6062 9.69703 13.5842 9.67531C13.5625 9.65391 13.5328 9.64062 13.4999 9.64062C13.4336 9.64063 13.3799 9.69434 13.3799 9.76062Z" fill="#F0C814"/>
<path d="M13.1394 9.76062C13.1394 9.69434 13.0857 9.64062 13.0194 9.64062C12.9865 9.64062 12.9568 9.65391 12.9351 9.67531C12.9131 9.69706 12.8994 9.72725 12.8994 9.76062C12.8994 9.79403 12.9131 9.82422 12.9351 9.84594C12.9568 9.86734 12.9865 9.88062 13.0194 9.88062C13.0857 9.88062 13.1394 9.82691 13.1394 9.76062Z" fill="#F0C814"/>
<path d="M13.2596 9.64039C13.3259 9.64039 13.3797 9.58667 13.3797 9.52039C13.3797 9.48752 13.3664 9.45777 13.345 9.43611C13.3232 9.41408 13.293 9.40039 13.2596 9.40039C13.2263 9.40039 13.1961 9.41408 13.1743 9.43611C13.1529 9.4578 13.1396 9.48752 13.1396 9.52039C13.1396 9.58667 13.1934 9.64039 13.2596 9.64039Z" fill="#F0C814"/>
<path d="M13.2596 9.88086C13.1934 9.88086 13.1396 9.93458 13.1396 10.0009C13.1396 10.0337 13.1529 10.0635 13.1743 10.0851C13.1961 10.1072 13.2263 10.1209 13.2596 10.1209C13.293 10.1209 13.3232 10.1072 13.345 10.0851C13.3664 10.0635 13.3797 10.0337 13.3797 10.0009C13.3797 9.93458 13.3259 9.88086 13.2596 9.88086Z" fill="#F0C814"/>
<path d="M9.74464 6.08467C9.75658 6.07273 9.7653 6.05889 9.77117 6.04414C9.7883 6.00095 9.77958 5.94992 9.74464 5.91495C9.70305 5.87336 9.63961 5.87086 9.59286 5.90305L9.41595 5.8588C9.41755 5.85252 9.41977 5.84652 9.41977 5.83977C9.41977 5.79558 9.38395 5.75977 9.33977 5.75977C9.29558 5.75977 9.25977 5.79558 9.25977 5.83977C9.25977 5.88395 9.29558 5.91977 9.33977 5.91977C9.34652 5.91977 9.35252 5.91748 9.3588 5.91595L9.40305 6.09286C9.37083 6.13961 9.37336 6.20308 9.41495 6.24464C9.43839 6.26808 9.46908 6.27983 9.49977 6.27983C9.51524 6.27983 9.5307 6.27677 9.54524 6.27083C9.55955 6.26495 9.57299 6.2563 9.58461 6.2447L9.74464 6.08467Z" fill="#F7B518"/>
<path d="M12.9072 10.2839C12.9241 10.2717 12.9342 10.2539 12.9381 10.235C12.9425 10.2137 12.9388 10.191 12.9251 10.1722C12.8998 10.1372 12.8516 10.1292 12.816 10.1532C12.8152 10.1537 12.8143 10.1537 12.8134 10.1543C12.7617 10.1918 12.7021 10.2266 12.6359 10.2584C12.4014 10.3712 12.0838 10.4465 11.7404 10.4708V9.34716C12.0895 9.82394 12.4295 10.0802 12.581 10.18C12.5284 10.0953 12.4912 10.0004 12.4733 9.89866C12.2796 9.73847 12.0059 9.46941 11.7404 9.06372V8.52012C11.746 8.50766 11.7518 8.4955 11.7574 8.48288L11.6039 8.32928L11.8301 8.103L11.8769 8.05625C11.9081 8.025 11.9081 7.97437 11.8769 7.94312C11.8568 7.923 11.8288 7.91725 11.8029 7.92309C11.7886 7.92631 11.7749 7.93203 11.7637 7.94312L11.717 7.98987L11.5803 8.12656V8.07969V7.85313V7.75969C11.5803 7.74106 11.5729 7.72472 11.5623 7.71112C11.5476 7.69244 11.5259 7.67969 11.5003 7.67969C11.4747 7.67969 11.453 7.69244 11.4383 7.71112C11.4277 7.72472 11.4203 7.74106 11.4203 7.75969V8.07969V8.12656L11.2369 7.94312C11.2258 7.93203 11.2119 7.92631 11.1977 7.92309C11.1718 7.91728 11.1439 7.923 11.1237 7.94312C11.0924 7.97437 11.0924 8.025 11.1237 8.05625L11.1704 8.103L11.3967 8.32928L11.2432 8.48288C11.2488 8.49553 11.2546 8.50762 11.2602 8.52012V9.06306C10.995 9.46794 10.7212 9.73731 10.5274 9.89787C10.5095 9.99991 10.4724 10.0951 10.4196 10.18C10.571 10.0802 10.9111 9.82391 11.2602 9.34709V10.4708C10.9168 10.4465 10.5992 10.3712 10.3646 10.2584C10.2984 10.2265 10.2387 10.1917 10.187 10.1542C10.1862 10.1537 10.1853 10.1536 10.1846 10.1531C10.149 10.1291 10.1007 10.1372 10.0753 10.172C10.0615 10.191 10.0579 10.2137 10.0623 10.235C10.0662 10.2538 10.0763 10.2716 10.0931 10.2837C10.1395 10.3173 10.1914 10.3486 10.2471 10.378C10.2519 10.3805 10.2567 10.383 10.2616 10.3856C10.3263 10.4188 10.3966 10.4491 10.4719 10.4763C10.699 10.5585 10.9697 10.6122 11.2602 10.6315V11.2218C11.2839 11.2081 11.3109 11.1996 11.3402 11.1996C11.3695 11.1996 11.3966 11.2081 11.4202 11.2218V10.6385C11.4468 10.639 11.4734 10.6396 11.5002 10.6396C11.527 10.6396 11.5536 10.639 11.5802 10.6385V10.8218C11.6039 10.8081 11.6309 10.7996 11.6602 10.7996C11.6895 10.7996 11.7166 10.8081 11.7402 10.8218V10.6315C12.0308 10.6122 12.3015 10.5585 12.5286 10.4763C12.6039 10.4491 12.6741 10.4187 12.7388 10.3855C12.7437 10.383 12.7485 10.3805 12.7534 10.3779C12.8091 10.3487 12.8609 10.3174 12.9072 10.2839ZM11.5003 10.4797C11.4736 10.4797 11.4469 10.4791 11.4203 10.4785V9.11312C11.4471 9.07103 11.4738 9.02722 11.5003 8.98234C11.5269 9.02725 11.5535 9.07103 11.5803 9.11312V10.4785C11.5538 10.4791 11.5271 10.4797 11.5003 10.4797Z" fill="#FF334B"/>
<path d="M11.5001 5.90155C11.9419 5.90155 12.3001 5.97717 12.3001 6.07045C12.3001 5.91352 12.3001 5.76039 12.3001 5.73648C12.3001 5.6998 12.2663 5.66523 12.2071 5.63492L12.2254 5.59827C12.2544 5.59627 12.2785 5.57873 12.291 5.55427C12.2964 5.54364 12.3002 5.53214 12.3002 5.51933C12.3002 5.50395 12.2947 5.49039 12.2872 5.4782C12.2731 5.45539 12.249 5.43933 12.2202 5.43933C12.176 5.43933 12.1402 5.47514 12.1402 5.51933C12.1402 5.53533 12.1461 5.54939 12.1542 5.56189L12.1331 5.60398C12.0728 5.58277 11.9984 5.56473 11.9135 5.55077L11.9225 5.51477C11.9556 5.50495 11.9802 5.47552 11.9802 5.4393C11.9802 5.39511 11.9444 5.3593 11.9002 5.3593C11.856 5.3593 11.8202 5.39511 11.8202 5.4393C11.8202 5.46186 11.8297 5.48202 11.8447 5.49658L11.834 5.5393C11.7894 5.5337 11.7427 5.5293 11.6942 5.52598C11.6978 5.51095 11.7002 5.49542 11.7002 5.4793C11.7002 5.36886 11.6106 5.2793 11.5002 5.2793C11.3898 5.2793 11.3002 5.36886 11.3002 5.4793C11.3002 5.49548 11.3026 5.51095 11.3062 5.52598C11.2577 5.52927 11.2109 5.5337 11.1664 5.5393L11.1557 5.49658C11.1707 5.48202 11.1802 5.46186 11.1802 5.4393C11.1802 5.39511 11.1444 5.3593 11.1002 5.3593C11.056 5.3593 11.0202 5.39511 11.0202 5.4393C11.0202 5.47555 11.0448 5.50495 11.0779 5.51477L11.0869 5.55077C11.002 5.5647 10.9276 5.58273 10.8673 5.60398L10.8462 5.56189C10.8543 5.54936 10.8602 5.53533 10.8602 5.51933C10.8602 5.47514 10.8244 5.43933 10.7802 5.43933C10.7514 5.43933 10.7273 5.45536 10.7132 5.4782C10.7057 5.49042 10.7002 5.50395 10.7002 5.51933C10.7002 5.53211 10.704 5.54364 10.7094 5.55427C10.7218 5.57873 10.7459 5.59627 10.7749 5.59827L10.7933 5.63492C10.7341 5.66523 10.7002 5.69973 10.7002 5.73648C10.7002 5.76042 10.7002 5.91352 10.7002 6.07045C10.7001 5.97717 11.0583 5.90155 11.5001 5.90155Z" fill="#E6B432"/>
<path d="M10.7002 6.07921L10.7012 6.0788C10.7009 6.07611 10.7002 6.07247 10.7002 6.07031C10.7002 6.07332 10.7002 6.07623 10.7002 6.07921Z" fill="#E6B432"/>
<path d="M12.2998 6.07924C12.2998 6.07627 12.2998 6.07332 12.2998 6.07031C12.2998 6.07251 12.2991 6.07614 12.2988 6.0788L12.2998 6.07924Z" fill="#E6B432"/>
<path d="M10.8602 6.24009C10.8602 6.25609 10.8543 6.27016 10.8462 6.28266L10.8765 6.34331C10.9294 6.31706 11.0018 6.29453 11.0882 6.27725L11.0778 6.23559C11.0448 6.22578 11.0202 6.19634 11.0202 6.16013C11.0202 6.11594 11.056 6.08013 11.1002 6.08013C11.1444 6.08013 11.1802 6.11594 11.1802 6.16013C11.1802 6.18269 11.1707 6.20284 11.1557 6.21741L11.1673 6.26353C11.2444 6.252 11.3297 6.24431 11.4202 6.24147V6.169C11.3958 6.14703 11.3802 6.11556 11.3802 6.08013C11.3802 6.01384 11.4339 5.96013 11.5002 5.96013C11.5665 5.96013 11.6202 6.01384 11.6202 6.08013C11.6202 6.11553 11.6046 6.14703 11.5802 6.169V6.24147C11.6707 6.24434 11.7559 6.25203 11.8331 6.26353L11.8447 6.21741C11.8297 6.20284 11.8202 6.18269 11.8202 6.16013C11.8202 6.11594 11.856 6.08013 11.9002 6.08013C11.9444 6.08013 11.9802 6.11594 11.9802 6.16013C11.9802 6.19638 11.9556 6.22578 11.9226 6.23559L11.9122 6.27725C11.9986 6.29453 12.071 6.31713 12.1239 6.34331L12.1542 6.28266C12.1461 6.27013 12.1402 6.25609 12.1402 6.24009C12.1402 6.19591 12.176 6.16009 12.2202 6.16009C12.2393 6.16009 12.2562 6.16775 12.2699 6.17897C12.2878 6.13525 12.2972 6.10053 12.2992 6.07972C12.2994 6.07703 12.3002 6.07341 12.3002 6.07125C12.3002 5.97797 11.942 5.90234 11.5002 5.90234C11.0584 5.90234 10.7002 5.97797 10.7002 6.07125C10.7002 6.07344 10.7009 6.07706 10.7012 6.07972C10.7031 6.10053 10.7126 6.13525 10.7304 6.17897C10.7442 6.16775 10.761 6.16009 10.7802 6.16009C10.8244 6.16009 10.8602 6.19594 10.8602 6.24009Z" fill="#EBEBEB"/>
<path d="M10.7002 6.24091C10.7002 6.28322 10.7333 6.317 10.7749 6.31984L10.8094 6.38888C10.7907 6.40722 10.7802 6.42653 10.7802 6.44659C10.7802 6.46966 10.7941 6.49181 10.8186 6.51253L10.9402 6.72091C10.9402 6.63253 11.1909 6.56091 11.5002 6.56091C11.8094 6.56091 12.0602 6.63253 12.0602 6.72091L12.1817 6.51253C12.2063 6.49181 12.2202 6.46972 12.2202 6.44659C12.2202 6.42653 12.2096 6.40722 12.1909 6.38888L12.2254 6.31984C12.267 6.31697 12.3002 6.28322 12.3002 6.24091C12.3002 6.21588 12.2879 6.19444 12.2699 6.17978C12.2562 6.16856 12.2393 6.16091 12.2202 6.16091C12.176 6.16091 12.1402 6.19672 12.1402 6.24091C12.1402 6.25691 12.1461 6.27097 12.1542 6.28347L12.1239 6.34412C12.0709 6.31787 11.9986 6.29534 11.9121 6.27806L11.9225 6.23641C11.9556 6.22659 11.9802 6.19716 11.9802 6.16094C11.9802 6.11675 11.9444 6.08094 11.9002 6.08094C11.856 6.08094 11.8202 6.11675 11.8202 6.16094C11.8202 6.1835 11.8297 6.20366 11.8447 6.21822L11.8331 6.26434C11.7559 6.25281 11.6707 6.24512 11.5802 6.24228V6.16981C11.6045 6.14784 11.6202 6.11637 11.6202 6.08094C11.6202 6.01466 11.5664 5.96094 11.5002 5.96094C11.4339 5.96094 11.3802 6.01466 11.3802 6.08094C11.3802 6.11634 11.3958 6.14784 11.4202 6.16981V6.24228C11.3297 6.24516 11.2444 6.25284 11.1672 6.26434L11.1557 6.21822C11.1707 6.20366 11.1801 6.1835 11.1801 6.16094C11.1801 6.11675 11.1443 6.08094 11.1001 6.08094C11.0559 6.08094 11.0201 6.11675 11.0201 6.16094C11.0201 6.19719 11.0447 6.22659 11.0778 6.23641L11.0882 6.27806C11.0017 6.29534 10.9294 6.31794 10.8765 6.34412L10.8462 6.28347C10.8543 6.27094 10.8602 6.25691 10.8602 6.24091C10.8602 6.19672 10.8244 6.16091 10.7802 6.16091C10.761 6.16091 10.7442 6.16856 10.7304 6.17978C10.7124 6.19444 10.7002 6.21588 10.7002 6.24091Z" fill="#E6B432"/>
<path d="M11.5004 6.88055C11.8097 6.88055 12.0604 6.80891 12.0604 6.72055C12.0604 6.63218 11.8097 6.56055 11.5004 6.56055C11.1911 6.56055 10.9404 6.63218 10.9404 6.72055C10.9404 6.80891 11.1911 6.88055 11.5004 6.88055Z" fill="#EBEBEB"/>
<path d="M12.2805 5.35742L12.1396 5.04055C12.1396 5.02055 12.1243 5.00148 12.0974 4.98383L12.2112 4.75636C12.2309 4.71683 12.2149 4.66876 12.1754 4.64901C12.1357 4.62939 12.0878 4.64536 12.068 4.6848L12.0062 4.80839L11.9473 4.92633C11.9133 4.91801 11.8755 4.91073 11.8349 4.90445L11.842 4.87605C11.875 4.86623 11.8996 4.8368 11.8996 4.80058C11.8996 4.75639 11.8638 4.72058 11.8196 4.72058C11.7754 4.72058 11.7396 4.75639 11.7396 4.80058C11.7396 4.82314 11.7491 4.8433 11.7641 4.85786L11.7551 4.89392C11.6768 4.88536 11.5905 4.88058 11.4996 4.88058C11.4087 4.88058 11.3224 4.88536 11.2442 4.89392L11.2352 4.85786C11.2502 4.8433 11.2596 4.82314 11.2596 4.80058C11.2596 4.75639 11.2238 4.72058 11.1796 4.72058C11.1354 4.72058 11.0996 4.75639 11.0996 4.80058C11.0996 4.83683 11.1242 4.86623 11.1573 4.87605L11.1644 4.90445C11.1237 4.91073 11.0859 4.91801 11.0519 4.92633L10.993 4.80839L10.9312 4.6848C10.9114 4.64536 10.8635 4.62942 10.8238 4.64901C10.7843 4.66876 10.7683 4.71683 10.7881 4.75636L10.9018 4.98383C10.875 5.00148 10.8596 5.02055 10.8596 5.04055L10.7188 5.35742C10.7977 5.26773 11.1171 5.20055 11.4996 5.20055C11.8822 5.20055 12.2015 5.2677 12.2805 5.35742Z" fill="#E6B432"/>
<path d="M11.4999 4.88062C11.5662 4.88062 11.6199 4.8269 11.6199 4.76062C11.6199 4.69435 11.5662 4.64062 11.4999 4.64062C11.4336 4.64062 11.3799 4.69435 11.3799 4.76062C11.3799 4.8269 11.4336 4.88062 11.4999 4.88062Z" fill="#E6B432"/>
</g>
<defs>
<clipPath id="clip0_5367_189063">
<rect x="15" y="1" width="14" height="14" rx="2" transform="rotate(90 15 1)" fill="white"/>
</clipPath>
</defs>
</svg>
