<svg width="16" height="16" viewBox="0 0 16 16" fill="none" xmlns="http://www.w3.org/2000/svg">
<rect x="1" y="1" width="14" height="14" rx="2" fill="white"/>
<path d="M12.1435 8.95331L12.23 9.25658L12.5305 8.36366L11.6971 8.80306L12.0103 8.83991L11.0101 10.0151L11.0014 9.99024L11.8003 8.33613L11.9605 8.60782L12.0258 7.66797L11.3304 8.30347L11.6427 8.26006L10.8439 9.91417L10.819 9.92284L11.1176 8.40877L11.3412 8.63119L11.1672 7.70529L10.6547 8.49579L10.946 8.3749L10.624 10.0075L10.5189 10.2252L10.4056 10.3011L10.359 10.5373L9.96289 11.0027L10.2721 10.9778L10.216 11.2623L10.3254 11.189L10.336 11.3202L10.5239 11.0994L10.6966 11.357L10.8149 10.7574L10.9709 10.5741L10.96 10.4382L11.0651 10.2205L12.1435 8.95331Z" fill="#4173CD"/>
<path d="M4.94818 8.06451C4.98215 7.91177 4.96109 7.76866 4.90291 7.68057C4.81283 7.73574 4.73313 7.85641 4.69916 8.00915C4.68344 8.07988 4.68062 8.14793 4.68674 8.21003L4.49973 7.9312C4.57589 7.8691 4.64144 7.76279 4.6712 7.62902C4.70517 7.47628 4.68411 7.33318 4.62593 7.24508C4.53585 7.30025 4.45616 7.42093 4.42218 7.57366C4.4041 7.655 4.40254 7.73284 4.41298 7.80188L4.28654 7.61338C4.29287 7.51766 4.26346 7.40123 4.19292 7.29027C4.10895 7.15825 3.99287 7.07195 3.88943 7.05078C3.86477 7.15347 3.89372 7.29518 3.97768 7.42718C4.04903 7.53937 4.1433 7.61574 4.2336 7.64998L4.34947 7.84232C4.29134 7.8036 4.22018 7.77199 4.13882 7.75391C3.98608 7.71993 3.84298 7.741 3.75488 7.79917C3.81005 7.88923 3.93072 7.96895 4.08346 8.00292C4.21723 8.03268 4.34133 8.01838 4.42986 7.97571L4.60312 8.26332C4.54943 8.23147 4.48664 8.20517 4.41588 8.18942C4.26314 8.15545 4.12004 8.17651 4.03194 8.23469C4.08711 8.32474 4.20778 8.40446 4.36052 8.43844C4.48854 8.46693 4.60777 8.45502 4.69554 8.41667L4.85507 8.68147C4.80575 8.65485 4.75084 8.63201 4.68864 8.61819C4.53591 8.58422 4.3928 8.60529 4.30471 8.66346C4.35988 8.75352 4.48055 8.83324 4.63329 8.86721C4.7557 8.89442 4.87044 8.88511 4.95712 8.85084L5.11098 9.10622C5.06679 9.08459 5.01918 9.06562 4.96568 9.05373C4.81294 9.01976 4.66983 9.04083 4.58174 9.099C4.63691 9.18906 4.75758 9.26878 4.91032 9.30275C5.02699 9.3287 5.13757 9.32215 5.2228 9.29183L5.36295 9.52442C5.32439 9.50741 5.28341 9.49255 5.23847 9.48254C5.08573 9.44856 4.94263 9.46963 4.85453 9.52781C4.9097 9.61786 5.03037 9.69758 5.18311 9.73155C5.29439 9.75629 5.39998 9.75122 5.48346 9.72444L5.92858 10.4633L6.11762 10.343L5.63711 9.62666C5.69673 9.56234 5.74611 9.4689 5.77085 9.35763C5.80482 9.20489 5.78376 9.06178 5.72558 8.97369C5.6355 9.02886 5.5558 9.14953 5.52183 9.30224C5.51182 9.34719 5.50793 9.3906 5.50699 9.43271L5.35576 9.20722C5.41933 9.14288 5.47216 9.0455 5.49808 8.92882C5.53206 8.77608 5.51099 8.63298 5.45282 8.54488C5.36273 8.60005 5.28304 8.72073 5.24907 8.87346C5.23715 8.92697 5.2342 8.97812 5.23503 9.02728L5.06899 8.77971C5.13677 8.71568 5.19384 8.61573 5.22108 8.49336C5.25505 8.34063 5.23399 8.19752 5.17581 8.10943C5.08573 8.1646 5.00603 8.28527 4.97206 8.43801C4.95824 8.50018 4.95564 8.55959 4.95883 8.61551L4.78661 8.35879C4.85842 8.29544 4.91971 8.1925 4.94818 8.06451Z" fill="#73AF00"/>
<path d="M6.88325 8.04066L6.64636 6.61941H6.60971C6.39469 6.61941 6.24281 6.40874 6.31083 6.20472L6.31161 6.20244C6.36595 6.0394 6.27962 5.86291 6.11758 5.80573L2.86514 4.65784C2.68079 4.59277 2.50715 4.77816 2.58416 4.95787L2.93686 5.78083C3.03835 6.01758 3.21422 6.21481 3.43785 6.34262L4.34008 6.85818C4.6096 7.01218 4.91462 7.09319 5.22503 7.09319H5.22508L5.30602 7.25502C5.54679 7.7365 6.03893 8.04066 6.57726 8.04066H6.88325Z" fill="#F8CB32"/>
<path d="M9.72559 8.04027L9.96247 6.61902H9.99913C10.2141 6.61902 10.366 6.40835 10.298 6.20433L10.2972 6.20205C10.2429 6.03901 10.3292 5.86252 10.4913 5.80534L13.7424 4.65788C13.9272 4.59262 14.1013 4.77855 14.0241 4.95874L13.672 5.78041C13.5705 6.01717 13.3946 6.21439 13.171 6.3422L12.2688 6.85776C11.9992 7.01176 11.6942 7.09277 11.3838 7.09277H11.3837L11.3028 7.2546C11.062 7.73611 10.5699 8.04027 10.0316 8.04027H9.72559Z" fill="#F8CB32"/>
<path d="M9.2515 6.38275L8.66392 5.01173C8.58927 4.83753 8.41799 4.72461 8.22849 4.72461H8.06711L7.83022 4.9615H7.59333L7.35645 5.19839H7.68701C7.77081 5.19839 7.82732 5.28407 7.79432 5.36113L7.35645 6.38278H9.2515V6.38275V6.38275Z" fill="#F8CB32"/>
<path d="M7.59368 8.75165L7.11993 8.04102L6.68608 8.47486C6.50406 8.65688 6.36692 8.87879 6.28553 9.12298L6.17243 9.46227L5.93554 9.69915H5.62765C5.526 9.69915 5.43305 9.75661 5.38759 9.84749L5.3208 9.9811C5.27674 10.0692 5.34082 10.1729 5.43933 10.1729H5.93554L6.09348 9.85704L6.84866 9.47944C6.87145 9.46804 6.89222 9.45306 6.91022 9.43506L7.59368 8.75165Z" fill="#F8CB32"/>
<path d="M9.01465 8.75165L9.4884 8.04102L9.92225 8.47486C10.1043 8.65688 10.2414 8.87879 10.3228 9.12298L10.4359 9.46227L10.6728 9.69915H10.9807C11.0823 9.69915 11.1753 9.75661 11.2207 9.84749L11.2875 9.9811C11.3316 10.0692 11.2675 10.1729 11.169 10.1729H10.6728L10.5149 9.85704L9.75969 9.47944C9.73691 9.46804 9.71614 9.45306 9.69813 9.43506L9.01465 8.75165Z" fill="#F8CB32"/>
<path d="M7.59396 8.98828L7.01827 9.94775C6.94061 10.0772 6.96884 10.2439 7.08479 10.3405L7.959 11.0691C8.15916 11.2359 8.44993 11.2359 8.65008 11.0691L9.5243 10.3405C9.64027 10.2439 9.6685 10.0772 9.59082 9.94775L9.01518 8.98828H7.59396V8.98828Z" fill="#F8CB32"/>
<path d="M8.30462 6.14453C8.30462 6.14453 7.59398 6.38142 6.64648 6.14453C6.64648 6.14453 6.64648 6.61828 6.64648 7.09203C6.64648 7.56578 6.88337 8.98706 8.30462 9.46081C9.72587 8.98706 9.96276 7.56578 9.96276 7.09203C9.96276 6.61828 9.96276 6.14453 9.96276 6.14453C9.01526 6.38142 8.30462 6.14453 8.30462 6.14453Z" fill="white"/>
<path d="M8.30462 6.14453C8.30462 6.14453 7.59398 6.38142 6.64648 6.14453C6.64648 6.14453 6.64648 6.61828 6.64648 7.09203H9.96276C9.96276 6.61828 9.96276 6.14453 9.96276 6.14453C9.01526 6.38142 8.30462 6.14453 8.30462 6.14453Z" fill="#41479B"/>
<path d="M7.14122 8.60718V7.0918H6.88281V8.1462C6.94995 8.30044 7.03429 8.45662 7.14122 8.60718Z" fill="#FF334B"/>
<path d="M7.65782 7.0918H7.39941V8.91C7.47766 8.98752 7.56321 9.06131 7.65782 9.13001V7.0918Z" fill="#FF334B"/>
<path d="M9.4668 8.60718C9.57373 8.45659 9.65807 8.30042 9.72521 8.14618V7.0918H9.4668V8.60718Z" fill="#FF334B"/>
<path d="M8.1754 7.0918H7.91699V9.29034C7.99792 9.33397 8.08417 9.37366 8.1754 9.40972V7.0918Z" fill="#FF334B"/>
<path d="M9.2086 7.0918H8.9502V9.13004C9.04481 9.06134 9.13033 8.98755 9.2086 8.91003V7.0918Z" fill="#FF334B"/>
<path d="M8.692 9.29034V7.0918H8.43359V9.40972C8.52483 9.37366 8.61107 9.33397 8.692 9.29034Z" fill="#FF334B"/>
<path d="M5.8137 9.89062L5.64551 9.99412L5.92812 10.4633L6.11716 10.343L5.8137 9.89062Z" fill="#73AF00"/>
<path d="M11.059 10.2308L10.9104 9.93359H10.6381L10.624 10.0053L10.5189 10.223L10.4056 10.2989L10.359 10.5351L9.96289 11.0005L10.2721 10.9756L10.216 11.2601L10.3254 11.1868L10.336 11.318L10.5239 11.0972L10.6966 11.3548L10.8149 10.7552L10.9709 10.5719L10.96 10.436L11.059 10.2308Z" fill="#4173CD"/>
<path d="M3.70235 7.0918H3.09323L3.14789 7.2558L2.78866 8.51305L2.42944 7.2558L2.48413 7.0918H1.875L2.03901 7.31047L2.53879 9.0597L2.48413 9.22369H3.09323L3.03857 9.0597L3.53834 7.31047L3.70235 7.0918Z" fill="#4173CD"/>
<path d="M14.0232 7.24408L14.1248 7.0918H14.0232H13.6172H13.5156L13.6172 7.24408V9.07143L13.5156 9.22368H13.6172H14.0232H14.1248L14.0232 9.07143V7.24408Z" fill="#4173CD"/>
</svg>
