<svg width="16" height="16" viewBox="0 0 16 16" fill="none" xmlns="http://www.w3.org/2000/svg">
<g clip-path="url(#clip0_5367_188943)">
<rect x="1" y="1" width="14" height="14" rx="2" fill="#464655"/>
<path d="M-0.148438 3.42969V12.5686L5.94416 7.99915L-0.148438 3.42969Z" fill="#464655"/>
<path d="M2.89795 0.765668L9.75216 6.0967H21.9374V1.14643C21.9374 0.936142 21.7668 0.765625 21.5566 0.765625H2.89795V0.765668Z" fill="#FF334B"/>
<path d="M2.89795 15.2353L9.75216 9.9043H21.9374V14.8546C21.9374 15.0649 21.7668 15.2354 21.5566 15.2354H2.89795V15.2353Z" fill="#41479B"/>
<path d="M2.30554 0.765625H0.232369C0.0220799 0.765625 -0.148438 0.936099 -0.148438 1.14639V2.70835L6.53655 8.0006L-0.148438 13.293V14.8548C-0.148438 15.0651 0.0220799 15.2356 0.232369 15.2356H2.30532L9.52041 9.52374H21.9373V6.47746H9.52045L2.30554 0.765625Z" fill="#73AF00"/>
<path d="M3.53263 0.765625H2.30566L9.52058 6.47746H21.9374V5.71585H9.78557L3.53263 0.765625Z" fill="white"/>
<path d="M-0.148438 2.70703V3.67837L5.30959 7.99928L-0.148438 12.3204V13.2917L6.53655 7.99928L-0.148438 2.70703Z" fill="#F8CB32"/>
<path d="M9.52075 9.52344L2.30566 15.2353H3.53267L9.7857 10.2851H21.9376V9.52344H9.52075Z" fill="white"/>
</g>
<defs>
<clipPath id="clip0_5367_188943">
<rect x="1" y="1" width="14" height="14" rx="2" fill="white"/>
</clipPath>
</defs>
</svg>
