<svg width="16" height="16" viewBox="0 0 16 16" fill="none" xmlns="http://www.w3.org/2000/svg">
<rect x="1" y="1" width="14" height="14" rx="2" fill="#73AF00"/>
<path d="M10.3334 6.66602H8V14.9998H10.3334V6.66602Z" fill="#FF334B"/>
<path d="M12.6664 6.66602H10.333V14.9998H12.6664V6.66602Z" fill="#464655"/>
<path d="M14.9995 6.66602H12.666V14.9998H14.9995V6.66602Z" fill="#FF9B55"/>
<path d="M14.4317 3.8647C14.439 3.85009 14.4355 3.83241 14.4233 3.82161C14.411 3.81078 14.393 3.80964 14.3794 3.81863C14.312 3.86338 14.2441 3.90405 14.1767 3.94094C14.3936 3.76161 14.424 3.60588 14.426 3.59455C14.4285 3.58031 14.4221 3.56596 14.41 3.55815C14.3978 3.55025 14.3822 3.55048 14.3702 3.5586C14.1358 3.71758 13.9012 3.83105 13.699 3.91092C13.9706 3.73929 14.0783 3.56419 14.0848 3.55312C14.0933 3.53892 14.091 3.52076 14.0793 3.50909C14.0676 3.49739 14.0494 3.49523 14.0352 3.50373C13.8184 3.63446 13.5615 3.73752 13.316 3.81693C13.3486 3.76663 13.3718 3.71014 13.351 3.67838C13.3316 3.64896 13.2963 3.64896 13.2458 3.67849C13.1436 3.73839 12.3693 3.93577 12.0692 4.00929C11.7634 3.95405 11.51 4.0324 11.4311 4.06137C11.41 4.03633 11.4005 4.01209 11.3964 3.99313C11.3898 3.96228 11.3946 3.93093 11.4092 3.90922C11.433 3.87384 11.4822 3.87044 11.5256 3.86746C11.5444 3.86617 11.5613 3.865 11.576 3.8613C11.5855 3.8641 11.597 3.86953 11.5968 3.87376C11.596 3.89023 11.6063 3.90511 11.622 3.91005C11.6378 3.91496 11.6547 3.90869 11.6635 3.89468C11.6657 3.89113 11.7167 3.80764 11.6772 3.73653C11.6484 3.68484 11.5825 3.65765 11.481 3.65569C11.4394 3.62665 11.2821 3.53209 11.0884 3.60516C10.8921 3.67921 10.8049 3.88079 10.7761 3.96598C10.6234 3.94476 9.92206 3.83774 9.54078 3.61392C9.52224 3.6055 9.45899 3.58065 9.42364 3.61434C9.40193 3.63492 9.3994 3.66686 9.41601 3.70935C9.42485 3.73185 9.43841 3.75383 9.45638 3.77543C9.25228 3.68174 8.97714 3.5509 8.76918 3.43455C8.73663 3.41948 8.67761 3.39902 8.64714 3.43092C8.62807 3.45101 8.62833 3.48017 8.648 3.5177C8.65216 3.52563 8.65627 3.53447 8.66073 3.54417C8.68097 3.58779 8.70857 3.64726 8.77602 3.71592C8.72561 3.68839 8.68018 3.66007 8.64377 3.63174C8.46123 3.48972 8.4365 3.47582 8.4038 3.49788C8.37562 3.51683 8.38473 3.54889 8.39435 3.58284L8.39689 3.59179C8.40482 3.62 8.41777 3.66547 8.45323 3.7203C8.42494 3.70104 8.40062 3.69711 8.38148 3.71048C8.37007 3.71837 8.35289 3.73801 8.36611 3.78128C8.39787 3.88479 8.61723 4.15732 9.03458 4.23756C8.99262 4.24368 8.94848 4.24821 8.90592 4.24908C8.88976 4.24942 8.87575 4.26049 8.87171 4.27616C8.8677 4.29183 8.87461 4.30833 8.88866 4.31637C8.89629 4.32075 9.04379 4.4033 9.31424 4.39635C9.2738 4.40655 9.22792 4.41441 9.17717 4.41743C9.16138 4.41837 9.14805 4.42947 9.14428 4.4448C9.1405 4.46013 9.14715 4.47615 9.16066 4.4843C9.16871 4.48917 9.32565 4.58147 9.56865 4.56783L9.54746 4.58086C9.53527 4.58838 9.52866 4.60231 9.53062 4.61647C9.53258 4.63063 9.5427 4.64234 9.55645 4.64627C9.56404 4.64842 9.701 4.68656 9.87161 4.66851L9.84163 4.68984C9.82958 4.69842 9.82396 4.71348 9.82751 4.72779C9.83106 4.74214 9.84292 4.75291 9.85757 4.75495C9.86066 4.7554 9.88272 4.75823 9.91806 4.75823C9.94136 4.75823 9.97044 4.75695 10.0036 4.75291C10.0028 4.76152 10.0039 4.77009 10.0067 4.77862C10.0238 4.83002 10.0994 4.84244 10.1246 4.84278C10.1262 4.84282 10.1277 4.84282 10.1292 4.84282C10.1597 4.84282 10.1919 4.83851 10.2247 4.83198C10.2773 4.88111 10.3733 4.87662 10.4665 4.85494C10.461 4.86332 10.4568 4.87171 10.4541 4.87998C10.4488 4.89701 10.4529 4.91438 10.465 4.92654C10.4769 4.93828 10.5055 4.96672 10.7659 4.89346C10.7648 4.89429 10.7637 4.89512 10.7627 4.89595C10.728 4.92276 10.7302 4.95044 10.7346 4.96456C10.7506 5.01577 10.8655 5.04858 11.0739 5.06256C11.0785 5.17849 11.0464 5.30439 11.046 5.30578C11.0424 5.31964 11.0473 5.33437 11.0586 5.34324C11.0698 5.35204 11.0853 5.3534 11.098 5.34664C11.11 5.34015 11.122 5.33176 11.1334 5.32274L11.1324 5.36107C11.132 5.375 11.1397 5.38788 11.1521 5.39415C11.1573 5.39679 11.1629 5.39807 11.1684 5.39807C11.1699 5.39807 11.1712 5.39758 11.1726 5.39739C11.1687 5.43006 11.1555 5.46907 11.1136 5.47824C11.0946 5.4824 11.0745 5.48444 11.055 5.48644C10.9662 5.49554 10.8657 5.50585 10.8498 5.7092C10.8486 5.72445 10.8571 5.73884 10.8711 5.74503C10.8851 5.75115 10.9015 5.7479 10.912 5.7368L10.9506 5.69572C10.9734 5.70131 11.0096 5.70705 11.0484 5.70078C11.0386 5.74783 11.0415 5.80576 11.0886 5.85488C11.0988 5.8655 11.1144 5.86886 11.1281 5.86338C11.1417 5.85787 11.1507 5.84461 11.1507 5.82992V5.80387C11.1731 5.79866 11.2028 5.78778 11.2309 5.76543C11.2474 5.80096 11.2788 5.84265 11.3386 5.87784C11.3443 5.88117 11.3506 5.88279 11.3569 5.88279C11.3651 5.88279 11.3733 5.87996 11.3799 5.87445C11.3916 5.86474 11.396 5.84869 11.3908 5.83434L11.3719 5.78253C11.3851 5.76958 11.4021 5.75104 11.417 5.73125C11.4244 5.74198 11.4368 5.74813 11.45 5.74685C11.4637 5.74553 11.4755 5.7365 11.4803 5.72359L11.4936 5.68828C11.5014 5.68612 11.5089 5.68352 11.516 5.68061C11.5249 5.75874 11.585 5.82377 11.5886 5.82762C11.5955 5.83495 11.6051 5.83899 11.6149 5.83899C11.6178 5.83899 11.6208 5.83865 11.6237 5.83789C11.6364 5.83468 11.6463 5.8249 11.6498 5.81225L11.6699 5.73726C11.7231 5.71026 11.7283 5.66143 11.7316 5.63099C11.7322 5.62503 11.7331 5.61676 11.7333 5.61256C11.7541 5.6228 11.7982 5.67234 11.8314 5.72374C11.838 5.73393 11.8494 5.7402 11.8616 5.74024C11.874 5.73937 11.8851 5.73423 11.8919 5.72408C11.8919 5.72408 11.92 5.6814 11.9337 5.65652C11.9919 5.55097 11.9038 5.48776 11.8615 5.4574C11.8511 5.44992 11.8368 5.43973 11.8345 5.43689C11.8266 5.41756 11.8294 5.39955 11.8346 5.38558C11.8699 5.40989 11.91 5.4304 11.9545 5.44086C11.9573 5.44154 11.96 5.4418 11.9627 5.4418C11.9743 5.4418 11.9854 5.43618 11.9923 5.4264C12.0007 5.41431 12.001 5.39826 11.9929 5.38595C11.9921 5.38471 11.9258 5.28267 11.883 5.15719C11.9521 5.19771 12.0455 5.24661 12.094 5.24661C12.1273 5.24661 12.14 5.22592 12.1439 5.21704C12.1462 5.21183 12.1504 5.20239 12.1471 5.18472C12.2113 5.21938 12.2836 5.24627 12.3387 5.23207C12.3549 5.22792 12.393 5.21806 12.3988 5.18389C12.4017 5.16659 12.3959 5.15258 12.3831 5.1388C12.4427 5.15326 12.5069 5.16047 12.57 5.15213C12.6225 5.14522 12.638 5.11973 12.6417 5.09953C12.6441 5.08661 12.6483 5.0618 12.6014 5.0149C12.692 5.00995 12.7728 4.99017 12.7794 4.93556C12.78 4.93065 12.7791 4.9262 12.7787 4.92159C13.0696 4.88987 13.2909 4.70793 13.3007 4.69974C13.3036 4.69736 13.3055 4.69441 13.3074 4.69143C13.4835 4.66941 13.6836 4.62965 13.8456 4.55684C14.1512 4.41943 14.306 4.2339 14.2783 4.16657C14.2702 4.14697 14.2471 4.13281 14.2186 4.14346C14.2106 4.14644 14.1944 4.15301 14.1732 4.16162C14.3542 4.01462 14.425 3.87829 14.4317 3.8647Z" fill="#FF9B55"/>
<path d="M14.4317 3.8646C14.4389 3.84999 14.4355 3.83232 14.4232 3.82152C14.4109 3.81068 14.3929 3.80955 14.3794 3.81853C14.312 3.86332 14.244 3.90395 14.1766 3.94085C14.3936 3.76151 14.424 3.60578 14.426 3.59445C14.4284 3.58022 14.4221 3.56583 14.4099 3.55805C14.3977 3.55016 14.3821 3.55035 14.3701 3.5585C14.1357 3.71748 13.9012 3.83096 13.6989 3.91082C13.9706 3.73919 14.0782 3.56413 14.0848 3.55306C14.0933 3.53887 14.091 3.5207 14.0793 3.509C14.0676 3.49729 14.0494 3.49514 14.0352 3.50367C13.8183 3.6344 13.5615 3.73746 13.316 3.81691C13.3486 3.76661 13.3718 3.71012 13.3509 3.67836C13.3316 3.64891 13.2962 3.64891 13.2457 3.67847C13.1435 3.73836 12.3692 3.93575 12.0692 4.00927C11.7634 3.95402 11.51 4.03238 11.4311 4.06134C11.4101 4.03631 11.4004 4.01206 11.3964 3.99315C11.3898 3.96229 11.3946 3.93095 11.4092 3.90924C11.433 3.87385 11.4821 3.87049 11.5255 3.86747C11.5444 3.86619 11.5612 3.86502 11.576 3.86136C11.5854 3.86411 11.597 3.86959 11.5968 3.87378C11.5959 3.89024 11.6063 3.90512 11.622 3.91007C11.6378 3.91498 11.6547 3.90871 11.6635 3.8947C11.6657 3.89119 11.7167 3.80766 11.6772 3.73655C11.6485 3.68485 11.5825 3.65767 11.481 3.6557C11.4394 3.62666 11.2821 3.53211 11.0883 3.60518C10.8921 3.67919 10.8049 3.8808 10.7761 3.966C10.6234 3.94477 9.92205 3.83775 9.54076 3.61394C9.52226 3.60552 9.45901 3.58074 9.42363 3.61435C9.40191 3.63493 9.39938 3.66688 9.416 3.70936C9.42483 3.73187 9.43839 3.75385 9.45637 3.77545C9.25226 3.68176 8.97716 3.55091 8.76913 3.43457C8.73662 3.4195 8.67756 3.39899 8.64712 3.43094C8.62805 3.45103 8.62828 3.48022 8.64799 3.51772C8.65214 3.52565 8.65622 3.53449 8.66071 3.54419C8.68095 3.58781 8.70852 3.64728 8.776 3.71601C8.72563 3.68848 8.68016 3.66016 8.64376 3.63184C8.46122 3.48981 8.43644 3.47592 8.40378 3.49797C8.37561 3.51696 8.38471 3.54899 8.39434 3.58293L8.39687 3.59188C8.4048 3.62009 8.41771 3.66556 8.45321 3.72039C8.42493 3.70113 8.40061 3.6972 8.38146 3.71057C8.37006 3.71839 8.35288 3.7381 8.36613 3.78138C8.39785 3.88488 8.61725 4.15734 9.0346 4.23766C8.99264 4.24377 8.94854 4.24831 8.90594 4.24917C8.88974 4.24951 8.87573 4.26058 8.87173 4.27625C8.86773 4.29192 8.87464 4.30839 8.88869 4.31647C8.89631 4.32085 9.04381 4.4034 9.31427 4.39637C9.27382 4.40657 9.22794 4.41446 9.17715 4.41744C9.1614 4.41835 9.14804 4.42949 9.14426 4.44482C9.14048 4.46015 9.14713 4.47616 9.16069 4.48432C9.16873 4.48919 9.32567 4.58152 9.56867 4.56785L9.54749 4.58088C9.53533 4.58839 9.52868 4.60233 9.53064 4.61649C9.53261 4.63065 9.54277 4.64236 9.55647 4.64628C9.56406 4.64844 9.70103 4.68654 9.87164 4.66852L9.84165 4.68986C9.82961 4.69843 9.82398 4.7135 9.82753 4.72785C9.83104 4.7422 9.84294 4.75296 9.85759 4.75496C9.86069 4.75542 9.88278 4.75829 9.91812 4.75829C9.94142 4.75829 9.9705 4.757 10.0037 4.75296C10.0029 4.76157 10.0039 4.77018 10.0068 4.77868C10.0238 4.83007 10.0995 4.8425 10.1247 4.84284C10.1262 4.84284 10.1277 4.84284 10.1293 4.84284C10.1597 4.84284 10.1919 4.83853 10.2248 4.832C10.2774 4.88113 10.3734 4.87663 10.4665 4.85496C10.461 4.86334 10.4568 4.87172 10.4542 4.88003C10.4488 4.89706 10.4529 4.91443 10.4651 4.92659C10.477 4.93834 10.5055 4.96673 10.766 4.89351C10.7649 4.89438 10.7638 4.89517 10.7627 4.89604C10.7281 4.92285 10.7303 4.95053 10.7347 4.96466C10.7507 5.01586 10.8655 5.04868 11.074 5.06265C11.0786 5.17858 11.0463 5.30448 11.046 5.30588C11.0424 5.31973 11.0474 5.33446 11.0587 5.34334C11.0699 5.35214 11.0854 5.35349 11.098 5.34674C11.1101 5.34024 11.1221 5.33186 11.1334 5.32283L11.1324 5.36112C11.1321 5.37506 11.1397 5.38793 11.1522 5.3942C11.1574 5.39685 11.1629 5.39813 11.1685 5.39813C11.17 5.39813 11.1713 5.3976 11.1727 5.39741C11.1688 5.43008 11.1556 5.46908 11.1136 5.47826C11.0946 5.48241 11.0745 5.48445 11.055 5.48646C10.9663 5.49556 10.8657 5.50586 10.8498 5.70925C10.8486 5.72451 10.8572 5.73882 10.8712 5.74505C10.8851 5.75113 10.9015 5.74792 10.912 5.73682L10.9506 5.69573C10.9733 5.70132 11.0096 5.70702 11.0483 5.70079C11.0386 5.74785 11.0415 5.80577 11.0886 5.8549C11.0988 5.86551 11.1144 5.86887 11.1281 5.8634C11.1417 5.85789 11.1506 5.84463 11.1506 5.82994V5.80389C11.173 5.79867 11.2028 5.7878 11.2309 5.76544C11.2473 5.80098 11.2787 5.84271 11.3385 5.87786C11.3442 5.88118 11.3506 5.88285 11.3568 5.88285C11.3651 5.88285 11.3733 5.88001 11.3799 5.8745C11.3916 5.8648 11.3959 5.84875 11.3907 5.83447L11.3719 5.78262C11.385 5.76967 11.4021 5.75117 11.417 5.73138C11.4244 5.74211 11.4368 5.74826 11.45 5.74698C11.4637 5.74566 11.4755 5.73663 11.4803 5.72372L11.4936 5.68841C11.5014 5.68626 11.5089 5.68365 11.516 5.68074C11.5249 5.75887 11.585 5.8239 11.5886 5.82775C11.5955 5.83511 11.6051 5.83912 11.6149 5.83912C11.6178 5.83912 11.6207 5.83878 11.6237 5.83802C11.6364 5.83481 11.6463 5.82503 11.6497 5.81238L11.6698 5.73739C11.723 5.71042 11.7283 5.66156 11.7315 5.63112C11.7321 5.62516 11.7331 5.61689 11.7332 5.61269C11.754 5.62293 11.7981 5.67247 11.8314 5.72387C11.838 5.73406 11.8494 5.74033 11.8615 5.74037C11.8739 5.7395 11.885 5.73433 11.8918 5.72417C11.8918 5.72417 11.92 5.68154 11.9337 5.65661C11.9918 5.55107 11.9037 5.48785 11.8614 5.45749C11.851 5.45001 11.8368 5.43982 11.8345 5.43699C11.8266 5.41765 11.8293 5.39964 11.8345 5.38567C11.8698 5.40999 11.91 5.43049 11.9544 5.44095C11.9572 5.44163 11.9599 5.4419 11.9626 5.4419C11.9742 5.4419 11.9853 5.43627 11.9922 5.42649C12.0007 5.41441 12.0009 5.39836 11.9928 5.38605C11.992 5.3848 11.9257 5.28277 11.8829 5.15728C11.952 5.19773 12.0454 5.2467 12.0939 5.2467C12.1272 5.2467 12.1399 5.22601 12.1438 5.21713C12.1461 5.21192 12.1502 5.20248 12.147 5.18481C12.2112 5.21951 12.2835 5.24636 12.3385 5.23216C12.3548 5.22797 12.3929 5.21812 12.3986 5.18398C12.4016 5.16665 12.3957 5.15271 12.383 5.13889C12.4426 5.15335 12.5068 5.16057 12.5698 5.15222C12.6223 5.14527 12.6378 5.11982 12.6416 5.09962C12.644 5.0867 12.6482 5.06189 12.6013 5.01499C12.6918 5.01005 12.7726 4.99026 12.7793 4.93565C12.7799 4.93075 12.779 4.92629 12.7785 4.92168C13.0695 4.88996 13.2908 4.70802 13.3006 4.69983C13.3034 4.69745 13.3054 4.6945 13.3073 4.69152C13.4834 4.66954 13.6835 4.62978 13.8454 4.55697C14.1511 4.41956 14.3059 4.23403 14.2782 4.1667C14.2701 4.1471 14.247 4.1329 14.2185 4.14359C14.2105 4.14657 14.1943 4.15314 14.1731 4.16179C14.3541 4.01452 14.4249 3.8782 14.4317 3.8646ZM13.9004 3.65982C13.7676 3.7898 13.5173 3.97672 13.1045 4.08517C13.1009 4.08612 13.0978 4.08797 13.0948 4.08986C13.0081 4.0831 12.8983 4.06727 12.8021 4.03132C13.1071 3.96214 13.5357 3.84297 13.9004 3.65982ZM12.0637 4.08155C12.0688 4.08245 12.0739 4.08234 12.0789 4.08113C12.1218 4.07063 13.1154 3.82695 13.2749 3.74467C13.2564 3.78122 13.2208 3.83243 13.1916 3.8538C13.1908 3.85437 13.1904 3.85531 13.1897 3.85596C12.7618 3.98295 12.3987 4.0365 12.3928 4.03733C12.373 4.04016 12.3593 4.05844 12.3622 4.07815C12.365 4.09786 12.3832 4.11153 12.403 4.10874C12.4063 4.10825 12.5165 4.09205 12.6858 4.0567C12.7735 4.10696 12.8812 4.13468 12.9793 4.14967C12.8328 4.16206 12.6971 4.15496 12.6949 4.15484C12.6778 4.1542 12.6612 4.1661 12.6576 4.18358C12.654 4.20107 12.6637 4.21859 12.6805 4.2247L12.8169 4.2747C12.6251 4.31552 12.4401 4.27719 12.438 4.27674C12.4232 4.27346 12.4081 4.27991 12.4 4.29256C12.3919 4.30521 12.3925 4.3216 12.4015 4.33361C12.4276 4.36835 12.5011 4.40487 12.5652 4.43179C12.3014 4.48171 12.12 4.32005 12.1114 4.31228C12.0967 4.29891 12.074 4.29985 12.0606 4.31443C12.0472 4.329 12.048 4.35166 12.0624 4.36522C12.2707 4.56018 12.659 4.64322 12.8333 4.67181C12.8075 4.68707 12.7763 4.70145 12.7438 4.70727C12.61 4.73102 12.3012 4.58413 12.0839 4.46529L11.9099 4.36488C11.8929 4.35498 11.871 4.36072 11.8609 4.37764C11.8508 4.3946 11.8562 4.41654 11.873 4.42685C11.8813 4.43198 11.9495 4.47375 12.0465 4.52703L12.47 4.77146C12.3401 4.78751 12.203 4.75844 12.2013 4.75806C12.2002 4.75783 12.1993 4.75813 12.1982 4.75802C12.0991 4.68831 11.9391 4.57095 11.699 4.37179C11.6603 4.2338 11.5879 4.1732 11.4972 4.11561C11.5997 4.08415 11.8159 4.03506 12.0637 4.08155ZM12.3254 4.84638C12.3252 4.84646 12.325 4.84665 12.3248 4.84672C12.3248 4.84672 12.3244 4.84646 12.3243 4.84635C12.3247 4.84635 12.3251 4.84638 12.3254 4.84638ZM9.97582 4.6828L10.0583 4.62408C10.073 4.61366 10.0777 4.59398 10.0694 4.57805C10.0611 4.56203 10.0422 4.55475 10.0253 4.56071C9.88901 4.60939 9.75099 4.60444 9.66462 4.59334L9.76016 4.53454C9.77538 4.52518 9.78146 4.50607 9.7744 4.48961C9.76741 4.47318 9.74944 4.46438 9.73207 4.46891C9.55817 4.51457 9.41335 4.49561 9.31853 4.46944C9.46924 4.43425 9.55674 4.36756 9.56138 4.36401C9.57456 4.35381 9.57902 4.33588 9.57218 4.32066C9.56531 4.30548 9.549 4.29713 9.53261 4.30004C9.33394 4.33746 9.18055 4.32511 9.07753 4.30382C9.18395 4.28595 9.26854 4.26054 9.27378 4.25895C9.27443 4.2588 9.27484 4.25828 9.27541 4.25809C9.27786 4.25722 9.2799 4.25582 9.28209 4.2545C9.28394 4.25333 9.28579 4.25238 9.28738 4.25095C9.28912 4.24936 9.29032 4.24747 9.29176 4.24559C9.29312 4.24374 9.29455 4.24207 9.29554 4.24004C9.29644 4.23807 9.29686 4.23592 9.29746 4.23384C9.29814 4.23139 9.29882 4.22908 9.29901 4.22652C9.29901 4.22595 9.29935 4.22542 9.29935 4.22482C9.29935 4.22293 9.29859 4.22127 9.29829 4.21946C9.29803 4.21768 9.29833 4.21587 9.2978 4.21406C9.29765 4.21349 9.29716 4.21311 9.29697 4.21254C9.2961 4.21013 9.29474 4.20809 9.29342 4.20594C9.29225 4.20405 9.29131 4.20208 9.28983 4.20046C9.28829 4.19876 9.28643 4.19755 9.28458 4.19616C9.2827 4.19472 9.281 4.19325 9.27888 4.19223C9.27696 4.19132 9.2748 4.19091 9.27273 4.19034C9.27027 4.18962 9.26793 4.18891 9.26536 4.18875C9.26472 4.18872 9.26427 4.18838 9.26366 4.18838C8.80028 4.18403 8.54456 3.94028 8.46265 3.81589C8.60702 3.91649 8.7967 4.00187 8.93483 4.05088H8.93494C9.11866 4.12184 9.34765 4.16704 9.35735 4.16893C9.37684 4.17271 9.39587 4.16006 9.39968 4.14046C9.40354 4.1209 9.39077 4.10194 9.37121 4.09813C9.36887 4.09767 9.13795 4.05213 8.95994 3.98321C8.57605 3.83466 8.49826 3.67375 8.47232 3.59249C8.51382 3.62198 8.56956 3.66537 8.59943 3.68859C8.82415 3.86336 9.34701 4.02864 9.36917 4.03563C9.38813 4.04163 9.40811 4.03121 9.41426 4.0124C9.42038 3.9936 9.4103 3.9734 9.3916 3.96701C8.85096 3.78285 8.76977 3.60774 8.72616 3.51372C8.72238 3.50556 8.71883 3.49793 8.71532 3.49083C8.72261 3.4931 8.7302 3.49589 8.73635 3.49865C9.03607 3.66635 9.47657 3.86494 9.64306 3.93866C9.61312 3.95308 9.5817 3.96513 9.56089 3.9663C9.54703 3.96709 9.53476 3.97574 9.52951 3.98869C9.52422 4.00157 9.52683 4.01633 9.53619 4.0266C9.53842 4.02902 9.57373 4.0669 9.64238 4.08174L9.59367 4.11349C9.58227 4.12097 9.576 4.13426 9.57754 4.14782C9.57913 4.16141 9.58819 4.17293 9.60103 4.17761C9.60436 4.17882 9.66002 4.19842 9.73358 4.20616L9.69302 4.23573C9.68271 4.24325 9.6772 4.25563 9.67841 4.26832C9.67962 4.28101 9.68743 4.29211 9.69899 4.29755C9.70371 4.29974 9.75914 4.32493 9.84811 4.32073L9.84505 4.32285C9.83335 4.33108 9.82761 4.34547 9.8304 4.35952C9.83319 4.37356 9.84415 4.38459 9.85816 4.38765C9.86367 4.38882 9.93179 4.40283 10.0295 4.39173L10.0073 4.40653C9.9955 4.41435 9.98942 4.42851 9.99172 4.44248C9.99406 4.45649 10.0044 4.46782 10.0182 4.47144C10.0287 4.47416 10.1865 4.51343 10.3937 4.44773C10.3502 4.47631 10.3098 4.49705 10.2763 4.50456C10.261 4.50803 10.2497 4.52091 10.2483 4.53651C10.2469 4.5521 10.2557 4.56683 10.2701 4.57299C10.271 4.5734 10.2746 4.57476 10.2793 4.57646C10.1686 4.64972 10.0555 4.67517 9.97582 4.6828ZM9.80129 4.02842C9.7943 4.01229 9.77678 4.00346 9.75963 4.00772C9.71787 4.01792 9.68407 4.0169 9.65802 4.01139C9.70076 3.99235 9.73728 3.96966 9.74377 3.96554C9.74642 3.96388 9.74865 3.96188 9.75068 3.95973C9.81488 3.98556 9.88772 4.01037 9.96944 4.03408L9.83097 4.13513C9.7846 4.14004 9.7386 4.13562 9.70193 4.12905L9.78788 4.07301C9.80261 4.06331 9.80827 4.0445 9.80129 4.02842ZM10.1254 4.77063C10.1117 4.77048 10.0864 4.76346 10.077 4.75677C10.0794 4.753 10.0854 4.74556 10.0987 4.73499C10.1839 4.71316 10.2817 4.67177 10.3754 4.5953C10.4737 4.60244 10.6284 4.57907 10.7859 4.42073C10.7918 4.43126 10.7979 4.44195 10.8049 4.45283C10.7879 4.4657 10.3806 4.7729 10.1254 4.77063ZM10.4068 4.52431C10.5235 4.45411 10.654 4.33202 10.7354 4.25042C10.7366 4.28025 10.7424 4.3145 10.7553 4.35208C10.7526 4.35374 10.7496 4.35525 10.7473 4.35774C10.618 4.4941 10.4922 4.5242 10.4068 4.52431ZM11.0844 4.99128C10.9656 4.98316 10.8551 4.96469 10.8147 4.94687C10.9129 4.87017 10.9411 4.83634 10.944 4.8326C10.954 4.82018 10.9546 4.80269 10.9456 4.78959C10.9365 4.77645 10.9198 4.77078 10.9048 4.77577C10.7753 4.81761 10.6241 4.85843 10.5494 4.86893C10.5837 4.83815 10.6447 4.79926 10.6998 4.77169C10.7174 4.76285 10.7247 4.74144 10.7161 4.72369C10.7075 4.70591 10.6862 4.69843 10.6683 4.70678C10.5701 4.75296 10.4296 4.79948 10.3416 4.79877C10.581 4.71256 10.8251 4.52816 10.8484 4.51038C10.8668 4.53232 10.8871 4.55463 10.9116 4.57733C11.127 4.77762 11.1034 4.93479 11.0844 4.99128ZM11.1438 5.21124C11.1419 5.21362 11.1392 5.21676 11.136 5.22038C11.1438 5.16699 11.1494 5.1 11.1443 5.03629C11.1641 4.99268 11.2043 4.86338 11.1003 4.69186C11.1688 4.70183 11.3263 4.73483 11.3944 4.83392C11.4034 4.84706 11.4124 4.86164 11.4213 4.87675L11.4212 4.87686C11.4178 4.88483 11.3496 5.05004 11.3714 5.25656C11.3554 5.23775 11.3402 5.21472 11.33 5.18772C11.3251 5.17507 11.3137 5.16612 11.3002 5.16468C11.2869 5.16325 11.2736 5.1694 11.2661 5.18073C11.2509 5.2038 11.2289 5.23545 11.207 5.26426L11.2077 5.23511C11.2082 5.21974 11.1988 5.20581 11.1843 5.20041C11.17 5.19501 11.1537 5.19931 11.1438 5.21124ZM11.3764 5.66028C11.3692 5.68176 11.3308 5.72326 11.3058 5.74581C11.3049 5.7466 11.304 5.74747 11.3032 5.74834C11.2844 5.71718 11.2851 5.69252 11.2851 5.69116C11.2864 5.67429 11.2757 5.65884 11.2595 5.65393C11.2433 5.64906 11.2259 5.65612 11.2176 5.67085C11.1846 5.72976 11.1267 5.7358 11.1161 5.73648C11.1179 5.69302 11.143 5.65352 11.1446 5.6511C11.1546 5.63592 11.1517 5.61568 11.1379 5.6039C11.1242 5.59211 11.1037 5.59234 11.0903 5.60454C11.0373 5.65246 10.9532 5.62146 10.9525 5.62119C10.949 5.61987 10.9454 5.61908 10.9419 5.61881C10.9652 5.56814 11.0059 5.56398 11.0622 5.55824C11.0837 5.55605 11.1059 5.55375 11.1289 5.54869C11.24 5.52441 11.2531 5.40168 11.2444 5.34016C11.2442 5.33847 11.2433 5.33707 11.2428 5.33548C11.2602 5.31411 11.2775 5.2907 11.2919 5.27049C11.2989 5.28126 11.3065 5.29096 11.314 5.30014C11.3143 5.32646 11.3157 5.40761 11.3249 5.45032C11.3321 5.48423 11.3569 5.50707 11.3807 5.52173C11.3768 5.52939 11.3735 5.53747 11.3714 5.54623C11.3629 5.58116 11.3701 5.61957 11.3809 5.6525C11.3792 5.6551 11.3774 5.65737 11.3764 5.66028ZM11.3954 5.43529C11.3919 5.4192 11.3898 5.3939 11.3884 5.36845C11.3985 5.3754 11.4056 5.37959 11.4066 5.38012C11.4191 5.38707 11.4347 5.38601 11.4461 5.37721C11.4575 5.36845 11.4626 5.35376 11.4591 5.33986C11.421 5.18749 11.4465 5.04494 11.4677 4.96685C11.5298 5.10336 11.5744 5.27181 11.559 5.38291C11.5566 5.3999 11.5666 5.41622 11.5827 5.42192C11.5861 5.42309 11.5896 5.42347 11.593 5.42362C11.5926 5.4274 11.5922 5.4314 11.5917 5.43491C11.5552 5.43378 11.4951 5.43937 11.4368 5.46969C11.4202 5.46267 11.3986 5.4499 11.3954 5.43529ZM11.8705 5.62176C11.8676 5.62697 11.864 5.63297 11.8603 5.63917C11.8172 5.58215 11.7581 5.5235 11.7075 5.54261C11.6667 5.55817 11.6625 5.5974 11.6597 5.62342C11.6564 5.6548 11.654 5.66787 11.6278 5.67685C11.6165 5.68074 11.6078 5.69003 11.6047 5.70159L11.6006 5.71658C11.5869 5.68629 11.5796 5.64974 11.6001 5.61859C11.6106 5.60261 11.6068 5.58128 11.5914 5.56987C11.576 5.55851 11.5544 5.56107 11.5422 5.57576C11.5418 5.57614 11.5092 5.61458 11.4617 5.62134C11.4567 5.62206 11.4521 5.62376 11.448 5.62625C11.4411 5.6042 11.4371 5.58113 11.4415 5.56326C11.4441 5.55261 11.4493 5.54536 11.4585 5.53981C11.5307 5.49608 11.615 5.50851 11.6158 5.50866C11.6348 5.51183 11.6523 5.49979 11.6566 5.48132C11.6586 5.47309 11.674 5.40274 11.6627 5.34383L11.7094 5.26543C11.7262 5.28688 11.7489 5.3132 11.7767 5.33911C11.7613 5.3672 11.7464 5.41259 11.7677 5.46436C11.7763 5.48521 11.7962 5.49948 11.8193 5.51599C11.8781 5.55824 11.8937 5.57946 11.8705 5.62176ZM11.7377 5.18066C11.731 5.16982 11.7179 5.16397 11.7067 5.16332C11.694 5.16336 11.6823 5.17005 11.6758 5.18092L11.6289 5.25969C11.6092 5.10018 11.534 4.90964 11.4538 4.79299C11.3496 4.64137 11.0919 4.61264 11.0433 4.61283C11.0196 4.58413 10.9933 4.55478 10.9607 4.5245C10.7467 4.32564 10.8171 4.1667 10.8205 4.1593C10.8208 4.15866 10.8207 4.15802 10.821 4.15737C10.8219 4.15503 10.8223 4.15269 10.8228 4.15027C10.8232 4.14808 10.8237 4.14593 10.8237 4.1437C10.8237 4.1414 10.8232 4.13929 10.8228 4.13702C10.8223 4.13472 10.822 4.13249 10.8212 4.13026C10.8203 4.12826 10.8191 4.12656 10.8179 4.12467C10.8166 4.12252 10.8153 4.12041 10.8135 4.11859C10.813 4.1181 10.8128 4.11742 10.8123 4.11693C10.811 4.11576 10.8094 4.11531 10.808 4.11436C10.8065 4.11338 10.8055 4.11198 10.8038 4.11119C10.8032 4.11085 10.8025 4.11093 10.8018 4.11066C10.7995 4.10972 10.7971 4.10923 10.7947 4.10877C10.7924 4.10836 10.7903 4.10783 10.7881 4.10783C10.7858 4.10783 10.7837 4.10832 10.7814 4.10874C10.7791 4.10915 10.7768 4.10949 10.7746 4.11036C10.7726 4.11115 10.7709 4.1124 10.769 4.11357C10.7669 4.11493 10.7648 4.11621 10.7629 4.11803C10.7624 4.11852 10.7618 4.11874 10.7613 4.11923L10.7613 4.11927C10.5165 4.38667 10.2603 4.41846 10.1276 4.41287L10.2815 4.3102C10.3118 4.29328 10.3423 4.27315 10.3727 4.24933C10.388 4.23732 10.391 4.21549 10.3797 4.19982C10.3683 4.18407 10.3465 4.18022 10.3304 4.19098L10.2459 4.24732C10.1416 4.30518 10.0409 4.32073 9.9705 4.32292L10.0507 4.2667C10.1123 4.2369 10.1796 4.19215 10.2504 4.12622C10.2643 4.11331 10.2658 4.09186 10.2539 4.07713C10.242 4.0624 10.2208 4.05946 10.2052 4.07026L10.0139 4.20431C9.92307 4.2471 9.84868 4.25235 9.79872 4.24778L10.0722 4.04817C10.0834 4.03997 10.0889 4.02604 10.0863 4.01237C10.0837 3.9987 10.0736 3.98775 10.0601 3.98416C9.6144 3.86551 9.50727 3.74441 9.4831 3.68274C9.48099 3.67734 9.47959 3.673 9.47876 3.6696C9.48775 3.67096 9.49979 3.67436 9.50757 3.67764C9.94429 3.93427 10.7624 4.03706 10.797 4.04137C10.8149 4.04314 10.8314 4.03242 10.8362 4.0152C10.8485 3.97079 10.9198 3.74558 11.1137 3.67243C11.2965 3.60359 11.4404 3.71495 11.4464 3.7196C11.4528 3.72473 11.4607 3.72753 11.4689 3.72753C11.5466 3.72753 11.5981 3.74301 11.6139 3.77118C11.619 3.7802 11.6204 3.79055 11.6199 3.8009C11.6073 3.79448 11.5934 3.79017 11.5797 3.78813C11.5735 3.78719 11.5672 3.78791 11.5613 3.79017C11.5542 3.79293 11.5363 3.79418 11.5205 3.79527C11.4697 3.79878 11.3928 3.80407 11.3493 3.86876C11.3236 3.90693 11.3151 3.95769 11.3258 4.00799C11.3325 4.03937 11.3493 4.08038 11.3877 4.1204C11.3915 4.12788 11.3975 4.13332 11.4046 4.13664C11.4177 4.14831 11.4324 4.15983 11.4499 4.17078C11.535 4.22399 11.5974 4.27312 11.6306 4.39354C11.6309 4.39781 11.632 4.40185 11.6337 4.40574C11.6473 4.46011 11.6554 4.52812 11.6573 4.61664C11.6577 4.63631 11.6738 4.65198 11.6933 4.65198C11.6933 4.65198 11.6938 4.65198 11.6941 4.65198C11.714 4.65157 11.7298 4.63507 11.7294 4.61517C11.7284 4.56558 11.7251 4.52204 11.7202 4.48258C11.9889 4.70206 12.1476 4.81111 12.2271 4.86568C12.2383 4.87338 12.249 4.88067 12.2583 4.88721C12.1773 4.89457 12.0491 4.82067 11.9489 4.74424C11.9159 4.71448 11.8847 4.6899 11.8679 4.67698C11.8525 4.66524 11.8307 4.66766 11.8183 4.6825C11.8059 4.6973 11.8074 4.71924 11.8216 4.73227C11.8307 4.74061 11.8598 4.76663 11.9007 4.79824C11.9479 4.84117 11.9844 4.88169 11.9958 4.90503C11.9397 4.89321 11.7857 4.8016 11.6604 4.71218C11.645 4.70115 11.6237 4.70398 11.6116 4.71856C11.5996 4.73317 11.6008 4.75466 11.6146 4.76769C11.701 4.84978 11.7543 4.92478 11.7881 5.0855C11.8074 5.17718 11.8448 5.26419 11.8767 5.32725C11.7926 5.26985 11.7384 5.18187 11.7377 5.18066ZM12.5603 5.08062C12.3694 5.1057 12.1534 4.96016 12.1512 4.95869C12.1358 4.94819 12.1149 4.9511 12.1032 4.96549C12.0912 4.97984 12.0922 5.00083 12.1054 5.01397C12.168 5.07651 12.2317 5.11899 12.2783 5.14996C12.285 5.15445 12.2923 5.15928 12.2992 5.16404C12.2298 5.16057 12.1092 5.08232 12.0427 5.02787C12.0281 5.0159 12.0067 5.01726 11.9936 5.031C11.9807 5.04471 11.9805 5.06616 11.9932 5.0801C12.0201 5.10959 12.0456 5.14255 12.0611 5.16665C12.0084 5.14739 11.9195 5.09679 11.8552 5.0557C11.8404 4.98988 11.8221 4.93633 11.7996 4.89094C12.0092 5.01575 12.0444 4.97364 12.0577 4.95778C12.0654 4.94853 12.074 4.93263 12.0714 4.90922C12.0714 4.90911 12.0714 4.90896 12.0714 4.90896C12.1569 4.95223 12.2486 4.97776 12.319 4.94487C12.3263 4.94139 12.3369 4.93592 12.3454 4.9272C12.4753 4.99974 12.5432 5.05404 12.5639 5.0801C12.5627 5.08025 12.5616 5.08044 12.5603 5.08062ZM12.5113 4.94355C12.4715 4.91651 12.4205 4.88539 12.3534 4.84899C12.352 4.84824 12.3505 4.8482 12.3491 4.84767C12.3609 4.84812 12.373 4.84846 12.3854 4.84846C12.4201 4.84846 12.4566 4.84608 12.4928 4.8408C12.4956 4.84257 12.4982 4.84453 12.5016 4.84559C12.6133 4.88071 12.6805 4.90741 12.7021 4.92527C12.6733 4.93773 12.5909 4.94585 12.5113 4.94355ZM12.7239 4.85367C12.7239 4.85367 12.7235 4.85379 12.7233 4.85379C12.6943 4.83691 12.653 4.82033 12.6005 4.80224C12.6024 4.79846 12.6038 4.79442 12.6043 4.79004C12.6051 4.78113 12.6026 4.77241 12.5977 4.76542C12.6589 4.78007 12.7137 4.78585 12.7565 4.77826C12.8103 4.76867 12.859 4.74216 12.8944 4.71833H12.8944C12.9306 4.71833 13.0334 4.71705 13.1652 4.70621C13.0701 4.76501 12.9078 4.84567 12.7239 4.85367ZM14.1788 4.23732C14.1297 4.29906 14.0182 4.40011 13.8158 4.49112C13.5393 4.61543 13.131 4.6402 12.9609 4.645C12.9606 4.64228 12.9603 4.6396 12.9594 4.63695C12.9549 4.6237 12.9431 4.61426 12.9292 4.61267C12.926 4.61233 12.7433 4.59107 12.5401 4.52982C12.6619 4.54134 12.7769 4.54704 12.8844 4.54704C13.1881 4.54704 13.4362 4.50471 13.638 4.44127C13.6391 4.44112 13.6401 4.44135 13.6411 4.44112C13.7523 4.41201 14.0173 4.30348 14.1595 4.24521C14.1663 4.24238 14.1727 4.23977 14.1788 4.23732ZM13.9864 4.20284C13.7517 4.34811 13.3424 4.50331 12.695 4.46865C12.7076 4.46257 12.7159 4.44996 12.7156 4.43572C12.7153 4.4205 12.7055 4.40713 12.6911 4.40226C12.6621 4.39248 12.6277 4.37953 12.5943 4.36552C12.6933 4.36843 12.8223 4.35918 12.945 4.31194C12.959 4.30654 12.9682 4.29302 12.968 4.27799C12.9679 4.26296 12.9585 4.24955 12.9444 4.24442L12.8972 4.22716C13.0168 4.22217 13.1634 4.2065 13.2657 4.16345C13.2818 4.15666 13.2907 4.13932 13.2869 4.12229C13.2867 4.12142 13.2861 4.12071 13.2859 4.11984C13.5019 4.06572 13.8997 3.94085 14.3104 3.68357C14.2219 3.83054 13.965 4.10383 13.2378 4.27568C13.219 4.28014 13.2069 4.29864 13.2107 4.31764C13.2144 4.33667 13.2324 4.34913 13.2515 4.34641C13.2569 4.34558 13.7513 4.26794 14.2617 3.97578C14.2012 4.04303 14.1119 4.12516 13.9864 4.20284Z" fill="#464655"/>
</svg>
