<svg width="24" height="24" viewBox="0 0 24 24" fill="none" xmlns="http://www.w3.org/2000/svg">
<path d="M14.2941 5L12.2781 9.208C12.5021 9.176 12.7421 9.16 12.9661 9.16C13.4781 9.16 14.0061 9.272 14.5501 9.48C15.0621 9.704 15.5421 9.992 15.9741 10.36C16.3901 10.744 16.7261 11.208 16.9981 11.72C17.2541 12.264 17.3821 12.84 17.3821 13.48C17.3821 14.248 17.2221 14.904 16.9341 15.48C16.6141 16.056 16.2141 16.536 15.7181 16.92C15.2061 17.304 14.6461 17.592 14.0061 17.784C13.3661 17.976 12.7101 18.072 12.0381 18.072C11.2541 18.072 10.5341 17.944 9.86206 17.704C9.17406 17.448 8.59806 17.096 8.15006 16.648C7.67006 16.168 7.35006 15.608 7.15806 14.936C6.95006 14.28 6.95006 13.528 7.14206 12.664C7.20606 12.376 7.31806 12.072 7.47806 11.736L7.99006 10.664L10.7101 5H14.2941ZM12.2301 11.896C11.6221 11.896 11.1581 12.072 10.8541 12.392C10.5341 12.744 10.3901 13.144 10.3901 13.624C10.3901 14.104 10.5501 14.52 10.8701 14.84C11.1901 15.176 11.6381 15.336 12.2301 15.336C12.8061 15.336 13.2701 15.176 13.5901 14.84C13.9101 14.52 14.0701 14.104 14.0701 13.624C14.0701 13.144 13.9101 12.744 13.6061 12.392C13.2861 12.072 12.8381 11.896 12.2301 11.896Z" fill="black"/>
</svg>
