<svg width="20" height="20" viewBox="0 0 20 20" fill="none" xmlns="http://www.w3.org/2000/svg">
<g clip-path="url(#clip0_1221_14965)">
<rect y="2" width="20" height="16" rx="2" fill="white"/>
<path d="M22.9656 3.13707H-1.3313V2.41893C-1.3313 2.18759 -1.14371 2 -0.912367 2H22.5467C22.7781 2 22.9657 2.18759 22.9657 2.41893L22.9656 3.13707Z" fill="#FF4B55"/>
<path d="M22.9656 4.27423H-1.3313V5.41125H22.9656V4.27423Z" fill="#FF4B55"/>
<path d="M22.9656 6.54828H-1.3313V7.6853H22.9656V6.54828Z" fill="#FF4B55"/>
<path d="M22.9656 8.82233H-1.3313V9.95935H22.9656V8.82233Z" fill="#FF4B55"/>
<path d="M22.9656 12.2336H-1.3313V10.3784H-0.912367L-0.912272 11.0964H22.9656V12.2336Z" fill="#FF4B55"/>
<path d="M22.9656 13.3704H-1.3313V14.5074H22.9656V13.3704Z" fill="#FF4B55"/>
<path d="M22.9656 15.6445H-1.3313V16.7815H22.9656V15.6445Z" fill="#FF4B55"/>
<path d="M13.3306 11.0964H-0.912367C-1.14371 11.0964 -1.3313 10.9088 -1.3313 10.6775V2.41893C-1.3313 2.18759 -1.14371 2 -0.912367 2H13.3306C13.562 2 13.7496 2.18759 13.7496 2.41893V10.6775C13.7495 10.9089 13.562 11.0964 13.3306 11.0964Z" fill="#41479B"/>
<path d="M2.64755 6.5437C2.64755 4.95932 3.93358 3.6741 5.51648 3.6741C5.91477 3.6741 6.29346 3.75563 6.63836 3.90255C6.68311 3.92163 6.71685 3.85932 6.67666 3.83189C6.10601 3.44342 5.40814 3.23059 4.65959 3.2695C3.0139 3.35506 1.66822 4.68062 1.56183 6.32512C1.43811 8.23793 2.95174 9.8225 4.83427 9.8225C5.51458 9.8225 6.14697 9.61289 6.67215 9.2575C6.71258 9.23012 6.67908 9.16772 6.63414 9.18675C6.29038 9.33253 5.91321 9.41339 5.51658 9.41339C3.93358 9.41334 2.64755 8.12812 2.64755 6.5437Z" fill="#FFE15A"/>
<path d="M9.20581 6.54373L10.4187 6.07444C10.4786 6.05124 10.4582 5.96169 10.3941 5.96682L9.09818 6.0706L9.98872 5.11866C10.0327 5.07172 9.97543 5.00002 9.91991 5.03238L8.79437 5.68897L9.18284 4.44679C9.20201 4.38548 9.11934 4.34566 9.08342 4.39891L8.3548 5.47827L8.16787 4.18996C8.15866 4.12633 8.06679 4.12628 8.05749 4.18992L7.93809 5.0051L7.88855 5.35009L7.86948 5.47832L7.14085 4.39986C7.10488 4.34661 7.02212 4.38647 7.04143 4.44779L7.43132 5.68892L6.30588 5.03233C6.25036 4.99992 6.19313 5.07168 6.23707 5.11861L7.12757 6.07055L5.83133 5.96677C5.76722 5.96164 5.74677 6.05119 5.80675 6.0744L7.0207 6.54368L5.80671 7.01305C5.74668 7.03626 5.76718 7.12581 5.83129 7.12068L7.12757 7.0169L6.23703 7.97122C6.19313 8.01824 6.2505 8.08985 6.30598 8.05739L7.43137 7.39848L7.04148 8.63962C7.02222 8.70093 7.10488 8.74084 7.1409 8.68755L7.86952 7.60909L7.8886 7.74035L7.93814 8.08231L8.05759 8.89967C8.06689 8.96336 8.15876 8.96326 8.16797 8.89962L8.35489 7.60918L9.08351 8.68854C9.11948 8.74179 9.20215 8.70207 9.18293 8.64066L8.79447 7.39848L9.91986 8.05739C9.97533 8.08985 10.0327 8.01824 9.98881 7.97122L9.09823 7.0169L10.3942 7.12068C10.4583 7.12581 10.4787 7.03626 10.4188 7.01305L9.20581 6.54373Z" fill="#FFE15A"/>
</g>
<defs>
<clipPath id="clip0_1221_14965">
<rect y="2" width="20" height="16" rx="2" fill="white"/>
</clipPath>
</defs>
</svg>
