<svg width="20" height="20" viewBox="0 0 20 20" fill="none" xmlns="http://www.w3.org/2000/svg">
<g clip-path="url(#clip0_1221_15014)">
<rect y="2" width="20" height="16" rx="2" fill="white"/>
<path d="M23.4209 9.99999H-1V2.42107C-1 2.18855 -0.811454 2 -0.57893 2H22.9999C23.2324 2 23.4209 2.18855 23.4209 2.42107L23.4209 9.99999Z" fill="#FF4B55"/>
<path d="M-0.999756 10.0001H23.4211V17.579C23.4211 17.8115 23.2326 18.0001 23.0001 18.0001H-0.578686C-0.811209 18.0001 -0.999756 17.8115 -0.999756 17.579V10.0001Z" fill="#F5F5F5"/>
<path d="M2.46154 6.00605C2.46154 4.6215 3.47749 3.47377 4.80409 3.26147C4.87611 3.24993 4.87935 3.15086 4.80828 3.13445C4.47984 3.05895 4.13103 3.03744 3.76882 3.08676C2.338 3.28165 1.23201 4.51986 1.21178 5.96375C1.18874 7.61244 2.51787 8.95493 4.15875 8.95493C4.38211 8.95493 4.59899 8.92883 4.80771 8.8808C4.87873 8.86449 4.87515 8.76519 4.80323 8.75364C3.47715 8.54149 2.46154 7.39599 2.46154 6.00605Z" fill="#F5F5F5"/>
<path d="M4.82591 6.74684L4.70127 7.1206L4.30734 7.12365C4.25636 7.12408 4.23518 7.18914 4.27625 7.21943L4.59315 7.45348L4.47428 7.82909C4.45893 7.87774 4.5143 7.91795 4.55575 7.88828L4.87627 7.65919L5.1968 7.88828C5.23829 7.91795 5.29362 7.87769 5.27826 7.82909L5.1594 7.45348L5.4763 7.21943C5.51737 7.18909 5.49619 7.12408 5.4452 7.12365L5.05127 7.1206L4.92664 6.74684C4.91047 6.69848 4.84203 6.69848 4.82591 6.74684Z" fill="#F5F5F5"/>
<path d="M6.77329 6.74684L6.64866 7.1206L6.25473 7.12365C6.20374 7.12408 6.18257 7.18914 6.22363 7.21943L6.54053 7.45348L6.42167 7.82909C6.40631 7.87774 6.46169 7.91795 6.50314 7.88828L6.82366 7.65919L7.14419 7.88828C7.18568 7.91795 7.24101 7.87769 7.22565 7.82909L7.10679 7.45348L7.42369 7.21943C7.46476 7.18909 7.44358 7.12408 7.39259 7.12365L6.99866 7.1206L6.87403 6.74684C6.85786 6.69848 6.78946 6.69848 6.77329 6.74684Z" fill="#F5F5F5"/>
<path d="M5.80833 3.74172L5.6837 4.11547L5.28977 4.11852C5.23878 4.11895 5.2176 4.18401 5.25867 4.2143L5.57557 4.44835L5.45671 4.82396C5.44135 4.87262 5.49672 4.91282 5.53817 4.88316L5.8587 4.65407L6.17922 4.88316C6.22072 4.91282 6.27604 4.87257 6.26069 4.82396L6.14183 4.44835L6.45872 4.2143C6.49979 4.18396 6.47861 4.11895 6.42763 4.11852L6.0337 4.11547L5.90906 3.74172C5.89289 3.69335 5.82445 3.69335 5.80833 3.74172Z" fill="#F5F5F5"/>
<path d="M4.25572 4.89302L4.13108 5.26678L3.73715 5.26983C3.68617 5.27026 3.66499 5.33532 3.70606 5.36561L4.02295 5.59966L3.90409 5.97527C3.88874 6.02392 3.94411 6.06413 3.98556 6.03446L4.30608 5.80537L4.62661 6.03446C4.66811 6.06413 4.72343 6.02387 4.70808 5.97527L4.58921 5.59966L4.90611 5.36561C4.94718 5.33527 4.926 5.27026 4.87501 5.26983L4.48109 5.26678L4.35645 4.89302C4.34028 4.84466 4.27189 4.84466 4.25572 4.89302Z" fill="#F5F5F5"/>
<path d="M7.34794 4.89302L7.22331 5.26678L6.82938 5.26983C6.77839 5.27026 6.75721 5.33532 6.79828 5.36561L7.11518 5.59966L6.99632 5.97527C6.98096 6.02392 7.03634 6.06413 7.07778 6.03446L7.39831 5.80537L7.71883 6.03446C7.76033 6.06413 7.81566 6.02387 7.8003 5.97527L7.68144 5.59966L7.99834 5.36561C8.0394 5.33527 8.01823 5.27026 7.96724 5.26983L7.57331 5.26678L7.44868 4.89302C7.43251 4.84466 7.36406 4.84466 7.34794 4.89302Z" fill="#F5F5F5"/>
</g>
<defs>
<clipPath id="clip0_1221_15014">
<rect y="2" width="20" height="16" rx="2" fill="white"/>
</clipPath>
</defs>
</svg>
