<svg width="280" height="48" viewBox="0 0 280 48" fill="none" xmlns="http://www.w3.org/2000/svg">
<g clip-path="url(#clip0_371_2099)">
<path d="M73.1156 17.4672C69.3232 17.4672 66.7437 20.3832 66.7437 25.5452C66.7437 30.7071 69.2408 33.6681 73.1643 33.6681C76.6572 33.6681 78.7575 31.6991 78.8286 28.6034H73.5012V24.7404H83.7629V27.8136C83.7629 34.2707 79.3228 38.1937 73.1418 38.1937C66.242 38.1937 61.5586 33.3686 61.5586 25.5938C61.5586 17.8191 66.5378 12.9453 73.0332 12.9453C78.5665 12.9453 82.8382 16.3517 83.5345 21.203H78.3382C77.6643 18.8859 75.8186 17.4709 73.1156 17.4709V17.4672Z" fill="#FE5000"/>
<path d="M85.1406 28.7122C85.1406 22.9999 88.6223 19.1855 94.1893 19.1855C99.7563 19.1855 103.238 22.9999 103.238 28.7122C103.238 34.4244 99.7675 38.2163 94.1893 38.2163C88.6111 38.2163 85.1406 34.387 85.1406 28.7122ZM94.2267 34.3159C96.795 34.3159 98.139 31.9164 98.139 28.6747C98.139 25.4331 96.795 23.0224 94.2267 23.0224C91.6585 23.0224 90.2434 25.448 90.2434 28.6747C90.2434 31.9014 91.5986 34.3159 94.2267 34.3159Z" fill="#FE5000"/>
<path d="M104.904 19.4251H109.693V22.6668H109.91C110.677 20.5069 112.549 19.1855 115.046 19.1855C117.543 19.1855 119.438 20.5294 120.04 22.6668H120.231C120.999 20.5556 123.088 19.1855 125.776 19.1855C129.209 19.1855 131.597 21.454 131.597 25.463V37.8607H126.581V26.4363C126.581 24.3588 125.334 23.3406 123.687 23.3406C121.804 23.3406 120.688 24.647 120.688 26.5823V37.8607H115.814V26.3165C115.814 24.5047 114.672 23.3406 112.968 23.3406C111.265 23.3406 109.921 24.7069 109.921 26.7844V37.8607H104.904V19.4251Z" fill="#FE5000"/>
<path d="M136.494 11.9004C137.995 11.9004 139.231 13.0533 139.231 14.457C139.231 15.8608 137.995 17.0137 136.494 17.0137C134.993 17.0137 133.746 15.872 133.746 14.457C133.746 13.0421 134.982 11.9004 136.494 11.9004ZM133.974 19.4244H138.991V37.8563H133.974V19.4244Z" fill="#FE5000"/>
<path d="M148.159 13.2773H153.258V24.174H153.595L162.524 13.2773H168.656L159.499 24.2826L168.765 37.8557H162.644L155.849 27.7039L153.258 30.837V37.8557H148.159V13.2773Z" fill="#FE5000"/>
<path d="M167.447 28.7232C167.447 23.0335 170.963 19.1816 176.365 19.1816C181.202 19.1816 185.006 22.2399 185.006 28.5286V29.9323H172.415C172.415 32.7285 174.07 34.443 176.653 34.443C178.383 34.443 179.592 33.6981 180.109 32.605H184.886C184.152 36.0002 181.105 38.2087 176.567 38.2087C170.914 38.2087 167.447 34.559 167.447 28.7158V28.7232ZM180.266 26.7917C180.255 24.5607 178.694 22.9399 176.451 22.9399C174.209 22.9399 172.539 24.6805 172.419 26.7917H180.27H180.266Z" fill="#FE5000"/>
<path d="M186.398 44.6834L186.409 40.7717C187.046 40.8204 187.813 40.8316 188.427 40.8316C189.434 40.8316 190.239 40.7493 190.853 39.1509L191.153 38.3723L184.526 19.4238H189.809L193.687 33.0082H193.878L197.779 19.4238H203.095L195.907 39.8846C194.863 42.8605 192.849 44.7695 188.959 44.7695C187.974 44.7695 187.061 44.7471 186.402 44.6872L186.398 44.6834Z" fill="#FE5000"/>
<path d="M204.062 19.4238H209.138L212.043 31.8814H212.212L215.225 19.4238H220.231L223.278 31.7953H223.447L226.292 19.4238H231.38L226.341 37.8557H221.047L217.831 26.1542H217.603L214.409 37.8557H209.093L204.065 19.4238H204.062Z" fill="#FE5000"/>
<path d="M230.96 28.7122C230.96 22.9999 234.442 19.1855 240.009 19.1855C245.576 19.1855 249.057 22.9999 249.057 28.7122C249.057 34.4244 245.587 38.2163 240.009 38.2163C234.43 38.2163 230.96 34.387 230.96 28.7122ZM240.046 34.3159C242.614 34.3159 243.958 31.9164 243.958 28.6747C243.958 25.4331 242.614 23.0224 240.046 23.0224C237.478 23.0224 236.063 25.448 236.063 28.6747C236.063 31.9014 237.418 34.3159 240.046 34.3159Z" fill="#FE5000"/>
<path d="M250.724 19.4241H255.598V22.6284H255.789C256.463 20.36 258.166 19.1621 260.229 19.1621C260.734 19.1621 261.382 19.2332 261.839 19.3193V23.8075C261.371 23.6653 260.398 23.5305 259.69 23.5305C257.421 23.5305 255.74 25.1139 255.74 27.3823V37.8598H250.724V19.4241Z" fill="#FE5000"/>
<path d="M262.09 28.662C262.09 22.3509 265.497 19.1803 269.577 19.1803C272.673 19.1803 274.148 21.0295 274.822 22.5156H274.979V13.2734H279.996V37.8555H275.039V34.917H274.822C274.115 36.4293 272.576 38.1587 269.588 38.1587C265.362 38.1587 262.086 34.8235 262.086 28.6658L262.09 28.662ZM271.165 34.1459C273.65 34.1459 275.088 31.9486 275.088 28.6396C275.088 25.3305 273.673 23.2043 271.165 23.2043C268.656 23.2043 267.226 25.4129 267.226 28.6396C267.226 31.8663 268.608 34.1459 271.165 34.1459Z" fill="#FE5000"/>
<path d="M14.0616 48.0003C21.8276 48.0003 28.1232 41.7056 28.1232 33.9406C28.1232 26.1756 21.8276 19.8809 14.0616 19.8809C6.29559 19.8809 0 26.1756 0 33.9406C0 41.7056 6.29559 48.0003 14.0616 48.0003Z" fill="url(#paint0_linear_371_2099)"/>
<path d="M33.9444 28.1195C41.7104 28.1195 48.006 21.8247 48.006 14.0597C48.006 6.29476 41.7104 0 33.9444 0C26.1784 0 19.8828 6.29476 19.8828 14.0597C19.8828 21.8247 26.1784 28.1195 33.9444 28.1195Z" fill="url(#paint1_linear_371_2099)"/>
<path d="M14.0616 28.1195C21.8276 28.1195 28.1232 21.8247 28.1232 14.0597C28.1232 6.29476 21.8276 0 14.0616 0C6.29559 0 0 6.29476 0 14.0597C0 21.8247 6.29559 28.1195 14.0616 28.1195Z" fill="url(#paint2_linear_371_2099)"/>
<path d="M33.9444 48.0003C41.7104 48.0003 48.006 41.7056 48.006 33.9406C48.006 26.1756 41.7104 19.8809 33.9444 19.8809C26.1784 19.8809 19.8828 26.1756 19.8828 33.9406C19.8828 41.7056 26.1784 48.0003 33.9444 48.0003Z" fill="url(#paint3_linear_371_2099)"/>
</g>
<defs>
<linearGradient id="paint0_linear_371_2099" x1="4.11814" y1="43.8827" x2="42.4979" y2="5.4979" gradientUnits="userSpaceOnUse">
<stop stop-color="#FF7500"/>
<stop offset="1" stop-color="#FE5000"/>
</linearGradient>
<linearGradient id="paint1_linear_371_2099" x1="4.11781" y1="43.8824" x2="42.4976" y2="5.49757" gradientUnits="userSpaceOnUse">
<stop stop-color="#FF7500"/>
<stop offset="1" stop-color="#FE5000"/>
</linearGradient>
<linearGradient id="paint2_linear_371_2099" x1="43.4951" y1="43.4894" x2="6.03988" y2="6.02924" gradientUnits="userSpaceOnUse">
<stop stop-color="#FF7500"/>
<stop offset="1" stop-color="#FE5000"/>
</linearGradient>
<linearGradient id="paint3_linear_371_2099" x1="43.4947" y1="43.4897" x2="6.03955" y2="6.02956" gradientUnits="userSpaceOnUse">
<stop stop-color="#FF7500"/>
<stop offset="1" stop-color="#FE5000"/>
</linearGradient>
<clipPath id="clip0_371_2099">
<rect width="280" height="48" fill="white"/>
</clipPath>
</defs>
</svg>
