<svg width="32" height="32" viewBox="0 0 32 32" fill="none" xmlns="http://www.w3.org/2000/svg">
<path fill-rule="evenodd" clip-rule="evenodd" d="M6.8125 7.75H25.1875C25.2906 7.75 25.375 7.83437 25.375 7.9375V9.4375C25.375 9.54062 25.2906 9.625 25.1875 9.625H6.8125C6.70937 9.625 6.625 9.54062 6.625 9.4375V7.9375C6.625 7.83437 6.70937 7.75 6.8125 7.75ZM6.8125 22.375H25.1875C25.2906 22.375 25.375 22.4594 25.375 22.5625V24.0625C25.375 24.1656 25.2906 24.25 25.1875 24.25H6.8125C6.70937 24.25 6.625 24.1656 6.625 24.0625V22.5625C6.625 22.4594 6.70937 22.375 6.8125 22.375ZM6.8125 15.0625H17.1875C17.2906 15.0625 17.375 15.1469 17.375 15.25V16.75C17.375 16.8531 17.2906 16.9375 17.1875 16.9375H6.8125C6.70937 16.9375 6.625 16.8531 6.625 16.75V15.25C6.625 15.1469 6.70937 15.0625 6.8125 15.0625ZM23.6785 11.077L19.0655 15.9312C19.0288 15.9698 19.0288 16.0303 19.0655 16.0689L23.679 20.9237C23.7185 20.9652 23.7847 20.9651 23.8241 20.9235L24.9346 19.7511C24.9712 19.7124 24.9711 19.6517 24.9342 19.6132L21.4791 16.0001L24.9175 12.3864C24.9539 12.3481 24.9542 12.2879 24.9181 12.2492L23.8241 11.0776C23.7848 11.0356 23.7182 11.0353 23.6785 11.077Z" fill="#A8A8A8"/>
</svg>
