<svg width="22" height="21" viewBox="0 0 22 21" fill="none" xmlns="http://www.w3.org/2000/svg">
<path d="M18.3213 9.5293L10.5734 3.125C10.514 3.07617 10.4381 3.04883 10.3581 3.04883H8.54316C8.39141 3.04883 8.32168 3.22852 8.43652 3.32227L15.6184 9.25977H3.61719C3.52695 9.25977 3.45312 9.33008 3.45312 9.41602V10.5879C3.45312 10.6738 3.52695 10.7441 3.61719 10.7441H15.6163L8.43447 16.6816C8.31963 16.7773 8.38936 16.9551 8.54111 16.9551H10.4176C10.4565 16.9551 10.4955 16.9414 10.5242 16.916L18.3213 10.4746C18.3923 10.4158 18.4492 10.3432 18.4882 10.2617C18.5272 10.1801 18.5474 10.0916 18.5474 10.002C18.5474 9.91235 18.5272 9.82379 18.4882 9.74225C18.4492 9.66071 18.3923 9.58809 18.3213 9.5293Z" fill="#BFBFBF"/>
</svg>
