<svg width="20" height="20" viewBox="0 0 20 20" fill="none" xmlns="http://www.w3.org/2000/svg">
<path d="M11.7697 6.77499L10.4309 8.18405L11.7241 9.54499L13.1287 8.06624C13.5152 7.65954 14.0147 7.37803 14.5628 7.25805C15.1108 7.13808 15.6823 7.18515 16.2033 7.39318C16.7243 7.60122 17.171 7.96067 17.4857 8.42513C17.8004 8.88958 17.9687 9.43771 17.9688 9.99874C17.9687 10.5598 17.8004 11.1079 17.4857 11.5724C17.171 12.0368 16.7243 12.3963 16.2033 12.6043C15.6823 12.8123 15.1108 12.8594 14.5628 12.7394C14.0147 12.6194 13.5152 12.3379 13.1287 11.9312L8.23031 6.77499C5.31844 3.70936 0.15625 5.77061 0.15625 9.99874C0.15625 14.2269 5.31844 16.2881 8.23031 13.2225L9.56906 11.8134L8.27594 10.4525L6.86969 11.9312C6.48313 12.3374 5.98376 12.6184 5.43597 12.7381C4.88819 12.8577 4.31712 12.8105 3.79642 12.6025C3.27572 12.3946 2.82927 12.0354 2.51464 11.5713C2.20002 11.1072 2.03165 10.5594 2.03125 9.99874C2.03132 9.43771 2.19957 8.88958 2.51427 8.42513C2.82897 7.96067 3.27568 7.60122 3.79671 7.39318C4.31775 7.18515 4.88918 7.13808 5.43723 7.25805C5.98529 7.37803 6.48479 7.65954 6.87125 8.06624L11.7697 13.2225C14.6816 16.2881 19.8438 14.2269 19.8438 9.99874C19.8438 5.77061 14.6816 3.70936 11.7697 6.77499Z" fill="#595959"/>
</svg>
