<svg width="17" height="16" viewBox="0 0 17 16" fill="none" xmlns="http://www.w3.org/2000/svg">
<g clip-path="url(#clip0_3693_42714)">
<path d="M8.51042 1.375H2.375C2.09844 1.375 1.875 1.59844 1.875 1.875V12.0417C1.875 12.1792 1.9875 12.2917 2.125 12.2917H2.875C3.0125 12.2917 3.125 12.1792 3.125 12.0417V2.625H8.51042C8.64792 2.625 8.76042 2.5125 8.76042 2.375V1.625C8.76042 1.4875 8.64792 1.375 8.51042 1.375ZM12.5104 13.375H3.125V10.625C3.125 10.4875 3.0125 10.375 2.875 10.375H2.125C1.9875 10.375 1.875 10.4875 1.875 10.625V14.125C1.875 14.4016 2.09844 14.625 2.375 14.625H12.5104C12.6479 14.625 12.7604 14.5125 12.7604 14.375V13.625C12.7604 13.4875 12.6479 13.375 12.5104 13.375Z" fill="current"/>
<path d="M13.5098 13.375H2.12435C1.98685 13.375 1.87435 13.4875 1.87435 13.625V14.375C1.87435 14.5125 1.98685 14.625 2.12435 14.625H14.2598C14.5363 14.625 14.7598 14.4016 14.7598 14.125V8.625C14.7598 8.4875 14.6473 8.375 14.5098 8.375H13.7598C13.6223 8.375 13.5098 8.4875 13.5098 8.625V13.375Z" fill="current"/>
<path d="M15.3161 1.66046C15.3187 1.63859 15.3164 1.6164 15.3092 1.59557C15.302 1.57474 15.2902 1.55582 15.2746 1.54024C15.259 1.52466 15.2401 1.51284 15.2193 1.50566C15.1985 1.49847 15.1763 1.49613 15.1544 1.49879L10.566 1.87986C10.5391 1.88314 10.5135 1.89395 10.4924 1.91104C10.4713 1.92814 10.4554 1.95083 10.4466 1.97653C10.4378 2.00223 10.4363 2.02989 10.4425 2.05636C10.4486 2.08283 10.4621 2.10703 10.4814 2.1262L12.0962 3.74103L7.65277 8.18443C7.59632 8.24088 7.59632 8.33326 7.65277 8.38971L8.42259 9.15952C8.47904 9.21598 8.57142 9.21598 8.62787 9.15952L13.07 4.71741L14.6874 6.33479C14.7733 6.42076 14.9196 6.36943 14.9337 6.25011L15.3161 1.66046Z" fill="current"/>
</g>
<defs>
<clipPath id="clip0_3693_42714">
<rect width="16" height="16" fill="white" transform="translate(0.5)"/>
</clipPath>
</defs>
</svg>
