<svg width="17" height="16" viewBox="0 0 17 16" fill="none" xmlns="http://www.w3.org/2000/svg">
<path d="M9.46221 10.3979C9.43871 10.3746 9.40699 10.3616 9.37393 10.3616C9.34086 10.3616 9.30914 10.3746 9.28565 10.3979L7.47002 12.2135C6.6294 13.0541 5.21064 13.1432 4.28252 12.2135C3.35283 11.2838 3.44189 9.86663 4.28252 9.02601L6.09814 7.21038C6.14658 7.16194 6.14658 7.08226 6.09814 7.03382L5.47627 6.41194C5.45278 6.38868 5.42105 6.37563 5.38799 6.37563C5.35493 6.37563 5.3232 6.38868 5.29971 6.41194L3.48408 8.22757C2.16221 9.54945 2.16221 11.6885 3.48408 13.0088C4.80596 14.3291 6.94502 14.3307 8.26533 13.0088L10.081 11.1932C10.1294 11.1448 10.1294 11.0651 10.081 11.0166L9.46221 10.3979ZM13.5028 2.99163C12.181 1.66976 10.0419 1.66976 8.72158 2.99163L6.90439 4.80726C6.88113 4.83075 6.86808 4.86248 6.86808 4.89554C6.86808 4.9286 6.88113 4.96033 6.90439 4.98382L7.52471 5.60413C7.57314 5.65257 7.65283 5.65257 7.70127 5.60413L9.51689 3.78851C10.3575 2.94788 11.7763 2.85882 12.7044 3.78851C13.6341 4.71819 13.545 6.13538 12.7044 6.97601L10.8888 8.79163C10.8655 8.81513 10.8525 8.84685 10.8525 8.87991C10.8525 8.91298 10.8655 8.9447 10.8888 8.9682L11.5106 9.59007C11.5591 9.63851 11.6388 9.63851 11.6872 9.59007L13.5028 7.77444C14.8231 6.45257 14.8231 4.31351 13.5028 2.99163ZM10.0263 5.81819C10.0028 5.79493 9.97105 5.78188 9.93799 5.78188C9.90493 5.78188 9.8732 5.79493 9.84971 5.81819L6.31064 9.3557C6.28738 9.37919 6.27433 9.41091 6.27433 9.44398C6.27433 9.47704 6.28738 9.50876 6.31064 9.53226L6.92939 10.151C6.97783 10.1994 7.05752 10.1994 7.10596 10.151L10.6435 6.61351C10.6919 6.56507 10.6919 6.48538 10.6435 6.43694L10.0263 5.81819Z" fill="black"/>
</svg>
