<svg width="24" height="24" viewBox="0 0 24 24" fill="none" xmlns="http://www.w3.org/2000/svg">
<path fill-rule="evenodd" clip-rule="evenodd" d="M2.8125 3.75H21.1875C21.2906 3.75 21.375 3.83437 21.375 3.9375V5.4375C21.375 5.54062 21.2906 5.625 21.1875 5.625H2.8125C2.70937 5.625 2.625 5.54062 2.625 5.4375V3.9375C2.625 3.83437 2.70937 3.75 2.8125 3.75ZM2.8125 18.375H21.1875C21.2906 18.375 21.375 18.4594 21.375 18.5625V20.0625C21.375 20.1656 21.2906 20.25 21.1875 20.25H2.8125C2.70937 20.25 2.625 20.1656 2.625 20.0625V18.5625C2.625 18.4594 2.70937 18.375 2.8125 18.375ZM2.8125 11.0625H13.1875C13.2906 11.0625 13.375 11.1469 13.375 11.25V12.75C13.375 12.8531 13.2906 12.9375 13.1875 12.9375H2.8125C2.70937 12.9375 2.625 12.8531 2.625 12.75V11.25C2.625 11.1469 2.70937 11.0625 2.8125 11.0625ZM19.6785 7.07701L15.0655 11.9312C15.0288 11.9698 15.0288 12.0303 15.0655 12.0689L19.679 16.9237C19.7185 16.9652 19.7847 16.9651 19.8241 16.9235L20.9346 15.7511C20.9712 15.7124 20.9711 15.6517 20.9342 15.6132L17.4791 12.0001L20.9175 8.38642C20.9539 8.34807 20.9542 8.28793 20.9181 8.24924L19.8241 7.07765C19.7848 7.03557 19.7182 7.03528 19.6785 7.07701Z"/>
</svg>
