<svg width="17" height="16" viewBox="0 0 17 16" fill="none" xmlns="http://www.w3.org/2000/svg">
<path d="M14.6824 5.51694L10.7152 4.94038L8.94175 1.34506C8.89332 1.24663 8.81363 1.16694 8.71519 1.1185C8.46832 0.996626 8.16831 1.09819 8.04488 1.34506L6.27144 4.94038L2.30425 5.51694C2.19488 5.53256 2.09488 5.58413 2.01832 5.66225C1.92576 5.75739 1.87475 5.88538 1.87651 6.0181C1.87827 6.15082 1.93264 6.27741 2.02769 6.37006L4.898 9.1685L4.21988 13.1201C4.20398 13.212 4.21415 13.3065 4.24924 13.393C4.28433 13.4794 4.34294 13.5543 4.41842 13.6091C4.4939 13.6639 4.58323 13.6965 4.67628 13.7031C4.76933 13.7098 4.86238 13.6902 4.94488 13.6466L8.49332 11.781L12.0418 13.6466C12.1386 13.6982 12.2511 13.7154 12.3589 13.6966C12.6308 13.6497 12.8136 13.3919 12.7668 13.1201L12.0886 9.1685L14.9589 6.37006C15.0371 6.2935 15.0886 6.1935 15.1043 6.08413C15.1464 5.81069 14.9558 5.55756 14.6824 5.51694ZM10.8808 8.77475L11.4449 12.0607L8.49332 10.5107L5.54175 12.0623L6.10582 8.77631L3.71832 6.44819L7.01832 5.9685L8.49332 2.97944L9.96832 5.9685L13.2683 6.44819L10.8808 8.77475Z" fill="black"/>
</svg>
