<svg width="20" height="20" viewBox="0 0 20 20" fill="none" xmlns="http://www.w3.org/2000/svg">
<path fill-rule="evenodd" clip-rule="evenodd" d="M14.8625 1.81826L15.3496 3.76662L14.7221 4.39418C13.3392 3.21311 11.5446 2.49999 9.58341 2.49999C5.21116 2.49999 1.66675 6.04441 1.66675 10.4167C1.66675 14.7889 5.21116 18.3333 9.58341 18.3333C13.9557 18.3333 17.5001 14.7889 17.5001 10.4167C17.5001 8.45553 16.787 6.66095 15.6059 5.27807L16.3007 4.58334H18.3335V3.33334H16.5298L16.0752 1.51509L14.8625 1.81826ZM13.8349 5.28134C12.6809 4.3249 11.1993 3.74999 9.58341 3.74999C5.90152 3.74999 2.91675 6.73476 2.91675 10.4167C2.91675 14.0986 5.90152 17.0833 9.58341 17.0833C13.2653 17.0833 16.2501 14.0986 16.2501 10.4167C16.2501 8.80079 15.6752 7.31918 14.7188 6.16523L13.6818 7.20224C14.3771 8.08752 14.7917 9.20367 14.7917 10.4167C14.7917 13.2931 12.4599 15.625 9.58342 15.625C6.70693 15.625 4.37508 13.2931 4.37508 10.4167C4.37508 7.54018 6.70693 5.20833 9.58342 5.20833C10.7964 5.20833 11.9126 5.62301 12.7979 6.31835L13.8349 5.28134ZM11.9056 7.21069C11.2533 6.73741 10.4509 6.45833 9.58342 6.45833C7.39729 6.45833 5.62508 8.23053 5.62508 10.4167C5.62508 12.6028 7.39729 14.375 9.58342 14.375C11.7695 14.375 13.5417 12.6028 13.5417 10.4167C13.5417 9.54917 13.2627 8.74685 12.7894 8.09458L11.431 9.45304C11.5816 9.74121 11.6667 10.069 11.6667 10.4167C11.6667 11.5673 10.734 12.5 9.58342 12.5C8.43282 12.5 7.50008 11.5673 7.50008 10.4167C7.50008 9.26607 8.43282 8.33333 9.58342 8.33333C9.93112 8.33333 10.2589 8.41851 10.5471 8.56914L11.9056 7.21069Z" />
</svg>
