<svg width="15" height="14" viewBox="0 0 15 14" fill="none" xmlns="http://www.w3.org/2000/svg">
<path d="M14.2852 12.2357H0.222656C0.136719 12.2357 0.0664062 12.306 0.0664062 12.392V13.5639C0.0664062 13.6498 0.136719 13.7201 0.222656 13.7201H14.2852C14.3711 13.7201 14.4414 13.6498 14.4414 13.5639V12.392C14.4414 12.306 14.3711 12.2357 14.2852 12.2357ZM4.8125 3.36269H6.25586V9.97011C6.25586 10.056 6.32617 10.1264 6.41211 10.1264H7.58398C7.66992 10.1264 7.74023 10.056 7.74023 9.97011V3.36269H9.1875C9.31836 3.36269 9.39062 3.21229 9.31055 3.11073L7.12305 0.341201C7.10843 0.322526 7.08976 0.307422 7.06844 0.297035C7.04712 0.286648 7.02371 0.28125 7 0.28125C6.97629 0.28125 6.95288 0.286648 6.93156 0.297035C6.91024 0.307422 6.89157 0.322526 6.87695 0.341201L4.68945 3.10878C4.60938 3.2123 4.68164 3.36269 4.8125 3.36269Z" fill="#595959"/>
</svg>
