<svg width="40" height="40" viewBox="0 0 40 40" fill="none" xmlns="http://www.w3.org/2000/svg">
<path fill-rule="evenodd" clip-rule="evenodd" d="M1.66675 1.66797H21.4497V24.5398H12.2226L7.20961 28.8367H4.53133V24.5398H1.66675V1.66797ZM4.53133 21.6752H7.39591V24.9041L11.1629 21.6752H18.5851V4.53255H4.53133V21.6752ZM7.30618 11.6492C7.30618 9.30081 9.20986 7.39713 11.5582 7.39713C13.9066 7.39713 15.8103 9.30082 15.8103 11.6492V18.8106H12.9457V15.9461H10.1708V18.8106H7.30618V11.6492ZM10.1708 13.0815H12.9457V11.6492C12.9457 10.8829 12.3245 10.2617 11.5582 10.2617C10.7919 10.2617 10.1708 10.8829 10.1708 11.6492V13.0815ZM35.4688 14.0305H24.2796V11.1659H38.3334V34.0378H35.4688V38.3346H32.7906L27.7775 34.0378H18.5409L18.5852 27.3948L21.4497 27.414L21.4246 31.1732H28.8372L32.6042 34.4021V31.1732H35.4688V14.0305ZM27.0096 19.7597V16.8951H29.8742V19.7597H32.6939V22.6243H30.044C30.2111 23.3047 30.4908 23.8943 30.8343 24.3535C31.4009 25.111 32.0734 25.444 32.694 25.444V28.3086C30.9663 28.3086 29.5127 27.3691 28.5404 26.0693C28.5071 26.0248 28.4743 25.9797 28.4419 25.9342C28.4096 25.9797 28.3768 26.0248 28.3434 26.0693C27.3712 27.3691 25.9176 28.3086 24.1899 28.3086V25.444C24.8105 25.444 25.4829 25.111 26.0496 24.3535C26.3931 23.8943 26.6728 23.3047 26.8399 22.6243H24.1899V19.7597H27.0096Z" fill="#D9D9D9"/>
</svg>
