<svg width="24" height="24" viewBox="0 0 24 24" fill="none" xmlns="http://www.w3.org/2000/svg">
<path d="M2.91225 5.49199H8.16025V18.244H4.83225V8.24399H2.91225V5.49199Z" fill="black"/>
<path d="M9.95175 11.86C9.95175 10.836 10.0797 9.89199 10.3357 9.05999C10.5757 8.24399 10.9437 7.53999 11.4237 6.96399C11.8877 6.38799 12.4637 5.95599 13.1677 5.63599C13.8397 5.34799 14.6237 5.18799 15.5197 5.18799C16.3837 5.18799 17.1517 5.34799 17.8557 5.63599C18.5277 5.95599 19.1197 6.38799 19.5997 6.96399C20.0797 7.53999 20.4477 8.24399 20.7037 9.05999C20.9597 9.89199 21.0877 10.836 21.0877 11.86C21.0877 12.916 20.9597 13.844 20.7357 14.66C20.4797 15.492 20.1277 16.196 19.6637 16.772C19.1837 17.348 18.5917 17.78 17.9037 18.1C17.1997 18.404 16.4157 18.564 15.5197 18.564C14.6237 18.564 13.8397 18.404 13.1677 18.1C12.4637 17.78 11.8877 17.348 11.4237 16.772C10.9437 16.196 10.5757 15.492 10.3357 14.66C10.0797 13.844 9.95175 12.916 9.95175 11.86ZM13.2797 11.86C13.2797 12.58 13.3437 13.188 13.4717 13.684C13.5837 14.196 13.7437 14.596 13.9677 14.9C14.1597 15.22 14.3997 15.46 14.6717 15.588C14.9277 15.748 15.2157 15.812 15.5197 15.812C15.8237 15.812 16.1117 15.748 16.3997 15.588C16.6557 15.46 16.8957 15.22 17.1197 14.9C17.3117 14.596 17.4717 14.196 17.5997 13.684C17.7117 13.188 17.7757 12.58 17.7757 11.86C17.7757 11.156 17.7117 10.564 17.5997 10.052C17.4717 9.55599 17.3117 9.15599 17.1197 8.83599C16.8957 8.53199 16.6557 8.30799 16.3997 8.14799C16.1117 8.01999 15.8237 7.93999 15.5197 7.93999C15.2157 7.93999 14.9277 8.01999 14.6717 8.14799C14.3997 8.30799 14.1597 8.53199 13.9677 8.83599C13.7437 9.15599 13.5837 9.55599 13.4717 10.052C13.3437 10.564 13.2797 11.156 13.2797 11.86Z" fill="black"/>
</svg>
