<svg width="15" height="14" viewBox="0 0 15 14" fill="none" xmlns="http://www.w3.org/2000/svg">
<g clip-path="url(#clip0_3866_116155)">
<path d="M0.499764 13.7691L1.14346 8.40116C1.14346 8.40116 1.16645 8.3207 1.18944 8.28622C1.21243 8.26323 1.24691 8.24024 1.28139 8.21725C1.32737 8.20576 1.36186 8.20576 1.40783 8.21725C1.44232 8.22875 1.4768 8.24024 1.51128 8.27472L3.10903 9.87247L10.4196 2.56193L12.1093 0.872236L12.9828 -0.00135054L14.5001 1.51593L12.2472 3.78036L10.7184 5.30913L4.62631 11.3897L6.22405 12.9875C6.35049 13.1139 6.28152 13.3323 6.09761 13.3553L0.729655 13.999C0.591721 14.022 0.476774 13.9071 0.499764 13.7691Z" fill="#1A9CFF"/>
</g>
<defs>
<clipPath id="clip0_3866_116155">
<rect width="14.0004" height="14.0004" fill="white" transform="translate(14.5001 14) rotate(-180)"/>
</clipPath>
</defs>
</svg>
