<svg width="21" height="20" viewBox="0 0 21 20" fill="none" xmlns="http://www.w3.org/2000/svg">
<path d="M18.234 6.89845L13.275 6.17774L11.0582 1.6836C10.9976 1.56055 10.898 1.46094 10.775 1.4004C10.4664 1.24805 10.0914 1.37501 9.93708 1.6836L7.72028 6.17774L2.7613 6.89845C2.62458 6.91798 2.49958 6.98243 2.40388 7.08009C2.28818 7.199 2.22442 7.35899 2.22662 7.52489C2.22881 7.6908 2.29679 7.84904 2.41559 7.96485L6.00348 11.4629L5.15583 16.4024C5.13595 16.5173 5.14867 16.6354 5.19253 16.7435C5.2364 16.8515 5.30966 16.9451 5.40401 17.0136C5.49836 17.0822 5.61002 17.1229 5.72634 17.1312C5.84265 17.1395 5.95896 17.115 6.06208 17.0606L10.4976 14.7285L14.9332 17.0606C15.0543 17.125 15.1949 17.1465 15.3297 17.1231C15.6695 17.0645 15.898 16.7422 15.8394 16.4024L14.9918 11.4629L18.5797 7.96485C18.6773 7.86915 18.7418 7.74415 18.7613 7.60743C18.814 7.26563 18.5758 6.94923 18.234 6.89845Z" fill="#FF6C28"/>
</svg>
