<svg width="102" height="31" viewBox="0 0 102 31" fill="none" xmlns="http://www.w3.org/2000/svg">
<path d="M38.8103 10.4577C39.1965 10.724 39.2569 11.2673 38.9635 11.6336L31.1159 21.4266C30.4505 22.2596 29.1863 22.2596 28.521 21.4266L20.6734 11.6336C20.3799 11.2673 20.4403 10.7238 20.8263 10.4573C22.1944 9.51281 25.4294 7.63281 29.8184 7.63281C34.2016 7.63281 37.4406 9.51338 38.8103 10.4577Z" fill="#EBEBEB"/>
<path d="M83.2518 9.75368C83.2518 9.05105 82.6822 8.48145 81.9795 8.48145H80.7073V6.78516H75.6184V8.48145H74.3462C73.6436 8.48145 73.074 9.05105 73.074 9.75367V22.4759C73.074 23.1785 73.6436 23.7481 74.3462 23.7481H81.9795C82.6822 23.7481 83.2518 23.1785 83.2518 22.4759V9.75368Z" fill="#EBEBEB"/>
<path d="M58.904 8.23304C59.4383 7.69873 60.3519 8.07715 60.3519 8.83277V22.0518C60.3519 22.9887 59.5924 23.7481 58.6556 23.7481H45.4365C44.6809 23.7481 44.3025 22.8345 44.8368 22.3002L58.904 8.23304Z" fill="#EBEBEB"/>
</svg>
