<svg width="28" height="28" viewBox="0 0 28 28" fill="none" xmlns="http://www.w3.org/2000/svg">
<path d="M24.2812 21.6562H5.46875V4.59375C5.46875 4.47344 5.37031 4.375 5.25 4.375H3.71875C3.59844 4.375 3.5 4.47344 3.5 4.59375V23.4062C3.5 23.5266 3.59844 23.625 3.71875 23.625H24.2812C24.4016 23.625 24.5 23.5266 24.5 23.4062V21.875C24.5 21.7547 24.4016 21.6562 24.2812 21.6562ZM7.875 19.4688H9.40625C9.52656 19.4688 9.625 19.3703 9.625 19.25V15.3125C9.625 15.1922 9.52656 15.0938 9.40625 15.0938H7.875C7.75469 15.0938 7.65625 15.1922 7.65625 15.3125V19.25C7.65625 19.3703 7.75469 19.4688 7.875 19.4688ZM12.0312 19.4688H13.5625C13.6828 19.4688 13.7812 19.3703 13.7812 19.25V10.5C13.7812 10.3797 13.6828 10.2812 13.5625 10.2812H12.0312C11.9109 10.2812 11.8125 10.3797 11.8125 10.5V19.25C11.8125 19.3703 11.9109 19.4688 12.0312 19.4688ZM16.1875 19.4688H17.7188C17.8391 19.4688 17.9375 19.3703 17.9375 19.25V12.6328C17.9375 12.5125 17.8391 12.4141 17.7188 12.4141H16.1875C16.0672 12.4141 15.9688 12.5125 15.9688 12.6328V19.25C15.9688 19.3703 16.0672 19.4688 16.1875 19.4688ZM20.3438 19.4688H21.875C21.9953 19.4688 22.0938 19.3703 22.0938 19.25V8.3125C22.0938 8.19219 21.9953 8.09375 21.875 8.09375H20.3438C20.2234 8.09375 20.125 8.19219 20.125 8.3125V19.25C20.125 19.3703 20.2234 19.4688 20.3438 19.4688Z" fill="current"/>
</svg>
