<svg width="24" height="24" viewBox="0 0 24 24" fill="none" xmlns="http://www.w3.org/2000/svg">
<path d="M12.12 18.392C11.416 18.392 10.76 18.296 10.152 18.136C9.512 17.944 8.968 17.688 8.52 17.368C8.04 17.016 7.672 16.616 7.416 16.136C7.128 15.656 7 15.128 7 14.52C7 14.104 7.064 13.72 7.208 13.368C7.336 13.032 7.512 12.728 7.736 12.472C7.96 12.216 8.216 12.008 8.504 11.832C8.792 11.672 9.08 11.56 9.4 11.48C8.792 11.336 8.296 11.016 7.928 10.504C7.544 10.024 7.368 9.432 7.368 8.728C7.368 8.152 7.496 7.624 7.752 7.144C7.992 6.696 8.328 6.296 8.76 5.976C9.176 5.656 9.688 5.416 10.264 5.24C10.84 5.08 11.448 5 12.12 5C12.76 5 13.384 5.08 13.976 5.24C14.552 5.416 15.048 5.656 15.48 5.976C15.896 6.296 16.248 6.696 16.504 7.144C16.744 7.624 16.872 8.152 16.872 8.728C16.872 9.432 16.68 10.024 16.312 10.504C15.928 11.016 15.448 11.336 14.84 11.48C15.16 11.544 15.464 11.656 15.752 11.816C16.04 11.992 16.296 12.2 16.52 12.456C16.728 12.712 16.904 13.016 17.048 13.352C17.176 13.704 17.24 14.104 17.24 14.52C17.24 15.128 17.096 15.656 16.84 16.136C16.552 16.616 16.184 17.016 15.736 17.368C15.256 17.688 14.712 17.944 14.104 18.136C13.464 18.296 12.808 18.392 12.12 18.392ZM12.12 15.96C12.664 15.96 13.096 15.816 13.416 15.528C13.736 15.24 13.896 14.872 13.896 14.424C13.896 13.976 13.736 13.608 13.416 13.304C13.096 13.016 12.664 12.872 12.12 12.872C11.576 12.872 11.144 13.016 10.824 13.304C10.504 13.608 10.344 13.976 10.344 14.424C10.344 14.872 10.504 15.24 10.824 15.528C11.144 15.816 11.576 15.96 12.12 15.96ZM12.12 10.2C12.632 10.2 13.016 10.072 13.288 9.784C13.544 9.528 13.688 9.208 13.688 8.824C13.688 8.456 13.544 8.136 13.288 7.848C13.016 7.576 12.632 7.432 12.12 7.432C11.608 7.432 11.208 7.576 10.952 7.848C10.68 8.136 10.552 8.456 10.552 8.824C10.552 9.208 10.68 9.528 10.952 9.784C11.208 10.072 11.608 10.2 12.12 10.2Z" fill="black"/>
</svg>
