<svg width="24" height="24" viewBox="0 0 24 24" fill="none" xmlns="http://www.w3.org/2000/svg">
<path d="M9.8 13.576C10.024 14.152 10.328 14.584 10.696 14.872C11.048 15.176 11.544 15.32 12.184 15.32C12.76 15.32 13.224 15.176 13.576 14.856C13.928 14.552 14.104 14.136 14.104 13.624C14.104 13.112 13.912 12.712 13.56 12.408C13.192 12.12 12.728 11.96 12.152 11.928C11.384 11.912 10.824 12.12 10.44 12.568H7.464V5H16.76V7.752H10.792V9.672C11.096 9.512 11.448 9.384 11.832 9.288C12.2 9.224 12.584 9.176 13 9.176C13.512 9.176 14.04 9.272 14.568 9.464C15.08 9.656 15.56 9.944 15.992 10.312C16.408 10.696 16.76 11.144 17.032 11.688C17.288 12.248 17.432 12.888 17.432 13.592C17.432 14.2 17.304 14.776 17.064 15.32C16.808 15.864 16.456 16.344 16.008 16.76C15.544 17.16 14.984 17.48 14.344 17.72C13.688 17.944 12.968 18.072 12.168 18.072C11.48 18.072 10.856 17.992 10.28 17.832C9.704 17.672 9.192 17.432 8.744 17.144C8.296 16.84 7.912 16.488 7.624 16.072C7.32 15.656 7.112 15.208 7 14.696L9.8 13.576Z" fill="black"/>
</svg>
