<svg width="24" height="24" viewBox="0 0 24 24" fill="none" xmlns="http://www.w3.org/2000/svg">
<path d="M3.26425 5.49199H8.51225V18.244H5.18425V8.24399H3.26425V5.49199Z" fill="black"/>
<path d="M10.5118 8.22799C10.6718 7.74799 10.9278 7.29999 11.2638 6.91599C11.5838 6.54799 11.9838 6.22799 12.4318 5.97199C12.8638 5.71599 13.3438 5.52399 13.8558 5.37999C14.3518 5.25199 14.8638 5.18799 15.3918 5.18799C16.0638 5.18799 16.7038 5.28399 17.3118 5.45999C17.9198 5.65199 18.4478 5.92399 18.9118 6.25999C19.3598 6.61199 19.7118 7.01199 19.9838 7.47599C20.2398 7.95599 20.3838 8.48399 20.3838 9.05999C20.3838 9.34799 20.3358 9.63599 20.2718 9.90799C20.1918 10.196 20.0798 10.452 19.9358 10.676C19.7758 10.932 19.5678 11.14 19.3438 11.3C19.1038 11.492 18.8318 11.62 18.5118 11.7C18.8318 11.78 19.1198 11.892 19.3918 12.052C19.6478 12.228 19.8878 12.436 20.0958 12.66C20.2878 12.916 20.4478 13.188 20.5758 13.476C20.6718 13.796 20.7358 14.116 20.7358 14.452C20.7358 15.124 20.5918 15.7 20.3038 16.212C20.0158 16.724 19.6318 17.156 19.1518 17.508C18.6558 17.844 18.0798 18.1 17.4398 18.292C16.7838 18.468 16.0958 18.564 15.3758 18.564C14.8638 18.564 14.3678 18.5 13.8558 18.404C13.3278 18.292 12.8318 18.116 12.3838 17.892C11.9038 17.652 11.4878 17.348 11.1198 16.98C10.7358 16.596 10.4318 16.164 10.2398 15.62L13.0238 14.34C13.1838 14.82 13.4718 15.188 13.9038 15.428C14.3198 15.684 14.7838 15.812 15.3118 15.812C15.5678 15.812 15.8078 15.796 16.0638 15.732C16.3038 15.7 16.5278 15.62 16.7358 15.508C16.9278 15.412 17.1038 15.268 17.2318 15.092C17.3438 14.932 17.4078 14.724 17.4078 14.468C17.4078 14.18 17.3278 13.94 17.1998 13.748C17.0558 13.572 16.8798 13.428 16.6718 13.3C16.4478 13.204 16.2078 13.124 15.9518 13.076C15.6638 13.044 15.4078 13.012 15.1518 13.012H13.8558V10.58H15.1518C15.3598 10.58 15.5838 10.564 15.8078 10.516C16.0318 10.484 16.2398 10.42 16.4318 10.308C16.6078 10.212 16.7518 10.084 16.8798 9.90799C16.9918 9.74799 17.0558 9.52399 17.0558 9.25199C17.0558 9.02799 17.0078 8.83599 16.9118 8.65999C16.7998 8.49999 16.6558 8.37199 16.4958 8.25999C16.3198 8.16399 16.1278 8.08399 15.9198 8.01999C15.6958 7.97199 15.4718 7.93999 15.2478 7.93999C14.7998 7.93999 14.3838 8.08399 14.0158 8.33999C13.6318 8.61199 13.3598 8.97999 13.1678 9.42799L10.5118 8.22799Z" fill="black"/>
</svg>
