<svg width="24" height="24" viewBox="0 0 24 24" fill="none" xmlns="http://www.w3.org/2000/svg">
<path d="M11.304 12.696C12.024 12.12 12.584 11.544 13 10.952C13.384 10.376 13.592 9.832 13.592 9.32C13.592 9.16 13.56 8.968 13.528 8.776C13.464 8.6 13.384 8.424 13.288 8.264C13.16 8.12 13.016 7.992 12.824 7.896C12.632 7.8 12.392 7.752 12.104 7.752C10.92 7.752 10.056 8.472 9.544 9.88L7 8.552C7.16 7.976 7.416 7.464 7.768 7.016C8.104 6.568 8.504 6.2 8.984 5.88C9.432 5.592 9.96 5.368 10.536 5.208C11.096 5.064 11.688 5 12.328 5C12.984 5.016 13.608 5.128 14.184 5.336C14.744 5.56 15.24 5.848 15.656 6.232C16.072 6.616 16.392 7.08 16.632 7.608C16.856 8.152 16.968 8.76 16.952 9.4C16.92 9.88 16.84 10.312 16.68 10.728C16.504 11.16 16.28 11.56 16.024 11.944C15.752 12.344 15.448 12.712 15.096 13.064C14.744 13.432 14.36 13.768 13.976 14.088L12.504 15.288H17.448V18.024H7.352V15.88L11.304 12.696Z" fill="black"/>
</svg>
