<svg width="16" height="16" viewBox="0 0 16 16" fill="none" xmlns="http://www.w3.org/2000/svg">
<g clip-path="url(#clip0_5367_192548)">
<rect x="15" y="0.826172" width="14" height="14" rx="2" transform="rotate(90 15 0.826172)" fill="#82AFFF"/>
<path d="M15.7241 2.58398H14.9333L0 10.3081V10.8598L15.8864 2.6427C15.8404 2.60823 15.7861 2.58398 15.7241 2.58398Z" fill="#F8CB32"/>
<path d="M0.275625 13.0668H1.0664L15.9997 5.34273V4.79102L0.113281 13.0081C0.159344 13.0426 0.213656 13.0668 0.275625 13.0668Z" fill="#F8CB32"/>
<path d="M15.8864 2.64258L0 10.8597V12.7907C0 12.8811 0.0463437 12.9576 0.113531 13.0078L16 4.79076V2.8597C16 2.7693 15.9536 2.69289 15.8864 2.64258Z" fill="#FF334B"/>
<path d="M3.5194 2.63395L3.91683 3.82567L5.17305 3.83539C5.2433 3.83595 5.27243 3.92558 5.21593 3.96733L4.20533 4.71361L4.58427 5.91135C4.60546 5.97832 4.52921 6.03373 4.47205 5.99288L3.45002 5.26235L2.42799 5.99288C2.37087 6.03376 2.29459 5.97832 2.31578 5.91135L2.69471 4.71361L1.68412 3.96733C1.62759 3.92561 1.65675 3.83595 1.72699 3.83539L2.98321 3.82567L3.38065 2.63395C3.40293 2.56733 3.49715 2.56733 3.5194 2.63395Z" fill="#F8CB32"/>
</g>
<defs>
<clipPath id="clip0_5367_192548">
<rect x="15" y="0.826172" width="14" height="14" rx="2" transform="rotate(90 15 0.826172)" fill="white"/>
</clipPath>
</defs>
</svg>
