<svg width="16" height="16" viewBox="0 0 16 16" fill="none" xmlns="http://www.w3.org/2000/svg">
<g clip-path="url(#clip0_5367_192140)">
<rect x="1" y="1" width="14" height="14" rx="2" fill="#464655"/>
<path d="M1.24139 1H14.7586C14.8919 1 15 1.16498 15 1.36844V5.66667H1V1.36844C1 1.16498 1.10809 1 1.24139 1Z" fill="#FF334B"/>
<path d="M15 5.66602H1V10.3327H15V5.66602Z" fill="white"/>
<path d="M8.88079 7.45569C8.88079 7.3189 8.74676 7.22228 8.61701 7.26556L8.37314 7.34684L8.31392 6.98922C8.27851 6.77591 8.0957 6.62109 7.87936 6.62109H7.65126L7.4127 6.91472H7.72861L7.6402 7.35134L7.38292 7.26559C7.25314 7.22231 7.11914 7.31894 7.11914 7.45572V8.93931L7.47423 8.58421L7.30692 9.08612H7.11917V9.37974H8.88082V9.08612H8.69307L8.52576 8.58421L8.88086 8.93931V7.45569H8.88079V7.45569ZM7.8532 9.08606H7.61651L7.77926 8.6514L7.8532 8.74581V9.08606ZM8.14676 9.08606V8.74581L8.2207 8.6514L8.38345 9.08606H8.14676ZM7.99998 8.5539C7.99998 8.5539 7.5458 8.24653 7.56417 7.67309C7.56417 7.67309 7.84405 7.62722 7.99998 7.37947C8.15595 7.62719 8.43582 7.67309 8.43582 7.67309C8.45417 8.24656 7.99998 8.5539 7.99998 8.5539Z" fill="#F0C727"/>
<path d="M1 10.334H15V14.6322C15 14.8357 14.8919 15.0007 14.7586 15.0007H1.24139C1.10809 15.0007 1 14.8357 1 14.6322V10.334Z" fill="#464655"/>
</g>
<defs>
<clipPath id="clip0_5367_192140">
<rect x="1" y="1" width="14" height="14" rx="2" fill="white"/>
</clipPath>
</defs>
</svg>
