<svg width="16" height="16" viewBox="0 0 16 16" fill="none" xmlns="http://www.w3.org/2000/svg">
<g clip-path="url(#clip0_5367_191961)">
<rect x="1" y="1" width="14" height="14" rx="2" fill="#41479B"/>
<path d="M10.1458 13.8487L10.0164 13.5466L10.0811 13.6977L10.0156 13.547C10.0429 13.5349 10.6837 13.2426 10.6837 12.3828H11.0125C11.0125 13.4649 10.1812 13.8335 10.1458 13.8487Z" fill="#E67346"/>
<path d="M10.2754 13.1138L10.043 12.8814C10.4873 12.4371 10.7182 12.3152 10.7431 12.3027L10.8901 12.5968L10.8166 12.4497L10.8914 12.5961C10.8893 12.5972 10.6812 12.708 10.2754 13.1138Z" fill="#EB7D4B"/>
<path d="M13.5239 13.8487L13.6533 13.5466L13.5886 13.6977L13.6541 13.547C13.6268 13.5349 12.9859 13.2426 12.9859 12.3828H12.6572C12.6572 13.4649 13.4884 13.8335 13.5239 13.8487Z" fill="#E67346"/>
<path d="M13.3953 13.1138L13.6277 12.8814C13.1834 12.4371 12.9525 12.3152 12.9276 12.3027L12.7805 12.5968L12.8541 12.4497L12.7793 12.5961C12.7814 12.5972 12.9895 12.708 13.3953 13.1138Z" fill="#EB7D4B"/>
<path d="M11.8352 8.10938H10.082C10.082 8.10938 10.082 10.1913 10.082 10.7391C10.082 11.287 10.1916 12.7114 11.8352 13.2593C13.4788 12.7114 13.5883 11.287 13.5883 10.7391C13.5883 10.1913 13.5883 8.10938 13.5883 8.10938H11.8352Z" fill="#4173CD"/>
<path d="M12.6017 8.76644H11.6597C11.5602 8.76644 11.4637 8.73256 11.386 8.67041L11.0182 8.37616C10.9793 8.34509 10.9311 8.32812 10.8813 8.32812H10.8486C10.7276 8.32812 10.6295 8.42622 10.6295 8.54725H10.4651C10.3744 8.54725 10.3008 8.62084 10.3008 8.71159C10.3008 8.80234 10.3744 8.87594 10.4651 8.87594H10.6295C10.69 8.87594 10.7391 8.925 10.7391 8.98553V9.5334C10.7391 9.7374 10.8791 9.90734 11.0678 9.95618V10.3004H11.2869L11.3691 9.97168H12.3827L12.4922 10.0813V10.3004H12.6018V9.97168H12.7114V10.3004H12.821V9.94131C12.8863 9.90334 12.9306 9.8335 12.9306 9.75256V9.09512C12.9305 8.91362 12.7833 8.76644 12.6017 8.76644Z" fill="#C8C8C8"/>
<path d="M10.6289 10.1914L10.8481 10.8488H12.8204L13.0395 10.1914H10.6289Z" fill="#73AF00"/>
<path d="M13.002 10.6289C12.7099 10.6289 12.7099 10.848 12.4178 10.848C12.1258 10.848 12.1258 10.6289 11.8337 10.6289C11.5417 10.6289 11.5417 10.848 11.2497 10.848C10.9576 10.848 10.9576 10.6289 10.6654 10.6289C10.374 10.6289 10.3732 10.847 10.083 10.848C10.0865 10.97 10.097 11.1193 10.1239 11.2843C10.3737 11.2639 10.3885 11.0672 10.6655 11.0672C10.9576 11.0672 10.9576 11.2863 11.2497 11.2863C11.5417 11.2863 11.5417 11.0672 11.8337 11.0672C12.1258 11.0672 12.1258 11.2863 12.4178 11.2863C12.7099 11.2863 12.7099 11.0672 13.0021 11.0672C13.2798 11.0672 13.2944 11.2643 13.5453 11.2843C13.5723 11.1194 13.5827 10.9701 13.5863 10.848C13.2947 10.8475 13.2943 10.6289 13.002 10.6289Z" fill="white"/>
<path d="M13.0021 11.0684C12.71 11.0684 12.71 11.2875 12.4179 11.2875C12.1259 11.2875 12.1259 11.0684 11.8338 11.0684C11.5418 11.0684 11.5418 11.2875 11.2498 11.2875C10.9577 11.2875 10.9577 11.0684 10.6656 11.0684C10.3886 11.0684 10.3738 11.265 10.124 11.2855C10.1455 11.4168 10.1777 11.558 10.2248 11.7032C10.3846 11.6474 10.4313 11.5066 10.6655 11.5066C10.9576 11.5066 10.9576 11.7257 11.2497 11.7257C11.5417 11.7257 11.5417 11.5066 11.8338 11.5066C12.1258 11.5066 12.1258 11.7257 12.4179 11.7257C12.71 11.7257 12.71 11.5066 13.0021 11.5066C13.2372 11.5066 13.2837 11.6479 13.4445 11.7035C13.4917 11.5582 13.5239 11.4169 13.5454 11.2855C13.2945 11.2654 13.2799 11.0684 13.0021 11.0684Z" fill="#4173CD"/>
<path d="M13.0019 11.5059C12.7098 11.5059 12.7098 11.725 12.4177 11.725C12.1256 11.725 12.1256 11.5059 11.8336 11.5059C11.5416 11.5059 11.5416 11.725 11.2495 11.725C10.9575 11.725 10.9575 11.5059 10.6653 11.5059C10.4311 11.5059 10.3844 11.6466 10.2246 11.7024C10.2624 11.8188 10.3102 11.9376 10.3701 12.0561C10.4442 12.0005 10.5172 11.9441 10.6653 11.9441C10.9574 11.9441 10.9574 12.1633 11.2495 12.1633C11.5415 12.1633 11.5415 11.9441 11.8336 11.9441C12.1256 11.9441 12.1256 12.1633 12.4177 12.1633C12.7098 12.1633 12.7098 11.9441 13.0019 11.9441C13.1509 11.9441 13.2241 12.001 13.2986 12.0568C13.3586 11.9382 13.4065 11.8192 13.4443 11.7028C13.2835 11.6472 13.237 11.5059 13.0019 11.5059Z" fill="white"/>
<path d="M13.002 11.9453C12.7098 11.9453 12.7098 12.1644 12.4177 12.1644C12.1257 12.1644 12.1257 11.9453 11.8336 11.9453C11.5416 11.9453 11.5416 12.1644 11.2496 12.1644C10.9575 12.1644 10.9575 11.9453 10.6654 11.9453C10.5172 11.9453 10.4442 12.0017 10.3701 12.0572C10.4271 12.1701 10.4953 12.2824 10.5768 12.3918C10.6032 12.3868 10.6322 12.3837 10.6654 12.3837C10.9575 12.3837 10.9575 12.6028 11.2496 12.6028C11.5416 12.6028 11.5416 12.3837 11.8336 12.3837C12.1256 12.3837 12.1256 12.6028 12.4177 12.6028C12.7098 12.6028 12.7098 12.3837 13.002 12.3837C13.0357 12.3837 13.0653 12.3868 13.0922 12.392C13.1735 12.2828 13.2416 12.1707 13.2986 12.058C13.2241 12.0021 13.151 11.9453 13.002 11.9453Z" fill="#4173CD"/>
<path d="M13.0926 12.3912C13.0657 12.386 13.0361 12.3828 13.0023 12.3828C12.7102 12.3828 12.7102 12.6019 12.4181 12.6019C12.1261 12.6019 12.1261 12.3828 11.834 12.3828C11.542 12.3828 11.542 12.6019 11.25 12.6019C10.9579 12.6019 10.9579 12.3828 10.6657 12.3828C10.6326 12.3828 10.6036 12.3859 10.5771 12.3909C10.7547 12.6293 10.9956 12.8528 11.3216 13.0347C11.5436 13.0019 11.5683 12.8211 11.8339 12.8211C12.1002 12.8211 12.1244 13.0027 12.3477 13.0349C12.6739 12.8531 12.9149 12.6296 13.0926 12.3912Z" fill="white"/>
<path d="M11.8896 10.6289H11.7803V12.4917H11.8896V10.6289Z" fill="#FF965A"/>
<path d="M12.1634 10.9023H11.5059V11.0119H12.1634V10.9023Z" fill="#FF965A"/>
<path d="M12.1634 11.5605H11.5059V11.6701H12.1634V11.5605Z" fill="#FF965A"/>
<path d="M12.1634 11.0137H11.5059V11.4471H12.1634V11.0137Z" fill="#F8CB32"/>
<path d="M11.7799 10.6289V10.8481L11.4512 10.7385L11.7799 10.6289Z" fill="#FF334B"/>
<path d="M12.6201 10.6289H12.5107V11.9164H12.6201V10.6289Z" fill="#FF965A"/>
<path d="M12.8938 10.9023H12.2363V11.0119H12.8938V10.9023Z" fill="#FF965A"/>
<path d="M12.8938 11.5605H12.2363V11.6701H12.8938V11.5605Z" fill="#FF965A"/>
<path d="M12.8938 11.0137H12.2363V11.4471H12.8938V11.0137Z" fill="#F8CB32"/>
<path d="M12.5104 10.6289V10.8481L12.1816 10.7385L12.5104 10.6289Z" fill="#FF334B"/>
<path d="M11.1533 10.6289H11.0439V11.9072H11.1533V10.6289Z" fill="#FF965A"/>
<path d="M11.428 10.9023H10.7705V11.0119H11.428V10.9023Z" fill="#FF965A"/>
<path d="M11.428 11.5605H10.7705V11.6701H11.428V11.5605Z" fill="#FF965A"/>
<path d="M11.429 11.0137H10.7715V11.4471H11.429V11.0137Z" fill="#F8CB32"/>
<path d="M11.0445 10.6289V10.8481L10.7158 10.7385L11.0445 10.6289Z" fill="#FF334B"/>
<path d="M12.383 11.8356C12.383 12.1376 12.1372 12.3834 11.8351 12.3834C11.533 12.3834 11.2873 12.1377 11.2873 11.8356H11.1777H11.069L10.3269 11.668L10.3027 11.7749L10.6298 11.8487V11.9451L10.871 12.0416C10.966 12.4867 11.362 12.8217 11.8351 12.8217C12.3034 12.8217 12.6958 12.4931 12.7959 12.0547H13.1499V11.7259L12.383 11.8356Z" fill="#FF965A"/>
<path d="M13.5876 8.10956C13.5876 8.10956 13.5876 10.1915 13.5876 10.7393C13.5876 11.2872 13.478 12.7116 11.8345 13.2595C10.1909 12.7116 10.0813 11.2872 10.0813 10.7393C10.0813 10.1915 10.0813 8.10956 10.0813 8.10956H11.8345H13.5876ZM13.6972 8H13.5876H11.8344H10.0813H9.97168V8.10959V10.7393C9.97168 12.0386 10.6209 12.9705 11.7998 13.3635L11.8344 13.375L11.8691 13.3635C13.048 12.9705 13.6972 12.0386 13.6972 10.7393V8.10959V8Z" fill="white"/>
<path d="M11.8346 13.8078C11.0282 13.8078 10.2802 13.5377 9.83398 13.0851L10.146 12.7773C10.5117 13.1481 11.143 13.3695 11.8347 13.3695C12.5264 13.3695 13.1576 13.1481 13.5233 12.7773L13.8354 13.0851C13.389 13.5376 12.6411 13.8078 11.8346 13.8078Z" fill="#FF965A"/>
<g clip-path="url(#clip1_5367_191961)">
<rect width="9.61523" height="6.28688" transform="translate(0.869141 0.839844)" fill="#41479B"/>
<path d="M10.332 0.714844H9.733L6.53885 2.8033V0.714844H4.8147V2.8033L1.62055 0.714844H1.0216C0.831172 0.714844 0.676758 0.868945 0.676758 1.05899V1.33195L3.4172 3.12375H0.676758V4.8444H3.4172L0.676758 6.63624V6.90916C0.676758 7.0992 0.831172 7.25331 1.0216 7.25331H1.62055L4.8147 5.16484V7.25331H6.53885V5.16484L9.73296 7.25331H10.3319C10.5223 7.25331 10.6768 7.0992 10.6768 6.90916V6.6362L7.93636 4.8444H10.6768V3.12375H7.93632L10.6768 1.33195V1.05899C10.6768 0.868945 10.5224 0.714844 10.332 0.714844Z" fill="white"/>
<path d="M10.6768 3.46789H6.19401V0.714844H5.15951V3.46789H0.676758V4.50025H5.15951V7.25331H6.19401V4.50025H10.6768V3.46789Z" fill="#FF334B"/>
<path d="M4.81738 3.11059L0.856151 0.714844C0.750741 0.777021 0.676758 0.881431 0.676758 1.0063V1.0245L4.12599 3.11059H4.81738Z" fill="#FF334B"/>
<path d="M7.17608 3.11059L10.6428 0.886481C10.5826 0.785716 10.4763 0.714844 10.3492 0.714844H10.2743L6.54004 3.11059H7.17608Z" fill="#FF334B"/>
<path d="M4.18202 4.84961L0.725586 7.07591C0.785188 7.17942 0.893029 7.25233 1.0218 7.25233H1.08704L4.81738 4.84961H4.18202Z" fill="#FF334B"/>
<path d="M10.6772 6.93504L7.4617 4.84961H6.83105L10.4825 7.21777C10.5919 7.16706 10.6669 7.06076 10.6772 6.93504Z" fill="#FF334B"/>
</g>
</g>
<defs>
<clipPath id="clip0_5367_191961">
<rect x="1" y="1" width="14" height="14" rx="2" fill="white"/>
</clipPath>
<clipPath id="clip1_5367_191961">
<rect width="9.61523" height="6.28688" fill="white" transform="translate(0.869141 0.839844)"/>
</clipPath>
</defs>
</svg>
