<svg width="16" height="16" viewBox="0 0 16 16" fill="none" xmlns="http://www.w3.org/2000/svg">
<rect x="1" y="1" width="14" height="14" rx="2" fill="#FF334B"/>
<path d="M14.3449 4.42578V11.5982H1.65527V4.42578H14.3449Z" fill="#F8CB32"/>
<path d="M1.65527 4.42578L8.00007 8.01196L1.65527 11.5981V4.42578Z" fill="#73AF00"/>
<path d="M14.3448 4.42578L8 8.01196L14.3448 11.5981V4.42578Z" fill="#73AF00"/>
<path d="M7.99992 9.11703C8.60933 9.11703 9.10336 8.623 9.10336 8.01359C9.10336 7.40418 8.60933 6.91016 7.99992 6.91016C7.39051 6.91016 6.89648 7.40418 6.89648 8.01359C6.89648 8.623 7.39051 9.11703 7.99992 9.11703Z" fill="#FF334B"/>
<path d="M8.07012 7.20455L8.24272 7.72198L8.78815 7.72623C8.85878 7.7268 8.88806 7.81689 8.83125 7.85886L8.39247 8.18289L8.55703 8.70295C8.57834 8.77029 8.50168 8.82598 8.44418 8.78492L8.0004 8.4677L7.55666 8.78492C7.49922 8.82598 7.42256 8.77029 7.44384 8.70295L7.6084 8.18289L7.16962 7.85886C7.11281 7.81689 7.14209 7.7268 7.21272 7.72623L7.75815 7.72198L7.93075 7.20455C7.953 7.13755 8.04778 7.13755 8.07012 7.20455Z" fill="#F8CB32"/>
<path d="M8.04105 3.13711L8.14302 3.44282L8.4653 3.44529C8.50702 3.4456 8.52433 3.49889 8.49074 3.52364L8.23146 3.71507L8.32867 4.02235C8.34127 4.06214 8.29596 4.09504 8.26202 4.07076L7.99986 3.88345L7.73764 4.07085C7.70371 4.09514 7.65839 4.0622 7.67099 4.02245L7.76821 3.71517L7.50892 3.52373C7.47536 3.49895 7.49264 3.4457 7.53436 3.44539L7.85664 3.44292L7.95861 3.1372C7.97183 3.09751 8.02783 3.09751 8.04105 3.13711Z" fill="#F8CB32"/>
<path d="M11.67 3.13712L11.772 3.44284L12.0943 3.4453C12.136 3.44562 12.1533 3.4989 12.1197 3.52365L11.8604 3.71508L11.9576 4.02237C11.9702 4.06215 11.9249 4.09505 11.891 4.07077L11.6288 3.88337L11.3665 4.07077C11.3326 4.09505 11.2873 4.06212 11.2999 4.02237L11.3971 3.71508L11.1378 3.52365C11.1043 3.49887 11.1215 3.44562 11.1633 3.4453L11.4856 3.44284L11.5875 3.13712C11.6008 3.09752 11.6568 3.09752 11.67 3.13712Z" fill="#F8CB32"/>
<path d="M4.4122 3.13712L4.51417 3.44284L4.83645 3.4453C4.87817 3.44562 4.89549 3.4989 4.86189 3.52365L4.60261 3.71508L4.69983 4.02237C4.71242 4.06215 4.66711 4.09505 4.63317 4.07077L4.37096 3.88337L4.10874 4.07077C4.0748 4.09505 4.02949 4.06212 4.04208 4.02237L4.1393 3.71508L3.88002 3.52365C3.84646 3.49887 3.86374 3.44562 3.90546 3.4453L4.22774 3.44284L4.3297 3.13712C4.34302 3.09752 4.39902 3.09752 4.4122 3.13712Z" fill="#F8CB32"/>
<path d="M8.04105 11.9496L8.14302 12.2553L8.4653 12.2578C8.50702 12.2581 8.52433 12.3114 8.49074 12.3361L8.23146 12.5276L8.32867 12.8348C8.34127 12.8746 8.29596 12.9075 8.26202 12.8832L7.99986 12.6959L7.73764 12.8833C7.70371 12.9076 7.65839 12.8747 7.67099 12.8349L7.76821 12.5276L7.50892 12.3362C7.47536 12.3114 7.49264 12.2582 7.53436 12.2579L7.85664 12.2554L7.95861 11.9497C7.97183 11.91 8.02783 11.91 8.04105 11.9496Z" fill="#F8CB32"/>
<path d="M11.67 11.9496L11.772 12.2553L12.0943 12.2578C12.136 12.2581 12.1533 12.3114 12.1197 12.3361L11.8604 12.5276L11.9576 12.8348C11.9702 12.8746 11.9249 12.9075 11.891 12.8832L11.6288 12.6958L11.3665 12.8832C11.3326 12.9075 11.2873 12.8746 11.2999 12.8348L11.3971 12.5276L11.1378 12.3361C11.1043 12.3113 11.1215 12.2581 11.1633 12.2578L11.4856 12.2553L11.5875 11.9496C11.6008 11.91 11.6568 11.91 11.67 11.9496Z" fill="#F8CB32"/>
<path d="M4.4122 11.9496L4.51417 12.2553L4.83645 12.2578C4.87817 12.2581 4.89549 12.3114 4.86189 12.3361L4.60261 12.5276L4.69983 12.8348C4.71242 12.8746 4.66711 12.9075 4.63317 12.8832L4.37096 12.6958L4.10874 12.8832C4.0748 12.9075 4.02949 12.8746 4.04208 12.8348L4.1393 12.5276L3.88002 12.3361C3.84646 12.3113 3.86374 12.2581 3.90546 12.2578L4.22774 12.2553L4.3297 11.9496C4.34302 11.91 4.39902 11.91 4.4122 11.9496Z" fill="#F8CB32"/>
<path d="M3.68965 7.32227H3V8.01192C3 8.39283 3.30875 8.70158 3.68965 8.70158C4.07056 8.70158 4.37931 8.39283 4.37931 8.01192C4.37931 7.63102 4.07053 7.32227 3.68965 7.32227Z" fill="#F8CB32"/>
</svg>
