<svg width="16" height="16" viewBox="0 0 16 16" fill="none" xmlns="http://www.w3.org/2000/svg">
<g clip-path="url(#clip0_5367_191871)">
<rect x="1" y="15" width="14" height="14" rx="2" transform="rotate(-90 1 15)" fill="#464655"/>
<path d="M1 14.7586L0.999999 1.24139C0.999999 1.10809 1.16498 1 1.36844 1L5.66667 1L5.66667 15L1.36844 15C1.16498 15 1 14.8919 1 14.7586Z" fill="#FF334B"/>
<path d="M5.6665 1L5.6665 15L10.3332 15L10.3332 1L5.6665 1Z" fill="#F8CB32"/>
<path d="M10.3335 15L10.3335 1L14.6317 1C14.8352 1 15.0002 1.10809 15.0002 1.24139L15.0002 14.7586C15.0002 14.8919 14.8352 15 14.6317 15L10.3335 15Z" fill="#73AF00"/>
</g>
<defs>
<clipPath id="clip0_5367_191871">
<rect x="1" y="15" width="14" height="14" rx="2" transform="rotate(-90 1 15)" fill="white"/>
</clipPath>
</defs>
</svg>
