<svg width="16" height="16" viewBox="0 0 16 16" fill="none" xmlns="http://www.w3.org/2000/svg">
<g clip-path="url(#clip0_5367_191227)">
<rect x="1" y="14.8398" width="14" height="14" rx="2" transform="rotate(-90 1 14.8398)" fill="#464655"/>
<path d="M1 14.5985L0.999999 1.08123C0.999999 0.947933 1.16498 0.839844 1.36844 0.839844L5.66667 0.839844L5.66667 14.8398L1.36844 14.8398C1.16498 14.8398 1 14.7318 1 14.5985Z" fill="#73AF00"/>
<path d="M5.66699 0.839844L5.66699 14.8398L10.3337 14.8398L10.3337 0.839844L5.66699 0.839844Z" fill="white"/>
<path d="M10.333 14.8398L10.333 0.839844L14.6312 0.839844C14.8347 0.839844 14.9997 0.947933 14.9997 1.08123L14.9997 14.5985C14.9997 14.7318 14.8347 14.8398 14.6312 14.8398L10.333 14.8398Z" fill="#FF9B46"/>
</g>
<defs>
<clipPath id="clip0_5367_191227">
<rect x="1" y="14.8398" width="14" height="14" rx="2" transform="rotate(-90 1 14.8398)" fill="white"/>
</clipPath>
</defs>
</svg>
