<svg width="16" height="16" viewBox="0 0 16 16" fill="none" xmlns="http://www.w3.org/2000/svg">
<rect x="1" y="1" width="14" height="14" rx="2" fill="white"/>
<path d="M9.77545 5.33748C8.30532 4.35742 6.31966 4.75809 5.34022 6.22565C4.84894 6.95817 5.04864 7.95351 5.78366 8.44356C6.51813 8.9336 7.51029 8.73459 8.00033 7.99951C8.49038 7.26446 9.48319 7.06791 10.2176 7.55538C10.9533 8.04543 11.1511 9.04078 10.6604 9.77329C11.6405 8.30326 11.2443 6.31757 9.77545 5.33748Z" fill="#FF334B"/>
<path d="M5.34034 6.22461C4.84907 6.95712 5.04877 7.95247 5.78378 8.44251C6.51825 8.93256 7.51041 8.73355 8.00045 7.99846C8.4905 7.26341 9.48331 7.06687 10.2177 7.55434C10.9534 8.04438 11.1513 9.03973 10.6605 9.77224C9.68174 11.2449 7.69674 11.6405 6.2266 10.6605C4.75781 9.68044 4.36029 7.69474 5.34034 6.22461Z" fill="#41479B"/>
<path d="M11.4037 4.12997L11.9848 5.00351C12.0336 5.0769 12.0139 5.17599 11.9406 5.22503L11.7933 5.32372C11.7197 5.37293 11.6202 5.35315 11.5711 5.2795L10.9893 4.40618C10.9403 4.33272 10.9602 4.23345 11.0336 4.18441L11.1817 4.08554C11.2552 4.03643 11.3547 4.05633 11.4037 4.12997Z" fill="#464655"/>
<path d="M12.3006 5.47739L12.8836 6.35038C12.9328 6.4241 12.9127 6.52384 12.8388 6.5727L12.6908 6.67052C12.6173 6.71908 12.5185 6.69911 12.4696 6.62594L11.8868 5.75385C11.8378 5.68042 11.8575 5.58108 11.931 5.53197L12.0786 5.43325C12.1521 5.38414 12.2515 5.40389 12.3006 5.47739Z" fill="#464655"/>
<path d="M12.0263 3.71385L13.5061 5.93458C13.5551 6.00808 13.5352 6.10739 13.4617 6.15639L13.313 6.25548C13.2395 6.30452 13.1401 6.28462 13.0911 6.21112L11.6109 3.99053C11.5618 3.91699 11.5818 3.81761 11.6553 3.76865L11.8045 3.66938C11.878 3.62048 11.9773 3.64035 12.0263 3.71385Z" fill="#464655"/>
<path d="M12.6467 3.29991L13.2292 4.17515C13.2782 4.24887 13.2581 4.34839 13.1842 4.39721L13.0361 4.49507C12.9626 4.54363 12.8637 4.52366 12.8148 4.45034L12.232 3.57627C12.1829 3.50276 12.2028 3.40342 12.2763 3.35442L12.4249 3.2554C12.4984 3.20637 12.5977 3.22627 12.6467 3.29991Z" fill="#464655"/>
<path d="M13.5438 4.64947L14.1254 5.52289C14.1743 5.59632 14.1545 5.69548 14.0811 5.74452L13.9334 5.84325C13.8599 5.89243 13.7604 5.87257 13.7114 5.79892L13.1299 4.9255C13.081 4.85207 13.1008 4.75291 13.1741 4.70387L13.3218 4.60514C13.3953 4.55596 13.4948 4.57579 13.5438 4.64947Z" fill="#464655"/>
<path d="M3.5316 9.37787L5.0112 11.5962C5.0602 11.6697 5.04041 11.769 4.96691 11.818L4.81875 11.917C4.74525 11.966 4.6459 11.9462 4.59683 11.8727L3.11724 9.65433C3.06823 9.58086 3.08802 9.48156 3.16152 9.43252L3.30969 9.33358C3.38319 9.2845 3.48257 9.30436 3.5316 9.37787Z" fill="#464655"/>
<path d="M2.91087 9.79195L3.49178 10.6633C3.54074 10.7367 3.52099 10.8358 3.44767 10.8849L3.30031 10.9836C3.22684 11.0328 3.12739 11.013 3.07828 10.9395L2.49668 10.0684C2.44761 9.99491 2.4674 9.89557 2.5409 9.84649L2.68899 9.74762C2.76246 9.69858 2.86183 9.71841 2.91087 9.79195Z" fill="#464655"/>
<path d="M3.80852 11.1397L4.39008 12.0132C4.43901 12.0867 4.41919 12.1859 4.34579 12.2349L4.19799 12.3337C4.12446 12.3828 4.02504 12.363 3.97597 12.2894L3.39405 11.416C3.34508 11.3426 3.36494 11.2433 3.43834 11.1943L3.5865 11.0953C3.66007 11.0462 3.75949 11.0661 3.80852 11.1397Z" fill="#464655"/>
<path d="M2.28936 10.208L3.76801 12.4264C3.81697 12.4998 3.79715 12.5991 3.72383 12.6481L3.57607 12.7469C3.50256 12.7961 3.40315 12.7763 3.35408 12.7027L1.87455 10.4846C1.82552 10.4111 1.84541 10.3117 1.91891 10.2627L2.06758 10.1636C2.14101 10.1146 2.24036 10.1345 2.28936 10.208Z" fill="#464655"/>
<path d="M3.11767 6.35004L4.59705 4.12989C4.64608 4.05631 4.74546 4.03645 4.819 4.08553L4.96713 4.18443C5.04059 4.23347 5.06038 4.33278 5.01142 4.40624L3.53146 6.62516C3.48253 6.69848 3.38355 6.71842 3.31008 6.66978L3.16254 6.5721C3.08867 6.52325 3.0686 6.42369 3.11767 6.35004Z" fill="#464655"/>
<path d="M2.49611 5.93444L3.97574 3.71385C4.02477 3.64028 4.12423 3.62042 4.19776 3.66956L4.34553 3.76836C4.41888 3.8174 4.43867 3.91656 4.38974 3.99003L2.91051 6.21072C2.86147 6.2843 2.7621 6.30419 2.68856 6.25508L2.5404 6.15618C2.46697 6.10718 2.44714 6.00791 2.49611 5.93444Z" fill="#464655"/>
<path d="M1.87446 5.52265L3.35423 3.29985C3.40327 3.22624 3.50276 3.20634 3.5763 3.25549L3.72406 3.35429C3.79742 3.40332 3.8172 3.50241 3.76835 3.57588L2.28948 5.799C2.24051 5.87261 2.1411 5.89255 2.06756 5.84351L1.91889 5.74442C1.84543 5.69542 1.82556 5.59615 1.87446 5.52265Z" fill="#464655"/>
<path d="M10.9899 11.5966L11.5714 10.7255C11.6206 10.6519 11.72 10.6322 11.7935 10.6813L11.9408 10.78C12.0142 10.8291 12.0339 10.9283 11.9849 11.0017L11.404 11.873C11.355 11.9465 11.2556 11.9664 11.1821 11.9173L11.034 11.8184C10.9606 11.7694 10.9408 11.6701 10.9899 11.5966Z" fill="#464655"/>
<path d="M11.8867 10.2534L12.4692 9.37799C12.5182 9.30442 12.6176 9.28448 12.6911 9.33352L12.8396 9.43247C12.9131 9.4815 12.933 9.58092 12.8839 9.65442L12.3001 10.5285C12.2512 10.6018 12.1522 10.6216 12.0787 10.5729L11.9315 10.4754C11.8577 10.4265 11.8377 10.327 11.8867 10.2534Z" fill="#464655"/>
<path d="M11.6108 12.013L12.1928 11.1397C12.2418 11.0661 12.3411 11.0462 12.4147 11.0953L12.5634 11.1945C12.6369 11.2435 12.6567 11.3427 12.6078 11.4162L12.0262 12.2897C11.9773 12.3632 11.878 12.3832 11.8044 12.3342L11.6553 12.2349C11.5818 12.186 11.5618 12.0866 11.6108 12.013Z" fill="#464655"/>
<path d="M12.5089 10.6632L13.0912 9.7918C13.1403 9.71841 13.2395 9.69862 13.313 9.74758L13.4617 9.84667C13.5352 9.89571 13.5551 9.99513 13.5059 10.0686L12.9237 10.94C12.8746 11.0134 12.7754 11.0332 12.7019 10.9842L12.5532 10.8851C12.4796 10.8362 12.4598 10.7367 12.5089 10.6632Z" fill="#464655"/>
<path d="M12.2321 12.4254L12.8147 11.5535C12.8636 11.4803 12.9625 11.4604 13.0359 11.5089L13.184 11.6068C13.2579 11.6557 13.278 11.7553 13.2289 11.829L12.6467 12.702C12.5977 12.7755 12.4984 12.7954 12.4249 12.7464L12.2763 12.6474C12.2028 12.5983 12.1829 12.4989 12.2321 12.4254Z" fill="#464655"/>
<path d="M13.1304 11.081L13.7115 10.208C13.7606 10.1344 13.86 10.1145 13.9336 10.1637L14.0812 10.2624C14.1546 10.3114 14.1743 10.4107 14.1253 10.4841L13.5436 11.3559C13.4947 11.4293 13.3957 11.4492 13.3222 11.4004L13.175 11.303C13.1014 11.2541 13.0813 11.1546 13.1304 11.081Z" fill="#464655"/>
</svg>
