<svg width="16" height="16" viewBox="0 0 16 16" fill="none" xmlns="http://www.w3.org/2000/svg">
<g clip-path="url(#clip0_5367_190606)">
<rect x="15" y="1" width="14" height="14" rx="2" transform="rotate(90 15 1)" fill="#FFD250"/>
<path d="M3.50762 1.89844H2.21414C2.10425 1.89844 2.01514 2.06636 2.01514 2.27345V13.5234C2.01514 13.7305 2.10425 13.8984 2.21414 13.8984H3.50762V1.89844Z" fill="#5AA587"/>
<path d="M4.80078 1.89844H3.50732V13.8984H4.80078C4.91068 13.8984 4.99979 13.7305 4.99979 13.5234V2.27341C4.99979 2.06632 4.91068 1.89844 4.80078 1.89844Z" fill="#FF7350"/>
<path d="M6.05811 2.27345V13.5234C6.05811 13.7305 6.16353 13.8984 6.29354 13.8984H13.827C13.957 13.8984 14.0624 13.7305 14.0624 13.5234V2.27345C14.0624 2.06636 13.957 1.89844 13.827 1.89844H6.29354C6.16353 1.89848 6.05811 2.06636 6.05811 2.27345Z" fill="#963C3C"/>
<path d="M12.7046 3.53934C12.721 3.19869 12.8019 2.64775 13.0604 2.63512C13.2061 2.62841 13.2778 2.71809 13.2808 2.72194C13.2893 2.733 13.3033 2.73922 13.3169 2.73853L13.4157 2.73259L13.398 2.79806C13.3937 2.81384 13.3991 2.83081 13.4116 2.84141C13.4176 2.84647 13.5573 2.96778 13.4723 3.12228C13.4075 3.24 13.1982 3.29572 13.0455 3.33634C12.9772 3.35453 12.9183 3.37022 12.88 3.38894C12.8118 3.42228 12.7521 3.47853 12.7046 3.53934Z" fill="#FFD250"/>
<path d="M12.6163 3.69138C12.6165 3.71104 12.6302 3.728 12.6494 3.73225C12.6524 3.73291 12.6555 3.73325 12.6585 3.73325C12.6745 3.73325 12.6896 3.72413 12.6967 3.70916C12.7381 3.62216 12.8176 3.51197 12.9167 3.46354C12.9476 3.44844 13.0028 3.43376 13.0668 3.41676C13.2343 3.37216 13.4638 3.3111 13.546 3.16166C13.6321 3.0051 13.5531 2.86273 13.4859 2.79419L13.5122 2.69657C13.5158 2.68338 13.5127 2.66935 13.5041 2.65885C13.4955 2.64832 13.4818 2.64226 13.4688 2.64332L13.3318 2.65154C13.297 2.61619 13.2045 2.5421 13.0558 2.54932C12.6104 2.57098 12.6158 3.64563 12.6163 3.69138ZM12.8796 3.38747C12.8114 3.42085 12.7517 3.47713 12.7042 3.53788C12.7206 3.19722 12.8014 2.64629 13.0599 2.63366C13.2056 2.62694 13.2774 2.71663 13.2804 2.72048C13.2889 2.73154 13.3029 2.73776 13.3165 2.73707L13.4153 2.73113L13.3976 2.7966C13.3933 2.81238 13.3987 2.82935 13.4112 2.83994C13.4172 2.84501 13.5568 2.96632 13.4718 3.12082C13.4071 3.23854 13.1978 3.29426 13.045 3.33488C12.9769 3.35307 12.9179 3.36876 12.8796 3.38747Z" fill="#464655"/>
<path d="M12.7046 12.3203C12.721 12.661 12.8019 13.2119 13.0604 13.2245C13.2061 13.2312 13.2778 13.1416 13.2808 13.1377C13.2893 13.1266 13.3033 13.1204 13.3169 13.1211L13.4157 13.127L13.398 13.0616C13.3937 13.0458 13.3991 13.0288 13.4116 13.0182C13.4176 13.0132 13.5573 12.8918 13.4723 12.7373C13.4075 12.6196 13.1982 12.5639 13.0455 12.5233C12.9772 12.5051 12.9183 12.4894 12.88 12.4707C12.8118 12.4374 12.7521 12.3811 12.7046 12.3203Z" fill="#FFD250"/>
<path d="M13.0558 13.3089C13.2045 13.3162 13.297 13.2421 13.3318 13.2067L13.4688 13.2149C13.4818 13.216 13.4955 13.2099 13.5041 13.1994C13.5127 13.1889 13.5158 13.1748 13.5122 13.1617L13.4859 13.0641C13.5531 12.9955 13.6321 12.8531 13.546 12.6966C13.4639 12.5472 13.2343 12.4861 13.0668 12.4415C13.0028 12.4245 12.9476 12.4098 12.9167 12.3947C12.8176 12.3463 12.7381 12.2361 12.6967 12.1491C12.6896 12.1341 12.6745 12.125 12.6585 12.125C12.6555 12.125 12.6524 12.1253 12.6494 12.126C12.6302 12.1303 12.6165 12.1472 12.6163 12.1669C12.6158 12.2126 12.6104 13.2872 13.0558 13.3089ZM13.045 12.5233C13.1978 12.5639 13.4071 12.6196 13.4719 12.7373C13.5569 12.8918 13.4172 13.0131 13.4112 13.0182C13.3987 13.0288 13.3934 13.0457 13.3976 13.0616L13.4153 13.127L13.3165 13.1211C13.3029 13.1204 13.2889 13.1266 13.2804 13.1377C13.2774 13.1416 13.2056 13.2312 13.0599 13.2245C12.8014 13.2119 12.7206 12.6609 12.7042 12.3203C12.7517 12.3811 12.8114 12.4373 12.8796 12.4707C12.9178 12.4894 12.9768 12.5051 13.045 12.5233Z" fill="#464655"/>
<path d="M7.41174 3.53739C7.39533 3.19673 7.31446 2.6458 7.05596 2.63317C6.91027 2.62645 6.83849 2.71614 6.83552 2.71998C6.82699 2.73105 6.81299 2.73727 6.79943 2.73658L6.70065 2.73064L6.71833 2.79611C6.72258 2.81189 6.71724 2.82886 6.70474 2.83945C6.69874 2.84452 6.55905 2.96583 6.64405 3.12033C6.7088 3.23805 6.91808 3.29376 7.07087 3.33439C7.13908 3.35258 7.19805 3.36826 7.2363 3.38698C7.30449 3.42033 7.36421 3.47658 7.41174 3.53739Z" fill="#FFD250"/>
<path d="M7.06015 2.54933C6.91149 2.54205 6.81896 2.61614 6.78418 2.65155L6.64715 2.64333C6.63415 2.6423 6.62046 2.64833 6.61184 2.65886C6.60324 2.66939 6.60021 2.68342 6.60374 2.69658L6.63005 2.7942C6.56287 2.86277 6.48387 3.00514 6.56999 3.16167C6.65212 3.31111 6.88165 3.37214 7.04918 3.41676C7.11315 3.43376 7.1684 3.44848 7.19927 3.46355C7.29833 3.51198 7.3779 3.62217 7.4193 3.70917C7.4264 3.72414 7.44143 3.73326 7.45749 3.73326C7.46052 3.73326 7.46355 3.73292 7.46662 3.73226C7.48583 3.72801 7.49955 3.71104 7.49974 3.69139C7.50018 3.6457 7.50558 2.57105 7.06015 2.54933ZM7.07093 3.33498C6.91815 3.29436 6.70887 3.23864 6.64412 3.12092C6.55912 2.96645 6.6988 2.84514 6.7048 2.84005C6.71727 2.82945 6.72262 2.81252 6.7184 2.7967L6.70071 2.73123L6.79949 2.73717C6.81309 2.73789 6.82709 2.73164 6.83559 2.72058C6.83855 2.7167 6.91034 2.62702 7.05602 2.63377C7.31455 2.64639 7.3954 3.19733 7.4118 3.53798C7.36427 3.4772 7.30455 3.42092 7.23633 3.38758C7.19815 3.36883 7.13915 3.35314 7.07093 3.33498Z" fill="#464655"/>
<path d="M7.41174 12.3203C7.39533 12.661 7.31446 13.2119 7.05596 13.2245C6.91027 13.2312 6.83849 13.1416 6.83552 13.1377C6.82699 13.1266 6.81299 13.1204 6.79943 13.1211L6.70065 13.127L6.71833 13.0616C6.72258 13.0458 6.71724 13.0288 6.70474 13.0182C6.69874 13.0132 6.55905 12.8918 6.64405 12.7373C6.7088 12.6196 6.91808 12.5639 7.07087 12.5233C7.13908 12.5051 7.19805 12.4894 7.2363 12.4707C7.30449 12.4374 7.36421 12.3811 7.41174 12.3203Z" fill="#FFD250"/>
<path d="M7.49972 12.1669C7.4995 12.1472 7.48578 12.1302 7.4666 12.126C7.46353 12.1253 7.4605 12.125 7.45747 12.125C7.44144 12.125 7.42641 12.1341 7.41928 12.1491C7.37788 12.2361 7.29831 12.3463 7.19925 12.3947C7.16835 12.4098 7.11316 12.4245 7.04916 12.4415C6.8816 12.4861 6.65213 12.5472 6.56997 12.6966C6.48388 12.8532 6.56288 12.9955 6.63003 13.0641L6.60372 13.1617C6.60019 13.1749 6.60325 13.1889 6.61182 13.1994C6.62041 13.2099 6.63413 13.216 6.64713 13.2149L6.78416 13.2067C6.81894 13.2421 6.91147 13.3162 7.06013 13.3089C7.50556 13.2873 7.50016 12.2126 7.49972 12.1669ZM7.23635 12.4708C7.30456 12.4374 7.36431 12.3812 7.41181 12.3204C7.39541 12.6611 7.31453 13.212 7.05603 13.2246C6.91035 13.2313 6.83857 13.1417 6.8356 13.1378C6.82707 13.1268 6.81307 13.1205 6.7995 13.1212L6.70072 13.1272L6.71841 13.0617C6.72266 13.0459 6.71732 13.0289 6.70482 13.0183C6.69882 13.0133 6.55913 12.892 6.64413 12.7375C6.70888 12.6198 6.91816 12.564 7.07094 12.5234C7.13913 12.5052 7.19813 12.4895 7.23635 12.4708Z" fill="#464655"/>
<path d="M11.8761 10.1089C11.8669 10.0472 11.9212 9.9676 12.005 9.8532C12.0354 9.81185 12.0792 9.75195 12.091 9.72326C12.0832 9.7227 12.0725 9.72332 12.0645 9.72373C12.0181 9.72598 11.9478 9.72917 11.8865 9.66107C11.8625 9.63439 11.8509 9.60101 11.8532 9.56454C11.8578 9.49045 11.9183 9.41761 11.9558 9.37907C11.859 9.31111 11.7666 9.24051 11.6813 9.15526C11.5183 8.99229 11.3325 8.91382 11.1273 8.91814C11.1083 9.12223 11.2135 9.25645 11.3258 9.39773C11.3588 9.43932 11.3918 9.48086 11.4218 9.52426C11.5694 9.73804 11.5386 10.1508 11.5198 10.1945C11.4986 10.2441 11.3819 10.3539 11.2217 10.3325C11.1481 10.3229 11.0633 10.3476 11.0098 10.3943C10.9869 10.4144 10.9595 10.4479 10.9595 10.4927C10.9595 10.4949 10.9597 10.5063 10.9632 10.5084C10.9847 10.5214 11.0651 10.496 11.1226 10.4649C11.1385 10.4562 11.1582 10.4588 11.1716 10.4712C11.2848 10.5772 11.3985 10.4856 11.411 10.4749C11.4265 10.4616 11.4494 10.4611 11.4653 10.4739C11.5811 10.5672 11.7019 10.4652 11.707 10.4608C11.7212 10.4485 11.7421 10.447 11.7579 10.4574C11.8082 10.4903 11.8541 10.4997 11.8952 10.4857C11.931 10.4732 11.95 10.4463 11.9522 10.4398C11.9532 10.4227 11.9302 10.3343 11.915 10.2758C11.899 10.2144 11.8825 10.151 11.8761 10.1089Z" fill="#FFD250"/>
<path d="M13.1306 6.19986C13.0957 6.1972 13.0704 6.20477 13.0531 6.22189C13.0214 6.25323 13.024 6.3097 13.0241 6.31027C13.0247 6.32283 13.0198 6.33508 13.0106 6.34364C13.0013 6.35217 12.9889 6.35655 12.9764 6.3547C12.9136 6.34648 12.8208 6.28027 12.6486 6.15405C12.375 5.95352 11.9615 5.65045 11.567 5.60061C11.1085 5.54236 10.7004 5.68864 10.5967 5.94789C10.4813 6.23652 10.7266 6.49948 10.7291 6.50214C10.7416 6.51536 10.7443 6.53508 10.7358 6.55111C10.6711 6.67298 10.7201 6.76292 10.7642 6.8122C10.7781 6.77151 10.7988 6.74373 10.8273 6.72664C10.8961 6.68551 10.9859 6.71955 11.1102 6.76661C11.1837 6.79436 11.2669 6.82586 11.3639 6.84964C11.6128 6.91064 11.9164 6.85626 12.1842 6.8083C12.2789 6.79133 12.3701 6.77505 12.455 6.7642C12.6686 6.73698 12.8827 6.83164 12.9416 6.98001C12.9701 7.05189 12.9853 7.19611 12.7672 7.35479C12.3748 7.6402 10.5854 7.50848 10.48 7.50045C10.4777 7.50067 10.4754 7.50086 10.4704 7.5012C10.5096 7.54514 10.5555 7.58798 10.5755 7.59333C10.5959 7.59876 10.6091 7.61839 10.6065 7.63936C10.6039 7.66029 10.5863 7.67614 10.5652 7.67645L10.3819 7.67923L10.3988 7.85564C10.4 7.86864 10.3952 7.88151 10.3856 7.89042C10.3761 7.89939 10.3629 7.90314 10.3501 7.90142C10.3429 7.90023 10.1847 7.87495 10.0753 7.81414L9.86826 7.94473C9.86145 7.94904 9.85357 7.9512 9.84567 7.9512C9.84107 7.9512 9.83645 7.95048 9.83207 7.94895C9.81998 7.94482 9.81039 7.93551 9.80598 7.92351L9.72698 7.70873L9.63332 7.89611C9.62648 7.90983 9.61276 7.91873 9.59754 7.91945C9.58232 7.92104 9.56782 7.9127 9.55964 7.8997L9.47936 7.77173C9.44264 7.81761 9.38376 7.88439 9.32354 7.92607C9.31254 7.93379 9.29861 7.93567 9.28583 7.93136C9.27311 7.92701 9.2632 7.91689 9.25917 7.90411L9.21711 7.77132C9.17989 7.81839 9.12604 7.88076 9.06904 7.92754C9.05686 7.93767 9.03998 7.94001 9.02539 7.93364C9.01083 7.92729 9.00104 7.91336 9.00008 7.89758L8.98651 7.68411C8.93833 7.70867 8.87273 7.74067 8.83639 7.75201C8.81986 7.7572 8.80164 7.75167 8.7908 7.73808C8.77989 7.72448 8.77845 7.70567 8.78717 7.69054C8.85239 7.57729 8.91223 7.43589 8.91679 7.36558C8.87354 7.41736 8.81301 7.46692 8.74536 7.52195C8.60142 7.63914 8.42233 7.78486 8.29048 8.03995C8.19842 8.21823 8.1323 8.52923 8.24889 8.81917C8.34842 9.06651 8.56261 9.25107 8.88351 9.36963C8.87279 9.32282 8.86454 9.27682 8.8637 9.2336C8.85951 9.01398 8.90511 8.81351 8.90708 8.80507C8.91233 8.78229 8.93495 8.76789 8.95773 8.77342C8.98051 8.77867 8.99467 8.80135 8.98945 8.82407C8.98901 8.82604 8.94433 9.02317 8.94826 9.23198C8.95023 9.3342 8.9942 9.46032 9.03667 9.58226C9.09311 9.74438 9.15154 9.91201 9.12614 10.0531C9.09154 10.2448 8.85283 10.2934 8.6312 10.2564C8.5682 10.2459 8.51089 10.2614 8.46973 10.2998C8.42795 10.3388 8.40651 10.3985 8.41242 10.4597C8.4152 10.4884 8.42598 10.4943 8.42948 10.4962C8.45614 10.5106 8.51886 10.491 8.55276 10.4733C8.56983 10.4643 8.59092 10.468 8.60398 10.4826C8.69286 10.5822 8.81255 10.4828 8.81758 10.4785C8.83473 10.464 8.86036 10.4653 8.8758 10.4818C8.90926 10.5175 8.94473 10.5352 8.9842 10.5361C9.05636 10.5405 9.12489 10.4763 9.12558 10.4757C9.13804 10.4636 9.15679 10.4604 9.17261 10.4676C9.31208 10.5314 9.38526 10.4944 9.38826 10.4926C9.50929 10.3894 9.43936 10.1446 9.43864 10.1421C9.43532 10.1309 9.43679 10.1188 9.4427 10.1088C9.44861 10.0988 9.45839 10.0916 9.46973 10.0889C9.63926 10.0501 9.73401 9.94129 9.77982 9.86917C9.69607 9.86835 9.62951 9.83898 9.59029 9.77773C9.52717 9.67882 9.55748 9.52992 9.66761 9.39832C9.85601 9.1732 9.9712 8.71757 9.95392 8.53201C9.95179 8.50876 9.96889 8.4882 9.99214 8.48598C10.0148 8.48367 10.0359 8.50095 10.0382 8.5242C10.0533 8.68673 9.97998 9.02382 9.84623 9.27801C10.0157 9.23113 10.1703 9.16254 10.3317 9.08892C10.492 9.01573 10.6579 8.9401 10.8573 8.87764C11.1942 8.77217 11.4914 8.84526 11.7409 9.09485C11.8617 9.21573 11.9937 9.30423 12.1465 9.40682C12.2136 9.45185 12.2834 9.49873 12.3559 9.55092C12.5523 9.69229 12.5488 9.81035 12.5451 9.93532C12.544 9.97342 12.5428 10.0128 12.5471 10.0554C12.5673 10.2584 12.406 10.2905 12.3284 10.3059C12.3178 10.308 12.3078 10.31 12.2991 10.3121C12.2881 10.3149 12.275 10.3176 12.2605 10.3205C12.1818 10.3365 12.0627 10.3606 12.0335 10.4615C12.0282 10.4795 12.0302 10.4859 12.0302 10.4859C12.0427 10.4915 12.1072 10.4769 12.1585 10.4535C12.1694 10.4485 12.1818 10.4485 12.1928 10.4532C12.2037 10.4579 12.2122 10.467 12.2161 10.4783C12.2311 10.5222 12.2544 10.5296 12.2621 10.5321C12.3153 10.5488 12.4024 10.4998 12.4287 10.4811C12.445 10.4696 12.4671 10.4708 12.4818 10.4843C12.5255 10.5242 12.5658 10.5417 12.6021 10.5369C12.6507 10.5301 12.6802 10.4844 12.6805 10.4839C12.6875 10.4726 12.6994 10.4652 12.7126 10.464C12.726 10.4633 12.7389 10.468 12.7478 10.4778C12.7479 10.478 12.7849 10.517 12.8607 10.5409C12.9103 10.5565 12.9228 10.5386 12.9269 10.5326C12.9479 10.502 12.9404 10.4239 12.8995 10.3728C12.8458 10.3057 12.8209 10.2038 12.8361 10.113C12.8499 10.0295 12.895 9.96142 12.9662 9.91604C13.0968 9.83295 13.1266 9.74342 13.1183 9.72635C13.1158 9.72517 13.1017 9.72332 13.0903 9.72182C13.0321 9.7141 12.9346 9.70123 12.8343 9.51607C12.7457 9.35267 12.8314 9.09395 12.9306 8.79429C12.9809 8.64251 13.0329 8.48548 13.0649 8.33148C13.1537 7.90548 12.8748 7.56723 12.8719 7.56389C12.8575 7.5467 12.859 7.52123 12.8754 7.50586C13.0712 7.32217 13.1554 7.15189 13.1255 6.99976C13.0944 6.84114 12.9408 6.73023 12.8187 6.68348C12.6666 6.62517 12.389 6.6583 12.1205 6.69023C11.8961 6.71689 11.684 6.74217 11.5471 6.71358C11.4766 6.69876 11.4249 6.66533 11.3936 6.61423C11.3678 6.57211 11.3615 6.52595 11.3617 6.48995C11.2937 6.51552 11.2478 6.57852 11.2472 6.57927C11.2395 6.59014 11.2269 6.5967 11.2136 6.59695C11.1969 6.5963 11.1875 6.59114 11.1794 6.58061C11.1448 6.53589 11.1309 6.48658 11.1381 6.43392C11.1474 6.36586 11.1914 6.30733 11.2274 6.26958C11.07 6.2143 10.9493 6.34623 10.9438 6.35252C10.93 6.36777 10.9074 6.37098 10.89 6.36052C10.814 6.31383 10.767 6.2222 10.7699 6.12711C10.7728 6.03733 10.8191 5.96205 10.897 5.9207C10.9503 5.89239 11.0015 5.88717 11.0489 5.90508C11.0941 5.92208 11.1257 5.9572 11.1457 5.98702C11.2033 5.92133 11.2081 5.80795 11.2081 5.80664C11.2084 5.7953 11.2132 5.78458 11.2215 5.77686C11.2298 5.76914 11.2413 5.7643 11.2522 5.76552C11.3523 5.76964 11.4301 5.80583 11.4832 5.87299C11.5558 5.96489 11.5626 6.09252 11.5584 6.17155C11.7184 6.08989 11.6981 5.90142 11.697 5.89261C11.6954 5.87805 11.7012 5.8637 11.7126 5.85458C11.724 5.84552 11.7392 5.84267 11.7532 5.84777C11.9229 5.90767 11.9847 6.05905 11.9992 6.1717C12.0473 6.12583 12.048 6.06698 12.048 6.06623C12.048 6.04692 12.0611 6.03005 12.0798 6.02527C12.0987 6.02055 12.1181 6.02902 12.1274 6.04595C12.1929 6.16564 12.2928 6.24017 12.3658 6.28183L12.3155 6.15986C12.3087 6.14333 12.313 6.1243 12.3262 6.11233C12.3395 6.10033 12.359 6.09802 12.3746 6.10652C12.4584 6.15161 12.5247 6.20264 12.5949 6.25673C12.6796 6.32195 12.7672 6.38933 12.8906 6.4473C13.0111 6.50395 13.0923 6.49317 13.1391 6.47423C13.1875 6.45467 13.2152 6.42017 13.2242 6.39655C13.2412 6.35189 13.2462 6.28777 13.2188 6.24523C13.2013 6.21777 13.1716 6.20258 13.1306 6.19986Z" fill="#FFD250"/>
<path d="M8.13819 6.80857C8.13829 6.8086 8.13832 6.80866 8.13832 6.80866C8.13854 6.80872 8.13866 6.80869 8.13875 6.80872C8.14188 6.80976 8.45807 6.90954 8.74513 6.92663C8.76088 6.92757 8.77485 6.93726 8.78122 6.95169C8.7876 6.96616 8.78547 6.98304 8.77556 6.99535L8.76553 7.00782C8.82247 6.99929 8.8941 6.99138 8.96435 6.9911C8.93556 6.95685 8.89975 6.91329 8.863 6.86763C8.78622 6.86622 8.50531 6.85401 8.27669 6.74385C8.22116 6.71691 8.12516 6.67041 8.0795 6.69394C8.07163 6.69801 8.05863 6.71707 8.06078 6.74047C8.06363 6.77016 8.09104 6.79438 8.13819 6.80857Z" fill="#FFD250"/>
<path d="M9.09135 6.19727C9.08694 6.19727 9.08294 6.19773 9.07941 6.19883C9.06097 6.20436 9.05163 6.2252 9.04913 6.24145C9.04606 6.26227 9.05135 6.29023 9.0755 6.30639C9.10706 6.32736 9.14081 6.31301 9.16003 6.29405C9.1661 6.28814 9.1951 6.25711 9.17369 6.22317L9.17363 6.22308C9.1406 6.20786 9.11163 6.19727 9.09135 6.19727Z" fill="#FFD250"/>
<path d="M8.67605 7.21668C8.69652 7.2655 8.7283 7.30334 8.75458 7.32872C8.76455 7.30712 8.77976 7.28472 8.80283 7.2679C8.82539 7.25147 8.86451 7.23543 8.92183 7.24737C8.92273 7.24743 8.92351 7.24762 8.92442 7.24772C8.92608 7.24809 8.92736 7.24793 8.92905 7.24834C8.93051 7.24868 8.93145 7.24987 8.93292 7.25028C8.93495 7.251 8.93711 7.25106 8.93905 7.25215C8.94051 7.25293 8.94142 7.25428 8.94273 7.25522C8.9643 7.2644 8.9823 7.27915 8.99183 7.30147C9.02386 7.37622 8.96748 7.52134 8.91773 7.62459C8.95289 7.60718 8.98655 7.58956 9.00473 7.57984C9.01739 7.57303 9.0327 7.57312 9.04526 7.58018C9.05789 7.58718 9.06601 7.60012 9.06692 7.61443L9.07886 7.80306C9.14498 7.73337 9.19708 7.65765 9.19773 7.65665C9.20686 7.64328 9.22267 7.63656 9.2388 7.63868C9.25483 7.64106 9.26804 7.65234 9.27292 7.66775L9.32117 7.82009C9.3887 7.758 9.44755 7.67484 9.44823 7.67378C9.45645 7.66222 9.46983 7.65606 9.48392 7.65581C9.49804 7.65618 9.51114 7.66362 9.51867 7.67562L9.59139 7.79159L9.69517 7.58406C9.70273 7.56893 9.71695 7.5594 9.73539 7.56072C9.75226 7.56165 9.76686 7.5725 9.77273 7.58837L9.86742 7.8459L10.0522 7.72928C10.0662 7.72034 10.084 7.72059 10.098 7.72971C10.1583 7.76918 10.2509 7.79465 10.3093 7.80775L10.2935 7.64221C10.2924 7.63043 10.2962 7.61878 10.3041 7.61C10.312 7.60122 10.3231 7.59606 10.335 7.5959L10.4407 7.59431C10.4153 7.56856 10.3942 7.54365 10.3839 7.53103C10.377 7.52265 10.3743 7.51237 10.3748 7.50231C10.2969 7.499 10.1883 7.48509 10.0797 7.43825L10.0151 7.53787C10.009 7.5474 9.99926 7.554 9.98817 7.55625C9.98539 7.55687 9.98251 7.55715 9.9797 7.55715C9.97139 7.55715 9.96317 7.55468 9.95614 7.54997L9.71189 7.38609L9.66701 7.50828C9.66186 7.52231 9.64967 7.53256 9.63498 7.53525C9.62029 7.53812 9.60529 7.53272 9.59545 7.5215C9.55348 7.47337 9.48758 7.39959 9.44839 7.35912C9.41308 7.39315 9.35114 7.44806 9.28492 7.48481C9.27414 7.49081 9.26123 7.49175 9.24973 7.4875C9.23817 7.48325 9.22905 7.47418 9.22473 7.46259L9.15776 7.28287C9.14964 7.261 9.16073 7.23662 9.18267 7.22847C9.20445 7.22034 9.22892 7.23153 9.23708 7.25337L9.28589 7.38447C9.35676 7.33525 9.41589 7.27187 9.41661 7.27109C9.4317 7.25484 9.45683 7.2529 9.47401 7.26678C9.49864 7.2865 9.56545 7.36009 9.61211 7.4124L9.65104 7.30637C9.65548 7.29418 9.66536 7.28472 9.6777 7.28078C9.68992 7.27653 9.70351 7.27853 9.71433 7.28584L9.96761 7.45578L10.0289 7.3614C10.0406 7.34322 10.0642 7.33687 10.0832 7.34659C10.1956 7.40281 10.317 7.4164 10.3945 7.41847C10.3472 7.33012 10.3431 7.21812 10.3428 7.19181C10.2795 7.16387 10.2017 7.12168 10.1234 7.05734L10.093 7.13256C10.0881 7.14456 10.078 7.15368 10.0654 7.15728C10.0529 7.16075 10.0394 7.1585 10.029 7.1509L9.90676 7.06225L9.89486 7.15381C9.89298 7.16803 9.88414 7.18028 9.87117 7.18647C9.85836 7.19265 9.8432 7.19203 9.83092 7.1845C9.82667 7.18197 9.72614 7.12053 9.66623 7.05312C9.6507 7.03568 9.65229 7.00894 9.66976 6.99344C9.68701 6.9779 9.71379 6.9794 9.72945 6.99697C9.75476 7.02543 9.79023 7.05372 9.81979 7.07515L9.83208 6.98084C9.83401 6.96603 9.84361 6.95337 9.85729 6.94747C9.87104 6.94153 9.88686 6.94334 9.89889 6.95206L10.0349 7.05072L10.0675 6.97037C10.0727 6.95747 10.084 6.94797 10.0976 6.945C10.1112 6.94206 10.1255 6.94593 10.1356 6.95553C10.2411 7.05475 10.3552 7.10831 10.4261 7.13459C10.4019 7.02172 10.3926 6.88015 10.3922 6.87272C10.3921 6.87165 10.3926 6.87075 10.3926 6.86972C10.3267 6.83337 10.2335 6.77075 10.153 6.67234C10.1526 6.72447 10.1484 6.77753 10.1356 6.81103C10.1312 6.82259 10.122 6.83162 10.1104 6.83581C10.0987 6.83984 10.0858 6.83878 10.0752 6.83278C10.0701 6.82984 9.97808 6.77703 9.90958 6.69984C9.89776 6.74237 9.88354 6.78715 9.87158 6.80715C9.86014 6.82609 9.83623 6.83309 9.81639 6.82322C9.81236 6.82125 9.74754 6.78844 9.68979 6.73825C9.68417 6.79456 9.67548 6.85819 9.66311 6.88919C9.65867 6.90044 9.64954 6.90919 9.63817 6.91328C9.62676 6.91719 9.6142 6.91631 9.60358 6.91059C9.5997 6.9085 9.52633 6.86825 9.4578 6.81722L9.43923 6.88775C9.43601 6.89981 9.4277 6.90987 9.41645 6.91522C9.40511 6.92047 9.3922 6.92059 9.38083 6.9155C9.37573 6.91319 9.25479 6.85756 9.18592 6.7734C9.17111 6.75534 9.17373 6.72869 9.19186 6.71397C9.20986 6.69915 9.23658 6.70178 9.2513 6.7199C9.28423 6.76012 9.33461 6.79375 9.37095 6.81484L9.39264 6.73244C9.39642 6.71812 9.40733 6.70684 9.42151 6.70265C9.43561 6.69825 9.45095 6.70194 9.46192 6.71187C9.50233 6.74844 9.55701 6.7844 9.59589 6.80822C9.60417 6.756 9.61058 6.68053 9.61333 6.63159C9.61442 6.61269 9.62789 6.59681 9.64629 6.59272C9.66492 6.58853 9.68373 6.59725 9.6927 6.61381C9.71595 6.65662 9.77183 6.69834 9.81395 6.72472C9.82551 6.68853 9.83976 6.63519 9.85048 6.58915C9.85461 6.57147 9.86948 6.55844 9.88754 6.55669C9.90561 6.55444 9.92279 6.56478 9.9302 6.58134C9.95661 6.63987 10.0206 6.69337 10.0663 6.72612C10.0713 6.66447 10.0667 6.57684 10.061 6.52203C10.0589 6.50165 10.0717 6.48272 10.0914 6.47703C10.1115 6.47159 10.132 6.48065 10.141 6.49897C10.2261 6.6715 10.3765 6.76706 10.4547 6.80725C10.4974 6.34056 10.3606 6.162 10.3591 6.16019C10.3515 6.15056 10.3483 6.13794 10.3505 6.12584C10.3529 6.11378 10.3602 6.10316 10.3708 6.09697C10.4468 6.053 10.4929 5.97269 10.5212 5.89475C10.3492 6.06144 10.0768 6.12547 9.94414 6.14762L10.0089 6.22659C10.0188 6.23866 10.0213 6.25519 10.0153 6.26959C10.0093 6.284 9.99592 6.29394 9.98039 6.29547C9.81779 6.31172 9.69914 6.29019 9.61926 6.26325L9.64692 6.31428C9.6542 6.32766 9.65367 6.34397 9.64561 6.35684C9.63758 6.36978 9.62283 6.3785 9.60795 6.37665C9.47548 6.371 9.35958 6.31641 9.26433 6.26819C9.2598 6.29928 9.24445 6.32956 9.21892 6.35453C9.18764 6.38506 9.14786 6.40084 9.10839 6.40084C9.08045 6.40084 9.05273 6.3929 9.02839 6.37665C8.98061 6.34475 8.95642 6.28809 8.9653 6.22884C8.97351 6.17441 9.00786 6.13184 9.05498 6.11775C9.11801 6.09903 9.18998 6.13547 9.28101 6.18184C9.35326 6.21866 9.43942 6.2625 9.53336 6.28216L9.48101 6.18547C9.47126 6.16747 9.47576 6.14512 9.49173 6.13228C9.50776 6.11966 9.53048 6.12 9.54598 6.13347C9.54692 6.13428 9.65217 6.22075 9.89104 6.21628L9.83079 6.14284C9.82089 6.13078 9.81845 6.11416 9.82445 6.09975C9.83051 6.08534 9.84401 6.07541 9.85958 6.07394C9.86414 6.07353 10.2112 6.03831 10.4247 5.86628C10.3551 5.88662 10.3013 5.88341 10.2972 5.88334C10.2855 5.88241 10.2747 5.87669 10.2674 5.86747C10.1696 5.74456 10.0695 5.70656 10.019 5.69481C9.99067 5.78412 9.92204 5.85641 9.9187 5.85987C9.90964 5.86928 9.89667 5.87391 9.88379 5.87262C9.87079 5.87125 9.85917 5.86397 9.85223 5.85287C9.77679 5.73128 9.66804 5.69931 9.60486 5.69141C9.61261 5.78128 9.54979 5.85509 9.50798 5.88581C9.49173 5.89759 9.46955 5.89653 9.45473 5.88328C9.27326 5.72106 9.13311 5.76906 9.07642 5.80147C9.09433 5.84594 9.08589 5.88228 9.07376 5.90684C8.98711 6.08244 8.45105 6.11775 8.34445 6.12303C8.33123 6.12397 8.31798 6.11794 8.30948 6.10741C8.30095 6.09687 8.29805 6.08297 8.30148 6.06994C8.3093 6.04069 8.30408 6.00916 8.28683 5.98097C8.2692 5.95219 8.24095 5.93122 8.21136 5.92487C8.18348 5.91897 8.13033 5.92278 8.09855 5.95762C8.0622 5.99759 8.05973 6.0715 8.09136 6.17141C8.14811 6.35075 8.32295 6.52744 8.4318 6.62428C8.4308 6.60197 8.43145 6.58556 8.4317 6.58147C8.43264 6.5634 8.44492 6.54794 8.46233 6.543C8.47976 6.5379 8.4983 6.54459 8.50864 6.55944C8.5447 6.61125 8.5877 6.64625 8.62002 6.66769L8.64123 6.5324C8.6442 6.51369 8.65923 6.49919 8.67805 6.49697C8.69676 6.49537 8.71486 6.50534 8.72208 6.5229C8.76039 6.61597 9.00295 6.90731 9.09317 7.01172C9.10473 7.02503 9.10676 7.04412 9.09826 7.05962C9.0898 7.07503 9.07267 7.08334 9.05517 7.08122C8.90061 7.05918 8.67355 7.11062 8.6713 7.11112C8.65376 7.11518 8.63558 7.10765 8.62598 7.0924C8.61645 7.07715 8.61758 7.05753 8.62886 7.04343L8.66014 7.0045C8.44555 6.98218 8.23661 6.92578 8.15214 6.90109L8.08117 7.0939L8.27242 7.07481C8.28683 7.073 8.30167 7.07968 8.31045 7.09159C8.31939 7.1035 8.32136 7.11912 8.31573 7.1329L8.27967 7.22103L8.4372 7.17934C8.45808 7.17356 8.47948 7.18472 8.48739 7.20465C8.50826 7.25753 8.53386 7.29225 8.5543 7.31378L8.59867 7.21568C8.60567 7.20037 8.62092 7.18968 8.6378 7.19087C8.65445 7.19097 8.66952 7.20112 8.67605 7.21668Z" fill="#FFD250"/>
<path d="M8.12865 9.38005C8.29543 9.49142 8.43024 9.36436 8.50227 9.26651C8.34862 9.15442 8.23674 9.01651 8.17071 8.8523C8.14912 8.79864 8.13508 8.74439 8.12412 8.69023C8.10843 8.67792 7.8764 8.49414 7.68205 8.2793C7.67212 8.3052 7.65909 8.32577 7.64852 8.33967C7.66218 8.3952 7.6489 8.44055 7.6318 8.46961C7.64359 8.5092 7.63412 8.54848 7.6204 8.57714C7.6498 8.62152 7.65515 8.66495 7.6363 8.7067C7.63199 8.71627 7.62618 8.72508 7.62012 8.73373C7.6443 8.76292 7.68234 8.82973 7.68234 8.96417C7.68234 9.05458 7.7158 9.10883 7.7408 9.1367C7.7554 9.12408 7.77137 9.11698 7.78893 9.11511C7.84227 9.10917 7.88608 9.1548 7.94599 9.21773C7.9929 9.26708 8.05124 9.32845 8.12865 9.38005Z" fill="#FFD250"/>
<path d="M7.29866 8.23314C7.29553 8.23314 7.29238 8.23308 7.28925 8.23308C7.22844 8.23252 7.17285 8.22645 7.12163 8.21661C7.11669 8.23073 7.12719 8.2718 7.13816 8.28023C7.14894 8.28852 7.15616 8.3022 7.15578 8.3158C7.15541 8.32936 7.14957 8.34267 7.13835 8.35033C7.13113 8.35539 7.10966 8.37458 7.10938 8.39327C7.1091 8.41152 7.13063 8.43036 7.1435 8.44005C7.15291 8.44708 7.15897 8.45777 7.16019 8.46945C7.16141 8.48117 7.15772 8.49286 7.14994 8.50173C7.1445 8.50817 7.12897 8.5317 7.13166 8.55145C7.13222 8.55564 7.13397 8.56842 7.156 8.58339C7.16553 8.58986 7.17203 8.60002 7.17397 8.61142C7.17585 8.62283 7.17297 8.63448 7.16603 8.64373C7.1661 8.64373 7.15422 8.66108 7.15875 8.67833C7.16382 8.69742 7.18763 8.71211 7.20663 8.72105C7.24222 8.7378 7.29344 8.74858 7.34685 8.75067C7.34847 8.75039 7.35013 8.75064 7.35178 8.75058C7.39678 8.75189 7.443 8.74752 7.48247 8.73295C7.52119 8.71867 7.54688 8.69798 7.55885 8.67142C7.5626 8.66314 7.57038 8.64595 7.5371 8.60711C7.5241 8.59189 7.5235 8.56977 7.53563 8.55386C7.53569 8.55377 7.56388 8.51498 7.5465 8.48405C7.53719 8.46745 7.54003 8.44677 7.55344 8.43339C7.55591 8.43064 7.58216 8.39973 7.56138 8.34427C7.55538 8.3283 7.55956 8.3103 7.572 8.29861C7.57353 8.29708 7.61178 8.25727 7.61094 8.19673C7.60575 8.19042 7.60056 8.18408 7.59553 8.17773C7.51366 8.21245 7.41328 8.23314 7.29866 8.23314Z" fill="#FFD250"/>
<path d="M7.68538 5.28516C7.51438 5.37712 7.14969 5.66547 7.13916 6.45484L7.14857 7.78509C7.14969 7.78696 7.15132 7.78887 7.15225 7.79068C7.17432 7.83231 7.16388 7.88628 7.1515 7.92365C7.25716 7.9614 7.38891 7.9459 7.44538 7.93193C7.4341 7.89896 7.42519 7.84568 7.46341 7.78537C7.45747 6.199 7.60875 5.52412 7.68538 5.28516Z" fill="#FFD250"/>
<path d="M7.70321 7.95133C7.70321 7.8837 7.65221 7.83108 7.60181 7.81401C7.59137 7.81042 7.55577 7.80055 7.53946 7.82195C7.5089 7.86192 7.51974 7.89017 7.53015 7.91754C7.53596 7.93276 7.54196 7.94845 7.53746 7.96639C7.53174 7.98929 7.51087 7.9987 7.50399 8.00183C7.44662 8.02786 7.22846 8.06201 7.07771 7.9842C7.05731 7.97361 7.04903 7.94864 7.05915 7.92792C7.07506 7.89533 7.08662 7.84748 7.07777 7.83086C7.07706 7.82948 7.07509 7.8257 7.06318 7.82411C7.05193 7.82255 7.04074 7.82179 7.02965 7.82179C6.97818 7.82179 6.93043 7.83798 6.90462 7.86561C6.88387 7.88786 6.87737 7.91617 6.88481 7.95208C6.90987 8.07311 7.0614 8.14654 7.29015 8.14864C7.45196 8.14808 7.59115 8.10989 7.66062 8.04098C7.68893 8.01301 7.70321 7.98286 7.70321 7.95133Z" fill="#FFD250"/>
<path d="M7.33892 8.95384C7.3487 8.94094 7.36486 8.93475 7.3808 8.93806C7.4102 8.94422 7.48327 8.95972 7.5252 8.92719C7.53986 8.91594 7.54317 8.88528 7.53192 8.86528C7.52805 8.85837 7.51633 8.83762 7.4723 8.8545C7.43061 8.87056 7.37077 8.88797 7.33317 8.85416C7.32564 8.84741 7.32089 8.8395 7.31727 8.83141C7.30595 8.83044 7.2947 8.82981 7.28361 8.82812C7.28002 8.83744 7.27505 8.8465 7.26655 8.85416C7.22911 8.88791 7.1692 8.87056 7.12748 8.8545C7.08358 8.83781 7.07167 8.85841 7.06786 8.86528C7.05661 8.88528 7.05986 8.91594 7.07448 8.92709C7.11648 8.95947 7.18961 8.94416 7.21361 8.93909C7.2292 8.93597 7.2483 8.94134 7.25827 8.95413C7.26817 8.96703 7.27236 8.98384 7.26508 8.99834C7.25555 9.01737 7.21414 9.09834 7.17367 9.14891C7.22655 9.22622 7.27233 9.364 7.16508 9.48659C7.15633 9.4965 7.14273 9.50147 7.13011 9.5009C7.11689 9.4999 7.10483 9.49278 7.0977 9.48159C7.09161 9.47234 7.07011 9.44669 7.04639 9.44206C7.0392 9.44069 7.02792 9.44012 7.01152 9.45131C7.00045 9.45897 6.99423 9.48428 7.00358 9.512C7.02027 9.56156 7.07214 9.58906 7.1453 9.58566C7.16192 9.584 7.17992 9.59544 7.18664 9.61225C7.1933 9.62903 7.18858 9.64822 7.17486 9.65997L7.10592 9.71909L7.21848 9.7465C7.23342 9.75012 7.24517 9.76159 7.24927 9.7764C7.24945 9.77712 7.26627 9.83709 7.29992 9.88769C7.33352 9.83709 7.35036 9.77712 7.35052 9.7764C7.35458 9.76159 7.36639 9.75012 7.3813 9.7465L7.49386 9.71909L7.42486 9.65997C7.41114 9.64825 7.40642 9.62903 7.41308 9.61225C7.41973 9.59547 7.43652 9.58419 7.45442 9.58566C7.52673 9.58887 7.57945 9.56156 7.5962 9.51194C7.60555 9.48428 7.59933 9.45897 7.58827 9.45131C7.57164 9.44003 7.5602 9.44059 7.55314 9.44209C7.52861 9.44706 7.50661 9.4745 7.50205 9.48156C7.49486 9.49275 7.48283 9.49991 7.46964 9.50087C7.45592 9.50159 7.44336 9.49656 7.43467 9.48656C7.32745 9.364 7.3733 9.22619 7.42614 9.14887C7.38567 9.09831 7.34427 9.01741 7.33473 8.99831C7.32748 8.98397 7.32914 8.96666 7.33892 8.95384Z" fill="#FFD250"/>
<path d="M13.2903 6.19962C13.2677 6.16443 13.2227 6.12137 13.1364 6.11574C13.0764 6.11143 13.0284 6.12755 12.9934 6.16252C12.9653 6.19055 12.9517 6.22527 12.9453 6.25462C12.8876 6.22427 12.7953 6.15665 12.6989 6.08602C12.4182 5.88034 11.9941 5.56949 11.5779 5.51684C11.2402 5.47393 10.8562 5.54127 10.6451 5.73721C10.6482 5.71131 10.6492 5.69396 10.6493 5.69099C10.6493 5.69043 10.6489 5.69002 10.6489 5.68943C10.6489 5.68152 10.6467 5.67415 10.6427 5.66756C10.6419 5.66615 10.641 5.66509 10.6399 5.66377C10.6352 5.65768 10.6294 5.65243 10.6216 5.64956C10.6218 5.64959 10.6215 5.64949 10.6216 5.64956C10.6136 5.64677 10.6051 5.64693 10.5975 5.64874C10.596 5.64909 10.5947 5.64934 10.5933 5.64981C10.5859 5.6524 10.5794 5.65674 10.5744 5.66299C10.5741 5.6634 10.5735 5.66343 10.5731 5.66387C10.4854 5.78162 10.3651 5.79712 10.3207 5.79859C10.1624 5.61056 9.99502 5.60471 9.9878 5.60456C9.96355 5.60615 9.94814 5.61959 9.94502 5.64062C9.93839 5.68527 9.91243 5.72949 9.89046 5.76018C9.75093 5.58671 9.55449 5.60409 9.54574 5.60481C9.53215 5.60612 9.52008 5.61393 9.51327 5.62577C9.50652 5.63756 9.5058 5.6519 9.51143 5.66437C9.53661 5.71974 9.50608 5.76799 9.48174 5.79481C9.20705 5.57468 8.99568 5.75402 8.99346 5.75599C8.97733 5.77012 8.9743 5.79418 8.98652 5.81181C9.00699 5.84149 9.0034 5.85787 8.99793 5.86893C8.95349 5.95899 8.63105 6.01774 8.38959 6.03499C8.3883 6.00102 8.37796 5.96721 8.35902 5.93621C8.32905 5.8873 8.28171 5.85287 8.22912 5.84156C8.17065 5.82884 8.0884 5.84227 8.03599 5.90015C7.9774 5.96455 7.96899 6.06421 8.01081 6.19637C8.07618 6.40284 8.27243 6.59708 8.3869 6.69705C8.35902 6.68674 8.33137 6.67549 8.30459 6.66262C8.23721 6.6298 8.12437 6.5749 8.04099 6.61824C7.99893 6.63999 7.97199 6.69446 7.9769 6.74768C7.97937 6.77433 7.99427 6.83424 8.0723 6.87249L7.97843 7.12749C7.97343 7.14115 7.97577 7.15646 7.98471 7.16796C7.99359 7.17949 8.00777 7.18574 8.02234 7.18415L8.21087 7.16533L8.16927 7.26702C8.16321 7.2819 8.16606 7.29893 8.17665 7.31096C8.18724 7.32296 8.20334 7.3283 8.21927 7.3239L8.42393 7.26971C8.4768 7.3783 8.5473 7.4163 8.55062 7.41799C8.56102 7.42352 8.57302 7.42433 8.58399 7.42052C8.59499 7.41674 8.60399 7.40858 8.60877 7.39799L8.64137 7.3258C8.67518 7.37311 8.71171 7.40449 8.7343 7.4218C8.72055 7.43318 8.70699 7.44436 8.69209 7.45649C8.54999 7.57211 8.3554 7.73052 8.21552 8.0013C8.14527 8.13727 8.09055 8.34471 8.1069 8.56533C8.00502 8.47971 7.81296 8.30986 7.67156 8.13602C7.68859 8.12439 7.70668 8.11343 7.72037 8.09993C7.76459 8.05618 7.78793 8.00433 7.78793 7.95021C7.78793 7.83777 7.70556 7.75865 7.62906 7.73277C7.60059 7.72318 7.57318 7.72174 7.54824 7.72599C7.54577 5.8829 7.75568 5.31865 7.7983 5.22362C7.80502 5.20859 7.80243 5.19096 7.79159 5.17853C7.7808 5.16615 7.76362 5.16112 7.74784 5.16578C7.72015 5.1739 7.06931 5.37721 7.05496 6.45409L7.06403 7.73883C6.97568 7.72952 6.89181 7.75465 6.84296 7.8068C6.81521 7.83649 6.78565 7.88855 6.80209 7.96824C6.82399 8.07396 6.90928 8.15199 7.04015 8.19486C7.03656 8.20874 7.03534 8.22443 7.03709 8.24199C7.03912 8.26265 7.04556 8.28821 7.05749 8.31036C7.04153 8.32939 7.02584 8.35661 7.02503 8.39014C7.02428 8.42246 7.03712 8.4528 7.06334 8.48058C7.05299 8.50146 7.04396 8.52968 7.04793 8.56096C7.05034 8.57958 7.05818 8.6043 7.08024 8.62821C7.07403 8.64664 7.07018 8.67077 7.07684 8.6973C7.08362 8.72471 7.10065 8.74827 7.12593 8.76839C7.06118 8.75639 7.01568 8.78561 6.9944 8.82361C6.9624 8.88064 6.97537 8.95708 7.02328 8.99392C7.06231 9.02392 7.10871 9.03352 7.15099 9.0313C7.12946 9.06774 7.10671 9.10142 7.0924 9.11261C7.08309 9.11983 7.07718 9.13058 7.07621 9.1423C7.07518 9.15402 7.07909 9.16564 7.08699 9.17439C7.0914 9.17927 7.18362 9.28317 7.12871 9.39114C7.11174 9.3772 7.08978 9.36417 7.06365 9.35886C7.02968 9.35196 6.99531 9.3598 6.96403 9.38127C6.91937 9.41189 6.90278 9.47658 6.92371 9.53861C6.93974 9.58614 6.97971 9.63486 7.04793 9.65733L6.98859 9.7082C6.97653 9.71852 6.97131 9.73477 6.97499 9.75017C6.97868 9.76558 6.99068 9.77764 7.00609 9.78139L7.17574 9.82274C7.18874 9.86002 7.21846 9.93199 7.26812 9.98164C7.27606 9.98958 7.29112 9.99402 7.30237 9.99402C7.31362 9.99402 7.32434 9.98958 7.33227 9.98164C7.38193 9.93199 7.41168 9.86002 7.42465 9.82274L7.59431 9.78139C7.60971 9.77764 7.62171 9.76561 7.6254 9.75017C7.62909 9.7347 7.62381 9.71852 7.61181 9.7082L7.55246 9.65733C7.62065 9.6348 7.66068 9.58611 7.67668 9.53861C7.69762 9.47655 7.68102 9.41183 7.63637 9.38127C7.60502 9.35974 7.57046 9.35202 7.53671 9.35886C7.51062 9.36414 7.48871 9.37714 7.47168 9.39108C7.41768 9.28371 7.50912 9.17914 7.51356 9.17427C7.52137 9.16552 7.52524 9.15389 7.52418 9.14224C7.52315 9.13055 7.51727 9.1198 7.50806 9.11261C7.49377 9.10149 7.47112 9.06786 7.44959 9.03142C7.49184 9.0318 7.53799 9.02411 7.57718 8.99386C7.58577 8.98727 7.59187 8.97821 7.59815 8.96942C7.60115 9.15502 7.71877 9.22846 7.72387 9.23155C7.7439 9.24349 7.76962 9.23717 7.78168 9.21727C7.79165 9.20102 7.79759 9.19789 7.79746 9.1977C7.81234 9.19852 7.85406 9.24245 7.88455 9.27449C7.9343 9.32683 7.99631 9.39205 8.08156 9.44886C8.14402 9.49055 8.20309 9.50695 8.25734 9.50695C8.40959 9.50695 8.52362 9.37849 8.57227 9.31249C8.66708 9.37195 8.77459 9.42358 8.89715 9.46546C8.90133 9.46689 8.90558 9.46745 8.9098 9.46755C8.92443 9.51502 8.9404 9.5628 8.9569 9.61017C9.0098 9.76195 9.06449 9.91895 9.04299 10.0381C9.01521 10.1926 8.7708 10.1942 8.64521 10.173C8.55584 10.1585 8.47293 10.1814 8.41209 10.2381C8.35124 10.2949 8.3199 10.3808 8.3284 10.4679C8.3343 10.5287 8.36477 10.5574 8.38937 10.5706C8.4458 10.601 8.52212 10.5783 8.56359 10.5613C8.6588 10.6443 8.77268 10.6095 8.84158 10.5656C8.88396 10.601 8.93121 10.6196 8.98237 10.6207C8.98405 10.6208 8.98571 10.6208 8.98743 10.6208C9.06474 10.6208 9.12977 10.5801 9.1623 10.5552C9.32608 10.6215 9.41974 10.5721 9.43615 10.5619C9.56911 10.4497 9.54724 10.2481 9.5299 10.1605C9.80318 10.0777 9.89124 9.84024 9.89505 9.8297C9.90033 9.81489 9.89699 9.79836 9.88636 9.78677C9.87565 9.77524 9.85927 9.77058 9.84424 9.77461C9.75999 9.79724 9.69346 9.78183 9.66177 9.73224C9.61886 9.66514 9.64668 9.55533 9.73265 9.45264C9.75068 9.43108 9.76774 9.40724 9.78443 9.38239C9.99561 9.33517 10.176 9.25305 10.367 9.16596C10.525 9.09389 10.6885 9.01933 10.8828 8.95842C10.9373 8.94133 10.9902 8.9313 11.0424 8.92452C11.0266 9.15361 11.1441 9.30455 11.2595 9.44977C11.2914 9.48983 11.3233 9.52986 11.3522 9.57167C11.4759 9.75089 11.4522 10.1266 11.4421 10.1605C11.4334 10.1798 11.3504 10.2643 11.2329 10.2481C11.1352 10.2351 11.0258 10.2673 10.9541 10.3301C10.903 10.3748 10.8749 10.4324 10.8749 10.4921C10.8749 10.543 10.8993 10.5682 10.9199 10.5805C10.9811 10.6168 11.0825 10.5779 11.1368 10.5519C11.1875 10.5911 11.2396 10.6056 11.2878 10.6056C11.3477 10.6056 11.4015 10.5833 11.4393 10.5585C11.5527 10.6302 11.6715 10.5882 11.7376 10.5431C11.8206 10.5881 11.8872 10.5792 11.9302 10.5623C11.9442 10.5568 11.9569 10.5499 11.9685 10.542C11.9702 10.5438 11.9718 10.5462 11.9735 10.5477C12.0185 10.5864 12.1018 10.5658 12.1551 10.5465C12.1793 10.5866 12.2114 10.6047 12.2367 10.6128C12.315 10.6377 12.405 10.5948 12.4502 10.568C12.5051 10.6105 12.5596 10.6283 12.6141 10.6206C12.6622 10.614 12.6985 10.5882 12.7218 10.5655C12.7467 10.5835 12.7845 10.6055 12.8356 10.6216C12.8581 10.6288 12.8779 10.6317 12.8953 10.6317C12.9542 10.6317 12.985 10.5981 12.997 10.5806C13.046 10.5092 13.0205 10.3883 12.9659 10.32C12.9336 10.2798 12.9069 10.2044 12.9198 10.127C12.9267 10.0857 12.9482 10.028 13.0119 9.98745C13.1268 9.91439 13.2021 9.81545 13.2039 9.73549C13.2046 9.70245 13.1921 9.6752 13.1685 9.6587C13.1476 9.64411 13.1243 9.64102 13.1017 9.63805C13.0514 9.63139 12.9887 9.62311 12.909 9.47583C12.8379 9.34455 12.922 9.09024 13.0113 8.82093C13.0623 8.66683 13.115 8.50749 13.1481 8.3488C13.2299 7.95602 13.0327 7.63955 12.9613 7.54102C13.1599 7.34568 13.2431 7.15821 13.2088 6.98346C13.1711 6.7909 12.9915 6.65899 12.8494 6.60452C12.6775 6.53865 12.3894 6.5729 12.1108 6.60627C11.8936 6.63227 11.6882 6.65693 11.5649 6.6308C11.5183 6.62105 11.4851 6.6008 11.4664 6.57055C11.4338 6.51796 11.4512 6.44884 11.4514 6.44812C11.4548 6.43518 11.4518 6.42124 11.4435 6.41084C11.435 6.40043 11.4211 6.39377 11.4088 6.39505C11.3278 6.3983 11.2632 6.44346 11.2234 6.48074C11.221 6.4694 11.2207 6.45774 11.2223 6.44568C11.2333 6.3644 11.3269 6.29337 11.3278 6.29268C11.339 6.28427 11.3454 6.2708 11.3447 6.25677C11.344 6.24277 11.3365 6.23002 11.3245 6.22271C11.1522 6.1178 10.9914 6.19549 10.9091 6.26846C10.8743 6.2344 10.8533 6.18227 10.855 6.1298C10.856 6.09534 10.8682 6.03202 10.937 5.9954C10.9682 5.9788 10.995 5.97518 11.0193 5.98412C11.0599 5.99924 11.0869 6.04918 11.0939 6.06721C11.0983 6.07874 11.1077 6.0878 11.1194 6.09187C11.131 6.09612 11.144 6.09484 11.1547 6.08855C11.249 6.03355 11.2791 5.91802 11.2887 5.85393C11.3441 5.86296 11.3864 5.88649 11.4171 5.92524C11.5033 6.03393 11.468 6.22537 11.4677 6.2273C11.465 6.24162 11.4698 6.2563 11.4804 6.26624C11.491 6.27615 11.5061 6.27984 11.5202 6.27615C11.7115 6.22487 11.7728 6.06946 11.7822 5.95459C11.9286 6.04571 11.9186 6.23418 11.918 6.24302C11.9171 6.25759 11.9237 6.27162 11.9355 6.28009C11.9473 6.28862 11.9626 6.29043 11.9761 6.28505C12.0461 6.25665 12.0849 6.21043 12.1064 6.16777C12.2396 6.34246 12.4248 6.40309 12.4337 6.40599C12.4494 6.41077 12.4664 6.40643 12.4776 6.3943C12.4887 6.38221 12.4919 6.36474 12.4856 6.34955L12.4443 6.24934C12.4779 6.27305 12.5103 6.29802 12.5436 6.32368C12.632 6.39162 12.7232 6.4619 12.8549 6.52377C13.003 6.59333 13.1085 6.57774 13.1711 6.55265C13.2336 6.52737 13.2831 6.48024 13.3036 6.42655C13.3275 6.36402 13.3365 6.27146 13.2903 6.19962ZM13.2245 6.39662C13.2155 6.42024 13.1879 6.45474 13.1394 6.4743C13.0926 6.49324 13.0114 6.50402 12.8909 6.44737C12.7675 6.3894 12.6799 6.32199 12.5953 6.2568C12.525 6.20274 12.4587 6.15171 12.375 6.10659C12.3593 6.09812 12.3399 6.1004 12.3265 6.1124C12.3133 6.12434 12.309 6.1434 12.3158 6.15993L12.3661 6.2819C12.2931 6.24021 12.1932 6.16571 12.1277 6.04602C12.1185 6.02905 12.099 6.02059 12.0801 6.02534C12.0614 6.03012 12.0483 6.04699 12.0483 6.0663C12.0483 6.06705 12.0476 6.12593 11.9995 6.17177C11.985 6.05912 11.9232 5.90777 11.7535 5.84784C11.7395 5.84277 11.7244 5.84559 11.713 5.85465C11.7015 5.86377 11.6957 5.87818 11.6974 5.89268C11.6984 5.90146 11.7187 6.08996 11.5587 6.17162C11.563 6.09262 11.5562 5.96496 11.4835 5.87305C11.4304 5.80587 11.3526 5.76971 11.2525 5.76559C11.2416 5.76437 11.2301 5.76921 11.2219 5.77693C11.2135 5.78465 11.2088 5.79537 11.2084 5.80671C11.2084 5.80802 11.2035 5.9214 11.146 5.98709C11.126 5.9573 11.0944 5.92215 11.0493 5.90515C11.0018 5.88724 10.9506 5.89249 10.8973 5.92077C10.8194 5.96212 10.7731 6.0374 10.7703 6.12718C10.7673 6.22227 10.8144 6.3139 10.8903 6.36059C10.9077 6.37112 10.9303 6.36787 10.9441 6.35259C10.9496 6.3463 11.0703 6.21437 11.2277 6.26965C11.1917 6.3074 11.1478 6.36596 11.1385 6.43399C11.1312 6.48662 11.1451 6.53596 11.1797 6.58068C11.1878 6.59121 11.1973 6.59637 11.214 6.59702C11.2273 6.5968 11.2398 6.59021 11.2475 6.57933C11.2481 6.57858 11.294 6.51558 11.362 6.49002C11.3617 6.52602 11.3681 6.57215 11.3939 6.6143C11.4253 6.6654 11.4769 6.69883 11.5475 6.71365C11.6844 6.74224 11.8964 6.71696 12.1208 6.6903C12.3893 6.65837 12.6669 6.62524 12.819 6.68355C12.9411 6.7303 13.0947 6.84118 13.1258 6.99983C13.1557 7.15196 13.0715 7.32227 12.8757 7.50593C12.8593 7.52127 12.8578 7.5468 12.8723 7.56396C12.875 7.5673 13.154 7.90555 13.0653 8.33155C13.0332 8.48555 12.9812 8.64258 12.9309 8.79436C12.8317 9.09399 12.7461 9.35274 12.8346 9.51614C12.9349 9.70133 13.0324 9.71417 13.0906 9.72189C13.102 9.72336 13.1161 9.72524 13.1186 9.72642C13.127 9.74349 13.0971 9.83302 12.9665 9.91611C12.8953 9.96149 12.8503 10.0296 12.8364 10.1131C12.8213 10.2038 12.8462 10.3058 12.8998 10.3729C12.9407 10.424 12.9482 10.5021 12.9273 10.5327C12.9231 10.5386 12.9106 10.5565 12.861 10.541C12.7853 10.517 12.7483 10.478 12.7482 10.4779C12.7392 10.4681 12.7264 10.4633 12.7129 10.464C12.6996 10.4652 12.6877 10.4726 12.6808 10.4839C12.6805 10.4844 12.651 10.5301 12.6025 10.5369C12.5662 10.5418 12.5258 10.5242 12.4821 10.4843C12.4674 10.4709 12.4454 10.4696 12.429 10.4811C12.4027 10.4998 12.3156 10.5488 12.2624 10.5321C12.2547 10.5297 12.2314 10.5222 12.2164 10.4783C12.2125 10.467 12.204 10.4579 12.1931 10.4532C12.1821 10.4485 12.1697 10.4485 12.1588 10.4535C12.1075 10.4769 12.043 10.4915 12.0305 10.4859C12.0305 10.4859 12.0285 10.4795 12.0338 10.4615C12.063 10.3606 12.1821 10.3365 12.2609 10.3205C12.2753 10.3176 12.2885 10.3149 12.2994 10.3121C12.3081 10.31 12.3181 10.308 12.3287 10.3059C12.4063 10.2905 12.5677 10.2584 12.5474 10.0555C12.5431 10.0128 12.5443 9.97342 12.5454 9.93533C12.5491 9.81033 12.5526 9.6923 12.3562 9.55092C12.2837 9.4987 12.2139 9.45186 12.1468 9.40683C11.994 9.30424 11.862 9.21574 11.7412 9.09486C11.4917 8.84527 11.1945 8.77214 10.8576 8.87764C10.6583 8.94008 10.4924 9.01574 10.332 9.08892C10.1706 9.16255 10.016 9.23114 9.84655 9.27802C9.9803 9.0238 10.0536 8.68671 10.0385 8.52421C10.0363 8.50096 10.0151 8.48368 9.99246 8.48599C9.96921 8.48821 9.95211 8.50877 9.95424 8.53202C9.97152 8.71758 9.85633 9.17321 9.66793 9.39833C9.55783 9.52992 9.52749 9.67886 9.59061 9.77774C9.62983 9.83902 9.69636 9.86836 9.78015 9.86917C9.73436 9.9413 9.63955 10.0501 9.47005 10.089C9.45871 10.0916 9.44893 10.0987 9.44302 10.1088C9.43711 10.1189 9.43565 10.1309 9.43896 10.1421C9.43968 10.1445 9.50961 10.3894 9.38858 10.4926C9.38555 10.4944 9.31236 10.5314 9.17293 10.4676C9.15715 10.4604 9.1384 10.4636 9.1259 10.4757C9.12518 10.4763 9.05668 10.5405 8.98452 10.5361C8.94505 10.5352 8.90958 10.5175 8.87612 10.4818C8.86071 10.4654 8.83508 10.464 8.8179 10.4785C8.8129 10.4828 8.69318 10.5822 8.6043 10.4826C8.59127 10.468 8.57018 10.4643 8.55309 10.4733C8.51915 10.491 8.45646 10.5106 8.4298 10.4962C8.42627 10.4943 8.41552 10.4885 8.41274 10.4597C8.40684 10.3986 8.42827 10.3388 8.47005 10.2998C8.51124 10.2614 8.56859 10.2459 8.63152 10.2565C8.85315 10.2935 9.09187 10.2448 9.12646 10.0531C9.15183 9.91202 9.09343 9.74442 9.03699 9.58227C8.99446 9.4603 8.95055 9.33417 8.94858 9.23199C8.94462 9.02321 8.98933 8.82608 8.98977 8.82408C8.99502 8.80136 8.98083 8.77867 8.95805 8.77342C8.93527 8.76789 8.91265 8.7823 8.9074 8.80508C8.90543 8.81349 8.8598 9.01399 8.86402 9.23361C8.8649 9.27683 8.87308 9.32283 8.88383 9.36964C8.56293 9.25108 8.34874 9.06655 8.24921 8.81918C8.13259 8.52924 8.19874 8.21824 8.2908 8.03996C8.42262 7.78486 8.60174 7.63915 8.74568 7.52196C8.81333 7.46693 8.8739 7.41736 8.91712 7.36558C8.91255 7.4359 8.85274 7.5773 8.78749 7.69055C8.7788 7.70565 8.78021 7.72449 8.79112 7.73808C8.80199 7.75168 8.82018 7.75718 8.83671 7.75202C8.87305 7.74068 8.93868 7.70868 8.98683 7.68411L9.0004 7.89758C9.0014 7.91336 9.01118 7.9273 9.02571 7.93365C9.0403 7.94002 9.05718 7.93768 9.06937 7.92755C9.12637 7.8808 9.18018 7.81843 9.21743 7.77133L9.25949 7.90411C9.26352 7.91686 9.27343 7.92702 9.28615 7.93136C9.2989 7.93568 9.31283 7.93377 9.32387 7.92608C9.38412 7.8844 9.44296 7.81761 9.47971 7.77174L9.55999 7.89971C9.56811 7.91271 9.58268 7.92108 9.5979 7.91946C9.61315 7.91874 9.62686 7.90983 9.63368 7.89611L9.72733 7.70874L9.80633 7.92352C9.81074 7.93552 9.82033 7.94483 9.83243 7.94896C9.83683 7.95052 9.84146 7.95121 9.84602 7.95121C9.8539 7.95121 9.86177 7.94899 9.86861 7.94474L10.0756 7.81415C10.1851 7.87493 10.3433 7.90024 10.3504 7.90143C10.3632 7.90311 10.3764 7.8994 10.386 7.89043C10.3955 7.88149 10.4003 7.86865 10.3991 7.85565L10.3823 7.67924L10.5656 7.67646C10.5867 7.67611 10.6043 7.66027 10.6069 7.63936C10.6095 7.6184 10.5962 7.59877 10.5758 7.59333C10.5558 7.58799 10.51 7.54511 10.4708 7.50121C10.4758 7.50086 10.4781 7.50065 10.4804 7.50046C10.5858 7.50849 12.3751 7.64021 12.7675 7.3548C12.9857 7.19612 12.9705 7.05187 12.9419 6.98002C12.883 6.83165 12.6689 6.73699 12.4554 6.76421C12.3705 6.77508 12.2791 6.79133 12.1845 6.8083C11.9167 6.85627 11.6132 6.91065 11.3643 6.84965C11.2672 6.82587 11.184 6.79437 11.1106 6.76662C10.9863 6.71955 10.8965 6.68552 10.8276 6.72665C10.7991 6.74371 10.7784 6.77152 10.7646 6.81221C10.7204 6.76293 10.6714 6.67296 10.7361 6.55112C10.7446 6.53509 10.7419 6.5154 10.7295 6.50215C10.727 6.49949 10.4816 6.23652 10.5971 5.9479C10.7008 5.68868 11.1089 5.54237 11.5674 5.60062C11.9619 5.65052 12.3754 5.95355 12.649 6.15405C12.8212 6.28027 12.914 6.34649 12.9767 6.35471C12.9893 6.35652 13.0017 6.35218 13.011 6.34365C13.0202 6.33512 13.0251 6.32284 13.0244 6.31027C13.0244 6.30971 13.0218 6.25324 13.0535 6.2219C13.0708 6.20477 13.096 6.19724 13.131 6.19987C13.172 6.20255 13.2016 6.21777 13.2192 6.24509C13.2465 6.2878 13.2415 6.35196 13.2245 6.39662ZM11.8951 10.4852C11.8541 10.4993 11.8081 10.4899 11.7579 10.4569C11.7421 10.4466 11.7212 10.448 11.707 10.4603C11.7019 10.4647 11.581 10.5668 11.4652 10.4734C11.4495 10.4607 11.4265 10.4611 11.411 10.4744C11.3984 10.4852 11.2848 10.5768 11.1716 10.4708C11.1582 10.4584 11.1385 10.4558 11.1226 10.4645C11.065 10.4955 10.9846 10.5209 10.9631 10.5079C10.9596 10.5058 10.9595 10.4945 10.9595 10.4922C10.9595 10.4474 10.9869 10.414 11.0098 10.3939C11.0632 10.3472 11.148 10.3224 11.2217 10.3321C11.3819 10.3535 11.4987 10.2436 11.5198 10.1941C11.5385 10.1504 11.5695 9.73764 11.4218 9.52383C11.3918 9.48045 11.3588 9.43886 11.3257 9.3973C11.2135 9.25605 11.1083 9.12183 11.1273 8.91771C11.3325 8.91339 11.5183 8.99189 11.6813 9.15483C11.7665 9.24011 11.859 9.31074 11.9558 9.37864C11.9183 9.4172 11.8578 9.49002 11.8532 9.56411C11.8509 9.60055 11.8625 9.63392 11.8865 9.66064C11.9478 9.72874 12.018 9.72558 12.0645 9.7233C12.0725 9.72286 12.0832 9.72227 12.091 9.72283C12.0792 9.75152 12.0354 9.81142 12.005 9.85277C11.9211 9.96717 11.8669 10.0468 11.8761 10.1085C11.8825 10.1505 11.899 10.2139 11.915 10.2753C11.9302 10.3338 11.9533 10.4222 11.9522 10.4393C11.95 10.4458 11.931 10.4728 11.8951 10.4852ZM12.0732 9.90277C12.1545 9.79186 12.1958 9.7318 12.1719 9.68402C12.1473 9.63492 12.0972 9.63705 12.0605 9.63892C12.0211 9.6408 11.9838 9.64245 11.9493 9.60414C11.9404 9.59417 11.9367 9.58349 11.9375 9.56952C11.9405 9.5212 11.995 9.45852 12.0264 9.42777C12.0506 9.44424 12.0748 9.4607 12.0995 9.47733C12.166 9.52189 12.235 9.56824 12.3066 9.6198C12.4666 9.73499 12.4642 9.81383 12.4608 9.93314C12.4596 9.97202 12.4583 10.0161 12.4632 10.0642C12.4749 10.1816 12.4079 10.2042 12.3121 10.2232C12.3 10.2256 12.2887 10.2279 12.2788 10.2304C12.2689 10.2329 12.257 10.2353 12.2439 10.238C12.1828 10.2504 12.0851 10.2713 12.0172 10.3346C12.0116 10.3117 12.0048 10.2851 11.9967 10.2541C11.9813 10.1949 11.9653 10.1337 11.9596 10.0961C11.955 10.0641 12.0319 9.9592 12.0732 9.90277ZM7.7889 9.11383C7.77134 9.11571 7.75537 9.1228 7.74077 9.13542C7.71577 9.10755 7.68231 9.05333 7.68231 8.96289C7.68231 8.82846 7.64427 8.76161 7.62009 8.73246C7.62612 8.7238 7.63196 8.71502 7.63627 8.70543C7.65509 8.66371 7.64974 8.62024 7.62037 8.57586C7.63409 8.54718 7.64356 8.50793 7.63177 8.46833C7.6489 8.43927 7.66215 8.39389 7.64849 8.33839C7.65909 8.32449 7.67212 8.30393 7.68202 8.27802C7.87637 8.4928 8.1084 8.67661 8.12409 8.68896C8.13505 8.74308 8.14909 8.79733 8.17068 8.85102C8.23671 9.01524 8.34859 9.15311 8.50224 9.26524C8.43021 9.36305 8.29543 9.49014 8.12862 9.37877C8.05121 9.32717 7.99284 9.26577 7.94599 9.21645C7.88606 9.15352 7.84224 9.10786 7.7889 9.11383ZM7.43512 9.48645C7.44381 9.49649 7.45637 9.50149 7.47009 9.50077C7.48331 9.49977 7.49537 9.49264 7.50249 9.48145C7.50709 9.47442 7.52909 9.44692 7.55359 9.44199C7.56062 9.44042 7.57206 9.43989 7.58871 9.4512C7.59977 9.45886 7.60599 9.48417 7.59665 9.51183C7.57993 9.56145 7.52718 9.58877 7.45487 9.58555C7.43696 9.58408 7.42018 9.59533 7.41352 9.61214C7.40687 9.62892 7.41159 9.64814 7.42531 9.65986L7.49431 9.71899L7.38174 9.74639C7.36681 9.75002 7.35506 9.76149 7.35096 9.7763C7.35077 9.77702 7.33396 9.83699 7.30037 9.88758C7.26671 9.83699 7.2499 9.77702 7.24971 9.7763C7.24565 9.76149 7.23384 9.75002 7.21893 9.74639L7.10637 9.71899L7.17531 9.65986C7.18902 9.64808 7.19374 9.62892 7.18709 9.61214C7.18037 9.59536 7.16237 9.58389 7.14574 9.58555C7.07256 9.58895 7.02071 9.56145 7.00403 9.51189C6.99468 9.4842 7.0009 9.45886 7.01196 9.4512C7.02831 9.44002 7.03965 9.44058 7.04684 9.44195C7.07056 9.44658 7.09206 9.47224 7.09815 9.48149C7.10534 9.49267 7.11737 9.49983 7.13056 9.5008C7.14318 9.50136 7.15677 9.49639 7.16552 9.48649C7.27277 9.36392 7.22696 9.22611 7.17412 9.1488C7.21459 9.09824 7.25599 9.01733 7.26553 8.99824C7.27281 8.98377 7.26859 8.96689 7.25871 8.95402C7.24874 8.94127 7.22965 8.93583 7.21406 8.93899C7.19006 8.94405 7.11693 8.95936 7.07493 8.92699C7.06034 8.9158 7.05712 8.88511 7.06831 8.86517C7.07209 8.85827 7.08406 8.83771 7.12793 8.85439C7.16965 8.87046 7.22959 8.8878 7.26699 8.85405C7.27552 8.84639 7.28046 8.83733 7.28406 8.82802C7.29515 8.82971 7.3064 8.8303 7.31771 8.8313C7.32134 8.83943 7.32609 8.8473 7.33362 8.85405C7.37124 8.88783 7.43106 8.87046 7.47274 8.85439C7.51677 8.83752 7.52852 8.8583 7.53237 8.86517C7.54362 8.88517 7.54031 8.91583 7.52565 8.92708C7.48368 8.95955 7.41062 8.94408 7.38124 8.93796C7.36534 8.93464 7.34921 8.94089 7.33937 8.95374C7.32959 8.96655 7.32793 8.98383 7.33512 8.9983C7.34465 9.01733 7.38606 9.0983 7.42652 9.14886C7.37371 9.22608 7.32793 9.36392 7.43512 9.48645ZM7.57227 8.29783C7.55984 8.30952 7.55565 8.32752 7.56165 8.34349C7.58246 8.39902 7.55621 8.42986 7.55371 8.43261C7.54027 8.44599 7.53746 8.46668 7.54677 8.48327C7.56418 8.51421 7.53599 8.55296 7.5359 8.55308C7.52381 8.56899 7.52437 8.59111 7.53737 8.60633C7.57062 8.64514 7.56284 8.66236 7.55912 8.67064C7.54718 8.69721 7.52146 8.71789 7.48274 8.73217C7.44321 8.74677 7.39702 8.75111 7.35206 8.7498C7.3504 8.74986 7.34874 8.74961 7.34712 8.74989C7.29374 8.74777 7.24249 8.73702 7.2069 8.72027C7.1879 8.71133 7.16412 8.69664 7.15903 8.67755C7.15443 8.6603 7.16634 8.64296 7.16631 8.64296C7.17324 8.63371 7.17609 8.62202 7.17424 8.61064C7.17231 8.59924 7.16584 8.58911 7.15628 8.58261C7.13424 8.56764 7.13249 8.55486 7.13193 8.55068C7.12924 8.53093 7.14474 8.50739 7.15021 8.50096C7.15796 8.49208 7.16165 8.48039 7.16046 8.46868C7.15924 8.45699 7.15318 8.44633 7.14377 8.43927C7.13087 8.42958 7.10937 8.41068 7.10965 8.39249C7.10993 8.37377 7.1314 8.35458 7.13862 8.34955C7.14987 8.34189 7.15568 8.32858 7.15606 8.31502C7.15643 8.30143 7.14924 8.28771 7.13843 8.27946C7.12743 8.27102 7.11699 8.22999 7.1219 8.21583C7.17312 8.22571 7.22868 8.23177 7.28952 8.2323C7.29265 8.2323 7.29581 8.23236 7.29893 8.23236C7.41356 8.23236 7.5139 8.21168 7.59568 8.17696C7.60074 8.1833 7.60593 8.18964 7.61109 8.19596C7.61206 8.25649 7.57381 8.29633 7.57227 8.29783ZM7.29037 8.14774C7.06162 8.14564 6.91006 8.07218 6.88503 7.95118C6.87759 7.91521 6.88409 7.88693 6.90484 7.86471C6.93065 7.83705 6.9784 7.8209 7.02987 7.8209C7.04093 7.8209 7.05218 7.82165 7.0634 7.82321C7.07531 7.8248 7.07728 7.82858 7.07799 7.82996C7.08687 7.84658 7.07531 7.89443 7.05937 7.92702C7.04924 7.94771 7.05749 7.97271 7.07793 7.9833C7.22868 8.06108 7.44684 8.02696 7.50421 8.00093C7.51112 7.9978 7.53196 7.98836 7.53768 7.96549C7.54221 7.94752 7.53621 7.93183 7.53037 7.91668C7.51996 7.8893 7.50912 7.86105 7.53968 7.82108C7.55599 7.79968 7.59156 7.80955 7.60202 7.81315C7.65246 7.83021 7.70343 7.88283 7.70343 7.95046C7.70343 7.98193 7.68912 8.01211 7.66087 8.04014C7.59137 8.10899 7.45218 8.14718 7.29037 8.14774ZM7.44581 7.93155C7.38937 7.94555 7.25759 7.96108 7.15193 7.92327C7.16431 7.8859 7.17481 7.83193 7.15268 7.7903C7.15171 7.78852 7.15012 7.78658 7.14899 7.78471L7.13959 6.45446C7.15012 5.66506 7.51477 5.37671 7.68581 5.28477C7.60918 5.52374 7.4579 6.19859 7.46384 7.78496C7.42562 7.8453 7.43456 7.89858 7.44581 7.93155ZM8.59868 7.21527L8.5543 7.31336C8.5339 7.29183 8.50827 7.25708 8.4874 7.20424C8.47952 7.1843 8.45812 7.17315 8.43724 7.17893L8.27971 7.22062L8.31577 7.13249C8.3214 7.11874 8.3194 7.10308 8.31049 7.09118C8.30171 7.07924 8.28687 7.07255 8.27246 7.0744L8.08121 7.09349L8.15218 6.90068C8.23662 6.92533 8.44559 6.98177 8.66018 7.00408L8.6289 7.04302C8.61762 7.05712 8.61652 7.07671 8.62602 7.09199C8.63562 7.10724 8.6538 7.11477 8.67133 7.11071C8.67358 7.11024 8.90065 7.05877 9.05521 7.0808C9.07274 7.08293 9.08983 7.07462 9.0983 7.05921C9.10677 7.04374 9.10474 7.02462 9.09321 7.0113C9.00296 6.90693 8.76043 6.61555 8.72212 6.52249C8.7149 6.50493 8.69677 6.49496 8.67809 6.49655C8.65927 6.4988 8.64421 6.51327 8.64127 6.53199L8.62005 6.66727C8.58774 6.64587 8.54474 6.61084 8.50868 6.55902C8.49834 6.54415 8.4798 6.53743 8.46237 6.54259C8.44496 6.54755 8.43268 6.56299 8.43174 6.58105C8.43152 6.58518 8.43084 6.60162 8.43184 6.62387C8.32296 6.52699 8.14818 6.3503 8.0914 6.17099C8.05974 6.07105 8.06221 5.99718 8.09855 5.95721C8.1303 5.92234 8.18352 5.91855 8.2114 5.92446C8.24102 5.9308 8.26927 5.95177 8.28687 5.98055C8.30412 6.00877 8.3093 6.04027 8.30152 6.06952C8.29805 6.08255 8.30096 6.09649 8.30952 6.10699C8.31799 6.11752 8.33127 6.12359 8.34449 6.12262C8.45108 6.11734 8.98715 6.08202 9.0738 5.90643C9.0859 5.88187 9.09436 5.84552 9.07646 5.80106C9.13318 5.76868 9.27327 5.72068 9.45477 5.88287C9.46958 5.89615 9.49177 5.89718 9.50802 5.8854C9.5498 5.85468 9.61265 5.78084 9.6049 5.69099C9.66811 5.69893 9.77686 5.73093 9.85227 5.85246C9.85921 5.86359 9.87083 5.87084 9.88383 5.87221C9.89674 5.87349 9.90964 5.86887 9.91874 5.85946C9.92208 5.85599 9.99071 5.78371 10.0191 5.6944C10.0695 5.70618 10.1696 5.74415 10.2674 5.86705C10.2747 5.87627 10.2855 5.88199 10.2972 5.88293C10.3014 5.88299 10.3552 5.88621 10.4247 5.86587C10.2112 6.0379 9.86415 6.07309 9.85961 6.07352C9.84402 6.07499 9.83055 6.08493 9.82449 6.09934C9.81849 6.11374 9.8209 6.1304 9.83083 6.14243L9.89108 6.21587C9.65218 6.2203 9.54696 6.13387 9.54602 6.13305C9.53055 6.11962 9.5078 6.1193 9.49177 6.13187C9.4758 6.14468 9.4713 6.16705 9.48105 6.18505L9.5334 6.28174C9.43946 6.26209 9.3533 6.21827 9.28105 6.18143C9.19005 6.13509 9.11808 6.09862 9.05502 6.11734C9.0079 6.13143 8.97355 6.17399 8.96533 6.22843C8.95646 6.28774 8.98065 6.3444 9.02843 6.37624C9.05277 6.39249 9.08052 6.40043 9.10843 6.40043C9.14783 6.40043 9.18768 6.38465 9.21896 6.35412C9.24452 6.32918 9.25986 6.29887 9.26436 6.26777C9.35961 6.31602 9.47555 6.37055 9.60799 6.37624C9.62286 6.37805 9.63761 6.36934 9.64565 6.35643C9.65374 6.34352 9.65424 6.32724 9.64696 6.31387L9.6193 6.26284C9.69921 6.28977 9.81786 6.31127 9.98043 6.29505C9.99596 6.29349 10.0093 6.28362 10.0153 6.26918C10.0213 6.25477 10.0188 6.23824 10.009 6.22618L9.94418 6.14721C10.0769 6.12512 10.3493 6.06102 10.5212 5.89434C10.4929 5.97227 10.4468 6.05259 10.3709 6.09655C10.3602 6.10274 10.3529 6.11334 10.3506 6.12543C10.3483 6.13752 10.3515 6.15015 10.3592 6.15977C10.3606 6.16159 10.4974 6.34015 10.4548 6.80683C10.3765 6.76662 10.2261 6.67105 10.1411 6.49855C10.132 6.48027 10.1115 6.47118 10.0914 6.47662C10.0717 6.48227 10.059 6.50124 10.0611 6.52162C10.0667 6.57643 10.0713 6.66405 10.0663 6.72571C10.0206 6.69296 9.95665 6.63943 9.93024 6.58093C9.9228 6.56434 9.90561 6.55399 9.88758 6.55627C9.86952 6.55802 9.85465 6.57109 9.85052 6.58874C9.83983 6.63477 9.82558 6.68812 9.81399 6.7243C9.7719 6.69793 9.71599 6.65624 9.69274 6.6134C9.68377 6.5968 9.66496 6.58812 9.64633 6.5923C9.6279 6.59637 9.61446 6.6123 9.61336 6.63118C9.61061 6.68012 9.60415 6.75562 9.59593 6.8078C9.55705 6.78399 9.50236 6.74802 9.46196 6.71146C9.45099 6.70155 9.43565 6.69787 9.42155 6.70224C9.40743 6.70643 9.39649 6.71771 9.39268 6.73202L9.37099 6.81443C9.33465 6.79333 9.28427 6.75971 9.25133 6.71949C9.23658 6.7014 9.2099 6.69874 9.1919 6.71355C9.1738 6.7283 9.17115 6.75496 9.18596 6.77299C9.25486 6.85718 9.37574 6.91277 9.38086 6.91508C9.39227 6.92018 9.40515 6.92005 9.41649 6.9148C9.42777 6.90946 9.43608 6.8994 9.43927 6.88733L9.45783 6.8168C9.5264 6.86783 9.59977 6.90808 9.60361 6.91018C9.61424 6.9159 9.6268 6.9168 9.63821 6.91287C9.64961 6.90874 9.65868 6.89996 9.66315 6.88877C9.67552 6.85777 9.68424 6.79418 9.68983 6.73783C9.74758 6.78802 9.8124 6.8208 9.81643 6.8228C9.83624 6.83268 9.86015 6.82568 9.87161 6.80674C9.88355 6.78674 9.89774 6.74196 9.90961 6.69943C9.97808 6.77655 10.0701 6.82943 10.0752 6.83237C10.0859 6.83837 10.0988 6.8394 10.1104 6.8354C10.1221 6.83121 10.1312 6.82218 10.1356 6.81062C10.1484 6.77708 10.1526 6.72405 10.1531 6.67193C10.2336 6.7703 10.3268 6.83296 10.3926 6.8693C10.3926 6.87033 10.3922 6.87124 10.3922 6.8723C10.3927 6.87974 10.4019 7.0213 10.4262 7.13418C10.3552 7.1079 10.2411 7.05437 10.1357 6.95512C10.1256 6.94552 10.1113 6.94168 10.0977 6.94458C10.0841 6.94755 10.0728 6.95705 10.0675 6.96996L10.035 7.0503L9.89896 6.95165C9.88696 6.94296 9.87118 6.94112 9.85736 6.94705C9.84365 6.95296 9.83408 6.96562 9.83215 6.98043L9.81986 7.07474C9.7903 7.05333 9.75483 7.02502 9.72952 6.99655C9.7139 6.97899 9.68708 6.97752 9.66983 6.99302C9.6524 7.00855 9.6508 7.03527 9.6663 7.05271C9.72621 7.12008 9.82674 7.18152 9.83099 7.18408C9.84327 7.19165 9.8584 7.19221 9.87124 7.18605C9.88418 7.17987 9.89302 7.16762 9.89493 7.1534L9.90683 7.06183L10.029 7.15049C10.0395 7.15808 10.053 7.16037 10.0655 7.15687C10.078 7.15327 10.0881 7.14415 10.0931 7.13215L10.1235 7.05693C10.2018 7.12127 10.2796 7.16349 10.3429 7.1914C10.3432 7.21771 10.3473 7.32971 10.3946 7.41805C10.3171 7.41602 10.1957 7.40243 10.0833 7.34618C10.0643 7.33649 10.0407 7.34283 10.0289 7.36099L9.96768 7.45536L9.7144 7.28543C9.70361 7.27812 9.69002 7.27611 9.67777 7.28036C9.66543 7.28433 9.65558 7.2938 9.65111 7.30596L9.61218 7.41199C9.56555 7.35968 9.49871 7.28605 9.47408 7.26637C9.45683 7.25249 9.43174 7.25443 9.41668 7.27068C9.41596 7.27143 9.3568 7.3348 9.28596 7.38405L9.23715 7.25296C9.22902 7.23118 9.20455 7.21993 9.18274 7.22805C9.16083 7.23618 9.14971 7.26062 9.15783 7.28246L9.2248 7.46218C9.22911 7.47374 9.23824 7.48283 9.2498 7.48708C9.26133 7.49133 9.27418 7.4904 9.28499 7.4844C9.35124 7.44761 9.41318 7.39271 9.44846 7.35871C9.48768 7.39918 9.55355 7.47296 9.59552 7.52108C9.6054 7.53233 9.62033 7.53771 9.63505 7.53483C9.64974 7.53215 9.66193 7.5219 9.66708 7.50786L9.71196 7.38568L9.95621 7.54955C9.96324 7.55424 9.97146 7.55674 9.97977 7.55674C9.98255 7.55674 9.98543 7.55646 9.98824 7.55583C9.99936 7.55358 10.0091 7.54696 10.0152 7.53746L10.0798 7.43783C10.1884 7.48471 10.2969 7.49858 10.3748 7.5019C10.3744 7.51196 10.3771 7.52221 10.384 7.53061C10.3943 7.54324 10.4154 7.56808 10.4408 7.5939L10.335 7.59549C10.3232 7.59568 10.3121 7.60077 10.3042 7.60958C10.2963 7.61833 10.2925 7.62999 10.2936 7.6418L10.3094 7.80733C10.251 7.79424 10.1584 7.76877 10.0981 7.7293C10.0841 7.72018 10.0663 7.71996 10.0523 7.72886L9.86752 7.84549L9.77283 7.58796C9.76702 7.57208 9.75236 7.56127 9.73549 7.5603C9.71711 7.55899 9.70283 7.56852 9.69527 7.58365L9.59149 7.79118L9.51877 7.67521C9.51121 7.66321 9.49818 7.65577 9.48402 7.6554C9.46993 7.65561 9.45655 7.66177 9.44833 7.67336C9.44762 7.6744 9.38874 7.75752 9.32127 7.81968L9.27302 7.66733C9.26811 7.65193 9.25493 7.64065 9.2389 7.63827C9.22277 7.63615 9.20696 7.64286 9.19783 7.65624C9.19718 7.65724 9.14508 7.73293 9.07896 7.80265L9.06702 7.61402C9.06612 7.59971 9.05799 7.58677 9.04537 7.57977C9.0328 7.57274 9.01749 7.57258 9.00483 7.57943C8.98665 7.58918 8.95302 7.6068 8.91783 7.62418C8.96758 7.5209 9.02402 7.3758 8.99193 7.30105C8.98237 7.27874 8.96437 7.26396 8.94283 7.2548C8.94149 7.25387 8.94058 7.25252 8.93915 7.25174C8.93718 7.25068 8.93505 7.25062 8.93302 7.24987C8.93158 7.24946 8.93065 7.24827 8.92915 7.24793C8.92746 7.24752 8.92618 7.24765 8.92452 7.2473C8.92365 7.24721 8.92283 7.24702 8.92193 7.24696C8.86458 7.23502 8.82549 7.25102 8.80293 7.26749C8.77987 7.28437 8.76465 7.30674 8.75468 7.3283C8.7284 7.30293 8.69665 7.26508 8.67615 7.21627C8.66968 7.20074 8.65455 7.19055 8.63777 7.19033C8.62093 7.18927 8.60568 7.19996 8.59868 7.21527ZM8.27712 6.7434C8.50571 6.85358 8.78665 6.86577 8.86343 6.86718C8.90018 6.91283 8.93602 6.95643 8.96477 6.99065C8.89452 6.99093 8.82287 6.99887 8.76596 7.00737L8.77599 6.9949C8.7859 6.98255 8.78805 6.96571 8.78165 6.95124C8.77527 6.93683 8.76127 6.92715 8.74555 6.92618C8.45849 6.90912 8.1423 6.80937 8.13918 6.80827C8.1393 6.8083 8.13905 6.80824 8.13918 6.80827C8.09206 6.79405 8.06399 6.76968 8.06124 6.74002C8.05912 6.71662 8.07212 6.69758 8.07996 6.69349C8.12559 6.66993 8.22159 6.71646 8.27712 6.7434ZM8.67662 6.76724C8.68574 6.76068 8.69249 6.75127 8.69427 6.74002L8.70665 6.66074C8.73199 6.69762 8.76271 6.73843 8.7944 6.77955C8.76168 6.7773 8.72146 6.77343 8.67662 6.76724ZM8.60218 6.75527C8.58155 6.75146 8.56033 6.74699 8.53887 6.74205C8.54077 6.73299 8.53965 6.7233 8.5353 6.71458C8.53409 6.71218 8.53299 6.70962 8.5319 6.70699C8.55865 6.72893 8.58337 6.74465 8.60218 6.75527ZM9.15987 6.29365C9.14065 6.31259 9.1069 6.32696 9.07533 6.30599C9.05115 6.28987 9.0459 6.2619 9.04896 6.24105C9.05143 6.2248 9.06077 6.20396 9.07924 6.19843C9.08277 6.1974 9.0868 6.19687 9.09118 6.19687C9.11146 6.19687 9.1404 6.20749 9.17346 6.22262C9.1949 6.25662 9.16593 6.28774 9.15987 6.29365ZM10.7677 6.92665C10.7798 6.93437 10.7951 6.9353 10.8083 6.92924C10.8213 6.92315 10.8303 6.91071 10.8322 6.89643C10.8393 6.84324 10.8523 6.81062 10.8709 6.79943C10.9046 6.77921 10.9862 6.81015 11.0806 6.8459C11.1525 6.87315 11.242 6.90699 11.344 6.93199C11.6102 6.99721 11.9232 6.94121 12.1993 6.89174C12.2925 6.87505 12.3824 6.85899 12.4659 6.8483C12.6406 6.82605 12.8186 6.89918 12.8632 7.01143C12.8969 7.09615 12.8451 7.1939 12.7176 7.28665C12.3641 7.54371 10.6713 7.42955 10.4987 7.41721C10.4528 7.37349 10.4348 7.28399 10.4295 7.22502C10.4574 7.23393 10.4761 7.23837 10.4785 7.2389C10.4814 7.23952 10.4843 7.2398 10.4872 7.2398C10.4993 7.2398 10.511 7.23455 10.5192 7.22521C10.5292 7.21352 10.5322 7.19743 10.5269 7.18296C10.5006 7.11099 10.4861 6.97802 10.48 6.90996C10.4912 6.91302 10.503 6.91193 10.513 6.90577C10.524 6.89902 10.5312 6.88752 10.5328 6.87471C10.5828 6.4499 10.4956 6.2284 10.4498 6.14543C10.4609 6.13696 10.4713 6.1278 10.4812 6.11824C10.4843 6.31902 10.6007 6.48049 10.6484 6.53815C10.5633 6.73071 10.6868 6.87537 10.7677 6.92665Z" fill="#464655"/>
</g>
<defs>
<clipPath id="clip0_5367_190606">
<rect x="15" y="1" width="14" height="14" rx="2" transform="rotate(90 15 1)" fill="white"/>
</clipPath>
</defs>
</svg>
