<svg width="16" height="16" viewBox="0 0 16 16" fill="none" xmlns="http://www.w3.org/2000/svg">
<rect x="1" y="1" width="14" height="14" rx="2" fill="#41479B"/>
<path d="M15 5.66602H1V10.3327H15V5.66602Z" fill="white"/>
<path d="M7.99401 9.24408C7.32855 9.24408 6.78711 8.70267 6.78711 8.03717C6.78711 7.75289 6.88786 7.47683 7.07086 7.25977L7.12358 7.3042C6.95105 7.50883 6.85605 7.76911 6.85605 8.03717C6.85605 8.66458 7.36651 9.17511 7.99398 9.17511L7.99401 9.24408Z" fill="#50AF69"/>
<path d="M7.55228 8.88672C7.53722 8.91244 7.52975 8.94775 7.5265 8.98359C7.51287 8.97378 7.49844 8.96466 7.48275 8.957C7.48275 8.957 7.45903 9.04056 7.47756 9.10072C7.47756 9.10072 7.41466 9.1085 7.35691 9.16644C7.35691 9.16644 7.37681 9.1805 7.41097 9.19516C7.35362 9.23991 7.33594 9.28416 7.33594 9.28416C7.67437 9.45337 7.83656 9.21734 7.84362 9.20675C7.76072 8.97022 7.55228 8.88672 7.55228 8.88672Z" fill="#50AF69"/>
<path d="M7.84375 9.20808C7.84398 9.2087 7.84424 9.20923 7.84447 9.20988V9.20703C7.84447 9.20703 7.84391 9.20782 7.84375 9.20808Z" fill="#50AF69"/>
<path d="M7.23983 8.66211C7.21773 8.6783 7.19855 8.70533 7.18264 8.73436C7.17473 8.72111 7.16592 8.70814 7.15545 8.69595C7.15545 8.69595 7.10489 8.7577 7.09855 8.81523C7.09855 8.81523 7.04267 8.79883 6.97283 8.82655C6.97283 8.82655 6.98445 8.84567 7.00789 8.87055C6.9432 8.8873 6.91211 8.91814 6.91211 8.91814C7.13552 9.18455 7.35858 9.04486 7.36839 9.03852C7.38508 8.80867 7.23983 8.66211 7.23983 8.66211Z" fill="#50AF69"/>
<path d="M7.36823 9.03773C7.3682 9.03835 7.36823 9.03888 7.36816 9.0395L7.36921 9.03711C7.36921 9.03711 7.36849 9.03757 7.36823 9.03773Z" fill="#50AF69"/>
<path d="M7.04561 8.36678C7.02149 8.37187 6.99567 8.387 6.97189 8.40491C6.9703 8.39109 6.96786 8.37719 6.9638 8.36328C6.9638 8.36328 6.89939 8.39528 6.87286 8.44019C6.87286 8.44019 6.83305 8.40597 6.76542 8.40287C6.76542 8.40287 6.76786 8.42291 6.77795 8.452C6.71861 8.44178 6.68164 8.45559 6.68164 8.45559C6.76642 8.75722 7.00139 8.72512 7.01186 8.72353C7.11055 8.54103 7.04561 8.36678 7.04561 8.36678Z" fill="#50AF69"/>
<path d="M7.01244 8.72282C7.01218 8.72328 7.01201 8.72377 7.01172 8.72426L7.01346 8.72266C7.01349 8.72269 7.0127 8.72279 7.01244 8.72282Z" fill="#50AF69"/>
<path d="M6.96909 8.03048C6.94619 8.03195 6.91953 8.04195 6.894 8.05467C6.89575 8.04248 6.89672 8.03011 6.89628 8.01758C6.89628 8.01758 6.83097 8.03755 6.79681 8.07326C6.79681 8.07326 6.76881 8.0388 6.70862 8.02789C6.70862 8.02789 6.70625 8.04558 6.70862 8.07202C6.65756 8.05598 6.62109 8.06345 6.62109 8.06345C6.62822 8.33539 6.84706 8.33598 6.85681 8.33586C6.98759 8.18948 6.96909 8.03048 6.96909 8.03048Z" fill="#50AF69"/>
<path d="M6.85645 8.33595C6.85609 8.33635 6.85583 8.33671 6.85547 8.3371L6.85737 8.33595C6.8574 8.33595 6.85668 8.33592 6.85645 8.33595Z" fill="#50AF69"/>
<path d="M6.9949 7.75312C6.9753 7.74844 6.95034 7.74991 6.92562 7.754C6.93024 7.74425 6.93427 7.73409 6.93709 7.72347C6.93709 7.72347 6.87712 7.72334 6.83921 7.74447C6.83921 7.74447 6.82465 7.70828 6.77699 7.68359C6.77699 7.68359 6.7704 7.69781 6.76555 7.72062C6.72687 7.69397 6.69434 7.69084 6.69434 7.69084C6.62996 7.92078 6.81337 7.97791 6.82159 7.98031C6.96924 7.89128 6.9949 7.75312 6.9949 7.75312Z" fill="#50AF69"/>
<path d="M6.84894 7.41427C6.84894 7.41427 6.7864 7.57805 6.8834 7.67289C6.8834 7.67289 7.00984 7.63555 7.07234 7.50408L7.01915 7.49402L6.99184 7.41211L6.90131 7.45236L6.84894 7.41427Z" fill="#50AF69"/>
<path d="M7.02565 7.15039C7.02565 7.15039 6.92768 7.29577 7.00065 7.41011C7.00065 7.41011 7.13227 7.40236 7.22293 7.28845L7.1734 7.26664L7.16537 7.18067L7.06808 7.19936L7.02565 7.15039Z" fill="#50AF69"/>
<path d="M8.00684 9.24408V9.17511C8.63427 9.17511 9.14477 8.66458 9.14477 8.03717C9.14477 7.76914 9.04977 7.50883 8.87724 7.3042L8.92996 7.25977C9.11296 7.47683 9.21371 7.75289 9.21371 8.03717C9.21371 8.70267 8.6723 9.24408 8.00684 9.24408Z" fill="#50AF69"/>
<path d="M8.4486 8.88672C8.46366 8.91244 8.47113 8.94775 8.47438 8.98359C8.48801 8.97378 8.50244 8.96466 8.51813 8.957C8.51813 8.957 8.54185 9.04056 8.52329 9.10072C8.52329 9.10072 8.5862 9.1085 8.64395 9.16644C8.64395 9.16644 8.62404 9.1805 8.58988 9.19516C8.64723 9.23991 8.66491 9.28416 8.66491 9.28416C8.32648 9.45337 8.16429 9.21734 8.15723 9.20675C8.24016 8.97022 8.4486 8.88672 8.4486 8.88672Z" fill="#50AF69"/>
<path d="M8.15697 9.20808C8.15674 9.2087 8.15648 9.20923 8.15625 9.20988V9.20703C8.15625 9.20703 8.15681 9.20782 8.15697 9.20808Z" fill="#50AF69"/>
<path d="M8.76078 8.66211C8.78288 8.6783 8.80206 8.70533 8.81794 8.73436C8.82585 8.72111 8.83466 8.70814 8.84513 8.69595C8.84513 8.69595 8.89569 8.7577 8.90203 8.81523C8.90203 8.81523 8.95791 8.79883 9.02775 8.82655C9.02775 8.82655 9.01613 8.84567 8.99269 8.87055C9.05738 8.8873 9.08847 8.91814 9.08847 8.91814C8.86506 9.18455 8.642 9.04486 8.63219 9.03852C8.61553 8.80867 8.76078 8.66211 8.76078 8.66211Z" fill="#50AF69"/>
<path d="M8.63282 9.03773C8.63285 9.03835 8.63282 9.03888 8.63288 9.0395L8.63184 9.03711C8.63184 9.03711 8.63256 9.03757 8.63282 9.03773Z" fill="#50AF69"/>
<path d="M8.95456 8.36678C8.97869 8.37187 9.0045 8.387 9.02828 8.40491C9.02987 8.39109 9.03231 8.37719 9.03637 8.36328C9.03637 8.36328 9.10078 8.39528 9.12731 8.44019C9.12731 8.44019 9.16712 8.40597 9.23475 8.40287C9.23475 8.40287 9.23231 8.42291 9.22222 8.452C9.28156 8.44178 9.31853 8.45559 9.31853 8.45559C9.23375 8.75722 8.99878 8.72512 8.98831 8.72353C8.88962 8.54103 8.95456 8.36678 8.95456 8.36678Z" fill="#50AF69"/>
<path d="M8.98832 8.72282C8.98858 8.72328 8.98875 8.72377 8.98904 8.72426L8.98731 8.72266C8.98727 8.72269 8.98806 8.72279 8.98832 8.72282Z" fill="#50AF69"/>
<path d="M9.03117 8.03048C9.05408 8.03195 9.08074 8.04195 9.10627 8.05467C9.10452 8.04248 9.10355 8.03011 9.10399 8.01758C9.10399 8.01758 9.1693 8.03755 9.20345 8.07326C9.20345 8.07326 9.23145 8.0388 9.29164 8.02789C9.29164 8.02789 9.29402 8.04558 9.29164 8.07202C9.3427 8.05598 9.37917 8.06345 9.37917 8.06345C9.37205 8.33539 9.1532 8.33598 9.14345 8.33586C9.01267 8.18948 9.03117 8.03048 9.03117 8.03048Z" fill="#50AF69"/>
<path d="M9.14353 8.33595C9.14389 8.33635 9.14415 8.33671 9.14451 8.3371L9.14258 8.33595C9.14258 8.33595 9.1433 8.33592 9.14353 8.33595Z" fill="#50AF69"/>
<path d="M9.00586 7.75312C9.02545 7.74844 9.05042 7.74991 9.07514 7.754C9.07052 7.74425 9.06648 7.73409 9.06367 7.72347C9.06367 7.72347 9.12364 7.72334 9.16155 7.74447C9.16155 7.74447 9.17611 7.70828 9.22376 7.68359C9.22376 7.68359 9.23036 7.69781 9.2352 7.72062C9.27389 7.69397 9.30642 7.69084 9.30642 7.69084C9.3708 7.92078 9.18739 7.97791 9.17917 7.98031C9.03152 7.89128 9.00586 7.75312 9.00586 7.75312Z" fill="#50AF69"/>
<path d="M9.15114 7.41427C9.15114 7.41427 9.21367 7.57805 9.11667 7.67289C9.11667 7.67289 8.99023 7.63555 8.92773 7.50408L8.98092 7.49402L9.00823 7.41211L9.09877 7.45236L9.15114 7.41427Z" fill="#50AF69"/>
<path d="M8.9756 7.15039C8.9756 7.15039 9.07357 7.29577 9.0006 7.41011C9.0006 7.41011 8.86898 7.40236 8.77832 7.28845L8.82785 7.26664L8.83588 7.18067L8.93316 7.19936L8.9756 7.15039Z" fill="#50AF69"/>
<path d="M8.00004 8.51758L7.89341 8.67751C7.87519 8.70483 7.87879 8.7412 7.90204 8.76442L8.00004 8.86242L8.09804 8.76442C8.12125 8.7412 8.12485 8.70483 8.10666 8.67751L8.00004 8.51758Z" fill="#41479B"/>
<path d="M8.04624 8.67751L8.00069 8.51758L7.95513 8.67751C7.94736 8.70483 7.9489 8.7412 7.9588 8.76442L8.00069 8.86242L8.04254 8.76442C8.05248 8.74117 8.05404 8.70483 8.04624 8.67751Z" fill="white"/>
<path d="M8.00105 7.08533V6.6543C8.00105 6.6543 7.83727 6.88992 7.86312 7.23473" fill="#41479B"/>
<path d="M7.2661 7.08594C7.02916 7.60019 7.2722 8.02331 7.3232 8.10297C7.32454 8.10509 7.66154 7.55997 7.66154 7.55997L7.2661 7.08594Z" fill="#41479B"/>
<path d="M7.5145 7.79695C7.47712 7.68055 7.47172 7.54461 7.51659 7.38864L7.36997 7.21289C7.2495 7.53752 7.29934 7.7772 7.41993 7.9492C7.44953 7.90161 7.4824 7.84867 7.5145 7.79695Z" fill="white"/>
<path d="M7.65541 7.58977C7.64513 7.58977 7.63498 7.58518 7.62816 7.57643L7.19576 7.02046C7.18404 7.00543 7.18676 6.98377 7.20179 6.97211C7.21688 6.9604 7.23848 6.96315 7.25017 6.97818L7.68257 7.53415C7.69429 7.54918 7.69157 7.57083 7.67654 7.58249C7.67026 7.58743 7.66279 7.58977 7.65541 7.58977Z" fill="#F8CB32"/>
<path d="M6.96602 7.62109C6.82808 9.0004 7.93155 8.65556 8.00049 8.51765L7.31083 8.17284L7.44877 7.89697L6.96602 7.62109Z" fill="#41479B"/>
<path d="M7.29871 7.78133L7.10649 7.66602C7.06324 8.48564 7.50093 8.62214 7.82377 8.58145C7.56205 8.54633 7.30055 8.35308 7.29871 7.78133Z" fill="white"/>
<path d="M7.44843 7.93327C7.44218 7.93327 7.43586 7.93158 7.43018 7.92802L6.87849 7.58327C6.86237 7.57317 6.85746 7.55189 6.86755 7.5358C6.87762 7.51955 6.89887 7.51467 6.91508 7.52483L7.46677 7.86958C7.4829 7.87967 7.4878 7.90095 7.47771 7.91705C7.47115 7.92755 7.4599 7.93327 7.44843 7.93327Z" fill="#F8CB32"/>
<path d="M8.7343 7.08594C8.97124 7.60019 8.72821 8.02331 8.67721 8.10297C8.67587 8.10509 8.33887 7.55997 8.33887 7.55997L8.7343 7.08594Z" fill="#41479B"/>
<path d="M8.48549 7.79695C8.52287 7.68055 8.52827 7.54461 8.4834 7.38864L8.63002 7.21289C8.75049 7.53752 8.70065 7.7772 8.58006 7.9492C8.55046 7.90164 8.51759 7.84867 8.48549 7.79695Z" fill="white"/>
<path d="M8.34499 7.58974C8.33761 7.58974 8.33011 7.5874 8.32386 7.58246C8.30883 7.57081 8.30611 7.54912 8.31783 7.53412L8.75024 6.97815C8.76195 6.96312 8.78358 6.96043 8.79861 6.97209C8.81364 6.98374 8.81636 7.00543 8.80464 7.02043L8.37224 7.5764C8.36545 7.58518 8.35527 7.58974 8.34499 7.58974Z" fill="#F8CB32"/>
<path d="M9.03447 7.62109C9.1724 9.0004 8.06894 8.65556 8 8.51765L8.68965 8.17284L8.55172 7.89697L9.03447 7.62109Z" fill="#41479B"/>
<path d="M8.70084 7.77937L8.89306 7.66406C8.93631 8.48369 8.49862 8.62019 8.17578 8.5795C8.4375 8.54437 8.699 8.35115 8.70084 7.77937Z" fill="white"/>
<path d="M8.5521 7.93135C8.54063 7.93135 8.52938 7.92563 8.52282 7.9151C8.51273 7.89901 8.51766 7.87772 8.53376 7.86763L9.08544 7.52288C9.10166 7.51269 9.12288 7.51763 9.13297 7.53385C9.14307 7.54994 9.13816 7.57123 9.12204 7.58132L8.57035 7.92607C8.56466 7.92966 8.55835 7.93135 8.5521 7.93135Z" fill="#F8CB32"/>
<path d="M8.00048 7.96581C8.15285 7.96581 8.27636 7.8423 8.27636 7.68994C8.27636 7.53758 8.15285 7.41406 8.00048 7.41406C7.84812 7.41406 7.72461 7.53758 7.72461 7.68994C7.72461 7.8423 7.84812 7.96581 8.00048 7.96581Z" fill="#FFE6E6"/>
<path d="M8.00024 7.82666C8.07642 7.82666 8.13818 7.7649 8.13818 7.68872C8.13818 7.61254 8.07642 7.55078 8.00024 7.55078C7.92406 7.55078 7.8623 7.61254 7.8623 7.68872C7.8623 7.7649 7.92406 7.82666 8.00024 7.82666Z" fill="white"/>
<path d="M8.00038 8.13702C7.98127 8.13702 7.96582 8.12161 7.96582 8.10255V7.68877C7.96582 7.6697 7.98127 7.6543 8.00038 7.6543C8.01949 7.6543 8.03494 7.6697 8.03494 7.68877V8.10255C8.03494 8.12161 8.01949 8.13702 8.00038 8.13702Z" fill="#F8CB32"/>
<path d="M8.94244 8.51169H7.09473L7.31026 8.10156H8.69532L8.94244 8.51169Z" fill="#5AA0E6"/>
<path d="M8.05664 8.17775H8.53717L8.3877 8.02828C8.38067 8.02125 8.37208 8.01594 8.36267 8.01281L8.31064 7.99547C8.29189 7.98922 8.2713 7.992 8.25486 8.00294L8.08873 8.11369L8.05664 8.17775Z" fill="#FFB750"/>
<path d="M7.89258 8.2039H8.46611L8.2877 8.0255C8.27933 8.01712 8.26908 8.01078 8.2578 8.00703L8.1957 7.98634C8.17333 7.9789 8.14873 7.98215 8.12911 7.99528L7.93083 8.12749L7.89258 8.2039Z" fill="#FFC455"/>
<path d="M7.69336 8.23233H8.38595L8.17051 8.01689C8.16039 8.00677 8.14805 7.99914 8.13442 7.99458L8.05942 7.96958C8.03239 7.96058 8.0027 7.96455 7.97902 7.98033L7.73958 8.13995L7.69336 8.23233Z" fill="#FFCD55"/>
<path d="M7.49609 8.25942H8.28909L8.0424 8.01273C8.03078 8.00111 8.01665 7.99239 8.00106 7.98717L7.91519 7.95854C7.88422 7.94823 7.85025 7.95279 7.82309 7.97089L7.54891 8.15367L7.49609 8.25942Z" fill="#FFD25A"/>
<path d="M7.17285 8.30966H8.20732L7.88554 7.98788C7.87041 7.97276 7.85194 7.96132 7.8316 7.95457L7.7196 7.91723C7.67923 7.90379 7.63488 7.9097 7.59948 7.93332L7.24182 8.17173L7.17285 8.30966Z" fill="#F8CB32"/>
<path d="M8.07487 7.75139H7.92578L7.96013 7.60742H8.01194C8.02872 7.60742 8.04331 7.61895 8.04722 7.6353L8.07487 7.75139Z" fill="#FF334B"/>
<path d="M8.0658 7.77477H7.93192C7.92095 7.77477 7.91211 7.76589 7.91211 7.75495V7.74833C7.91211 7.73736 7.92102 7.72852 7.93192 7.72852H8.0658C8.07677 7.72852 8.08561 7.73742 8.08561 7.74833V7.75495C8.08561 7.76586 8.0767 7.77477 8.0658 7.77477Z" fill="#FF334B"/>
<path d="M7.97739 7.67295L7.94383 7.66448C7.93371 7.66192 7.92933 7.65005 7.93537 7.64155L7.95965 7.60742L7.97739 7.67295Z" fill="#FF334B"/>
<path d="M7.82815 7.33477C7.82652 7.34742 7.82487 7.36011 7.82324 7.37277C7.87684 7.34023 7.93596 7.32073 8.00018 7.32073C8.06434 7.3208 8.12349 7.34017 8.17712 7.37277C8.17549 7.36008 8.17384 7.34742 8.17221 7.33477C8.1189 7.30695 8.06152 7.29095 8.00018 7.29102C7.93887 7.29095 7.88149 7.30692 7.82815 7.33477Z" fill="#41479B"/>
<path d="M7.8301 7.31933C7.82848 7.33198 7.82682 7.34467 7.8252 7.35733C7.8782 7.32473 7.9366 7.3052 7.99998 7.30511C8.06335 7.30517 8.12176 7.3247 8.17476 7.35733C8.17313 7.34464 8.17148 7.33198 8.16985 7.31933C8.11713 7.2913 8.06051 7.27542 7.99995 7.27539C7.93945 7.27539 7.88282 7.29136 7.8301 7.31933Z" fill="#5AA0E6"/>
<path d="M7.83206 7.30386C7.83043 7.31652 7.82877 7.3292 7.82715 7.34186C7.87962 7.30917 7.93737 7.28948 7.99996 7.28952C8.06259 7.28952 8.1203 7.30917 8.17277 7.34186C8.17115 7.3292 8.16949 7.31652 8.16787 7.30386C8.11574 7.27586 8.05977 7.2598 7.99993 7.25977C7.94021 7.25973 7.88424 7.27583 7.83206 7.30386Z" fill="#9BC800"/>
<path d="M7.83401 7.28647C7.83238 7.29916 7.83073 7.31181 7.8291 7.32447C7.88098 7.29169 7.93791 7.27194 7.99969 7.27194C8.06144 7.272 8.11841 7.29162 8.17029 7.32447C8.16866 7.31181 8.16701 7.29912 8.16538 7.28647C8.11385 7.25834 8.05869 7.24222 7.99973 7.24219C7.9407 7.24225 7.88554 7.25834 7.83401 7.28647Z" fill="#FFE14E"/>
<path d="M7.83694 7.26905C7.83531 7.2817 7.83366 7.29439 7.83203 7.30705C7.88331 7.27414 7.93944 7.25439 8.00037 7.25436C8.06131 7.25442 8.11747 7.27411 8.16872 7.30705C8.16709 7.29439 8.16544 7.2817 8.16381 7.26905C8.11291 7.24083 8.0585 7.22464 8.00037 7.22461C7.94225 7.22467 7.88781 7.2408 7.83694 7.26905Z" fill="#FFB14E"/>
<path d="M7.83739 7.26133C7.83627 7.2702 7.83511 7.27908 7.83398 7.28795C7.88458 7.25502 7.93995 7.23505 7.99995 7.23505C8.05995 7.23502 8.1153 7.25495 8.16592 7.28795C8.1648 7.27908 8.16364 7.2702 8.16252 7.26133C8.11189 7.23308 8.0578 7.21686 7.99998 7.2168C7.94214 7.21673 7.88802 7.23305 7.83739 7.26133Z" fill="#FF334B"/>
<path d="M8.9655 8.55137H7.03448C7.02176 8.55137 7.01007 8.54437 7.00407 8.53318C6.99807 8.52193 6.99876 8.50831 7.00579 8.49778L7.97132 7.0495C7.9841 7.03038 8.01591 7.03038 8.02869 7.0495L8.99422 8.49778C9.00125 8.50837 9.00194 8.52197 8.99594 8.53318C8.98991 8.54437 8.97822 8.55137 8.9655 8.55137ZM7.09888 8.4824H8.9011L7.99997 7.13081L7.09888 8.4824Z" fill="#F8CB32"/>
<path d="M8.00038 6.75766C7.98127 6.75766 7.96582 6.74225 7.96582 6.72319V6.58525C7.96582 6.56619 7.98127 6.55078 8.00038 6.55078C8.01949 6.55078 8.03494 6.56619 8.03494 6.58525V6.72319C8.03494 6.74225 8.01949 6.75766 8.00038 6.75766Z" fill="#F8CB32"/>
<path d="M8.06889 6.75839H7.93095C7.91189 6.75839 7.89648 6.74298 7.89648 6.72392C7.89648 6.70486 7.91189 6.68945 7.93095 6.68945H8.06889C8.08795 6.68945 8.10336 6.70486 8.10336 6.72392C8.10336 6.74298 8.08795 6.75839 8.06889 6.75839Z" fill="#F8CB32"/>
<path d="M8.00011 9.24078C7.99764 9.24078 7.99508 9.2405 7.99264 9.24C7.95889 9.23244 7.84627 9.20544 7.81305 9.17253C7.77086 9.13063 7.77064 9.06228 7.81245 9.02006C7.83277 8.99966 7.85977 8.98834 7.88855 8.98828H7.88892C7.91758 8.98828 7.94452 8.99938 7.96486 9.01959C7.99808 9.05259 8.02592 9.16494 8.03367 9.19859C8.03633 9.21013 8.03289 9.22225 8.02455 9.23066C8.01805 9.23719 8.0092 9.24078 8.00011 9.24078ZM7.88892 9.05719C7.87974 9.06022 7.8687 9.06128 7.86136 9.06863C7.8463 9.08375 7.84639 9.10841 7.86161 9.12353C7.86995 9.13166 7.90723 9.14578 7.95192 9.1585C7.93886 9.11397 7.92452 9.07681 7.91627 9.06847L7.94055 9.04403L7.91623 9.06847C7.90892 9.06116 7.89924 9.05719 7.88892 9.05719Z" fill="#41479B"/>
<path d="M8.00029 9.24084C7.9912 9.24084 7.98235 9.23725 7.97582 9.23066C7.96751 9.22225 7.96404 9.21009 7.9667 9.19859C7.97445 9.16491 8.00232 9.05259 8.03551 9.01959C8.05595 8.99931 8.08029 8.99012 8.11182 8.98828C8.1406 8.98834 8.1676 8.99966 8.18789 9.02006C8.22979 9.06231 8.22951 9.13066 8.18735 9.17247C8.1541 9.20547 8.04148 9.23247 8.00773 9.24003C8.00532 9.24056 8.00276 9.24084 8.00029 9.24084ZM8.05985 9.04406L8.08414 9.0685C8.07589 9.07684 8.06154 9.11403 8.04848 9.15853C8.09317 9.14581 8.13045 9.13175 8.13882 9.1235C8.15395 9.10847 8.15407 9.08384 8.13901 9.06869C8.13173 9.06134 8.12201 9.05725 8.11163 9.05725H8.11151C8.1012 9.05725 8.09151 9.06122 8.0842 9.0685L8.05985 9.04406ZM8.05985 9.04406H8.06054H8.05985Z" fill="#41479B"/>
<path d="M7.86259 9.44775C7.84353 9.44775 7.82812 9.43235 7.82812 9.41329C7.82812 9.25585 7.97872 9.17875 7.98512 9.17554C8.00225 9.16697 8.02278 9.17397 8.03131 9.19088C8.03987 9.20785 8.03303 9.22854 8.01609 9.23716C8.01487 9.23779 7.89712 9.29891 7.89712 9.41325C7.89709 9.43235 7.88166 9.44775 7.86259 9.44775Z" fill="#41479B"/>
<path d="M8.13816 9.44772C8.11909 9.44772 8.10369 9.43232 8.10369 9.41325C8.10369 9.29891 7.98594 9.23772 7.98472 9.23716C7.96778 9.22854 7.96097 9.20785 7.9695 9.19088C7.97809 9.17397 7.99859 9.16697 8.01569 9.17554C8.02209 9.17879 8.17269 9.25582 8.17269 9.41329C8.17263 9.43232 8.15722 9.44772 8.13816 9.44772Z" fill="#41479B"/>
</svg>
