<svg width="24" height="24" viewBox="0 0 24 24" fill="none" xmlns="http://www.w3.org/2000/svg">
<path d="M3.27225 5.46399H8.52025V18.216H5.19225V8.21599H3.27225V5.46399Z" fill="black"/>
<path d="M13.0957 14.04C13.3197 14.616 13.6237 15.048 13.9917 15.336C14.3437 15.64 14.8397 15.784 15.4797 15.784C16.0557 15.784 16.5197 15.64 16.8717 15.32C17.2237 15.016 17.3997 14.6 17.3997 14.088C17.3997 13.576 17.2077 13.176 16.8557 12.872C16.4877 12.584 16.0237 12.424 15.4477 12.392C14.6797 12.376 14.1197 12.584 13.7357 13.032H10.7597V5.46399H20.0557V8.21599H14.0877V10.136C14.3917 9.97599 14.7437 9.84799 15.1277 9.75199C15.4957 9.68799 15.8797 9.63999 16.2957 9.63999C16.8077 9.63999 17.3357 9.73599 17.8637 9.92799C18.3757 10.12 18.8557 10.408 19.2877 10.776C19.7037 11.16 20.0557 11.608 20.3277 12.152C20.5837 12.712 20.7277 13.352 20.7277 14.056C20.7277 14.664 20.5997 15.24 20.3597 15.784C20.1037 16.328 19.7517 16.808 19.3037 17.224C18.8397 17.624 18.2797 17.944 17.6397 18.184C16.9837 18.408 16.2637 18.536 15.4637 18.536C14.7757 18.536 14.1517 18.456 13.5757 18.296C12.9997 18.136 12.4877 17.896 12.0397 17.608C11.5917 17.304 11.2077 16.952 10.9197 16.536C10.6157 16.12 10.4077 15.672 10.2957 15.16L13.0957 14.04Z" fill="black"/>
</svg>
