<svg width="24" height="24" viewBox="0 0 24 24" fill="none" xmlns="http://www.w3.org/2000/svg">
<path d="M10.088 18.412L12.104 14.204C11.848 14.236 11.624 14.252 11.416 14.252C10.888 14.252 10.36 14.156 9.848 13.932C9.304 13.724 8.84 13.42 8.424 13.036C7.992 12.668 7.656 12.22 7.4 11.676C7.128 11.164 7 10.572 7 9.93197C7 9.17997 7.144 8.50797 7.464 7.93197C7.752 7.35597 8.152 6.87597 8.664 6.49197C9.16 6.10797 9.736 5.81997 10.376 5.62797C11.016 5.43597 11.672 5.33997 12.344 5.33997C13.112 5.33997 13.848 5.46797 14.536 5.70797C15.208 5.96397 15.768 6.31597 16.248 6.76397C16.696 7.24397 17.032 7.80397 17.24 8.47597C17.432 9.14797 17.432 9.91597 17.24 10.748C17.176 11.036 17.064 11.356 16.904 11.676L16.392 12.748L13.672 18.412H10.088ZM12.152 11.516C12.76 11.516 13.208 11.356 13.528 11.004C13.832 10.684 13.992 10.268 13.992 9.78797C13.992 9.30797 13.832 8.90797 13.512 8.57197C13.192 8.25197 12.728 8.07597 12.152 8.07597C11.56 8.07597 11.112 8.25197 10.792 8.57197C10.472 8.90797 10.312 9.30797 10.312 9.78797C10.312 10.268 10.456 10.684 10.776 11.004C11.08 11.356 11.544 11.516 12.152 11.516Z" fill="black"/>
</svg>
