<svg width="24" height="24" viewBox="0 0 24 24" fill="none" xmlns="http://www.w3.org/2000/svg">
<path d="M3.29625 5.63601H8.54425V18.388H5.21625V8.38801H3.29625V5.63601Z" fill="black"/>
<path d="M14.5597 13.06C15.2797 12.484 15.8398 11.908 16.2558 11.316C16.6398 10.74 16.8477 10.196 16.8477 9.68401C16.8477 9.52401 16.8158 9.33201 16.7838 9.14001C16.7198 8.96401 16.6398 8.78801 16.5437 8.62801C16.4158 8.48401 16.2717 8.35601 16.0798 8.26001C15.8878 8.16401 15.6477 8.11601 15.3597 8.11601C14.1757 8.11601 13.3117 8.83601 12.7997 10.244L10.2557 8.91601C10.4157 8.34001 10.6717 7.82801 11.0237 7.38001C11.3597 6.93201 11.7597 6.56401 12.2397 6.24401C12.6877 5.95601 13.2157 5.73201 13.7917 5.57201C14.3517 5.42801 14.9437 5.36401 15.5837 5.36401C16.2397 5.38001 16.8638 5.49201 17.4398 5.70001C17.9998 5.92401 18.4958 6.21201 18.9117 6.59601C19.3278 6.98001 19.6477 7.44401 19.8878 7.97201C20.1118 8.51601 20.2238 9.12401 20.2078 9.76401C20.1757 10.244 20.0957 10.676 19.9357 11.092C19.7597 11.524 19.5358 11.924 19.2798 12.308C19.0078 12.708 18.7037 13.076 18.3518 13.428C17.9998 13.796 17.6158 14.132 17.2318 14.452L15.7598 15.652H20.7038V18.388H10.6077V16.244L14.5597 13.06Z" fill="black"/>
</svg>
