<svg width="16" height="16" viewBox="0 0 16 16" fill="none" xmlns="http://www.w3.org/2000/svg">
<g clip-path="url(#clip0_5367_192535)">
<rect x="15" y="0.974609" width="14" height="14" rx="2" transform="rotate(90 15 0.974609)" fill="#41479B"/>
<path d="M15.7241 0.974609H11.3103L0.0844727 14.87C0.134129 14.9342 0.201254 14.9746 0.275848 14.9746H4.68963L15.9155 1.0792C15.8659 1.01493 15.7987 0.974609 15.7241 0.974609Z" fill="#F8CB32"/>
<path d="M11.3103 0.974609H0.275875C0.123531 0.974609 0 1.13955 0 1.34301V14.6062C0 14.71 0.0327188 14.803 0.0844688 14.87L11.3103 0.974609Z" fill="#73AF00"/>
<path d="M15.9153 1.08008L4.68945 14.9755H15.7239C15.8763 14.9755 15.9998 14.8105 15.9998 14.607V1.34389C15.9998 1.24001 15.9671 1.14702 15.9153 1.08008Z" fill="#FF334B"/>
</g>
<defs>
<clipPath id="clip0_5367_192535">
<rect x="15" y="0.974609" width="14" height="14" rx="2" transform="rotate(90 15 0.974609)" fill="white"/>
</clipPath>
</defs>
</svg>
