<svg width="16" height="16" viewBox="0 0 16 16" fill="none" xmlns="http://www.w3.org/2000/svg">
<g clip-path="url(#clip0_5367_192489)">
<rect x="15" y="1" width="14" height="14" rx="2" transform="rotate(90 15 1)" fill="#FF334B"/>
<path d="M15 1.24139L15 14.7586C15 14.8919 14.835 15 14.6316 15L10.3333 15L10.3333 1L14.6316 1C14.835 1 15 1.10809 15 1.24139Z" fill="#F8CB32"/>
<path d="M5.66699 1L5.66699 15L1.36876 15C1.1653 15 1.00032 14.8919 1.00032 14.7586L1.00033 1.24139C1.00033 1.10809 1.1653 1 1.36876 1L5.66699 1Z" fill="#73AF00"/>
<path d="M8.05724 6.98854L8.29424 7.69919L9.04334 7.70497C9.10137 7.70541 9.12543 7.7795 9.07874 7.81397L8.47612 8.25897L8.70209 8.97322C8.71962 9.02857 8.65662 9.07432 8.60937 9.04057L7.99993 8.60497L7.39049 9.0406C7.34327 9.07435 7.28028 9.02857 7.29778 8.97325L7.52374 8.259L6.92112 7.814C6.87443 7.77953 6.89849 7.70544 6.95652 7.705L7.70562 7.69922L7.94262 6.98857C7.96103 6.9335 8.03887 6.9335 8.05724 6.98854Z" fill="#F8CB32"/>
</g>
<defs>
<clipPath id="clip0_5367_192489">
<rect x="15" y="1" width="14" height="14" rx="2" transform="rotate(90 15 1)" fill="white"/>
</clipPath>
</defs>
</svg>
