<svg width="16" height="16" viewBox="0 0 16 16" fill="none" xmlns="http://www.w3.org/2000/svg">
<g clip-path="url(#clip0_5367_191888)">
<rect x="0.675781" y="1" width="14" height="14" rx="2" fill="white"/>
<path d="M15.3999 13.4827H-0.0483443C-0.200688 13.4827 -0.324219 13.3592 -0.324219 13.2069V3.27587C-0.324219 3.12353 -0.200688 3 -0.0483443 3H15.3999C15.5523 3 15.6758 3.12353 15.6758 3.27587V13.2069C15.6757 13.3592 15.5522 13.4827 15.3999 13.4827Z" fill="white"/>
<path d="M15.3999 15H-0.0483437C-0.200687 15 -0.324219 14.8278 -0.324219 14.6154V10H15.6758V14.6154C15.6758 14.8278 15.5522 15 15.3999 15Z" fill="#FF334B"/>
<path d="M10.7106 6.86259V6.31087H10.1588V4.93156H10.4347V4.37984H8.77953V4.93156H9.05538V6.31087H8.22781V4.37984H8.50366V3.82812H6.8485V4.37984H7.12435V6.31087H6.29679V4.93156H6.57263V4.37984H4.91748V4.93156H5.19332V6.31087H4.6416V6.86259H4.91748V9.06949H4.6416V9.62121H10.7106V9.06949H10.4347V6.86259H10.7106Z" fill="#FF334B"/>
<path d="M8.22746 9.34461H7.12402V8.24117C7.12402 7.93645 7.37102 7.68945 7.67574 7.68945C7.98046 7.68945 8.22746 7.93645 8.22746 8.24117V9.34461Z" fill="#464655"/>
<path d="M7.67529 5.48242C7.52294 5.48242 7.39941 5.60595 7.39941 5.7583V6.58589H7.95113V5.7583C7.95116 5.60595 7.82763 5.48242 7.67529 5.48242Z" fill="#464655"/>
<path d="M9.60693 5.75781C9.45459 5.75781 9.33105 5.88134 9.33105 6.03369V6.5854H9.88277V6.03369C9.8828 5.88131 9.75934 5.75781 9.60693 5.75781Z" fill="#464655"/>
<path d="M5.74462 5.75781C5.59228 5.75781 5.46875 5.88134 5.46875 6.03369V6.5854H6.02047V6.03369C6.0205 5.88131 5.89697 5.75781 5.74462 5.75781Z" fill="#464655"/>
<path d="M9.88273 9.34415H8.7793V8.51656C8.7793 8.21184 9.0263 7.96484 9.33101 7.96484C9.63573 7.96484 9.88273 8.21184 9.88273 8.51656V9.34415Z" fill="#464655"/>
<path d="M6.57218 9.34415H5.46875V8.51656C5.46875 8.21184 5.71575 7.96484 6.02047 7.96484C6.32519 7.96484 6.57218 8.21184 6.57218 8.51656V9.34415Z" fill="#464655"/>
<path d="M8.43424 10.3105C8.43424 10.2644 8.41121 10.2213 8.37283 10.1957L7.81355 9.82293V9.70615L8.28902 9.4684C8.35721 9.43433 8.38477 9.35146 8.35071 9.28333C8.31649 9.21505 8.23393 9.18758 8.16565 9.22165L7.67562 9.46668L7.18558 9.22168C7.11768 9.18761 7.03459 9.21508 7.00052 9.28336C6.96646 9.35155 6.99405 9.43436 7.06221 9.46843L7.53768 9.70615V9.82293L6.9784 10.1958C6.94002 10.2214 6.91699 10.2645 6.91699 10.3105C6.91699 10.3566 6.94002 10.3997 6.9784 10.4253L7.53768 10.7981V11.9657H6.98596V12.1769C6.98596 12.2532 7.04765 12.3149 7.1239 12.3149C7.17668 12.3149 7.22262 12.2852 7.2458 12.2416H7.53771V12.5175H7.2434C7.21959 12.4762 7.17499 12.4485 7.12393 12.4485C7.04768 12.4485 6.98599 12.5102 6.98599 12.5864V12.7933H7.53771V12.9313C7.53771 13.0075 7.5994 13.0692 7.67565 13.0692C7.7519 13.0692 7.81358 13.0075 7.81358 12.9313V12.7933V11.9657V10.7982L8.37286 10.4253C8.41121 10.3996 8.43424 10.3566 8.43424 10.3105ZM7.67562 10.5585L7.30358 10.3105L7.67562 10.0625L8.04765 10.3105L7.67562 10.5585Z" fill="#F8CB32"/>
</g>
<defs>
<clipPath id="clip0_5367_191888">
<rect x="0.675781" y="1" width="14" height="14" rx="2" fill="white"/>
</clipPath>
</defs>
</svg>
