<svg width="16" height="16" viewBox="0 0 16 16" fill="none" xmlns="http://www.w3.org/2000/svg">
<g clip-path="url(#clip0_5367_190987)">
<rect x="15" y="0.839844" width="14" height="14" rx="2" transform="rotate(90 15 0.839844)" fill="#41479B"/>
<path d="M1.10175 14.8398L9 7.83984L1.10175 0.839844C1.04097 0.908284 1 1.00746 1 1.12278V14.5569C1 14.6722 1.04097 14.7714 1.10175 14.8398Z" fill="white"/>
<path d="M3.89705 8.73453C4.39221 8.73453 4.79361 8.33313 4.79361 7.83797C4.79361 7.34281 4.39221 6.94141 3.89705 6.94141C3.40189 6.94141 3.00049 7.34281 3.00049 7.83797C3.00049 8.33313 3.40189 8.73453 3.89705 8.73453Z" fill="#F8CB32"/>
<path d="M3.89725 7.83802L3.56104 6.4932L3.89725 6.04492L4.23344 6.4932L3.89725 7.83802Z" fill="#F8CB32"/>
<path d="M3.89725 7.83789L4.23344 9.1827L3.89725 9.63098L3.56104 9.1827L3.89725 7.83789Z" fill="#F8CB32"/>
<path d="M3.89713 7.83817L2.55229 8.17439L2.104 7.83817L2.55229 7.50195L3.89713 7.83817Z" fill="#F8CB32"/>
<path d="M3.89697 7.83817L5.24179 7.50195L5.69007 7.83817L5.24179 8.17439L3.89697 7.83817Z" fill="#F8CB32"/>
<path d="M3.89697 7.83825L4.61016 6.64959L5.16488 6.57031L5.08563 7.12503L3.89697 7.83825Z" fill="#F8CB32"/>
<path d="M3.89733 7.83789L3.18411 9.02655L2.62939 9.10583L2.70868 8.55111L3.89733 7.83789Z" fill="#F8CB32"/>
<path d="M3.89733 7.83825L2.70868 7.12503L2.62939 6.57031L3.18411 6.64959L3.89733 7.83825Z" fill="#F8CB32"/>
<path d="M3.89697 7.83789L5.08563 8.55111L5.16488 9.10583L4.61016 9.02655L3.89697 7.83789Z" fill="#F8CB32"/>
<path d="M1.7397 3.95427L1.78645 4.30302L1.47157 4.46015C1.43082 4.48049 1.43938 4.54102 1.48423 4.54921L1.83035 4.61252L1.88248 4.96052C1.88923 5.00558 1.94945 5.01611 1.9711 4.97599L2.13829 4.66636L2.48535 4.7243C2.53029 4.73183 2.55892 4.67777 2.52748 4.64483L2.28467 4.39015L2.44701 4.07796C2.46804 4.03755 2.42548 3.99361 2.38442 4.01333L2.06717 4.16558L1.82045 3.91468C1.78857 3.88224 1.73367 3.90915 1.7397 3.95427Z" fill="#F8CB32"/>
<path d="M1.87883 10.7426L1.81976 11.0895L1.47245 11.1459C1.42748 11.1532 1.4177 11.2136 1.45804 11.2347L1.7697 11.3981L1.71604 11.7458C1.70911 11.7908 1.76345 11.8188 1.79604 11.7869L2.0477 11.541L2.36189 11.6995C2.40258 11.7201 2.44595 11.677 2.42576 11.6362L2.26964 11.3208L2.51745 11.071C2.54951 11.0387 2.52201 10.9841 2.47689 10.9907L2.1287 11.0417L1.9677 10.7288C1.94686 10.6884 1.88642 10.6977 1.87883 10.7426Z" fill="#F8CB32"/>
<path d="M7.3361 7.32491L7.13356 7.61266L6.79575 7.51422C6.75203 7.50147 6.71722 7.55175 6.74453 7.58819L6.95563 7.86972L6.7576 8.16059C6.73197 8.19825 6.769 8.24687 6.81213 8.23216L7.1451 8.11841L7.36053 8.39662C7.38844 8.43266 7.44613 8.41241 7.44544 8.36687L7.44013 8.01506L7.77131 7.89612C7.81419 7.88072 7.81278 7.81959 7.76925 7.80619L7.43297 7.7025L7.42222 7.35078C7.42091 7.30519 7.36231 7.28762 7.3361 7.32491Z" fill="#F8CB32"/>
<path d="M15 0.839844H1V5.50651H15V0.839844Z" fill="#464655"/>
<path d="M15 5.50586H1V10.1725H15V5.50586Z" fill="white"/>
<path d="M15 10.1738H1V14.8405H15V10.1738Z" fill="#73AF00"/>
<path d="M1.10175 14.8398L9 7.83984L1.10175 0.839844C1.04097 0.908284 1 1.00746 1 1.12278V14.5569C1 14.6722 1.04097 14.7714 1.10175 14.8398Z" fill="#FF334B"/>
<path d="M4.07166 7.12602L4.23563 7.48167L4.61591 7.38811C4.63966 7.3823 4.65931 7.40692 4.64834 7.4288L4.47253 7.77873L4.78278 8.01773C4.80216 8.03267 4.79513 8.06342 4.77119 8.06845L4.38797 8.14917L4.39456 8.54076C4.39497 8.5652 4.36653 8.57889 4.34769 8.56336L4.04566 8.31408L3.74363 8.56336C3.72475 8.57892 3.69635 8.56523 3.69675 8.54076L3.70335 8.14917L3.32013 8.06845C3.29619 8.06342 3.28919 8.03267 3.30853 8.01773L3.61878 7.77873L3.44297 7.4288C3.432 7.40692 3.45166 7.38227 3.47541 7.38811L3.85569 7.48167L4.01966 7.12602C4.02985 7.10383 4.06141 7.10383 4.07166 7.12602Z" fill="white"/>
</g>
<defs>
<clipPath id="clip0_5367_190987">
<rect x="15" y="0.839844" width="14" height="14" rx="2" transform="rotate(90 15 0.839844)" fill="white"/>
</clipPath>
</defs>
</svg>
