<svg width="16" height="16" viewBox="0 0 16 16" fill="none" xmlns="http://www.w3.org/2000/svg">
<g clip-path="url(#clip0_5367_190897)">
<rect x="15" y="1" width="14" height="14" rx="2" transform="rotate(90 15 1)" fill="#41479B"/>
<path d="M1.10175 15L9 8L1.10175 1C1.04097 1.06844 1 1.16761 1 1.28293V14.717C1 14.8324 1.04097 14.9316 1.10175 15Z" fill="white"/>
<path d="M3.89754 8.89469C4.3927 8.89469 4.7941 8.49328 4.7941 7.99813C4.7941 7.50297 4.3927 7.10156 3.89754 7.10156C3.40238 7.10156 3.00098 7.50297 3.00098 7.99813C3.00098 8.49328 3.40238 8.89469 3.89754 8.89469Z" fill="#F8CB32"/>
<path d="M3.89677 7.99817L3.56055 6.65336L3.89677 6.20508L4.23295 6.65336L3.89677 7.99817Z" fill="#F8CB32"/>
<path d="M3.89677 7.99805L4.23295 9.34286L3.89677 9.79114L3.56055 9.34286L3.89677 7.99805Z" fill="#F8CB32"/>
<path d="M3.89664 7.99833L2.5518 8.33455L2.10352 7.99833L2.5518 7.66211L3.89664 7.99833Z" fill="#F8CB32"/>
<path d="M3.89746 7.99833L5.24227 7.66211L5.69055 7.99833L5.24227 8.33455L3.89746 7.99833Z" fill="#F8CB32"/>
<path d="M3.89746 7.99841L4.61065 6.80975L5.16537 6.73047L5.08612 7.28519L3.89746 7.99841Z" fill="#F8CB32"/>
<path d="M3.89684 7.99805L3.18362 9.1867L2.62891 9.26598L2.70819 8.71127L3.89684 7.99805Z" fill="#F8CB32"/>
<path d="M3.89684 7.99841L2.70819 7.28519L2.62891 6.73047L3.18362 6.80975L3.89684 7.99841Z" fill="#F8CB32"/>
<path d="M3.89746 7.99805L5.08612 8.71127L5.16537 9.26598L4.61065 9.1867L3.89746 7.99805Z" fill="#F8CB32"/>
<path d="M1.7397 4.11443L1.78645 4.46318L1.47157 4.6203C1.43082 4.64065 1.43938 4.70118 1.48423 4.70936L1.83035 4.77268L1.88248 5.12068C1.88923 5.16574 1.94945 5.17627 1.9711 5.13615L2.13829 4.82652L2.48535 4.88446C2.53029 4.89199 2.55892 4.83793 2.52748 4.80499L2.28467 4.5503L2.44701 4.23811C2.46804 4.19771 2.42548 4.15377 2.38442 4.17349L2.06717 4.32574L1.82045 4.07483C1.78857 4.0424 1.73367 4.0693 1.7397 4.11443Z" fill="#F8CB32"/>
<path d="M1.87883 10.9028L1.81976 11.2497L1.47245 11.3061C1.42748 11.3134 1.4177 11.3737 1.45804 11.3949L1.7697 11.5582L1.71604 11.906C1.70911 11.951 1.76345 11.9789 1.79604 11.9471L2.0477 11.7012L2.36189 11.8597C2.40258 11.8802 2.44595 11.8371 2.42576 11.7963L2.26964 11.481L2.51745 11.2312C2.54951 11.1988 2.52201 11.1443 2.47689 11.1509L2.1287 11.2019L1.9677 10.889C1.94686 10.8485 1.88642 10.8578 1.87883 10.9028Z" fill="#F8CB32"/>
<path d="M7.33561 7.48506L7.13308 7.77281L6.79526 7.67437C6.75155 7.66162 6.71673 7.71191 6.74405 7.74834L6.95514 8.02987L6.75711 8.32075C6.73148 8.35841 6.76851 8.40703 6.81164 8.39231L7.14461 8.27856L7.36005 8.55678C7.38795 8.59281 7.44564 8.57256 7.44495 8.52703L7.43964 8.17522L7.77083 8.05628C7.8137 8.04087 7.8123 7.97975 7.76876 7.96634L7.43248 7.86266L7.42173 7.51094C7.42042 7.46534 7.36183 7.44778 7.33561 7.48506Z" fill="#F8CB32"/>
<path d="M1.24139 1H14.7586C14.8919 1 15 1.12373 15 1.27633V4.5H1V1.27633C1 1.12373 1.10809 1 1.24139 1Z" fill="#F8CB32"/>
<path d="M15 4.5H1V8H15V4.5Z" fill="white"/>
<path d="M15 8H1V11.5H15V8Z" fill="#FF334B"/>
<path d="M1 11.5H15V14.7237C15 14.8763 14.8919 15 14.7586 15H1.24139C1.10809 15 1 14.8763 1 14.7237V11.5Z" fill="#4173CD"/>
<path d="M1.10175 15L9 8L1.10175 1C1.04097 1.06844 1 1.16761 1 1.28293V14.717C1 14.8324 1.04097 14.9316 1.10175 15Z" fill="#73AF00"/>
<path d="M3.15265 7.99953C3.15265 7.00206 3.80468 6.15806 4.70543 5.86737C4.75278 5.85209 4.74618 5.78297 4.69684 5.7765C4.60412 5.76438 4.50965 5.75781 4.41359 5.75781C3.17553 5.75781 2.17188 6.76147 2.17188 7.99953C2.17188 9.23759 3.17553 10.2412 4.41359 10.2412C4.50965 10.2412 4.60412 10.2347 4.69684 10.2226C4.74618 10.2161 4.75278 10.147 4.70543 10.1317C3.80468 9.84102 3.15265 8.99706 3.15265 7.99953Z" fill="white"/>
<path d="M4.71659 6.28751L4.77831 6.47254L4.97334 6.47407C4.99859 6.47429 5.00906 6.50648 4.98875 6.52148L4.83184 6.63735L4.89065 6.82332C4.89828 6.84738 4.87087 6.86732 4.85031 6.85263L4.69162 6.73923L4.53294 6.85263C4.51237 6.86732 4.48497 6.84738 4.49259 6.82332L4.5514 6.63735L4.3945 6.52148C4.37419 6.50648 4.38469 6.47423 4.40991 6.47407L4.60494 6.47254L4.66665 6.28751C4.67469 6.26354 4.70859 6.26354 4.71659 6.28751Z" fill="white"/>
<path d="M4.71659 7.22498L4.77831 7.41002L4.97334 7.41155C4.99859 7.41177 5.00906 7.44395 4.98875 7.45895L4.83184 7.57483L4.89065 7.7608C4.89828 7.78486 4.87087 7.8048 4.85031 7.79011L4.69162 7.6767L4.53294 7.79011C4.51237 7.8048 4.48497 7.78486 4.49259 7.7608L4.5514 7.57483L4.3945 7.45895C4.37419 7.44395 4.38469 7.4117 4.40991 7.41155L4.60494 7.41002L4.66665 7.22498C4.67469 7.20105 4.70859 7.20105 4.71659 7.22498Z" fill="white"/>
<path d="M4.71659 8.16251L4.77831 8.34754L4.97334 8.34907C4.99859 8.34929 5.00906 8.38148 4.98875 8.39648L4.83184 8.51235L4.89065 8.69832C4.89828 8.72238 4.87087 8.74232 4.85031 8.72763L4.69162 8.61422L4.53294 8.72763C4.51237 8.74232 4.48497 8.72238 4.49259 8.69832L4.5514 8.51235L4.3945 8.39648C4.37419 8.38148 4.38469 8.34923 4.40991 8.34907L4.60494 8.34754L4.66665 8.16251C4.67469 8.13854 4.70859 8.13854 4.71659 8.16251Z" fill="white"/>
<path d="M4.71659 9.10001L4.77831 9.28504L4.97334 9.28657C4.99859 9.28679 5.00906 9.31898 4.98875 9.33398L4.83184 9.44985L4.89065 9.63582C4.89828 9.65988 4.87087 9.67982 4.85031 9.66513L4.69162 9.55173L4.53294 9.66513C4.51237 9.67982 4.48497 9.65988 4.49259 9.63582L4.5514 9.44985L4.3945 9.33398C4.37419 9.31898 4.38469 9.28673 4.40991 9.28657L4.60494 9.28504L4.66665 9.10001C4.67469 9.07604 4.70859 9.07604 4.71659 9.10001Z" fill="white"/>
</g>
<defs>
<clipPath id="clip0_5367_190897">
<rect x="15" y="1" width="14" height="14" rx="2" transform="rotate(90 15 1)" fill="white"/>
</clipPath>
</defs>
</svg>
