<svg width="16" height="16" viewBox="0 0 16 16" fill="none" xmlns="http://www.w3.org/2000/svg">
<g clip-path="url(#clip0_5367_190590)">
<rect x="1" y="1" width="14" height="14" rx="2" fill="#464655"/>
<path d="M15 10.3327V5.66602H1V10.3327H15Z" fill="white"/>
<path d="M15 1H1V5.66667H15V1Z" fill="#41479B"/>
<path d="M1 10.334H15V14.6322C15 14.8357 14.8919 15.0007 14.7586 15.0007H1.24139C1.10809 15.0007 1 14.8357 1 14.6322V10.334Z" fill="#73AF00"/>
<path d="M8.95162 8.62265L8.8875 8.65531C8.87878 8.65975 8.86937 8.66359 8.86046 8.6679L8.294 7.95234C8.41044 7.69925 8.47943 7.35381 8.47943 7.19678C8.47943 6.93875 8.31012 6.72378 8.08734 6.67831C8.07244 6.64466 8.03887 6.62109 7.99969 6.62109C7.9605 6.62109 7.92694 6.64466 7.91203 6.67831C7.68928 6.72378 7.51994 6.93878 7.51994 7.19678C7.51994 7.35381 7.58897 7.69922 7.70537 7.95234L7.13894 8.6679C7.13012 8.66362 7.12072 8.65981 7.11203 8.65537L7.04791 8.62271L6.80859 9.09315L6.87272 9.12578C7.19931 9.2919 7.589 9.37971 7.99969 9.37971C8.4104 9.37971 8.80021 9.29184 9.12687 9.12574L9.191 9.09312L8.95162 8.62265ZM8.38347 7.19678C8.38347 7.3135 8.34012 7.55884 8.25981 7.78375C8.24922 7.81337 8.23837 7.84147 8.22725 7.86809L8.14359 7.7624V7.38869H8.28753L8.09562 7.19678V6.77919C8.26087 6.82731 8.38347 6.996 8.38347 7.19678ZM7.73953 7.78372C7.65922 7.55881 7.61587 7.31347 7.61587 7.19675C7.61587 6.996 7.73847 6.82731 7.90375 6.77916V7.19675L7.71184 7.38865H7.85578V7.76237L7.77212 7.86806C7.76097 7.84147 7.75012 7.81334 7.73953 7.78372ZM7.09428 8.84884L7.11387 8.92943L7.04353 8.94862L7.09428 8.84884ZM7.01056 9.03224L7.13091 8.99943L7.153 9.09037C7.10447 9.07243 7.05675 9.0534 7.01056 9.03224ZM7.19303 8.84893C7.24778 8.87059 7.30475 8.88968 7.36331 8.90671L7.38062 8.95978L7.22909 8.99715L7.19303 8.84893ZM7.26066 9.12706L7.24606 9.06709L7.403 9.02837L7.45166 9.17746C7.38656 9.16331 7.32287 9.1464 7.26066 9.12706ZM7.47366 8.93559C7.53387 8.94962 7.59519 8.96171 7.65778 8.97087L7.68384 9.01749L7.51728 9.0694L7.47366 8.93559ZM7.55934 9.19824L7.53962 9.13784L7.71972 9.08171L7.80134 9.22768C7.71925 9.22156 7.6385 9.21181 7.55934 9.19824ZM7.77569 8.98503C7.84962 8.99203 7.9244 8.9959 7.99965 8.9959C8.01569 8.9959 8.03162 8.99503 8.04762 8.99468L8.06765 9.0254L7.84628 9.11128L7.77569 8.98503ZM7.99965 9.23577C7.97112 9.23577 7.94297 9.23456 7.91469 9.23368L7.88172 9.17471L8.10781 9.08703L8.19947 9.22756C8.13356 9.23243 8.06709 9.23577 7.99965 9.23577ZM8.15897 8.98984C8.23503 8.98474 8.31018 8.97609 8.38393 8.96387L8.40553 8.99146L8.23028 9.09915L8.15897 8.98984ZM8.30734 9.21734L8.26959 9.15943L8.45015 9.04849L8.55053 9.17684C8.47128 9.19424 8.39009 9.20768 8.30734 9.21734ZM8.49003 8.94378C8.55278 8.93024 8.61422 8.91437 8.67372 8.89578L8.69606 8.92471L8.56865 9.04431L8.49003 8.94378ZM8.65315 9.15231L8.61315 9.10118L8.74025 8.9819L8.82884 9.09662C8.77156 9.11724 8.71322 9.13624 8.65315 9.15231ZM8.76959 8.86293C8.81 8.84793 8.84971 8.83215 8.8879 8.81481L8.90665 8.85171L8.84534 8.96109L8.76959 8.86293ZM8.92228 9.06065L8.89318 9.02296L8.94593 8.92887L8.99681 9.02887C8.97246 9.04012 8.94728 9.05028 8.92228 9.06065Z" fill="#464655"/>
</g>
<defs>
<clipPath id="clip0_5367_190590">
<rect x="1" y="1" width="14" height="14" rx="2" fill="white"/>
</clipPath>
</defs>
</svg>
