<svg width="16" height="16" viewBox="0 0 16 16" fill="none" xmlns="http://www.w3.org/2000/svg">
<rect x="1" y="1" width="14" height="14" rx="2" fill="#73AF00"/>
<path d="M15 4.72266H1V11.2788H15V4.72266Z" fill="white"/>
<path d="M15 5.66602H1V10.3327H15V5.66602Z" fill="#C8414B"/>
<path d="M7.93127 6.32296L7.52959 7.52736L6.26 7.53718C6.19037 7.53774 6.16156 7.62655 6.21753 7.6679L7.23887 8.42211L6.8559 9.63264C6.8349 9.69902 6.91046 9.75392 6.96712 9.71342L7.99999 8.97514L9.0329 9.71342C9.08952 9.75389 9.16508 9.69902 9.14411 9.63264L8.76115 8.42211L9.78249 7.6679C9.83849 7.62655 9.80961 7.53771 9.74002 7.53718L8.47043 7.52736L8.06874 6.32296C8.04668 6.25693 7.9533 6.25693 7.93127 6.32296Z" fill="#F8CB32"/>
</svg>
