<svg width="20" height="25" viewBox="0 0 20 25" fill="none" xmlns="http://www.w3.org/2000/svg">
<path d="M19 2.64282V23.4519C19 23.597 18.9622 23.7366 18.8947 23.8393C18.8272 23.942 18.7354 23.9995 18.64 23.9995C18.5842 23.9995 18.5293 23.9803 18.4789 23.942L15.76 21.8734L13.0411 23.942C12.9907 23.9803 12.9358 23.9995 12.88 23.9995C12.8242 23.9995 12.7693 23.9803 12.7189 23.942L10 21.8734L7.2811 23.942C7.2307 23.9803 7.1758 23.9995 7.12 23.9995C7.0642 23.9995 7.0093 23.9803 6.9589 23.942L4.24 21.8734L1.5211 23.942C1.4662 23.9844 1.405 24.0036 1.3438 23.9995C1.2826 23.9953 1.2232 23.9666 1.171 23.9187C1.1188 23.8694 1.0756 23.8009 1.0459 23.7188C1.0153 23.6367 1 23.5449 1 23.4519V2.64282C1 2.20747 1.1134 1.78992 1.3159 1.48052C1.5184 1.1725 1.7938 1 2.08 1H17.92C18.2062 1 18.4807 1.1725 18.6832 1.48052C18.8857 1.78855 19 2.20747 19 2.64282Z" fill="#FCFCFC" stroke="#BFBFBF" stroke-miterlimit="10"/>
<path d="M4 8.13281H16" stroke="#BFBFBF" stroke-miterlimit="10" stroke-linecap="round"/>
<path d="M4 14.6953H16" stroke="#BFBFBF" stroke-miterlimit="10" stroke-linecap="round"/>
</svg>
