<svg width="15" height="14" viewBox="0 0 15 14" fill="none" xmlns="http://www.w3.org/2000/svg">
<g clip-path="url(#clip0_3866_116159)">
<path d="M14.5002 0.230882L13.8565 5.59883C13.8565 5.59883 13.8336 5.6793 13.8106 5.71378C13.7876 5.73677 13.7531 5.75976 13.7186 5.78275C13.6726 5.79424 13.6381 5.79424 13.5922 5.78275C13.5577 5.77125 13.5232 5.75976 13.4887 5.72528L11.891 4.12753L4.58044 11.4381L2.89074 13.1278L2.01716 14.0014L0.499878 12.4841L2.75281 10.2196L4.28158 8.69087L10.3737 2.61025L8.77595 1.01251C8.64951 0.886071 8.71848 0.667674 8.90239 0.644685L14.2703 0.000990757C14.4083 -0.0219983 14.5232 0.0929471 14.5002 0.230882Z" fill="#FF334B"/>
</g>
<defs>
<clipPath id="clip0_3866_116159">
<rect width="14.0004" height="14.0004" fill="white" transform="translate(0.499878)"/>
</clipPath>
</defs>
</svg>
