<svg width="16" height="16" viewBox="0 0 16 16" fill="none" xmlns="http://www.w3.org/2000/svg">
<g clip-path="url(#clip0_5367_193122)">
<rect x="15" y="1" width="14" height="14" rx="2" transform="rotate(90 15 1)" fill="#F8CB32"/>
<path d="M15 1.24139L15 14.7586C15 14.8919 14.835 15 14.6316 15L10.3333 15L10.3333 1L14.6316 1C14.835 1 15 1.10809 15 1.24139Z" fill="#FF334B"/>
<path d="M5.6665 1L5.6665 15L1.36828 15C1.16482 15 0.999837 14.8919 0.999837 14.7586L0.999837 1.24139C0.999837 1.10809 1.16482 1 1.36828 1L5.6665 1Z" fill="#41479B"/>
<path d="M9.87572 8.62131C9.87572 8.54125 9.81081 8.47631 9.73072 8.47631C9.71335 8.47631 9.69691 8.47988 9.68144 8.4855C9.60969 8.42169 9.47966 8.26334 9.61013 8.03975C9.62775 8.05347 9.64966 8.06197 9.67372 8.06197C9.73125 8.06197 9.77785 8.01534 9.77785 7.95784C9.77785 7.91241 9.74856 7.87416 9.70797 7.85994C9.81519 7.80525 9.9681 7.68916 9.96022 7.47206C9.949 7.16419 9.69682 6.99425 9.5421 7.06219C9.54266 7.05788 9.54341 7.05363 9.54341 7.04919C9.54341 6.99247 9.49744 6.9465 9.44072 6.9465C9.40585 6.9465 9.37516 6.96397 9.35663 6.99053C9.35032 6.95975 9.35107 6.90259 9.42263 6.84081C9.55553 6.72603 9.70656 6.45116 9.43169 6.25784C9.27947 6.15081 8.98853 6.09953 8.89103 6.24578C8.84875 6.30919 8.88266 6.40031 8.93094 6.42078C8.85316 6.46416 8.7056 6.52925 8.589 6.47838C8.42288 6.40591 8.51881 6.26194 8.55578 6.19747C8.62072 6.08419 8.57997 5.89844 8.36247 5.89844C8.21747 5.89844 8.145 6.04344 8.00003 6.04344C7.85506 6.04344 7.78256 5.89844 7.6376 5.89844C7.42013 5.89844 7.37935 6.08419 7.44428 6.19747C7.48125 6.26191 7.57719 6.40588 7.41106 6.47838C7.29447 6.52928 7.14694 6.46416 7.06913 6.42078C7.11738 6.40034 7.15131 6.30922 7.10903 6.24578C7.01156 6.09956 6.7206 6.15081 6.56838 6.25784C6.2935 6.45116 6.44456 6.726 6.57744 6.84081C6.649 6.90259 6.64975 6.95978 6.64344 6.99053C6.62488 6.96397 6.59419 6.9465 6.55935 6.9465C6.50263 6.9465 6.45666 6.99247 6.45666 7.04919C6.45666 7.05363 6.45741 7.05791 6.45797 7.06219C6.30325 6.99422 6.05103 7.16419 6.03985 7.47206C6.03194 7.68913 6.18488 7.80522 6.2921 7.85994C6.2515 7.87419 6.22222 7.91241 6.22222 7.95784C6.22222 8.01538 6.26885 8.06197 6.32635 8.06197C6.35041 8.06197 6.37228 8.0535 6.38994 8.03975C6.52041 8.26334 6.39041 8.42169 6.31863 8.4855C6.30319 8.47988 6.28672 8.47631 6.26935 8.47631C6.18928 8.47631 6.12435 8.54122 6.12435 8.62131C6.12435 8.69647 6.18175 8.75756 6.25503 8.76488C6.1551 8.86753 6.06544 9.09378 6.26028 9.35078C6.47322 9.63169 6.98066 9.60903 7.22531 9.61809C7.38044 9.62384 7.49713 9.70416 7.56191 9.76225C7.5205 9.78778 7.49263 9.83316 7.49263 9.88538C7.49263 9.95859 7.5471 10.0185 7.61763 10.0283C7.64325 10.0693 7.68841 10.0968 7.74031 10.0968C7.79831 10.0968 7.84797 10.0625 7.87119 10.0133C7.94775 10.0764 8.0001 10.1028 8.0001 10.1028C8.0001 10.1028 8.05244 10.0764 8.129 10.0133C8.15219 10.0625 8.20188 10.0968 8.25988 10.0968C8.31178 10.0968 8.35694 10.0693 8.38256 10.0283C8.4531 10.0185 8.50756 9.95859 8.50756 9.88538C8.50756 9.83313 8.47969 9.78775 8.43828 9.76225C8.50303 9.70416 8.61972 9.62381 8.77488 9.61809C9.01953 9.60903 9.52697 9.63169 9.73991 9.35078C9.93472 9.09378 9.8451 8.8675 9.74516 8.76488C9.81831 8.75753 9.87572 8.69647 9.87572 8.62131Z" fill="#DCBE82"/>
<path d="M6.69531 6.75802V8.8603C6.69531 9.10052 6.89003 9.29527 7.13028 9.29527H7.71022C7.92769 9.29527 8.00019 9.44027 8.00019 9.44027C8.00019 9.44027 8.07266 9.29527 8.29016 9.29527H8.87009C9.11031 9.29527 9.30506 9.10055 9.30506 8.8603V6.75802C9.30506 6.71798 9.27263 6.68555 9.23259 6.68555H6.76788C6.72775 6.68555 6.69531 6.71798 6.69531 6.75802Z" fill="#D2AA73"/>
<path d="M7.92771 6.83008H6.84033V7.91745H7.92771V6.83008Z" fill="#FF334B"/>
<path d="M7.92771 9.14987C7.32714 9.14987 6.84033 8.66306 6.84033 8.0625H7.92771V9.14987Z" fill="#FF334B"/>
<path d="M8.07275 9.14987V8.0625H9.16013C9.1601 8.663 8.67325 9.14987 8.07275 9.14987Z" fill="#F8CB32"/>
<path d="M8.22859 6.83008H8.07324V7.91745H8.22859V6.83008Z" fill="#F8CB32"/>
<path d="M8.38337 6.83008H8.22803V7.91745H8.38337V6.83008Z" fill="#FF334B"/>
<path d="M8.53864 6.83008H8.3833V7.91745H8.53864V6.83008Z" fill="#F8CB32"/>
<path d="M8.69441 6.83008H8.53906V7.91745H8.69441V6.83008Z" fill="#FF334B"/>
<path d="M8.84919 6.83008H8.69385V7.91745H8.84919V6.83008Z" fill="#F8CB32"/>
<path d="M9.15974 6.83008H9.00439V7.91745H9.15974V6.83008Z" fill="#F8CB32"/>
<path d="M9.00495 6.83008H8.84961V7.91745H9.00495V6.83008Z" fill="#FF334B"/>
<path d="M7.32345 8.0625H7.20264V9.14987H7.32345V8.0625Z" fill="#FF334B"/>
<path d="M7.44503 8.06445H7.32422V9.15183H7.44503V8.06445Z" fill="#F8CB32"/>
<path d="M7.68722 8.06445H7.56641V9.15183H7.68722V8.06445Z" fill="#F8CB32"/>
<path d="M7.56515 8.06445H7.44434V9.15183H7.56515V8.06445Z" fill="#FF334B"/>
<path d="M7.92745 8.06445H7.80664V9.15183H7.92745V8.06445Z" fill="#F8CB32"/>
<path d="M7.80685 8.06445H7.68604V9.15183H7.80685V8.06445Z" fill="#FF334B"/>
<path d="M6.96114 9.09456V8.0625H6.84033V8.85991C6.84033 8.95669 6.88824 9.04187 6.96114 9.09456Z" fill="#F8CB32"/>
<path d="M7.08175 9.14503V8.0625H6.96094V9.09456C6.99613 9.12 7.03709 9.1375 7.08175 9.14503Z" fill="#FF334B"/>
<path d="M7.08203 8.0625V9.14503C7.09781 9.14769 7.11378 9.14991 7.13038 9.14991H7.20284V8.06253H7.08203V8.0625V8.0625Z" fill="#F8CB32"/>
<path d="M7.00186 7.85745C6.99645 7.85745 6.99098 7.85592 6.98614 7.85273C6.91486 7.80555 6.9107 7.75642 6.91458 7.73136C6.9198 7.69748 6.94498 7.66939 6.97876 7.65973C7.01089 7.6507 7.04292 7.66017 7.06458 7.68533C7.10958 7.73764 7.15605 7.75823 7.19517 7.74377C7.22614 7.7323 7.24461 7.70177 7.24461 7.67895C7.24461 7.66317 7.25736 7.65039 7.27317 7.65039C7.28898 7.65039 7.30173 7.66314 7.30173 7.67895C7.30173 7.72889 7.2653 7.77867 7.21505 7.7973C7.17833 7.81086 7.10448 7.81923 7.0213 7.72258C7.01236 7.71227 7.00186 7.71258 6.99442 7.71464C6.9843 7.71755 6.97308 7.72655 6.97101 7.74002C6.96798 7.7597 6.98498 7.78339 7.01764 7.80505C7.03083 7.81373 7.03439 7.83148 7.0257 7.84464C7.0202 7.85289 7.01114 7.85745 7.00186 7.85745Z" fill="white"/>
<path d="M7.76859 7.85739C7.75934 7.85739 7.75025 7.85286 7.74478 7.84464C7.73609 7.83145 7.73969 7.81373 7.75284 7.80505C7.7855 7.78339 7.8025 7.7597 7.79947 7.74002C7.79737 7.72655 7.78619 7.71755 7.77606 7.71464C7.76862 7.71258 7.75809 7.71223 7.74919 7.72258C7.666 7.8193 7.59212 7.81092 7.55544 7.7973C7.50519 7.77867 7.46875 7.72886 7.46875 7.67895C7.46875 7.66317 7.4815 7.65039 7.49731 7.65039C7.51309 7.65039 7.52587 7.66314 7.52587 7.67895C7.52587 7.70177 7.54434 7.73227 7.57531 7.74377C7.61444 7.7583 7.66094 7.73764 7.70591 7.68533C7.72756 7.66005 7.75962 7.65064 7.79172 7.65973C7.82547 7.66939 7.85069 7.69748 7.85591 7.73136C7.85978 7.75639 7.85562 7.80555 7.78434 7.85273C7.7795 7.8558 7.774 7.85739 7.76859 7.85739Z" fill="white"/>
<path d="M6.98606 7.89114C6.98003 7.89114 6.97397 7.88923 6.96878 7.88536C6.95622 7.87577 6.95381 7.85789 6.96335 7.84533L7.5841 7.02911C7.59003 7.01839 7.59228 7.00355 7.59485 6.98645C7.59963 6.95439 7.60563 6.91448 7.65456 6.88505C7.68647 6.86592 7.72431 6.86645 7.75597 6.88667C7.79091 6.90898 7.8115 6.95055 7.80725 6.99008C7.80469 7.01411 7.79066 7.05795 7.72563 7.08205C7.71075 7.08758 7.69438 7.07995 7.68894 7.06523C7.68347 7.05045 7.691 7.03398 7.70575 7.02855C7.72472 7.02151 7.74788 7.00808 7.75044 6.98402C7.75241 6.96577 7.74203 6.94561 7.72519 6.9348C7.71578 6.92876 7.701 6.92361 7.68397 6.93401C7.65806 6.94958 7.6555 6.96664 7.65125 6.99492C7.64825 7.01495 7.64485 7.03764 7.63147 7.06073L7.00875 7.87989C7.00322 7.88726 6.99469 7.89114 6.98606 7.89114Z" fill="#F8CB32"/>
<path d="M7.38761 6.99414L7.10205 7.33683L7.21627 7.67952H7.55896L7.67318 7.33683L7.38761 6.99414Z" fill="#F8CB32"/>
<path d="M7.388 6.94727L7.07031 7.32848L7.19606 7.7058H7.57987L7.70562 7.32848L7.388 6.94727ZM7.13453 7.34064L7.35944 7.07077V7.64867H7.23722L7.13453 7.34064ZM7.53875 7.6487H7.41653V7.0708L7.64144 7.34067L7.53875 7.6487Z" fill="white"/>
<path d="M8.89242 8.40657L8.89673 8.34323C8.89673 8.34323 8.95292 8.30291 8.92551 8.26548C8.89817 8.22804 8.86648 8.22082 8.80023 8.22948C8.73398 8.23813 8.63029 8.2367 8.58567 8.23954C8.54101 8.24245 8.51798 8.26688 8.44742 8.24676L8.46614 8.20354C8.46614 8.20354 8.43304 8.20645 8.41286 8.21651C8.40186 8.22204 8.37542 8.18626 8.34951 8.19204C8.3237 8.19776 8.2977 8.25107 8.25732 8.27845L8.27892 8.32166C8.27892 8.32166 8.30339 8.31013 8.32214 8.3231C8.34086 8.33607 8.3466 8.3447 8.37832 8.3447L8.39851 8.35335C8.39851 8.35335 8.39129 8.39941 8.42154 8.42104C8.42154 8.42104 8.38698 8.4657 8.39129 8.47285C8.39561 8.48007 8.42439 8.53479 8.43595 8.56645L8.46189 8.51748C8.46189 8.51748 8.42298 8.48291 8.4302 8.47857C8.43742 8.47426 8.46329 8.46851 8.45898 8.45698C8.45467 8.44545 8.47917 8.45842 8.50651 8.46273C8.50651 8.46273 8.50795 8.50595 8.51373 8.5117C8.51951 8.51745 8.52814 8.54048 8.5267 8.56498C8.52526 8.58945 8.50367 8.59667 8.50367 8.59667L8.54257 8.6082C8.54257 8.6082 8.55264 8.59379 8.55986 8.59523C8.55986 8.59523 8.55695 8.4757 8.57282 8.45698C8.57282 8.45698 8.66642 8.4757 8.70961 8.45267C8.70961 8.45267 8.71514 8.45963 8.72592 8.46626C8.72161 8.47629 8.71795 8.48629 8.71957 8.48923C8.7232 8.49576 8.73476 8.49501 8.73764 8.48779C8.73873 8.48507 8.74042 8.47948 8.74211 8.4737C8.74732 8.47542 8.75304 8.47676 8.75957 8.47742C8.75895 8.48651 8.75889 8.49488 8.76098 8.49682C8.76642 8.50185 8.7772 8.49757 8.7777 8.48979C8.77789 8.48726 8.77776 8.48248 8.77764 8.47735C8.78507 8.47673 8.79301 8.47542 8.80176 8.47282L8.75279 8.55348L8.72832 8.56354L8.76001 8.57938L8.78879 8.56785C8.78879 8.56785 8.81614 8.49873 8.86079 8.47857C8.86079 8.47857 8.89104 8.55057 8.85357 8.58948L8.88667 8.6082L8.90251 8.57507C8.90251 8.57507 8.89676 8.51029 8.91836 8.46851L8.89242 8.40657Z" fill="#FF334B"/>
<path d="M8.35102 8.19956C8.35102 8.19956 8.33658 8.18584 8.33296 8.16778C8.32933 8.14972 8.32499 8.14175 8.30908 8.13672C8.30908 8.13672 8.31918 8.14828 8.31777 8.16634C8.31633 8.18441 8.31777 8.209 8.32786 8.21694L8.35102 8.19956Z" fill="#4173CD"/>
<path d="M8.47693 8.25112C8.47693 8.25112 8.45727 8.31794 8.39952 8.35269L8.37939 8.34403C8.37939 8.34403 8.44105 8.29134 8.44852 8.24609L8.47693 8.25112Z" fill="#4173CD"/>
<path d="M8.37853 8.21619C8.37647 8.21406 8.40384 8.20609 8.39731 8.18441C8.39078 8.16272 8.39078 8.14681 8.40384 8.13672C8.40384 8.13672 8.40528 8.15478 8.4154 8.16634C8.4255 8.17791 8.43131 8.20681 8.41468 8.22344C8.41468 8.22344 8.39803 8.23644 8.37853 8.21619Z" fill="#4173CD"/>
<path d="M8.38174 8.41266C8.3783 8.41097 8.37683 8.40675 8.37855 8.40332L8.38727 8.38557C8.39236 8.37516 8.38899 8.36222 8.37896 8.35644C8.36793 8.3501 8.35405 8.35447 8.34855 8.36569L8.33949 8.38413C8.3378 8.38757 8.33358 8.38903 8.33014 8.38732L8.32471 8.39838C8.32471 8.39838 8.33271 8.40232 8.34239 8.40707L8.34218 8.40747C8.33996 8.41194 8.34183 8.41738 8.3463 8.41957C8.35077 8.42178 8.35621 8.41991 8.35839 8.41544L8.35861 8.41503C8.3683 8.41978 8.3763 8.42372 8.3763 8.42372L8.38174 8.41266Z" fill="#4173CD"/>
<path d="M8.4517 8.53516L8.47336 8.5395L8.45526 8.59516L8.43701 8.56612L8.4517 8.53516Z" fill="#4173CD"/>
<path d="M8.50446 8.5957L8.49121 8.61908H8.54324L8.54334 8.60723L8.50446 8.5957Z" fill="#4173CD"/>
<path d="M8.76072 8.57911V8.59301H8.70166L8.73022 8.56445L8.76072 8.57911Z" fill="#4173CD"/>
<path d="M8.85435 8.58984L8.8252 8.61906H8.88657L8.88748 8.60859L8.85435 8.58984Z" fill="#4173CD"/>
<path d="M8.89242 8.85774L8.89673 8.7944C8.89673 8.7944 8.95292 8.75409 8.92551 8.71665C8.89817 8.67921 8.86648 8.67199 8.80023 8.68065C8.73398 8.68931 8.63029 8.68787 8.58567 8.69071C8.54101 8.69362 8.51798 8.71806 8.44742 8.69793L8.46614 8.65471C8.46614 8.65471 8.43304 8.65762 8.41286 8.66768C8.40186 8.67321 8.37542 8.63743 8.34951 8.64321C8.3237 8.64893 8.2977 8.70224 8.25732 8.72962L8.27892 8.77284C8.27892 8.77284 8.30339 8.76131 8.32214 8.77427C8.34086 8.78724 8.3466 8.79587 8.37832 8.79587L8.39851 8.80452C8.39851 8.80452 8.39129 8.85059 8.42154 8.87221C8.42154 8.87221 8.38698 8.91687 8.39129 8.92402C8.39561 8.93124 8.42439 8.98596 8.43595 9.01762L8.46189 8.96865C8.46189 8.96865 8.42298 8.93409 8.4302 8.92974C8.43742 8.92543 8.46329 8.91968 8.45898 8.90815C8.45467 8.89662 8.47917 8.90959 8.50651 8.9139C8.50651 8.9139 8.50795 8.95712 8.51373 8.96287C8.51951 8.96862 8.52814 8.99165 8.5267 9.01615C8.52526 9.04062 8.50367 9.04784 8.50367 9.04784L8.54257 9.05937C8.54257 9.05937 8.55264 9.04496 8.55986 9.0464C8.55986 9.0464 8.55695 8.92687 8.57282 8.90815C8.57282 8.90815 8.66642 8.92687 8.70961 8.90384C8.70961 8.90384 8.71514 8.91081 8.72592 8.91743C8.72161 8.92746 8.71795 8.93746 8.71957 8.9404C8.7232 8.94693 8.73476 8.94618 8.73764 8.93896C8.73873 8.93624 8.74042 8.93065 8.74211 8.92487C8.74732 8.92659 8.75304 8.92793 8.75957 8.92859C8.75895 8.93768 8.75889 8.94606 8.76098 8.94799C8.76642 8.95302 8.7772 8.94874 8.7777 8.94096C8.77789 8.93843 8.77776 8.93365 8.77764 8.92852C8.78507 8.9279 8.79301 8.92659 8.80176 8.92399L8.75279 9.00465L8.72832 9.01471L8.76001 9.03056L8.78879 9.01902C8.78879 9.01902 8.81614 8.9499 8.86079 8.92974C8.86079 8.92974 8.89104 9.00174 8.85357 9.04065L8.88667 9.05937L8.90251 9.02624C8.90251 9.02624 8.89676 8.96146 8.91836 8.91968L8.89242 8.85774Z" fill="#FF334B"/>
<path d="M8.35102 8.65073C8.35102 8.65073 8.33658 8.63701 8.33296 8.61895C8.32933 8.60089 8.32499 8.59292 8.30908 8.58789C8.30908 8.58789 8.31918 8.59945 8.31777 8.61752C8.31633 8.63558 8.31777 8.66017 8.32786 8.66811L8.35102 8.65073Z" fill="#4173CD"/>
<path d="M8.4765 8.7023C8.4765 8.7023 8.45684 8.76911 8.39909 8.80386L8.37891 8.7952C8.37891 8.7952 8.44056 8.74252 8.44803 8.69727L8.4765 8.7023Z" fill="#4173CD"/>
<path d="M8.37853 8.66736C8.37647 8.66523 8.40384 8.65727 8.39731 8.63558C8.39078 8.61389 8.39078 8.59798 8.40384 8.58789C8.40384 8.58789 8.40528 8.60595 8.4154 8.61752C8.4255 8.62908 8.43131 8.65798 8.41468 8.67461C8.41468 8.67461 8.39803 8.68758 8.37853 8.66736Z" fill="#4173CD"/>
<path d="M8.38174 8.86383C8.3783 8.86214 8.37683 8.85792 8.37855 8.85449L8.38727 8.83674C8.39236 8.82633 8.38899 8.81339 8.37896 8.80761C8.36793 8.80127 8.35405 8.80564 8.34855 8.81686L8.33949 8.8353C8.3378 8.83874 8.33358 8.84021 8.33014 8.83849L8.32471 8.84955C8.32471 8.84955 8.33271 8.85349 8.34239 8.85824L8.34218 8.85864C8.33996 8.86311 8.34183 8.86855 8.3463 8.87074C8.35077 8.87296 8.35621 8.87108 8.35839 8.86661L8.35861 8.86621C8.3683 8.87096 8.3763 8.87489 8.3763 8.87489L8.38174 8.86383Z" fill="#4173CD"/>
<path d="M8.4517 8.98633L8.47336 8.99067L8.45526 9.04633L8.43701 9.0173L8.4517 8.98633Z" fill="#4173CD"/>
<path d="M8.50446 9.04688L8.49121 9.07025H8.54324L8.54334 9.05837L8.50446 9.04688Z" fill="#4173CD"/>
<path d="M8.76072 9.03028V9.04419H8.70166L8.73022 9.01562L8.76072 9.03028Z" fill="#4173CD"/>
<path d="M8.85435 9.04102L8.8252 9.07023H8.88657L8.88748 9.05973L8.85435 9.04102Z" fill="#4173CD"/>
</g>
<defs>
<clipPath id="clip0_5367_193122">
<rect x="15" y="1" width="14" height="14" rx="2" transform="rotate(90 15 1)" fill="white"/>
</clipPath>
</defs>
</svg>
