<svg width="16" height="16" viewBox="0 0 16 16" fill="none" xmlns="http://www.w3.org/2000/svg">
<rect x="1" y="1" width="14" height="14" rx="2" fill="#FF334B"/>
<path d="M12.406 9.75157C12.1857 9.61311 12.0535 9.83339 12.0535 9.83339L11.4115 9.90891L11.7325 9.63826C11.9654 9.65715 11.9968 9.58792 12.0598 9.4935C12.1227 9.39909 12.3871 9.44317 12.3871 9.44317C12.3493 9.15362 11.9842 9.31726 11.9842 9.31726C11.6884 9.28578 11.638 9.52499 11.638 9.52499L11.1785 9.87747L10.1673 9.57783C10.2722 9.46229 10.3546 9.34843 10.3666 9.27948C10.3867 9.1637 9.61966 8.96894 9.38464 8.72557C9.14967 8.48215 9.06575 8.09613 9.17486 7.99542C9.28392 7.8947 9.37629 8.18001 9.49375 8.41503C9.61121 8.65004 9.82948 8.83463 9.97214 8.71717C10.1148 8.59971 9.82109 8.42347 9.68678 8.17166C9.55253 7.91989 9.7875 7.82753 9.89661 7.85272C10.0057 7.87791 10.0729 8.39828 10.3331 8.66679C10.5932 8.93535 10.8282 8.88497 10.8534 8.71713C10.8786 8.54928 10.424 8.34247 10.3316 8.19977C10.2393 8.05711 10.2155 7.77715 10.3666 7.7688C10.5176 7.7604 11.0716 8.58593 11.5416 8.90181C12.0535 9.24589 12.4647 8.84303 12.3976 8.67519C12.3305 8.5073 12.02 8.57447 11.6591 8.48211C11.2982 8.38979 10.929 7.90301 10.8198 7.6345C10.7107 7.36594 10.8009 7.36594 10.8639 7.39113C10.9269 7.41632 11.1661 7.7688 11.6256 8.03945C12.0851 8.31011 12.406 8.05205 12.4438 7.98912C12.4816 7.92619 12.6268 7.64362 12.1543 7.71007C11.6172 7.78559 11.3108 7.4667 11.0905 7.29675C10.8702 7.12681 10.7821 6.89389 10.8828 6.79948C10.9835 6.70506 11.315 7.13097 11.8185 7.26527C12.2811 7.38857 12.469 7.18974 12.4563 7.0072C12.4437 6.82467 12.3367 6.90019 11.8143 6.84986C11.2919 6.79952 10.9268 6.30854 10.9079 6.27705C10.889 6.24557 10.8953 6.06933 11.1597 6.23927C11.424 6.40921 11.8961 6.50993 12.1731 6.49733C12.45 6.48474 12.5067 6.11336 12.3745 6.05043C12.2424 5.9875 12.2109 6.08192 11.9087 6.14485C11.6066 6.20778 11.0401 5.89938 10.9016 5.75459C10.7631 5.60979 10.9142 5.51542 10.9834 5.52797C11.0527 5.54052 11.5059 5.80492 11.9087 5.79233C12.3116 5.77973 12.4815 5.40836 12.4689 5.29505C12.4563 5.18174 12.343 5.08732 12.1731 5.20063C12.0031 5.31394 11.7765 5.4461 11.3989 5.38317C11.0212 5.32024 10.845 5.06843 10.8954 4.97406C10.9457 4.87964 11.3108 5.04328 11.8899 4.98035C12.469 4.91742 12.4941 4.40755 12.4375 4.30684C12.3809 4.20612 12.2424 4.23761 12.0472 4.42015C11.8521 4.60268 11.4744 4.64047 11.1786 4.64047C10.8828 4.64047 10.8765 4.49572 10.9206 4.395C10.9646 4.29429 11.2793 4.31948 11.7199 4.18098C12.1605 4.04252 12.4123 3.69 12.4816 3.46972C12.5508 3.24944 12.3809 3.07945 12.3116 3.07945C12.2424 3.07945 12.2864 2.97874 11.9843 3.41304C11.6822 3.84734 10.8891 4.01729 10.8891 4.01729C10.8325 3.91027 10.7444 3.87253 10.7444 3.87253C10.2093 3.97955 9.56398 4.4415 9.56398 4.4415C9.56398 4.4415 9.67775 4.8064 9.5356 5.09079C9.35256 5.45687 8.72518 5.22819 8.8958 4.65005C9.03786 4.16861 9.58771 3.87755 10.0522 3.82539C10.5167 3.77328 10.5404 3.59791 10.5404 3.59791C10.5404 3.59791 10.0526 3.75671 10.0439 3.53872C10.1446 3.55916 10.2931 3.56806 10.5451 3.54575C10.9196 3.51261 11.1281 3.24716 10.9622 3.1903C10.7963 3.13344 10.8674 3.30407 10.583 3.43677C10.3802 3.53142 10.1673 3.48879 10.0608 3.45644C10.1592 3.2415 10.5736 3.35143 10.5736 3.35143C10.5783 2.977 10.0815 3.11094 10.0815 3.11094C9.8633 2.64091 8.58759 3.18647 8.58759 3.18647L8.88973 3.42983C8.15119 3.84105 8.00009 4.62153 8.00009 4.62153C8.00009 4.62153 7.84904 3.84105 7.11045 3.42979L7.41259 3.18642C7.41259 3.18642 6.13689 2.64086 5.91871 3.1109C5.91871 3.1109 5.42184 2.977 5.42663 3.35139C5.42663 3.35139 5.84099 3.24146 5.93947 3.45639C5.83292 3.48879 5.62003 3.53137 5.41719 3.43672C5.13284 3.30397 5.20394 3.13344 5.03801 3.19025C4.87213 3.24711 5.08068 3.51252 5.45511 3.5457C5.70715 3.56802 5.8556 3.55916 5.95631 3.53867C5.94759 3.75667 5.45985 3.59786 5.45985 3.59786C5.45985 3.59786 5.48358 3.77319 5.94801 3.82535C6.41247 3.87751 6.96237 4.16856 7.10443 4.65001C7.27501 5.22819 6.64767 5.45678 6.46463 5.09074C6.32244 4.8064 6.43625 4.44146 6.43625 4.44146C6.43625 4.44146 5.79089 3.9795 5.25587 3.87249C5.25587 3.87249 5.16775 3.91027 5.11112 4.01724C5.11112 4.01724 4.31804 3.8473 4.01589 3.41299C3.71375 2.97869 3.75783 3.07941 3.6886 3.07941C3.61937 3.07941 3.44943 3.24935 3.51866 3.46967C3.58789 3.69 3.83965 4.04248 4.2803 4.18093C4.72094 4.31939 5.03564 4.29424 5.07967 4.39496C5.12376 4.49567 5.11746 4.64042 4.82161 4.64042C4.52576 4.64042 4.14809 4.60264 3.95301 4.4201C3.75787 4.23756 3.61942 4.20607 3.56274 4.30679C3.50611 4.4075 3.53125 4.91733 4.11035 4.98031C4.68945 5.04324 5.05453 4.87959 5.10486 4.97401C5.1552 5.06843 4.97896 5.32019 4.60133 5.38312C4.22366 5.44605 3.99709 5.3139 3.82715 5.20058C3.6572 5.08727 3.54389 5.18169 3.5313 5.295C3.5187 5.40831 3.68865 5.77969 4.09151 5.79228C4.49437 5.80488 4.94756 5.54052 5.01679 5.52792C5.08602 5.51533 5.23711 5.60974 5.09861 5.7545C4.96016 5.89925 4.39365 6.20769 4.09151 6.14476C3.78936 6.08183 3.75792 5.98741 3.62572 6.05034C3.49351 6.11327 3.55019 6.48465 3.82715 6.49724C4.1041 6.50984 4.57619 6.40912 4.84055 6.23918C5.10491 6.06924 5.11121 6.24548 5.09231 6.27696C5.07342 6.30845 4.70835 6.79939 4.18592 6.84977C3.6635 6.9001 3.55649 6.82458 3.54389 7.00711C3.5313 7.18965 3.71918 7.38853 4.18173 7.26518C4.68526 7.13087 5.01684 6.70497 5.1175 6.79939C5.21822 6.8938 5.1301 7.12668 4.90978 7.29666C4.68945 7.46661 4.38311 7.7855 3.84604 7.70997C3.37354 7.64358 3.51875 7.9261 3.55649 7.98903C3.59423 8.05196 3.91527 8.31002 4.37476 8.03936C4.83425 7.76871 5.07342 7.41623 5.1364 7.39104C5.19933 7.36585 5.28959 7.36585 5.18048 7.6344C5.07137 7.90296 4.7021 8.38974 4.34122 8.48202C3.98034 8.57438 3.6698 8.50721 3.60267 8.6751C3.53554 8.84294 3.94675 9.24575 4.45873 8.90167C4.92876 8.58579 5.48263 7.76026 5.63372 7.76866C5.78477 7.77701 5.76095 8.05698 5.66868 8.19963C5.57631 8.34233 5.12175 8.54915 5.14694 8.71699C5.17213 8.88483 5.40705 8.93517 5.66726 8.66665C5.92742 8.3981 5.99455 7.87773 6.10371 7.85258C6.21278 7.82739 6.44779 7.91976 6.31349 8.17152C6.17923 8.42329 5.88549 8.59952 6.02818 8.71703C6.17084 8.8345 6.38906 8.64991 6.50657 8.41489C6.62403 8.17987 6.71635 7.89457 6.82546 7.99528C6.93457 8.096 6.85065 8.48202 6.61564 8.72543C6.38066 8.9688 5.61355 9.16357 5.63372 9.27934C5.64572 9.34829 5.72805 9.46211 5.83296 9.5777L4.82175 9.87729L4.36226 9.52481C4.36226 9.52481 4.31192 9.28564 4.01607 9.31708C4.01607 9.31708 3.651 9.15344 3.61321 9.44299C3.61321 9.44299 3.87757 9.3989 3.9405 9.49332C4.00343 9.58774 4.03492 9.65697 4.26779 9.63807L4.58874 9.90878L3.94671 9.83325C3.94671 9.83325 3.81451 9.61293 3.59423 9.75143C3.59423 9.75143 3.31727 9.66331 3.24805 9.92767C3.24805 9.92767 3.48722 9.88359 3.55019 9.91507C3.55019 9.91507 3.64461 10.1291 3.94676 10.0032L4.58249 10.0347L4.22371 10.2109C4.22371 10.2109 3.77052 10.0662 3.78941 10.4438C3.78941 10.4438 3.6572 10.5948 3.77681 10.7459C3.77681 10.7459 3.802 10.5823 3.92156 10.5131C3.92156 10.5131 4.15444 10.6075 4.30553 10.3305L4.76503 10.0536L5.21822 10.2739C5.21822 10.2739 5.20562 10.5194 5.53921 10.4186C5.53921 10.4186 5.65252 10.4942 5.68396 10.5949C5.68396 10.5949 5.82872 10.4375 5.59584 10.255C5.59584 10.255 5.53921 10.041 5.26226 10.1228L5.00419 9.9906L5.95909 9.70725C6.12443 9.86469 6.30281 9.99379 6.36524 9.97216C6.48845 9.92949 6.58328 9.80158 6.66853 9.62146C6.75382 9.44134 7.13774 8.81579 7.3273 8.82058C7.51687 8.82532 7.60221 8.97692 7.55479 9.24712C7.50742 9.51723 7.13797 10.0347 6.89875 10.1417C6.65958 10.2488 6.6218 10.2991 6.40147 10.2802C6.18115 10.2613 6.10563 10.3557 6.15601 10.4816C6.20634 10.6075 6.45418 10.6876 6.69732 10.5949C6.96168 10.4942 7.0624 10.3558 7.16311 10.4376C7.26383 10.5194 7.0561 10.8153 6.77285 10.9034C6.48959 10.9915 6.27557 10.9349 6.31965 11.1111C6.36373 11.2873 6.66583 11.2999 6.86097 11.1866C7.0561 11.0733 7.27638 10.7586 7.33305 10.8593C7.38969 10.9601 7.35195 11.2181 7.16311 11.3566C6.97428 11.4951 6.75948 11.4136 6.71621 11.5392C6.65328 11.7217 6.87356 11.8413 7.0435 11.772C7.21345 11.7028 7.40858 11.4888 7.4967 11.2999C7.58482 11.1111 7.74846 11.2747 7.69813 11.451C7.64779 11.6272 7.68973 11.772 7.32881 12.0489L8.00023 13.0812L8.67165 12.0489C8.31077 11.7719 8.35275 11.6272 8.30233 11.4509C8.25199 11.2747 8.41564 11.1111 8.50376 11.2999C8.59188 11.4887 8.78701 11.7028 8.95695 11.772C9.1269 11.8412 9.34722 11.7216 9.28424 11.5391C9.24098 11.4136 9.02618 11.495 8.83735 11.3566C8.64851 11.2181 8.61073 10.96 8.6674 10.8593C8.72404 10.7586 8.94436 11.0733 9.13949 11.1866C9.33462 11.2999 9.63677 11.2873 9.68081 11.1111C9.72484 10.9348 9.51086 10.9915 9.22761 10.9033C8.94436 10.8152 8.73663 10.5194 8.83735 10.4375C8.93806 10.3557 9.03878 10.4942 9.30314 10.5949C9.54632 10.6875 9.79412 10.6075 9.84445 10.4816C9.89479 10.3557 9.81926 10.2613 9.59898 10.2801C9.37866 10.299 9.34092 10.2487 9.10171 10.1417C8.86249 10.0347 8.49308 9.51723 8.44567 9.24708C8.39825 8.97692 8.48359 8.82523 8.67315 8.82053C8.86272 8.81574 9.24659 9.4413 9.33193 9.62142C9.41722 9.80154 9.51201 9.92949 9.63522 9.97216C9.69769 9.99379 9.87612 9.86469 10.0414 9.70725L10.9963 9.9906L10.7382 10.1228C10.4612 10.041 10.4046 10.255 10.4046 10.255C10.1717 10.4375 10.3165 10.5949 10.3165 10.5949C10.348 10.4942 10.4612 10.4186 10.4612 10.4186C10.7948 10.5194 10.7822 10.2739 10.7822 10.2739L11.2354 10.0536L11.6949 10.3305C11.846 10.6075 12.0789 10.5131 12.0789 10.5131C12.1985 10.5823 12.2236 10.7459 12.2236 10.7459C12.3433 10.5949 12.211 10.4438 12.211 10.4438C12.2299 10.0662 11.7767 10.211 11.7767 10.211L11.4178 10.0348L12.0535 10.0033C12.3557 10.1292 12.4501 9.91521 12.4501 9.91521C12.513 9.88372 12.7522 9.92781 12.7522 9.92781C12.683 9.66345 12.406 9.75157 12.406 9.75157Z" fill="#464655"/>
</svg>
