<svg width="16" height="16" viewBox="0 0 16 16" fill="none" xmlns="http://www.w3.org/2000/svg">
<path d="M14.9995 5.66602H1V10.3327H14.9995V5.66602Z" fill="white"/>
<path d="M14.9998 5.6667H1V1.36844C1 1.16498 1.10809 1 1.24139 1H14.7584C14.8917 1 14.9998 1.16498 14.9998 1.36844L14.9998 5.6667Z" fill="#82AFFF"/>
<path d="M14.7584 15.0006H1.24139C1.10809 15.0006 1 14.8357 1 14.6322V10.334H14.9998V14.6322C14.9998 14.8357 14.8917 15.0006 14.7584 15.0006Z" fill="#82AFFF"/>
<path d="M9.7108 7.91439H8.47883C8.50181 7.89695 8.51999 7.87977 8.53642 7.86357C8.5665 7.83415 8.59042 7.81078 8.65387 7.78469C8.71767 7.75795 8.75108 7.75764 8.79337 7.75698C8.8443 7.75663 8.90198 7.75566 8.99621 7.71686C9.09028 7.67775 9.13137 7.63763 9.16765 7.60225C9.19773 7.57283 9.22164 7.54945 9.28525 7.52302C9.34854 7.49662 9.38184 7.49627 9.4239 7.49596C9.47471 7.49527 9.53231 7.49465 9.62654 7.45554L9.56072 7.29778C9.49743 7.32417 9.46413 7.32452 9.42207 7.32483C9.37126 7.32553 9.31366 7.32615 9.21959 7.36495C9.12555 7.40406 9.08443 7.44418 9.04815 7.47957C9.01807 7.50899 8.99415 7.53236 8.9307 7.55845C8.8669 7.58519 8.83349 7.5855 8.7912 7.58616C8.74027 7.58651 8.68259 7.58748 8.58836 7.62659C8.49433 7.66535 8.4532 7.70582 8.41692 7.7412C8.38731 7.77 8.36285 7.79307 8.30196 7.8188L9.27021 6.85067L9.14924 6.7297L8.2777 7.60116C8.28153 7.57267 8.28258 7.54732 8.28281 7.52434C8.28332 7.48189 8.28366 7.44879 8.31006 7.38499C8.33646 7.32119 8.35983 7.29743 8.38929 7.26739C8.42503 7.23095 8.4653 7.18956 8.50437 7.09533C8.54329 7.0011 8.54398 6.94362 8.54449 6.89284C8.54499 6.85075 8.54534 6.8173 8.57154 6.75385C8.59794 6.69035 8.62116 6.66663 8.65058 6.63655C8.68616 6.60012 8.72639 6.55899 8.76539 6.46512L8.60736 6.39965C8.58096 6.46314 8.55774 6.48686 8.52832 6.51694C8.49274 6.55337 8.45251 6.5945 8.41351 6.68838C8.3746 6.78261 8.3739 6.84009 8.3734 6.89087C8.37289 6.93296 8.37254 6.96641 8.34634 7.02986C8.31994 7.09366 8.29657 7.11742 8.26711 7.14746C8.23138 7.1839 8.1911 7.2253 8.15203 7.31952C8.11312 7.41375 8.11242 7.47158 8.1118 7.52236C8.11145 7.56356 8.11029 7.59686 8.0856 7.65802V6.28906H7.9145V7.521C7.89706 7.49817 7.87993 7.48003 7.86388 7.4636C7.83435 7.43352 7.81109 7.40945 7.78466 7.346C7.75826 7.2822 7.75776 7.24878 7.75725 7.2063C7.75675 7.15549 7.75609 7.09769 7.71702 7.00347C7.6781 6.90959 7.63779 6.8685 7.60221 6.83203C7.57279 6.80195 7.54961 6.77823 7.52317 6.71474C7.49697 6.65124 7.49662 6.61783 7.49612 6.57574C7.49561 6.52492 7.49496 6.46748 7.456 6.37356L7.29797 6.43903C7.32417 6.50252 7.32452 6.53562 7.32503 6.57768C7.32553 6.62849 7.32619 6.68594 7.36514 6.78016C7.40406 6.87404 7.44437 6.91513 7.47996 6.9516C7.50937 6.98168 7.53255 7.0054 7.55899 7.06889C7.58538 7.1327 7.58589 7.16611 7.58639 7.20859C7.5869 7.25941 7.58756 7.3172 7.62663 7.41143C7.66554 7.50565 7.70585 7.54674 7.74144 7.58318C7.77043 7.61263 7.79338 7.63725 7.81911 7.69799L6.85079 6.72977L6.72981 6.85075L7.69663 7.81745C7.6436 7.79338 7.61802 7.77124 7.59023 7.74427C7.55368 7.70853 7.5124 7.6681 7.41782 7.62899C7.32359 7.59023 7.26596 7.58922 7.21498 7.58856C7.17254 7.58821 7.13917 7.58759 7.07483 7.56085C7.01048 7.53445 6.98645 7.51108 6.95587 7.48135C6.91932 7.44592 6.87784 7.40553 6.78311 7.36607C6.68853 7.32697 6.6307 7.32631 6.57961 7.32565C6.53702 7.32495 6.50345 7.32433 6.43911 7.29758L6.37364 7.45596C6.46822 7.49507 6.52605 7.49573 6.57713 7.49639C6.61973 7.49709 6.6533 7.49771 6.71764 7.52445C6.78214 7.55085 6.80617 7.57422 6.83676 7.60395C6.87331 7.63969 6.91478 7.67977 7.00932 7.71892C7.1039 7.75834 7.16173 7.75903 7.21266 7.75969C7.2551 7.76039 7.28848 7.76066 7.35251 7.78741C7.4165 7.8138 7.44042 7.83718 7.47065 7.86663C7.4862 7.88187 7.50356 7.89799 7.52457 7.91443H6.28906V8.08552H7.65554C7.60155 8.10606 7.56779 8.10866 7.52907 8.10924C7.47813 8.10959 7.42046 8.11056 7.32607 8.14936C7.23169 8.18847 7.19022 8.22886 7.15367 8.26432C7.12324 8.29405 7.09936 8.31742 7.03537 8.34382C6.97102 8.37057 6.93746 8.37122 6.89486 8.37188C6.84373 8.37258 6.78594 8.3732 6.69136 8.41231C6.59663 8.45173 6.5552 8.49181 6.5186 8.52759C6.48802 8.55732 6.46399 8.58069 6.39965 8.60709L6.46511 8.76546C6.55969 8.72604 6.60113 8.68596 6.63768 8.65019C6.66826 8.62046 6.69229 8.59709 6.75679 8.57069C6.82113 8.54394 6.8547 8.54329 6.8973 8.54263C6.94843 8.54193 7.00622 8.54131 7.10099 8.50185C7.19522 8.46274 7.2365 8.42262 7.27305 8.38688C7.30328 8.35747 7.32735 8.33409 7.39154 8.30766C7.45534 8.28091 7.48895 8.2806 7.53124 8.27994C7.55286 8.27983 7.57724 8.27839 7.60364 8.27514L6.72962 9.14904L6.85059 9.27001L7.81694 8.30382C7.79314 8.35661 7.77117 8.38208 7.74411 8.40995C7.70853 8.44638 7.66829 8.48778 7.62915 8.58201C7.59 8.67624 7.58918 8.73442 7.58872 8.78515C7.58802 8.8276 7.58775 8.86097 7.56112 8.92516C7.53457 8.98966 7.511 9.01369 7.48143 9.04412C7.44569 9.08055 7.40542 9.1223 7.36615 9.21687C7.32689 9.31145 7.32619 9.36928 7.32557 9.42037C7.32487 9.46281 7.32441 9.49653 7.29786 9.56068L7.45588 9.62615C7.49515 9.53157 7.49585 9.47374 7.49647 9.42266C7.49716 9.38021 7.49763 9.34649 7.52418 9.28234C7.55073 9.21784 7.5743 9.19381 7.60387 9.16338C7.63961 9.12695 7.67988 9.0852 7.71915 8.99063C7.75826 8.8964 7.75911 8.83822 7.75958 8.78748C7.76027 8.74504 7.76055 8.71166 7.78717 8.64747C7.81357 8.58333 7.83694 8.55956 7.86652 8.52918C7.88171 8.51359 7.89788 8.49619 7.91431 8.4751V9.71073H8.0854V8.34432C8.10579 8.3982 8.10839 8.43189 8.10897 8.47072C8.10947 8.52154 8.11029 8.57933 8.1494 8.67356C8.18831 8.76814 8.22874 8.80957 8.26436 8.84597C8.2939 8.8764 8.31731 8.90043 8.34386 8.96458C8.37041 9.02873 8.37092 9.06249 8.37157 9.10489C8.37227 9.15602 8.37289 9.21381 8.41216 9.30839C8.45142 9.40296 8.49166 9.44475 8.52743 9.48115C8.55697 9.51157 8.58053 9.5356 8.60712 9.6001L8.76515 9.53464C8.72589 9.44006 8.68565 9.39827 8.64988 9.36188C8.62034 9.33145 8.59678 9.30742 8.57019 9.24292C8.54363 9.17877 8.54313 9.14501 8.54247 9.10261C8.54177 9.05148 8.54115 8.99369 8.50189 8.89911C8.46278 8.80453 8.42254 8.7631 8.38692 8.7267C8.35739 8.69627 8.33398 8.67224 8.30742 8.60809C8.28087 8.54429 8.28052 8.51088 8.27983 8.4684C8.27959 8.44681 8.2782 8.42239 8.27494 8.39599L9.14908 9.27005L9.27005 9.14908L8.39863 8.27781C8.42692 8.28157 8.45227 8.28269 8.4751 8.283C8.51735 8.28335 8.55065 8.2837 8.61445 8.31006C8.67825 8.33681 8.70217 8.35983 8.7324 8.38956C8.76884 8.42499 8.81008 8.46538 8.90434 8.50452C8.99842 8.54329 9.05605 8.54394 9.10683 8.54429C9.14893 8.54499 9.18218 8.54526 9.24567 8.5717C9.30916 8.59774 9.33289 8.62116 9.36296 8.65057C9.3994 8.686 9.44052 8.72639 9.53456 8.76554L9.60003 8.60716C9.53654 8.58112 9.51281 8.5577 9.48274 8.52828C9.4463 8.49286 9.40517 8.45247 9.31114 8.41332C9.21711 8.37456 9.15943 8.3739 9.10865 8.37355C9.06656 8.37285 9.0333 8.37258 8.96981 8.34615C8.90601 8.31975 8.88209 8.29669 8.85186 8.26692C8.81543 8.23149 8.77418 8.1911 8.67992 8.1523C8.58569 8.11288 8.52805 8.11219 8.47708 8.11188C8.43561 8.11118 8.402 8.1104 8.34049 8.08548H9.71069V7.91439H9.7108V7.91439Z" fill="#F09146"/>
<path d="M7.99999 8.85544C8.47244 8.85544 8.85544 8.47244 8.85544 7.99999C8.85544 7.52753 8.47244 7.14453 7.99999 7.14453C7.52753 7.14453 7.14453 7.52753 7.14453 7.99999C7.14453 8.47244 7.52753 8.85544 7.99999 8.85544Z" fill="#F8CB32"/>
</svg>
