<svg width="16" height="16" viewBox="0 0 16 16" fill="none" xmlns="http://www.w3.org/2000/svg">
<g clip-path="url(#clip0_5367_192989)">
<rect x="0.869141" y="1" width="14" height="14" rx="2" fill="#4173CD"/>
<path d="M22.9997 10.7246H1V11.4832H22.9997V10.7246Z" fill="#F8CB32"/>
<path d="M22.9997 12.2402H1V12.9988H22.9997V12.2402Z" fill="#F8CB32"/>
<path d="M3.80302 4.62906L2.3916 4.14709L3.80302 3.66516L4.285 2.25391L4.76693 3.66516L6.17835 4.14709L4.76693 4.62906L4.285 6.04035L3.80302 4.62906Z" fill="#FF334B"/>
<path d="M4.28562 2.50737L4.70302 3.7296L5.92525 4.14699L4.70302 4.56439L4.28562 5.78662L3.86823 4.56439L2.646 4.14699L3.86823 3.7296L4.28562 2.50737ZM4.28562 2L4.13042 2.45435L3.73907 3.60044L2.59302 3.99179L2.13867 4.14699L2.59302 4.30211L3.73907 4.69346L4.13042 5.83951L4.28562 6.29386L4.44082 5.83951L4.83218 4.69346L5.97823 4.30211L6.43258 4.14699L5.97823 3.99188L4.83218 3.60052L4.44082 2.45447L4.28562 2Z" fill="white"/>
</g>
<defs>
<clipPath id="clip0_5367_192989">
<rect x="0.869141" y="1" width="14" height="14" rx="2" fill="white"/>
</clipPath>
</defs>
</svg>
