<svg width="16" height="16" viewBox="0 0 16 16" fill="none" xmlns="http://www.w3.org/2000/svg">
<g clip-path="url(#clip0_5367_192926)">
<rect x="1" y="0.546875" width="14" height="14" rx="2" fill="#73AF00"/>
<path d="M-1.00098 0.546875L7.99997 6.44407L17.001 0.546875H-1.00098Z" fill="#FF334B"/>
<path d="M17.001 14.5476L7.99997 8.65039L-1.00098 14.5476H17.001Z" fill="#FF334B"/>
<path d="M18.6813 0.915202C18.6813 0.711805 18.5164 0.546875 18.313 0.546875H17.0013L10.1572 5.03093C9.57727 4.53289 8.82477 4.23002 8.00033 4.23002C7.17589 4.23002 6.42338 4.53285 5.84343 5.03093L-1.00066 0.546875H-2.31234C-2.51573 0.546875 -2.68066 0.711805 -2.68066 0.915202V1.6476L4.83183 6.56954C4.73703 6.87791 4.68551 7.20535 4.68551 7.54476C4.68551 7.88422 4.73703 8.21157 4.83183 8.51998L-2.68066 13.442V14.1744C-2.68066 14.3778 -2.51573 14.5427 -2.31234 14.5427H-1.00066L5.84339 10.0587C6.42334 10.5567 7.17585 10.8596 8.00028 10.8596C8.82472 10.8596 9.57723 10.5568 10.1572 10.0587L17.0012 14.5427H18.3129C18.5163 14.5427 18.6812 14.3778 18.6812 14.1744V13.442L11.1688 8.52003C11.2636 8.21165 11.3151 7.88422 11.3151 7.5448C11.3151 7.20535 11.2636 6.87799 11.1688 6.56958L18.6813 1.64764L18.6813 0.915202Z" fill="white"/>
<path d="M7.76114 6.48445L7.26172 6.49738L7.52249 6.07114L7.26172 5.64495L7.76114 5.65788L7.99975 5.21875L8.23845 5.65788L8.73787 5.64495L8.47706 6.07114L8.73787 6.49738L8.23845 6.48445L7.99975 6.92358L7.76114 6.48445Z" fill="#FF334B"/>
<path d="M8.00036 5.33483L8.20659 5.71417L8.63826 5.70311L8.41287 6.07144L8.63826 6.43977L8.20659 6.42871L8.00036 6.80805L7.79412 6.42871L7.36246 6.43977L7.58785 6.07144L7.36246 5.70311L7.79412 5.71417L8.00036 5.33483ZM8.00036 5.10352L7.90327 5.28205L7.72933 5.60202L7.36526 5.59267L7.16211 5.58746L7.26817 5.76086L7.4583 6.07148L7.26817 6.3821L7.16211 6.5555L7.36526 6.55029L7.72933 6.54094L7.90327 6.86091L8.00036 7.03944L8.09745 6.86091L8.27139 6.54094L8.63546 6.55029L8.83865 6.5555L8.73259 6.3821L8.54246 6.07148L8.73259 5.76086L8.83865 5.58746L8.63546 5.59267L8.27139 5.60202L8.09745 5.28205L8.00036 5.10352Z" fill="#73AF00"/>
<path d="M6.39004 8.92585L5.89062 8.93883L6.15139 8.51259L5.89062 8.08639L6.39004 8.09933L6.6287 7.66016L6.86735 8.09933L7.36673 8.08639L7.10596 8.51259L7.36673 8.93883L6.86735 8.92585L6.6287 9.36498L6.39004 8.92585Z" fill="#FF334B"/>
<path d="M6.62833 7.77627L6.83457 8.15562L7.26623 8.14456L7.04084 8.51289L7.26623 8.88121L6.83457 8.87016L6.62833 9.2495L6.4221 8.87016L5.99043 8.88121L6.21582 8.51289L5.99043 8.14456L6.4221 8.15562L6.62833 7.77627ZM6.62833 7.54492L6.53124 7.72345L6.3573 8.04342L5.99323 8.03408L5.79004 8.02886L5.8961 8.20226L6.08623 8.51289L5.8961 8.82351L5.79004 8.99691L5.99323 8.99169L6.3573 8.98235L6.53124 9.30232L6.62833 9.48085L6.72542 9.30232L6.89936 8.98235L7.26343 8.99169L7.46662 8.99691L7.36056 8.82351L7.17043 8.51289L7.36056 8.20226L7.46662 8.02886L7.26343 8.03408L6.89936 8.04342L6.72542 7.72345L6.62833 7.54492Z" fill="#73AF00"/>
<path d="M9.13321 8.92585L8.63379 8.93883L8.89456 8.51259L8.63379 8.08639L9.13321 8.09933L9.37182 7.66016L9.61052 8.09933L10.1099 8.08639L9.84917 8.51259L10.1099 8.93883L9.61052 8.92585L9.37182 9.36498L9.13321 8.92585Z" fill="#FF334B"/>
<path d="M9.37149 7.77627L9.57773 8.15562L10.0094 8.14456L9.78401 8.51289L10.0094 8.88121L9.57773 8.87016L9.37149 9.2495L9.16526 8.87016L8.7336 8.88121L8.95898 8.51289L8.7336 8.14456L9.16526 8.15562L9.37149 7.77627ZM9.37149 7.54492L9.2744 7.72345L9.10046 8.04342L8.73639 8.03408L8.5332 8.02886L8.63926 8.20226L8.82939 8.51289L8.63926 8.82351L8.5332 8.99691L8.73639 8.99169L9.10046 8.98235L9.2744 9.30232L9.37149 9.48085L9.46858 9.30232L9.64252 8.98235L10.0066 8.99169L10.2098 8.99691L10.1037 8.82351L9.9136 8.51289L10.1037 8.20226L10.2098 8.02886L10.0066 8.03408L9.64252 8.04342L9.46858 7.72345L9.37149 7.54492Z" fill="#73AF00"/>
</g>
<defs>
<clipPath id="clip0_5367_192926">
<rect x="1" y="0.546875" width="14" height="14" rx="2" fill="white"/>
</clipPath>
</defs>
</svg>
