<svg width="16" height="16" viewBox="0 0 16 16" fill="none" xmlns="http://www.w3.org/2000/svg">
<g clip-path="url(#clip0_5367_192868)">
<rect x="0.869141" y="0.839844" width="14" height="14" rx="2" fill="#FF334B"/>
<path d="M8.96767 7.83984C8.91327 7.83984 8.86914 7.88394 8.86914 7.93837V11.5837C8.86914 11.8792 9.06617 12.8645 10.9381 13.16C12.81 12.8645 13.0071 11.8792 13.0071 11.5837V7.93841C13.0071 7.884 12.963 7.83987 12.9085 7.83987L8.96767 7.83984Z" fill="white"/>
<path d="M10.9384 13.1606C12.5011 12.9138 12.8963 12.1868 12.9843 11.7812H8.89258C8.98061 12.1868 9.37583 12.9139 10.9384 13.1606Z" fill="#73AF00"/>
<path d="M12.2187 9.90951C12.2187 9.90951 12.3172 9.81098 12.2187 9.61395L10.9379 9.55664L9.65713 9.61395C9.55859 9.81098 9.65713 9.90951 9.65713 9.90951C9.55859 10.008 9.55859 10.1065 9.55859 10.1065H9.75562L9.96909 10.4596L10.9379 10.9932L11.9067 10.4596L12.1201 10.1065H12.3172C12.3172 10.1065 12.3172 10.008 12.2187 9.90951Z" fill="#82AFFF"/>
<path d="M11.9073 10.4596C11.9073 10.4596 11.8457 10.3242 11.6816 10.3406C11.6816 10.3406 11.5912 10.2216 11.4393 10.2544C11.4393 10.2544 11.2628 10.1518 11.1602 10.3406C11.1602 10.3406 10.8338 10.3074 10.8164 10.556C10.8164 10.556 11.3244 11.3217 11.3367 11.3299C11.3491 11.3381 11.9443 11.334 11.9443 11.334L12.2194 11.0306L11.9484 10.6403L11.9073 10.4596Z" fill="white"/>
<path d="M10.9506 10.7017C10.9506 10.7017 10.5197 9.99774 10.458 9.93818C10.3985 9.88071 10.2815 9.82737 10.1624 9.92587C10.1624 9.92587 9.80528 9.89715 9.8545 10.1681L9.95712 10.5786C9.95712 10.5786 9.86681 10.8619 9.82575 10.8906C9.78472 10.9193 9.63281 10.9973 9.63281 10.9973L9.71903 11.3381L10.8684 11.2806L10.9506 10.7017Z" fill="#F0C850"/>
<path d="M11.4466 10.3923L11.4452 10.3929L11.4135 10.3179C11.4109 10.3118 11.406 10.307 11.3999 10.3046C11.3938 10.3022 11.387 10.3023 11.3809 10.305L11.1671 10.3993L10.9127 9.98296C10.924 9.97327 10.9289 9.95743 10.9236 9.94268C10.9167 9.92343 10.8956 9.91343 10.8764 9.92027L10.8197 9.94055L10.7813 9.82724C10.777 9.81434 10.7631 9.80762 10.7501 9.81177C10.7372 9.81618 10.7303 9.83015 10.7347 9.84305L10.7733 9.95724L10.7127 9.97893C10.6935 9.98587 10.6835 10.007 10.6904 10.0262C10.6958 10.0413 10.71 10.0507 10.7252 10.0507C10.7273 10.0507 10.7295 10.05 10.7317 10.0496L10.8155 10.5544L10.7614 10.5782C10.7496 10.5835 10.7438 10.5969 10.7482 10.609L10.7788 10.6944C10.7796 10.7088 10.7795 10.733 10.7746 10.7637L10.4307 10.1737C10.4451 10.1647 10.4523 10.1471 10.4463 10.1305C10.4394 10.1113 10.4184 10.1012 10.3991 10.1081L10.3424 10.1284L10.3041 10.0151C10.2997 10.0022 10.2857 9.99527 10.2728 9.99962C10.2599 10.004 10.253 10.018 10.2574 10.0309L10.296 10.1451L10.2354 10.1668C10.2162 10.1737 10.2062 10.1949 10.2131 10.214C10.2181 10.2278 10.2306 10.2359 10.2442 10.2374L10.3935 11.1691C10.3742 11.1772 10.3553 11.1854 10.3341 11.193C10.3341 11.193 10.2643 11.5255 10.3177 11.5419C10.3711 11.5583 10.9211 11.7266 10.9211 11.7266C10.9211 11.7266 11.6806 11.3654 11.697 11.3572C11.7134 11.349 11.7463 11.1109 11.7463 11.1109L11.4466 10.3923ZM11.4 10.4124L11.3364 10.4397L11.3153 10.3877L11.3778 10.3601L11.4 10.4124ZM11.0156 10.5199L11.0679 10.4968L11.088 10.5464L11.0327 10.5701L11.0156 10.5199ZM10.9872 10.5896L10.9254 10.6162L10.906 10.5682L10.9704 10.5398L10.9872 10.5896ZM11.1332 10.5269L11.1129 10.477L11.1688 10.4523L11.1893 10.5029L11.1332 10.5269ZM11.2138 10.4325L11.2703 10.4076L11.2912 10.4591L11.2345 10.4835L11.2138 10.4325ZM10.8668 10.0022L11.1216 10.4193L10.9998 10.473L10.8434 10.0106L10.8668 10.0022ZM10.7789 10.0337L10.797 10.0273L10.9545 10.493L10.8619 10.5338L10.7789 10.0337ZM10.8609 10.5881L10.8802 10.6357L10.8194 10.6618L10.8023 10.614L10.8609 10.5881ZM10.3843 10.1919L10.7574 10.8319C10.7386 10.8862 10.7032 10.9492 10.641 11.011L10.3661 10.1984L10.3843 10.1919ZM10.2922 10.2249L10.3198 10.2151L10.6013 11.0473C10.5586 11.0827 10.5055 11.1169 10.4402 11.1483L10.2922 10.2249Z" fill="#965032"/>
<path d="M12.3084 9.46411C12.2822 9.42254 12.1983 9.44036 12.1983 9.44036C12.1983 9.44036 12.1743 9.39242 12.1109 9.38779C12.0476 9.38317 12.036 9.43958 12.036 9.43958C12.036 9.43958 12.0241 9.43076 11.9543 9.43283C11.8845 9.43489 11.8989 9.54983 11.8989 9.54983C11.8989 9.54983 11.8722 9.54983 11.7819 9.52111C11.6916 9.49236 11.6321 9.51289 11.6321 9.51289C11.628 9.46567 11.6034 9.43079 11.6034 9.43079C11.5274 9.46158 11.4679 9.4267 11.4536 9.40001C11.4392 9.37333 11.4762 9.33229 11.4762 9.29739C11.4762 9.26248 11.4279 9.26404 11.411 9.23326C11.394 9.20248 11.411 9.18555 11.4556 9.16555C11.5003 9.14555 11.5418 9.07164 11.5141 9.01161C11.4863 8.95158 11.4063 8.96233 11.4063 8.96233C11.4341 8.96695 11.4571 9.01929 11.4125 9.03004C11.3679 9.04079 11.3279 8.87764 11.3279 8.87764C11.431 8.94692 11.5065 8.90536 11.528 8.8453C11.5496 8.78523 11.4926 8.7437 11.4926 8.7437C11.4479 8.81605 11.371 8.75295 11.4126 8.70676C11.4541 8.66058 11.4577 8.58311 11.4577 8.58311C11.3653 8.6283 11.3079 8.5708 11.3079 8.5708C11.429 8.48667 11.3941 8.36758 11.3941 8.36758C11.349 8.34705 11.2525 8.36348 11.2525 8.36348C11.273 8.32242 11.2689 8.24852 11.2689 8.24852C11.2176 8.2403 11.1601 8.27314 11.1601 8.27314C11.1765 8.2157 11.1539 8.11511 11.1539 8.11511C11.117 8.1213 11.0472 8.1418 11.0472 8.1418C11.0185 8.07611 10.9384 8.03711 10.9384 8.03711C10.9384 8.03711 10.8584 8.07611 10.8296 8.1418C10.8296 8.1418 10.7598 8.12127 10.7229 8.11511C10.7229 8.11511 10.7003 8.2157 10.7167 8.27314C10.7167 8.27314 10.6593 8.24033 10.6079 8.24852C10.6079 8.24852 10.6038 8.32242 10.6243 8.36348C10.6243 8.36348 10.5279 8.34708 10.4827 8.36758C10.4827 8.36758 10.4478 8.48661 10.5689 8.5708C10.5689 8.5708 10.5115 8.62826 10.4191 8.58311C10.4191 8.58311 10.4227 8.66058 10.4643 8.70676C10.5058 8.75295 10.4288 8.81608 10.3842 8.7437C10.3842 8.7437 10.3273 8.78526 10.3488 8.8453C10.3704 8.90533 10.4458 8.94689 10.5489 8.87764C10.5489 8.87764 10.5089 9.04083 10.4643 9.03004C10.4197 9.01929 10.4427 8.96695 10.4705 8.96233C10.4705 8.96233 10.3904 8.95155 10.3627 9.01161C10.335 9.07164 10.3766 9.14555 10.4212 9.16555C10.4658 9.18555 10.4828 9.20248 10.4658 9.23326C10.4489 9.26404 10.4007 9.26251 10.4007 9.29739C10.4007 9.33229 10.4376 9.37333 10.4233 9.40001C10.4089 9.4267 10.3493 9.46161 10.2734 9.43079C10.2734 9.43079 10.2488 9.4657 10.2447 9.51289C10.2447 9.51289 10.1852 9.49236 10.0949 9.52111C10.0046 9.54983 9.97791 9.54983 9.97791 9.54983C9.97791 9.54983 9.99229 9.43489 9.9225 9.43283C9.85272 9.43076 9.84085 9.43958 9.84085 9.43958C9.84085 9.43958 9.82925 9.38317 9.76588 9.38779C9.70254 9.39245 9.67857 9.44036 9.67857 9.44036C9.67857 9.44036 9.5946 9.42258 9.56844 9.46411C9.54229 9.50567 9.53919 9.56879 9.58844 9.59498C9.63772 9.62117 9.76854 9.73045 9.76854 9.73045L9.95325 9.81048L10.5998 9.52414L10.9385 9.61342L11.2771 9.52414L11.9237 9.81048L12.1084 9.73045C12.1084 9.73045 12.2393 9.62114 12.2885 9.59498C12.3376 9.56876 12.3346 9.50564 12.3084 9.46411Z" fill="#FF334B"/>
<path d="M10.7363 8.42093C10.7363 8.42093 10.7433 8.50787 10.872 8.48468C10.8719 8.48468 10.8685 8.39428 10.7363 8.42093Z" fill="white"/>
<path d="M10.2608 11.8555C10.2608 11.8555 10.1684 11.8524 10.073 11.9232C9.97758 11.994 9.93548 11.9437 9.84005 11.9437C9.74461 11.9437 9.72202 12.0433 9.72202 12.0433C9.72202 12.0433 9.5373 12.0895 9.6112 12.225C9.65792 12.3106 9.72295 12.3088 9.76458 12.296C9.76248 12.3535 9.77558 12.4168 9.84211 12.4282C9.96836 12.4497 10.0238 12.382 9.99605 12.2773C9.99605 12.2773 10.0114 12.3851 10.0946 12.382C10.1777 12.3789 10.2331 12.3327 10.2239 12.2219C10.2146 12.1111 10.3625 12.1788 10.4763 12.0156L10.2608 11.8555Z" fill="#FF334B"/>
<path d="M9.72062 12.25C9.72062 12.25 9.663 12.3259 9.67948 12.3998C9.67948 12.3998 9.55604 12.3608 9.62186 12.1781C9.62183 12.1782 9.70624 12.1556 9.72062 12.25Z" fill="#82AFFF"/>
<path d="M9.91372 12.3492C9.91372 12.3492 9.87984 12.4447 9.92603 12.5293C9.92603 12.5293 9.77209 12.5247 9.80291 12.3354C9.80291 12.3354 9.85216 12.2846 9.91372 12.3492Z" fill="#82AFFF"/>
<path d="M10.0674 12.3403C10.0674 12.3403 10.0952 12.4204 10.0674 12.4974C10.0674 12.4974 10.194 12.4897 10.1723 12.308C10.1723 12.308 10.1044 12.2834 10.0674 12.3403Z" fill="#82AFFF"/>
<path d="M9.95594 10.5008C9.94429 10.4058 9.34941 10.3499 9.38635 10.8497C9.38635 10.8497 9.32035 10.8485 9.28791 10.9099C9.25548 10.9714 9.18591 10.9563 9.16504 10.9343C9.16504 10.9343 9.16966 11.0455 9.3076 11.0409C9.3076 11.0409 9.26395 11.0753 9.27013 11.1255C9.27632 11.1758 9.3126 11.2391 9.31032 11.2824C9.30804 11.3257 9.26704 11.3859 9.26704 11.3859C9.26704 11.3859 9.37291 11.3496 9.37985 11.2739C9.38682 11.1982 9.36982 11.1348 9.39066 11.0962C9.39066 11.0962 9.38063 11.1495 9.42776 11.2168C9.47488 11.284 9.4772 11.3659 9.45788 11.4169C9.45788 11.4169 9.57532 11.3589 9.55291 11.2469C9.53051 11.1349 9.50654 11.1449 9.51735 11.0823C9.51735 11.0823 9.63945 11.2067 9.6186 11.3126C9.6186 11.3126 9.65763 11.2658 9.65416 11.1778C9.6507 11.0897 9.58954 11.0304 9.58954 11.0304C9.58954 11.0304 9.99594 10.8271 9.95594 10.5008Z" fill="#FF334B"/>
<path d="M11.6159 11.8555C11.6159 11.8555 11.7083 11.8524 11.8037 11.9232C11.8991 11.994 11.9412 11.9437 12.0367 11.9437C12.1321 11.9437 12.1547 12.0433 12.1547 12.0433C12.1547 12.0433 12.3394 12.0895 12.2655 12.225C12.2188 12.3106 12.1538 12.3088 12.1121 12.296C12.1142 12.3535 12.1011 12.4168 12.0346 12.4282C11.9084 12.4497 11.853 12.382 11.8807 12.2773C11.8807 12.2773 11.8653 12.3851 11.7821 12.382C11.699 12.3789 11.6436 12.3327 11.6528 12.2219C11.6621 12.1111 11.5143 12.1788 11.4004 12.0156L11.6159 11.8555Z" fill="#FF334B"/>
<path d="M12.1553 12.25C12.1553 12.25 12.2129 12.3259 12.1964 12.3998C12.1964 12.3998 12.3199 12.3608 12.254 12.1781C12.254 12.1782 12.1697 12.1556 12.1553 12.25Z" fill="#82AFFF"/>
<path d="M11.9625 12.3492C11.9625 12.3492 11.9964 12.4447 11.9502 12.5293C11.9502 12.5293 12.1041 12.5247 12.0733 12.3354C12.0734 12.3354 12.0241 12.2846 11.9625 12.3492Z" fill="#82AFFF"/>
<path d="M11.8086 12.3403C11.8086 12.3403 11.7808 12.4204 11.8086 12.4974C11.8086 12.4974 11.682 12.4897 11.7037 12.308C11.7036 12.308 11.7716 12.2834 11.8086 12.3403Z" fill="#82AFFF"/>
<path d="M11.9207 10.5008C11.9324 10.4058 12.5273 10.3499 12.4903 10.8497C12.4903 10.8497 12.5563 10.8485 12.5888 10.9099C12.6212 10.9714 12.6908 10.9563 12.7116 10.9343C12.7116 10.9343 12.707 11.0455 12.5691 11.0409C12.5691 11.0409 12.6127 11.0753 12.6066 11.1255C12.6004 11.1758 12.564 11.2391 12.5664 11.2824C12.5687 11.3257 12.6096 11.3859 12.6096 11.3859C12.6096 11.3859 12.5038 11.3496 12.4968 11.2739C12.4899 11.1982 12.5069 11.1348 12.486 11.0962C12.486 11.0962 12.4961 11.1495 12.4489 11.2168C12.4018 11.284 12.3995 11.3659 12.4188 11.4169C12.4188 11.4169 12.3014 11.3589 12.3238 11.2469C12.3462 11.1349 12.3701 11.1449 12.3593 11.0823C12.3593 11.0823 12.2372 11.2067 12.2581 11.3126C12.2581 11.3126 12.2191 11.2658 12.2225 11.1778C12.226 11.0897 12.2871 11.0304 12.2871 11.0304C12.2871 11.0304 11.8807 10.8271 11.9207 10.5008Z" fill="#FF334B"/>
<path d="M12.1641 9.64848C12.1415 9.63326 12.1109 9.6396 12.0959 9.66244C12.0647 9.70948 12.0236 9.73701 11.9704 9.74654C11.7941 9.77713 11.54 9.60357 11.4662 9.54929C11.3592 9.47066 11.2271 9.45701 11.1394 9.51104C11.1044 9.52263 10.9974 9.55635 10.9383 9.55635C10.8793 9.55635 10.7723 9.5226 10.7373 9.51104C10.6495 9.45701 10.5174 9.47066 10.4104 9.54929C10.3367 9.60357 10.0825 9.7771 9.90623 9.74654C9.85298 9.73701 9.81195 9.70951 9.78079 9.66244C9.76573 9.63966 9.73514 9.63332 9.71251 9.64848C9.68982 9.66348 9.68361 9.6941 9.69861 9.71669C9.74479 9.78657 9.80882 9.82916 9.88895 9.84348C9.9092 9.84713 9.92989 9.84876 9.95095 9.84876C10.1389 9.84876 10.3517 9.71463 10.4687 9.62873C10.5557 9.56482 10.6533 9.56494 10.6972 9.60198C10.7083 9.61138 10.7209 9.62623 10.7179 9.64363C10.7163 9.65316 10.71 9.66173 10.6996 9.66894C10.7021 9.65385 10.6975 9.63776 10.6859 9.62604C10.6666 9.60679 10.6354 9.60679 10.6162 9.62604C10.5911 9.65098 10.5884 9.69144 10.6095 9.72438C10.6307 9.75738 10.6764 9.78151 10.7308 9.76141C10.7584 9.75113 10.7804 9.73148 10.7957 9.70741C10.8706 9.68563 10.9384 9.68548 10.9384 9.68548C10.9384 9.68548 11.0061 9.6856 11.081 9.70741C11.0963 9.73148 11.1184 9.75113 11.1459 9.76141C11.2003 9.78151 11.2459 9.75738 11.2672 9.72438C11.2883 9.69148 11.2856 9.65098 11.2605 9.62604C11.2413 9.60679 11.2101 9.60679 11.1909 9.62604C11.1792 9.63776 11.1746 9.65382 11.1771 9.66894C11.1667 9.66173 11.1604 9.65316 11.1588 9.64363C11.1558 9.62623 11.1684 9.61138 11.1795 9.60198C11.2234 9.56494 11.3209 9.56485 11.408 9.62873C11.525 9.71466 11.7378 9.84876 11.9258 9.84876C11.9468 9.84876 11.9675 9.84713 11.9878 9.84348C12.0679 9.82913 12.1319 9.78651 12.1781 9.71669C12.193 9.6941 12.1869 9.66348 12.1641 9.64848Z" fill="#F8CB32"/>
<path d="M9.68323 9.70145C9.68323 9.70145 9.67512 9.59136 9.67161 9.55542C9.6681 9.51949 9.60074 9.49283 9.57514 9.52877C9.54958 9.5647 9.54265 9.63077 9.68323 9.70145Z" fill="#82AFFF"/>
<path d="M9.70664 9.66648C9.70664 9.66648 9.80388 9.58795 9.79151 9.54642C9.77916 9.50485 9.75294 9.48332 9.72052 9.49564C9.68806 9.50795 9.67267 9.58335 9.70664 9.66648Z" fill="#82AFFF"/>
<path d="M9.89666 9.60557C9.91064 9.59163 9.91518 9.52398 9.87661 9.51629C9.83804 9.5086 9.7871 9.56863 9.79017 9.64254C9.79017 9.64251 9.87041 9.63176 9.89666 9.60557Z" fill="#82AFFF"/>
<path d="M9.8563 9.6426C9.81165 9.65688 9.76855 9.69494 9.76855 9.69494C9.76855 9.69494 9.84859 9.75341 9.90402 9.73497C9.95946 9.71653 9.9333 9.61797 9.8563 9.6426Z" fill="#82AFFF"/>
<path d="M11.1395 8.42093C11.1395 8.42093 11.1326 8.50787 11.0039 8.48468C11.0039 8.48468 11.0074 8.39428 11.1395 8.42093Z" fill="white"/>
<path d="M12.1934 9.70145C12.1934 9.70145 12.2015 9.59136 12.205 9.55542C12.2085 9.51949 12.2759 9.49283 12.3014 9.52877C12.327 9.5647 12.334 9.63077 12.1934 9.70145Z" fill="#82AFFF"/>
<path d="M12.1699 9.66648C12.1699 9.66648 12.0727 9.58795 12.0851 9.54642C12.0974 9.50485 12.1236 9.48332 12.1561 9.49564C12.1885 9.50795 12.2039 9.58335 12.1699 9.66648Z" fill="#82AFFF"/>
<path d="M11.9808 9.60557C11.9669 9.59163 11.9623 9.52398 12.0009 9.51629C12.0394 9.5086 12.0904 9.56863 12.0873 9.64254C12.0873 9.64251 12.007 9.63176 11.9808 9.60557Z" fill="#82AFFF"/>
<path d="M12.0207 9.6426C12.0653 9.65688 12.1084 9.69494 12.1084 9.69494C12.1084 9.69494 12.0284 9.75341 11.973 9.73497C11.9175 9.71653 11.9437 9.61797 12.0207 9.6426Z" fill="#82AFFF"/>
<path d="M10.8868 8.62634L10.926 8.66541C10.9325 8.67197 10.9432 8.67197 10.9498 8.66541L10.9889 8.62634C10.9996 8.61575 10.992 8.59766 10.977 8.59766H10.8987C10.8837 8.59766 10.8762 8.61575 10.8868 8.62634Z" fill="#464655"/>
<path d="M10.8664 8.7862C10.8374 8.7862 10.8124 8.77583 10.7953 8.75664C10.7777 8.7367 10.7703 8.7093 10.7747 8.68139C10.7763 8.67205 10.7857 8.66639 10.7944 8.66714C10.8038 8.6687 10.8102 8.67752 10.8087 8.68695C10.8059 8.70458 10.8104 8.72158 10.8211 8.7337C10.8322 8.74611 10.8491 8.75189 10.8698 8.75161C10.9132 8.74989 10.9204 8.70755 10.9207 8.70583L10.9205 8.62855C10.9205 8.61902 10.9282 8.61133 10.9377 8.61133C10.9473 8.61133 10.9549 8.61902 10.9549 8.62855V8.70852C10.9508 8.73614 10.9282 8.78376 10.8712 8.78608C10.8697 8.7862 10.868 8.7862 10.8664 8.7862Z" fill="#464655"/>
<path d="M11.0096 8.78617C11.008 8.78617 11.0063 8.78617 11.0047 8.78608C10.9477 8.78377 10.9251 8.73614 10.9211 8.7112L10.9209 8.62855C10.9209 8.61902 10.9286 8.61133 10.9381 8.61133C10.9476 8.61133 10.9553 8.61902 10.9553 8.62855V8.70852C10.9559 8.71023 10.964 8.74998 11.006 8.75161C11.0273 8.75198 11.0436 8.74633 11.0547 8.7337C11.0654 8.72158 11.07 8.70458 11.0671 8.68695C11.0656 8.67755 11.072 8.66867 11.0814 8.66714C11.0904 8.66602 11.0996 8.67195 11.1011 8.68139C11.1056 8.7093 11.0981 8.7367 11.0805 8.75664C11.0636 8.7758 11.0385 8.78617 11.0096 8.78617Z" fill="#464655"/>
<path d="M11.5293 11.2876C11.5293 11.2876 11.4062 11.0906 11.2625 11.2219C11.1188 11.3533 11.0655 11.5134 10.9012 11.501C10.8111 11.4943 10.7651 11.4531 10.7412 11.4171C10.7848 11.3812 10.8158 11.3267 10.7822 11.2465C10.7083 11.07 10.4374 11.1234 10.3635 11.3163C10.3635 11.3163 10.4497 11.033 10.15 11.1275C10.15 11.1275 10.1131 10.9304 9.94067 10.9838C9.84692 11.0128 9.81224 11.0705 9.79936 11.1175C9.76308 11.1091 9.71648 11.1093 9.67383 11.1439L9.89139 11.7309L10.2198 11.735L10.2937 11.8458L10.7247 12.1167L10.8027 12.281H11.0737C11.0737 12.281 11.0942 12.1126 11.2379 12.0634C11.3816 12.0141 11.6155 11.9115 11.6402 11.8212C11.6648 11.7309 11.6648 11.7309 11.6648 11.7309L11.9275 11.735C11.9563 11.7144 12.1492 11.3983 12.1492 11.3983L12.2388 10.9912C12.1893 10.9841 11.6235 10.9107 11.5293 11.2876Z" fill="white"/>
<path d="M12.2391 10.9883L12.2383 10.9919C12.2407 10.9922 12.2434 10.9926 12.2434 10.9926L12.2391 10.9883Z" fill="white"/>
<path d="M10.451 11.9181C10.3446 11.8752 10.3066 11.8151 10.2934 11.783C10.2812 11.7534 10.2836 11.7324 10.2869 11.7247C10.2937 11.709 10.3019 11.699 10.3096 11.6971C10.3168 11.6954 10.3259 11.6995 10.3276 11.7005C10.331 11.7045 10.3329 11.717 10.3296 11.72C10.3098 11.7387 10.3088 11.7699 10.3275 11.7897C10.3462 11.8095 10.3773 11.8104 10.3971 11.7918C10.4174 11.7728 10.429 11.7461 10.4298 11.7168C10.4307 11.6853 10.4192 11.654 10.3991 11.6328C10.3789 11.6114 10.3375 11.592 10.2934 11.5999C10.2843 11.6015 10.274 11.6052 10.2636 11.6102C10.2705 11.542 10.2442 11.5071 10.2248 11.493C10.1924 11.4694 10.1462 11.4688 10.1073 11.4916C10.0675 11.515 10.046 11.5559 10.0512 11.5982C10.0546 11.6253 10.0817 11.6415 10.1081 11.6378C10.1351 11.6345 10.1563 11.6066 10.153 11.5797C10.1586 11.5746 10.166 11.5729 10.1657 11.5717C10.1658 11.5718 10.1723 11.5826 10.1645 11.6173C10.1522 11.6718 10.1234 11.7053 10.0789 11.717C10.0234 11.7323 9.95232 11.709 9.91032 11.6628C9.85191 11.5986 9.72966 11.2575 9.65698 11.0303C9.96857 10.8825 10.0069 10.637 10.0009 10.5002C9.99194 10.2918 9.86726 10.0786 9.7286 10.0346C9.67404 10.0174 9.59232 10.0138 9.53301 10.0444C9.49941 10.0619 9.4761 10.0887 9.4656 10.1221C9.44419 10.1902 9.48704 10.2465 9.53829 10.2649C9.59135 10.2839 9.64491 10.261 9.66551 10.2103C9.67573 10.1851 9.66457 10.1563 9.63938 10.1461C9.61404 10.1356 9.58645 10.1479 9.57629 10.173C9.57423 10.1741 9.56738 10.1716 9.56229 10.1658C9.5586 10.1615 9.55782 10.1574 9.55963 10.1517C9.56126 10.1465 9.56498 10.1388 9.57854 10.1318C9.61073 10.115 9.66454 10.1176 9.69891 10.1284C9.77826 10.1535 9.8941 10.3087 9.90254 10.5043C9.90757 10.6212 9.8721 10.8355 9.57791 10.9576C9.55432 10.9674 9.54216 10.9935 9.54979 11.0179C9.56901 11.0793 9.74035 11.6223 9.83741 11.729C9.88963 11.7864 9.96854 11.8198 10.044 11.8198C10.0644 11.8198 10.0847 11.8174 10.104 11.8122C10.1369 11.8035 10.1644 11.7866 10.1883 11.7652C10.1907 11.7833 10.1948 11.8018 10.2025 11.8203C10.2215 11.8667 10.2743 11.9529 10.4218 12.0123C10.7202 12.132 10.7485 12.212 10.7469 12.241C10.746 12.2569 10.7369 12.2651 10.7295 12.2693C10.7263 12.2711 10.7231 12.2723 10.7204 12.273C10.7314 12.2579 10.7334 12.2372 10.7237 12.2197C10.7104 12.196 10.6804 12.1875 10.6567 12.2008C10.6231 12.2195 10.5998 12.2637 10.6198 12.312C10.6354 12.3495 10.672 12.3722 10.7143 12.3722C10.721 12.3722 10.728 12.3716 10.735 12.3704C10.7963 12.36 10.8416 12.3091 10.8453 12.2467C10.8537 12.0974 10.6285 11.9893 10.451 11.9181Z" fill="#F8CB32"/>
<path d="M11.4248 11.9181C11.5312 11.8752 11.5692 11.8151 11.5823 11.783C11.5946 11.7534 11.5922 11.7324 11.5888 11.7247C11.582 11.709 11.5738 11.699 11.5662 11.6971C11.5589 11.6954 11.5498 11.6995 11.5482 11.7005C11.5447 11.7045 11.5429 11.717 11.5462 11.72C11.566 11.7387 11.5669 11.7699 11.5483 11.7897C11.5296 11.8095 11.4985 11.8104 11.4786 11.7918C11.4584 11.7728 11.4468 11.7461 11.446 11.7168C11.4451 11.6853 11.4566 11.654 11.4767 11.6328C11.4968 11.6114 11.5383 11.592 11.5824 11.5999C11.5915 11.6015 11.6017 11.6052 11.6122 11.6102C11.6053 11.542 11.6316 11.5071 11.6509 11.493C11.6834 11.4694 11.7296 11.4688 11.7685 11.4916C11.8083 11.515 11.8298 11.5559 11.8245 11.5982C11.8212 11.6253 11.7941 11.6415 11.7676 11.6378C11.7406 11.6345 11.7194 11.6066 11.7227 11.5797C11.7171 11.5746 11.7098 11.5729 11.71 11.5717C11.7099 11.5718 11.7034 11.5826 11.7113 11.6173C11.7236 11.6718 11.7523 11.7053 11.7969 11.717C11.8524 11.7323 11.9234 11.709 11.9654 11.6628C12.0238 11.5986 12.1461 11.2575 12.2188 11.0303C11.9072 10.8825 11.8689 10.637 11.8748 10.5002C11.8838 10.2918 12.0085 10.0786 12.1472 10.0346C12.2017 10.0174 12.2834 10.0138 12.3428 10.0444C12.3763 10.0619 12.3997 10.0887 12.4102 10.1221C12.4316 10.1902 12.3887 10.2465 12.3375 10.2649C12.2844 10.2839 12.2308 10.261 12.2103 10.2103C12.2 10.1851 12.2112 10.1563 12.2364 10.1461C12.2617 10.1356 12.2893 10.1479 12.2995 10.173C12.3015 10.1741 12.3084 10.1716 12.3135 10.1658C12.3172 10.1615 12.3179 10.1574 12.3161 10.1517C12.3145 10.1465 12.3108 10.1388 12.2972 10.1318C12.265 10.115 12.2112 10.1176 12.1768 10.1284C12.0975 10.1535 11.9817 10.3087 11.9732 10.5043C11.9682 10.6212 12.0037 10.8355 12.2978 10.9576C12.3214 10.9674 12.3336 10.9935 12.326 11.0179C12.3068 11.0793 12.1354 11.6223 12.0383 11.729C11.9861 11.7864 11.9072 11.8198 11.8318 11.8198C11.8113 11.8198 11.7911 11.8174 11.7718 11.8122C11.7388 11.8035 11.7114 11.7866 11.6875 11.7652C11.6851 11.7833 11.6809 11.8018 11.6733 11.8203C11.6543 11.8667 11.6014 11.9529 11.4539 12.0123C11.1556 12.132 11.1272 12.212 11.1288 12.241C11.1298 12.2569 11.1388 12.2651 11.1463 12.2693C11.1495 12.2711 11.1527 12.2723 11.1554 12.273C11.1444 12.2579 11.1424 12.2372 11.1521 12.2197C11.1654 12.196 11.1953 12.1875 11.2191 12.2008C11.2526 12.2195 11.276 12.2637 11.256 12.312C11.2403 12.3495 11.2038 12.3722 11.1615 12.3722C11.1547 12.3722 11.1478 12.3716 11.1408 12.3704C11.0794 12.36 11.0341 12.3091 11.0305 12.2467C11.022 12.0974 11.2473 11.9893 11.4248 11.9181Z" fill="#F8CB32"/>
<g clip-path="url(#clip1_5367_192868)">
<rect width="9.61523" height="6.28688" transform="translate(0.869141 0.839844)" fill="#41479B"/>
<path d="M10.332 0.714844H9.733L6.53885 2.8033V0.714844H4.8147V2.8033L1.62055 0.714844H1.0216C0.831172 0.714844 0.676758 0.868945 0.676758 1.05899V1.33195L3.4172 3.12375H0.676758V4.8444H3.4172L0.676758 6.63624V6.90916C0.676758 7.0992 0.831172 7.25331 1.0216 7.25331H1.62055L4.8147 5.16484V7.25331H6.53885V5.16484L9.73296 7.25331H10.3319C10.5223 7.25331 10.6768 7.0992 10.6768 6.90916V6.6362L7.93636 4.8444H10.6768V3.12375H7.93632L10.6768 1.33195V1.05899C10.6768 0.868945 10.5224 0.714844 10.332 0.714844Z" fill="white"/>
<path d="M10.6768 3.46789H6.19401V0.714844H5.15951V3.46789H0.676758V4.50025H5.15951V7.25331H6.19401V4.50025H10.6768V3.46789Z" fill="#FF334B"/>
<path d="M4.81738 3.11059L0.856151 0.714844C0.750741 0.777021 0.676758 0.881431 0.676758 1.0063V1.0245L4.12599 3.11059H4.81738Z" fill="#FF334B"/>
<path d="M7.17608 3.11059L10.6428 0.886481C10.5826 0.785716 10.4763 0.714844 10.3492 0.714844H10.2743L6.54004 3.11059H7.17608Z" fill="#FF334B"/>
<path d="M4.18202 4.84961L0.725586 7.07591C0.785188 7.17942 0.893029 7.25233 1.0218 7.25233H1.08704L4.81738 4.84961H4.18202Z" fill="#FF334B"/>
<path d="M10.6772 6.93504L7.4617 4.84961H6.83105L10.4825 7.21777C10.5919 7.16706 10.6669 7.06076 10.6772 6.93504Z" fill="#FF334B"/>
</g>
</g>
<defs>
<clipPath id="clip0_5367_192868">
<rect x="0.869141" y="0.839844" width="14" height="14" rx="2" fill="white"/>
</clipPath>
<clipPath id="clip1_5367_192868">
<rect width="9.61523" height="6.28688" fill="white" transform="translate(0.869141 0.839844)"/>
</clipPath>
</defs>
</svg>
