<svg width="16" height="16" viewBox="0 0 16 16" fill="none" xmlns="http://www.w3.org/2000/svg">
<g clip-path="url(#clip0_5367_192859)">
<rect x="1" y="1" width="14" height="14" rx="2" fill="#F8CB32"/>
<path d="M-4.7998 -0.475024V2.12935L20.376 12.5469V9.50847L-4.6042 -0.828125C-4.71941 -0.750139 -4.7998 -0.624702 -4.7998 -0.475024Z" fill="white"/>
<path d="M-4.7998 5.16932L20.1804 15.5059C20.2956 15.4279 20.376 15.3024 20.376 15.1528V12.5484L-4.7998 2.13086V5.16932Z" fill="#464655"/>
<path d="M10.7973 8.16151L10.7977 8.14741C10.7977 8.14741 10.7911 8.07921 10.7787 7.95122C10.7749 7.88725 10.7602 7.80936 10.7408 7.71854C10.7258 7.62699 10.6968 7.52455 10.6595 7.41151C10.5847 7.18718 10.4696 6.91936 10.2708 6.66005C10.2468 6.62801 10.2184 6.59637 10.1922 6.5645C10.305 6.43521 10.4149 6.28483 10.5187 6.10337C10.5187 6.10337 9.95009 6.12943 9.3115 5.85077C9.10071 5.74101 8.87175 5.65092 8.62062 5.59192L8.50149 5.11545C8.476 5.01358 8.38439 4.94205 8.27942 4.94205H8.11471V4.71315H8.91603L8.68713 4.25523L8.91603 3.79732H8.11471V3.56836H7.88569V4.94205H7.72098C7.6159 4.94205 7.52435 5.01358 7.49891 5.11545L7.38237 5.58165C7.2277 5.6146 7.07365 5.6564 6.92411 5.71997C6.80177 5.76893 6.68342 5.8303 6.5679 5.899C5.98053 6.12446 5.48166 6.10342 5.48166 6.10342C5.58534 6.28477 5.69517 6.4351 5.80787 6.56433C5.78502 6.59208 5.7597 6.61701 5.73758 6.64556C5.58162 6.85737 5.45707 7.09552 5.36202 7.34839C5.2716 7.59393 5.22021 7.90559 5.20301 8.13342L5.20256 8.35369C5.20025 8.42284 5.20814 8.49138 5.21542 8.56014C5.22444 8.69873 5.25507 8.834 5.28395 8.97028C5.35537 9.23866 5.45983 9.49977 5.60226 9.73951C5.88735 10.2197 6.32213 10.5983 6.80966 10.833C7.06152 10.9439 7.29945 11.0285 7.58335 11.0688C7.73458 11.097 7.82878 11.0965 7.9408 11.1063L7.96117 11.1077L7.97137 11.1085L8.0046 11.1093L8.05226 11.1073L8.14725 11.103C8.21032 11.0988 8.27338 11.0996 8.33515 11.0904C8.83334 11.0357 9.2824 10.842 9.63302 10.5905C9.9836 10.3345 10.2354 10.0223 10.4079 9.72473C10.5831 9.42684 10.6735 9.1386 10.7292 8.90248C10.7558 8.78458 10.7756 8.67685 10.7828 8.57554C10.7942 8.47525 10.8008 8.39312 10.7978 8.33947C10.7976 8.22339 10.7973 8.16151 10.7973 8.16151ZM6.63627 9.77504C6.4772 9.65106 6.33342 9.50327 6.20232 9.34025C6.07614 9.17334 5.97534 8.98506 5.8962 8.78487C5.82157 8.58896 5.78051 8.35346 5.76032 8.16151C5.75473 7.89509 5.7672 7.71341 5.81808 7.48625C5.87353 7.27049 5.95441 7.05931 6.06695 6.86447C6.07349 6.85319 6.08235 6.8436 6.08906 6.83249C6.60953 7.23908 7.15905 7.21014 7.54228 7.01283V7.46059C7.66869 7.46059 7.77119 7.71685 7.77119 8.03295C7.77119 8.34906 7.66869 8.60532 7.54228 8.60532V8.83422C7.97171 9.4067 7.77468 9.88978 7.51081 10.1714C7.39106 10.1454 7.26679 10.1104 7.15059 10.0647C6.97037 9.99464 6.79917 9.89367 6.63627 9.77504ZM10.2397 8.13579C10.2393 8.13917 10.2333 8.198 10.2216 8.3102C10.2181 8.37275 10.2043 8.43198 10.1884 8.49758C10.177 8.56375 10.1528 8.64385 10.1217 8.73466C10.0597 8.91257 9.96645 9.125 9.80434 9.32852C9.64589 9.53266 9.43216 9.73426 9.16552 9.89203C8.96279 10.0123 8.72453 10.0937 8.47278 10.1516C8.21782 9.86744 8.03827 9.39412 8.45823 8.83428V8.60538C8.33182 8.60538 8.22933 8.34912 8.22933 8.03301C8.22933 7.7169 8.33182 7.46064 8.45823 7.46064V7.01288C8.84191 7.21042 9.39228 7.23925 9.91331 6.83119C9.92223 6.8462 9.93311 6.86143 9.94152 6.87632C10.0801 7.11842 10.1485 7.35127 10.1915 7.54086C10.2119 7.63658 10.227 7.72198 10.2306 7.79785C10.2384 7.87293 10.2442 7.93644 10.2409 7.98873C10.2401 8.07746 10.2398 8.12242 10.2397 8.13579Z" fill="#FF334B"/>
<path d="M8 11.5818C7.15462 11.5818 6.38782 11.2525 5.81551 10.7173C5.71042 10.6191 5.54419 10.631 5.45056 10.7402L4.57387 11.763C4.48069 11.8718 4.55796 12.0397 4.70107 12.0397H5.25245L5.9875 12.4073C6.09078 12.4589 6.21634 12.4255 6.28042 12.3295L6.51699 11.9745C6.97423 12.1632 7.47462 12.2687 7.99995 12.2687C8.52527 12.2687 9.02566 12.1632 9.4829 11.9745L9.71947 12.3295C9.78349 12.4256 9.90906 12.4589 10.0124 12.4073L10.7474 12.0397H11.2988C11.442 12.0397 11.5193 11.8718 11.426 11.763L10.5493 10.7402C10.4557 10.6309 10.2895 10.6191 10.1844 10.7173C9.61224 11.2525 8.84549 11.5818 8 11.5818Z" fill="#FF334B"/>
<path d="M4.79477 10.6657H3.64998L3.87888 8.6051C3.87888 8.6051 3.0775 8.20438 3.16143 7.02817C3.17164 6.88512 3.29258 6.77344 3.43597 6.77344H3.63137C3.76629 6.77344 3.87939 6.87125 3.90173 7.00431C3.9499 7.29148 4.09977 7.76288 4.56576 7.91823L4.79477 10.6657Z" fill="#FF334B"/>
<path d="M11.2051 10.6657H12.3499L12.121 8.6051C12.121 8.6051 12.9223 8.20438 12.8384 7.02817C12.8282 6.88512 12.7073 6.77344 12.5639 6.77344H12.3685C12.2336 6.77344 12.1205 6.87125 12.0981 7.00431C12.0499 7.29148 11.9001 7.76288 11.4341 7.91823L11.2051 10.6657Z" fill="#FF334B"/>
</g>
<defs>
<clipPath id="clip0_5367_192859">
<rect x="1" y="1" width="14" height="14" rx="2" fill="white"/>
</clipPath>
</defs>
</svg>
