<svg width="16" height="16" viewBox="0 0 16 16" fill="none" xmlns="http://www.w3.org/2000/svg">
<g clip-path="url(#clip0_5367_192720)">
<rect x="1" y="1" width="14" height="14" rx="2" fill="#FF334B"/>
<path d="M22.1624 15.0395H1.37129C1.16626 15.0395 1 14.8726 1 14.6668V11.3125H22.5337V14.6668C22.5337 14.8726 22.3674 15.0395 22.1624 15.0395Z" fill="#73AF00"/>
<path d="M22.1624 0.960938H1.37129C1.16626 0.960938 1 1.12651 1 1.3307V11.3137H22.5337V1.3307C22.5337 1.12651 22.3674 0.960938 22.1624 0.960938Z" fill="#FF334B"/>
<path d="M3.89877 15.0407H1.36236C1.16226 15.0407 1 14.8747 1 14.6701V1.33147C1 1.12686 1.16226 0.960938 1.36236 0.960938H3.89877V15.0407Z" fill="white"/>
<path d="M1.41406 14.3832H1.53612V14.0184H1.41406V14.3832ZM2.38825 14.3832H2.51035V14.0184H2.38825V14.3832ZM3.36306 14.3832H3.48457V14.0184H3.36306V14.3832ZM1.90178 13.405H2.02263V13.1009H1.90178V13.405ZM2.87655 13.405H2.99806V13.1009H2.87655V13.405ZM1.41406 12.6118H1.53612V12.2469H1.41406V12.6118ZM2.38825 12.6118H2.51035V12.2469H2.38825V12.6118ZM3.36306 12.6118H3.48457V12.2469H3.36306V12.6118ZM1.65884 13.1009H1.77969V12.7941H1.90178V12.4901H2.02263V12.7941H2.14535V13.1009H2.26619V13.405H2.14535V13.7116H2.02263V14.0183H1.90178V13.7116H1.77969V13.405H1.65884V13.1009ZM2.63307 13.1009H2.75512V12.7941H2.87659V12.4901H2.9981V12.7941H3.11957V13.1009H3.24163V13.405H3.11957V13.7116H2.9981V14.0183H2.87659V13.7116H2.75512V13.405H2.63307V13.1009ZM2.87655 11.8794V12.1835H2.75391V12.4901H2.63307V12.7942H2.51035V13.101H2.38825V12.7942H2.26615V12.4901H2.14531V12.1835H2.02259V11.8794H1.90174V12.1835H1.77965V12.4901H1.6588V12.7942H1.53608V13.101H1.41406V13.405H1.53612V13.7117H1.65884V14.0183H1.77969V14.3224H1.90178V14.6265H2.02388V14.3224H2.14535V14.0183H2.26619V13.7117H2.38829V13.405H2.51038V13.7117H2.63311V14.0183H2.75516V14.3224H2.87663V14.6265H2.99814V14.3224H3.11961V14.0183H3.24167V13.7117H3.36376V13.405H3.48461V13.101H3.3631V12.7942H3.24167V12.4901H3.11961V12.1835H2.99814V11.8794H2.87655ZM3.17837 11.5754H3.23913V11.4538H3.30047V11.5754H3.36181V11.697H3.30047V11.8212H3.23913V11.697H3.17837V11.5754ZM3.17837 11.1497V11.3295H3.11828V11.5146H3.05694V11.7579H3.11828V11.9402H3.17837V12.1226H3.36185V11.9402H3.4226V11.7579H3.48269V11.5146H3.4226V11.3295H3.36185V11.1497H3.17837ZM1.53612 11.5727H1.59746V11.4512H1.6588V11.5727H1.71827V11.697H1.6588V11.8186H1.59746V11.697H1.53612V11.5727ZM1.53612 11.147V11.3295H1.47536V11.5119H1.41406V11.7578H1.47536V11.9402H1.53612V12.1225H1.71831V11.9402H1.77965V11.7578H1.83919V11.5119H1.77965V11.3295H1.71831V11.147H1.53612ZM2.20602 11.5727H2.26611V11.4512H2.32812V11.5727H2.38821V11.697H2.32812V11.8186H2.26611V11.697H2.20602V11.5727ZM2.51035 11.5727H2.57169V11.4512H2.63303V11.5727H2.69312V11.697H2.63303V11.8186H2.57169V11.697H2.51035V11.5727ZM2.51035 11.147V11.3295H2.38825V11.147H2.20606V11.3295H2.14531V11.5119H2.08397V11.7578H2.14531V11.9402H2.20606V12.1225H2.38825V11.9402H2.51035V12.1225H2.69316V11.9402H2.75512V11.7578H2.81467V11.5119H2.75512V11.3295H2.69316V11.147H2.51035ZM1.41406 11.0227H1.53612V10.6579H1.41406V11.0227ZM2.38825 11.0227H2.51035V10.6579H2.38825V11.0227ZM3.36306 11.0227H3.48457V10.6579H3.36306V11.0227ZM1.41406 9.49716H1.53612V9.25398H1.41406V9.49716ZM3.36306 9.49716H3.48457V9.25398H3.36306V9.49716ZM2.38825 8.64318H2.51035V8.33911H2.38825V8.64318ZM1.41406 7.81834V8.00073V8.00336V8.18575H1.53612V8.00336V8.00073V7.81834H1.41406ZM2.08393 7.81834V8.00073V8.00336V8.18575H2.20602V8.00336V8.00073V7.81834H2.08393ZM2.69316 7.81834V8.00073V8.00336V8.18575H2.81463V8.00336V8.00073V7.81834H2.69316ZM3.36306 7.81834V8.00073V8.00336V8.18575H3.48457V8.00336V8.00073V7.81834H3.36306ZM2.57169 7.60422V7.72581H2.51035V7.81834H2.38825V7.72581H2.32816V7.60422H2.20606V7.78661H2.26615V7.87914H2.32816V8.00073V8.00336V8.12236H2.26615V8.21489H2.20606V8.39728H2.32816V8.27573H2.38825V8.18579H2.51035V8.27573H2.57169V8.39728H2.69316V8.21489H2.63307V8.12236H2.57173V8.00336V8.00073V7.87914H2.63307V7.78661H2.69316V7.60422H2.57169ZM2.38825 7.66493H2.51035V7.36087H2.38825V7.66493ZM1.41406 6.75011H1.53612V6.50692H1.41406V6.75011ZM3.36306 6.75011H3.48457V6.50692H3.36306V6.75011ZM1.41406 5.3462H1.53612V4.97875H1.41406V5.3462ZM2.38825 5.3462H2.51035V4.97875H2.38825V5.3462ZM3.36306 5.3462H3.48457V4.97875H3.36306V5.3462ZM1.90178 8.00603V7.9981V7.8791H2.02263V7.66756H2.14535V7.42166H2.32816V7.13353H2.38825V6.99338H2.44963H2.51035V7.13086H2.57169V7.4217H2.75508V7.5433V7.66756H2.87655V7.8791H2.99806V8.00073V8.12232H2.87655V8.33911H2.75508V8.46071V8.5823H2.57169V8.87052H2.51035V9.008H2.44963H2.38825V8.87052H2.32816V8.5823H2.14535V8.33903H2.02263V8.12224H1.90178V8.00603ZM2.87655 4.61122V4.91787H2.75391V5.22194H2.63307V5.52872H2.51035V5.7719V5.83274H2.38825V5.52867H2.26615V5.2219H2.14531V4.91783H2.02259V4.61118H1.90174V4.91783H1.77965V5.2219H1.65755V5.52867H1.53608V5.77186V5.8327H1.41406V6.13935H1.53612V6.446H1.65759V6.75007H1.77969V7.05417H1.90178V6.75007H2.02263V6.446H2.14535V6.13935H2.02263V5.77182H2.14535V5.83266V6.01771H2.26619V6.50688H2.3282V6.80828L2.14539 6.8109V7.05417H2.02267V7.23656H1.90182V7.54321H1.77972V7.23656H1.65763V7.05417H1.53616V6.8717H1.41406V7.42162H1.53612V7.66752H1.65759V7.87905H1.77969V8.00073V8.00336V8.12236H1.65759V8.33915H1.53612V8.58242H1.41406V9.13234H1.53612V8.94724H1.65759V8.76486H1.77969V8.46079H1.90178V8.76486H2.02263V8.94724H2.14535V9.19314L2.32816 9.19577V9.49716H2.26615V9.98633H2.14531V10.1687V10.2322H2.02259V9.86207H2.14531V9.558H2.02259V9.25394H1.90174V8.94716H1.77965V9.25394H1.65755V9.558H1.53608V9.86207H1.41406V10.1687H1.53612V10.2322V10.4728H1.65884V10.7796H1.77969V11.0862H1.90178V11.3903H2.02263V11.0862H2.14535V10.7796H2.26619V10.4728H2.38829V10.1687H2.51038V10.2322V10.4728H2.63311V10.7796H2.75516V11.0862H2.87663V11.3903H2.99814V11.0862H3.11961V10.7796H3.24167V10.4728H3.3631V10.1687H3.48457V9.86207H3.36306V9.558H3.24163V9.25394H3.11957V8.94716H2.9981V9.25394H2.87659V9.558H2.75395V9.86207H2.87659V10.1687V10.2322H2.75395V10.1687V9.98633H2.63311V9.49716H2.61571H2.57176V9.1931H2.61571H2.64859H2.6932H2.75516V8.9472H2.87663V8.76481H2.99814V8.46075H3.11961V8.76481H3.24167V8.9472H3.36376V9.1323H3.48461V8.58238H3.36373V8.33911H3.24163V8.12232H3.11957V8.00336V8.00073V7.87914H3.24163V7.6676H3.36373V7.4217H3.48461V6.87178H3.36373V7.05426H3.24163V7.23665H3.11957V7.5433H2.9981V7.23665H2.87659V7.05426H2.75512V6.81099H2.69316H2.64855H2.61567H2.57173V6.50692H2.61567H2.63307V6.01776H2.75391V5.8327V5.77186H2.87655V5.8327V6.13935H2.75391V6.446H2.87655V6.75007H2.99806V7.05417H3.11953V6.75007H3.24159V6.446H3.36302V6.13935H3.48461V5.8327H3.3631V5.52863H3.24167V5.22186H3.11961V4.91779H2.99814V4.61114L2.87655 4.61122ZM1.53612 4.30716H1.59629V4.18556H1.65884V4.30716H1.71831V4.42875H1.65884V4.55301H1.59629V4.42875H1.53612V4.30716ZM1.53612 4.06126H1.47536V4.24632H1.41406V4.48959H1.47536V4.67465H1.53612V4.85712H1.71831V4.67465H1.77965V4.48959H1.83919V4.24632H1.77965V4.06126H1.71831V3.8815H1.53612C1.53612 3.8815 1.53612 4.06126 1.53612 4.06126ZM2.20602 4.30716H2.26611V4.18556H2.32812V4.30716H2.38821V4.42875H2.32812V4.55301H2.26611V4.42875H2.20602V4.30716ZM2.51035 4.30716H2.57169V4.18556H2.63303V4.30716H2.69312V4.42875H2.63303V4.55301H2.57169V4.42875H2.51035V4.30716ZM2.20602 4.06126H2.14527V4.24632H2.08393V4.48959H2.14527V4.67465H2.20602V4.85712H2.38821V4.67465H2.51031V4.85712H2.69312V4.67465H2.75508V4.48959H2.81463V4.24632H2.75508V4.06126H2.69312V3.8815H2.51031V4.06126H2.38821V3.8815H2.20602V4.06126ZM3.17837 4.30453H3.23913V4.18552H3.30047V4.30453H3.36181V4.42879H3.30047V4.55034H3.23913V4.42879H3.17837V4.30453ZM3.17837 3.87887V4.06126H3.11828V4.24632H3.05694V4.48959H3.11828V4.67198H3.17837V4.85445H3.36185V4.67198H3.4226V4.48959H3.48269V4.24632H3.4226V4.06126H3.36185V3.87887H3.17837ZM1.41406 3.75724H1.53612V3.39237H1.41406V3.75724ZM2.38825 3.75724H2.51035V3.39237H2.38825V3.75724ZM3.36306 3.75724H3.48457V3.39237H3.36306V3.75724ZM1.90178 2.90325H2.02263V2.59648H1.90178V2.90325ZM2.87655 2.90325H2.99806V2.59648H2.87655V2.90325ZM1.41406 1.9858H1.53612V1.62094H1.41406V1.9858ZM2.38825 1.9858H2.51035V1.62094H2.38825V1.9858ZM3.36306 1.9858H3.48457V1.62094H3.36306V1.9858ZM1.65884 2.59652H1.77969V2.29245H1.90178V1.9858H2.02263V2.29245H2.14535V2.59652H2.26619V2.90329H2.14535V3.20736H2.02263V3.51401H1.90178V3.20736H1.77969V2.90329H1.65884V2.59652ZM2.63307 2.59652H2.75512V2.29245H2.87659V1.9858H2.9981V2.29245H3.11957V2.59652H3.24163V2.90329H3.11957V3.20736H2.9981V3.51401H2.87659V3.20736H2.75512V2.90329H2.63307V2.59652ZM2.87655 1.375V1.68178H2.75508V1.98584H2.63303V2.29249H2.51031V2.59656H2.38821V2.29249H2.26611V1.98584H2.14527V1.68178H2.02384V1.375H1.90174V1.68178H1.77965V1.98584H1.6588V2.29249H1.53608V2.59656H1.41406V2.90333H1.53612V3.2074H1.65884V3.51405H1.77969V3.8207H1.90178V4.12477H2.02263V3.8207H2.14535V3.51405H2.26619V3.2074H2.38829V2.90333H2.51038V3.2074H2.63311V3.51405H2.75395V3.8207H2.87659V4.12477H2.9981V3.8207H3.11957V3.51405H3.24163V3.2074H3.36306V2.90333H3.48457V2.59656H3.36369V2.29249H3.24159V1.98584H3.11953V1.68178H2.99806V1.375C2.99806 1.375 2.87655 1.375 2.87655 1.375Z" fill="#FF334B"/>
</g>
<defs>
<clipPath id="clip0_5367_192720">
<rect x="1" y="1" width="14" height="14" rx="2" fill="white"/>
</clipPath>
</defs>
</svg>
