<svg width="16" height="16" viewBox="0 0 16 16" fill="none" xmlns="http://www.w3.org/2000/svg">
<rect x="15" y="15" width="14" height="14" rx="2" transform="rotate(180 15 15)" fill="#73AF00"/>
<path d="M8.55556 9.31603C7.82952 9.31603 7.24091 8.72744 7.24091 8.00138C7.24091 7.27531 7.82949 6.68673 8.55556 6.68673C8.65191 6.68673 8.74525 6.69828 8.83524 6.71893C8.8711 6.72715 8.89012 6.67901 8.85883 6.65964C8.58351 6.48894 8.25195 6.4004 7.89804 6.42919C7.12768 6.49187 6.50835 7.1199 6.45591 7.89105C6.39324 8.81226 7.12193 9.57896 8.02972 9.57896C8.33404 9.57896 8.61798 9.49251 8.85891 9.34311C8.8902 9.32372 8.87128 9.27555 8.83537 9.28383C8.74533 9.30447 8.65193 9.31603 8.55556 9.31603Z" fill="#F8CB32"/>
<path d="M9.70071 6.88738L9.79945 7.13745L10.0565 7.05872C10.0708 7.05434 10.0831 7.06974 10.0756 7.08267L9.94167 7.31579L10.1635 7.46769C10.1758 7.47611 10.1715 7.49531 10.1567 7.49755L9.89092 7.53817L9.91046 7.8063C9.91156 7.82119 9.89384 7.82971 9.88287 7.81958L9.68544 7.63712L9.48801 7.81958C9.47703 7.82971 9.45932 7.82119 9.46041 7.8063L9.47996 7.53817L9.21418 7.49755C9.19942 7.49531 9.19506 7.47611 9.20736 7.46769L9.4292 7.31579L9.29526 7.08267C9.28782 7.06971 9.30007 7.05437 9.31435 7.05872L9.57142 7.13745L9.67016 6.88738C9.67559 6.87348 9.69524 6.87348 9.70071 6.88738Z" fill="#F8CB32"/>
<path d="M13.2964 6.21353L13.3952 6.46361L13.6522 6.38487C13.6665 6.38049 13.6788 6.39589 13.6713 6.40882L13.5374 6.64195L13.7592 6.79384C13.7715 6.80227 13.7672 6.82146 13.7524 6.8237L13.4866 6.86433L13.5062 7.13247C13.5073 7.14737 13.4895 7.15589 13.4786 7.14576L13.2811 6.9633L13.0837 7.14576C13.0727 7.15589 13.055 7.14737 13.0561 7.13247L13.0757 6.86433L12.8099 6.8237C12.7951 6.82146 12.7908 6.80227 12.8031 6.79384L13.0249 6.64195L12.891 6.40882C12.8835 6.39587 12.8958 6.38052 12.91 6.38487L13.1671 6.46361L13.2659 6.21353C13.2713 6.19966 13.2909 6.19966 13.2964 6.21353Z" fill="#F8CB32"/>
<path d="M11.4986 4.59246L11.5973 4.84253L11.8544 4.7638C11.8687 4.75942 11.8809 4.77482 11.8735 4.78775L11.7395 5.02087L11.9614 5.17276C11.9737 5.18119 11.9693 5.20038 11.9545 5.20262L11.6888 5.24325L11.7083 5.51137C11.7094 5.52627 11.6917 5.53479 11.6807 5.52466L11.4833 5.3422L11.2859 5.52466C11.2749 5.53479 11.2572 5.52627 11.2583 5.51137L11.2778 5.24325L11.012 5.20262C10.9973 5.20038 10.9929 5.18119 11.0052 5.17276L11.2271 5.02087L11.0931 4.78775C11.0857 4.77479 11.0979 4.75944 11.1122 4.7638L11.3693 4.84253L11.468 4.59246C11.4734 4.57856 11.4931 4.57856 11.4986 4.59246Z" fill="#F8CB32"/>
<path d="M11.4986 10.4831L11.5973 10.7331L11.8544 10.6544C11.8687 10.65 11.8809 10.6654 11.8735 10.6784L11.7395 10.9115L11.9614 11.0634C11.9737 11.0718 11.9693 11.091 11.9545 11.0932L11.6888 11.1339L11.7083 11.402C11.7094 11.4169 11.6917 11.4254 11.6807 11.4153L11.4833 11.2328L11.2859 11.4153C11.2749 11.4254 11.2572 11.4169 11.2583 11.402L11.2778 11.1339L11.012 11.0932C10.9973 11.091 10.9929 11.0718 11.0052 11.0634L11.2271 10.9115L11.0931 10.6784C11.0857 10.6654 11.0979 10.65 11.1122 10.6544L11.3693 10.7331L11.468 10.4831C11.4734 10.4692 11.4931 10.4692 11.4986 10.4831Z" fill="#F8CB32"/>
<path d="M12.2341 7.11357L12.303 7.32022L12.5208 7.3219C12.5377 7.32205 12.5447 7.34356 12.5311 7.35359L12.3559 7.48301L12.4216 7.6907C12.4267 7.70679 12.4083 7.7201 12.3946 7.71027L12.2174 7.58358L12.0401 7.71027C12.0264 7.72008 12.0081 7.70679 12.0132 7.6907L12.0789 7.48301L11.9036 7.35359C11.8901 7.34356 11.8971 7.32203 11.9139 7.3219L12.1318 7.32022L12.2007 7.11357C12.2061 7.09756 12.2287 7.09756 12.2341 7.11357Z" fill="#F8CB32"/>
<path d="M3.69501 7.55214C4.5017 7.55214 5.15565 6.89819 5.15565 6.0915C5.15565 5.28481 4.5017 4.63086 3.69501 4.63086C2.88832 4.63086 2.23438 5.28481 2.23438 6.0915C2.23438 6.89819 2.88832 7.55214 3.69501 7.55214Z" fill="#F8CB32"/>
<path d="M3.54395 7.22789H3.9384C3.9384 7.22789 4.16251 6.22383 3.95632 5.86523L3.83083 5.9459C3.83083 5.9459 4.03702 6.63618 3.54395 7.22789Z" fill="#964B50"/>
<path d="M3.55911 5.91095C3.55911 5.91095 3.33202 6.06633 3.40373 6.52654C3.40373 6.52654 3.57703 6.3831 3.67267 6.06633C3.67267 6.06633 3.53521 6.32929 3.72646 6.53848C3.72646 6.53848 3.92964 6.2516 3.89976 6.00058C3.89976 6.00058 4.57532 6.70605 4.43168 6.52652C4.40777 6.49663 4.46754 6.19778 4.23445 5.95277C4.23445 5.95277 4.61697 6.04838 4.76038 6.01254C4.76038 6.01254 4.77235 5.70771 4.40775 5.65393L4.49142 5.41487C4.49142 5.41487 4.21055 5.39695 4.0611 5.54037C4.0611 5.54037 4.02523 5.16981 4.17465 4.99053C4.17465 4.99053 3.73239 4.92478 3.71444 5.50453C3.71444 5.50453 3.55308 5.13397 3.05703 5.22365C3.05703 5.22365 3.3379 5.42684 3.38576 5.51652C3.38576 5.51652 2.9913 5.24758 2.80604 5.62409C2.80604 5.62409 3.12281 5.54042 3.23636 5.68984C3.23636 5.68984 2.72835 5.63606 2.68652 6.07236C2.68655 6.07234 3.1587 5.85118 3.55911 5.91095Z" fill="#73AF00"/>
</svg>
