<svg width="16" height="16" viewBox="0 0 16 16" fill="none" xmlns="http://www.w3.org/2000/svg">
<rect x="1" y="1" width="14" height="14" rx="2" fill="#FF334B"/>
<path d="M10.9222 8.82184C10.9222 8.82184 10.3727 8.73021 9.96559 8.39262C9.84549 8.29302 9.67121 8.21693 9.50146 8.16068C9.63793 8.15462 9.78268 8.15843 9.91946 8.18609C10.4861 8.30065 11.0355 8.02562 11.0355 8.02562C11.0355 8.02562 10.4811 8.08156 9.99971 7.86271C9.86949 7.80352 9.70062 7.77565 9.53577 7.7639C9.65434 7.72981 9.78015 7.70312 9.90437 7.69624C10.4816 7.66424 10.9439 7.25959 10.9439 7.25959C10.9439 7.25959 10.4216 7.45346 9.90052 7.36306C9.74877 7.33671 9.56249 7.35643 9.38915 7.39128C9.50318 7.31965 9.62874 7.25271 9.75902 7.20962C10.3078 7.02803 10.6485 6.51668 10.6485 6.51668C10.6485 6.51668 10.1949 6.84021 9.66827 6.889C9.5119 6.90346 9.3338 6.97368 9.17309 7.05453C9.26581 6.95287 9.37165 6.85225 9.48884 6.7745C9.97049 6.45484 10.1645 5.87187 10.1645 5.87187C10.1645 5.87187 9.81212 6.3034 9.3169 6.48909C9.1819 6.53971 9.04199 6.64109 8.91634 6.75034C8.9764 6.64115 9.04699 6.53193 9.13087 6.43812C9.51615 6.00715 9.55655 5.39409 9.55655 5.39409C9.55655 5.39409 9.32459 5.90065 8.8924 6.20543C8.7664 6.29431 8.64865 6.44018 8.55071 6.58762C8.58065 6.45618 8.62199 6.31987 8.68365 6.19703C8.94299 5.68037 8.8219 5.07803 8.8219 5.07803C8.8219 5.07803 8.73028 5.62759 8.39268 6.03469C8.29309 6.15478 8.21699 6.32906 8.16074 6.49887C8.15468 6.3624 8.15849 6.21765 8.18615 6.08087C8.30071 5.51425 8.02568 4.96484 8.02568 4.96484C8.02568 4.96484 8.08162 5.51919 7.86275 6.00062C7.80356 6.13084 7.77568 6.29972 7.76393 6.46456C7.72984 6.346 7.70315 6.22018 7.69628 6.09597C7.66428 5.51875 7.25962 5.05644 7.25962 5.05644C7.25962 5.05644 7.4535 5.57875 7.36309 6.09981C7.33675 6.25156 7.35646 6.43784 7.39131 6.61121C7.31968 6.49718 7.25275 6.37162 7.20965 6.24131C7.02806 5.6925 6.51672 5.35187 6.51672 5.35187C6.51672 5.35187 6.84025 5.80547 6.88903 6.33206C6.9035 6.48843 6.97372 6.66659 7.05459 6.82728C6.95293 6.73456 6.85231 6.62872 6.77453 6.5115C6.45487 6.02984 5.8719 5.83584 5.8719 5.83584C5.8719 5.83584 6.30344 6.18825 6.48912 6.68346C6.53975 6.81846 6.64112 6.9584 6.75037 7.08403C6.64118 7.02396 6.53197 6.95337 6.43815 6.8695C6.00719 6.48422 5.39412 6.44381 5.39412 6.44381C5.39412 6.44381 5.90069 6.67578 6.20547 7.108C6.29428 7.23396 6.44019 7.35174 6.58756 7.44968C6.45615 7.41974 6.31984 7.3784 6.19703 7.31674C5.68037 7.0574 5.07803 7.17849 5.07803 7.17849C5.07803 7.17849 5.62759 7.27012 6.03469 7.60771C6.15478 7.70731 6.32906 7.7834 6.49887 7.83965C6.3624 7.84571 6.21765 7.8419 6.08087 7.81424C5.51425 7.69968 4.96484 7.97471 4.96484 7.97471C4.96484 7.97471 5.51919 7.91877 6.00062 8.13765C6.13084 8.19684 6.29972 8.22471 6.46456 8.23646C6.346 8.27056 6.22019 8.29724 6.09597 8.30412C5.51875 8.33612 5.05644 8.74077 5.05644 8.74077C5.05644 8.74077 5.57875 8.5469 6.09981 8.6373C6.25156 8.66365 6.43784 8.64393 6.61122 8.60909C6.49719 8.68071 6.37162 8.74765 6.24131 8.79074C5.6925 8.97234 5.35187 9.48368 5.35187 9.48368C5.35187 9.48368 5.80547 9.16015 6.33206 9.11137C6.48844 9.0969 6.66659 9.02668 6.82728 8.9458C6.73456 9.04746 6.62872 9.14808 6.5115 9.22587C6.02984 9.54552 5.83581 10.1285 5.83581 10.1285C5.83581 10.1285 6.18822 9.69696 6.68343 9.51127C6.8184 9.46065 6.95834 9.35927 7.08397 9.25002C7.02393 9.35918 6.95331 9.46843 6.8695 9.56221C6.48422 9.99318 6.44381 10.6062 6.44381 10.6062C6.44381 10.6062 6.67578 10.0997 7.108 9.7949C7.234 9.70602 7.35175 9.56015 7.44968 9.41277C7.41975 9.54421 7.3784 9.68049 7.31675 9.80333C7.0574 10.32 7.1785 10.9223 7.1785 10.9223C7.1785 10.9223 7.27012 10.3728 7.60771 9.96568C7.70731 9.84558 7.7834 9.6713 7.83965 9.50149C7.84571 9.63802 7.8419 9.78274 7.81425 9.91952C7.69968 10.4861 7.97471 11.0355 7.97471 11.0355C7.97471 11.0355 7.91878 10.4812 8.13765 9.99977C8.19684 9.86955 8.22471 9.70065 8.23646 9.53583C8.27056 9.6544 8.29724 9.78021 8.30412 9.90443C8.33612 10.4816 8.74078 10.944 8.74078 10.944C8.74078 10.944 8.5469 10.4216 8.63731 9.90058C8.66365 9.74883 8.64393 9.56255 8.60909 9.38921C8.68071 9.50324 8.74765 9.62877 8.79074 9.75908C8.97234 10.3079 9.48368 10.6485 9.48368 10.6485C9.48368 10.6485 9.16015 10.1949 9.11137 9.6683C9.0969 9.51193 9.02668 9.33377 8.94581 9.17308C9.04746 9.2658 9.14809 9.37165 9.22587 9.48887C9.54552 9.97052 10.1285 10.1646 10.1285 10.1646C10.1285 10.1646 9.69696 9.81215 9.51127 9.31693C9.46065 9.18196 9.35927 9.04202 9.25002 8.9164C9.35918 8.97643 9.4684 9.04705 9.56221 9.13087C9.99318 9.51615 10.6062 9.55655 10.6062 9.55655C10.6062 9.55655 10.0997 9.32458 9.7949 8.89237C9.70602 8.76637 9.56015 8.64859 9.41271 8.55068C9.54415 8.58062 9.68043 8.62196 9.80327 8.68362C10.3199 8.94293 10.9222 8.82184 10.9222 8.82184ZM8.00368 9.39987C7.23015 9.39987 6.60309 8.7728 6.60309 7.99927C6.60309 7.22575 7.23015 6.59868 8.00368 6.59868C8.77721 6.59868 9.40427 7.22575 9.40427 7.99927C9.40427 8.7728 8.77721 9.39987 8.00368 9.39987Z" fill="#F8CB32"/>
<path d="M7.55963 7.43342C7.58951 7.41011 7.61922 7.3867 7.64941 7.36589C7.45098 7.27564 7.27235 7.2323 7.14704 7.21289C7.1271 7.23458 7.1091 7.25786 7.09082 7.28098C7.21388 7.30489 7.37923 7.35051 7.55963 7.43342Z" fill="#F8CB32"/>
<path d="M7.20801 7.1492C7.34266 7.16442 7.5376 7.20452 7.75388 7.29755C7.79013 7.27592 7.8262 7.2568 7.86232 7.23833C7.62879 7.14245 7.41798 7.10673 7.27288 7.0957C7.25107 7.11339 7.22845 7.13002 7.20801 7.1492Z" fill="#F8CB32"/>
<path d="M7.90845 7.79955C7.88051 7.77317 7.85223 7.7482 7.8237 7.72461C7.56148 7.97417 7.33208 8.33814 7.22852 8.86623C7.26617 8.89992 7.30355 8.93398 7.34533 8.96264C7.42142 8.42554 7.64445 8.05483 7.90845 7.79955Z" fill="#F8CB32"/>
<path d="M7.80683 7.56687C7.83655 7.54297 7.86623 7.51897 7.89636 7.49759C7.85967 7.47419 7.82311 7.45363 7.78667 7.43359C7.75545 7.45497 7.7242 7.47566 7.69336 7.49969C7.73111 7.52047 7.76886 7.54259 7.80683 7.56687Z" fill="#F8CB32"/>
<path d="M8.53125 7.49919C8.75606 7.69666 8.96156 7.97472 9.10778 8.36022C9.14531 8.24575 9.17069 8.12575 9.17069 7.99875C9.17069 7.75762 9.09741 7.53366 8.97212 7.34766C8.85619 7.37072 8.70053 7.41578 8.53125 7.49919Z" fill="#F8CB32"/>
<path d="M7.91699 7.64145C7.94627 7.6632 7.97496 7.68776 8.00377 7.71192C8.03255 7.68773 8.06124 7.6632 8.09055 7.64145C8.06174 7.61745 8.03299 7.59383 8.00377 7.57227C7.97455 7.59386 7.94584 7.61745 7.91699 7.64145Z" fill="#F8CB32"/>
<path d="M8.00377 7.30469C7.96712 7.32328 7.93043 7.34425 7.89355 7.36606C7.93024 7.38534 7.96687 7.40603 8.00377 7.42869C8.04068 7.40606 8.07734 7.38537 8.11399 7.36606C8.07712 7.34422 8.04043 7.32328 8.00377 7.30469Z" fill="#F8CB32"/>
<path d="M7.10178 8.73067C7.22525 8.22645 7.458 7.88102 7.71847 7.64339C7.68206 7.61767 7.64578 7.59408 7.6094 7.57227C7.35875 7.79267 7.13194 8.11117 6.99219 8.57005C7.02441 8.62698 7.06081 8.68026 7.10178 8.73067Z" fill="#F8CB32"/>
<path d="M7.47638 7.49922C7.3071 7.41578 7.15144 7.37078 7.03548 7.34766C6.9102 7.53366 6.83691 7.75762 6.83691 7.99875C6.83691 8.12575 6.86229 8.24575 6.89982 8.36022C7.04607 7.97472 7.25154 7.69669 7.47638 7.49922Z" fill="#F8CB32"/>
<path d="M8.00356 7.17334C8.25187 7.07075 8.48094 7.03431 8.64384 7.02469C8.45987 6.90356 8.24028 6.83203 8.00356 6.83203C7.76684 6.83203 7.54725 6.90359 7.36328 7.02469C7.52619 7.03431 7.75525 7.07072 8.00356 7.17334Z" fill="#F8CB32"/>
<path d="M8.00385 7.89844C7.77107 8.15641 7.57895 8.52678 7.5166 9.05722C7.66529 9.1259 7.82932 9.16684 8.00385 9.16684C8.17841 9.16684 8.34241 9.1259 8.4911 9.05722C8.42876 8.52681 8.23663 8.15641 8.00385 7.89844Z" fill="#F8CB32"/>
<path d="M8.3991 7.57227C8.36276 7.59414 8.32648 7.61767 8.29004 7.64339C8.55048 7.88098 8.78326 8.22645 8.90673 8.73067C8.94769 8.68023 8.9841 8.62698 9.01632 8.57005C8.8766 8.1112 8.64976 7.79267 8.3991 7.57227Z" fill="#F8CB32"/>
<path d="M8.77857 8.86623C8.67501 8.33814 8.4456 7.9742 8.18338 7.72461C8.15482 7.7482 8.12657 7.77317 8.09863 7.79955C8.36263 8.05483 8.58566 8.42555 8.66173 8.96261C8.70354 8.93398 8.74091 8.89992 8.77857 8.86623Z" fill="#F8CB32"/>
<path d="M8.14648 7.23836C8.18261 7.25683 8.2187 7.27598 8.25492 7.29758C8.4712 7.20455 8.66614 7.16445 8.80079 7.14923C8.78036 7.13005 8.75773 7.11342 8.73592 7.0957C8.59083 7.1068 8.38001 7.14252 8.14648 7.23836Z" fill="#F8CB32"/>
<path d="M8.20086 7.56687C8.23883 7.54259 8.27658 7.5205 8.31433 7.49969C8.28351 7.47566 8.25223 7.45497 8.22101 7.43359C8.18458 7.45366 8.14805 7.47419 8.11133 7.49759C8.14142 7.51897 8.17114 7.543 8.20086 7.56687Z" fill="#F8CB32"/>
<path d="M8.44824 7.43339C8.62865 7.35048 8.79399 7.30486 8.91699 7.28098C8.89871 7.25786 8.88074 7.23455 8.86077 7.21289C8.73546 7.2323 8.55684 7.27561 8.3584 7.36589C8.38865 7.38664 8.4184 7.41008 8.44824 7.43339Z" fill="#F8CB32"/>
</svg>
