<svg width="16" height="16" viewBox="0 0 16 16" fill="none" xmlns="http://www.w3.org/2000/svg">
<g clip-path="url(#clip0_5367_190570)">
<rect x="1" y="15.1191" width="14" height="14" rx="2" transform="rotate(-90 1 15.1191)" fill="#73AF00"/>
<path d="M15 1.11914H1V4.55039H15V1.11914Z" fill="#FF334B"/>
<path d="M15 4.55078H1V11.6883H15V4.55078Z" fill="#464655"/>
<path d="M9.47388 6.73704L10.0607 7.50463L10.9769 7.19793C11.0282 7.1808 11.0717 7.23874 11.0411 7.28318L10.4923 8.07846L11.0671 8.85506C11.0992 8.89847 11.0576 8.95784 11.0059 8.94238L10.08 8.66629L9.51902 9.45295C9.48761 9.49695 9.41831 9.47566 9.41699 9.42168L9.39345 8.45578L8.47193 8.16538C8.42043 8.14917 8.4192 8.07669 8.47017 8.05871L9.38152 7.73788L9.373 6.77171C9.37251 6.71765 9.44106 6.69411 9.47388 6.73704Z" fill="white"/>
<path d="M7.88054 9.89441C6.835 9.89441 5.98681 9.04626 5.98681 7.99971C5.98681 6.95514 6.83496 6.10505 7.88054 6.10505C8.26957 6.10505 8.6283 6.2247 8.92727 6.4272C8.97303 6.45821 9.02532 6.39805 8.98698 6.35822C8.54018 5.8937 7.90779 5.61028 7.20663 5.63422C6.002 5.67529 5.00478 6.64111 4.92784 7.84397C4.83969 9.22174 5.93058 10.3667 7.28883 10.3667C7.95788 10.3667 8.55918 10.087 8.98862 9.63978C9.02651 9.60025 8.97418 9.54102 8.92882 9.57176C8.62954 9.77458 8.27023 9.89441 7.88054 9.89441Z" fill="white"/>
</g>
<defs>
<clipPath id="clip0_5367_190570">
<rect x="1" y="15.1191" width="14" height="14" rx="2" transform="rotate(-90 1 15.1191)" fill="white"/>
</clipPath>
</defs>
</svg>
