<svg width="16" height="16" viewBox="0 0 16 16" fill="none" xmlns="http://www.w3.org/2000/svg">
<g clip-path="url(#clip0_5367_189913)">
<rect x="1" y="1" width="14" height="14" rx="2" fill="white"/>
<path d="M15 5.66602L1 5.66601L1 1.36779C1 1.16433 1.10809 0.999348 1.24139 0.999348L14.7586 0.999349C14.8919 0.999349 15 1.16433 15 1.36779L15 5.66602Z" fill="#464655"/>
<path d="M1 10.334L15 10.334V14.6322C15 14.8357 14.8919 15.0007 14.7586 15.0007L1.24139 15.0007C1.10809 15.0007 1 14.8357 1 14.6322L1 10.334Z" fill="#73AF00"/>
<path d="M1.10175 16.016L7.44052 8.30712C7.53258 8.19518 7.53258 7.98098 7.44052 7.869L1.10175 0.160156C1.04097 0.237669 1 0.349988 1 0.480596V15.6955C1 15.8262 1.04097 15.9385 1.10175 16.016Z" fill="#FF334B"/>
</g>
<defs>
<clipPath id="clip0_5367_189913">
<rect x="1" y="1" width="14" height="14" rx="2" fill="white"/>
</clipPath>
</defs>
</svg>
