<svg width="16" height="16" viewBox="0 0 16 16" fill="none" xmlns="http://www.w3.org/2000/svg">
<g clip-path="url(#clip0_5367_189881)">
<rect x="1" y="1" width="14" height="14" rx="2" fill="#464655"/>
<path d="M1.24139 1H14.7586C14.8919 1 15 1.16498 15 1.36844V5.66667H1V1.36844C1 1.16498 1.10809 1 1.24139 1Z" fill="#FF334B"/>
<path d="M15 5.66602H1V10.3327H15V5.66602Z" fill="white"/>
<path d="M7.99992 6.62109C7.23817 6.62109 6.62061 7.23862 6.62061 8.0004C6.62061 8.76218 7.23817 9.37971 7.99992 9.37971C8.76166 9.37971 9.37923 8.76218 9.37923 8.0004C9.37923 7.23862 8.76166 6.62109 7.99992 6.62109ZM7.99992 9.04065C7.42545 9.04065 6.95967 8.57493 6.95967 8.0004C6.95967 7.42587 7.42542 6.96016 7.99992 6.96016C8.57441 6.96016 9.04016 7.4259 9.04016 8.0004C9.04016 8.5749 8.57438 9.04065 7.99992 9.04065Z" fill="#FF334B"/>
<path d="M7.99992 8.47836C8.26416 8.47836 8.47836 8.26415 8.47836 7.99992C8.47836 7.73569 8.26416 7.52148 7.99992 7.52148C7.73569 7.52148 7.52148 7.73569 7.52148 7.99992C7.52148 8.26415 7.73569 8.47836 7.99992 8.47836Z" fill="#41479B"/>
<path d="M8.03106 7.63769L8.10816 7.86894L8.35188 7.87084C8.38344 7.87109 8.39653 7.91137 8.37113 7.93012L8.17506 8.0749L8.24859 8.30728C8.25813 8.33737 8.22388 8.36225 8.19819 8.3439L7.99988 8.20219L7.80156 8.3439C7.77588 8.36225 7.74163 8.33734 7.75116 8.30728L7.82469 8.0749L7.62863 7.93012C7.60325 7.91137 7.61631 7.87109 7.64788 7.87084L7.8916 7.86894L7.96869 7.63769C7.97869 7.60775 8.02106 7.60775 8.03106 7.63769Z" fill="#F8CB32"/>
<path d="M8.90493 8.01096C8.90493 8.01096 8.93227 7.88452 8.79774 8.03624C8.79774 8.03624 8.79971 7.99305 8.7959 7.95746C8.82549 7.92543 8.86218 7.85536 8.85355 7.70583C8.85355 7.70583 8.83246 7.57821 8.76321 7.76874C8.76321 7.76874 8.7443 7.71252 8.72421 7.6814C8.7409 7.64677 8.7538 7.58374 8.71377 7.4643C8.71377 7.4643 8.66699 7.36211 8.65243 7.53768C8.65243 7.53768 8.61402 7.48024 8.58905 7.46611C8.59387 7.4378 8.59009 7.38918 8.53359 7.31046C8.53359 7.31046 8.47721 7.24733 8.50568 7.3769C8.50568 7.3769 8.45409 7.33511 8.43759 7.34002C8.42902 7.31527 8.40424 7.27343 8.32102 7.21836C8.32102 7.21836 8.24893 7.1789 8.33165 7.28193C8.33165 7.28193 8.25852 7.25293 8.2594 7.26955C8.26027 7.28618 8.29562 7.31683 8.32465 7.33052C8.32465 7.33052 8.2174 7.34165 8.26143 7.36555C8.26143 7.36555 8.37021 7.40308 8.43556 7.36696C8.44081 7.38599 8.45146 7.40733 8.46727 7.42268C8.46727 7.42268 8.33965 7.3979 8.37421 7.43621C8.37421 7.43621 8.46993 7.50655 8.56452 7.49577C8.56409 7.52183 8.57196 7.55549 8.5858 7.58071C8.5858 7.58071 8.43362 7.49936 8.46246 7.56146C8.46246 7.56146 8.55346 7.68318 8.67452 7.70958C8.66956 7.73664 8.66965 7.76936 8.67621 7.79646C8.67621 7.79646 8.53177 7.66005 8.54499 7.73777C8.54499 7.73777 8.60537 7.89783 8.72774 7.96583C8.71777 7.98614 8.70962 8.00886 8.70662 8.03008C8.70662 8.03008 8.62249 7.85005 8.60621 7.92721C8.60621 7.92721 8.60343 8.10702 8.69943 8.21455C8.67899 8.23155 8.65896 8.25533 8.64668 8.27868C8.64668 8.27868 8.62827 8.08089 8.5869 8.14799C8.5869 8.14799 8.52971 8.29786 8.56843 8.42702C8.54284 8.43458 8.51496 8.44855 8.49434 8.46527C8.49434 8.46527 8.55537 8.27617 8.4909 8.32155C8.4909 8.32155 8.37609 8.44577 8.36731 8.58552C8.33687 8.58489 8.29565 8.59586 8.26577 8.61371C8.26577 8.61371 8.35312 8.4353 8.28281 8.47099C8.28281 8.47099 8.15756 8.5733 8.12521 8.70608C8.09559 8.72299 8.04527 8.7517 7.99499 8.7802C7.96574 8.76324 7.93734 8.74674 7.91306 8.73255L7.91387 8.73124L7.62915 8.49255L7.63481 8.57061L7.49184 8.31493L7.47418 8.40192L7.42737 8.11927L7.38584 8.16099L7.4019 7.8973L7.34778 7.92649L7.44609 7.73036L7.3999 7.74339L7.52137 7.62696L7.45715 7.63243L7.61071 7.56271L7.55459 7.55408L7.70449 7.47818L7.6399 7.47505L7.83424 7.4078L7.79865 7.37668L7.96687 7.32705L7.76531 7.31168L7.82271 7.24102L7.66893 7.31971L7.69099 7.21333L7.55646 7.35186L7.57984 7.25486L7.45393 7.38015L7.46206 7.28558L7.33759 7.4964L7.32153 7.40205L7.21809 7.63874L7.18962 7.53561L7.14343 7.82914L7.1049 7.78546L7.15556 8.06858L7.09131 8.02039L7.20909 8.27471C7.20909 8.27471 7.12343 8.23724 7.11271 8.23724C7.102 8.23724 7.3175 8.45611 7.3175 8.45611L7.20506 8.44408L7.42231 8.59683L7.34159 8.61677L7.52231 8.68702L7.47812 8.7212L7.85224 8.74796C7.85224 8.74796 7.88831 8.77799 7.93737 8.81277C7.91146 8.82739 7.88868 8.84011 7.87459 8.84783C7.86037 8.85558 7.84368 8.85636 7.82871 8.85011C7.79318 8.8352 7.74181 8.8142 7.71703 8.8043C7.71703 8.8043 7.71943 8.91064 7.83015 8.9133C7.87562 8.91433 7.93762 8.88539 7.99528 8.85117C8.05431 8.88799 8.11946 8.92045 8.16652 8.91933C8.27484 8.91667 8.27721 8.81033 8.27721 8.81033C8.25296 8.82027 8.20265 8.84127 8.16793 8.85614C8.15328 8.86239 8.13696 8.86161 8.12306 8.85386C8.10771 8.84527 8.08246 8.83086 8.05353 8.81414C8.08309 8.79411 8.10787 8.77592 8.12527 8.76252C8.15252 8.78392 8.23052 8.82155 8.40484 8.75611C8.40484 8.75611 8.52046 8.69805 8.31793 8.68852C8.31793 8.68852 8.35552 8.66092 8.3809 8.63474C8.41412 8.65183 8.49621 8.67208 8.65227 8.58639C8.65227 8.58639 8.75846 8.51242 8.55665 8.53186C8.55665 8.53186 8.58359 8.50561 8.60477 8.47892C8.63959 8.48283 8.72556 8.47352 8.83955 8.32771C8.83955 8.32771 8.90799 8.21793 8.73018 8.3153C8.73018 8.3153 8.75318 8.26049 8.75859 8.22383C8.79802 8.20483 8.85793 8.15321 8.90493 8.01096Z" fill="#64C86E"/>
<path d="M1 10.334H15V14.6322C15 14.8357 14.8919 15.0007 14.7586 15.0007H1.24139C1.10809 15.0007 1 14.8357 1 14.6322V10.334Z" fill="#41479B"/>
</g>
<defs>
<clipPath id="clip0_5367_189881">
<rect x="1" y="1" width="14" height="14" rx="2" fill="white"/>
</clipPath>
</defs>
</svg>
