<svg width="16" height="16" viewBox="0 0 16 16" fill="none" xmlns="http://www.w3.org/2000/svg">
<g clip-path="url(#clip0_5367_189352)">
<rect x="15" y="1" width="14" height="14" rx="2" transform="rotate(90 15 1)" fill="#FF334B"/>
<path d="M1.1476 15L13.1359 8.23156C13.3162 8.12978 13.3162 7.87022 13.1359 7.76848L1.1476 1C1.05997 1.0682 1 1.16986 1 1.28946V14.7105C1 14.8301 1.06001 14.9318 1.1476 15Z" fill="#F8CB32"/>
<path d="M1.11576 14.9787L9.26367 8.25655C9.42486 8.12356 9.42486 7.87663 9.26367 7.7436L1.11576 1.02148C1.04498 1.08939 1 1.18374 1 1.28953V14.7106C1 14.8164 1.04498 14.9108 1.11576 14.9787Z" fill="#464655"/>
<path d="M3.32836 6.24916L3.36387 7.59096L2.10582 8.05893C1.98517 8.10382 1.99108 8.27642 2.11452 8.31295L3.40163 8.6938L3.45797 10.0349C3.46337 10.1635 3.62934 10.2112 3.70224 10.1051L4.4622 8.99867L5.75505 9.35951C5.879 9.39414 5.97571 9.25097 5.89733 9.14889L5.07985 8.08423L5.82254 6.96617C5.89374 6.85895 5.78753 6.72279 5.66619 6.76578L4.40109 7.2142L3.56726 6.16237C3.48723 6.06148 3.32494 6.12048 3.32836 6.24916Z" fill="white"/>
</g>
<defs>
<clipPath id="clip0_5367_189352">
<rect x="15" y="1" width="14" height="14" rx="2" transform="rotate(90 15 1)" fill="white"/>
</clipPath>
</defs>
</svg>
