<svg width="16" height="16" viewBox="0 0 16 16" fill="none" xmlns="http://www.w3.org/2000/svg">
<rect x="15" y="0.865234" width="14" height="14" rx="2" transform="rotate(90 15 0.865234)" fill="#FF334B"/>
<path d="M4.35155 7.86479C4.35155 9.53127 5.70215 10.8819 7.36714 10.8819C7.98766 10.8819 8.55985 10.6912 9.03644 10.3681C9.10864 10.3191 9.19203 10.4135 9.13161 10.4764C8.44785 11.1886 7.49032 11.634 6.42489 11.634C4.26201 11.634 2.52483 9.81069 2.66517 7.61677C2.78776 5.70136 4.37576 4.1634 6.29398 4.09794C7.41052 4.05981 8.4175 4.51108 9.12901 5.25082C9.19002 5.31426 9.1068 5.41003 9.03392 5.36068C8.55784 5.03823 7.98659 4.84771 7.36714 4.84771C5.7022 4.84771 4.35155 6.20139 4.35155 7.86479Z" fill="white"/>
<path d="M11.225 7.34625L10.6342 6.57338C10.6012 6.53017 10.5321 6.55387 10.5327 6.60826L10.5413 7.58104L9.62367 7.90409C9.57235 7.92215 9.57358 7.99512 9.62546 8.01147L10.5533 8.30391L10.577 9.27642C10.5783 9.33078 10.6482 9.35217 10.6797 9.30789L11.2445 8.51586L12.1768 8.79386C12.2289 8.8094 12.2708 8.74967 12.2384 8.70594L11.6597 7.92398L12.2121 7.12328C12.243 7.07853 12.1991 7.02021 12.1476 7.03746L11.225 7.34625Z" fill="white"/>
</svg>
