<svg width="16" height="16" viewBox="0 0 16 16" fill="none" xmlns="http://www.w3.org/2000/svg">
<rect x="1" y="0.839844" width="14" height="14" rx="2" fill="#41479B"/>
<path d="M10.562 7.94531H8.75586C8.75586 7.94531 8.75586 10.2827 8.75586 11.2388C8.75586 11.9825 10.562 12.7262 10.562 12.7262C10.562 12.7262 12.3681 11.9826 12.3681 11.2388C12.3681 10.2826 12.3681 7.94531 12.3681 7.94531H10.562Z" fill="#73AF00"/>
<path d="M9.50457 10.4592C9.50457 10.4592 9.49448 10.4242 9.50345 10.3926C9.51246 10.361 9.4893 10.3321 9.48431 10.3047C9.47082 10.2302 9.53381 10.211 9.53718 10.1445C9.53718 10.1445 9.58216 10.1908 9.56532 10.2348C9.54843 10.2788 9.59007 10.2855 9.58446 10.3272C9.57885 10.369 9.53269 10.413 9.53721 10.4502L9.50457 10.4592Z" fill="#FF334B"/>
<path d="M10.2153 10.3883C10.1783 10.3422 10.1136 10.3919 10.0663 10.428C10.0597 10.4331 10.0541 10.437 10.0482 10.4412L9.87347 10.1831C9.87838 10.1757 9.88191 10.1674 9.88191 10.1579C9.88191 10.1322 9.8611 10.1113 9.83535 10.1113C9.8096 10.1113 9.78878 10.1321 9.78878 10.1579C9.78878 10.1674 9.79235 10.1758 9.79722 10.1831L9.61694 10.4493H9.48928C9.48928 10.4493 9.484 10.5287 9.62338 10.5383C9.64135 10.5655 9.66697 10.5872 9.69766 10.5994C9.68325 10.6018 9.67163 10.6129 9.67163 10.628V10.6466C9.67163 10.6478 9.67275 10.6485 9.67288 10.6497H9.99759C9.99772 10.6485 9.99885 10.6479 9.99885 10.6466V10.628C9.99885 10.6127 9.98703 10.6014 9.97238 10.5993C10.0267 10.5774 10.0649 10.5265 10.0713 10.4661C10.0764 10.4624 10.0811 10.459 10.0866 10.4548C10.1209 10.4285 10.1725 10.3884 10.189 10.4094C10.1931 10.4145 10.1927 10.4174 10.1925 10.4184C10.1907 10.4306 10.1646 10.4481 10.1437 10.4621C10.1108 10.4842 10.0768 10.5071 10.0741 10.5396C10.0733 10.5489 10.0802 10.557 10.0894 10.5578C10.0899 10.5578 10.0904 10.5578 10.0908 10.5578C10.0995 10.5578 10.1068 10.5512 10.1075 10.5425C10.1089 10.526 10.1386 10.5061 10.1624 10.4901C10.1928 10.4695 10.2216 10.4503 10.2257 10.4236C10.2276 10.4113 10.2241 10.3995 10.2153 10.3883ZM9.91653 10.4493C9.90691 10.4126 9.88422 10.3774 9.85588 10.3646C9.87088 10.3569 9.88147 10.3417 9.88147 10.3237C9.88147 10.298 9.86066 10.2771 9.83491 10.2771C9.80922 10.2771 9.78835 10.2979 9.78835 10.3237C9.78835 10.3417 9.79891 10.3569 9.81394 10.3646C9.7856 10.3774 9.76288 10.4126 9.75328 10.4493H9.6575L9.82478 10.2023C9.82825 10.2031 9.83163 10.2044 9.83538 10.2044C9.83913 10.2044 9.84247 10.2031 9.84597 10.2023L10.0133 10.4493H9.91653Z" fill="#F8CB32"/>
<path d="M10.447 8.88385C10.447 8.88385 10.2787 8.83407 10.2035 9.42282C10.2035 9.42282 9.7918 9.94629 9.77852 9.97726C9.76524 10.0083 9.77743 10.2307 9.82171 10.213C9.86599 10.1953 9.94568 10.0924 9.94124 10.0171C9.9368 9.94179 9.97077 9.89982 10.0043 9.86213C10.0674 9.79132 10.4226 9.47038 10.4359 9.39954C10.4492 9.32876 10.447 8.88385 10.447 8.88385Z" fill="#FFC8B9"/>
<path d="M10.7076 8.77365C10.7076 8.77365 10.9676 8.73934 11.044 9.00497C11.044 9.00497 10.8304 9.12228 10.857 9.275C10.8836 9.42772 10.8537 10.125 10.8537 10.125C10.4453 10.2577 10.2295 10.0917 10.2295 10.0917C10.2295 10.0917 10.3357 9.69665 10.3191 9.37462C10.3191 9.37462 10.2229 9.30159 10.2461 9.21859C10.2694 9.13559 10.3291 9.04262 10.3491 8.9729C10.369 8.90319 10.4221 8.78697 10.5516 8.777C10.681 8.767 10.7076 8.77365 10.7076 8.77365Z" fill="white"/>
<path d="M10.305 10.0137C10.305 10.0137 10.1014 10.784 10.1722 11.8331C10.1722 11.8331 10.8074 11.9172 11.1528 11.791C11.1528 11.791 10.9735 10.536 10.8008 10.0446L10.305 10.0137Z" fill="white"/>
<path d="M10.4248 8.31836V8.63745C10.4248 8.67248 10.4532 8.70089 10.4882 8.70089H10.4939C10.5187 8.70089 10.5388 8.72098 10.5388 8.7458V8.82208C10.5388 8.82208 10.5816 8.93377 10.7479 8.80308V8.32073L10.4248 8.31836Z" fill="#FFC8B9"/>
<path d="M10.3872 8.25425C10.3769 8.28003 10.3878 8.34997 10.4513 8.345C10.5308 8.33878 10.6268 8.33834 10.6483 8.42634C10.6684 8.50812 10.655 8.7124 10.7435 8.72571C10.8321 8.739 10.9325 8.68015 10.9306 8.50437C10.9289 8.34943 10.8276 8.16406 10.686 8.19228C10.686 8.19228 10.5603 8.10428 10.4868 8.20334C10.4868 8.20334 10.4093 8.19893 10.3872 8.25425Z" fill="#8C5A28"/>
<path d="M11.0454 9.00391C11.0454 9.00391 11.136 9.60091 11.1317 9.65022C11.1273 9.70112 10.8108 10.1903 10.8284 10.2434C10.8462 10.2966 10.8638 10.3674 10.7665 10.394C10.6691 10.4205 10.6791 10.265 10.7056 10.1853C10.7322 10.1057 10.9546 9.68125 10.9546 9.63256C10.9546 9.58387 10.8284 9.26956 10.8594 9.14559C10.8904 9.02159 11.0454 9.00391 11.0454 9.00391Z" fill="#FFC8B9"/>
<path d="M9.10611 8.57637C9.10611 8.57637 9.09601 8.54141 9.10498 8.50981C9.11399 8.47822 9.09083 8.44925 9.08588 8.42184C9.07238 8.34741 9.13537 8.32822 9.13874 8.26172C9.13874 8.26172 9.18372 8.30797 9.16689 8.35197C9.15002 8.39597 9.19163 8.40272 9.18602 8.44444C9.18041 8.48616 9.13425 8.53016 9.13877 8.56737L9.10611 8.57637Z" fill="#FF334B"/>
<path d="M9.81681 8.50552C9.77991 8.45939 9.71519 8.50908 9.66781 8.5452C9.66122 8.55027 9.65562 8.55414 9.64978 8.55839L9.47503 8.3003C9.47994 8.29292 9.48347 8.28458 9.48347 8.27508C9.48347 8.24936 9.46266 8.22852 9.43691 8.22852C9.41116 8.22852 9.39034 8.24933 9.39034 8.27508C9.39034 8.28461 9.39391 8.29295 9.39878 8.3003L9.2185 8.56651H9.09085C9.09085 8.56651 9.08556 8.64586 9.22494 8.65548C9.24291 8.6827 9.26853 8.70436 9.29922 8.71661C9.28481 8.71895 9.27319 8.73008 9.27319 8.74517V8.76383C9.27319 8.76501 9.27431 8.7657 9.27444 8.76686H9.59916C9.59928 8.76573 9.60041 8.76505 9.60041 8.76383V8.74517C9.60041 8.72992 9.58859 8.71855 9.57394 8.71645C9.62828 8.69458 9.66647 8.64373 9.67291 8.58333C9.67797 8.57958 9.68269 8.57614 9.68819 8.57198C9.72247 8.54567 9.77409 8.50561 9.79056 8.52658C9.79466 8.5317 9.79425 8.53455 9.79409 8.53558C9.79222 8.54777 9.76619 8.56526 9.74528 8.5793C9.71237 8.60139 9.67834 8.62433 9.67566 8.65683C9.67487 8.66611 9.68172 8.67414 9.69097 8.67498C9.69144 8.67498 9.69197 8.67498 9.69237 8.67498C9.70103 8.67498 9.70837 8.66833 9.70909 8.65964C9.71044 8.64317 9.74012 8.62323 9.764 8.60723C9.79441 8.5867 9.82312 8.56745 9.82725 8.54077C9.82915 8.52848 9.82562 8.51667 9.81681 8.50552ZM9.51809 8.56651C9.50847 8.52983 9.48578 8.49458 9.45744 8.48183C9.47244 8.47411 9.48303 8.45889 9.48303 8.44086C9.48303 8.41517 9.46222 8.3943 9.43647 8.3943C9.41078 8.3943 9.38991 8.41511 9.38991 8.44086C9.38991 8.45889 9.40047 8.47411 9.4155 8.48183C9.38716 8.49455 9.36444 8.5298 9.35485 8.56651H9.25906L9.42634 8.31948C9.42981 8.3203 9.43316 8.32161 9.43694 8.32161C9.44069 8.32161 9.44403 8.3203 9.44753 8.31948L9.61481 8.56651H9.51809Z" fill="#F8CB32"/>
<path d="M9.10611 9.20333C9.10611 9.20333 9.09601 9.16836 9.10498 9.13677C9.11399 9.10517 9.09083 9.0762 9.08588 9.0488C9.07238 8.97436 9.13537 8.95517 9.13874 8.88867C9.13874 8.88867 9.18372 8.93492 9.16689 8.97892C9.14999 9.02292 9.19164 9.02967 9.18603 9.07139C9.18042 9.11311 9.13425 9.15711 9.13877 9.19433L9.10611 9.20333Z" fill="#FF334B"/>
<path d="M9.81681 9.13247C9.77991 9.08634 9.71519 9.13603 9.66781 9.17216C9.66122 9.17722 9.65562 9.18109 9.64978 9.18534L9.47503 8.92725C9.47994 8.91987 9.48347 8.91153 9.48347 8.90203C9.48347 8.87631 9.46266 8.85547 9.43691 8.85547C9.41116 8.85547 9.39034 8.87628 9.39034 8.90203C9.39034 8.91156 9.39391 8.91991 9.39878 8.92725L9.2185 9.19347H9.09085C9.09085 9.19347 9.08556 9.27281 9.22494 9.28244C9.24291 9.30966 9.26853 9.33131 9.29922 9.34356C9.28481 9.3459 9.27319 9.35703 9.27319 9.37212V9.39078C9.27319 9.39197 9.27431 9.39265 9.27444 9.39381H9.59916C9.59928 9.39269 9.60041 9.392 9.60041 9.39078V9.37212C9.60041 9.35687 9.58859 9.3455 9.57394 9.3434C9.62828 9.32153 9.66647 9.27069 9.67291 9.21028C9.67797 9.20653 9.68269 9.20309 9.68819 9.19894C9.72247 9.17262 9.77409 9.13256 9.79056 9.15353C9.79466 9.15866 9.79425 9.1615 9.79409 9.16253C9.79222 9.17472 9.76619 9.19222 9.74528 9.20625C9.71237 9.22834 9.67834 9.25128 9.67566 9.28378C9.67487 9.29306 9.68172 9.30109 9.69097 9.30197C9.69144 9.30197 9.69197 9.30197 9.69237 9.30197C9.70103 9.30197 9.70837 9.29531 9.70909 9.28662C9.71044 9.27015 9.74012 9.25022 9.764 9.23422C9.79441 9.21369 9.82312 9.19444 9.82725 9.16775C9.82915 9.15537 9.82562 9.14359 9.81681 9.13247ZM9.51809 9.19344C9.50847 9.15675 9.48578 9.1215 9.45744 9.10875C9.47244 9.10103 9.48303 9.08581 9.48303 9.06778C9.48303 9.04209 9.46222 9.02122 9.43647 9.02122C9.41078 9.02122 9.38991 9.04203 9.38991 9.06778C9.38991 9.08581 9.40047 9.10103 9.4155 9.10875C9.38716 9.12147 9.36444 9.15672 9.35485 9.19344H9.25906L9.42634 8.94641C9.42981 8.94722 9.43316 8.94853 9.43694 8.94853C9.44069 8.94853 9.44403 8.94722 9.44753 8.94641L9.61481 9.19344H9.51809Z" fill="#F8CB32"/>
<path d="M9.10611 9.83028C9.10611 9.83028 9.09601 9.79531 9.10498 9.76372C9.11399 9.73212 9.09083 9.70316 9.08588 9.67575C9.07238 9.60131 9.13537 9.58212 9.13874 9.51562C9.13874 9.51562 9.18372 9.56187 9.16689 9.60587C9.15002 9.64987 9.19163 9.65662 9.18602 9.69834C9.18041 9.74006 9.13425 9.78406 9.13877 9.82128L9.10611 9.83028Z" fill="#FF334B"/>
<path d="M9.81681 9.76137C9.77991 9.71525 9.71519 9.76494 9.66781 9.80106C9.66122 9.80612 9.65562 9.81 9.64978 9.81425L9.47503 9.55616C9.47994 9.54878 9.48347 9.54044 9.48347 9.53094C9.48347 9.50522 9.46266 9.48438 9.43691 9.48438C9.41116 9.48438 9.39034 9.50519 9.39034 9.53094C9.39034 9.54047 9.39391 9.54881 9.39878 9.55616L9.2185 9.82237H9.09085C9.09085 9.82237 9.08556 9.90172 9.22494 9.91134C9.24291 9.93856 9.26853 9.96022 9.29922 9.97247C9.28481 9.97481 9.27319 9.98594 9.27319 10.001V10.0197C9.27319 10.0209 9.27431 10.0216 9.27444 10.0227H9.59916C9.59928 10.0216 9.60041 10.0209 9.60041 10.0197V10.001C9.60041 9.98578 9.58859 9.97441 9.57394 9.97231C9.62828 9.95044 9.66647 9.89959 9.67291 9.83919C9.67797 9.83544 9.68269 9.832 9.68819 9.82784C9.72247 9.80153 9.77409 9.76147 9.79056 9.78244C9.79466 9.78756 9.79425 9.79041 9.79409 9.79144C9.79222 9.80362 9.76619 9.82112 9.74528 9.83516C9.71237 9.85725 9.67834 9.88019 9.67566 9.91269C9.67487 9.92197 9.68172 9.93 9.69097 9.93084C9.69144 9.93084 9.69197 9.93084 9.69237 9.93084C9.70103 9.93084 9.70837 9.92419 9.70909 9.9155C9.71044 9.89903 9.74012 9.87909 9.764 9.86309C9.79441 9.84256 9.82312 9.82331 9.82725 9.79662C9.82915 9.78431 9.82562 9.77253 9.81681 9.76137ZM9.51809 9.82234C9.50847 9.78566 9.48578 9.75041 9.45744 9.73766C9.47244 9.72994 9.48303 9.71472 9.48303 9.69669C9.48303 9.671 9.46222 9.65012 9.43647 9.65012C9.41078 9.65012 9.38991 9.67094 9.38991 9.69669C9.38991 9.71472 9.40047 9.72994 9.4155 9.73766C9.38716 9.75037 9.36444 9.78562 9.35485 9.82234H9.25906L9.42634 9.57531C9.42981 9.57612 9.43316 9.57744 9.43694 9.57744C9.44069 9.57744 9.44403 9.57612 9.44753 9.57531L9.61481 9.82234H9.51809Z" fill="#F8CB32"/>
<path d="M9.10611 11.0861C9.10611 11.0861 9.09601 11.0512 9.10498 11.0196C9.11399 10.988 9.09083 10.959 9.08588 10.9316C9.07238 10.8572 9.13537 10.838 9.13874 10.7715C9.13874 10.7715 9.18372 10.8177 9.16689 10.8617C9.15006 10.9057 9.19164 10.9125 9.18603 10.9542C9.18041 10.9959 9.13425 11.0399 9.13877 11.0771L9.10611 11.0861Z" fill="#FF334B"/>
<path d="M9.81681 11.0172C9.77991 10.9711 9.71519 11.0208 9.66781 11.0569C9.66122 11.062 9.65562 11.0659 9.64978 11.0701L9.47503 10.812C9.47994 10.8046 9.48347 10.7963 9.48347 10.7868C9.48347 10.7611 9.46266 10.7402 9.43691 10.7402C9.41116 10.7402 9.39034 10.7611 9.39034 10.7868C9.39034 10.7963 9.39391 10.8047 9.39878 10.812L9.2185 11.0782H9.09085C9.09085 11.0782 9.08556 11.1576 9.22494 11.1672C9.24291 11.1944 9.26853 11.2161 9.29922 11.2283C9.28481 11.2307 9.27319 11.2418 9.27319 11.2569V11.2755C9.27319 11.2767 9.27431 11.2774 9.27444 11.2786H9.59916C9.59928 11.2775 9.60041 11.2768 9.60041 11.2755V11.2569C9.60041 11.2416 9.58859 11.2303 9.57394 11.2282C9.62828 11.2063 9.66647 11.1555 9.67291 11.095C9.67797 11.0913 9.68269 11.0879 9.68819 11.0837C9.72247 11.0574 9.77409 11.0173 9.79056 11.0383C9.79466 11.0434 9.79425 11.0463 9.79409 11.0473C9.79222 11.0595 9.76619 11.077 9.74528 11.091C9.71237 11.1131 9.67834 11.136 9.67566 11.1685C9.67487 11.1778 9.68172 11.1859 9.69097 11.1867C9.69144 11.1867 9.69197 11.1867 9.69237 11.1867C9.70103 11.1867 9.70837 11.1801 9.70909 11.1714C9.71044 11.1549 9.74012 11.135 9.764 11.119C9.79441 11.0985 9.82312 11.0792 9.82725 11.0525C9.82915 11.0402 9.82562 11.0284 9.81681 11.0172ZM9.51809 11.0782C9.50847 11.0415 9.48578 11.0063 9.45744 10.9935C9.47244 10.9858 9.48303 10.9706 9.48303 10.9526C9.48303 10.9269 9.46222 10.906 9.43647 10.906C9.41078 10.906 9.38991 10.9268 9.38991 10.9526C9.38991 10.9706 9.40047 10.9858 9.4155 10.9935C9.38716 11.0063 9.36444 11.0415 9.35485 11.0782H9.25906L9.42634 10.8312C9.42981 10.832 9.43316 10.8333 9.43694 10.8333C9.44069 10.8333 9.44403 10.832 9.44753 10.8312L9.61481 11.0782H9.51809Z" fill="#F8CB32"/>
<path d="M9.10611 11.715C9.10611 11.715 9.09601 11.6801 9.10498 11.6485C9.11399 11.6169 9.09083 11.5879 9.08588 11.5605C9.07238 11.4861 9.13537 11.4669 9.13874 11.4004C9.13874 11.4004 9.18372 11.4466 9.16689 11.4906C9.14999 11.5346 9.19164 11.5414 9.18603 11.5831C9.18038 11.6248 9.13425 11.6688 9.13877 11.706L9.10611 11.715Z" fill="#FF334B"/>
<path d="M9.81681 11.6442C9.77991 11.5981 9.71519 11.6477 9.66781 11.6839C9.66122 11.6889 9.65562 11.6928 9.64978 11.697L9.47503 11.439C9.47994 11.4316 9.48347 11.4232 9.48347 11.4137C9.48347 11.388 9.46266 11.3672 9.43691 11.3672C9.41116 11.3672 9.39034 11.388 9.39034 11.4137C9.39034 11.4233 9.39391 11.4316 9.39878 11.439L9.2185 11.7052H9.09085C9.09085 11.7052 9.08556 11.7845 9.22494 11.7942C9.24291 11.8214 9.26853 11.843 9.29922 11.8553C9.28481 11.8576 9.27319 11.8687 9.27319 11.8838V11.9025C9.27319 11.9037 9.27431 11.9044 9.27444 11.9055H9.59916C9.59928 11.9044 9.60041 11.9037 9.60041 11.9025V11.8838C9.60041 11.8686 9.58859 11.8572 9.57394 11.8551C9.62828 11.8332 9.66647 11.7824 9.67291 11.722C9.67797 11.7182 9.68269 11.7148 9.68819 11.7107C9.72247 11.6843 9.77409 11.6443 9.79056 11.6652C9.79466 11.6704 9.79425 11.6732 9.79409 11.6742C9.79222 11.6864 9.76619 11.7039 9.74528 11.718C9.71237 11.7401 9.67834 11.763 9.67566 11.7955C9.67487 11.8048 9.68172 11.8128 9.69097 11.8137C9.69144 11.8137 9.69197 11.8137 9.69237 11.8137C9.70103 11.8137 9.70837 11.807 9.70909 11.7983C9.71044 11.7819 9.74012 11.7619 9.764 11.7459C9.79441 11.7254 9.82312 11.7062 9.82725 11.6795C9.82915 11.6671 9.82562 11.6553 9.81681 11.6442ZM9.51809 11.7052C9.50847 11.6685 9.48578 11.6332 9.45744 11.6205C9.47244 11.6127 9.48303 11.5975 9.48303 11.5795C9.48303 11.5538 9.46222 11.5329 9.43647 11.5329C9.41078 11.5329 9.38991 11.5537 9.38991 11.5795C9.38991 11.5975 9.40047 11.6127 9.4155 11.6205C9.38716 11.6332 9.36444 11.6684 9.35485 11.7052H9.25906L9.42634 11.4581C9.42981 11.4589 9.43316 11.4602 9.43694 11.4602C9.44069 11.4602 9.44403 11.4589 9.44753 11.4581L9.61481 11.7052H9.51809Z" fill="#F8CB32"/>
<path d="M11.2917 8.57637C11.2917 8.57637 11.2816 8.54141 11.2905 8.50981C11.2995 8.47822 11.2763 8.44925 11.2714 8.42184C11.2579 8.34741 11.3209 8.32822 11.3243 8.26172C11.3243 8.26172 11.3693 8.30797 11.3524 8.35197C11.3355 8.39597 11.3772 8.40272 11.3716 8.44444C11.366 8.48616 11.3198 8.53016 11.3243 8.56737L11.2917 8.57637Z" fill="#FF334B"/>
<path d="M12.0014 8.50552C11.9645 8.45939 11.8998 8.50908 11.8524 8.5452C11.8458 8.55027 11.8402 8.55414 11.8344 8.55839L11.6596 8.3003C11.6645 8.29292 11.668 8.28458 11.668 8.27508C11.668 8.24936 11.6472 8.22852 11.6215 8.22852C11.5957 8.22852 11.5749 8.24933 11.5749 8.27508C11.5749 8.28461 11.5785 8.29295 11.5834 8.3003L11.4031 8.56651H11.2754C11.2754 8.56651 11.2701 8.64586 11.4095 8.65548C11.4275 8.6827 11.4531 8.70436 11.4838 8.71661C11.4694 8.71895 11.4578 8.73008 11.4578 8.74517V8.76383C11.4578 8.76501 11.4589 8.7657 11.459 8.76686H11.7837C11.7839 8.76573 11.785 8.76505 11.785 8.76383V8.74517C11.785 8.72992 11.7732 8.71855 11.7585 8.71645C11.8129 8.69458 11.851 8.64373 11.8575 8.58333C11.8625 8.57958 11.8673 8.57614 11.8728 8.57198C11.907 8.54567 11.9587 8.50561 11.9751 8.52658C11.9792 8.5317 11.9788 8.53455 11.9787 8.53558C11.9768 8.54777 11.9508 8.56526 11.9299 8.5793C11.8969 8.60139 11.8629 8.62433 11.8602 8.65683C11.8594 8.66611 11.8663 8.67414 11.8755 8.67498C11.876 8.67498 11.8765 8.67498 11.8769 8.67498C11.8856 8.67498 11.8929 8.66833 11.8937 8.65964C11.895 8.64317 11.9247 8.62323 11.9486 8.60723C11.979 8.5867 12.0077 8.56745 12.0118 8.54077C12.0137 8.52848 12.0103 8.51667 12.0014 8.50552ZM11.7027 8.56651C11.6931 8.52983 11.6704 8.49458 11.642 8.48183C11.657 8.47411 11.6676 8.45889 11.6676 8.44086C11.6676 8.41517 11.6468 8.3943 11.6211 8.3943C11.5954 8.3943 11.5745 8.41511 11.5745 8.44086C11.5745 8.45889 11.5851 8.47411 11.6001 8.48183C11.5718 8.49455 11.549 8.5298 11.5394 8.56651H11.4437L11.6109 8.31948C11.6144 8.3203 11.6178 8.32161 11.6215 8.32161C11.6253 8.32161 11.6286 8.3203 11.6321 8.31948L11.7994 8.56651H11.7027Z" fill="#F8CB32"/>
<path d="M11.2917 9.20333C11.2917 9.20333 11.2816 9.16836 11.2905 9.13677C11.2995 9.10517 11.2763 9.0762 11.2714 9.0488C11.2579 8.97436 11.3209 8.95517 11.3243 8.88867C11.3243 8.88867 11.3693 8.93492 11.3524 8.97892C11.3355 9.02292 11.3772 9.02967 11.3716 9.07139C11.366 9.11311 11.3198 9.15711 11.3243 9.19433L11.2917 9.20333Z" fill="#FF334B"/>
<path d="M12.0014 9.13247C11.9645 9.08634 11.8998 9.13603 11.8524 9.17216C11.8458 9.17722 11.8402 9.18109 11.8344 9.18534L11.6596 8.92725C11.6645 8.91987 11.668 8.91153 11.668 8.90203C11.668 8.87631 11.6472 8.85547 11.6215 8.85547C11.5957 8.85547 11.5749 8.87628 11.5749 8.90203C11.5749 8.91156 11.5785 8.91991 11.5834 8.92725L11.4031 9.19347H11.2754C11.2754 9.19347 11.2701 9.27281 11.4095 9.28244C11.4275 9.30966 11.4531 9.33131 11.4838 9.34356C11.4694 9.3459 11.4578 9.35703 11.4578 9.37212V9.39078C11.4578 9.39197 11.4589 9.39265 11.459 9.39381H11.7837C11.7839 9.39269 11.785 9.392 11.785 9.39078V9.37212C11.785 9.35687 11.7732 9.3455 11.7585 9.3434C11.8129 9.32153 11.851 9.27069 11.8575 9.21028C11.8625 9.20653 11.8673 9.20309 11.8728 9.19894C11.907 9.17262 11.9587 9.13256 11.9751 9.15353C11.9792 9.15866 11.9788 9.1615 11.9787 9.16253C11.9768 9.17472 11.9508 9.19222 11.9299 9.20625C11.8969 9.22834 11.8629 9.25128 11.8602 9.28378C11.8594 9.29306 11.8663 9.30109 11.8755 9.30197C11.876 9.30197 11.8765 9.30197 11.8769 9.30197C11.8856 9.30197 11.8929 9.29531 11.8937 9.28662C11.895 9.27015 11.9247 9.25022 11.9486 9.23422C11.979 9.21369 12.0077 9.19444 12.0118 9.16775C12.0137 9.15537 12.0103 9.14359 12.0014 9.13247ZM11.7027 9.19344C11.6931 9.15675 11.6704 9.1215 11.642 9.10875C11.657 9.10103 11.6676 9.08581 11.6676 9.06778C11.6676 9.04209 11.6468 9.02122 11.6211 9.02122C11.5954 9.02122 11.5745 9.04203 11.5745 9.06778C11.5745 9.08581 11.5851 9.10103 11.6001 9.10875C11.5718 9.12147 11.549 9.15672 11.5394 9.19344H11.4437L11.6109 8.94641C11.6144 8.94722 11.6178 8.94853 11.6215 8.94853C11.6253 8.94853 11.6286 8.94722 11.6321 8.94641L11.7994 9.19344H11.7027Z" fill="#F8CB32"/>
<path d="M11.2917 9.83028C11.2917 9.83028 11.2816 9.79531 11.2905 9.76372C11.2995 9.73212 11.2763 9.70316 11.2714 9.67575C11.2579 9.60131 11.3209 9.58212 11.3243 9.51562C11.3243 9.51562 11.3693 9.56187 11.3524 9.60587C11.3355 9.64987 11.3772 9.65662 11.3716 9.69834C11.366 9.74006 11.3198 9.78406 11.3243 9.82128L11.2917 9.83028Z" fill="#FF334B"/>
<path d="M12.0014 9.76137C11.9645 9.71525 11.8998 9.76494 11.8524 9.80106C11.8458 9.80612 11.8402 9.81 11.8344 9.81425L11.6596 9.55616C11.6645 9.54878 11.668 9.54044 11.668 9.53094C11.668 9.50522 11.6472 9.48438 11.6215 9.48438C11.5957 9.48438 11.5749 9.50519 11.5749 9.53094C11.5749 9.54047 11.5785 9.54881 11.5834 9.55616L11.4031 9.82237H11.2754C11.2754 9.82237 11.2701 9.90172 11.4095 9.91134C11.4275 9.93856 11.4531 9.96022 11.4838 9.97247C11.4694 9.97481 11.4578 9.98594 11.4578 10.001V10.0197C11.4578 10.0209 11.4589 10.0216 11.459 10.0227H11.7837C11.7839 10.0216 11.785 10.0209 11.785 10.0197V10.001C11.785 9.98578 11.7732 9.97441 11.7585 9.97231C11.8129 9.95044 11.851 9.89959 11.8575 9.83919C11.8625 9.83544 11.8673 9.832 11.8728 9.82784C11.907 9.80153 11.9587 9.76147 11.9751 9.78244C11.9792 9.78756 11.9788 9.79041 11.9787 9.79144C11.9768 9.80362 11.9508 9.82112 11.9299 9.83516C11.8969 9.85725 11.8629 9.88019 11.8602 9.91269C11.8594 9.92197 11.8663 9.93 11.8755 9.93084C11.876 9.93084 11.8765 9.93084 11.8769 9.93084C11.8856 9.93084 11.8929 9.92419 11.8937 9.9155C11.895 9.89903 11.9247 9.87909 11.9486 9.86309C11.979 9.84256 12.0077 9.82331 12.0118 9.79662C12.0137 9.78431 12.0103 9.77253 12.0014 9.76137ZM11.7027 9.82234C11.6931 9.78566 11.6704 9.75041 11.642 9.73766C11.657 9.72994 11.6676 9.71472 11.6676 9.69669C11.6676 9.671 11.6468 9.65012 11.6211 9.65012C11.5954 9.65012 11.5745 9.67094 11.5745 9.69669C11.5745 9.71472 11.5851 9.72994 11.6001 9.73766C11.5718 9.75037 11.549 9.78562 11.5394 9.82234H11.4437L11.6109 9.57531C11.6144 9.57612 11.6178 9.57744 11.6215 9.57744C11.6253 9.57744 11.6286 9.57612 11.6321 9.57531L11.7994 9.82234H11.7027Z" fill="#F8CB32"/>
<path d="M11.2917 10.4592C11.2917 10.4592 11.2816 10.4242 11.2905 10.3926C11.2995 10.361 11.2763 10.3321 11.2714 10.3047C11.2579 10.2302 11.3209 10.211 11.3243 10.1445C11.3243 10.1445 11.3693 10.1908 11.3524 10.2348C11.3355 10.2788 11.3772 10.2855 11.3716 10.3272C11.366 10.369 11.3198 10.413 11.3243 10.4502L11.2917 10.4592Z" fill="#FF334B"/>
<path d="M12.0014 10.3883C11.9645 10.3422 11.8998 10.3919 11.8524 10.428C11.8458 10.4331 11.8402 10.437 11.8344 10.4412L11.6596 10.1831C11.6645 10.1757 11.668 10.1674 11.668 10.1579C11.668 10.1322 11.6472 10.1113 11.6215 10.1113C11.5957 10.1113 11.5749 10.1321 11.5749 10.1579C11.5749 10.1674 11.5785 10.1758 11.5834 10.1831L11.4031 10.4493H11.2754C11.2754 10.4493 11.2701 10.5287 11.4095 10.5383C11.4275 10.5655 11.4531 10.5872 11.4838 10.5994C11.4694 10.6018 11.4578 10.6129 11.4578 10.628V10.6466C11.4578 10.6478 11.4589 10.6485 11.459 10.6497H11.7837C11.7839 10.6485 11.785 10.6479 11.785 10.6466V10.628C11.785 10.6127 11.7732 10.6014 11.7585 10.5993C11.8129 10.5774 11.851 10.5265 11.8575 10.4661C11.8625 10.4624 11.8673 10.459 11.8728 10.4548C11.907 10.4285 11.9587 10.3884 11.9751 10.4094C11.9792 10.4145 11.9788 10.4174 11.9787 10.4184C11.9768 10.4306 11.9508 10.4481 11.9299 10.4621C11.8969 10.4842 11.8629 10.5071 11.8602 10.5396C11.8594 10.5489 11.8663 10.557 11.8755 10.5578C11.876 10.5578 11.8765 10.5578 11.8769 10.5578C11.8856 10.5578 11.8929 10.5512 11.8937 10.5425C11.895 10.526 11.9247 10.5061 11.9486 10.4901C11.979 10.4695 12.0077 10.4503 12.0118 10.4236C12.0137 10.4113 12.0103 10.3995 12.0014 10.3883ZM11.7027 10.4493C11.6931 10.4126 11.6704 10.3774 11.642 10.3646C11.657 10.3569 11.6676 10.3417 11.6676 10.3237C11.6676 10.298 11.6468 10.2771 11.6211 10.2771C11.5954 10.2771 11.5745 10.2979 11.5745 10.3237C11.5745 10.3417 11.5851 10.3569 11.6001 10.3646C11.5718 10.3774 11.549 10.4126 11.5394 10.4493H11.4437L11.6109 10.2023C11.6144 10.2031 11.6178 10.2044 11.6215 10.2044C11.6253 10.2044 11.6286 10.2031 11.6321 10.2023L11.7994 10.4493H11.7027Z" fill="#F8CB32"/>
<path d="M11.2917 11.0861C11.2917 11.0861 11.2816 11.0512 11.2905 11.0196C11.2995 10.988 11.2763 10.959 11.2714 10.9316C11.2579 10.8572 11.3209 10.838 11.3243 10.7715C11.3243 10.7715 11.3693 10.8177 11.3524 10.8617C11.3355 10.9057 11.3772 10.9125 11.3716 10.9542C11.366 10.9959 11.3198 11.0399 11.3243 11.0771L11.2917 11.0861Z" fill="#FF334B"/>
<path d="M12.0014 11.0172C11.9645 10.9711 11.8998 11.0208 11.8524 11.0569C11.8458 11.062 11.8402 11.0659 11.8344 11.0701L11.6596 10.812C11.6645 10.8046 11.668 10.7963 11.668 10.7868C11.668 10.7611 11.6472 10.7402 11.6215 10.7402C11.5957 10.7402 11.5749 10.7611 11.5749 10.7868C11.5749 10.7963 11.5785 10.8047 11.5834 10.812L11.4031 11.0782H11.2754C11.2754 11.0782 11.2701 11.1576 11.4095 11.1672C11.4275 11.1944 11.4531 11.2161 11.4838 11.2283C11.4694 11.2307 11.4578 11.2418 11.4578 11.2569V11.2755C11.4578 11.2767 11.4589 11.2774 11.459 11.2786H11.7837C11.7839 11.2775 11.785 11.2768 11.785 11.2755V11.2569C11.785 11.2416 11.7732 11.2303 11.7585 11.2282C11.8129 11.2063 11.851 11.1555 11.8575 11.095C11.8625 11.0913 11.8673 11.0879 11.8728 11.0837C11.907 11.0574 11.9587 11.0173 11.9751 11.0383C11.9792 11.0434 11.9788 11.0463 11.9787 11.0473C11.9768 11.0595 11.9508 11.077 11.9299 11.091C11.8969 11.1131 11.8629 11.136 11.8602 11.1685C11.8594 11.1778 11.8663 11.1859 11.8755 11.1867C11.876 11.1867 11.8765 11.1867 11.8769 11.1867C11.8856 11.1867 11.8929 11.1801 11.8937 11.1714C11.895 11.1549 11.9247 11.135 11.9486 11.119C11.979 11.0985 12.0077 11.0792 12.0118 11.0525C12.0137 11.0402 12.0103 11.0284 12.0014 11.0172ZM11.7027 11.0782C11.6931 11.0415 11.6704 11.0063 11.642 10.9935C11.657 10.9858 11.6676 10.9706 11.6676 10.9526C11.6676 10.9269 11.6468 10.906 11.6211 10.906C11.5954 10.906 11.5745 10.9268 11.5745 10.9526C11.5745 10.9706 11.5851 10.9858 11.6001 10.9935C11.5718 11.0063 11.549 11.0415 11.5394 11.0782H11.4437L11.6109 10.8312C11.6144 10.832 11.6178 10.8333 11.6215 10.8333C11.6253 10.8333 11.6286 10.832 11.6321 10.8312L11.7994 11.0782H11.7027Z" fill="#F8CB32"/>
<path d="M11.2917 11.715C11.2917 11.715 11.2816 11.6801 11.2905 11.6485C11.2995 11.6169 11.2763 11.5879 11.2714 11.5605C11.2579 11.4861 11.3209 11.4669 11.3243 11.4004C11.3243 11.4004 11.3693 11.4466 11.3524 11.4906C11.3355 11.5346 11.3772 11.5414 11.3716 11.5831C11.3659 11.6248 11.3198 11.6688 11.3243 11.706L11.2917 11.715Z" fill="#FF334B"/>
<path d="M12.0014 11.6442C11.9645 11.5981 11.8998 11.6477 11.8524 11.6839C11.8458 11.6889 11.8402 11.6928 11.8344 11.697L11.6596 11.439C11.6645 11.4316 11.668 11.4232 11.668 11.4137C11.668 11.388 11.6472 11.3672 11.6215 11.3672C11.5957 11.3672 11.5749 11.388 11.5749 11.4137C11.5749 11.4233 11.5785 11.4316 11.5834 11.439L11.4031 11.7052H11.2754C11.2754 11.7052 11.2701 11.7845 11.4095 11.7942C11.4275 11.8214 11.4531 11.843 11.4838 11.8553C11.4694 11.8576 11.4578 11.8687 11.4578 11.8838V11.9025C11.4578 11.9037 11.4589 11.9044 11.459 11.9055H11.7837C11.7839 11.9044 11.785 11.9037 11.785 11.9025V11.8838C11.785 11.8686 11.7732 11.8572 11.7585 11.8551C11.8129 11.8332 11.851 11.7824 11.8575 11.722C11.8625 11.7182 11.8673 11.7148 11.8728 11.7107C11.907 11.6843 11.9587 11.6443 11.9751 11.6652C11.9792 11.6704 11.9788 11.6732 11.9787 11.6742C11.9768 11.6864 11.9508 11.7039 11.9299 11.718C11.8969 11.7401 11.8629 11.763 11.8602 11.7955C11.8594 11.8048 11.8663 11.8128 11.8755 11.8137C11.876 11.8137 11.8765 11.8137 11.8769 11.8137C11.8856 11.8137 11.8929 11.807 11.8937 11.7983C11.895 11.7819 11.9247 11.7619 11.9486 11.7459C11.979 11.7254 12.0077 11.7062 12.0118 11.6795C12.0137 11.6671 12.0103 11.6553 12.0014 11.6442ZM11.7027 11.7052C11.6931 11.6685 11.6704 11.6332 11.642 11.6205C11.657 11.6127 11.6676 11.5975 11.6676 11.5795C11.6676 11.5538 11.6468 11.5329 11.6211 11.5329C11.5954 11.5329 11.5745 11.5537 11.5745 11.5795C11.5745 11.5975 11.5851 11.6127 11.6001 11.6205C11.5718 11.6332 11.549 11.6684 11.5394 11.7052H11.4437L11.6109 11.4581C11.6144 11.4589 11.6178 11.4602 11.6215 11.4602C11.6253 11.4602 11.6286 11.4589 11.6321 11.4581L11.7994 11.7052H11.7027Z" fill="#F8CB32"/>
<path d="M12.3679 7.94609C12.3679 7.94609 12.3679 10.2834 12.3679 11.2396C12.3679 11.9833 10.5618 12.727 10.5618 12.727C10.5618 12.727 8.75566 11.9833 8.75566 11.2396C8.75566 10.2834 8.75566 7.94609 8.75566 7.94609H10.5618H12.3679ZM12.4742 7.83984H12.3679H10.5618H8.75566H8.64941V7.94609V11.2396C8.64941 11.5874 8.9702 11.9618 9.60288 12.3526C10.0566 12.6328 10.5026 12.8176 10.5213 12.8253L10.5618 12.8419L10.6022 12.8253C10.6209 12.8176 11.0669 12.6328 11.5206 12.3526C12.1533 11.9618 12.4741 11.5874 12.4741 11.2396V7.94609L12.4742 7.83984Z" fill="white"/>
<path d="M12.49 11.8252L12.9716 12.1574C12.4122 12.875 11.5406 13.3378 10.5623 13.3378C9.584 13.3378 8.71234 12.875 8.15291 12.1574L8.63453 11.8252C9.08759 12.3905 9.78315 12.7535 10.5622 12.7535C11.3414 12.7534 12.037 12.3905 12.49 11.8252ZM12.469 11.6816L12.4071 11.7588C11.9546 12.3234 11.2822 12.6472 10.5623 12.6472C9.84246 12.6472 9.17003 12.3234 8.71753 11.7588L8.65572 11.6816L8.57434 11.7378L8.09272 12.0699L8 12.1339L8.06925 12.2227C8.67434 12.9988 9.58306 13.444 10.5624 13.444C11.5417 13.444 12.4504 12.9989 13.0555 12.2227L13.1247 12.1339L13.032 12.0699L12.5504 11.7378L12.469 11.6816Z" fill="white"/>
<path d="M10.5626 13.3387C11.5409 13.3387 12.4126 12.8759 12.972 12.1583L12.4904 11.8262C12.0373 12.3915 11.3418 12.7544 10.5627 12.7544C9.78357 12.7544 9.08801 12.3915 8.63494 11.8262L8.15332 12.1583C8.71269 12.8759 9.58435 13.3387 10.5626 13.3387Z" fill="#F8CB32"/>
<path d="M10.2837 1H9.70779L6.63654 3.0081V1H4.97873V3.0081L1.90748 1H1.33158C1.14847 1 1 1.14817 1 1.3309V1.59336L3.635 3.31622H1V4.97067H3.635L1 6.69356V6.95598C1 7.13871 1.14847 7.28688 1.33158 7.28688H1.90748L4.97873 5.27878V7.28688H6.63654V5.27878L9.70776 7.28688H10.2837C10.4668 7.28688 10.6152 7.13871 10.6152 6.95598V6.69352L7.98027 4.97067H10.6152V3.31622H7.98024L10.6152 1.59336V1.3309C10.6152 1.14817 10.4668 1 10.2837 1Z" fill="white"/>
<path d="M10.6152 3.64712H6.30496V1H5.31027V3.64712H1V4.63976H5.31027V7.28688H6.30496V4.63976H10.6152V3.64712Z" fill="#FF334B"/>
<path d="M4.98131 3.30356L1.17249 1C1.07114 1.05978 1 1.16018 1 1.28024V1.29774L4.31652 3.30356H4.98131Z" fill="#FF334B"/>
<path d="M7.24927 3.30356L10.5826 1.16503C10.5247 1.06815 10.4225 1 10.3003 1H10.2283L6.6377 3.30356H7.24927Z" fill="#FF334B"/>
<path d="M4.37031 4.97656L1.04688 7.1172C1.10418 7.21673 1.20788 7.28683 1.33169 7.28683H1.39442L4.98123 4.97656H4.37031Z" fill="#FF334B"/>
<path d="M10.6152 6.98175L7.52337 4.97656H6.91699L10.4279 7.25361C10.5331 7.20484 10.6052 7.10264 10.6152 6.98175Z" fill="#FF334B"/>
</svg>
