<svg width="16" height="16" viewBox="0 0 16 16" fill="none" xmlns="http://www.w3.org/2000/svg">
<g clip-path="url(#clip0_5367_188956)">
<rect x="14.918" y="0.974609" width="14" height="14" rx="2" transform="rotate(90 14.918 0.974609)" fill="#FF334B"/>
<path d="M1.24517 0.974609H10.0791C10.2598 0.974609 10.4063 1.12112 10.4063 1.30181V6.86389C10.4063 7.04458 10.2598 7.19109 10.0791 7.19109H1.24517C1.06448 7.19105 0.917969 7.04454 0.917969 6.86385V1.30177C0.917969 1.12108 1.06448 0.974609 1.24517 0.974609Z" fill="#41479B"/>
<path d="M5.57967 5.02813L5.42945 5.47849L4.9547 5.48216C4.89325 5.48264 4.86775 5.5611 4.9172 5.59757L5.2991 5.87959L5.15592 6.33221C5.13739 6.39081 5.20411 6.43929 5.2541 6.40352L5.64034 6.12747L6.02658 6.40352C6.07662 6.43925 6.1433 6.39081 6.12476 6.33221L5.98159 5.87959L6.36349 5.59757C6.41293 5.56107 6.38747 5.4826 6.32598 5.48216L5.85123 5.47849L5.70102 5.02813C5.68156 4.96979 5.59913 4.96979 5.57967 5.02813Z" fill="white"/>
<path d="M5.59163 1.51586L5.47014 1.88019L5.08612 1.88319C5.03638 1.88356 5.01578 1.94701 5.05577 1.97655L5.36469 2.20468L5.24887 2.57083C5.23386 2.61824 5.28786 2.65745 5.3283 2.62854L5.64071 2.40523L5.95311 2.62854C5.99355 2.65745 6.04755 2.61824 6.03254 2.57083L5.91672 2.20468L6.22564 1.97655C6.26563 1.94701 6.24503 1.88356 6.19529 1.88319L5.81127 1.88019L5.68978 1.51586C5.67406 1.46867 5.60739 1.46867 5.59163 1.51586Z" fill="white"/>
<path d="M7.53402 2.59987L7.41252 2.9642L7.02851 2.9672C6.97877 2.96757 6.95816 3.03103 6.99815 3.06057L7.30708 3.28869L7.19125 3.65484C7.17624 3.70225 7.23024 3.74146 7.27068 3.71255L7.58309 3.48924L7.8955 3.71255C7.93593 3.74146 7.98993 3.70225 7.97492 3.65484L7.8591 3.28869L8.16802 3.06057C8.20802 3.03103 8.18741 2.96757 8.13767 2.9672L7.75365 2.9642L7.63216 2.59987C7.61645 2.55265 7.54977 2.55265 7.53402 2.59987Z" fill="white"/>
<path d="M3.68978 3.02953L3.56828 3.39386L3.18427 3.39686C3.13453 3.39723 3.11392 3.46069 3.15391 3.49023L3.46284 3.71835L3.34701 4.0845C3.332 4.13191 3.38601 4.17112 3.42644 4.14221L3.73885 3.9189L4.05126 4.14221C4.09169 4.17112 4.1457 4.13191 4.13069 4.0845L4.01486 3.71835L4.32379 3.49023C4.36378 3.46069 4.34317 3.39723 4.29343 3.39686L3.90942 3.39386L3.78792 3.02953C3.77221 2.98235 3.70549 2.98235 3.68978 3.02953Z" fill="white"/>
<path d="M6.69694 4.21909L6.62871 4.42361L6.41314 4.42528C6.38524 4.4255 6.37367 4.46112 6.39613 4.47772L6.56955 4.60578L6.50454 4.81133C6.49613 4.83794 6.52641 4.85996 6.54913 4.84373L6.72452 4.71838L6.8999 4.84373C6.92258 4.85996 6.9529 4.83794 6.94449 4.81133L6.87948 4.60578L7.0529 4.47772C7.07536 4.46116 7.06379 4.42554 7.03589 4.42528L6.82032 4.42361L6.75209 4.21909C6.74323 4.19259 6.70576 4.19259 6.69694 4.21909Z" fill="white"/>
</g>
<defs>
<clipPath id="clip0_5367_188956">
<rect x="14.918" y="0.974609" width="14" height="14" rx="2" transform="rotate(90 14.918 0.974609)" fill="white"/>
</clipPath>
</defs>
</svg>
