<svg width="16" height="16" viewBox="0 0 16 16" fill="none" xmlns="http://www.w3.org/2000/svg">
<g clip-path="url(#clip0_5367_188915)">
<rect x="1" y="1" width="14" height="14" rx="2" fill="#82AFFF"/>
<path d="M15 3H1V1.57896C1 1.25925 1.10809 1 1.24139 1H14.7586C14.8919 1 15 1.25925 15 1.57896L15 3Z" fill="#73AF00"/>
<path d="M15 3H1V5H15V3Z" fill="#F8CB32"/>
<path d="M15 5H1V7H15V5Z" fill="#FF334B"/>
<path d="M15 7H1V9H15V7Z" fill="#464655"/>
<path d="M15 9H1V11H15V9Z" fill="#FF334B"/>
<path d="M15 11H1V13H15V11Z" fill="#F8CB32"/>
<path d="M14.7586 15H1.24139C1.10809 15 1 14.7407 1 14.421V13H15V14.421C15 14.7408 14.8919 15 14.7586 15Z" fill="#73AF00"/>
<path d="M0.560563 15.2749L9.75021 7.99974L0.560563 0.724609C0.481999 0.795695 0.430664 0.895814 0.430664 1.01005V14.9894C0.430664 15.1037 0.481999 15.2038 0.560563 15.2749Z" fill="#464655"/>
<path d="M0.55276 14.8384L9.19042 8.00025L0.55276 1.16211C0.478915 1.22893 0.430664 1.32303 0.430664 1.43041V14.57C0.430664 14.6775 0.478915 14.7716 0.55276 14.8384Z" fill="white"/>
<path d="M3.98902 5.33008L4.75819 6.88855L6.47804 7.13849L5.23351 8.35156L5.52732 10.0645L3.98902 9.25572L2.45072 10.0645L2.74453 8.35156L1.5 7.13849L3.21989 6.88855L3.98902 5.33008Z" fill="#FF334B"/>
<path d="M5.98491 8.19755L3.94091 6.61522C3.70176 6.05481 3.36185 5.69336 3.07329 5.69336C2.82815 5.69336 2.70829 5.92056 2.67397 6.05708C2.49742 6.13883 2.45599 6.30152 2.45425 6.3086C2.45136 6.32025 2.45413 6.33266 2.46149 6.34209C2.46893 6.35151 2.48026 6.35705 2.49229 6.35705L2.52888 6.35635C2.69311 6.35255 2.96674 6.34535 3.0367 6.86706C3.08036 7.19283 3.01553 7.77635 2.80942 8.21616C2.66537 8.52344 2.71296 8.77194 2.71507 8.78236C2.71899 8.80195 2.73723 8.81486 2.75757 8.81362C2.76071 8.81328 2.76832 8.81299 2.778 8.81266L2.94338 9.74767C2.94673 9.76636 2.9629 9.78001 2.98192 9.78001H5.4496C5.46767 9.78001 5.48338 9.76764 5.48764 9.75011L5.7633 8.61788C5.76338 8.61755 5.76375 8.61738 5.76383 8.61705C5.764 8.61643 5.76379 8.61581 5.76392 8.61519L5.85149 8.25556C5.91628 8.26321 5.95481 8.26722 5.95696 8.26747C5.97565 8.26991 5.99087 8.25924 5.99728 8.24307C6.00369 8.22691 5.99877 8.2083 5.98491 8.19755Z" fill="#F8CB32"/>
<path d="M5.98491 8.19755L3.94091 6.61522C3.70176 6.05481 3.36185 5.69336 3.07329 5.69336C2.82815 5.69336 2.70829 5.92056 2.67397 6.05708C2.49742 6.13883 2.45599 6.30152 2.45425 6.3086C2.45136 6.32025 2.45413 6.33266 2.46149 6.34209C2.46893 6.35151 2.48026 6.35705 2.49229 6.35705L2.52888 6.35635C2.69311 6.35255 2.96674 6.34535 3.0367 6.86706C3.08036 7.19283 3.01553 7.77635 2.80942 8.21616C2.66537 8.52344 2.71296 8.77194 2.71507 8.78236C2.71899 8.80195 2.73723 8.81486 2.75757 8.81362C2.76071 8.81328 2.76832 8.81299 2.778 8.81266L2.94338 9.74767C2.94673 9.76636 2.9629 9.78001 2.98192 9.78001H5.4496C5.46767 9.78001 5.48338 9.76764 5.48764 9.75011L5.7633 8.61788C5.76338 8.61755 5.76375 8.61738 5.76383 8.61705C5.764 8.61643 5.76379 8.61581 5.76392 8.61519L5.85149 8.25556C5.91628 8.26321 5.95481 8.26722 5.95696 8.26747C5.97565 8.26991 5.99087 8.25924 5.99728 8.24307C6.00369 8.22691 5.99877 8.2083 5.98491 8.19755ZM2.88025 8.24948C3.0668 7.85156 3.1674 7.25278 3.11431 6.85673C3.03856 6.29185 2.72152 6.27411 2.5503 6.27754C2.57457 6.23037 2.62501 6.16107 2.72247 6.12134C2.73454 6.11646 2.74335 6.10575 2.74599 6.09293C2.74872 6.07982 2.81537 5.77175 3.07321 5.77175C3.32786 5.77175 3.64917 6.12684 3.87277 6.65524C3.87537 6.66145 3.87955 6.66686 3.88484 6.67096L5.82606 8.17369C5.48392 8.13218 4.58988 8.00901 4.06032 7.80034C3.7835 7.69131 3.72041 7.52538 3.66475 7.37897C3.65711 7.35871 3.63436 7.34871 3.61419 7.35632C3.59397 7.36401 3.5838 7.38666 3.59153 7.40688C3.64685 7.55234 3.72264 7.75163 4.03162 7.87335C4.09459 7.89816 4.16257 7.92177 4.23405 7.94418C4.22161 7.98193 4.14239 8.17432 3.79115 8.3005C3.50652 8.4028 3.30396 8.57521 3.2763 8.73096C3.17228 8.73055 3.07945 8.73071 3.00147 8.73121V8.61813C3.00147 8.53221 3.08425 8.4078 3.17186 8.27603C3.29396 8.09245 3.43235 7.88435 3.43235 7.6715C3.43235 7.64988 3.41477 7.6323 3.39315 7.6323C3.37152 7.6323 3.35395 7.64988 3.35395 7.6715C3.35395 7.86066 3.22251 8.0583 3.10658 8.23261C3.00809 8.38068 2.92308 8.50856 2.92308 8.61809V8.73183C2.86396 8.73245 2.81761 8.73324 2.78738 8.73411C2.78039 8.66038 2.77638 8.47102 2.88025 8.24948ZM4.43368 8.00136C4.38836 8.1273 4.25423 8.16993 4.15479 8.18358C4.26258 8.08778 4.29897 7.99917 4.30918 7.96676C4.34978 7.97875 4.39146 7.9902 4.43368 8.00136ZM4.50917 8.02084C4.5523 8.03167 4.5958 8.04209 4.63975 8.05218C4.59976 8.13351 4.49293 8.17341 4.37616 8.19011C4.43405 8.15339 4.48308 8.09923 4.50917 8.02084ZM5.61656 8.88953C5.21947 8.76718 4.07351 8.73588 3.35532 8.73129C3.37963 8.64232 3.49234 8.52547 3.68319 8.43182C3.68514 8.43215 3.68692 8.43302 3.68894 8.43302C4.76106 8.43682 5.50732 8.59584 5.67829 8.63591L5.61656 8.88953ZM5.56599 9.09713L5.40937 8.9224C5.48404 8.93538 5.54767 8.94985 5.59799 8.96594L5.56599 9.09713ZM3.53985 9.12475L3.61601 9.19644C3.59256 9.19628 3.56945 9.19603 3.54547 9.19591C3.5434 9.17292 3.54167 9.14856 3.53985 9.12475ZM5.51915 9.28951L5.32014 9.07145C5.30704 9.05706 5.28537 9.05442 5.26945 9.06533L5.03576 9.22179L4.85992 9.02907C4.84631 9.0141 4.82324 9.01212 4.80716 9.0244L4.59592 9.18635L4.40424 8.99711C4.38985 8.98289 4.36686 8.98198 4.35148 8.995L4.14512 9.16857L3.95178 8.98917C3.93715 8.97561 3.91445 8.97532 3.89931 8.98843L3.69763 9.16568L3.53178 9.00964C3.52889 8.96308 3.52633 8.91512 3.52409 8.86579L3.67257 9.01158C3.68704 9.02585 3.71007 9.02647 3.72553 9.01332L3.93322 8.83454L4.12296 9.02138C4.13726 9.03548 4.16004 9.03639 4.17555 9.02357L4.38389 8.84996L4.5838 9.03829C4.5979 9.05152 4.6194 9.0526 4.6345 9.04086L4.84358 8.88047L5.01852 9.08121C5.03175 9.09638 5.05437 9.09899 5.07083 9.08733L5.3034 8.92161L5.53461 9.17953C5.53738 9.18259 5.54085 9.18449 5.54424 9.18648L5.51915 9.28951ZM5.4016 9.2769C5.33925 9.26901 5.25217 9.2597 5.13425 9.25015L5.28508 9.14918L5.4016 9.2769ZM4.94319 9.23651C4.86455 9.23155 4.77636 9.22675 4.67787 9.22224L4.8263 9.10846L4.94319 9.23651ZM4.51385 9.21538C4.42421 9.21199 4.32675 9.20893 4.22206 9.20624L4.37463 9.0779L4.51385 9.21538ZM4.06677 9.20264C3.97647 9.20078 3.8805 9.19925 3.77957 9.19806L3.92458 9.07071L4.06677 9.20264ZM3.58132 8.81225C3.6626 8.81328 3.74728 8.81477 3.8339 8.81659L3.70168 8.93042L3.58132 8.81225ZM4.03154 8.82135C4.11572 8.82366 4.20077 8.82651 4.28566 8.8297L4.1526 8.94055L4.03154 8.82135ZM4.48585 8.83834C4.57574 8.84268 4.66447 8.84752 4.75051 8.85306L4.61328 8.95833L4.48585 8.83834ZM4.93558 8.86666C5.03225 8.87452 5.12371 8.88341 5.20789 8.89346L5.05429 9.0029L4.93558 8.86666ZM2.85717 8.81105C2.97489 8.80931 3.18588 8.80836 3.44326 8.81068C3.45794 9.18296 3.49048 9.48202 3.53989 9.7017H3.01475L2.85717 8.81105ZM5.41884 9.70174H3.62006C3.59256 9.58394 3.57028 9.44084 3.5532 9.2743C4.86347 9.28294 5.36124 9.34798 5.48565 9.36832C5.48933 9.37192 5.49343 9.37485 5.49798 9.37667L5.41884 9.70174ZM5.69681 8.55983C5.53118 8.52109 4.84747 8.376 3.86123 8.35707C3.93074 8.32936 3.98999 8.29939 4.03989 8.26838C4.06321 8.27131 4.13189 8.27888 4.21797 8.27888C4.39671 8.27888 4.64781 8.24506 4.71715 8.0695C5.12425 8.1586 5.54151 8.21711 5.77322 8.24605L5.69681 8.55983Z" fill="#464655"/>
<path d="M3.184 6.03878C3.184 5.96679 3.12545 5.9082 3.05342 5.9082C2.98144 5.9082 2.92285 5.96675 2.92285 6.03878C2.92285 6.11076 2.9814 6.16935 3.05342 6.16935C3.12541 6.16935 3.184 6.11076 3.184 6.03878ZM3.05342 6.091C3.02461 6.091 3.0012 6.06759 3.0012 6.03878C3.0012 6.00996 3.02461 5.98655 3.05342 5.98655C3.08224 5.98655 3.10564 6.00996 3.10564 6.03878C3.10564 6.06759 3.08224 6.091 3.05342 6.091Z" fill="#464655"/>
<path d="M4.14791 8.4668C4.07709 8.4668 4.01953 8.52439 4.01953 8.59518C4.01953 8.66597 4.07713 8.72356 4.14791 8.72356C4.2187 8.72356 4.27633 8.66597 4.27633 8.59518C4.27633 8.52439 4.2187 8.4668 4.14791 8.4668ZM4.14791 8.64525C4.12029 8.64525 4.09788 8.6228 4.09788 8.59522C4.09788 8.56764 4.12033 8.54519 4.14791 8.54519C4.17553 8.54519 4.19802 8.56764 4.19802 8.59522C4.19802 8.6228 4.17549 8.64525 4.14791 8.64525Z" fill="#464655"/>
<path d="M4.53174 8.48828C4.46092 8.48828 4.40332 8.54592 4.40332 8.6167C4.40332 8.68749 4.46096 8.74508 4.53174 8.74508C4.60257 8.74508 4.66012 8.68749 4.66012 8.6167C4.66012 8.54592 4.60257 8.48828 4.53174 8.48828ZM4.53174 8.66673C4.50412 8.66673 4.48163 8.64428 4.48163 8.6167C4.48163 8.58908 4.50412 8.56659 4.53174 8.56659C4.55936 8.56659 4.58177 8.58908 4.58177 8.6167C4.58181 8.64428 4.55936 8.66673 4.53174 8.66673Z" fill="#464655"/>
</g>
<defs>
<clipPath id="clip0_5367_188915">
<rect x="1" y="1" width="14" height="14" rx="2" fill="white"/>
</clipPath>
</defs>
</svg>
