<svg width="20" height="20" viewBox="0 0 20 20" fill="none" xmlns="http://www.w3.org/2000/svg">
<rect x="0.15" y="2.15" width="19.7" height="15.7" rx="1.85" fill="white"/>
<path fill-rule="evenodd" clip-rule="evenodd" d="M9.90746 13.7239C12.0655 13.7239 13.8149 12.0725 13.8149 10.0353C13.8149 7.99813 12.0655 6.34668 9.90746 6.34668C7.74943 6.34668 6 7.99813 6 10.0353C6 12.0725 7.74943 13.7239 9.90746 13.7239Z" fill="#3D58DB"/>
<mask id="mask0_1150_14954" style="mask-type:luminance" maskUnits="userSpaceOnUse" x="6" y="6" width="8" height="8">
<path fill-rule="evenodd" clip-rule="evenodd" d="M9.90746 13.7239C12.0655 13.7239 13.8149 12.0725 13.8149 10.0353C13.8149 7.99813 12.0655 6.34668 9.90746 6.34668C7.74943 6.34668 6 7.99813 6 10.0353C6 12.0725 7.74943 13.7239 9.90746 13.7239Z" fill="white"/>
</mask>
<g mask="url(#mask0_1150_14954)">
<path fill-rule="evenodd" clip-rule="evenodd" d="M13.9516 10.3178C13.9516 10.3178 13.7323 8.57854 12.108 8.48412C10.4836 8.3897 10.0456 9.75962 9.95191 10.1226C9.85818 10.4855 9.62094 11.4537 7.91071 11.4537C6.20047 11.4537 6.0462 8.99179 6.0462 8.99179V6.08881H13.9516V10.3178Z" fill="#E31D1C"/>
</g>
<path fill-rule="evenodd" clip-rule="evenodd" d="M3.85713 4.04059L4.47365 4.53623L1.61651 7.50214L1 7.0065L3.85713 4.04059ZM4.8739 4.84268L5.49041 5.33832L2.73569 8.26127L2.11918 7.76563L4.8739 4.84268ZM6.50254 6.15034L5.88603 5.6547L3.12366 8.59983L3.74017 9.09547L6.50254 6.15034Z" fill="#272727"/>
<path fill-rule="evenodd" clip-rule="evenodd" d="M16.0292 3.83276L15.4125 4.32655L16.4821 5.44228L17.0988 4.9485L16.0292 3.83276ZM17.9304 5.88514L17.3137 6.37892L18.3834 7.49466L19 7.00087L17.9304 5.88514ZM13.3773 5.93365L13.9939 5.43987L15.0635 6.5556L14.4469 7.04939L13.3773 5.93365ZM15.8951 7.49224L15.2784 7.98603L16.348 9.10176L16.9647 8.60797L15.8951 7.49224ZM14.4335 5.10613L15.0501 4.61234L18.0274 7.83517L17.4107 8.32896L14.4335 5.10613Z" fill="#272727"/>
<path fill-rule="evenodd" clip-rule="evenodd" d="M16.4948 11.3423L15.873 10.8466L14.7943 11.9666L15.4162 12.4624L16.4948 11.3423ZM14.6814 13.3135L14.0596 12.8178L12.981 13.9378L13.6028 14.4336L14.6814 13.3135ZM17.8368 12.4142L18.4586 12.91L17.38 14.03L16.7582 13.5343L17.8368 12.4142ZM16.7339 14.9268L16.112 14.4311L15.0334 15.5512L15.6552 16.0469L16.7339 14.9268ZM15.0877 13.5794L15.7095 14.0751L14.5836 15.2711L13.9618 14.7754L15.0877 13.5794ZM17.5567 12.0821L16.9349 11.5864L15.809 12.7824L16.4308 13.2782L17.5567 12.0821Z" fill="#272727"/>
<path fill-rule="evenodd" clip-rule="evenodd" d="M3.25553 11.7297L3.8722 11.2354L6.62445 14.0387L6.00777 14.533L3.25553 11.7297ZM3.89754 14.1816L4.51421 13.6872L5.67675 14.8226L5.06007 15.3169L3.89754 14.1816ZM1.84247 12.8083L1.22579 13.3027L3.99233 16.1437L4.60901 15.6494L1.84247 12.8083ZM2.28128 12.4857L2.89795 11.9914L3.90575 13.0419L3.28908 13.5362L2.28128 12.4857Z" fill="#272727"/>
<rect x="0.15" y="2.15" width="19.7" height="15.7" rx="1.85" stroke="#D9D9D9" stroke-width="0.3"/>
</svg>
