<svg width="20" height="20" viewBox="0 0 20 20" fill="none" xmlns="http://www.w3.org/2000/svg">
<g clip-path="url(#clip0_1221_15054)">
<rect y="2" width="20" height="16" rx="2" fill="white"/>
<path d="M22.8424 18H-0.73646C-0.968984 18 -1.15753 17.8115 -1.15753 17.5789V2.42107C-1.15753 2.18855 -0.968984 2 -0.73646 2H22.8425C23.075 2 23.2635 2.18855 23.2635 2.42107V17.5789C23.2635 17.8115 23.0749 18 22.8424 18Z" fill="#FF4B55"/>
<path d="M-0.73646 2.00006H10.6319C10.8645 2.00006 11.053 2.18861 11.053 2.42113V9.57902C11.053 9.81154 10.8645 10.0001 10.6319 10.0001H-0.73646C-0.968984 10 -1.15753 9.81149 -1.15753 9.57897V2.42108C-1.15753 2.18856 -0.968984 2.00006 -0.73646 2.00006Z" fill="#41479B"/>
<path d="M3.44041 6.0001C3.44041 5.58408 3.60897 5.20747 3.88151 4.93478L2.61877 4.57357C2.54546 4.55263 2.49295 4.64364 2.5477 4.69663L3.49264 5.61027L2.2175 5.92908C2.14357 5.94754 2.14357 6.05266 2.2175 6.07117L3.49264 6.38998L2.5477 7.30362C2.4929 7.35661 2.54546 7.44762 2.61877 7.42668L3.88151 7.06547C3.60897 6.79273 3.44041 6.41611 3.44041 6.0001Z" fill="#F5F5F5"/>
<path d="M3.88215 4.93417C4.15484 4.66163 4.53146 4.49307 4.94747 4.49307C5.36349 4.49307 5.74011 4.66163 6.01279 4.93417L6.374 3.67143C6.39494 3.59812 6.30394 3.54561 6.25095 3.60036L5.3373 4.54525L5.01849 3.27011C5.00004 3.19618 4.89491 3.19618 4.8764 3.27011L4.5576 4.54525L3.64395 3.60036C3.59096 3.54556 3.49996 3.59812 3.5209 3.67143L3.88215 4.93417Z" fill="#F5F5F5"/>
<path d="M6.01299 7.0661C5.7403 7.33864 5.36369 7.5072 4.94767 7.5072C4.53165 7.5072 4.15504 7.33864 3.88235 7.0661L3.52114 8.32884C3.5002 8.40215 3.59121 8.45466 3.6442 8.39991L4.55784 7.45502L4.87665 8.73016C4.89511 8.80409 5.00023 8.80409 5.01874 8.73016L5.33755 7.45502L6.25119 8.39991C6.30418 8.45471 6.39519 8.40215 6.37425 8.32884L6.01299 7.0661Z" fill="#F5F5F5"/>
<path d="M7.67767 5.92902L6.40253 5.61021L7.34742 4.69657C7.40222 4.64358 7.34966 4.55257 7.27635 4.57351L6.01361 4.93472C6.28615 5.2074 6.45471 5.58402 6.45471 6.00004C6.45471 6.41605 6.28615 6.79267 6.01361 7.06536L7.27635 7.42657C7.34966 7.44751 7.40217 7.3565 7.34742 7.30351L6.40253 6.38987L7.67767 6.07106C7.75165 6.05265 7.75165 5.94757 7.67767 5.92902Z" fill="#F5F5F5"/>
<path d="M4.9475 7.20024C5.61028 7.20024 6.14756 6.66295 6.14756 6.00017C6.14756 5.3374 5.61028 4.80011 4.9475 4.80011C4.28472 4.80011 3.74744 5.3374 3.74744 6.00017C3.74744 6.66295 4.28472 7.20024 4.9475 7.20024Z" fill="#F5F5F5"/>
</g>
<defs>
<clipPath id="clip0_1221_15054">
<rect y="2" width="20" height="16" rx="2" fill="white"/>
</clipPath>
</defs>
</svg>
