<svg width="20" height="20" viewBox="0 0 20 20" fill="none" xmlns="http://www.w3.org/2000/svg">
<g clip-path="url(#clip0_1221_15075)">
<rect y="2" width="20" height="16" rx="2" fill="white"/>
<path d="M22.3623 17.9999H-1.22254C-1.45629 17.9999 -1.64233 17.8091 -1.64233 17.5801V2.41979C-1.64233 2.18605 -1.45152 2 -1.22254 2H22.3575C22.5913 2 22.7773 2.19082 22.7773 2.41979V17.5801C22.7821 17.8139 22.5913 17.9999 22.3623 17.9999Z" fill="#F5F5F5"/>
<path d="M22.3628 18H-1.22208C-1.45583 18 -1.64188 17.8092 -1.64188 17.5802V15.4764H22.7826V17.5802C22.7826 17.8139 22.5917 18 22.3628 18Z" fill="#FF4B55"/>
<path d="M-1.22208 2.00006H22.358C22.5917 2.00006 22.7778 2.19088 22.7778 2.41986V4.5236H-1.64188V2.41986C-1.64188 2.18611 -1.45106 2.00006 -1.22208 2.00006Z" fill="#FF4B55"/>
<path d="M22.7821 7.05182H-1.64233V12.948H22.7821V7.05182Z" fill="#41479B"/>
</g>
<defs>
<clipPath id="clip0_1221_15075">
<rect y="2" width="20" height="16" rx="2" fill="white"/>
</clipPath>
</defs>
</svg>
